<svg width="139" height="139" viewBox="0 0 139 139" fill="none" xmlns="http://www.w3.org/2000/svg">
<g filter="url(#filter0_d_998_2980)">
<path d="M90.1727 105.242C88.9019 112.029 80.7601 114.896 75.5175 110.402L27.6784 69.3916C22.4358 64.8973 24.0243 56.4131 30.5377 54.12L89.973 33.1951C96.4864 30.902 103.04 36.5198 101.769 43.3072L90.1727 105.242Z" fill="#FDCD11"/>
<path d="M95.5612 106.25C93.5138 117.186 80.396 121.804 71.9495 114.563L24.1104 73.554C15.664 66.3133 18.2237 52.6435 28.7176 48.949L88.1525 28.0243C98.6464 24.3298 109.204 33.3813 107.157 44.3165L95.5612 106.25Z" stroke="white" stroke-width="10.9637"/>
</g>
<path d="M92.6218 105.7C90.998 114.373 80.5948 118.035 73.8959 112.293L26.0568 71.2837C19.3579 65.5411 21.3879 54.6997 29.7106 51.7696L89.1455 30.8448C97.4683 27.9147 105.842 35.0932 104.219 43.766L92.6218 105.7Z" fill="#FDCD11" stroke="black" stroke-width="4.98349"/>
<path d="M34.7685 66.5464L25.63 61.0971C25.2445 60.8672 24.7299 60.9217 24.5675 61.3401C23.7861 63.3526 25.6419 67.4855 26.7286 68.4594L33.2711 74.1732C33.3393 74.2328 33.4154 74.2828 33.4971 74.3218L36.6845 75.8444C37.2524 76.1158 37.9265 75.7992 38.0805 75.189L38.8024 72.3279C38.9852 71.6038 39.87 71.3304 40.4293 71.8253L47.6235 78.1912C48.1621 78.6678 49.0128 78.4344 49.2329 77.7497L50.7558 73.011C50.9682 72.3501 51.7743 72.1033 52.3203 72.5321L57.7057 76.7618C58.629 77.487 59.8279 76.2976 59.11 75.3686L50.2891 63.9534C49.8072 63.3298 48.8265 63.4857 48.5617 64.2279L46.6641 69.5459C46.3912 70.3106 45.3674 70.4457 44.9056 69.7778L39.256 61.6068C38.7821 60.9213 37.7261 61.0856 37.4829 61.8827L36.2323 65.9813C36.0434 66.6001 35.3242 66.8778 34.7685 66.5464Z" fill="#B59000"/>
<path d="M94.4862 45.5234L98.1953 35.5508C98.3518 35.1302 98.787 34.8503 99.1757 35.0746C101.046 36.1538 102.188 40.5377 101.951 41.9776L100.405 50.5426C100.389 50.6295 100.362 50.714 100.324 50.7937L98.8155 53.9643C98.5444 54.5341 97.8187 54.7118 97.315 54.3316L94.964 52.5569C94.3679 52.1069 93.507 52.4482 93.3811 53.1843L91.7616 62.6531C91.6404 63.362 90.8311 63.7131 90.2306 63.3172L86.075 60.5777C85.4954 60.1956 84.7124 60.5083 84.5555 61.1846L83.0077 67.8552C82.7423 68.9989 81.0628 68.8229 81.0403 67.649L80.7644 53.2255C80.7493 52.4376 81.6114 51.9446 82.2827 52.3572L87.0934 55.3136C87.7852 55.7387 88.6678 55.2025 88.6093 54.3926L87.8939 44.4845C87.8339 43.6533 88.7599 43.1198 89.4488 43.5888L92.9912 45.9999C93.5261 46.3639 94.2607 46.1298 94.4862 45.5234Z" fill="#B59000"/>
<circle cx="78.7671" cy="96.2879" r="6.75182" transform="rotate(-19.3952 78.7671 96.2879)" fill="black"/>
<path d="M70.0553 87.2712L55.0044 56.2523C54.3131 54.8275 54.9903 53.1165 56.4694 52.5508L67.6749 48.2651C69.1955 47.6835 70.8811 48.5694 71.2645 50.1516L79.449 83.9286C79.7755 85.2759 79.0288 86.6516 77.7211 87.112L73.382 88.6397C72.0865 89.0958 70.6549 88.5069 70.0553 87.2712Z" fill="black"/>
<defs>
<filter id="filter0_d_998_2980" x="13.5742" y="21.6953" width="102.363" height="107.166" filterUnits="userSpaceOnUse" color-interpolation-filters="sRGB">
<feFlood flood-opacity="0" result="BackgroundImageFix"/>
<feColorMatrix in="SourceAlpha" type="matrix" values="0 0 0 0 0 0 0 0 0 0 0 0 0 0 0 0 0 0 127 0" result="hardAlpha"/>
<feOffset dx="3.03888" dy="5.31804"/>
<feComposite in2="hardAlpha" operator="out"/>
<feColorMatrix type="matrix" values="0 0 0 0 0 0 0 0 0 0 0 0 0 0 0 0 0 0 0.25 0"/>
<feBlend mode="normal" in2="BackgroundImageFix" result="effect1_dropShadow_998_2980"/>
<feBlend mode="normal" in="SourceGraphic" in2="effect1_dropShadow_998_2980" result="shape"/>
</filter>
</defs>
</svg>
