<svg width="467" height="412" viewBox="0 0 467 412" fill="none" xmlns="http://www.w3.org/2000/svg">
<g clip-path="url(#clip0_1179_2334)">
<g opacity="0.25" filter="url(#filter0_d_1179_2334)">
<path d="M86.6775 143.782L117.636 106.418L153.305 135.971L174.044 88.7404C184.095 115.213 205.729 169.426 211.856 174.503L153.305 135.971L146.226 180.816L176.426 199.598L129.965 271.264L0.00964454 320.99L-28.8195 291.199L-25.4132 282.894L-122.298 302.689L-101.809 195.112L20.7848 170.264L47.9527 119.699L86.6775 143.782Z" fill="url(#paint0_linear_1179_2334)" fill-opacity="0.11" shape-rendering="crispEdges"/>
<path d="M169.422 263.729L205.282 242.051L284.279 307.503L349.469 197.197L360.053 278.852L284.279 307.503L267.098 359.419L181.107 406.637L167.502 356.245L112.186 372.414L122.328 320.57L169.422 263.729Z" fill="url(#paint1_linear_1179_2334)" fill-opacity="0.11" shape-rendering="crispEdges"/>
<path d="M176.426 199.598L146.226 180.816M176.426 199.598L110.49 255.128M176.426 199.598L135.618 202.876M176.426 199.598L129.965 271.264L0.009649 320.99M-3.07139 87.967L47.9527 119.699M86.6775 143.782L117.636 106.418M86.6775 143.782L146.226 180.816M86.6775 143.782L20.7848 170.264M86.6775 143.782L47.9527 119.699M117.636 106.418L63.7402 7.32876M117.636 106.418L153.305 135.971M153.305 135.971L211.856 174.503C205.729 169.426 184.095 115.213 174.044 88.7404L153.305 135.971ZM153.305 135.971L146.226 180.816M146.226 180.816L135.618 202.876M110.49 255.128L135.618 202.876M110.49 255.128L-122.298 302.689L-101.809 195.112L20.7848 170.264M110.49 255.128L0.009649 320.99M135.618 202.876L20.7848 170.264M20.7848 170.264L47.9527 119.699M20.7848 170.264L-28.8195 291.199L0.009649 320.99M205.282 242.051L169.422 263.729L122.328 320.57L112.186 372.414M205.282 242.051L167.502 356.245M205.282 242.051L112.186 372.414M205.282 242.051L284.279 307.503M167.502 356.245L112.186 372.414M167.502 356.245L181.107 406.637M181.107 406.637L267.098 359.419M181.107 406.637L171.461 443.668M267.098 359.419L284.279 307.503M267.098 359.419L291.023 404.706M284.279 307.503L360.053 278.852M284.279 307.503L349.47 197.197M360.053 278.852L349.47 197.197M360.053 278.852L411.043 296.373M349.47 197.197L390.082 148.179M349.47 197.197L401.315 182.95" stroke="url(#paint2_radial_1179_2334)" stroke-width="1.98926" shape-rendering="crispEdges"/>
</g>
<g opacity="0.2" filter="url(#filter1_d_1179_2334)">
<path d="M238.922 68.5372L195.982 91.1348L217.554 132.126L262.896 134.437L275.054 167.859L354.753 137.156L430.182 20.23L406.968 -14.1174L398.14 -12.4947L437.467 -103.224L327.976 -105.334L278.409 9.51236L223.332 25.6821L238.922 68.5372Z" fill="url(#paint3_linear_1179_2334)" fill-opacity="0.11" shape-rendering="crispEdges"/>
<path d="M339.253 174.215L310.653 204.84L358.428 295.625L412.771 289.507L476.689 215.086L430.18 191.392L513.295 147.653L486.759 127.739L457.397 140.594L404.575 139.839L339.253 174.215Z" fill="url(#paint4_linear_1179_2334)" fill-opacity="0.11" shape-rendering="crispEdges"/>
<path d="M275.054 167.859L262.896 134.437M275.054 167.859L342.975 114.774M275.054 167.859L286.667 128.6M275.054 167.859L354.753 137.156L430.182 20.23M202.791 -30.7842L223.332 25.6821M238.922 68.5372L195.982 91.1348M238.922 68.5372L262.896 134.437M238.922 68.5372L278.409 9.51236M238.922 68.5372L223.332 25.6821M195.982 91.1348L110.12 17.9843M195.982 91.1348L217.554 132.126M243.199 197.359L217.554 132.126M217.554 132.126L262.896 134.437M262.896 134.437L286.667 128.6M342.975 114.774L286.667 128.6M342.975 114.774L437.467 -103.224L327.976 -105.334L278.409 9.51236M342.975 114.774L430.182 20.23M286.667 128.6L278.409 9.51236M278.409 9.51236L223.332 25.6821M278.409 9.51236L406.968 -14.1174L430.182 20.23M469.898 105.462L404.575 139.839M310.653 204.84L339.253 174.215L404.575 139.839M310.653 204.84L430.18 191.392M310.653 204.84L457.397 140.594M310.653 204.84L358.428 295.625L412.771 289.507M430.18 191.392L513.295 147.653L486.759 127.739L457.397 140.594M430.18 191.392L457.397 140.594M430.18 191.392L476.689 215.086M404.575 139.839L457.397 140.594M476.689 215.086L412.771 289.507M476.689 215.086L514.913 213.275M412.771 289.507L452.158 322.247" stroke="url(#paint5_radial_1179_2334)" stroke-width="1.98926" shape-rendering="crispEdges"/>
</g>
<g filter="url(#filter2_d_1179_2334)">
<path d="M191.037 222.614L187.526 209.529L198.228 206.071L193.278 198.419L204.11 191.413L194.528 176.597L211.449 179.161L186.019 122.703L215.27 167.443L214.086 149.207L226.754 183.644L230.829 157.506L241.784 186.847L284.536 162.138L302.781 209.567L352.215 217.079L336.47 270.56L327.189 284.183L338.314 283.569L324.346 292.603L350.618 334.687L319.923 304.89L299.22 286.48C297.079 283.17 299.295 294.077 299.295 294.077L311.642 326.458L283.233 283.363L268.534 310.071L267.164 294.461L249.237 312.498C247.201 315.845 245.464 288.32 246.088 280.066L197.708 266.214L186.311 265.158L204.34 253.496L181.06 229.067L191.037 222.614Z" fill="black"/>
<path d="M186.565 122.347L214.459 165.013L213.436 149.249L213.145 144.762L214.697 148.982L226.498 181.063L230.186 157.405L230.569 154.948L231.439 157.278L242.123 185.898L284.21 161.575L284.87 161.193L285.143 161.905L303.252 208.98L352.313 216.436L353.05 216.547L352.84 217.263L337.095 270.744L337.066 270.842L337.008 270.927L328.468 283.46L338.278 282.919L340.727 282.783L325.238 292.802L351.17 334.342L354.004 338.882L350.164 335.155L319.48 305.368L298.941 287.104C298.944 287.195 298.948 287.292 298.953 287.395C298.977 287.852 299.03 288.387 299.101 288.957C299.242 290.097 299.45 291.344 299.623 292.31C299.71 292.792 299.787 293.202 299.843 293.492C299.871 293.636 299.893 293.75 299.909 293.828C299.914 293.855 299.919 293.878 299.922 293.896L312.251 326.226L314.366 331.773L311.099 326.817L283.282 284.623L269.104 310.385L268.072 312.26L267.885 310.128L266.637 295.915L249.745 312.91C249.581 313.152 249.26 313.499 248.757 313.419C248.509 313.38 248.327 313.243 248.209 313.123C248.089 313.001 247.994 312.855 247.918 312.713C247.625 312.168 247.378 311.244 247.159 310.128C246.713 307.852 246.321 304.438 246.016 300.686C245.429 293.487 245.148 284.922 245.405 280.547L197.588 266.857L186.251 265.806L184.378 265.632L203.327 253.376L180.589 229.516L180.046 228.947L190.285 222.325L186.897 209.698L186.737 209.099L187.326 208.909L197.22 205.712L192.378 198.226L203.21 191.22L193.196 175.737L194.625 175.954L210.364 178.338L185.426 122.971L182.001 115.366L186.565 122.347Z" stroke="url(#paint6_linear_1179_2334)" stroke-width="1.30235" stroke-miterlimit="16"/>
</g>
<g filter="url(#filter3_d_1179_2334)">
<g filter="url(#filter4_d_1179_2334)">
<path d="M329.907 178.688C340.423 181.405 350.432 186.683 356.884 196.254C363.55 206.143 364.32 217.434 361.561 228.113C360.356 232.776 358.447 237.402 355.529 241.56C358.029 248.785 357.201 256.139 355.676 262.041C352.76 273.323 346.207 283.057 335.189 288.623C326.981 292.77 318.14 293.663 309.427 292.543L307.346 297.312L306.091 300.184L303.613 302.1L296.121 292.41L302.674 300.89C303.586 302.075 303.605 302.105 303.603 302.108C303.601 302.109 303.595 302.113 303.592 302.115C303.585 302.12 303.578 302.126 303.572 302.131C303.557 302.142 303.543 302.154 303.528 302.166C303.497 302.189 303.465 302.214 303.43 302.24C303.36 302.292 303.281 302.349 303.195 302.412C303.022 302.537 302.813 302.681 302.572 302.842C302.09 303.163 301.469 303.551 300.716 303.969C299.213 304.802 297.151 305.774 294.579 306.584C289.361 308.226 282.188 309.146 273.672 307.07L227.376 295.784C211.092 291.814 199.527 278.523 196.97 262.965L185.307 261.594C176.947 260.61 170.061 254.533 168.064 246.336L151.28 177.433C148.005 163.989 158.92 151.363 172.649 152.573L193.286 154.393L194.027 154.472C201.407 155.398 207.693 160.318 210.354 167.277L210.608 167.98L215.87 183.422L224.071 184.862L225.702 176.77C227.771 166.508 237.336 159.559 247.706 160.713L267.416 162.908C271.599 163.374 275.321 165.082 278.277 167.609C281.124 166.979 284.148 166.958 287.163 167.655L287.669 167.779L329.907 178.688ZM216.136 261.786C214.153 262.808 211.979 263.508 209.679 263.819C212.298 273.426 219.918 281.359 230.277 283.884L276.572 295.17C288.702 298.127 296.099 292.428 296.121 292.41L297.348 289.6L258.327 276.098C255.85 275.241 253.64 273.943 251.758 272.321C249.865 272.48 247.919 272.374 245.968 271.969L227.034 268.044C222.66 267.137 218.912 264.874 216.136 261.786ZM249.905 255.247L250.055 255.252C250.069 255.252 250.084 255.249 250.098 255.249C250.034 255.25 249.969 255.25 249.905 255.247ZM261.983 256.294C261.959 256.39 261.941 256.486 261.926 256.581C261.941 256.486 261.96 256.39 261.984 256.295L261.983 256.294ZM338.895 258.443C338.801 258.779 338.704 259.11 338.601 259.436C338.704 259.11 338.802 258.779 338.896 258.444L338.895 258.443ZM209.622 223.294C209.567 223.288 209.512 223.284 209.457 223.28C209.512 223.284 209.566 223.289 209.622 223.295L213.044 223.697L213.045 223.697L209.622 223.294ZM339.013 246.355C339.053 246.444 339.092 246.535 339.129 246.626C339.092 246.535 339.054 246.444 339.014 246.355C338.941 246.182 338.864 246.01 338.784 245.84C338.864 246.01 338.94 246.182 339.013 246.355ZM234.809 204.145C234.759 204.139 234.708 204.131 234.658 204.123L204.685 198.859L234.658 204.123C234.708 204.132 234.759 204.139 234.809 204.145ZM344.966 223.824C344.839 224.317 344.702 224.798 344.557 225.266C344.628 225.036 344.699 224.803 344.766 224.567C344.835 224.322 344.902 224.075 344.967 223.825L344.966 223.824ZM170.391 169.671C170.331 169.681 170.271 169.692 170.212 169.705C170.331 169.679 170.451 169.66 170.575 169.648L170.391 169.671ZM265.686 179.964C265.631 179.955 265.575 179.947 265.519 179.94L245.81 177.747C245.615 177.725 245.422 177.723 245.233 177.737L245.232 177.738C245.421 177.723 245.614 177.726 245.81 177.748L265.52 179.942C265.618 179.952 265.715 179.967 265.809 179.987C265.768 179.979 265.727 179.971 265.686 179.964ZM266.103 180.064C266.284 180.121 266.456 180.195 266.619 180.283C266.613 180.279 266.607 180.275 266.601 180.272C266.554 180.247 266.507 180.223 266.459 180.201C266.362 180.157 266.263 180.117 266.162 180.083C266.142 180.076 266.122 180.07 266.103 180.064ZM266.006 180.035C265.945 180.018 265.882 180.003 265.818 179.99C265.913 180.01 266.005 180.034 266.095 180.062C266.066 180.053 266.036 180.043 266.006 180.035ZM267.3 180.784C267.246 180.731 267.189 180.682 267.132 180.633C267.189 180.682 267.246 180.731 267.3 180.784Z" fill="#D9D9D9"/>
</g>
<path d="M203.544 248.258C208.045 229.796 226.659 218.478 245.121 222.979L291.415 234.265C297.007 235.628 302.276 238.759 306.555 242.472C310.835 246.187 314.515 250.821 316.672 255.633L317.78 258.105L316.696 260.588L301.729 294.861L301.102 296.296L299.863 297.255L296.117 292.41L299.858 297.259C299.857 297.26 299.854 297.261 299.852 297.263C299.848 297.265 299.845 297.268 299.841 297.271C299.834 297.277 299.826 297.284 299.817 297.29C299.8 297.303 299.781 297.317 299.76 297.333C299.718 297.364 299.667 297.401 299.61 297.442C299.495 297.525 299.348 297.628 299.171 297.747C298.817 297.982 298.339 298.282 297.741 298.613C296.548 299.275 294.865 300.073 292.737 300.743C288.444 302.094 282.413 302.899 275.117 301.12L228.823 289.835C210.361 285.334 199.044 266.719 203.544 248.258Z" stroke="#6C00AB" stroke-width="12.2488"/>
<path d="M263.927 259.901C262.439 259.386 261.593 257.819 261.98 256.294L279.683 186.558C280.095 184.933 281.753 183.953 283.379 184.373L325.617 195.282C333.639 197.354 339.323 200.872 342.669 205.834C346.014 210.797 346.779 216.794 344.962 223.824C343.927 227.83 342.314 231.032 340.122 233.431C339.314 234.358 338.455 235.183 337.545 235.905C335.675 237.39 335.222 240.554 336.691 242.437C337.649 243.665 338.422 244.971 339.01 246.355C340.28 249.212 340.303 253.011 339.077 257.752C337.155 265.191 333.282 270.382 327.457 273.325C321.632 276.268 314.463 276.64 305.949 274.441L263.927 259.901ZM298.253 218.05C297.834 219.669 298.81 221.321 300.431 221.74L310.511 224.343C315.259 225.57 318.182 224.057 319.28 219.807C319.808 217.763 319.595 216.051 318.642 214.671C317.792 213.231 316.057 212.172 313.438 211.496L303.726 208.987C302.105 208.568 300.451 209.541 300.033 211.16L298.253 218.05ZM290.49 248.093C290.072 249.712 291.047 251.364 292.668 251.782L303.239 254.513C308.233 255.802 311.321 254.158 312.504 249.581C313.602 245.33 311.573 242.538 306.416 241.206L296.09 238.539C294.469 238.12 292.816 239.093 292.397 240.712L290.49 248.093Z" fill="black"/>
<path d="M263.927 259.901C262.439 259.386 261.593 257.819 261.98 256.294L279.683 186.558C280.095 184.933 281.753 183.953 283.379 184.373L325.617 195.282C333.639 197.354 339.323 200.872 342.669 205.834C346.014 210.797 346.779 216.794 344.962 223.824C343.927 227.83 342.314 231.032 340.122 233.431C339.314 234.358 338.455 235.183 337.545 235.905C335.675 237.39 335.222 240.554 336.691 242.437C337.649 243.665 338.422 244.971 339.01 246.355C340.28 249.212 340.303 253.011 339.077 257.752C337.155 265.191 333.282 270.382 327.457 273.325C321.632 276.268 314.463 276.64 305.949 274.441L263.927 259.901ZM298.253 218.05C297.834 219.669 298.81 221.321 300.431 221.74L310.511 224.343C315.259 225.57 318.182 224.057 319.28 219.807C319.808 217.763 319.595 216.051 318.642 214.671C317.792 213.231 316.057 212.172 313.438 211.496L303.726 208.987C302.105 208.568 300.451 209.541 300.033 211.16L298.253 218.05ZM290.49 248.093C290.072 249.712 291.047 251.364 292.668 251.782L303.239 254.513C308.233 255.802 311.321 254.158 312.504 249.581C313.602 245.33 311.573 242.538 306.416 241.206L296.09 238.539C294.469 238.12 292.816 239.093 292.397 240.712L290.49 248.093Z" fill="#FFF7E5"/>
<path d="M300.431 221.74L310.511 224.343C315.259 225.57 318.182 224.057 319.28 219.807C319.808 217.763 319.595 216.051 318.642 214.671C317.792 213.231 316.057 212.172 313.438 211.496L303.726 208.987C302.105 208.568 300.451 209.541 300.033 211.16L298.253 218.05C297.834 219.669 298.81 221.321 300.431 221.74Z" fill="black"/>
<path d="M300.431 221.74L310.511 224.343C315.259 225.57 318.182 224.057 319.28 219.807C319.808 217.763 319.595 216.051 318.642 214.671C317.792 213.231 316.057 212.172 313.438 211.496L303.726 208.987C302.105 208.568 300.451 209.541 300.033 211.16L298.253 218.05C297.834 219.669 298.81 221.321 300.431 221.74Z" fill="#6C00AB"/>
<path d="M292.668 251.782L303.239 254.513C308.233 255.802 311.321 254.158 312.504 249.581C313.602 245.33 311.573 242.538 306.416 241.206L296.09 238.539C294.469 238.12 292.816 239.093 292.397 240.712L290.49 248.093C290.072 249.712 291.047 251.364 292.668 251.782Z" fill="black"/>
<path d="M292.668 251.782L303.239 254.513C308.233 255.802 311.321 254.158 312.504 249.581C313.602 245.33 311.573 242.538 306.416 241.206L296.09 238.539C294.469 238.12 292.816 239.093 292.397 240.712L290.49 248.093C290.072 249.712 291.047 251.364 292.668 251.782Z" fill="#6C00AB"/>
<path d="M249.444 255.187C251.072 255.525 252.667 254.491 253.021 252.869L268.144 183.597C268.527 181.841 267.304 180.14 265.516 179.941L245.805 177.746C244.244 177.573 242.809 178.619 242.499 180.157L238.149 201.74C237.824 203.35 236.273 204.407 234.653 204.122L204.681 198.859C203.591 198.668 202.692 197.898 202.335 196.851L194.381 173.507C193.994 172.371 192.972 171.57 191.776 171.465L171.139 169.645C169.072 169.463 167.438 171.361 167.928 173.375L184.713 242.279C185.013 243.509 186.047 244.423 187.306 244.571L206.573 246.838C208.643 247.082 210.335 245.214 209.887 243.181L206.304 226.951C205.855 224.918 207.547 223.05 209.618 223.294L229.579 225.643C231.36 225.852 232.571 227.551 232.188 229.299L228.163 247.647C227.802 249.293 228.857 250.918 230.51 251.261L249.444 255.187Z" fill="black"/>
<path d="M249.444 255.187C251.072 255.525 252.667 254.491 253.021 252.869L268.144 183.597C268.527 181.841 267.304 180.14 265.516 179.941L245.805 177.746C244.244 177.573 242.809 178.619 242.499 180.157L238.149 201.74C237.824 203.35 236.273 204.407 234.653 204.122L204.681 198.859C203.591 198.668 202.692 197.898 202.335 196.851L194.381 173.507C193.994 172.371 192.972 171.57 191.776 171.465L171.139 169.645C169.072 169.463 167.438 171.361 167.928 173.375L184.713 242.279C185.013 243.509 186.047 244.423 187.306 244.571L206.573 246.838C208.643 247.082 210.335 245.214 209.887 243.181L206.304 226.951C205.855 224.918 207.547 223.05 209.618 223.294L229.579 225.643C231.36 225.852 232.571 227.551 232.188 229.299L228.163 247.647C227.802 249.293 228.857 250.918 230.51 251.261L249.444 255.187Z" fill="#FFF7E5"/>
<path d="M266.464 171.424C270.644 171.89 274.024 174.508 275.679 178.014C278.326 176.04 281.787 175.208 285.23 176.005L285.522 176.075L327.76 186.985C337.029 189.379 344.875 193.777 349.774 201.044C354.78 208.469 355.547 217.113 353.26 225.968C351.985 230.901 349.863 235.413 346.581 239.063C346.233 239.462 345.874 239.849 345.508 240.226C346 241.081 346.446 241.962 346.839 242.872L346.841 242.873C346.851 242.896 346.86 242.92 346.87 242.943C346.879 242.963 346.888 242.982 346.897 243.002L346.896 243.002C349.225 248.35 348.814 254.323 347.374 259.896C344.956 269.257 339.742 276.719 331.321 280.974C323.078 285.138 313.628 285.275 303.806 282.738L303.473 282.652L303.147 282.539L261.125 267.999C258.374 267.047 256.196 265.151 254.846 262.786C252.683 263.767 250.202 264.096 247.704 263.578L228.77 259.652C222.456 258.343 218.407 252.128 219.793 245.811L222.507 233.438L216.352 232.714L218.255 241.334C219.977 249.138 213.481 256.28 205.572 255.349L186.304 253.082C181.495 252.516 177.536 249.021 176.387 244.307L159.602 175.403C157.72 167.675 163.994 160.413 171.892 161.109L192.528 162.929C197.1 163.332 201.01 166.392 202.492 170.743L209.389 190.984L230.816 194.748L234.099 178.464C235.288 172.563 240.788 168.565 246.753 169.229L266.464 171.424Z" stroke="#6C00AB" stroke-width="17.1388"/>
<rect x="222.348" y="233.329" width="76.2963" height="39.5176" transform="rotate(13.3961 222.348 233.329)" fill="#6C00AB"/>
<g filter="url(#filter5_d_1179_2334)">
<path d="M212.035 249.659C215.929 235.207 230.803 226.647 245.255 230.541L289.345 242.422C297.752 244.687 306.036 252.628 309.163 260.08L294.518 293.012C292.832 292.936 286.813 297.877 275.243 294.76L231.152 282.879C216.699 278.985 208.14 264.112 212.035 249.659ZM281.723 251.535C278.267 250.515 275.236 250.252 272.629 250.746C270.03 251.21 267.75 252.351 265.789 254.169C263.828 255.986 262.034 258.388 260.408 261.374C259.541 262.997 258.892 264.538 258.461 265.998C257.503 269.245 257.692 272.006 259.03 274.279C260.397 276.561 262.928 278.246 266.622 279.336C270.108 280.365 273.135 280.642 275.703 280.17C278.31 279.676 280.595 278.52 282.557 276.703C284.548 274.893 286.341 272.491 287.937 269.497C288.362 268.716 288.714 267.961 288.993 267.234C289.311 266.486 289.576 265.754 289.787 265.039C290.719 261.881 290.559 259.129 289.307 256.784C288.095 254.419 285.567 252.669 281.723 251.535ZM247.635 266.69C247.437 266.632 247.226 266.72 247.128 266.902L244.516 271.783C244.386 272.025 244.512 272.326 244.776 272.404L250.539 274.105C250.737 274.163 250.948 274.075 251.045 273.893L253.658 269.012C253.788 268.769 253.662 268.468 253.398 268.39L247.635 266.69ZM273.058 258.84C274.479 257.866 276.158 257.665 278.095 258.236C279.584 258.676 280.53 259.312 280.933 260.143C281.344 260.945 281.36 261.986 280.982 263.266C280.824 263.803 280.608 264.371 280.334 264.97C280.06 265.569 279.735 266.234 279.357 266.965C278.074 269.339 276.716 271.028 275.287 272.031C273.866 273.004 272.187 273.205 270.251 272.634C268.732 272.185 267.762 271.576 267.342 270.804C266.931 270.003 266.901 269.006 267.253 267.815C267.578 266.713 268.156 265.409 268.988 263.906C270.281 261.502 271.637 259.813 273.058 258.84ZM247.796 242.01C247.686 241.978 247.568 241.99 247.467 242.044L224.454 254.46C224.38 254.5 224.318 254.561 224.278 254.635L221.811 259.203C221.68 259.446 221.805 259.748 222.07 259.827L234.138 263.388C234.402 263.466 234.528 263.766 234.398 264.009L232.189 268.146C232.059 268.389 232.185 268.69 232.449 268.768L240 270.995C240.197 271.053 240.409 270.965 240.506 270.783L242.885 266.33C242.982 266.148 243.194 266.059 243.392 266.118L245.308 266.683C245.504 266.741 245.714 266.654 245.812 266.475L248.864 260.898C248.997 260.655 248.871 260.351 248.605 260.273L247.045 259.811C246.78 259.733 246.654 259.432 246.785 259.189L254.655 244.58C254.786 244.337 254.659 244.035 254.395 243.957L247.796 242.01ZM243.883 250.333C244.273 250.162 244.651 250.596 244.429 250.959L240.661 257.095C240.564 257.254 240.376 257.332 240.194 257.291L233.458 255.754C233.05 255.661 232.997 255.1 233.381 254.932L243.883 250.333Z" fill="url(#paint7_linear_1179_2334)"/>
<path d="M212.035 249.659C215.929 235.207 230.803 226.647 245.255 230.541L289.345 242.422C297.752 244.687 306.036 252.628 309.163 260.08L294.518 293.012C292.832 292.936 286.813 297.877 275.243 294.76L231.152 282.879C216.699 278.985 208.14 264.112 212.035 249.659ZM281.723 251.535C278.267 250.515 275.236 250.252 272.629 250.746C270.03 251.21 267.75 252.351 265.789 254.169C263.828 255.986 262.034 258.388 260.408 261.374C259.541 262.997 258.892 264.538 258.461 265.998C257.503 269.245 257.692 272.006 259.03 274.279C260.397 276.561 262.928 278.246 266.622 279.336C270.108 280.365 273.135 280.642 275.703 280.17C278.31 279.676 280.595 278.52 282.557 276.703C284.548 274.893 286.341 272.491 287.937 269.497C288.362 268.716 288.714 267.961 288.993 267.234C289.311 266.486 289.576 265.754 289.787 265.039C290.719 261.881 290.559 259.129 289.307 256.784C288.095 254.419 285.567 252.669 281.723 251.535ZM247.635 266.69C247.437 266.632 247.226 266.72 247.128 266.902L244.516 271.783C244.386 272.025 244.512 272.326 244.776 272.404L250.539 274.105C250.737 274.163 250.948 274.075 251.045 273.893L253.658 269.012C253.788 268.769 253.662 268.468 253.398 268.39L247.635 266.69ZM273.058 258.84C274.479 257.866 276.158 257.665 278.095 258.236C279.584 258.676 280.53 259.312 280.933 260.143C281.344 260.945 281.36 261.986 280.982 263.266C280.824 263.803 280.608 264.371 280.334 264.97C280.06 265.569 279.735 266.234 279.357 266.965C278.074 269.339 276.716 271.028 275.287 272.031C273.866 273.004 272.187 273.205 270.251 272.634C268.732 272.185 267.762 271.576 267.342 270.804C266.931 270.003 266.901 269.006 267.253 267.815C267.578 266.713 268.156 265.409 268.988 263.906C270.281 261.502 271.637 259.813 273.058 258.84ZM247.796 242.01C247.686 241.978 247.568 241.99 247.467 242.044L224.454 254.46C224.38 254.5 224.318 254.561 224.278 254.635L221.811 259.203C221.68 259.446 221.805 259.748 222.07 259.827L234.138 263.388C234.402 263.466 234.528 263.766 234.398 264.009L232.189 268.146C232.059 268.389 232.185 268.69 232.449 268.768L240 270.995C240.197 271.053 240.409 270.965 240.506 270.783L242.885 266.33C242.982 266.148 243.194 266.059 243.392 266.118L245.308 266.683C245.504 266.741 245.714 266.654 245.812 266.475L248.864 260.898C248.997 260.655 248.871 260.351 248.605 260.273L247.045 259.811C246.78 259.733 246.654 259.432 246.785 259.189L254.655 244.58C254.786 244.337 254.659 244.035 254.395 243.957L247.796 242.01ZM243.883 250.333C244.273 250.162 244.651 250.596 244.429 250.959L240.661 257.095C240.564 257.254 240.376 257.332 240.194 257.291L233.458 255.754C233.05 255.661 232.997 255.1 233.381 254.932L243.883 250.333Z" fill="#FFEE00"/>
</g>
<path d="M281.821 251.143C285.717 252.293 288.375 254.093 289.665 256.605C290.983 259.073 291.134 261.947 290.179 265.187C289.962 265.919 289.692 266.667 289.368 267.429L289.368 267.428C289.082 268.17 288.724 268.936 288.295 269.725L288.295 269.726C286.683 272.752 284.861 275.195 282.826 277.045L282.827 277.046C280.806 278.919 278.447 280.113 275.759 280.622L275.757 280.623C273.1 281.112 270.001 280.819 266.474 279.778C262.721 278.671 260.075 276.937 258.632 274.527L258.629 274.524C257.215 272.12 257.037 269.228 258.019 265.9C258.459 264.407 259.121 262.838 260 261.194L260 261.191C261.643 258.175 263.464 255.733 265.468 253.875C267.49 252.002 269.845 250.823 272.527 250.344C275.22 249.834 278.323 250.111 281.821 251.143ZM254.492 243.565C255.021 243.722 255.274 244.325 255.012 244.811L247.142 259.42L248.703 259.88C249.235 260.037 249.486 260.646 249.22 261.132L246.167 266.709C245.971 267.068 245.551 267.241 245.159 267.126L243.242 266.56L240.863 271.013C240.669 271.377 240.246 271.554 239.851 271.437L232.301 269.21C231.773 269.054 231.521 268.453 231.78 267.967L233.989 263.83L221.922 260.269C221.392 260.113 221.14 259.509 221.403 259.023L223.87 254.454C223.95 254.305 224.073 254.183 224.222 254.103L247.235 241.687C247.437 241.578 247.673 241.554 247.893 241.618L254.492 243.565ZM253.495 267.999C254.023 268.155 254.275 268.757 254.015 269.243L251.402 274.124C251.208 274.487 250.786 274.664 250.391 274.547L244.628 272.847C244.1 272.691 243.847 272.089 244.108 271.603L246.72 266.722C246.914 266.358 247.337 266.182 247.732 266.299L253.495 267.999ZM277.946 258.679C276.111 258.138 274.572 258.338 273.279 259.224C271.939 260.142 270.622 261.762 269.346 264.137L269.343 264.142C268.52 265.629 267.957 266.901 267.644 267.962C267.312 269.086 267.359 269.957 267.701 270.626C268.037 271.239 268.863 271.804 270.349 272.243C272.182 272.784 273.719 272.585 275.012 271.7C276.364 270.751 277.681 269.127 278.948 266.783C279.322 266.06 279.644 265.404 279.913 264.815C280.18 264.231 280.389 263.682 280.54 263.169C280.902 261.944 280.86 261.03 280.52 260.367L280.516 260.358C280.193 259.692 279.394 259.106 277.946 258.679ZM233.363 255.343L240.265 256.893L244.04 250.745L233.363 255.343Z" fill="#7709B8" stroke="#FFD000" stroke-width="0.869479"/>
<g filter="url(#filter6_dn_1179_2334)">
<path d="M212.933 249.893C216.692 235.943 231.049 227.681 245 231.44L289.09 243.321C293.114 244.405 297.158 246.865 300.591 249.992C303.905 253.011 306.591 256.604 308.124 260.067L293.858 292.144C293.683 292.187 293.514 292.239 293.359 292.293C292.98 292.426 292.531 292.614 292.053 292.81C291.078 293.211 289.854 293.705 288.336 294.106C285.317 294.905 281.088 295.353 275.478 293.841L231.386 281.96C217.436 278.2 209.174 263.844 212.933 249.893Z" stroke="url(#paint8_linear_1179_2334)" stroke-width="1.88266" shape-rendering="crispEdges"/>
</g>
<mask id="mask0_1179_2334" style="mask-type:alpha" maskUnits="userSpaceOnUse" x="211" y="229" width="99" height="67">
<path d="M211.996 249.666C215.89 235.213 230.763 226.653 245.216 230.548L289.306 242.428C297.713 244.694 305.997 252.634 309.124 260.086L294.479 293.018C292.793 292.942 286.774 297.884 275.204 294.766L231.113 282.886C216.66 278.991 208.101 264.119 211.996 249.666ZM281.684 251.541C278.228 250.521 275.197 250.259 272.59 250.753C269.991 251.217 267.711 252.357 265.75 254.175C263.789 255.993 261.995 258.395 260.369 261.381C259.502 263.003 258.853 264.545 258.422 266.004C257.464 269.252 257.654 272.012 258.991 274.284C260.358 276.566 262.889 278.253 266.583 279.343C270.069 280.371 273.096 280.649 275.664 280.176C278.271 279.682 280.556 278.526 282.517 276.708C284.509 274.899 286.302 272.498 287.898 269.504C288.323 268.722 288.675 267.967 288.954 267.24C289.272 266.492 289.537 265.76 289.748 265.046C290.68 261.887 290.52 259.136 289.268 256.791C288.055 254.425 285.528 252.675 281.684 251.541ZM247.596 266.696C247.398 266.638 247.186 266.727 247.089 266.908L244.477 271.789C244.347 272.032 244.473 272.333 244.737 272.411L250.5 274.111C250.698 274.169 250.909 274.081 251.006 273.9L253.619 269.019C253.749 268.776 253.623 268.475 253.358 268.397L247.596 266.696ZM273.019 258.846C274.44 257.873 276.119 257.672 278.056 258.243C279.545 258.682 280.491 259.318 280.894 260.149C281.305 260.95 281.321 261.992 280.943 263.273C280.785 263.809 280.569 264.377 280.295 264.976C280.021 265.576 279.696 266.241 279.318 266.972C278.035 269.346 276.677 271.035 275.248 272.038C273.827 273.011 272.148 273.212 270.212 272.64C268.693 272.192 267.723 271.582 267.303 270.811C266.891 270.009 266.862 269.012 267.214 267.82C267.539 266.718 268.117 265.416 268.949 263.913C270.242 261.509 271.598 259.82 273.019 258.846ZM247.757 242.017C247.647 241.984 247.529 241.996 247.428 242.051L224.415 254.466C224.341 254.506 224.279 254.567 224.239 254.642L221.772 259.21C221.641 259.453 221.766 259.755 222.031 259.833L234.099 263.394C234.363 263.472 234.489 263.773 234.359 264.016L232.15 268.152C232.02 268.395 232.146 268.696 232.41 268.774L239.961 271.002C240.158 271.06 240.37 270.971 240.467 270.789L242.846 266.336C242.943 266.155 243.155 266.066 243.352 266.124L245.269 266.69C245.465 266.748 245.675 266.661 245.773 266.481L248.825 260.904C248.958 260.661 248.832 260.357 248.566 260.278L247.006 259.818C246.741 259.74 246.615 259.437 246.746 259.194L254.616 244.587C254.747 244.344 254.62 244.042 254.356 243.964L247.757 242.017ZM243.739 250.423C244.136 250.239 244.526 250.689 244.288 251.055L240.36 257.089C240.259 257.244 240.07 257.319 239.89 257.274L233.995 255.809C233.598 255.71 233.545 255.167 233.917 254.994L243.739 250.423Z" fill="url(#paint9_linear_1179_2334)"/>
</mask>
<g mask="url(#mask0_1179_2334)">
<rect x="248.457" y="218.961" width="22.8716" height="78.7382" transform="rotate(23.9438 248.457 218.961)" fill="#FFFCC7" fill-opacity="0.45"/>
<rect x="281.145" y="224.319" width="7.9559" height="78.7382" transform="rotate(23.41 281.145 224.319)" fill="#FFFCC7" fill-opacity="0.45"/>
<rect x="296.656" y="229.892" width="3.38756" height="78.7382" transform="rotate(23.41 296.656 229.892)" fill="#FFFCC7" fill-opacity="0.45"/>
</g>
<g filter="url(#filter7_d_1179_2334)">
<path d="M294.544 293.008C288.524 288.207 288.494 263 308.968 260.254C305.748 268.046 300.189 281.657 294.544 293.008Z" fill="url(#paint10_linear_1179_2334)"/>
<path d="M294.544 293.008C288.524 288.207 288.494 263 308.968 260.254C305.748 268.046 300.189 281.657 294.544 293.008Z" fill="black" fill-opacity="0.24"/>
<path d="M294.544 293.008C288.524 288.207 288.494 263 308.968 260.254C305.748 268.046 300.189 281.657 294.544 293.008Z" stroke="url(#paint11_linear_1179_2334)" stroke-width="0.21737"/>
</g>
</g>
</g>
<defs>
<filter id="filter0_d_1179_2334" x="-127.551" y="6.85352" width="542.918" height="445.066" filterUnits="userSpaceOnUse" color-interpolation-filters="sRGB">
<feFlood flood-opacity="0" result="BackgroundImageFix"/>
<feColorMatrix in="SourceAlpha" type="matrix" values="0 0 0 0 0 0 0 0 0 0 0 0 0 0 0 0 0 0 127 0" result="hardAlpha"/>
<feOffset dy="4"/>
<feGaussianBlur stdDeviation="2"/>
<feComposite in2="hardAlpha" operator="out"/>
<feColorMatrix type="matrix" values="0 0 0 0 0 0 0 0 0 0 0 0 0 0 0 0 0 0 0.25 0"/>
<feBlend mode="normal" in2="BackgroundImageFix" result="effect1_dropShadow_1179_2334"/>
<feBlend mode="normal" in="SourceGraphic" in2="effect1_dropShadow_1179_2334" result="shape"/>
</filter>
<filter id="filter1_d_1179_2334" x="105.477" y="-106.341" width="413.672" height="437.353" filterUnits="userSpaceOnUse" color-interpolation-filters="sRGB">
<feFlood flood-opacity="0" result="BackgroundImageFix"/>
<feColorMatrix in="SourceAlpha" type="matrix" values="0 0 0 0 0 0 0 0 0 0 0 0 0 0 0 0 0 0 127 0" result="hardAlpha"/>
<feOffset dy="4"/>
<feGaussianBlur stdDeviation="2"/>
<feComposite in2="hardAlpha" operator="out"/>
<feColorMatrix type="matrix" values="0 0 0 0 0 0 0 0 0 0 0 0 0 0 0 0 0 0 0.25 0"/>
<feBlend mode="normal" in2="BackgroundImageFix" result="effect1_dropShadow_1179_2334"/>
<feBlend mode="normal" in="SourceGraphic" in2="effect1_dropShadow_1179_2334" result="shape"/>
</filter>
<filter id="filter2_d_1179_2334" x="173.98" y="108.03" width="187.41" height="243.047" filterUnits="userSpaceOnUse" color-interpolation-filters="sRGB">
<feFlood flood-opacity="0" result="BackgroundImageFix"/>
<feColorMatrix in="SourceAlpha" type="matrix" values="0 0 0 0 0 0 0 0 0 0 0 0 0 0 0 0 0 0 127 0" result="hardAlpha"/>
<feOffset dy="4"/>
<feGaussianBlur stdDeviation="2"/>
<feComposite in2="hardAlpha" operator="out"/>
<feColorMatrix type="matrix" values="0 0 0 0 0 0 0 0 0 0 0 0 0 0 0 0 0 0 0.25 0"/>
<feBlend mode="normal" in2="BackgroundImageFix" result="effect1_dropShadow_1179_2334"/>
<feBlend mode="normal" in="SourceGraphic" in2="effect1_dropShadow_1179_2334" result="shape"/>
</filter>
<filter id="filter3_d_1179_2334" x="146.691" y="152.492" width="220.367" height="163.778" filterUnits="userSpaceOnUse" color-interpolation-filters="sRGB">
<feFlood flood-opacity="0" result="BackgroundImageFix"/>
<feColorMatrix in="SourceAlpha" type="matrix" values="0 0 0 0 0 0 0 0 0 0 0 0 0 0 0 0 0 0 127 0" result="hardAlpha"/>
<feOffset dy="4"/>
<feGaussianBlur stdDeviation="2"/>
<feComposite in2="hardAlpha" operator="out"/>
<feColorMatrix type="matrix" values="0 0 0 0 0 0 0 0 0 0 0 0 0 0 0 0 0 0 0.25 0"/>
<feBlend mode="normal" in2="BackgroundImageFix" result="effect1_dropShadow_1179_2334"/>
<feBlend mode="normal" in="SourceGraphic" in2="effect1_dropShadow_1179_2334" result="shape"/>
</filter>
<filter id="filter4_d_1179_2334" x="150.695" y="152.493" width="212.363" height="161.171" filterUnits="userSpaceOnUse" color-interpolation-filters="sRGB">
<feFlood flood-opacity="0" result="BackgroundImageFix"/>
<feColorMatrix in="SourceAlpha" type="matrix" values="0 0 0 0 0 0 0 0 0 0 0 0 0 0 0 0 0 0 127 0" result="hardAlpha"/>
<feOffset dy="5.395"/>
<feComposite in2="hardAlpha" operator="out"/>
<feColorMatrix type="matrix" values="0 0 0 0 0 0 0 0 0 0 0 0 0 0 0 0 0 0 0.25 0"/>
<feBlend mode="normal" in2="BackgroundImageFix" result="effect1_dropShadow_1179_2334"/>
<feBlend mode="normal" in="SourceGraphic" in2="effect1_dropShadow_1179_2334" result="shape"/>
</filter>
<filter id="filter5_d_1179_2334" x="211.094" y="229.601" width="98.0703" height="69.9566" filterUnits="userSpaceOnUse" color-interpolation-filters="sRGB">
<feFlood flood-opacity="0" result="BackgroundImageFix"/>
<feColorMatrix in="SourceAlpha" type="matrix" values="0 0 0 0 0 0 0 0 0 0 0 0 0 0 0 0 0 0 127 0" result="hardAlpha"/>
<feOffset dy="3.76531"/>
<feComposite in2="hardAlpha" operator="out"/>
<feColorMatrix type="matrix" values="0 0 0 0 0 0 0 0 0 0 0 0 0 0 0 0 0 0 0.27 0"/>
<feBlend mode="normal" in2="BackgroundImageFix" result="effect1_dropShadow_1179_2334"/>
<feBlend mode="normal" in="SourceGraphic" in2="effect1_dropShadow_1179_2334" result="shape"/>
</filter>
<filter id="filter6_dn_1179_2334" x="209.347" y="229.591" width="101.544" height="69.6693" filterUnits="userSpaceOnUse" color-interpolation-filters="sRGB">
<feFlood flood-opacity="0" result="BackgroundImageFix"/>
<feColorMatrix in="SourceAlpha" type="matrix" values="0 0 0 0 0 0 0 0 0 0 0 0 0 0 0 0 0 0 127 0" result="hardAlpha"/>
<feOffset dy="1.73896"/>
<feGaussianBlur stdDeviation="0.869478"/>
<feComposite in2="hardAlpha" operator="out"/>
<feColorMatrix type="matrix" values="0 0 0 0 0 0 0 0 0 0 0 0 0 0 0 0 0 0 0.25 0"/>
<feBlend mode="normal" in2="BackgroundImageFix" result="effect1_dropShadow_1179_2334"/>
<feBlend mode="normal" in="SourceGraphic" in2="BackgroundImageFix" result="shape"/>
<feTurbulence type="fractalNoise" baseFrequency="0.19660091400146484 0.19660091400146484" stitchTiles="stitch" numOctaves="3" result="noise" seed="6754" />
<feColorMatrix in="noise" type="luminanceToAlpha" result="alphaNoise" />
<feComponentTransfer in="alphaNoise" result="coloredNoise1">
<feFuncA type="discrete" tableValues="0 0 0 0 0 0 0 0 0 0 0 0 0 0 0 0 0 1 1 1 1 1 1 1 1 1 1 1 1 1 1 1 0 0 0 0 0 0 0 0 0 0 0 0 0 0 0 0 0 0 0 0 0 0 0 0 0 0 0 0 0 0 0 0 0 0 0 0 0 0 0 0 0 0 0 0 0 0 0 0 0 0 0 0 0 0 0 0 0 0 0 0 0 0 0 0 0 0 0 0 "/>
</feComponentTransfer>
<feComposite operator="in" in2="shape" in="coloredNoise1" result="noise1Clipped" />
<feComponentTransfer in="alphaNoise" result="coloredNoise2">
<feFuncA type="discrete" tableValues="0 0 0 0 0 0 0 0 0 0 0 0 0 0 0 0 0 0 0 0 0 0 0 0 0 0 0 0 0 0 0 0 0 0 0 0 0 0 0 0 0 0 0 0 0 0 0 0 0 0 0 0 0 0 0 0 0 0 0 0 0 0 0 0 0 0 0 0 1 1 1 1 1 1 1 1 1 1 1 1 1 1 1 0 0 0 0 0 0 0 0 0 0 0 0 0 0 0 0 0 "/>
</feComponentTransfer>
<feComposite operator="in" in2="shape" in="coloredNoise2" result="noise2Clipped" />
<feFlood flood-color="rgba(255, 196, 0, 0.72)" result="color1Flood" />
<feComposite operator="in" in2="noise1Clipped" in="color1Flood" result="color1" />
<feFlood flood-color="rgba(255, 255, 255, 0.44)" result="color2Flood" />
<feComposite operator="in" in2="noise2Clipped" in="color2Flood" result="color2" />
<feMerge result="effect2_noise_1179_2334">
<feMergeNode in="shape" />
<feMergeNode in="color1" />
<feMergeNode in="color2" />
</feMerge>
<feBlend mode="normal" in="effect2_noise_1179_2334" in2="effect1_dropShadow_1179_2334" result="effect2_noise_1179_2334"/>
</filter>
<filter id="filter7_d_1179_2334" x="290.198" y="259.817" width="21.4202" height="36.272" filterUnits="userSpaceOnUse" color-interpolation-filters="sRGB">
<feFlood flood-opacity="0" result="BackgroundImageFix"/>
<feColorMatrix in="SourceAlpha" type="matrix" values="0 0 0 0 0 0 0 0 0 0 0 0 0 0 0 0 0 0 127 0" result="hardAlpha"/>
<feOffset dx="0.869478" dy="1.30422"/>
<feGaussianBlur stdDeviation="0.804267"/>
<feComposite in2="hardAlpha" operator="out"/>
<feColorMatrix type="matrix" values="0 0 0 0 0 0 0 0 0 0 0 0 0 0 0 0 0 0 0.48 0"/>
<feBlend mode="normal" in2="BackgroundImageFix" result="effect1_dropShadow_1179_2334"/>
<feBlend mode="normal" in="SourceGraphic" in2="effect1_dropShadow_1179_2334" result="shape"/>
</filter>
<linearGradient id="paint0_linear_1179_2334" x1="-34.052" y1="171.906" x2="140.24" y2="224.789" gradientUnits="userSpaceOnUse">
<stop stop-color="#787878"/>
<stop offset="1" stop-color="#FF00FF"/>
</linearGradient>
<linearGradient id="paint1_linear_1179_2334" x1="-34.052" y1="171.906" x2="140.24" y2="224.789" gradientUnits="userSpaceOnUse">
<stop stop-color="#787878"/>
<stop offset="1" stop-color="#FF00FF"/>
</linearGradient>
<radialGradient id="paint2_radial_1179_2334" cx="0" cy="0" r="1" gradientUnits="userSpaceOnUse" gradientTransform="translate(221.883 266.795) rotate(-149.222) scale(292.227 311.202)">
<stop stop-color="white"/>
<stop offset="1" stop-color="#999999" stop-opacity="0"/>
</radialGradient>
<linearGradient id="paint3_linear_1179_2334" x1="291.311" y1="-43.8104" x2="307.158" y2="137.637" gradientUnits="userSpaceOnUse">
<stop stop-color="#787878"/>
<stop offset="1" stop-color="#FF00FF"/>
</linearGradient>
<linearGradient id="paint4_linear_1179_2334" x1="291.311" y1="-43.8104" x2="307.158" y2="137.637" gradientUnits="userSpaceOnUse">
<stop stop-color="#787878"/>
<stop offset="1" stop-color="#FF00FF"/>
</linearGradient>
<radialGradient id="paint5_radial_1179_2334" cx="0" cy="0" r="1" gradientUnits="userSpaceOnUse" gradientTransform="translate(331.446 226.181) rotate(-74.6194) scale(247.37 263.433)">
<stop stop-color="white"/>
<stop offset="1" stop-color="#999999" stop-opacity="0"/>
</radialGradient>
<linearGradient id="paint6_linear_1179_2334" x1="190.709" y1="119.67" x2="335.929" y2="344.188" gradientUnits="userSpaceOnUse">
<stop stop-color="#5A1985"/>
<stop offset="1" stop-color="#8300A1"/>
</linearGradient>
<linearGradient id="paint7_linear_1179_2334" x1="222.712" y1="251.124" x2="321.952" y2="292.184" gradientUnits="userSpaceOnUse">
<stop stop-color="#FFE030"/>
<stop offset="0.261174" stop-color="#FFFDEB"/>
<stop offset="0.360249" stop-color="#FFE610"/>
<stop offset="0.439479" stop-color="#FFF9C4"/>
<stop offset="0.614238" stop-color="#FFE514"/>
<stop offset="1" stop-color="#FFE41A"/>
</linearGradient>
<linearGradient id="paint8_linear_1179_2334" x1="225.242" y1="236.404" x2="259.204" y2="294.753" gradientUnits="userSpaceOnUse">
<stop stop-color="#FFF459"/>
<stop offset="1" stop-color="#E9B334"/>
</linearGradient>
<linearGradient id="paint9_linear_1179_2334" x1="232.821" y1="253.649" x2="321.913" y2="292.19" gradientUnits="userSpaceOnUse">
<stop stop-color="#FFEC1A"/>
<stop offset="0.380812" stop-color="#FFE60B"/>
<stop offset="1" stop-color="#FFE41A"/>
</linearGradient>
<linearGradient id="paint10_linear_1179_2334" x1="292.14" y1="271.315" x2="302.295" y2="276.083" gradientUnits="userSpaceOnUse">
<stop stop-color="#D1D1D1"/>
<stop offset="0.3423" stop-color="#FAFAFA"/>
<stop offset="0.573639" stop-color="white"/>
<stop offset="1" stop-color="#666666"/>
</linearGradient>
<linearGradient id="paint11_linear_1179_2334" x1="293.918" y1="268.016" x2="308.344" y2="273.973" gradientUnits="userSpaceOnUse">
<stop stop-color="white"/>
<stop offset="1" stop-color="#0B0B0B"/>
</linearGradient>
<clipPath id="clip0_1179_2334">
<rect width="467" height="412" fill="white"/>
</clipPath>
</defs>
</svg>
