<svg width="188" height="219" viewBox="0 0 188 219" fill="none" xmlns="http://www.w3.org/2000/svg">
<g clip-path="url(#clip0_1179_2336)">
<g filter="url(#filter0_d_1179_2336)">
<mask id="path-1-outside-1_1179_2336" maskUnits="userSpaceOnUse" x="62.6722" y="143.326" width="90.3785" height="70.2728" fill="black">
<rect fill="white" x="62.6722" y="143.326" width="90.3785" height="70.2728"/>
<path d="M92.4049 169.18L94.1817 169.018C96.6754 168.79 98.8174 169.097 100.608 169.94C102.404 170.844 104.207 172.094 106.015 173.689C107.747 175.165 109.258 176.63 110.547 178.084C111.837 179.537 113.158 180.705 114.512 181.588C115.866 182.47 117.384 182.834 119.068 182.68C121.499 182.459 123.12 181.431 123.93 179.597C124.81 177.819 125.036 174.939 124.608 170.955C124.327 168.341 123.707 165.789 122.747 163.3C121.85 160.805 120.805 158.7 119.614 156.986L132.238 155.834C133.608 158.035 134.803 160.66 135.822 163.709C136.849 166.821 137.563 170.245 137.964 173.979C138.739 181.2 137.741 186.853 134.969 190.94C132.26 195.022 128.162 197.313 122.676 197.813C119.184 198.132 116.271 197.675 113.935 196.442C111.662 195.204 109.256 193.318 106.717 190.784C104.538 188.657 102.647 186.881 101.046 185.456C99.5074 184.025 97.5536 183.418 95.1845 183.634L93.9689 183.745L92.4049 169.18ZM75.7826 170.036L86.6303 169.047L88.3246 184.826L77.4769 185.815L75.7826 170.036Z"/>
</mask>
<path d="M92.4049 169.18L94.1817 169.018C96.6754 168.79 98.8174 169.097 100.608 169.94C102.404 170.844 104.207 172.094 106.015 173.689C107.747 175.165 109.258 176.63 110.547 178.084C111.837 179.537 113.158 180.705 114.512 181.588C115.866 182.47 117.384 182.834 119.068 182.68C121.499 182.459 123.12 181.431 123.93 179.597C124.81 177.819 125.036 174.939 124.608 170.955C124.327 168.341 123.707 165.789 122.747 163.3C121.85 160.805 120.805 158.7 119.614 156.986L132.238 155.834C133.608 158.035 134.803 160.66 135.822 163.709C136.849 166.821 137.563 170.245 137.964 173.979C138.739 181.2 137.741 186.853 134.969 190.94C132.26 195.022 128.162 197.313 122.676 197.813C119.184 198.132 116.271 197.675 113.935 196.442C111.662 195.204 109.256 193.318 106.717 190.784C104.538 188.657 102.647 186.881 101.046 185.456C99.5074 184.025 97.5536 183.418 95.1845 183.634L93.9689 183.745L92.4049 169.18ZM75.7826 170.036L86.6303 169.047L88.3246 184.826L77.4769 185.815L75.7826 170.036Z" fill="#8A00DA"/>
<path d="M92.4049 169.18L91.2657 158.57C85.3967 159.105 81.149 164.29 81.7782 170.149L92.4049 169.18ZM100.608 169.94L105.306 160.445C105.219 160.401 105.132 160.359 105.045 160.318L100.608 169.94ZM106.015 173.689L99.003 181.619C99.0499 181.66 99.097 181.701 99.1446 181.742L106.015 173.689ZM110.547 178.084L118.506 171.097L118.506 171.097L110.547 178.084ZM114.512 181.588L120.261 172.697L120.261 172.697L114.512 181.588ZM123.93 179.597L114.331 174.764C114.264 174.9 114.2 175.036 114.139 175.175L123.93 179.597ZM122.747 163.3L112.693 166.756C112.721 166.833 112.749 166.909 112.778 166.986L122.747 163.3ZM119.614 156.986L118.475 146.376C114.715 146.719 111.448 149.02 109.884 152.427C108.319 155.834 108.691 159.839 110.86 162.96L119.614 156.986ZM132.238 155.834L141.296 150.321C139.125 146.832 135.166 144.853 131.099 145.224L132.238 155.834ZM135.822 163.709L145.97 160.525C145.966 160.511 145.961 160.497 145.956 160.483L135.822 163.709ZM134.969 190.94L126.086 184.879C126.066 184.907 126.047 184.936 126.028 184.964L134.969 190.94ZM113.935 196.442L108.925 205.774C108.967 205.797 109.009 205.819 109.051 205.842L113.935 196.442ZM106.717 190.784L114.221 183.315C114.191 183.286 114.161 183.256 114.131 183.227L106.717 190.784ZM101.046 185.456L93.8211 193.193C93.8791 193.247 93.9377 193.301 93.9969 193.353L101.046 185.456ZM93.9689 183.745L83.3422 184.714C83.9713 190.574 89.2391 194.89 95.1081 194.355L93.9689 183.745ZM75.7826 170.036L74.6433 159.427C68.7744 159.962 64.5267 165.146 65.1559 171.006L75.7826 170.036ZM86.6303 169.047L97.257 168.077C96.6278 162.217 91.36 157.901 85.4911 158.437L86.6303 169.047ZM88.3246 184.826L89.4638 195.435C95.3328 194.9 99.5805 189.716 98.9513 183.856L88.3246 184.826ZM77.4769 185.815L66.8501 186.785C67.4793 192.645 72.7471 196.961 78.6161 196.425L77.4769 185.815ZM92.4049 169.18L93.5441 179.789L95.3209 179.627L94.1817 169.018L93.0424 158.408L91.2657 158.57L92.4049 169.18ZM94.1817 169.018L95.3209 179.627C96.4233 179.527 96.5416 179.736 96.1702 179.562L100.608 169.94L105.045 160.318C101.093 158.458 96.9276 158.053 93.0424 158.408L94.1817 169.018ZM100.608 169.94L95.9096 179.435C96.7266 179.846 97.7629 180.525 99.003 181.619L106.015 173.689L113.027 165.759C110.651 163.663 108.082 161.842 105.306 160.445L100.608 169.94ZM106.015 173.689L99.1446 181.742C100.553 182.942 101.688 184.054 102.589 185.07L110.547 178.084L118.506 171.097C116.828 169.206 114.941 167.388 112.885 165.636L106.015 173.689ZM110.547 178.084L102.589 185.07C104.4 187.112 106.445 188.968 108.763 190.478L114.512 181.588L120.261 172.697C119.871 172.443 119.274 171.963 118.506 171.097L110.547 178.084ZM114.512 181.588L108.763 190.478C112.279 192.769 116.251 193.651 120.207 193.29L119.068 182.68L117.928 172.07C118.15 172.05 118.533 172.051 119.012 172.166C119.499 172.283 119.928 172.48 120.261 172.697L114.512 181.588ZM119.068 182.68L120.207 193.29C125.51 192.806 131.029 190.113 133.722 184.019L123.93 179.597L114.139 175.175C114.529 174.292 115.254 173.372 116.27 172.728C117.195 172.142 117.899 172.073 117.928 172.07L119.068 182.68ZM123.93 179.597L133.53 184.429C135.817 179.807 135.7 174.318 135.234 169.986L124.608 170.955L113.981 171.925C114.149 173.491 114.15 174.516 114.104 175.108C114.053 175.762 113.975 175.484 114.331 174.764L123.93 179.597ZM124.608 170.955L135.234 169.986C134.853 166.433 134.009 162.969 132.715 159.614L122.747 163.3L112.778 166.986C113.405 168.61 113.801 170.249 113.981 171.925L124.608 170.955ZM122.747 163.3L132.801 159.844C131.666 156.688 130.226 153.685 128.368 151.012L119.614 156.986L110.86 162.96C111.384 163.715 112.033 164.921 112.693 166.756L122.747 163.3ZM119.614 156.986L120.753 167.596L133.378 166.444L132.238 155.834L131.099 145.224L118.475 146.376L119.614 156.986ZM132.238 155.834L123.181 161.347C124.01 162.68 124.874 164.501 125.689 166.936L135.822 163.709L145.956 160.483C144.731 156.818 143.206 153.389 141.296 150.321L132.238 155.834ZM135.822 163.709L125.675 166.894C126.431 169.188 127.005 171.857 127.337 174.949L137.964 173.979L148.591 173.01C148.121 168.633 147.267 164.455 145.97 160.525L135.822 163.709ZM137.964 173.979L127.337 174.949C127.965 180.793 126.948 183.608 126.086 184.879L134.969 190.94L143.853 197.002C148.534 190.099 149.514 181.606 148.591 173.01L137.964 173.979ZM134.969 190.94L126.028 184.964C125.291 186.076 124.255 186.955 121.536 187.203L122.676 197.813L123.815 208.423C132.068 207.67 139.229 203.968 143.91 196.916L134.969 190.94ZM122.676 197.813L121.536 187.203C120.505 187.298 119.805 187.253 119.372 187.186C119.159 187.152 119.018 187.114 118.934 187.087C118.892 187.074 118.863 187.063 118.846 187.055C118.828 187.048 118.82 187.044 118.819 187.043L113.935 196.442L109.051 205.842C113.772 208.332 118.933 208.869 123.815 208.423L122.676 197.813ZM113.935 196.442L118.946 187.111C117.863 186.522 116.283 185.374 114.221 183.315L106.717 190.784L99.2143 198.253C102.229 201.263 105.46 203.887 108.925 205.774L113.935 196.442ZM106.717 190.784L114.131 183.227C111.877 181.028 109.86 179.13 108.095 177.559L101.046 185.456L93.9969 193.353C95.4343 194.633 97.1976 196.287 99.3035 198.341L106.717 190.784ZM101.046 185.456L108.271 177.719C104.137 173.875 98.99 172.573 94.0453 173.024L95.1845 183.634L96.3238 194.244C96.3395 194.242 95.976 194.276 95.3911 194.094C94.7701 193.901 94.2191 193.563 93.8211 193.193L101.046 185.456ZM95.1845 183.634L94.0453 173.024L92.8296 173.135L93.9689 183.745L95.1081 194.355L96.3238 194.244L95.1845 183.634ZM93.9689 183.745L104.596 182.775L103.032 168.21L92.4049 169.18L81.7782 170.149L83.3422 184.714L93.9689 183.745ZM75.7826 170.036L76.9218 180.646L87.7696 179.656L86.6303 169.047L85.4911 158.437L74.6433 159.427L75.7826 170.036ZM86.6303 169.047L76.0036 170.016L77.6979 185.795L88.3246 184.826L98.9513 183.856L97.257 168.077L86.6303 169.047ZM88.3246 184.826L87.1854 174.216L76.3376 175.205L77.4769 185.815L78.6161 196.425L89.4638 195.435L88.3246 184.826ZM77.4769 185.815L88.1036 184.846L86.4093 169.067L75.7826 170.036L65.1559 171.006L66.8501 186.785L77.4769 185.815Z" fill="white" mask="url(#path-1-outside-1_1179_2336)"/>
</g>
<g filter="url(#filter1_d_1179_2336)">
<mask id="path-3-outside-2_1179_2336" maskUnits="userSpaceOnUse" x="40.3047" y="62.7352" width="122.846" height="112.348" fill="black">
<rect fill="white" x="40.3047" y="62.7352" width="122.846" height="112.348"/>
<path d="M80.8723 116.332L82.678 115.296C85.2124 113.843 87.6337 113.128 89.9418 113.152C92.2873 113.238 94.8065 113.687 97.4993 114.5C100.054 115.224 102.369 116.044 104.443 116.959C106.516 117.874 108.486 118.471 110.35 118.748C112.215 119.026 114.003 118.674 115.713 117.693C118.184 116.277 119.404 114.399 119.372 112.06C119.441 109.747 118.281 106.582 115.891 102.565C114.323 99.9285 112.425 97.5234 110.197 95.3494C108.032 93.1391 105.902 91.4144 103.805 90.1753L116.636 82.8181C119.158 84.4867 121.701 86.6904 124.265 89.4293C126.866 92.231 129.287 95.515 131.527 99.2813C135.858 106.563 137.547 113.045 136.594 118.726C135.703 124.372 132.47 128.794 126.895 131.991C123.347 134.025 120.034 134.957 116.958 134.785C113.945 134.576 110.476 133.745 106.553 132.291C103.207 131.095 100.339 130.13 97.9478 129.396C95.6204 128.626 93.2529 128.931 90.8452 130.312L89.6097 131.02L80.8723 116.332ZM63.6582 125.319L74.6828 118.997L84.1483 134.91L73.1237 141.232L63.6582 125.319Z"/>
</mask>
<path d="M80.8723 116.332L82.678 115.296C85.2124 113.843 87.6337 113.128 89.9418 113.152C92.2873 113.238 94.8065 113.687 97.4993 114.5C100.054 115.224 102.369 116.044 104.443 116.959C106.516 117.874 108.486 118.471 110.35 118.748C112.215 119.026 114.003 118.674 115.713 117.693C118.184 116.277 119.404 114.399 119.372 112.06C119.441 109.747 118.281 106.582 115.891 102.565C114.323 99.9285 112.425 97.5234 110.197 95.3494C108.032 93.1391 105.902 91.4144 103.805 90.1753L116.636 82.8181C119.158 84.4867 121.701 86.6904 124.265 89.4293C126.866 92.231 129.287 95.515 131.527 99.2813C135.858 106.563 137.547 113.045 136.594 118.726C135.703 124.372 132.47 128.794 126.895 131.991C123.347 134.025 120.034 134.957 116.958 134.785C113.945 134.576 110.476 133.745 106.553 132.291C103.207 131.095 100.339 130.13 97.9478 129.396C95.6204 128.626 93.2529 128.931 90.8452 130.312L89.6097 131.02L80.8723 116.332ZM63.6582 125.319L74.6828 118.997L84.1483 134.91L73.1237 141.232L63.6582 125.319Z" fill="#8A00DA"/>
<path d="M80.8723 116.332L74.5076 105.632C68.543 109.053 66.5572 116.616 70.0723 122.525L80.8723 116.332ZM89.9418 113.152L90.3102 100.798C90.1976 100.793 90.0849 100.791 89.9722 100.79L89.9418 113.152ZM97.4993 114.5L93.916 126.319C93.9858 126.34 94.0557 126.361 94.1258 126.38L97.4993 114.5ZM104.443 116.959L109.488 105.681L109.488 105.681L104.443 116.959ZM110.35 118.748L112.127 106.525L112.127 106.525L110.35 118.748ZM119.372 112.06L106.842 111.599C106.837 111.776 106.835 111.952 106.838 112.128L119.372 112.06ZM110.197 95.3494L101.213 103.901C101.279 103.969 101.347 104.037 101.415 104.103L110.197 95.3494ZM103.805 90.1753L97.4407 79.4757C93.6197 81.6667 91.2729 85.6949 91.2695 90.0686C91.266 94.4423 93.6063 98.5105 97.4237 100.767L103.805 90.1753ZM116.636 82.8181L123.563 72.5684C119.565 69.9232 114.404 69.7485 110.271 72.1184L116.636 82.8181ZM124.265 89.4293L133.48 81.1197C133.468 81.1071 133.457 81.0946 133.445 81.0821L124.265 89.4293ZM136.594 118.726L124.226 116.615C124.219 116.654 124.213 116.694 124.206 116.733L136.594 118.726ZM116.958 134.785L116.178 147.117C116.234 147.121 116.29 147.124 116.346 147.127L116.958 134.785ZM106.553 132.291L110.881 120.722C110.835 120.705 110.789 120.689 110.743 120.672L106.553 132.291ZM97.9478 129.396L94.0448 141.114C94.1326 141.143 94.2206 141.171 94.309 141.198L97.9478 129.396ZM89.6097 131.02L78.8097 137.213C82.3248 143.123 90.0097 145.14 95.9743 141.72L89.6097 131.02ZM63.6582 125.319L57.2935 114.619C51.3289 118.04 49.3431 125.603 52.8582 131.512L63.6582 125.319ZM74.6828 118.997L85.4828 112.804C81.9676 106.895 74.2828 104.877 68.3181 108.298L74.6828 118.997ZM84.1483 134.91L90.513 145.609C96.4776 142.189 98.4634 134.626 94.9483 128.717L84.1483 134.91ZM73.1237 141.232L62.3238 147.424C65.8389 153.334 73.5237 155.351 79.4884 151.931L73.1237 141.232ZM80.8723 116.332L87.2369 127.032L89.0427 125.996L82.678 115.296L76.3134 104.597L74.5076 105.632L80.8723 116.332ZM82.678 115.296L89.0427 125.996C90.163 125.354 90.3904 125.518 89.9114 125.514L89.9418 113.152L89.9722 100.79C84.877 100.738 80.2618 102.333 76.3134 104.597L82.678 115.296ZM89.9418 113.152L89.5735 125.506C90.6398 125.545 92.069 125.761 93.916 126.319L97.4993 114.5L101.083 102.682C97.544 101.613 93.9348 100.931 90.3102 100.798L89.9418 113.152ZM97.4993 114.5L94.1258 126.38C96.2035 126.969 97.9478 127.597 99.3969 128.237L104.443 116.959L109.488 105.681C106.789 104.49 103.905 103.479 100.873 102.62L97.4993 114.5ZM104.443 116.959L99.3969 128.237C102.31 129.522 105.381 130.497 108.574 130.972L110.35 118.748L112.127 106.525C111.59 106.445 110.723 106.226 109.488 105.681L104.443 116.959ZM110.35 118.748L108.574 130.972C113.416 131.693 118.058 130.698 122.078 128.393L115.713 117.693L109.349 106.994C109.574 106.865 109.98 106.679 110.545 106.568C111.118 106.456 111.668 106.456 112.127 106.525L110.35 118.748ZM115.713 117.693L122.078 128.393C127.467 125.303 132.013 119.763 131.907 111.991L119.372 112.06L106.838 112.128C106.822 111.002 107.145 109.674 107.91 108.497C108.605 107.426 109.319 107.011 109.349 106.994L115.713 117.693ZM119.372 112.06L131.903 112.52C132.082 106.505 129.29 100.741 126.691 96.372L115.891 102.565L105.091 108.758C106.031 110.338 106.53 111.423 106.769 112.074C107.032 112.793 106.814 112.536 106.842 111.599L119.372 112.06ZM115.891 102.565L126.691 96.372C124.56 92.7893 121.981 89.5249 118.979 86.5954L110.197 95.3494L101.415 104.103C102.869 105.522 104.086 107.068 105.091 108.758L115.891 102.565ZM110.197 95.3494L119.181 86.7975C116.444 84.0021 113.457 81.5166 110.187 79.5842L103.805 90.1753L97.4237 100.767C98.347 101.312 99.6212 102.276 101.213 103.901L110.197 95.3494ZM103.805 90.1753L110.17 100.875L123 93.5178L116.636 82.8181L110.271 72.1184L97.4407 79.4757L103.805 90.1753ZM116.636 82.8181L109.708 93.0678C111.235 94.0781 113.037 95.5899 115.084 97.7766L124.265 89.4293L133.445 81.0821C130.364 77.791 127.08 74.8953 123.563 72.5684L116.636 82.8181ZM124.265 89.4293L115.049 97.739C116.966 99.8038 118.872 102.356 120.727 105.474L131.527 99.2813L142.327 93.0883C139.701 88.6741 136.765 84.6583 133.48 81.1197L124.265 89.4293ZM131.527 99.2813L120.727 105.474C124.233 111.368 124.522 114.848 124.226 116.615L136.594 118.726L148.962 120.838C150.572 111.241 147.484 101.757 142.327 93.0883L131.527 99.2813ZM136.594 118.726L124.206 116.733C123.964 118.27 123.293 119.707 120.53 121.291L126.895 131.991L133.259 142.69C141.647 137.881 147.443 130.474 148.981 120.72L136.594 118.726ZM126.895 131.991L120.53 121.291C119.482 121.892 118.718 122.186 118.225 122.324C117.984 122.392 117.815 122.421 117.714 122.433C117.663 122.439 117.627 122.441 117.604 122.442C117.582 122.442 117.571 122.442 117.57 122.442L116.958 134.785L116.346 147.127C122.563 147.475 128.298 145.535 133.259 142.69L126.895 131.991ZM116.958 134.785L117.737 122.452C116.303 122.353 114.068 121.903 110.881 120.722L106.553 132.291L102.224 143.859C106.884 145.586 111.587 146.799 116.178 147.117L116.958 134.785ZM106.553 132.291L110.743 120.672C107.284 119.435 104.222 118.403 101.587 117.594L97.9478 129.396L94.309 141.198C96.4555 141.857 99.1295 142.754 102.362 143.909L106.553 132.291ZM97.9478 129.396L101.851 117.678C95.598 115.61 89.5058 116.731 84.4805 119.612L90.8452 130.312L97.2099 141.012C97.2259 141.002 96.8566 141.215 96.1478 141.306C95.3953 141.403 94.6469 141.313 94.0448 141.114L97.9478 129.396ZM90.8452 130.312L84.4805 119.612L83.245 120.321L89.6097 131.02L95.9743 141.72L97.2099 141.012L90.8452 130.312ZM89.6097 131.02L100.41 124.827L91.6722 110.139L80.8723 116.332L70.0723 122.525L78.8097 137.213L89.6097 131.02ZM63.6582 125.319L70.0229 136.019L81.0475 129.697L74.6828 118.997L68.3181 108.298L57.2935 114.619L63.6582 125.319ZM74.6828 118.997L63.8828 125.19L73.3484 141.103L84.1483 134.91L94.9483 128.717L85.4828 112.804L74.6828 118.997ZM84.1483 134.91L77.7837 124.21L66.7591 130.532L73.1237 141.232L79.4884 151.931L90.513 145.609L84.1483 134.91ZM73.1237 141.232L83.9237 135.039L74.4581 119.126L63.6582 125.319L52.8582 131.512L62.3238 147.424L73.1237 141.232Z" fill="white" mask="url(#path-3-outside-2_1179_2336)"/>
</g>
<g filter="url(#filter2_d_1179_2336)">
<mask id="path-5-outside-3_1179_2336" maskUnits="userSpaceOnUse" x="-6.68409" y="-7.18101" width="135.303" height="142.407" fill="black">
<rect fill="white" x="-6.68409" y="-7.18101" width="135.303" height="142.407"/>
<path d="M37.7886 72.9077L39.0891 70.8138C40.9143 67.8749 43.0364 65.7693 45.4555 64.4968C47.9487 63.2687 50.8272 62.3219 54.0909 61.6563C57.1606 60.9752 60.0335 60.5291 62.7096 60.3179C65.3857 60.1067 67.7736 59.622 69.8733 58.8638C71.9729 58.1056 73.6388 56.7346 74.8708 54.7509C76.6504 51.8855 76.8665 49.2428 75.5193 46.8226C74.2919 44.3734 71.3041 41.7264 66.5559 38.8816C63.4399 37.0146 60.11 35.574 56.5663 34.5597C53.0682 33.4719 49.8783 32.8712 46.9967 32.7577L56.2369 17.8798C59.8032 18.202 63.6922 19.0703 67.9036 20.4847C72.1892 21.9435 76.5578 24.0065 81.0092 26.6735C89.6153 31.8298 95.0175 37.6373 97.216 44.0958C99.4601 50.4808 98.5744 56.9061 94.5589 63.3715C92.0037 67.4859 89.0743 70.3176 85.7708 71.8667C82.513 73.3424 78.4306 74.4248 73.5235 75.1139C69.364 75.7468 65.832 76.3525 62.9278 76.9311C60.0692 77.4361 57.7729 79.0846 56.0389 81.8765L55.1491 83.3092L37.7886 72.9077ZM24.8947 91.9475L32.8344 79.1635L51.6417 90.4319L43.702 103.216L24.8947 91.9475Z"/>
</mask>
<path d="M37.7886 72.9077L39.0891 70.8138C40.9143 67.8749 43.0364 65.7693 45.4555 64.4968C47.9487 63.2687 50.8272 62.3219 54.0909 61.6563C57.1606 60.9752 60.0335 60.5291 62.7096 60.3179C65.3857 60.1067 67.7736 59.622 69.8733 58.8638C71.9729 58.1056 73.6388 56.7346 74.8708 54.7509C76.6504 51.8855 76.8665 49.2428 75.5193 46.8226C74.2919 44.3734 71.3041 41.7264 66.5559 38.8816C63.4399 37.0146 60.11 35.574 56.5663 34.5597C53.0682 33.4719 49.8783 32.8712 46.9967 32.7577L56.2369 17.8798C59.8032 18.202 63.6922 19.0703 67.9036 20.4847C72.1892 21.9435 76.5578 24.0065 81.0092 26.6735C89.6153 31.8298 95.0175 37.6373 97.216 44.0958C99.4601 50.4808 98.5744 56.9061 94.5589 63.3715C92.0037 67.4859 89.0743 70.3176 85.7708 71.8667C82.513 73.3424 78.4306 74.4248 73.5235 75.1139C69.364 75.7468 65.832 76.3525 62.9278 76.9311C60.0692 77.4361 57.7729 79.0846 56.0389 81.8765L55.1491 83.3092L37.7886 72.9077ZM24.8947 91.9475L32.8344 79.1635L51.6417 90.4319L43.702 103.216L24.8947 91.9475Z" fill="#8A00DA"/>
<path d="M37.7886 72.9077L25.1425 65.3308C20.8469 72.2473 23.0265 81.2465 30.0107 85.4311L37.7886 72.9077ZM45.4555 64.4968L38.8981 51.4123C38.7784 51.4713 38.6594 51.5318 38.5413 51.594L45.4555 64.4968ZM54.0909 61.6563L56.9964 75.9891C57.0809 75.9718 57.1653 75.9539 57.2495 75.9352L54.0909 61.6563ZM62.7096 60.3179L61.6325 45.7275L61.6325 45.7275L62.7096 60.3179ZM69.8733 58.8638L64.8572 45.1239L64.8571 45.1239L69.8733 58.8638ZM75.5193 46.8226L62.1994 53.3833C62.2929 53.5699 62.3904 53.7544 62.492 53.9368L75.5193 46.8226ZM56.5663 34.5597L52.0065 48.5218C52.1143 48.5554 52.2225 48.5877 52.331 48.6188L56.5663 34.5597ZM46.9967 32.7577L34.3506 25.1808C31.5988 29.6116 31.416 35.129 33.8698 39.6899C36.3236 44.2509 41.0488 47.1764 46.2956 47.3832L46.9967 32.7577ZM56.2369 17.8798L57.6988 3.30368C52.0448 2.79286 46.5673 5.51035 43.5908 10.303L56.2369 17.8798ZM67.9036 20.4847L72.8404 6.64527C72.8212 6.63873 72.8019 6.63223 72.7827 6.62577L67.9036 20.4847ZM97.216 44.0958L83.1374 48.8437C83.1527 48.8886 83.1682 48.9334 83.1839 48.9781L97.216 44.0958ZM85.7708 71.8667L91.8874 85.1595C91.9477 85.1322 92.0078 85.1045 92.0678 85.0764L85.7708 71.8667ZM73.5235 75.1139L71.5353 60.6233C71.4781 60.6313 71.421 60.6397 71.3639 60.6484L73.5235 75.1139ZM62.9278 76.9311L65.4432 91.3381C65.551 91.319 65.6585 91.2988 65.7659 91.2774L62.9278 76.9311ZM55.1491 83.3092L47.3712 95.8327C54.3555 100.017 63.4996 97.8026 67.7952 90.8861L55.1491 83.3092ZM24.8947 91.9475L12.2487 84.3706C7.95306 91.2871 10.1326 100.286 17.1169 104.471L24.8947 91.9475ZM32.8344 79.1635L40.6123 66.6401C33.6281 62.4555 24.484 64.6701 20.1883 71.5867L32.8344 79.1635ZM51.6417 90.4319L64.2877 98.0087C68.5834 91.0922 66.4038 82.093 59.4196 77.9084L51.6417 90.4319ZM43.702 103.216L35.9241 115.739C42.9083 119.924 52.0525 117.709 56.3481 110.793L43.702 103.216ZM37.7886 72.9077L50.4347 80.4846L51.7351 78.3906L39.0891 70.8138L26.443 63.2369L25.1425 65.3308L37.7886 72.9077ZM39.0891 70.8138L51.7351 78.3906C52.542 77.0915 52.8716 77.1355 52.3696 77.3996L45.4555 64.4968L38.5413 51.594C33.2012 54.403 29.2866 58.6583 26.443 63.2369L39.0891 70.8138ZM45.4555 64.4968L52.0128 77.5812C53.1464 77.0229 54.7578 76.4456 56.9964 75.9891L54.0909 61.6563L51.1855 47.3235C46.8967 48.1981 42.751 49.5145 38.8981 51.4123L45.4555 64.4968ZM54.0909 61.6563L57.2495 75.9352C59.746 75.3813 61.917 75.0559 63.7868 74.9083L62.7096 60.3179L61.6325 45.7275C58.1501 46.0023 54.5753 46.5691 50.9324 47.3773L54.0909 61.6563ZM62.7096 60.3179L63.7868 74.9083C67.5451 74.6117 71.2947 73.9017 74.8894 72.6037L69.8733 58.8638L64.8571 45.1239C64.2525 45.3422 63.2264 45.6017 61.6325 45.7275L62.7096 60.3179ZM69.8733 58.8638L74.8894 72.6037C80.3422 70.6346 84.6217 66.9894 87.5169 62.3278L74.8708 54.7509L62.2247 47.174C62.3867 46.9132 62.7064 46.4914 63.2325 46.0584C63.7665 45.6189 64.3406 45.3104 64.8572 45.1239L69.8733 58.8638ZM74.8708 54.7509L87.5169 62.3278C91.3981 56.0784 93.0234 47.7505 88.5466 39.7084L75.5193 46.8226L62.492 53.9368C61.8433 52.7715 61.4336 51.2061 61.5692 49.5493C61.6925 48.0418 62.2034 47.2084 62.2247 47.174L74.8708 54.7509ZM75.5193 46.8226L88.8392 40.2619C85.6466 33.8916 79.4977 29.4521 74.3338 26.3581L66.5559 38.8816L58.778 51.405C60.6451 52.5237 61.7754 53.3751 62.39 53.9196C63.0684 54.5206 62.6963 54.3748 62.1994 53.3833L75.5193 46.8226ZM66.5559 38.8816L74.3338 26.3581C70.0993 23.8211 65.5769 21.8674 60.8015 20.5006L56.5663 34.5597L52.331 48.6188C54.6432 49.2805 56.7804 50.2082 58.778 51.405L66.5559 38.8816ZM56.5663 34.5597L61.1261 20.5975C56.7021 19.2218 52.1921 18.3093 47.6978 18.1322L46.9967 32.7577L46.2956 47.3832C47.5645 47.4332 49.4343 47.722 52.0065 48.5218L56.5663 34.5597ZM46.9967 32.7577L59.6428 40.3346L68.8829 25.4567L56.2369 17.8798L43.5908 10.303L34.3506 25.1808L46.9967 32.7577ZM56.2369 17.8798L54.7749 32.456C56.9344 32.6511 59.6621 33.2144 63.0245 34.3436L67.9036 20.4847L72.7827 6.62577C67.7222 4.92625 62.6721 3.753 57.6988 3.30368L56.2369 17.8798ZM67.9036 20.4847L62.9668 34.3241C66.1253 35.3993 69.5457 36.9887 73.2313 39.197L81.0092 26.6735L88.7871 14.1501C83.5699 11.0242 78.2532 8.48779 72.8404 6.64527L67.9036 20.4847ZM81.0092 26.6735L73.2313 39.197C80.1974 43.3707 82.4538 46.8354 83.1374 48.8437L97.216 44.0958L111.295 39.3479C107.581 28.4391 99.0332 20.289 88.7871 14.1501L81.0092 26.6735ZM97.216 44.0958L83.1839 48.9781C83.7949 50.7164 83.903 52.5903 81.9129 55.7946L94.559 63.3715L107.205 70.9484C113.246 61.2218 115.125 50.2453 111.248 39.2134L97.216 44.0958ZM94.559 63.3715L81.9129 55.7946C81.1583 57.0096 80.5266 57.7452 80.0908 58.1665C79.8772 58.3729 79.7177 58.4973 79.6186 58.5669C79.5688 58.6019 79.5324 58.6245 79.5094 58.6378C79.4866 58.6511 79.4749 58.6566 79.4739 58.6571L85.7708 71.8667L92.0678 85.0764C98.7439 81.9457 103.632 76.7014 107.205 70.9484L94.559 63.3715ZM85.7708 71.8667L79.6543 58.5739C78.1032 59.2765 75.5215 60.0635 71.5353 60.6233L73.5235 75.1139L75.5117 89.6044C81.3397 88.786 86.9228 87.4083 91.8874 85.1595L85.7708 71.8667ZM73.5235 75.1139L71.3639 60.6484C67.0631 61.3028 63.2907 61.947 60.0897 62.5847L62.9278 76.9311L65.7659 91.2774C68.3734 90.758 71.6648 90.1908 75.6832 89.5794L73.5235 75.1139ZM62.9278 76.9311L60.4124 62.524C52.7324 63.881 47.0119 68.4724 43.3928 74.2997L56.0389 81.8765L68.685 89.4534C68.6965 89.4349 68.4308 89.8635 67.7434 90.357C67.0135 90.881 66.1827 91.2074 65.4432 91.3381L62.9278 76.9311ZM56.0389 81.8765L43.3928 74.2997L42.5031 75.7323L55.1491 83.3092L67.7952 90.8861L68.685 89.4534L56.0389 81.8765ZM55.1491 83.3092L62.927 70.7858L45.5665 60.3842L37.7886 72.9077L30.0107 85.4311L47.3712 95.8327L55.1491 83.3092ZM24.8947 91.9475L37.5408 99.5243L45.4805 86.7404L32.8344 79.1635L20.1883 71.5867L12.2487 84.3706L24.8947 91.9475ZM32.8344 79.1635L25.0565 91.687L43.8638 102.955L51.6417 90.4319L59.4196 77.9084L40.6123 66.6401L32.8344 79.1635ZM51.6417 90.4319L38.9956 82.855L31.0559 95.6389L43.702 103.216L56.3481 110.793L64.2877 98.0087L51.6417 90.4319ZM43.702 103.216L51.4799 90.6923L32.6726 79.424L24.8947 91.9475L17.1169 104.471L35.9241 115.739L43.702 103.216Z" fill="white" mask="url(#path-5-outside-3_1179_2336)"/>
</g>
</g>
<defs>
<filter id="filter0_d_1179_2336" x="65.0938" y="145.18" width="83.8125" height="66.8792" filterUnits="userSpaceOnUse" color-interpolation-filters="sRGB">
<feFlood flood-opacity="0" result="BackgroundImageFix"/>
<feColorMatrix in="SourceAlpha" type="matrix" values="0 0 0 0 0 0 0 0 0 0 0 0 0 0 0 0 0 0 127 0" result="hardAlpha"/>
<feOffset dy="3.49404"/>
<feComposite in2="hardAlpha" operator="out"/>
<feColorMatrix type="matrix" values="0 0 0 0 0 0 0 0 0 0 0 0 0 0 0 0 0 0 0.25 0"/>
<feBlend mode="normal" in2="BackgroundImageFix" result="effect1_dropShadow_1179_2336"/>
<feBlend mode="normal" in="SourceGraphic" in2="effect1_dropShadow_1179_2336" result="shape"/>
</filter>
<filter id="filter1_d_1179_2336" x="51.1211" y="70.4554" width="98.2695" height="87.2172" filterUnits="userSpaceOnUse" color-interpolation-filters="sRGB">
<feFlood flood-opacity="0" result="BackgroundImageFix"/>
<feColorMatrix in="SourceAlpha" type="matrix" values="0 0 0 0 0 0 0 0 0 0 0 0 0 0 0 0 0 0 127 0" result="hardAlpha"/>
<feOffset dy="4.07646"/>
<feComposite in2="hardAlpha" operator="out"/>
<feColorMatrix type="matrix" values="0 0 0 0 0 0 0 0 0 0 0 0 0 0 0 0 0 0 0.25 0"/>
<feBlend mode="normal" in2="BackgroundImageFix" result="effect1_dropShadow_1179_2336"/>
<feBlend mode="normal" in="SourceGraphic" in2="effect1_dropShadow_1179_2336" result="shape"/>
</filter>
<filter id="filter2_d_1179_2336" x="10.0469" y="3.24243" width="103.227" height="119.44" filterUnits="userSpaceOnUse" color-interpolation-filters="sRGB">
<feFlood flood-opacity="0" result="BackgroundImageFix"/>
<feColorMatrix in="SourceAlpha" type="matrix" values="0 0 0 0 0 0 0 0 0 0 0 0 0 0 0 0 0 0 127 0" result="hardAlpha"/>
<feOffset dy="4.82716"/>
<feComposite in2="hardAlpha" operator="out"/>
<feColorMatrix type="matrix" values="0 0 0 0 0 0 0 0 0 0 0 0 0 0 0 0 0 0 0.25 0"/>
<feBlend mode="normal" in2="BackgroundImageFix" result="effect1_dropShadow_1179_2336"/>
<feBlend mode="normal" in="SourceGraphic" in2="effect1_dropShadow_1179_2336" result="shape"/>
</filter>
<clipPath id="clip0_1179_2336">
<rect width="188" height="219" fill="white"/>
</clipPath>
</defs>
</svg>
