<svg width="229" height="179" viewBox="0 0 229 179" fill="none" xmlns="http://www.w3.org/2000/svg">
<mask id="path-1-outside-1_970_3681" maskUnits="userSpaceOnUse" x="-16.1537" y="-16.2129" width="260.641" height="210.936" fill="black">
<rect fill="white" x="-16.1537" y="-16.2129" width="260.641" height="210.936"/>
<path d="M10.2971 158.797C-0.481186 142.66 3.86291 120.841 20 110.062L169.367 10.2963C185.504 -0.482008 207.323 3.86208 218.102 19.9991C228.88 36.1362 224.536 57.9554 208.399 68.7337L59.0317 168.5C42.8947 179.278 21.0755 174.934 10.2971 158.797Z"/>
<path d="M12.9649 157.541C2.94684 142.542 6.98451 122.262 21.9833 112.244L170.623 12.964C185.622 2.94601 205.902 6.98368 215.92 21.9824C225.938 36.9812 221.9 57.2613 206.901 67.2793L58.2618 166.559C43.263 176.577 22.9829 172.54 12.9649 157.541Z"/>
<path d="M126.928 47.4087C130.111 45.2827 134.392 45.8599 136.847 48.7962C147.157 61.1248 153.33 70.2126 160.319 83.834C162.049 87.2058 160.925 91.3257 157.774 93.4306L101.706 130.879C98.6393 132.928 94.5296 132.479 92.0428 129.756C81.1962 117.879 74.9297 108.759 68.1888 94.1197C66.6602 90.8 67.833 86.8797 70.8722 84.8498L126.928 47.4087Z"/>
<path d="M126.536 49.7742C129.713 47.6521 133.986 48.2219 136.44 51.1507C145.88 62.4194 151.601 70.8416 157.989 83.3109C159.713 86.6768 158.585 90.7849 155.44 92.8855L102.306 128.375C99.2475 130.418 95.1477 129.978 92.6636 127.265C82.7057 116.39 76.8924 107.927 70.7276 94.4993C69.207 91.1871 70.3842 87.2797 73.4148 85.2554L126.536 49.7742Z"/>
<path d="M52.4121 135.752C53.7538 137.76 53.213 140.477 51.2042 141.818C49.1955 143.16 46.4794 142.619 45.1377 140.61C43.796 138.602 44.3368 135.886 46.3455 134.544C48.3543 133.202 51.0704 133.743 52.4121 135.752Z"/>
<path d="M174.37 43.7735C175.711 45.7823 178.428 46.323 180.436 44.9813C182.445 43.6396 182.986 40.9235 181.644 38.9148C180.302 36.906 177.586 36.3653 175.578 37.707C173.569 39.0487 173.028 41.7647 174.37 43.7735Z"/>
<path d="M77.5576 128.775C78.8993 130.783 78.3585 133.5 76.3498 134.841C74.341 136.183 71.6249 135.642 70.2832 133.633C68.9415 131.625 69.4823 128.909 71.491 127.567C73.4998 126.225 76.2159 126.766 77.5576 128.775Z"/>
<path d="M174.796 69.0865C176.138 71.0952 178.854 71.636 180.863 70.2943C182.872 68.9526 183.412 66.2365 182.071 64.2277C180.729 62.219 178.013 61.6782 176.004 63.0199C173.995 64.3616 173.454 67.0777 174.796 69.0865Z"/>
<path d="M50.7742 112.3C52.1159 114.309 51.5751 117.025 49.5664 118.366C47.5576 119.708 44.8415 119.167 43.4998 117.159C42.1581 115.15 42.6989 112.434 44.7076 111.092C46.7164 109.75 49.4325 110.291 50.7742 112.3Z"/>
<path d="M151.165 50.5062C152.507 52.515 155.223 53.0557 157.232 51.714C159.24 50.3723 159.781 47.6562 158.439 45.6475C157.098 43.6387 154.382 43.0979 152.373 44.4396C150.364 45.7813 149.823 48.4974 151.165 50.5062Z"/>
<path d="M123.746 96.9301C123.278 97.169 122.706 97.0102 122.428 96.5646L109.732 76.1835C109.436 75.7084 109.583 75.0832 110.059 74.7892L122.436 67.1526C124.786 65.7022 126.945 65.1484 128.912 65.4911C130.879 65.8338 132.498 67.0363 133.771 69.0986C134.496 70.2737 134.894 71.4021 134.966 72.4839C135.002 72.8928 135.002 73.2902 134.966 73.6759C134.892 74.4691 135.549 75.3093 136.341 75.3915C136.858 75.445 137.35 75.5611 137.819 75.7395C138.8 76.0946 139.719 76.9675 140.578 78.3584C141.924 80.5407 142.279 82.6725 141.643 84.7539C141.006 86.8353 139.441 88.6456 136.946 90.1848L123.746 96.9301ZM121.598 78.9982C121.891 79.4731 122.514 79.6205 122.989 79.3274L125.943 77.5049C127.334 76.6466 127.645 75.5939 126.875 74.3469C126.505 73.7473 126.044 73.4027 125.492 73.313C124.949 73.1844 124.294 73.357 123.526 73.8306L120.681 75.5864C120.205 75.8795 120.058 76.5021 120.351 76.9771L121.598 78.9982ZM127.036 87.8111C127.329 88.286 127.952 88.4334 128.427 88.1403L131.525 86.229C132.988 85.3263 133.305 84.2034 132.476 82.8605C131.707 81.6135 130.567 81.4562 129.055 82.3886L126.03 84.2554C125.555 84.5485 125.407 85.1712 125.7 85.6461L127.036 87.8111Z"/>
<path d="M86.3854 103.639L105.967 115.651C106.426 115.932 107.025 115.792 107.311 115.336L110.639 110.038C110.929 109.575 110.786 108.964 110.32 108.679L105.13 105.503C104.635 105.2 104.51 104.536 104.86 104.074L108.787 98.8895C109.194 98.3518 110.01 98.376 110.385 98.9369L113.375 103.413C113.749 103.974 114.565 103.998 114.973 103.461L118.763 98.4569C119.011 98.1299 119.029 97.6835 118.808 97.3376L106.467 77.9648C106.107 77.3985 105.296 77.3539 104.876 77.877L100.674 83.1002C100.43 83.403 100.388 83.821 100.567 84.1661L104.239 91.2585C104.404 91.5766 104.382 91.9591 104.183 92.2565L98.6922 100.43C98.3955 100.872 97.8007 100.997 97.3515 100.711L91.3315 96.8845C90.9026 96.6118 90.3363 96.712 90.0269 97.1152L86.1202 102.206C85.7657 102.668 85.8892 103.335 86.3854 103.639Z"/>
</mask>
<path d="M10.2971 158.797C-0.481186 142.66 3.86291 120.841 20 110.062L169.367 10.2963C185.504 -0.482008 207.323 3.86208 218.102 19.9991C228.88 36.1362 224.536 57.9554 208.399 68.7337L59.0317 168.5C42.8947 179.278 21.0755 174.934 10.2971 158.797Z" fill="#F0C855"/>
<path d="M12.9649 157.541C2.94684 142.542 6.98451 122.262 21.9833 112.244L170.623 12.964C185.622 2.94601 205.902 6.98368 215.92 21.9824C225.938 36.9812 221.9 57.2613 206.901 67.2793L58.2618 166.559C43.263 176.577 22.9829 172.54 12.9649 157.541Z" fill="#FFEE00"/>
<path d="M126.928 47.4087C130.111 45.2827 134.392 45.8599 136.847 48.7962C147.157 61.1248 153.33 70.2126 160.319 83.834C162.049 87.2058 160.925 91.3257 157.774 93.4306L101.706 130.879C98.6393 132.928 94.5296 132.479 92.0428 129.756C81.1962 117.879 74.9297 108.759 68.1888 94.1197C66.6602 90.8 67.833 86.8797 70.8722 84.8498L126.928 47.4087Z" fill="#F0C855"/>
<path d="M126.536 49.7742C129.713 47.6521 133.986 48.2219 136.44 51.1507C145.88 62.4194 151.601 70.8416 157.989 83.3109C159.713 86.6768 158.585 90.7849 155.44 92.8855L102.306 128.375C99.2475 130.418 95.1477 129.978 92.6636 127.265C82.7057 116.39 76.8924 107.927 70.7276 94.4993C69.207 91.1871 70.3842 87.2797 73.4148 85.2554L126.536 49.7742Z" fill="#8B00DB"/>
<path d="M52.4121 135.752C53.7538 137.76 53.213 140.477 51.2042 141.818C49.1955 143.16 46.4794 142.619 45.1377 140.61C43.796 138.602 44.3368 135.886 46.3455 134.544C48.3543 133.202 51.0704 133.743 52.4121 135.752Z" fill="#7300B7"/>
<path d="M174.37 43.7735C175.711 45.7823 178.428 46.323 180.436 44.9813C182.445 43.6396 182.986 40.9235 181.644 38.9148C180.302 36.906 177.586 36.3653 175.578 37.707C173.569 39.0487 173.028 41.7647 174.37 43.7735Z" fill="#7300B7"/>
<path d="M77.5576 128.775C78.8993 130.783 78.3585 133.5 76.3498 134.841C74.341 136.183 71.6249 135.642 70.2832 133.633C68.9415 131.625 69.4823 128.909 71.491 127.567C73.4998 126.225 76.2159 126.766 77.5576 128.775Z" fill="#7300B7"/>
<path d="M174.796 69.0865C176.138 71.0952 178.854 71.636 180.863 70.2943C182.872 68.9526 183.412 66.2365 182.071 64.2277C180.729 62.219 178.013 61.6782 176.004 63.0199C173.995 64.3616 173.454 67.0777 174.796 69.0865Z" fill="#7300B7"/>
<path d="M50.7742 112.3C52.1159 114.309 51.5751 117.025 49.5664 118.366C47.5576 119.708 44.8415 119.167 43.4998 117.159C42.1581 115.15 42.6989 112.434 44.7076 111.092C46.7164 109.75 49.4325 110.291 50.7742 112.3Z" fill="#7300B7"/>
<path d="M151.165 50.5062C152.507 52.515 155.223 53.0557 157.232 51.714C159.24 50.3723 159.781 47.6562 158.439 45.6475C157.098 43.6387 154.382 43.0979 152.373 44.4396C150.364 45.7813 149.823 48.4974 151.165 50.5062Z" fill="#7300B7"/>
<path d="M123.746 96.9301C123.278 97.169 122.706 97.0102 122.428 96.5646L109.732 76.1835C109.436 75.7084 109.583 75.0832 110.059 74.7892L122.436 67.1526C124.786 65.7022 126.945 65.1484 128.912 65.4911C130.879 65.8338 132.498 67.0363 133.771 69.0986C134.496 70.2737 134.894 71.4021 134.966 72.4839C135.002 72.8928 135.002 73.2902 134.966 73.6759C134.892 74.4691 135.549 75.3093 136.341 75.3915C136.858 75.445 137.35 75.5611 137.819 75.7395C138.8 76.0946 139.719 76.9675 140.578 78.3584C141.924 80.5407 142.279 82.6725 141.643 84.7539C141.006 86.8353 139.441 88.6456 136.946 90.1848L123.746 96.9301ZM121.598 78.9982C121.891 79.4731 122.514 79.6205 122.989 79.3274L125.943 77.5049C127.334 76.6466 127.645 75.5939 126.875 74.3469C126.505 73.7473 126.044 73.4027 125.492 73.313C124.949 73.1844 124.294 73.357 123.526 73.8306L120.681 75.5864C120.205 75.8795 120.058 76.5021 120.351 76.9771L121.598 78.9982ZM127.036 87.8111C127.329 88.286 127.952 88.4334 128.427 88.1403L131.525 86.229C132.988 85.3263 133.305 84.2034 132.476 82.8605C131.707 81.6135 130.567 81.4562 129.055 82.3886L126.03 84.2554C125.555 84.5485 125.407 85.1712 125.7 85.6461L127.036 87.8111Z" fill="white"/>
<path d="M86.3854 103.639L105.967 115.651C106.426 115.932 107.025 115.792 107.311 115.336L110.639 110.038C110.929 109.575 110.786 108.964 110.32 108.679L105.13 105.503C104.635 105.2 104.51 104.536 104.86 104.074L108.787 98.8895C109.194 98.3518 110.01 98.376 110.385 98.9369L113.375 103.413C113.749 103.974 114.565 103.998 114.973 103.461L118.763 98.4569C119.011 98.1299 119.029 97.6835 118.808 97.3376L106.467 77.9648C106.107 77.3985 105.296 77.3539 104.876 77.877L100.674 83.1002C100.43 83.403 100.388 83.821 100.567 84.1661L104.239 91.2585C104.404 91.5766 104.382 91.9591 104.183 92.2565L98.6922 100.43C98.3955 100.872 97.8007 100.997 97.3515 100.711L91.3315 96.8845C90.9026 96.6118 90.3363 96.712 90.0269 97.1152L86.1202 102.206C85.7657 102.668 85.8892 103.335 86.3854 103.639Z" fill="white"/>
<path d="M10.2971 158.797C-0.481186 142.66 3.86291 120.841 20 110.062L169.367 10.2963C185.504 -0.482008 207.323 3.86208 218.102 19.9991C228.88 36.1362 224.536 57.9554 208.399 68.7337L59.0317 168.5C42.8947 179.278 21.0755 174.934 10.2971 158.797Z" stroke="white" stroke-width="8.74778" mask="url(#path-1-outside-1_970_3681)"/>
<path d="M12.9649 157.541C2.94684 142.542 6.98451 122.262 21.9833 112.244L170.623 12.964C185.622 2.94601 205.902 6.98368 215.92 21.9824C225.938 36.9812 221.9 57.2613 206.901 67.2793L58.2618 166.559C43.263 176.577 22.9829 172.54 12.9649 157.541Z" stroke="white" stroke-width="8.74778" mask="url(#path-1-outside-1_970_3681)"/>
<path d="M126.928 47.4087C130.111 45.2827 134.392 45.8599 136.847 48.7962C147.157 61.1248 153.33 70.2126 160.319 83.834C162.049 87.2058 160.925 91.3257 157.774 93.4306L101.706 130.879C98.6393 132.928 94.5296 132.479 92.0428 129.756C81.1962 117.879 74.9297 108.759 68.1888 94.1197C66.6602 90.8 67.833 86.8797 70.8722 84.8498L126.928 47.4087Z" stroke="white" stroke-width="8.74778" mask="url(#path-1-outside-1_970_3681)"/>
<path d="M126.536 49.7742C129.713 47.6521 133.986 48.2219 136.44 51.1507C145.88 62.4194 151.601 70.8416 157.989 83.3109C159.713 86.6768 158.585 90.7849 155.44 92.8855L102.306 128.375C99.2475 130.418 95.1477 129.978 92.6636 127.265C82.7057 116.39 76.8924 107.927 70.7276 94.4993C69.207 91.1871 70.3842 87.2797 73.4148 85.2554L126.536 49.7742Z" stroke="white" stroke-width="8.74778" mask="url(#path-1-outside-1_970_3681)"/>
<path d="M52.4121 135.752C53.7538 137.76 53.213 140.477 51.2042 141.818C49.1955 143.16 46.4794 142.619 45.1377 140.61C43.796 138.602 44.3368 135.886 46.3455 134.544C48.3543 133.202 51.0704 133.743 52.4121 135.752Z" stroke="white" stroke-width="8.74778" mask="url(#path-1-outside-1_970_3681)"/>
<path d="M174.37 43.7735C175.711 45.7823 178.428 46.323 180.436 44.9813C182.445 43.6396 182.986 40.9235 181.644 38.9148C180.302 36.906 177.586 36.3653 175.578 37.707C173.569 39.0487 173.028 41.7647 174.37 43.7735Z" stroke="white" stroke-width="8.74778" mask="url(#path-1-outside-1_970_3681)"/>
<path d="M77.5576 128.775C78.8993 130.783 78.3585 133.5 76.3498 134.841C74.341 136.183 71.6249 135.642 70.2832 133.633C68.9415 131.625 69.4823 128.909 71.491 127.567C73.4998 126.225 76.2159 126.766 77.5576 128.775Z" stroke="white" stroke-width="8.74778" mask="url(#path-1-outside-1_970_3681)"/>
<path d="M174.796 69.0865C176.138 71.0952 178.854 71.636 180.863 70.2943C182.872 68.9526 183.412 66.2365 182.071 64.2277C180.729 62.219 178.013 61.6782 176.004 63.0199C173.995 64.3616 173.454 67.0777 174.796 69.0865Z" stroke="white" stroke-width="8.74778" mask="url(#path-1-outside-1_970_3681)"/>
<path d="M50.7742 112.3C52.1159 114.309 51.5751 117.025 49.5664 118.366C47.5576 119.708 44.8415 119.167 43.4998 117.159C42.1581 115.15 42.6989 112.434 44.7076 111.092C46.7164 109.75 49.4325 110.291 50.7742 112.3Z" stroke="white" stroke-width="8.74778" mask="url(#path-1-outside-1_970_3681)"/>
<path d="M151.165 50.5062C152.507 52.515 155.223 53.0557 157.232 51.714C159.24 50.3723 159.781 47.6562 158.439 45.6475C157.098 43.6387 154.382 43.0979 152.373 44.4396C150.364 45.7813 149.823 48.4974 151.165 50.5062Z" stroke="white" stroke-width="8.74778" mask="url(#path-1-outside-1_970_3681)"/>
<path d="M123.746 96.9301C123.278 97.169 122.706 97.0102 122.428 96.5646L109.732 76.1835C109.436 75.7084 109.583 75.0832 110.059 74.7892L122.436 67.1526C124.786 65.7022 126.945 65.1484 128.912 65.4911C130.879 65.8338 132.498 67.0363 133.771 69.0986C134.496 70.2737 134.894 71.4021 134.966 72.4839C135.002 72.8928 135.002 73.2902 134.966 73.6759C134.892 74.4691 135.549 75.3093 136.341 75.3915C136.858 75.445 137.35 75.5611 137.819 75.7395C138.8 76.0946 139.719 76.9675 140.578 78.3584C141.924 80.5407 142.279 82.6725 141.643 84.7539C141.006 86.8353 139.441 88.6456 136.946 90.1848L123.746 96.9301ZM121.598 78.9982C121.891 79.4731 122.514 79.6205 122.989 79.3274L125.943 77.5049C127.334 76.6466 127.645 75.5939 126.875 74.3469C126.505 73.7473 126.044 73.4027 125.492 73.313C124.949 73.1844 124.294 73.357 123.526 73.8306L120.681 75.5864C120.205 75.8795 120.058 76.5021 120.351 76.9771L121.598 78.9982ZM127.036 87.8111C127.329 88.286 127.952 88.4334 128.427 88.1403L131.525 86.229C132.988 85.3263 133.305 84.2034 132.476 82.8605C131.707 81.6135 130.567 81.4562 129.055 82.3886L126.03 84.2554C125.555 84.5485 125.407 85.1712 125.7 85.6461L127.036 87.8111Z" stroke="white" stroke-width="8.74778" mask="url(#path-1-outside-1_970_3681)"/>
<path d="M86.3854 103.639L105.967 115.651C106.426 115.932 107.025 115.792 107.311 115.336L110.639 110.038C110.929 109.575 110.786 108.964 110.32 108.679L105.13 105.503C104.635 105.2 104.51 104.536 104.86 104.074L108.787 98.8895C109.194 98.3518 110.01 98.376 110.385 98.9369L113.375 103.413C113.749 103.974 114.565 103.998 114.973 103.461L118.763 98.4569C119.011 98.1299 119.029 97.6835 118.808 97.3376L106.467 77.9648C106.107 77.3985 105.296 77.3539 104.876 77.877L100.674 83.1002C100.43 83.403 100.388 83.821 100.567 84.1661L104.239 91.2585C104.404 91.5766 104.382 91.9591 104.183 92.2565L98.6922 100.43C98.3955 100.872 97.8007 100.997 97.3515 100.711L91.3315 96.8845C90.9026 96.6118 90.3363 96.712 90.0269 97.1152L86.1202 102.206C85.7657 102.668 85.8892 103.335 86.3854 103.639Z" stroke="white" stroke-width="8.74778" mask="url(#path-1-outside-1_970_3681)"/>
</svg>
