<svg width="853" height="153" viewBox="0 0 853 153" fill="none" xmlns="http://www.w3.org/2000/svg">
<g filter="url(#filter0_d_998_2974)">
<mask id="path-1-outside-1_998_2974" maskUnits="userSpaceOnUse" x="-3.75232" y="-3.90096" width="858.305" height="155.37" fill="black">
<rect fill="white" x="-3.75232" y="-3.90096" width="858.305" height="155.37"/>
<path d="M26.2379 135.99C24.081 136.187 21.9914 136.247 19.9693 136.173C17.9472 136.098 15.961 135.813 14.0107 135.317L12.9819 121.587C14.2529 121.989 15.6428 122.251 17.1514 122.372C18.7074 122.438 20.2558 122.4 21.7965 122.26C24.3643 122.026 26.1232 121.349 27.0733 120.227C28.0747 119.1 28.4848 117.328 28.3037 114.911L26.0784 85.214L42.6407 83.7066L45.1203 116.798C45.5403 122.403 44.1416 126.854 40.9243 130.149C37.7069 133.445 32.8115 135.392 26.2379 135.99ZM76.6258 131.404C71.0794 131.909 66.3168 131.488 62.3379 130.142C58.3591 128.795 55.2019 126.339 52.8664 122.772C50.5822 119.2 49.2108 114.355 48.7523 108.235C48.286 102.013 48.9137 96.9336 50.6353 92.9973C52.4082 89.0564 55.157 86.0622 58.8815 84.0146C62.606 81.9671 67.2415 80.6909 72.7879 80.1861C78.3344 79.6813 83.097 80.1021 87.0759 81.4485C91.0547 82.795 94.1862 85.254 96.4704 88.8257C98.8059 92.3927 100.207 97.2873 100.673 103.51C101.132 109.629 100.474 114.659 98.7014 118.6C96.9798 122.536 94.2568 125.528 90.5323 127.576C86.8077 129.623 82.1723 130.9 76.6258 131.404ZM75.5739 117.366C78.7579 117.076 80.9758 115.968 82.2276 114.042C83.5307 112.111 84.03 109.115 83.7256 105.052C83.4058 100.784 82.4633 97.8667 80.8982 96.3006C79.3806 94.6784 77.0297 94.0122 73.8457 94.302C70.6103 94.5965 68.3391 95.6833 67.0321 97.5626C65.7727 99.3858 65.3029 102.432 65.6227 106.7C65.9271 110.762 66.84 113.63 68.3615 115.304C69.9343 116.973 72.3385 117.66 75.5739 117.366ZM107.14 127.85L103.418 78.1749L119.98 76.6675L123.702 126.343L107.14 127.85ZM129.859 125.783L126.137 76.1072L140.08 74.8382L158.128 96.2612L156.411 73.3518L172.973 71.8444L176.696 121.52L162.598 122.803L144.711 101.443L146.421 124.275L129.859 125.783ZM223.17 118.067C217.624 118.571 212.861 118.151 208.883 116.804C204.904 115.458 201.747 113.001 199.411 109.434C197.127 105.862 195.755 101.017 195.297 94.8974C194.831 88.6751 195.458 83.5959 197.18 79.6596C198.953 75.7187 201.702 72.7245 205.426 70.6769C209.151 68.6294 213.786 67.3532 219.333 66.8484C224.879 66.3436 229.642 66.7644 233.621 68.1108C237.599 69.4572 240.731 71.9163 243.015 75.4879C245.351 79.0549 246.751 83.9496 247.218 90.1719C247.676 96.2913 247.019 101.321 245.246 105.262C243.524 109.199 240.801 112.191 237.077 114.238C233.352 116.286 228.717 117.562 223.17 118.067ZM222.119 104.028C225.303 103.738 227.52 102.63 228.772 100.704C230.075 98.7734 230.575 95.7768 230.27 91.7143C229.95 87.4461 229.008 84.529 227.443 82.9629C225.925 81.3407 223.574 80.6745 220.39 80.9643C217.155 81.2587 214.884 82.3456 213.577 84.2249C212.317 86.0481 211.848 89.0938 212.167 93.362C212.472 97.4245 213.385 100.293 214.906 101.966C216.479 103.635 218.883 104.322 222.119 104.028ZM277.469 113.125C272.847 113.545 268.655 113.15 264.893 111.939C261.131 110.729 258.086 108.728 255.757 105.937C253.479 103.141 252.176 99.5577 251.849 95.1867L249.577 64.8723L266.14 63.3649L268.267 91.7509C268.667 97.099 271.384 99.544 276.417 99.0859C281.45 98.6279 283.766 95.7248 283.365 90.3767L281.238 61.9907L297.801 60.4833L300.072 90.7977C300.4 95.1687 299.622 98.9413 297.74 102.116C295.909 105.285 293.229 107.807 289.698 109.682C286.219 111.552 282.142 112.699 277.469 113.125ZM307.323 109.631L303.6 59.9554L330.408 57.5155C334.568 57.1369 338.043 57.6231 340.833 58.9742C343.67 60.2692 345.833 62.221 347.321 64.8296C348.861 67.4336 349.761 70.4839 350.023 73.9808C350.274 77.3233 349.648 80.3573 348.146 83.0828C346.64 85.7568 344.659 87.9563 342.203 89.6813C343.237 90.3639 344.143 91.4204 344.922 92.8509L351.694 105.592L334.438 107.163L328.493 96.1325C328.076 95.3938 327.65 94.8889 327.216 94.6178C326.782 94.3466 326.129 94.2508 325.256 94.3302L322.868 94.5476L323.885 108.124L307.323 109.631ZM321.908 81.743L327.994 81.1891C331.691 80.8526 333.411 78.9616 333.153 75.5162C332.891 72.0194 331.039 70.4276 327.599 70.7407L321.128 71.3297L321.908 81.743ZM372.771 103.674L369.049 53.9986L382.992 52.7296L401.04 74.1526L399.323 51.2432L415.885 49.7358L419.608 99.4113L405.511 100.694L387.623 79.3345L389.333 102.167L372.771 103.674ZM425.807 98.8471L422.085 49.1715L460.679 45.6589L461.598 57.9235L439.566 59.9287L440.04 66.2539L459.221 64.5081L460.164 77.0813L440.982 78.827L441.45 85.0751L463.482 83.0698L464.401 95.3345L425.807 98.8471ZM478.626 94.0397L463.349 45.4159L479.526 43.9435L485.924 66.1938L488.98 51.0823L488.385 43.1373L501.866 41.9103L510.119 64.0694L513.498 40.8516L529.675 39.3792L521.919 90.0994L507.206 91.4386L498.81 69.4477L493.263 92.7076L478.626 94.0397ZM553.317 88.0184C549.876 88.3316 546.568 88.3479 543.393 88.0673C540.27 87.7821 537.591 87.2234 535.357 86.3913L534.386 73.4324C536.884 74.3441 539.598 75.029 542.528 75.4872C545.509 75.9407 548.207 76.0576 550.621 75.8379C552.675 75.6509 554.226 75.3027 555.273 74.7931C556.372 74.2789 556.88 73.4561 556.795 72.3248C556.698 71.0392 555.782 70.1907 554.045 69.7793C552.304 69.3164 549.801 68.69 546.536 67.8999C543.164 67.0677 540.48 66.0953 538.484 64.9826C536.535 63.8139 535.08 62.3412 534.119 60.5648C533.155 58.7369 532.571 56.4602 532.367 53.7347C531.604 43.5528 538.284 37.8191 552.407 36.5337C554.153 36.3748 556.011 36.3351 557.982 36.4146C560 36.438 561.922 36.5479 563.746 36.7443C565.618 36.8845 567.211 37.1019 568.526 37.3965L569.503 50.4324C566.807 49.6423 564.339 49.1421 562.1 48.9317C559.908 48.6652 557.914 48.6137 556.116 48.7773C554.319 48.9409 552.687 49.2448 551.221 49.6889C549.802 50.0769 549.137 50.8622 549.226 52.045C549.299 53.022 549.997 53.7093 551.319 54.1066C552.638 54.4526 554.843 54.8991 557.934 55.4461C562.076 56.2082 565.232 57.2671 567.402 58.6228C569.623 59.9739 571.172 61.6709 572.049 63.7139C572.974 65.7007 573.536 68.0312 573.736 70.7052C574.083 75.3334 572.565 79.2252 569.182 82.3807C565.795 85.4848 560.507 87.364 553.317 88.0184ZM579.423 84.8657L575.701 35.1902L592.263 33.6828L595.038 70.708L616.299 68.7729L617.247 81.4232L579.423 84.8657ZM620.347 81.141L616.625 31.4655L655.219 27.9529L656.138 40.2175L634.106 42.2227L634.58 48.5478L653.762 46.8021L654.704 59.3752L635.522 61.121L635.991 67.369L658.022 65.3638L658.941 77.6284L620.347 81.141ZM673.321 76.3197L670.506 38.7545L657.256 39.9604L656.349 27.8501L699.488 23.9238L700.395 36.0341L687.068 37.2471L689.883 74.8123L673.321 76.3197ZM719.135 72.1499L716.32 34.5847L703.07 35.7907L702.163 23.6803L745.301 19.754L746.209 31.8644L732.882 33.0773L735.697 70.6425L719.135 72.1499ZM752.072 69.1521L748.35 19.4766L786.944 15.964L787.863 28.2286L765.831 30.2338L766.305 36.559L785.486 34.8132L786.429 47.3863L767.247 49.1321L767.715 55.3801L789.747 53.3749L790.666 65.6395L752.072 69.1521ZM794.877 65.2563L791.155 15.5807L817.962 13.1408C822.122 12.7622 825.597 13.2485 828.387 14.5996C831.225 15.8945 833.387 17.8463 834.875 20.455C836.415 23.0589 837.316 26.1093 837.578 29.6061C837.828 32.9487 837.202 35.9827 835.7 38.7081C834.194 41.3821 832.213 43.5816 829.757 45.3066C830.791 45.9892 831.697 47.0457 832.477 48.4763L839.248 61.2178L821.993 62.7883L816.047 51.7578C815.63 51.0192 815.205 50.5143 814.771 50.2431C814.337 49.972 813.683 49.8761 812.81 49.9556L810.422 50.1729L811.439 63.7488L794.877 65.2563ZM809.463 37.3684L815.548 36.8145C819.246 36.4779 820.966 34.587 820.707 31.1416C820.445 27.6447 818.594 26.0529 815.153 26.3661L808.682 26.955L809.463 37.3684Z"/>
</mask>
<path d="M26.2379 135.99C24.081 136.187 21.9914 136.247 19.9693 136.173C17.9472 136.098 15.961 135.813 14.0107 135.317L12.9819 121.587C14.2529 121.989 15.6428 122.251 17.1514 122.372C18.7074 122.438 20.2558 122.4 21.7965 122.26C24.3643 122.026 26.1232 121.349 27.0733 120.227C28.0747 119.1 28.4848 117.328 28.3037 114.911L26.0784 85.214L42.6407 83.7066L45.1203 116.798C45.5403 122.403 44.1416 126.854 40.9243 130.149C37.7069 133.445 32.8115 135.392 26.2379 135.99ZM76.6258 131.404C71.0794 131.909 66.3168 131.488 62.3379 130.142C58.3591 128.795 55.2019 126.339 52.8664 122.772C50.5822 119.2 49.2108 114.355 48.7523 108.235C48.286 102.013 48.9137 96.9336 50.6353 92.9973C52.4082 89.0564 55.157 86.0622 58.8815 84.0146C62.606 81.9671 67.2415 80.6909 72.7879 80.1861C78.3344 79.6813 83.097 80.1021 87.0759 81.4485C91.0547 82.795 94.1862 85.254 96.4704 88.8257C98.8059 92.3927 100.207 97.2873 100.673 103.51C101.132 109.629 100.474 114.659 98.7014 118.6C96.9798 122.536 94.2568 125.528 90.5323 127.576C86.8077 129.623 82.1723 130.9 76.6258 131.404ZM75.5739 117.366C78.7579 117.076 80.9758 115.968 82.2276 114.042C83.5307 112.111 84.03 109.115 83.7256 105.052C83.4058 100.784 82.4633 97.8667 80.8982 96.3006C79.3806 94.6784 77.0297 94.0122 73.8457 94.302C70.6103 94.5965 68.3391 95.6833 67.0321 97.5626C65.7727 99.3858 65.3029 102.432 65.6227 106.7C65.9271 110.762 66.84 113.63 68.3615 115.304C69.9343 116.973 72.3385 117.66 75.5739 117.366ZM107.14 127.85L103.418 78.1749L119.98 76.6675L123.702 126.343L107.14 127.85ZM129.859 125.783L126.137 76.1072L140.08 74.8382L158.128 96.2612L156.411 73.3518L172.973 71.8444L176.696 121.52L162.598 122.803L144.711 101.443L146.421 124.275L129.859 125.783ZM223.17 118.067C217.624 118.571 212.861 118.151 208.883 116.804C204.904 115.458 201.747 113.001 199.411 109.434C197.127 105.862 195.755 101.017 195.297 94.8974C194.831 88.6751 195.458 83.5959 197.18 79.6596C198.953 75.7187 201.702 72.7245 205.426 70.6769C209.151 68.6294 213.786 67.3532 219.333 66.8484C224.879 66.3436 229.642 66.7644 233.621 68.1108C237.599 69.4572 240.731 71.9163 243.015 75.4879C245.351 79.0549 246.751 83.9496 247.218 90.1719C247.676 96.2913 247.019 101.321 245.246 105.262C243.524 109.199 240.801 112.191 237.077 114.238C233.352 116.286 228.717 117.562 223.17 118.067ZM222.119 104.028C225.303 103.738 227.52 102.63 228.772 100.704C230.075 98.7734 230.575 95.7768 230.27 91.7143C229.95 87.4461 229.008 84.529 227.443 82.9629C225.925 81.3407 223.574 80.6745 220.39 80.9643C217.155 81.2587 214.884 82.3456 213.577 84.2249C212.317 86.0481 211.848 89.0938 212.167 93.362C212.472 97.4245 213.385 100.293 214.906 101.966C216.479 103.635 218.883 104.322 222.119 104.028ZM277.469 113.125C272.847 113.545 268.655 113.15 264.893 111.939C261.131 110.729 258.086 108.728 255.757 105.937C253.479 103.141 252.176 99.5577 251.849 95.1867L249.577 64.8723L266.14 63.3649L268.267 91.7509C268.667 97.099 271.384 99.544 276.417 99.0859C281.45 98.6279 283.766 95.7248 283.365 90.3767L281.238 61.9907L297.801 60.4833L300.072 90.7977C300.4 95.1687 299.622 98.9413 297.74 102.116C295.909 105.285 293.229 107.807 289.698 109.682C286.219 111.552 282.142 112.699 277.469 113.125ZM307.323 109.631L303.6 59.9554L330.408 57.5155C334.568 57.1369 338.043 57.6231 340.833 58.9742C343.67 60.2692 345.833 62.221 347.321 64.8296C348.861 67.4336 349.761 70.4839 350.023 73.9808C350.274 77.3233 349.648 80.3573 348.146 83.0828C346.64 85.7568 344.659 87.9563 342.203 89.6813C343.237 90.3639 344.143 91.4204 344.922 92.8509L351.694 105.592L334.438 107.163L328.493 96.1325C328.076 95.3938 327.65 94.8889 327.216 94.6178C326.782 94.3466 326.129 94.2508 325.256 94.3302L322.868 94.5476L323.885 108.124L307.323 109.631ZM321.908 81.743L327.994 81.1891C331.691 80.8526 333.411 78.9616 333.153 75.5162C332.891 72.0194 331.039 70.4276 327.599 70.7407L321.128 71.3297L321.908 81.743ZM372.771 103.674L369.049 53.9986L382.992 52.7296L401.04 74.1526L399.323 51.2432L415.885 49.7358L419.608 99.4113L405.511 100.694L387.623 79.3345L389.333 102.167L372.771 103.674ZM425.807 98.8471L422.085 49.1715L460.679 45.6589L461.598 57.9235L439.566 59.9287L440.04 66.2539L459.221 64.5081L460.164 77.0813L440.982 78.827L441.45 85.0751L463.482 83.0698L464.401 95.3345L425.807 98.8471ZM478.626 94.0397L463.349 45.4159L479.526 43.9435L485.924 66.1938L488.98 51.0823L488.385 43.1373L501.866 41.9103L510.119 64.0694L513.498 40.8516L529.675 39.3792L521.919 90.0994L507.206 91.4386L498.81 69.4477L493.263 92.7076L478.626 94.0397ZM553.317 88.0184C549.876 88.3316 546.568 88.3479 543.393 88.0673C540.27 87.7821 537.591 87.2234 535.357 86.3913L534.386 73.4324C536.884 74.3441 539.598 75.029 542.528 75.4872C545.509 75.9407 548.207 76.0576 550.621 75.8379C552.675 75.6509 554.226 75.3027 555.273 74.7931C556.372 74.2789 556.88 73.4561 556.795 72.3248C556.698 71.0392 555.782 70.1907 554.045 69.7793C552.304 69.3164 549.801 68.69 546.536 67.8999C543.164 67.0677 540.48 66.0953 538.484 64.9826C536.535 63.8139 535.08 62.3412 534.119 60.5648C533.155 58.7369 532.571 56.4602 532.367 53.7347C531.604 43.5528 538.284 37.8191 552.407 36.5337C554.153 36.3748 556.011 36.3351 557.982 36.4146C560 36.438 561.922 36.5479 563.746 36.7443C565.618 36.8845 567.211 37.1019 568.526 37.3965L569.503 50.4324C566.807 49.6423 564.339 49.1421 562.1 48.9317C559.908 48.6652 557.914 48.6137 556.116 48.7773C554.319 48.9409 552.687 49.2448 551.221 49.6889C549.802 50.0769 549.137 50.8622 549.226 52.045C549.299 53.022 549.997 53.7093 551.319 54.1066C552.638 54.4526 554.843 54.8991 557.934 55.4461C562.076 56.2082 565.232 57.2671 567.402 58.6228C569.623 59.9739 571.172 61.6709 572.049 63.7139C572.974 65.7007 573.536 68.0312 573.736 70.7052C574.083 75.3334 572.565 79.2252 569.182 82.3807C565.795 85.4848 560.507 87.364 553.317 88.0184ZM579.423 84.8657L575.701 35.1902L592.263 33.6828L595.038 70.708L616.299 68.7729L617.247 81.4232L579.423 84.8657ZM620.347 81.141L616.625 31.4655L655.219 27.9529L656.138 40.2175L634.106 42.2227L634.58 48.5478L653.762 46.8021L654.704 59.3752L635.522 61.121L635.991 67.369L658.022 65.3638L658.941 77.6284L620.347 81.141ZM673.321 76.3197L670.506 38.7545L657.256 39.9604L656.349 27.8501L699.488 23.9238L700.395 36.0341L687.068 37.2471L689.883 74.8123L673.321 76.3197ZM719.135 72.1499L716.32 34.5847L703.07 35.7907L702.163 23.6803L745.301 19.754L746.209 31.8644L732.882 33.0773L735.697 70.6425L719.135 72.1499ZM752.072 69.1521L748.35 19.4766L786.944 15.964L787.863 28.2286L765.831 30.2338L766.305 36.559L785.486 34.8132L786.429 47.3863L767.247 49.1321L767.715 55.3801L789.747 53.3749L790.666 65.6395L752.072 69.1521ZM794.877 65.2563L791.155 15.5807L817.962 13.1408C822.122 12.7622 825.597 13.2485 828.387 14.5996C831.225 15.8945 833.387 17.8463 834.875 20.455C836.415 23.0589 837.316 26.1093 837.578 29.6061C837.828 32.9487 837.202 35.9827 835.7 38.7081C834.194 41.3821 832.213 43.5816 829.757 45.3066C830.791 45.9892 831.697 47.0457 832.477 48.4763L839.248 61.2178L821.993 62.7883L816.047 51.7578C815.63 51.0192 815.205 50.5143 814.771 50.2431C814.337 49.972 813.683 49.8761 812.81 49.9556L810.422 50.1729L811.439 63.7488L794.877 65.2563ZM809.463 37.3684L815.548 36.8145C819.246 36.4779 820.966 34.587 820.707 31.1416C820.445 27.6447 818.594 26.0529 815.153 26.3661L808.682 26.955L809.463 37.3684Z" fill="#8A00DA"/>
<path d="M19.9693 136.173L20.6521 123.164L19.9693 136.173ZM14.0107 135.317L1.06421 136.495C1.47657 141.998 5.31382 146.586 10.6356 147.938L14.0107 135.317ZM12.9819 121.587L17.0646 109.167C12.944 107.864 8.41375 108.722 4.99221 111.454C1.57067 114.186 -0.289401 118.431 0.0353865 122.765L12.9819 121.587ZM17.1514 122.372L15.9089 135.348C16.0734 135.361 16.2382 135.371 16.4032 135.378L17.1514 122.372ZM27.0733 120.227L17.4412 111.652C17.3705 111.731 17.3007 111.812 17.2318 111.893L27.0733 120.227ZM26.0784 85.214L25.1071 72.2503C17.9569 72.9011 12.5955 79.2327 13.132 86.3923L26.0784 85.214ZM42.6407 83.7066L55.5872 82.5283C55.0507 75.3686 48.8195 70.0921 41.6693 70.7429L42.6407 83.7066ZM40.9243 130.149L50.1322 139.179L40.9243 130.149ZM26.2379 135.99L25.2665 123.027C23.6231 123.176 22.0872 123.217 20.6521 123.164L19.9693 136.173L19.2865 149.181C21.8957 149.277 24.5389 149.197 27.2093 148.954L26.2379 135.99ZM19.9693 136.173L20.6521 123.164C19.5376 123.123 18.4539 122.967 17.3858 122.696L14.0107 135.317L10.6356 147.938C13.4681 148.658 16.3567 149.072 19.2865 149.181L19.9693 136.173ZM14.0107 135.317L26.9572 134.139L25.9284 120.409L12.9819 121.587L0.0353865 122.765L1.06421 136.495L14.0107 135.317ZM12.9819 121.587L8.89912 134.006C11.2031 134.735 13.5585 135.158 15.9089 135.348L17.1514 122.372L18.3938 109.397C17.727 109.343 17.3028 109.243 17.0646 109.167L12.9819 121.587ZM17.1514 122.372L16.4032 135.378C18.5271 135.467 20.6499 135.417 22.7679 135.224L21.7965 122.26L20.8251 109.296C19.8617 109.384 18.8878 109.408 17.8996 109.367L17.1514 122.372ZM21.7965 122.26L22.7679 135.224C26.3417 134.899 32.5168 133.754 36.9147 128.56L27.0733 120.227L17.2318 111.893C18.5511 110.335 19.9396 109.671 20.5509 109.435C21.1363 109.21 21.3205 109.251 20.8251 109.296L21.7965 122.26ZM27.0733 120.227L36.7053 128.801C41.2137 123.729 41.5381 117.574 41.2502 113.733L28.3037 114.911L15.3572 116.09C15.3804 116.399 15.3122 116.057 15.4875 115.3C15.6773 114.48 16.1845 113.066 17.4412 111.652L27.0733 120.227ZM28.3037 114.911L41.2502 113.733L39.0249 84.0357L26.0784 85.214L13.132 86.3923L15.3572 116.09L28.3037 114.911ZM26.0784 85.214L27.0498 98.1776L43.6121 96.6702L42.6407 83.7066L41.6693 70.7429L25.1071 72.2503L26.0784 85.214ZM42.6407 83.7066L29.6942 84.8849L32.1738 117.976L45.1203 116.798L58.0668 115.62L55.5872 82.5283L42.6407 83.7066ZM45.1203 116.798L32.1738 117.976C32.2854 119.466 32.1149 120.27 32.0091 120.606C31.9242 120.876 31.8438 120.989 31.7164 121.119L40.9243 130.149L50.1322 139.179C56.6049 132.549 58.6982 124.046 58.0668 115.62L45.1203 116.798ZM40.9243 130.149L31.7164 121.119C31.4998 121.341 30.0863 122.588 25.2665 123.027L26.2379 135.99L27.2093 148.954C35.5366 148.196 43.9141 145.549 50.1322 139.179L40.9243 130.149ZM62.3379 130.142L66.6628 117.802L62.3379 130.142ZM52.8664 122.772L41.9051 129.92C41.9296 129.958 41.9544 129.996 41.9794 130.035L52.8664 122.772ZM50.6353 92.9973L38.8148 87.8012C38.7958 87.8434 38.7771 87.8856 38.7585 87.928L50.6353 92.9973ZM58.8815 84.0146L52.7783 72.6234L52.7783 72.6234L58.8815 84.0146ZM87.0759 81.4485L91.4008 69.1082L91.4008 69.1082L87.0759 81.4485ZM96.4704 88.8257L85.5091 95.9737C85.5337 96.0121 85.5584 96.0504 85.5834 96.0885L96.4704 88.8257ZM98.7014 118.6L86.8809 113.404C86.8619 113.446 86.8432 113.488 86.8247 113.531L98.7014 118.6ZM90.5323 127.576L84.4291 116.185L90.5323 127.576ZM82.2276 114.042L71.5113 106.864C71.4681 106.928 71.4255 106.992 71.3835 107.057L82.2276 114.042ZM80.8982 96.3006L71.3637 105.285C71.4591 105.387 71.5562 105.488 71.6549 105.586L80.8982 96.3006ZM67.0321 97.5626L56.4208 90.2311C56.4129 90.2426 56.4049 90.254 56.397 90.2655L67.0321 97.5626ZM68.3615 115.304L58.704 124.155C58.7551 124.211 58.8067 124.267 58.8588 124.322L68.3615 115.304ZM76.6258 131.404L75.6544 118.441C71.3596 118.832 68.4962 118.422 66.6628 117.802L62.3379 130.142L58.013 142.482C64.1373 144.555 70.7991 144.987 77.5972 144.368L76.6258 131.404ZM62.3379 130.142L66.6628 117.802C65.4269 117.383 64.5573 116.737 63.7533 115.509L52.8664 122.772L41.9794 130.035C45.8465 135.941 51.2912 140.208 58.013 142.482L62.3379 130.142ZM52.8664 122.772L63.8277 115.624C63.0782 114.452 62.063 111.918 61.6988 107.057L48.7523 108.235L35.8058 109.413C36.3587 116.792 38.0862 123.948 41.9051 129.92L52.8664 122.772ZM48.7523 108.235L61.6988 107.057C61.3237 102.051 61.959 99.3313 62.5121 98.0667L50.6353 92.9973L38.7585 87.928C35.8684 94.5359 35.2484 101.975 35.8058 109.413L48.7523 108.235ZM50.6353 92.9973L62.4558 98.1935C63.0662 96.8368 63.8278 96.0419 64.9847 95.4059L58.8815 84.0146L52.7783 72.6234C46.4862 76.0825 41.7503 81.276 38.8148 87.8012L50.6353 92.9973ZM58.8815 84.0146L64.9847 95.4059C66.7009 94.4624 69.4645 93.5407 73.7593 93.1498L72.7879 80.1861L71.8166 67.2225C65.0185 67.8412 58.5112 69.4717 52.7783 72.6234L58.8815 84.0146ZM72.7879 80.1861L73.7593 93.1498C78.0541 92.7589 80.9176 93.1685 82.7509 93.7889L87.0759 81.4485L91.4008 69.1082C85.2765 67.0357 78.6146 66.6037 71.8166 67.2225L72.7879 80.1861ZM87.0759 81.4485L82.7509 93.7889C83.9586 94.1976 84.7659 94.8116 85.5091 95.9737L96.4704 88.8257L107.432 81.6777C103.607 75.6964 98.1509 71.3924 91.4008 69.1082L87.0759 81.4485ZM96.4704 88.8257L85.5834 96.0885C86.3131 97.203 87.3544 99.7216 87.7266 104.688L100.673 103.51L113.62 102.331C113.059 94.853 111.299 87.5823 107.357 81.5628L96.4704 88.8257ZM100.673 103.51L87.7266 104.688C88.0877 109.508 87.4473 112.145 86.8809 113.404L98.7014 118.6L110.522 123.796C113.501 117.173 114.175 109.75 113.62 102.331L100.673 103.51ZM98.7014 118.6L86.8247 113.531C86.2645 114.811 85.5595 115.563 84.4291 116.185L90.5323 127.576L96.6354 138.967C102.954 135.493 107.695 130.261 110.578 123.67L98.7014 118.6ZM90.5323 127.576L84.4291 116.185C82.7129 117.128 79.9492 118.05 75.6544 118.441L76.6258 131.404L77.5972 144.368C84.3953 143.749 90.9026 142.119 96.6354 138.967L90.5323 127.576ZM75.5739 117.366L76.5453 130.329C82.0316 129.83 88.8093 127.586 93.0717 121.027L82.2276 114.042L71.3835 107.057C72.1531 105.872 73.1573 105.097 73.9832 104.684C74.7022 104.325 75.0306 104.363 74.6025 104.402L75.5739 117.366ZM82.2276 114.042L92.9439 121.22C96.7719 115.548 97.0466 108.872 96.6721 103.874L83.7256 105.052L70.7791 106.23C70.827 106.869 70.8357 107.369 70.8253 107.744C70.8149 108.121 70.7863 108.33 70.7749 108.399C70.7633 108.468 70.7774 108.345 70.8735 108.082C70.9714 107.815 71.1629 107.38 71.5113 106.864L82.2276 114.042ZM83.7256 105.052L96.6721 103.874C96.3051 98.9764 95.1197 91.9962 90.1415 87.0149L80.8982 96.3006L71.6549 105.586C71.1027 105.034 70.7773 104.534 70.6075 104.231C70.4405 103.932 70.3984 103.778 70.4218 103.85C70.4442 103.92 70.5088 104.142 70.5818 104.558C70.6543 104.97 70.726 105.521 70.7791 106.23L83.7256 105.052ZM80.8982 96.3006L90.4326 87.316C85.2178 81.7418 78.2388 80.8501 72.8743 81.3383L73.8457 94.302L74.8171 107.266C75.2819 107.223 75.0071 107.32 74.2841 107.115C73.4521 106.879 72.3361 106.325 71.3637 105.285L80.8982 96.3006ZM73.8457 94.302L72.8743 81.3383C67.5003 81.8274 60.8002 83.9339 56.4208 90.2311L67.0321 97.5626L77.6434 104.894C76.8499 106.035 75.8747 106.726 75.1569 107.069C74.5348 107.367 74.3102 107.312 74.8171 107.266L73.8457 94.302ZM67.0321 97.5626L56.397 90.2655C52.4098 96.0374 52.3139 103.043 52.6762 107.878L65.6227 106.7L78.5692 105.521C78.515 104.799 78.502 104.227 78.511 103.79C78.52 103.35 78.5504 103.099 78.5648 103.005C78.5798 102.908 78.5674 103.047 78.4585 103.354C78.3483 103.664 78.1163 104.21 77.6673 104.86L67.0321 97.5626ZM65.6227 106.7L52.6762 107.878C53.0457 112.809 54.2585 119.265 58.704 124.155L68.3615 115.304L78.019 106.453C78.4286 106.903 78.6688 107.293 78.7923 107.523C78.9138 107.75 78.9374 107.85 78.9098 107.763C78.8826 107.678 78.8205 107.457 78.7523 107.07C78.6846 106.684 78.6181 106.174 78.5692 105.521L65.6227 106.7ZM68.3615 115.304L58.8588 124.322C64.0869 129.87 71.0539 130.829 76.5453 130.329L75.5739 117.366L74.6025 104.402C74.1317 104.445 74.3876 104.349 75.0851 104.548C75.8884 104.778 76.946 105.311 77.8642 106.285L68.3615 115.304ZM107.14 127.85L94.1937 129.029C94.7302 136.188 100.961 141.465 108.112 140.814L107.14 127.85ZM103.418 78.1749L102.447 65.2113C95.2964 65.8621 89.9349 72.1936 90.4714 79.3533L103.418 78.1749ZM119.98 76.6675L132.927 75.4892C132.39 68.3296 126.159 63.0531 119.009 63.7039L119.98 76.6675ZM123.702 126.343L124.674 139.307C131.824 138.656 137.185 132.324 136.649 125.165L123.702 126.343ZM107.14 127.85L120.087 126.672L116.364 76.9966L103.418 78.1749L90.4714 79.3533L94.1937 129.029L107.14 127.85ZM103.418 78.1749L104.389 91.1386L120.952 89.6312L119.98 76.6675L119.009 63.7039L102.447 65.2113L103.418 78.1749ZM119.98 76.6675L107.034 77.8459L110.756 127.521L123.702 126.343L136.649 125.165L132.927 75.4892L119.98 76.6675ZM123.702 126.343L122.731 113.379L106.169 114.887L107.14 127.85L108.112 140.814L124.674 139.307L123.702 126.343ZM129.859 125.783L116.913 126.961C117.449 134.121 123.68 139.397 130.831 138.746L129.859 125.783ZM126.137 76.1072L125.165 63.1435C118.015 63.7943 112.654 70.1259 113.19 77.2855L126.137 76.1072ZM140.08 74.8382L150.053 66.3475C147.368 63.1599 143.291 61.4938 139.109 61.8745L140.08 74.8382ZM158.128 96.2612L148.155 104.752C151.769 109.042 157.77 110.455 163.002 108.248C168.234 106.041 171.497 100.719 171.074 95.0828L158.128 96.2612ZM156.411 73.3518L155.44 60.3881C148.29 61.0389 142.928 67.3705 143.465 74.5301L156.411 73.3518ZM172.973 71.8444L185.92 70.6661C185.383 63.5064 179.152 58.2299 172.002 58.8807L172.973 71.8444ZM176.696 121.52L177.667 134.484C184.817 133.833 190.179 127.501 189.642 120.342L176.696 121.52ZM162.598 122.803L152.601 131.265C155.286 134.471 159.374 136.148 163.57 135.767L162.598 122.803ZM144.711 101.443L154.707 92.9809C151.102 88.6752 145.095 87.2471 139.854 89.4493C134.613 91.6516 131.341 96.9783 131.764 102.621L144.711 101.443ZM146.421 124.275L147.393 137.239C154.543 136.588 159.904 130.257 159.368 123.097L146.421 124.275ZM129.859 125.783L142.806 124.604L139.083 74.9289L126.137 76.1072L113.19 77.2855L116.913 126.961L129.859 125.783ZM126.137 76.1072L127.108 89.0708L141.051 87.8018L140.08 74.8382L139.109 61.8745L125.165 63.1435L126.137 76.1072ZM140.08 74.8382L130.107 83.3288L148.155 104.752L158.128 96.2612L168.101 87.7705L150.053 66.3475L140.08 74.8382ZM158.128 96.2612L171.074 95.0828L169.358 72.1735L156.411 73.3518L143.465 74.5301L145.181 97.4395L158.128 96.2612ZM156.411 73.3518L157.382 86.3154L173.945 84.808L172.973 71.8444L172.002 58.8807L155.44 60.3881L156.411 73.3518ZM172.973 71.8444L160.027 73.0227L163.749 122.698L176.696 121.52L189.642 120.342L185.92 70.6661L172.973 71.8444ZM176.696 121.52L175.724 108.556L161.627 109.839L162.598 122.803L163.57 135.767L177.667 134.484L176.696 121.52ZM162.598 122.803L172.595 114.341L154.707 92.9809L144.711 101.443L134.714 109.905L152.601 131.265L162.598 122.803ZM144.711 101.443L131.764 102.621L133.475 125.454L146.421 124.275L159.368 123.097L157.657 100.265L144.711 101.443ZM146.421 124.275L145.45 111.312L128.888 112.819L129.859 125.783L130.831 138.746L147.393 137.239L146.421 124.275ZM208.883 116.804L213.207 104.464L208.883 116.804ZM199.411 109.434L188.45 116.582C188.474 116.62 188.499 116.659 188.524 116.697L199.411 109.434ZM197.18 79.6596L185.359 74.4635C185.34 74.5056 185.322 74.5479 185.303 74.5902L197.18 79.6596ZM205.426 70.6769L199.323 59.2856L199.323 59.2856L205.426 70.6769ZM233.62 68.1108L237.945 55.7704L237.945 55.7704L233.62 68.1108ZM243.015 75.4879L232.054 82.6359C232.078 82.6743 232.103 82.7126 232.128 82.7508L243.015 75.4879ZM245.246 105.262L233.426 100.066C233.407 100.108 233.388 100.151 233.369 100.193L245.246 105.262ZM237.077 114.238L230.974 102.847L237.077 114.238ZM228.772 100.704L218.056 93.5259C218.013 93.5899 217.97 93.6542 217.928 93.7189L228.772 100.704ZM227.443 82.9629L217.908 91.9475C218.004 92.0494 218.101 92.1498 218.199 92.2486L227.443 82.9629ZM213.577 84.2249L202.965 76.8934C202.958 76.9048 202.95 76.9163 202.942 76.9278L213.577 84.2249ZM214.906 101.966L205.249 110.817C205.3 110.874 205.351 110.929 205.403 110.985L214.906 101.966ZM223.17 118.067L222.199 105.103C217.904 105.494 215.041 105.084 213.207 104.464L208.883 116.804L204.558 129.145C210.682 131.217 217.344 131.649 224.142 131.03L223.17 118.067ZM208.883 116.804L213.207 104.464C211.972 104.046 211.102 103.399 210.298 102.171L199.411 109.434L188.524 116.697C192.391 122.603 197.836 126.87 204.558 129.145L208.883 116.804ZM199.411 109.434L210.372 102.286C209.623 101.114 208.608 98.5798 208.243 93.7191L195.297 94.8974L182.35 96.0757C182.903 103.454 184.631 110.611 188.45 116.582L199.411 109.434ZM195.297 94.8974L208.243 93.7191C207.868 88.7131 208.504 85.9935 209.057 84.729L197.18 79.6596L185.303 74.5902C182.413 81.1982 181.793 88.6371 182.35 96.0757L195.297 94.8974ZM197.18 79.6596L209 84.8557C209.611 83.4991 210.372 82.7042 211.529 82.0682L205.426 70.6769L199.323 59.2856C193.031 62.7447 188.295 67.9383 185.359 74.4635L197.18 79.6596ZM205.426 70.6769L211.529 82.0682C213.246 81.1247 216.009 80.2029 220.304 79.812L219.333 66.8484L218.361 53.8847C211.563 54.5034 205.056 56.134 199.323 59.2856L205.426 70.6769ZM219.333 66.8484L220.304 79.812C224.599 79.4211 227.462 79.8308 229.296 80.4512L233.62 68.1108L237.945 55.7704C231.821 53.698 225.159 53.266 218.361 53.8847L219.333 66.8484ZM233.62 68.1108L229.296 80.4512C230.503 80.8599 231.311 81.4739 232.054 82.6359L243.015 75.4879L253.976 68.34C250.151 62.3587 244.695 58.0546 237.945 55.7704L233.62 68.1108ZM243.015 75.4879L232.128 82.7508C232.858 83.8653 233.899 86.3839 234.271 91.3502L247.218 90.1719L260.164 88.9935C259.604 81.5153 257.843 74.2446 253.902 68.2251L243.015 75.4879ZM247.218 90.1719L234.271 91.3502C234.632 96.1703 233.992 98.8073 233.426 100.066L245.246 105.262L257.067 110.459C260.046 103.836 260.72 96.4123 260.164 88.9935L247.218 90.1719ZM245.246 105.262L233.369 100.193C232.809 101.474 232.104 102.225 230.974 102.847L237.077 114.238L243.18 125.629C249.499 122.156 254.24 116.924 257.123 110.332L245.246 105.262ZM237.077 114.238L230.974 102.847C229.258 103.79 226.494 104.712 222.199 105.103L223.17 118.067L224.142 131.03C230.94 130.412 237.447 128.781 243.18 125.629L237.077 114.238ZM222.119 104.028L223.09 116.992C228.576 116.492 235.354 114.248 239.616 107.689L228.772 100.704L217.928 93.7189C218.698 92.5347 219.702 91.7591 220.528 91.3465C221.247 90.9874 221.575 91.0253 221.147 91.0642L222.119 104.028ZM228.772 100.704L239.489 107.882C243.317 102.211 243.591 95.5338 243.217 90.536L230.27 91.7143L217.324 92.8926C217.372 93.5314 217.38 94.0309 217.37 94.406C217.36 94.7834 217.331 94.9922 217.32 95.0608C217.308 95.1303 217.322 95.0071 217.418 94.7444C217.516 94.4768 217.708 94.0421 218.056 93.5259L228.772 100.704ZM230.27 91.7143L243.217 90.536C242.85 85.6387 241.664 78.6585 236.686 73.6772L227.443 82.9629L218.199 92.2486C217.647 91.696 217.322 91.1967 217.152 90.8932C216.985 90.5946 216.943 90.4403 216.966 90.5126C216.989 90.5819 217.053 90.8042 217.126 91.2199C217.199 91.6322 217.271 92.183 217.324 92.8926L230.27 91.7143ZM227.443 82.9629L236.977 73.9783C231.762 68.404 224.783 67.5123 219.419 68.0006L220.39 80.9643L221.362 93.9279C221.827 93.8856 221.552 93.982 220.829 93.7771C219.997 93.5413 218.881 92.9869 217.908 91.9475L227.443 82.9629ZM220.39 80.9643L219.419 68.0006C214.045 68.4897 207.345 70.5962 202.965 76.8934L213.577 84.2249L224.188 91.5564C223.395 92.6974 222.419 93.3881 221.702 93.7316C221.079 94.0293 220.855 93.974 221.362 93.9279L220.39 80.9643ZM213.577 84.2249L202.942 76.9278C198.954 82.6996 198.859 89.7053 199.221 94.5403L212.167 93.362L225.114 92.1836C225.06 91.4611 225.047 90.8895 225.056 90.4526C225.065 90.012 225.095 89.7613 225.109 89.6678C225.124 89.5705 225.112 89.7095 225.003 90.0161C224.893 90.3266 224.661 90.8719 224.212 91.522L213.577 84.2249ZM212.167 93.362L199.221 94.5403C199.59 99.4713 200.803 105.927 205.249 110.817L214.906 101.966L224.564 93.1149C224.973 93.5655 225.213 93.955 225.337 94.1854C225.458 94.412 225.482 94.5125 225.454 94.4256C225.427 94.3401 225.365 94.1198 225.297 93.7318C225.229 93.3461 225.163 92.8359 225.114 92.1836L212.167 93.362ZM214.906 101.966L205.403 110.985C210.632 116.532 217.599 117.491 223.09 116.992L222.119 104.028L221.147 91.0642C220.676 91.1071 220.932 91.0114 221.63 91.2107C222.433 91.4404 223.491 91.9734 224.409 92.9477L214.906 101.966ZM264.893 111.939L260.749 124.339L264.893 111.939ZM255.757 105.937L245.651 114.267C245.682 114.305 245.714 114.344 245.746 114.382L255.757 105.937ZM249.577 64.8723L248.606 51.9086C241.456 52.5594 236.094 58.891 236.631 66.0506L249.577 64.8723ZM266.14 63.3649L279.086 62.1865C278.55 55.0269 272.318 49.7504 265.168 50.4012L266.14 63.3649ZM281.238 61.9907L280.267 49.027C273.117 49.6778 267.755 56.0094 268.292 63.169L281.238 61.9907ZM297.8 60.4833L310.747 59.3049C310.21 52.1453 303.979 46.8688 296.829 47.5196L297.8 60.4833ZM297.74 102.116L286.608 95.5947C286.582 95.6382 286.556 95.6819 286.531 95.7257L297.74 102.116ZM289.698 109.682L283.764 98.199C283.745 98.2094 283.725 98.2199 283.705 98.2305L289.698 109.682ZM277.469 113.125L276.498 100.161C273.32 100.45 270.902 100.14 269.037 99.5393L264.893 111.939L260.749 124.339C266.408 126.161 272.374 126.64 278.44 126.088L277.469 113.125ZM264.893 111.939L269.037 99.5393C267.366 99.0015 266.425 98.2789 265.768 97.4914L255.757 105.937L245.746 114.382C249.747 119.176 254.896 122.456 260.749 124.339L264.893 111.939ZM255.757 105.937L265.863 97.6068C265.554 97.2274 264.967 96.3023 264.795 94.0084L251.849 95.1867L238.902 96.365C239.386 102.813 241.404 109.055 245.651 114.267L255.757 105.937ZM251.849 95.1867L264.795 94.0084L262.524 63.694L249.577 64.8723L236.631 66.0506L238.902 96.365L251.849 95.1867ZM249.577 64.8723L250.549 77.8359L267.111 76.3285L266.14 63.3649L265.168 50.4012L248.606 51.9086L249.577 64.8723ZM266.14 63.3649L253.193 64.5432L255.32 92.9292L268.267 91.7509L281.213 90.5726L279.086 62.1865L266.14 63.3649ZM268.267 91.7509L255.32 92.9292C255.656 97.4159 257.13 103.097 261.849 107.344C266.714 111.723 272.673 112.479 277.388 112.05L276.417 99.0859L275.446 86.1223C275.128 86.1512 277.212 85.9139 279.361 87.8476C281.363 89.6491 281.278 91.4339 281.213 90.5726L268.267 91.7509ZM276.417 99.0859L277.388 112.05C282.104 111.62 287.869 109.797 292.017 104.598C296.04 99.5559 296.648 93.6851 296.312 89.1984L283.365 90.3767L270.419 91.555C270.483 92.4164 270.134 90.6711 271.84 88.5321C273.672 86.2361 275.763 86.0933 275.446 86.1223L276.417 99.0859ZM283.365 90.3767L296.312 89.1984L294.185 60.8123L281.238 61.9907L268.292 63.169L270.419 91.555L283.365 90.3767ZM281.238 61.9907L282.21 74.9543L298.772 73.4469L297.8 60.4833L296.829 47.5196L280.267 49.027L281.238 61.9907ZM297.8 60.4833L284.854 61.6616L287.126 91.976L300.072 90.7977L313.018 89.6194L310.747 59.3049L297.8 60.4833ZM300.072 90.7977L287.126 91.976C287.293 94.2058 286.855 95.1779 286.608 95.5947L297.74 102.116L308.873 108.636C312.39 102.705 313.506 96.1316 313.018 89.6194L300.072 90.7977ZM297.74 102.116L286.531 95.7257C286.064 96.5349 285.311 97.3776 283.764 98.199L289.698 109.682L295.632 121.165C301.146 118.237 305.755 114.035 308.949 108.505L297.74 102.116ZM289.698 109.682L283.705 98.2305C282.059 99.1154 279.753 99.8647 276.498 100.161L277.469 113.125L278.44 126.088C284.532 125.534 290.379 123.988 295.691 121.133L289.698 109.682ZM307.323 109.631L294.376 110.809C294.913 117.969 301.144 123.245 308.294 122.595L307.323 109.631ZM303.6 59.9554L302.629 46.9917C295.479 47.6425 290.117 53.9741 290.654 61.1337L303.6 59.9554ZM340.833 58.9742L335.038 70.7127C335.125 70.7549 335.213 70.7961 335.301 70.8364L340.833 58.9742ZM347.321 64.8296L336.026 71.4259C336.059 71.4832 336.092 71.5402 336.126 71.597L347.321 64.8296ZM348.146 83.0828L359.427 89.3469C359.447 89.3115 359.467 89.2759 359.486 89.2403L348.146 83.0828ZM342.203 89.6813L334.867 79.0585C331.32 81.5502 329.205 85.6221 329.22 89.9324C329.235 94.2427 331.378 98.2323 334.943 100.586L342.203 89.6813ZM344.922 92.8509L356.401 86.5892C356.381 86.5503 356.36 86.5115 356.339 86.4728L344.922 92.8509ZM351.694 105.592L352.665 118.556C357.032 118.159 360.939 115.584 363.057 111.709C365.175 107.834 365.219 103.18 363.173 99.3308L351.694 105.592ZM334.438 107.163L322.995 113.491C325.421 117.991 330.288 120.593 335.41 120.127L334.438 107.163ZM328.493 96.1325L339.937 89.8048C339.897 89.7303 339.856 89.6562 339.814 89.5825L328.493 96.1325ZM327.216 94.6178L334.207 83.5399L334.207 83.5399L327.216 94.6178ZM322.868 94.5476L321.896 81.5839C314.746 82.2347 309.385 88.5663 309.921 95.7259L322.868 94.5476ZM323.885 108.124L324.856 121.087C332.006 120.436 337.368 114.105 336.831 106.945L323.885 108.124ZM321.908 81.743L308.962 82.9213C309.498 90.081 315.729 95.3575 322.879 94.7067L321.908 81.743ZM321.128 71.3297L320.156 58.366C313.006 59.0168 307.645 65.3484 308.181 72.508L321.128 71.3297ZM307.323 109.631L320.269 108.453L316.547 58.7771L303.6 59.9554L290.654 61.1337L294.376 110.809L307.323 109.631ZM303.6 59.9554L304.572 72.919L331.379 70.4791L330.408 57.5155L329.437 44.5518L302.629 46.9917L303.6 59.9554ZM330.408 57.5155L331.379 70.4791C333.969 70.2434 334.935 70.6631 335.038 70.7127L340.833 58.9742L346.628 47.2357C341.15 44.5831 335.167 44.0303 329.437 44.5518L330.408 57.5155ZM340.833 58.9742L335.301 70.8364C335.813 71.0701 335.915 71.231 336.026 71.4259L347.321 64.8296L358.616 58.2334C355.751 53.211 351.528 49.4683 346.365 47.1121L340.833 58.9742ZM347.321 64.8296L336.126 71.597C336.519 72.2627 336.941 73.3408 337.077 75.1591L350.023 73.9808L362.97 72.8025C362.582 67.6271 361.202 62.6045 358.516 58.0622L347.321 64.8296ZM350.023 73.9808L337.077 75.1591C337.154 76.1881 336.964 76.6374 336.806 76.9253L348.146 83.0828L359.486 89.2403C362.332 84.0773 363.394 78.4585 362.97 72.8025L350.023 73.9808ZM348.146 83.0828L336.865 76.8186C336.31 77.8035 335.664 78.4989 334.867 79.0585L342.203 89.6813L349.539 100.304C353.654 97.4137 356.97 93.7101 359.427 89.3469L348.146 83.0828ZM342.203 89.6813L334.943 100.586C333.785 99.8218 333.422 99.0755 333.506 99.229L344.922 92.8509L356.339 86.4728C354.864 83.7653 352.688 80.9059 349.463 78.7762L342.203 89.6813ZM344.922 92.8509L333.443 99.1126L340.215 111.854L351.694 105.592L363.173 99.3308L356.401 86.5892L344.922 92.8509ZM351.694 105.592L350.723 92.6288L333.467 94.1993L334.438 107.163L335.41 120.127L352.665 118.556L351.694 105.592ZM334.438 107.163L345.882 100.835L339.937 89.8048L328.493 96.1325L317.049 102.46L322.995 113.491L334.438 107.163ZM328.493 96.1325L339.814 89.5825C338.957 88.0659 337.252 85.4427 334.207 83.5399L327.216 94.6178L320.225 105.696C319.049 104.961 318.296 104.175 317.89 103.694C317.475 103.201 317.249 102.82 317.172 102.682L328.493 96.1325ZM327.216 94.6178L334.207 83.5399C330.253 81.0696 326.189 81.1932 324.284 81.3666L325.256 94.3302L326.227 107.294C325.951 107.319 325.267 107.362 324.324 107.223C323.381 107.085 321.862 106.718 320.225 105.696L327.216 94.6178ZM325.256 94.3302L324.284 81.3666L321.896 81.5839L322.868 94.5476L323.839 107.511L326.227 107.294L325.256 94.3302ZM322.868 94.5476L309.921 95.7259L310.938 109.302L323.885 108.124L336.831 106.945L335.814 93.3693L322.868 94.5476ZM323.885 108.124L322.913 95.1598L306.351 96.6673L307.323 109.631L308.294 122.595L324.856 121.087L323.885 108.124ZM321.908 81.743L322.879 94.7067L328.965 94.1528L327.994 81.1891L327.022 68.2255L320.937 68.7794L321.908 81.743ZM327.994 81.1891L328.965 94.1528C332.587 93.8231 337.654 92.5316 341.587 88.2061C345.685 83.7009 346.397 78.3076 346.099 74.3379L333.153 75.5162L320.206 76.6945C320.167 76.1702 320.149 73.4451 322.526 70.8309C323.605 69.6445 324.768 68.9684 325.633 68.6127C326.448 68.2776 326.984 68.229 327.022 68.2255L327.994 81.1891ZM333.153 75.5162L346.099 74.3379C345.822 70.6391 344.523 65.5575 340.108 61.7618C335.656 57.9339 330.392 57.4344 326.627 57.7771L327.599 70.7407L328.57 83.7044C328.246 83.7339 325.628 83.8737 323.028 81.6376C320.464 79.4338 320.222 76.8965 320.206 76.6945L333.153 75.5162ZM327.599 70.7407L326.627 57.7771L320.156 58.366L321.128 71.3297L322.099 84.2933L328.57 83.7044L327.599 70.7407ZM321.128 71.3297L308.181 72.508L308.962 82.9213L321.908 81.743L334.855 80.5647L334.074 70.1514L321.128 71.3297ZM372.771 103.674L359.825 104.852C360.361 112.012 366.592 117.289 373.743 116.638L372.771 103.674ZM369.049 53.9986L368.078 41.0349C360.927 41.6857 355.566 48.0173 356.102 55.1769L369.049 53.9986ZM382.992 52.7296L392.965 44.2389C390.28 41.0513 386.203 39.3852 382.021 39.7659L382.992 52.7296ZM401.04 74.1526L391.067 82.6432C394.681 86.933 400.682 88.3461 405.914 86.139C411.146 83.9319 414.409 78.6105 413.986 72.9742L401.04 74.1526ZM399.323 51.2432L398.352 38.2795C391.202 38.9303 385.84 45.2619 386.377 52.4215L399.323 51.2432ZM415.885 49.7358L428.832 48.5575C428.295 41.3978 422.064 36.1214 414.914 36.7721L415.885 49.7358ZM419.608 99.4113L420.579 112.375C427.729 111.724 433.091 105.393 432.554 98.233L419.608 99.4113ZM405.511 100.694L395.514 109.157C398.198 112.362 402.286 114.04 406.482 113.658L405.511 100.694ZM387.623 79.3345L397.62 70.8723C394.014 66.5666 388.007 65.1385 382.766 67.3407C377.525 69.543 374.253 74.8697 374.676 80.5128L387.623 79.3345ZM389.333 102.167L390.305 115.13C397.455 114.48 402.816 108.148 402.28 100.988L389.333 102.167ZM372.771 103.674L385.718 102.496L381.995 52.8203L369.049 53.9986L356.102 55.1769L359.825 104.852L372.771 103.674ZM369.049 53.9986L370.02 66.9623L383.963 65.6932L382.992 52.7296L382.021 39.7659L368.078 41.0349L369.049 53.9986ZM382.992 52.7296L373.019 61.2202L391.067 82.6432L401.04 74.1526L411.013 65.6619L392.965 44.2389L382.992 52.7296ZM401.04 74.1526L413.986 72.9742L412.27 50.0649L399.323 51.2432L386.377 52.4215L388.093 75.3309L401.04 74.1526ZM399.323 51.2432L400.295 64.2069L416.857 62.6994L415.885 49.7358L414.914 36.7721L398.352 38.2795L399.323 51.2432ZM415.885 49.7358L402.939 50.9141L406.661 100.59L419.608 99.4113L432.554 98.233L428.832 48.5575L415.885 49.7358ZM419.608 99.4113L418.636 86.4477L404.539 87.7307L405.511 100.694L406.482 113.658L420.579 112.375L419.608 99.4113ZM405.511 100.694L415.507 92.2322L397.62 70.8723L387.623 79.3345L377.626 87.7967L395.514 109.157L405.511 100.694ZM387.623 79.3345L374.676 80.5128L376.387 103.345L389.333 102.167L402.28 100.988L400.569 78.1562L387.623 79.3345ZM389.333 102.167L388.362 89.2031L371.8 90.7105L372.771 103.674L373.743 116.638L390.305 115.13L389.333 102.167ZM425.807 98.8471L412.861 100.025C413.397 107.185 419.628 112.462 426.778 111.811L425.807 98.8471ZM422.085 49.1715L421.113 36.2079C413.963 36.8587 408.602 43.1902 409.138 50.3499L422.085 49.1715ZM460.679 45.6589L473.625 44.4806C473.089 37.321 466.857 32.0445 459.707 32.6953L460.679 45.6589ZM461.598 57.9235L462.569 70.8872C469.719 70.2364 475.081 63.9049 474.544 56.7452L461.598 57.9235ZM439.566 59.9288L438.595 46.9651C431.445 47.6159 426.083 53.9474 426.62 61.1071L439.566 59.9288ZM440.04 66.2539L427.094 67.4322C427.63 74.5918 433.861 79.8683 441.011 79.2175L440.04 66.2539ZM459.221 64.5081L472.168 63.3298C471.631 56.1702 465.4 50.8937 458.25 51.5444L459.221 64.5081ZM460.164 77.0813L461.135 90.0449C468.285 89.3941 473.647 83.0626 473.11 75.9029L460.164 77.0813ZM440.982 78.8271L440.011 65.8634C432.861 66.5142 427.499 72.8457 428.036 80.0054L440.982 78.8271ZM441.45 85.0751L428.504 86.2534C429.04 93.413 435.272 98.6895 442.422 98.0387L441.45 85.0751ZM463.482 83.0698L476.428 81.8915C475.892 74.7319 469.661 69.4554 462.511 70.1062L463.482 83.0698ZM464.401 95.3345L465.372 108.298C472.523 107.647 477.884 101.316 477.347 94.1561L464.401 95.3345ZM425.807 98.8471L438.754 97.6688L435.031 47.9932L422.085 49.1715L409.138 50.3499L412.861 100.025L425.807 98.8471ZM422.085 49.1715L423.056 62.1352L461.65 58.6226L460.679 45.6589L459.707 32.6953L421.113 36.2079L422.085 49.1715ZM460.679 45.6589L447.732 46.8373L448.651 59.1019L461.598 57.9235L474.544 56.7452L473.625 44.4806L460.679 45.6589ZM461.598 57.9235L460.626 44.9599L438.595 46.9651L439.566 59.9288L440.537 72.8924L462.569 70.8872L461.598 57.9235ZM439.566 59.9288L426.62 61.1071L427.094 67.4322L440.04 66.2539L452.987 65.0756L452.513 58.7504L439.566 59.9288ZM440.04 66.2539L441.011 79.2175L460.193 77.4718L459.221 64.5081L458.25 51.5444L439.069 53.2902L440.04 66.2539ZM459.221 64.5081L446.275 65.6864L447.217 78.2596L460.164 77.0813L473.11 75.9029L472.168 63.3298L459.221 64.5081ZM460.164 77.0813L459.192 64.1176L440.011 65.8634L440.982 78.8271L441.954 91.7907L461.135 90.0449L460.164 77.0813ZM440.982 78.8271L428.036 80.0054L428.504 86.2534L441.45 85.0751L454.397 83.8967L453.929 77.6487L440.982 78.8271ZM441.45 85.0751L442.422 98.0387L464.453 96.0335L463.482 83.0698L462.511 70.1062L440.479 72.1114L441.45 85.0751ZM463.482 83.0698L450.535 84.2482L451.454 96.5128L464.401 95.3345L477.347 94.1561L476.428 81.8915L463.482 83.0698ZM464.401 95.3345L463.43 82.3708L424.836 85.8834L425.807 98.8471L426.778 111.811L465.372 108.298L464.401 95.3345ZM478.626 94.0397L466.238 98.1281C468.043 103.873 473.579 107.551 479.598 107.003L478.626 94.0397ZM463.349 45.4159L462.378 32.4522C458.428 32.8117 454.829 34.9572 452.605 38.2786C450.381 41.5999 449.776 45.7337 450.96 49.5043L463.349 45.4159ZM479.526 43.9435L492.005 40.1561C490.308 34.2532 484.691 30.4214 478.555 30.9799L479.526 43.9435ZM485.924 66.1938L473.445 69.9812C475.095 75.7188 480.459 79.5218 486.436 79.1911C492.413 78.8604 497.455 74.4816 498.647 68.5868L485.924 66.1938ZM488.98 51.0823L501.703 53.4753C501.941 52.2982 502.016 51.0964 501.927 49.9039L488.98 51.0823ZM488.385 43.1373L487.414 30.1736C480.263 30.8244 474.902 37.1559 475.438 44.3156L488.385 43.1373ZM501.866 41.9103L514.037 37.1888C512.024 31.7827 506.664 28.4215 500.894 28.9466L501.866 41.9103ZM510.119 64.0694L497.947 68.791C500.012 74.3332 505.582 77.7086 511.481 76.9916C517.38 76.2745 522.107 71.6474 522.965 65.7499L510.119 64.0694ZM513.498 40.8516L512.527 27.8879C506.466 28.4396 501.531 33.128 500.652 39.1711L513.498 40.8516ZM529.675 39.3792L542.507 41.1534C543.108 37.2222 541.892 33.2591 539.204 30.3892C536.517 27.5194 532.65 26.0564 528.704 26.4156L529.675 39.3792ZM521.919 90.0994L522.891 103.063C528.917 102.515 533.834 97.8758 534.752 91.8736L521.919 90.0994ZM507.206 91.4386L495.071 96.2582C497.115 101.611 502.446 104.924 508.177 104.402L507.206 91.4386ZM498.81 69.4477L510.945 64.6281C508.92 59.3243 503.663 56.0172 497.98 56.472C492.297 56.9268 487.515 61.0374 486.186 66.6095L498.81 69.4477ZM493.263 92.7076L494.234 105.671C499.861 105.159 504.57 101.067 505.887 95.5458L493.263 92.7076ZM478.626 94.0397L491.015 89.9514L475.738 41.3275L463.349 45.4159L450.96 49.5043L466.238 98.1281L478.626 94.0397ZM463.349 45.4159L464.32 58.3796L480.497 56.9072L479.526 43.9435L478.555 30.9799L462.378 32.4522L463.349 45.4159ZM479.526 43.9435L467.047 47.7309L473.445 69.9812L485.924 66.1938L498.404 62.4064L492.005 40.1561L479.526 43.9435ZM485.924 66.1938L498.647 68.5868L501.703 53.4753L488.98 51.0823L476.258 48.6893L473.202 63.8008L485.924 66.1938ZM488.98 51.0823L501.927 49.9039L501.331 41.9589L488.385 43.1373L475.438 44.3156L476.034 52.2606L488.98 51.0823ZM488.385 43.1373L489.356 56.1009L502.837 54.8739L501.866 41.9103L500.894 28.9466L487.414 30.1736L488.385 43.1373ZM501.866 41.9103L489.694 46.6318L497.947 68.791L510.119 64.0694L522.29 59.3479L514.037 37.1888L501.866 41.9103ZM510.119 64.0694L522.965 65.7499L526.344 42.5321L513.498 40.8516L500.652 39.1711L497.273 62.389L510.119 64.0694ZM513.498 40.8516L514.469 53.8153L530.646 52.3429L529.675 39.3792L528.704 26.4156L512.527 27.8879L513.498 40.8516ZM529.675 39.3792L516.843 37.6051L509.087 88.3253L521.919 90.0994L534.752 91.8736L542.507 41.1534L529.675 39.3792ZM521.919 90.0994L520.948 77.1358L506.234 78.4749L507.206 91.4386L508.177 104.402L522.891 103.063L521.919 90.0994ZM507.206 91.4386L519.34 86.619L510.945 64.6281L498.81 69.4477L486.676 74.2674L495.071 96.2582L507.206 91.4386ZM498.81 69.4477L486.186 66.6095L480.638 89.8694L493.263 92.7076L505.887 95.5458L511.435 72.2859L498.81 69.4477ZM493.263 92.7076L492.291 79.744L477.655 81.0761L478.626 94.0397L479.598 107.003L494.234 105.671L493.263 92.7076ZM543.393 88.0673L542.014 101.031C542.027 101.032 542.039 101.033 542.052 101.034L543.393 88.0673ZM535.357 86.3913L522.41 87.5696C522.785 92.5698 525.998 96.8628 530.668 98.6022L535.357 86.3913ZM534.386 73.4324L538.994 61.1918C534.844 59.6773 530.175 60.407 526.618 63.1263C523.06 65.8456 521.107 70.1774 521.439 74.6108L534.386 73.4324ZM542.528 75.4872L540.331 88.3495C540.348 88.3523 540.366 88.355 540.383 88.3577L542.528 75.4872ZM555.273 74.7931L549.936 63.0127C549.876 63.0407 549.816 63.0693 549.757 63.0982L555.273 74.7931ZM554.045 69.7793L550.533 82.3651C550.646 82.3951 550.759 82.4235 550.872 82.4503L554.045 69.7793ZM546.536 67.8999L543.246 80.5425C543.265 80.5471 543.283 80.5518 543.302 80.5563L546.536 67.8999ZM538.484 64.9826L531.691 76.1819C531.806 76.251 531.923 76.3184 532.04 76.3838L538.484 64.9826ZM534.119 60.5648L522.622 66.7917C522.642 66.8301 522.663 66.8684 522.683 66.9066L534.119 60.5648ZM557.982 36.4146L557.256 49.4212C557.38 49.4262 557.503 49.4294 557.627 49.4308L557.982 36.4146ZM563.746 36.7443L562.16 49.6873C562.298 49.7022 562.437 49.7148 562.576 49.7253L563.746 36.7443ZM568.526 37.3965L581.472 36.2182C581.05 30.5807 577.037 25.9206 571.547 24.6905L568.526 37.3965ZM569.503 50.4324L565.681 62.9315C569.783 64.1336 574.244 63.2154 577.6 60.4786C580.955 57.7418 582.77 53.5402 582.449 49.2541L569.503 50.4324ZM562.1 48.9317L560.337 61.8545C560.453 61.8686 560.57 61.8812 560.687 61.8922L562.1 48.9317ZM551.221 49.6889L554.453 62.2435C554.567 62.2122 554.681 62.1793 554.795 62.1449L551.221 49.6889ZM551.319 54.1066L547.413 66.5807C547.557 66.6241 547.702 66.6649 547.848 66.7031L551.319 54.1066ZM557.934 55.4461L560.472 42.6415C560.443 42.6362 560.414 42.6311 560.385 42.6259L557.934 55.4461ZM567.402 58.6228L560.411 69.7008C560.454 69.7277 560.497 69.7543 560.541 69.7807L567.402 58.6228ZM572.049 63.7139L560.111 69.0181C560.162 69.1359 560.214 69.2528 560.268 69.369L572.049 63.7139ZM569.182 82.3807L577.859 91.9254C577.888 91.8991 577.916 91.8728 577.945 91.8463L569.182 82.3807ZM553.317 88.0184L552.346 75.0547C549.614 75.3034 547.083 75.3078 544.735 75.1003L543.393 88.0673L542.052 101.034C546.054 101.388 550.139 101.36 554.289 100.982L553.317 88.0184ZM543.393 88.0673L544.772 75.1037C542.452 74.8919 540.946 74.5156 540.046 74.1803L535.357 86.3913L530.668 98.6022C534.235 99.9313 538.087 100.672 542.014 101.031L543.393 88.0673ZM535.357 86.3913L548.303 85.2129L547.332 72.2541L534.386 73.4324L521.439 74.6108L522.41 87.5696L535.357 86.3913ZM534.386 73.4324L529.777 85.673C533.137 86.8992 536.668 87.7768 540.331 88.3495L542.528 75.4872L544.726 62.6248C542.528 62.2812 540.631 61.7889 538.994 61.1918L534.386 73.4324ZM542.528 75.4872L540.383 88.3577C544.151 88.9308 547.918 89.136 551.592 88.8016L550.621 75.8379L549.649 62.8742C548.496 62.9792 546.868 62.9505 544.673 62.6166L542.528 75.4872ZM550.621 75.8379L551.592 88.8016C554.189 88.5652 557.606 88.0366 560.79 86.488L555.273 74.7931L549.757 63.0982C550.107 62.928 550.371 62.8327 550.509 62.787C550.651 62.7403 550.714 62.7281 550.678 62.7361C550.644 62.7437 550.543 62.7647 550.364 62.7913C550.186 62.8178 549.95 62.8469 549.649 62.8742L550.621 75.8379ZM555.273 74.7931L560.611 86.5736C562.897 85.504 565.566 83.6326 567.493 80.5064C569.461 77.3127 569.951 73.9503 569.741 71.1465L556.795 72.3248L543.848 73.5031C543.723 71.8306 544.002 69.4453 545.463 67.0744C546.883 64.771 548.749 63.568 549.936 63.0127L555.273 74.7931ZM556.795 72.3248L569.741 71.1465C569.456 67.3457 567.81 63.7687 564.922 61.0958C562.316 58.6837 559.37 57.6182 557.217 57.1083L554.045 69.7793L550.872 82.4503C550.456 82.3517 548.837 81.9162 547.148 80.3527C545.177 78.5282 544.037 76.0183 543.848 73.5031L556.795 72.3248ZM554.045 69.7793L557.556 57.1934C555.675 56.6934 553.062 56.0404 549.769 55.2434L546.536 67.8999L543.302 80.5563C546.539 81.3396 548.932 81.9395 550.533 82.3651L554.045 69.7793ZM546.536 67.8999L549.826 55.2573C547.052 54.5727 545.565 53.9368 544.927 53.5814L538.484 64.9826L532.04 76.3838C535.396 78.2538 539.276 79.5626 543.246 80.5425L546.536 67.8999ZM538.484 64.9826L545.276 53.7833C545.127 53.6941 545.136 53.6772 545.226 53.7682C545.322 53.8653 545.446 54.0212 545.556 54.223L534.119 60.5648L522.683 66.9066C524.863 70.9377 528.041 73.9929 531.691 76.1819L538.484 64.9826ZM534.119 60.5648L545.617 54.3378C545.691 54.4786 545.425 54.0423 545.313 52.5564L532.367 53.7347L519.42 54.913C519.717 58.878 520.619 62.9951 522.622 66.7917L534.119 60.5648ZM532.367 53.7347L545.313 52.5564C545.234 51.504 545.392 51.1865 545.347 51.3094C545.274 51.505 545.134 51.6501 545.157 51.63C545.476 51.3569 547.482 50.034 553.378 49.4974L552.407 36.5337L551.435 23.5701C543.209 24.3188 534.813 26.5054 528.451 31.9661C521.345 38.0654 518.787 46.4556 519.42 54.913L532.367 53.7347ZM552.407 36.5337L553.378 49.4974C554.494 49.3958 555.781 49.3617 557.256 49.4212L557.982 36.4146L558.708 23.408C556.241 23.3085 553.812 23.3537 551.435 23.5701L552.407 36.5337ZM557.982 36.4146L557.627 49.4308C559.273 49.4499 560.782 49.5389 562.16 49.6873L563.746 36.7443L565.332 23.8013C563.062 23.5568 560.727 23.4261 558.336 23.3984L557.982 36.4146ZM563.746 36.7443L562.576 49.7253C564.045 49.8354 564.983 49.9854 565.505 50.1025L568.526 37.3965L571.547 24.6905C569.44 24.2185 567.19 23.9337 564.916 23.7633L563.746 36.7443ZM568.526 37.3965L555.58 38.5748L556.556 51.6108L569.503 50.4324L582.449 49.2541L581.472 36.2182L568.526 37.3965ZM569.503 50.4324L573.325 37.9334C570.031 36.968 566.743 36.2747 563.513 35.9712L562.1 48.9317L560.687 61.8922C561.935 62.0095 563.583 62.3167 565.681 62.9315L569.503 50.4324ZM562.1 48.9317L563.863 36.0089C560.961 35.6561 558.032 35.5509 555.145 35.8137L556.116 48.7773L557.088 61.741C557.795 61.6766 558.855 61.6743 560.337 61.8545L562.1 48.9317ZM556.116 48.7773L555.145 35.8137C552.62 36.0434 550.099 36.49 547.646 37.2328L551.221 49.6889L554.795 62.1449C555.275 61.9996 556.017 61.8384 557.088 61.741L556.116 48.7773ZM551.221 49.6889L547.989 37.1342C545.784 37.7372 542.486 39.083 539.816 42.2354C536.874 45.7104 536.022 49.7947 536.279 53.2233L549.226 52.045L562.172 50.8667C562.34 53.1125 561.777 56.2128 559.499 58.9024C557.495 61.2695 555.239 62.0286 554.453 62.2435L551.221 49.6889ZM549.226 52.045L536.279 53.2233C536.915 61.7154 543.54 65.417 547.413 66.5807L551.319 54.1066L555.225 41.6326C555.791 41.8025 557.375 42.3601 558.975 43.9362C560.811 45.7435 561.974 48.2221 562.172 50.8667L549.226 52.045ZM551.319 54.1066L547.848 66.7031C549.716 67.1934 552.373 67.7159 555.483 68.2663L557.934 55.4461L560.385 42.6259C557.313 42.0823 555.559 41.7118 554.79 41.5102L551.319 54.1066ZM557.934 55.4461L555.397 68.2507C557.019 68.5491 558.235 68.868 559.114 69.1627C559.546 69.3078 559.864 69.4363 560.086 69.5369C560.196 69.5865 560.276 69.6269 560.331 69.6559C560.358 69.6703 560.378 69.6815 560.392 69.6892C560.405 69.6969 560.411 69.7008 560.411 69.7008L567.402 58.6228L574.393 47.5449C570.268 44.968 565.314 43.5325 560.472 42.6415L557.934 55.4461ZM567.402 58.6228L560.541 69.7807C560.754 69.9103 560.727 69.9295 560.59 69.7793C560.441 69.6162 560.256 69.3549 560.111 69.0181L572.049 63.7139L583.987 58.4096C581.893 53.5314 578.342 49.9463 574.263 47.465L567.402 58.6228ZM572.049 63.7139L560.268 69.369C560.413 69.6816 560.681 70.4367 560.79 71.8835L573.736 70.7052L586.683 69.5269C586.391 65.6257 585.534 61.7199 583.83 58.0587L572.049 63.7139ZM573.736 70.7052L560.79 71.8835C560.813 72.1981 560.797 72.3821 560.786 72.4606C560.776 72.5342 560.767 72.5447 560.777 72.5204C560.786 72.4957 560.789 72.4998 560.758 72.5445C560.725 72.593 560.629 72.7203 560.42 72.9151L569.182 82.3807L577.945 91.8463C584.305 85.9137 587.324 78.0819 586.683 69.5269L573.736 70.7052ZM569.182 82.3807L560.505 72.836C560.18 73.1346 558.232 74.519 552.346 75.0547L553.317 88.0184L554.289 100.982C562.782 100.209 571.411 97.835 577.859 91.9254L569.182 82.3807ZM579.423 84.8657L566.477 86.0441C567.013 93.2037 573.244 98.4802 580.395 97.8294L579.423 84.8657ZM575.701 35.1902L574.73 22.2265C567.579 22.8773 562.218 29.2089 562.754 36.3685L575.701 35.1902ZM592.263 33.6828L605.21 32.5045C604.673 25.3448 598.442 20.0684 591.292 20.7191L592.263 33.6828ZM595.038 70.708L582.091 71.8864C582.628 79.046 588.859 84.3225 596.009 83.6717L595.038 70.708ZM616.299 68.7729L629.245 67.5946C628.709 60.435 622.478 55.1585 615.327 55.8093L616.299 68.7729ZM617.247 81.4232L618.218 94.3869C625.368 93.7361 630.73 87.4045 630.193 80.2449L617.247 81.4232ZM579.423 84.8657L592.37 83.6874L588.647 34.0119L575.701 35.1902L562.754 36.3685L566.477 86.0441L579.423 84.8657ZM575.701 35.1902L576.672 48.1539L593.235 46.6465L592.263 33.6828L591.292 20.7191L574.73 22.2265L575.701 35.1902ZM592.263 33.6828L579.317 34.8611L582.091 71.8864L595.038 70.708L607.984 69.5297L605.21 32.5045L592.263 33.6828ZM595.038 70.708L596.009 83.6717L617.27 81.7366L616.299 68.7729L615.327 55.8093L594.066 57.7444L595.038 70.708ZM616.299 68.7729L603.352 69.9513L604.3 82.6016L617.247 81.4232L630.193 80.2449L629.245 67.5946L616.299 68.7729ZM617.247 81.4232L616.275 68.4596L578.452 71.9021L579.423 84.8657L580.395 97.8294L618.218 94.3869L617.247 81.4232ZM620.347 81.141L607.401 82.3193C607.937 89.479 614.169 94.7555 621.319 94.1047L620.347 81.141ZM616.625 31.4655L615.654 18.5018C608.504 19.1526 603.142 25.4842 603.679 32.6438L616.625 31.4655ZM655.219 27.9529L668.166 26.7746C667.629 19.6149 661.398 14.3385 654.248 14.9892L655.219 27.9529ZM656.138 40.2175L657.109 53.1812C664.26 52.5304 669.621 46.1988 669.085 39.0392L656.138 40.2175ZM634.106 42.2227L633.135 29.259C625.985 29.9098 620.623 36.2414 621.16 43.401L634.106 42.2227ZM634.58 48.5478L621.634 49.7262C622.17 56.8858 628.402 62.1623 635.552 61.5115L634.58 48.5478ZM653.762 46.8021L666.708 45.6237C666.172 38.4641 659.94 33.1876 652.79 33.8384L653.762 46.8021ZM654.704 59.3752L655.675 72.3389C662.825 71.6881 668.187 65.3565 667.65 58.1969L654.704 59.3752ZM635.522 61.121L634.551 48.1573C627.401 48.8081 622.04 55.1397 622.576 62.2993L635.522 61.121ZM635.991 67.369L623.044 68.5473C623.581 75.707 629.812 80.9834 636.962 80.3327L635.991 67.369ZM658.022 65.3638L670.969 64.1855C670.432 57.0259 664.201 51.7494 657.051 52.4001L658.022 65.3638ZM658.941 77.6284L659.913 90.5921C667.063 89.9413 672.424 83.6097 671.888 76.4501L658.941 77.6284ZM620.347 81.141L633.294 79.9627L629.572 30.2872L616.625 31.4655L603.679 32.6438L607.401 82.3193L620.347 81.141ZM616.625 31.4655L617.597 44.4292L656.19 40.9165L655.219 27.9529L654.248 14.9892L615.654 18.5018L616.625 31.4655ZM655.219 27.9529L642.273 29.1312L643.192 41.3958L656.138 40.2175L669.085 39.0392L668.166 26.7746L655.219 27.9529ZM656.138 40.2175L655.167 27.2538L633.135 29.259L634.106 42.2227L635.078 55.1864L657.109 53.1812L656.138 40.2175ZM634.106 42.2227L621.16 43.401L621.634 49.7262L634.58 48.5478L647.527 47.3695L647.053 41.0444L634.106 42.2227ZM634.58 48.5478L635.552 61.5115L654.733 59.7657L653.762 46.8021L652.79 33.8384L633.609 35.5842L634.58 48.5478ZM653.762 46.8021L640.815 47.9804L641.757 60.5535L654.704 59.3752L667.65 58.1969L666.708 45.6237L653.762 46.8021ZM654.704 59.3752L653.732 46.4116L634.551 48.1573L635.522 61.121L636.494 74.0847L655.675 72.3389L654.704 59.3752ZM635.522 61.121L622.576 62.2993L623.044 68.5473L635.991 67.369L648.937 66.1907L648.469 59.9427L635.522 61.121ZM635.991 67.369L636.962 80.3327L658.994 78.3275L658.022 65.3638L657.051 52.4001L635.019 54.4054L635.991 67.369ZM658.022 65.3638L645.076 66.5421L645.995 78.8067L658.941 77.6284L671.888 76.4501L670.969 64.1855L658.022 65.3638ZM658.941 77.6284L657.97 64.6648L619.376 68.1774L620.347 81.141L621.319 94.1047L659.913 90.5921L658.941 77.6284ZM673.321 76.3197L660.374 77.498C660.911 84.6576 667.142 89.9341 674.292 89.2833L673.321 76.3197ZM670.506 38.7545L683.452 37.5762C682.916 30.4165 676.685 25.1401 669.535 25.7908L670.506 38.7545ZM657.256 39.9604L644.31 41.1387C644.846 48.2984 651.077 53.5748 658.228 52.9241L657.256 39.9604ZM656.349 27.8501L655.377 14.8864C648.227 15.5372 642.866 21.8688 643.402 29.0284L656.349 27.8501ZM699.488 23.9238L712.434 22.7455C711.898 15.5858 705.666 10.3094 698.516 10.9601L699.488 23.9238ZM700.395 36.0341L701.366 48.9978C708.517 48.347 713.878 42.0154 713.341 34.8558L700.395 36.0341ZM687.068 37.2471L686.097 24.2834C678.947 24.9342 673.585 31.2658 674.122 38.4254L687.068 37.2471ZM689.883 74.8123L690.854 87.7759C698.005 87.1251 703.366 80.7936 702.83 73.6339L689.883 74.8123ZM673.321 76.3197L686.267 75.1413L683.452 37.5762L670.506 38.7545L657.559 39.9328L660.374 77.498L673.321 76.3197ZM670.506 38.7545L669.535 25.7908L656.285 26.9968L657.256 39.9604L658.228 52.9241L671.477 51.7181L670.506 38.7545ZM657.256 39.9604L670.203 38.7821L669.295 26.6717L656.349 27.8501L643.402 29.0284L644.31 41.1387L657.256 39.9604ZM656.349 27.8501L657.32 40.8137L700.459 36.8875L699.488 23.9238L698.516 10.9601L655.377 14.8864L656.349 27.8501ZM699.488 23.9238L686.541 25.1021L687.449 37.2125L700.395 36.0341L713.341 34.8558L712.434 22.7455L699.488 23.9238ZM700.395 36.0341L699.424 23.0705L686.097 24.2834L687.068 37.2471L688.04 50.2107L701.366 48.9978L700.395 36.0341ZM687.068 37.2471L674.122 38.4254L676.937 75.9906L689.883 74.8123L702.83 73.6339L700.015 36.0688L687.068 37.2471ZM689.883 74.8123L688.912 61.8486L672.349 63.356L673.321 76.3197L674.292 89.2833L690.854 87.7759L689.883 74.8123ZM719.135 72.1499L706.188 73.3282C706.725 80.4879 712.956 85.7644 720.106 85.1136L719.135 72.1499ZM716.32 34.5847L729.266 33.4064C728.73 26.2468 722.499 20.9703 715.348 21.6211L716.32 34.5847ZM703.07 35.7907L690.124 36.969C690.66 44.1286 696.891 49.4051 704.041 48.7543L703.07 35.7907ZM702.163 23.6803L701.191 10.7167C694.041 11.3674 688.68 17.699 689.216 24.8586L702.163 23.6803ZM745.301 19.754L758.248 18.5757C757.711 11.4161 751.48 6.13962 744.33 6.79039L745.301 19.754ZM746.209 31.8644L747.18 44.828C754.33 44.1773 759.692 37.8457 759.155 30.6861L746.209 31.8644ZM732.882 33.0773L731.911 20.1137C724.761 20.7644 719.399 27.096 719.936 34.2556L732.882 33.0773ZM735.697 70.6425L736.668 83.6062C743.818 82.9554 749.18 76.6238 748.643 69.4642L735.697 70.6425ZM719.135 72.1499L732.081 70.9716L729.266 33.4064L716.32 34.5847L703.373 35.7631L706.188 73.3282L719.135 72.1499ZM716.32 34.5847L715.348 21.6211L702.099 22.827L703.07 35.7907L704.041 48.7543L717.291 47.5484L716.32 34.5847ZM703.07 35.7907L716.017 34.6123L715.109 22.502L702.163 23.6803L689.216 24.8586L690.124 36.969L703.07 35.7907ZM702.163 23.6803L703.134 36.644L746.273 32.7177L745.301 19.754L744.33 6.79039L701.191 10.7167L702.163 23.6803ZM745.301 19.754L732.355 20.9324L733.262 33.0427L746.209 31.8644L759.155 30.6861L758.248 18.5757L745.301 19.754ZM746.209 31.8644L745.238 18.9007L731.911 20.1137L732.882 33.0773L733.854 46.041L747.18 44.828L746.209 31.8644ZM732.882 33.0773L719.936 34.2556L722.75 71.8208L735.697 70.6425L748.643 69.4642L745.829 31.899L732.882 33.0773ZM735.697 70.6425L734.726 57.6789L718.163 59.1863L719.135 72.1499L720.106 85.1136L736.668 83.6062L735.697 70.6425ZM752.072 69.1521L739.126 70.3305C739.662 77.4901 745.893 82.7666 753.044 82.1158L752.072 69.1521ZM748.35 19.4766L747.378 6.51294C740.228 7.16372 734.867 13.4953 735.403 20.6549L748.35 19.4766ZM786.944 15.964L799.89 14.7857C799.354 7.62604 793.122 2.34956 785.972 3.00033L786.944 15.964ZM787.863 28.2286L788.834 41.1923C795.984 40.5415 801.346 34.2099 800.809 27.0503L787.863 28.2286ZM765.831 30.2338L764.86 17.2702C757.71 17.9209 752.348 24.2525 752.885 31.4121L765.831 30.2338ZM766.305 36.5589L753.359 37.7373C753.895 44.8969 760.126 50.1734 767.276 49.5226L766.305 36.5589ZM785.486 34.8132L798.433 33.6348C797.896 26.4752 791.665 21.1987 784.515 21.8495L785.486 34.8132ZM786.429 47.3863L787.4 60.35C794.55 59.6992 799.912 53.3676 799.375 46.208L786.429 47.3863ZM767.247 49.1321L766.276 36.1684C759.126 36.8192 753.764 43.1508 754.301 50.3104L767.247 49.1321ZM767.715 55.3801L754.769 56.5584C755.305 63.7181 761.537 68.9945 768.687 68.3438L767.715 55.3801ZM789.747 53.3749L802.694 52.1966C802.157 45.037 795.926 39.7605 788.776 40.4112L789.747 53.3749ZM790.666 65.6395L791.637 78.6032C798.788 77.9524 804.149 71.6208 803.613 64.4612L790.666 65.6395ZM752.072 69.1521L765.019 67.9738L761.296 18.2983L748.35 19.4766L735.403 20.6549L739.126 70.3305L752.072 69.1521ZM748.35 19.4766L749.321 32.4403L787.915 28.9276L786.944 15.964L785.972 3.00033L747.378 6.51294L748.35 19.4766ZM786.944 15.964L773.997 17.1423L774.916 29.4069L787.863 28.2286L800.809 27.0503L799.89 14.7857L786.944 15.964ZM787.863 28.2286L786.891 15.2649L764.86 17.2702L765.831 30.2338L766.802 43.1975L788.834 41.1923L787.863 28.2286ZM765.831 30.2338L752.885 31.4121L753.359 37.7373L766.305 36.5589L779.252 35.3806L778.778 29.0555L765.831 30.2338ZM766.305 36.5589L767.276 49.5226L786.458 47.7768L785.486 34.8132L784.515 21.8495L765.334 23.5953L766.305 36.5589ZM785.486 34.8132L772.54 35.9915L773.482 48.5646L786.429 47.3863L799.375 46.208L798.433 33.6348L785.486 34.8132ZM786.429 47.3863L785.457 34.4227L766.276 36.1684L767.247 49.1321L768.219 62.0958L787.4 60.35L786.429 47.3863ZM767.247 49.1321L754.301 50.3104L754.769 56.5584L767.715 55.3801L780.662 54.2018L780.194 47.9538L767.247 49.1321ZM767.715 55.3801L768.687 68.3438L790.718 66.3386L789.747 53.3749L788.776 40.4112L766.744 42.4165L767.715 55.3801ZM789.747 53.3749L776.801 54.5532L777.72 66.8178L790.666 65.6395L803.613 64.4612L802.694 52.1966L789.747 53.3749ZM790.666 65.6395L789.695 52.6759L751.101 56.1885L752.072 69.1521L753.044 82.1158L791.637 78.6032L790.666 65.6395ZM794.877 65.2563L781.931 66.4346C782.467 73.5942 788.698 78.8707 795.848 78.2199L794.877 65.2563ZM791.155 15.5807L790.183 2.61707C783.033 3.26784 777.672 9.59942 778.208 16.759L791.155 15.5807ZM828.387 14.5996L822.592 26.338C822.679 26.3802 822.767 26.4215 822.855 26.4617L828.387 14.5996ZM834.875 20.455L823.581 27.0512C823.613 27.1085 823.647 27.1656 823.68 27.2224L834.875 20.455ZM835.7 38.7081L846.981 44.9723C847.001 44.9368 847.021 44.9013 847.041 44.8656L835.7 38.7081ZM829.757 45.3066L822.422 34.6839C818.874 37.1755 816.759 41.2474 816.775 45.5578C816.79 49.8681 818.933 53.8576 822.498 56.2117L829.757 45.3066ZM832.477 48.4763L843.956 42.2146C843.935 42.1757 843.914 42.1369 843.893 42.0982L832.477 48.4763ZM839.248 61.2178L840.22 74.1815C844.586 73.7841 848.493 71.2096 850.611 67.3343C852.729 63.459 852.773 58.805 850.727 54.9561L839.248 61.2178ZM821.993 62.7883L810.549 69.1159C812.975 73.6166 817.842 76.2182 822.964 75.752L821.993 62.7883ZM816.047 51.7578L827.491 45.4302C827.451 45.3557 827.41 45.2816 827.369 45.2079L816.047 51.7578ZM814.771 50.2431L821.761 39.1652L821.761 39.1652L814.771 50.2431ZM810.422 50.1729L809.451 37.2093C802.3 37.86 796.939 44.1916 797.475 51.3512L810.422 50.1729ZM811.439 63.7488L812.411 76.7125C819.561 76.0617 824.922 69.7302 824.386 62.5705L811.439 63.7488ZM809.462 37.3684L796.516 38.5467C797.052 45.7063 803.284 50.9828 810.434 50.332L809.462 37.3684ZM808.682 26.955L807.711 13.9914C800.561 14.6421 795.199 20.9737 795.736 28.1333L808.682 26.955ZM794.877 65.2563L807.824 64.0779L804.101 14.4024L791.155 15.5807L778.208 16.759L781.931 66.4346L794.877 65.2563ZM791.155 15.5807L792.126 28.5444L818.934 26.1045L817.962 13.1408L816.991 0.17717L790.183 2.61707L791.155 15.5807ZM817.962 13.1408L818.934 26.1045C821.524 25.8688 822.49 26.2884 822.592 26.338L828.387 14.5996L834.182 2.86108C828.705 0.208482 822.721 -0.344343 816.991 0.17717L817.962 13.1408ZM828.387 14.5996L822.855 26.4617C823.367 26.6954 823.47 26.8564 823.581 27.0512L834.875 20.455L846.17 13.8587C843.305 8.8363 839.082 5.09367 833.919 2.7374L828.387 14.5996ZM834.875 20.455L823.68 27.2224C824.074 27.888 824.495 28.9661 824.631 30.7844L837.578 29.6061L850.524 28.4278C850.136 23.2525 848.756 18.2298 846.071 13.6876L834.875 20.455ZM837.578 29.6061L824.631 30.7844C824.708 31.8134 824.519 32.2627 824.36 32.5506L835.7 38.7081L847.041 44.8656C849.886 39.7026 850.948 34.0839 850.524 28.4278L837.578 29.6061ZM835.7 38.7081L824.419 32.444C823.865 33.4288 823.218 34.1242 822.422 34.6839L829.757 45.3066L837.093 55.9294C841.208 53.039 844.524 49.3354 846.981 44.9723L835.7 38.7081ZM829.757 45.3066L822.498 56.2117C821.34 55.4472 820.977 54.7008 821.06 54.8544L832.477 48.4763L843.893 42.0982C842.418 39.3906 840.242 36.5312 837.017 34.4016L829.757 45.3066ZM832.477 48.4763L820.998 54.7379L827.769 67.4795L839.248 61.2178L850.727 54.9561L843.956 42.2146L832.477 48.4763ZM839.248 61.2178L838.277 48.2541L821.021 49.8247L821.993 62.7883L822.964 75.752L840.22 74.1815L839.248 61.2178ZM821.993 62.7883L833.437 56.4607L827.491 45.4302L816.047 51.7578L804.604 58.0854L810.549 69.1159L821.993 62.7883ZM816.047 51.7578L827.369 45.2079C826.512 43.6912 824.807 41.068 821.761 39.1652L814.771 50.2431L807.78 61.321C806.604 60.5862 805.851 59.8005 805.445 59.319C805.029 58.8259 804.804 58.445 804.726 58.3077L816.047 51.7578ZM814.771 50.2431L821.761 39.1652C817.808 36.6949 813.744 36.8185 811.839 36.9919L812.81 49.9556L813.781 62.9192C813.506 62.9443 812.822 62.9869 811.878 62.8485C810.935 62.7102 809.416 62.3436 807.78 61.321L814.771 50.2431ZM812.81 49.9556L811.839 36.9919L809.451 37.2093L810.422 50.1729L811.393 63.1366L813.781 62.9192L812.81 49.9556ZM810.422 50.1729L797.475 51.3512L798.493 64.9272L811.439 63.7488L824.386 62.5705L823.368 48.9946L810.422 50.1729ZM811.439 63.7488L810.468 50.7852L793.906 52.2926L794.877 65.2563L795.848 78.2199L812.411 76.7125L811.439 63.7488ZM809.462 37.3684L810.434 50.332L816.52 49.7781L815.548 36.8145L814.577 23.8508L808.491 24.4047L809.462 37.3684ZM815.548 36.8145L816.52 49.7781C820.142 49.4485 825.208 48.1569 829.142 43.8314C833.239 39.3263 833.951 33.933 833.654 29.9632L820.707 31.1416L807.761 32.3199C807.722 31.7956 807.703 29.0705 810.08 26.4563C811.159 25.2698 812.322 24.5937 813.187 24.238C814.002 23.9029 814.538 23.8543 814.577 23.8508L815.548 36.8145ZM820.707 31.1416L833.654 29.9632C833.377 26.2645 832.077 21.1829 827.663 17.3872C823.21 13.5592 817.947 13.0597 814.182 13.4024L815.153 26.3661L816.124 39.3297C815.8 39.3592 813.183 39.4991 810.582 37.263C808.019 35.0591 807.776 32.5219 807.761 32.3199L820.707 31.1416ZM815.153 26.3661L814.182 13.4024L807.711 13.9914L808.682 26.955L809.654 39.9187L816.124 39.3297L815.153 26.3661ZM808.682 26.955L795.736 28.1333L796.516 38.5467L809.462 37.3684L822.409 36.19L821.629 25.7767L808.682 26.955Z" fill="white" mask="url(#path-1-outside-1_998_2974)"/>
</g>
<defs>
<filter id="filter0_d_998_2974" x="0" y="0" width="852.23" height="152.099" filterUnits="userSpaceOnUse" color-interpolation-filters="sRGB">
<feFlood flood-opacity="0" result="BackgroundImageFix"/>
<feColorMatrix in="SourceAlpha" type="matrix" values="0 0 0 0 0 0 0 0 0 0 0 0 0 0 0 0 0 0 127 0" result="hardAlpha"/>
<feOffset dy="2.87819"/>
<feComposite in2="hardAlpha" operator="out"/>
<feColorMatrix type="matrix" values="0 0 0 0 0 0 0 0 0 0 0 0 0 0 0 0 0 0 0.25 0"/>
<feBlend mode="normal" in2="BackgroundImageFix" result="effect1_dropShadow_998_2974"/>
<feBlend mode="normal" in="SourceGraphic" in2="effect1_dropShadow_998_2974" result="shape"/>
</filter>
</defs>
</svg>
