<svg width="664" height="45" viewBox="0 0 664 45" fill="none" xmlns="http://www.w3.org/2000/svg">
<mask id="path-1-outside-1_998_3027" maskUnits="userSpaceOnUse" x="-0.851562" y="-0.653076" width="664" height="46" fill="black">
<rect fill="white" x="-0.851562" y="-0.653076" width="664" height="46"/>
<path d="M8.00158 36.3469V8.43347H23.9521C26.7839 8.43347 28.9656 9.11252 30.497 10.4706C32.0285 11.8287 32.7943 13.7503 32.7943 16.2354C32.7943 17.6513 32.5342 18.8504 32.0141 19.8329C31.5229 20.8154 30.8582 21.5956 30.0203 22.1735C31.1761 22.6647 32.0863 23.3438 32.7509 24.2106C33.4155 25.0486 33.7478 26.3056 33.7478 27.9816C33.7478 30.6111 32.9099 32.6627 31.2339 34.1364C29.5579 35.6101 27.2174 36.3469 24.2122 36.3469H8.00158ZM16.8437 19.3561H21.4382C23.1141 19.3561 23.9521 18.6048 23.9521 17.1022C23.9521 16.3798 23.7354 15.8308 23.302 15.4552C22.8974 15.0506 22.2328 14.8484 21.3081 14.8484H16.8437V19.3561ZM16.8437 29.9754H21.6116C23.3742 29.9754 24.2555 29.1663 24.2555 27.5481C24.2555 26.0455 23.3453 25.2942 21.5249 25.2942H16.8437V29.9754ZM36.3613 36.3469V8.43347H58.0766V15.3251H45.6803V18.8793H56.4729V25.9444H45.6803V29.4552H58.0766V36.3469H36.3613ZM68.468 36.3469L79.1739 8.43347H88.9263L99.6756 36.3469H89.9665L87.7993 30.7989H80.3009L78.177 36.3469H68.468ZM81.4278 24.2973H86.6724L84.0284 17.5357L81.4278 24.2973ZM111.155 36.3469V8.43347H126.195C128.536 8.43347 130.457 8.91025 131.96 9.86382C133.491 10.8174 134.633 12.1033 135.384 13.7214C136.135 15.3107 136.511 17.0733 136.511 19.0094C136.511 21.0032 136.078 22.7947 135.211 24.384C134.344 25.9733 133.13 27.2303 131.57 28.1549C130.009 29.0507 128.16 29.4986 126.022 29.4986H120.474V36.3469H111.155ZM120.474 22.2602H123.855C124.895 22.2602 125.675 21.9712 126.195 21.3933C126.744 20.7865 127.019 19.9918 127.019 19.0094C127.019 17.9691 126.773 17.16 126.282 16.5821C125.791 15.9753 125.039 15.6719 124.028 15.6719H120.474V22.2602ZM133.907 36.3469L144.613 8.43347H154.365L165.115 36.3469H155.406L153.238 30.7989H145.74L143.616 36.3469H133.907ZM146.867 24.2973H152.111L149.468 17.5357L146.867 24.2973ZM167.705 36.3469V8.43347H182.789C185.129 8.43347 187.051 8.88135 188.554 9.77713C190.085 10.644 191.212 11.8432 191.934 13.3747C192.686 14.9062 193.061 16.6544 193.061 18.6193C193.061 20.4975 192.584 22.159 191.631 23.6038C190.677 25.0197 189.478 26.1467 188.033 26.9846C188.582 27.4181 189.045 28.0538 189.42 28.8918L192.671 36.3469H182.962L180.101 29.8887C179.899 29.4552 179.682 29.1518 179.451 28.9785C179.22 28.8051 178.859 28.7184 178.368 28.7184H177.024V36.3469H167.705ZM177.024 21.5233H180.448C182.529 21.5233 183.569 20.5553 183.569 18.6193C183.569 16.6544 182.601 15.6719 180.665 15.6719H177.024V21.5233ZM201.363 36.3469V15.2385H193.908V8.43347H218.18V15.2385H210.682V36.3469H201.363ZM242.524 36.7804C239.404 36.7804 236.76 36.3036 234.593 35.35C232.425 34.3964 230.764 32.865 229.608 30.7556C228.481 28.6462 227.918 25.8722 227.918 22.4335C227.918 18.9371 228.481 16.1342 229.608 14.0248C230.764 11.9154 232.425 10.3839 234.593 9.43038C236.76 8.47681 239.404 8.00003 242.524 8.00003C245.645 8.00003 248.289 8.47681 250.456 9.43038C252.624 10.3839 254.271 11.9154 255.398 14.0248C256.553 16.1342 257.131 18.9371 257.131 22.4335C257.131 25.8722 256.553 28.6462 255.398 30.7556C254.271 32.865 252.624 34.3964 250.456 35.35C248.289 36.3036 245.645 36.7804 242.524 36.7804ZM242.524 28.8918C244.316 28.8918 245.602 28.3861 246.382 27.3747C247.191 26.3634 247.596 24.7163 247.596 22.4335C247.596 20.0352 247.191 18.3592 246.382 17.4057C245.602 16.4232 244.316 15.932 242.524 15.932C240.704 15.932 239.389 16.4232 238.58 17.4057C237.8 18.3592 237.41 20.0352 237.41 22.4335C237.41 24.7163 237.8 26.3634 238.58 27.3747C239.389 28.3861 240.704 28.8918 242.524 28.8918ZM259.726 36.3469V8.43347H281.355V15.2385H269.045V18.9227H279.708V25.9011H269.045V36.3469H259.726ZM305.72 36.7804C302.599 36.7804 299.955 36.3036 297.788 35.35C295.621 34.3964 293.959 32.865 292.804 30.7556C291.677 28.6462 291.113 25.8722 291.113 22.4335C291.113 18.9371 291.677 16.1342 292.804 14.0248C293.959 11.9154 295.621 10.3839 297.788 9.43038C299.955 8.47681 302.599 8.00003 305.72 8.00003C308.841 8.00003 311.485 8.47681 313.652 9.43038C315.819 10.3839 317.466 11.9154 318.593 14.0248C319.749 16.1342 320.327 18.9371 320.327 22.4335C320.327 25.8722 319.749 28.6462 318.593 30.7556C317.466 32.865 315.819 34.3964 313.652 35.35C311.485 36.3036 308.841 36.7804 305.72 36.7804ZM305.72 28.8918C307.512 28.8918 308.798 28.3861 309.578 27.3747C310.387 26.3634 310.791 24.7163 310.791 22.4335C310.791 20.0352 310.387 18.3592 309.578 17.4057C308.798 16.4232 307.512 15.932 305.72 15.932C303.9 15.932 302.585 16.4232 301.776 17.4057C300.996 18.3592 300.606 20.0352 300.606 22.4335C300.606 24.7163 300.996 26.3634 301.776 27.3747C302.585 28.3861 303.9 28.8918 305.72 28.8918ZM336.272 36.7804C333.671 36.7804 331.345 36.3469 329.293 35.48C327.242 34.6132 325.624 33.3417 324.439 31.6658C323.283 29.9898 322.705 27.9238 322.705 25.4676V8.43347H332.024V24.384C332.024 27.3892 333.44 28.8918 336.272 28.8918C339.104 28.8918 340.52 27.3892 340.52 24.384V8.43347H349.838V25.4676C349.838 27.9238 349.246 29.9898 348.061 31.6658C346.906 33.3417 345.302 34.6132 343.25 35.48C341.227 36.3469 338.901 36.7804 336.272 36.7804ZM353.102 36.3469V8.43347H368.185C370.526 8.43347 372.448 8.88135 373.95 9.77713C375.482 10.644 376.609 11.8432 377.331 13.3747C378.082 14.9062 378.458 16.6544 378.458 18.6193C378.458 20.4975 377.981 22.159 377.028 23.6038C376.074 25.0197 374.875 26.1467 373.43 26.9846C373.979 27.4181 374.441 28.0538 374.817 28.8918L378.068 36.3469H368.359L365.498 29.8887C365.296 29.4552 365.079 29.1518 364.848 28.9785C364.617 28.8051 364.256 28.7184 363.764 28.7184H362.421V36.3469H353.102ZM362.421 21.5233H365.845C367.925 21.5233 368.966 20.5553 368.966 18.6193C368.966 16.6544 367.998 15.6719 366.062 15.6719H362.421V21.5233ZM389.927 36.3469V8.43347H398.856L405.184 21.3066L411.426 8.43347H420.355V36.3469H411.036V24.4707L407.568 31.5791H402.714L399.246 24.4707V36.3469H389.927ZM422.965 36.3469L433.671 8.43347H443.423L454.173 36.3469H444.464L442.296 30.7989H434.798L432.674 36.3469H422.965ZM435.925 24.2973H441.169L438.525 17.5357L435.925 24.2973ZM456.763 36.3469V8.43347H466.082V36.3469H456.763ZM469.546 36.3469V8.43347H478.865V29.2385H490.828V36.3469H469.546ZM492.573 36.3469V8.43347H501.891V36.3469H492.573ZM505.356 36.3469V8.43347H513.201L522.39 21.3066V8.43347H531.709V36.3469H523.777L514.675 23.5171V36.3469H505.356ZM550.064 36.7804C544.949 36.7804 541.048 35.5667 538.361 33.1395C535.674 30.7122 534.33 27.1725 534.33 22.5202C534.33 17.8102 535.731 14.2127 538.534 11.7276C541.337 9.24255 545.397 8.00003 550.714 8.00003C552.505 8.00003 554.095 8.10117 555.482 8.30344C556.898 8.50571 558.256 8.82356 559.556 9.257V17.1889C558.227 16.6977 556.883 16.3654 555.525 16.192C554.167 15.9898 552.78 15.8886 551.364 15.8886C548.995 15.8886 547.145 16.3943 545.816 17.4057C544.487 18.417 543.822 20.1219 543.822 22.5202C543.822 24.8319 544.342 26.479 545.383 27.4614C546.452 28.415 547.998 28.8918 550.02 28.8918C551.263 28.8918 552.361 28.7473 553.315 28.4583V25.5976H548.243V19.9196H561.073V34.1364C559.946 34.8588 558.472 35.48 556.652 36.0002C554.832 36.5203 552.636 36.7804 550.064 36.7804ZM572.572 36.3469V8.43347H581.891V29.2385H593.854V36.3469H572.572ZM595.599 36.3469V8.43347H604.918V36.3469H595.599ZM617.788 36.7804C615.852 36.7804 614.002 36.6214 612.24 36.3036C610.506 35.9857 609.032 35.5378 607.818 34.9599V27.6781C609.177 28.3139 610.665 28.834 612.283 29.2385C613.93 29.6431 615.433 29.8453 616.791 29.8453C617.946 29.8453 618.828 29.7298 619.435 29.4986C620.07 29.2674 620.388 28.834 620.388 28.1983C620.388 27.4759 619.911 26.9558 618.958 26.6379C618.004 26.2911 616.632 25.8144 614.84 25.2075C612.991 24.5718 611.532 23.8928 610.462 23.1704C609.422 22.4191 608.671 21.5233 608.209 20.4831C607.746 19.4139 607.515 18.1136 607.515 16.5821C607.515 10.8607 611.488 8.00003 619.435 8.00003C620.417 8.00003 621.457 8.07227 622.555 8.21675C623.682 8.33233 624.751 8.49126 625.763 8.69353C626.803 8.86691 627.684 9.06918 628.407 9.30035V16.6255C626.933 16.0475 625.575 15.643 624.332 15.4118C623.119 15.1518 622.006 15.0217 620.995 15.0217C619.984 15.0217 619.059 15.1084 618.221 15.2818C617.412 15.4263 617.007 15.8308 617.007 16.4954C617.007 17.0445 617.369 17.4634 618.091 17.7524C618.813 18.0125 620.027 18.3737 621.732 18.836C624.015 19.4717 625.734 20.223 626.89 21.0899C628.075 21.9568 628.869 22.9826 629.274 24.1673C629.707 25.3231 629.924 26.6523 629.924 28.1549C629.924 30.7556 628.912 32.8505 626.89 34.4398C624.867 36.0002 621.833 36.7804 617.788 36.7804ZM638.23 36.3469V15.2385H630.775V8.43347H655.048V15.2385H647.549V36.3469H638.23Z"/>
</mask>
<path d="M8.00158 36.3469V8.43347H23.9521C26.7839 8.43347 28.9656 9.11252 30.497 10.4706C32.0285 11.8287 32.7943 13.7503 32.7943 16.2354C32.7943 17.6513 32.5342 18.8504 32.0141 19.8329C31.5229 20.8154 30.8582 21.5956 30.0203 22.1735C31.1761 22.6647 32.0863 23.3438 32.7509 24.2106C33.4155 25.0486 33.7478 26.3056 33.7478 27.9816C33.7478 30.6111 32.9099 32.6627 31.2339 34.1364C29.5579 35.6101 27.2174 36.3469 24.2122 36.3469H8.00158ZM16.8437 19.3561H21.4382C23.1141 19.3561 23.9521 18.6048 23.9521 17.1022C23.9521 16.3798 23.7354 15.8308 23.302 15.4552C22.8974 15.0506 22.2328 14.8484 21.3081 14.8484H16.8437V19.3561ZM16.8437 29.9754H21.6116C23.3742 29.9754 24.2555 29.1663 24.2555 27.5481C24.2555 26.0455 23.3453 25.2942 21.5249 25.2942H16.8437V29.9754ZM36.3613 36.3469V8.43347H58.0766V15.3251H45.6803V18.8793H56.4729V25.9444H45.6803V29.4552H58.0766V36.3469H36.3613ZM68.468 36.3469L79.1739 8.43347H88.9263L99.6756 36.3469H89.9665L87.7993 30.7989H80.3009L78.177 36.3469H68.468ZM81.4278 24.2973H86.6724L84.0284 17.5357L81.4278 24.2973ZM111.155 36.3469V8.43347H126.195C128.536 8.43347 130.457 8.91025 131.96 9.86382C133.491 10.8174 134.633 12.1033 135.384 13.7214C136.135 15.3107 136.511 17.0733 136.511 19.0094C136.511 21.0032 136.078 22.7947 135.211 24.384C134.344 25.9733 133.13 27.2303 131.57 28.1549C130.009 29.0507 128.16 29.4986 126.022 29.4986H120.474V36.3469H111.155ZM120.474 22.2602H123.855C124.895 22.2602 125.675 21.9712 126.195 21.3933C126.744 20.7865 127.019 19.9918 127.019 19.0094C127.019 17.9691 126.773 17.16 126.282 16.5821C125.791 15.9753 125.039 15.6719 124.028 15.6719H120.474V22.2602ZM133.907 36.3469L144.613 8.43347H154.365L165.115 36.3469H155.406L153.238 30.7989H145.74L143.616 36.3469H133.907ZM146.867 24.2973H152.111L149.468 17.5357L146.867 24.2973ZM167.705 36.3469V8.43347H182.789C185.129 8.43347 187.051 8.88135 188.554 9.77713C190.085 10.644 191.212 11.8432 191.934 13.3747C192.686 14.9062 193.061 16.6544 193.061 18.6193C193.061 20.4975 192.584 22.159 191.631 23.6038C190.677 25.0197 189.478 26.1467 188.033 26.9846C188.582 27.4181 189.045 28.0538 189.42 28.8918L192.671 36.3469H182.962L180.101 29.8887C179.899 29.4552 179.682 29.1518 179.451 28.9785C179.22 28.8051 178.859 28.7184 178.368 28.7184H177.024V36.3469H167.705ZM177.024 21.5233H180.448C182.529 21.5233 183.569 20.5553 183.569 18.6193C183.569 16.6544 182.601 15.6719 180.665 15.6719H177.024V21.5233ZM201.363 36.3469V15.2385H193.908V8.43347H218.18V15.2385H210.682V36.3469H201.363ZM242.524 36.7804C239.404 36.7804 236.76 36.3036 234.593 35.35C232.425 34.3964 230.764 32.865 229.608 30.7556C228.481 28.6462 227.918 25.8722 227.918 22.4335C227.918 18.9371 228.481 16.1342 229.608 14.0248C230.764 11.9154 232.425 10.3839 234.593 9.43038C236.76 8.47681 239.404 8.00003 242.524 8.00003C245.645 8.00003 248.289 8.47681 250.456 9.43038C252.624 10.3839 254.271 11.9154 255.398 14.0248C256.553 16.1342 257.131 18.9371 257.131 22.4335C257.131 25.8722 256.553 28.6462 255.398 30.7556C254.271 32.865 252.624 34.3964 250.456 35.35C248.289 36.3036 245.645 36.7804 242.524 36.7804ZM242.524 28.8918C244.316 28.8918 245.602 28.3861 246.382 27.3747C247.191 26.3634 247.596 24.7163 247.596 22.4335C247.596 20.0352 247.191 18.3592 246.382 17.4057C245.602 16.4232 244.316 15.932 242.524 15.932C240.704 15.932 239.389 16.4232 238.58 17.4057C237.8 18.3592 237.41 20.0352 237.41 22.4335C237.41 24.7163 237.8 26.3634 238.58 27.3747C239.389 28.3861 240.704 28.8918 242.524 28.8918ZM259.726 36.3469V8.43347H281.355V15.2385H269.045V18.9227H279.708V25.9011H269.045V36.3469H259.726ZM305.72 36.7804C302.599 36.7804 299.955 36.3036 297.788 35.35C295.621 34.3964 293.959 32.865 292.804 30.7556C291.677 28.6462 291.113 25.8722 291.113 22.4335C291.113 18.9371 291.677 16.1342 292.804 14.0248C293.959 11.9154 295.621 10.3839 297.788 9.43038C299.955 8.47681 302.599 8.00003 305.72 8.00003C308.841 8.00003 311.485 8.47681 313.652 9.43038C315.819 10.3839 317.466 11.9154 318.593 14.0248C319.749 16.1342 320.327 18.9371 320.327 22.4335C320.327 25.8722 319.749 28.6462 318.593 30.7556C317.466 32.865 315.819 34.3964 313.652 35.35C311.485 36.3036 308.841 36.7804 305.72 36.7804ZM305.72 28.8918C307.512 28.8918 308.798 28.3861 309.578 27.3747C310.387 26.3634 310.791 24.7163 310.791 22.4335C310.791 20.0352 310.387 18.3592 309.578 17.4057C308.798 16.4232 307.512 15.932 305.72 15.932C303.9 15.932 302.585 16.4232 301.776 17.4057C300.996 18.3592 300.606 20.0352 300.606 22.4335C300.606 24.7163 300.996 26.3634 301.776 27.3747C302.585 28.3861 303.9 28.8918 305.72 28.8918ZM336.272 36.7804C333.671 36.7804 331.345 36.3469 329.293 35.48C327.242 34.6132 325.624 33.3417 324.439 31.6658C323.283 29.9898 322.705 27.9238 322.705 25.4676V8.43347H332.024V24.384C332.024 27.3892 333.44 28.8918 336.272 28.8918C339.104 28.8918 340.52 27.3892 340.52 24.384V8.43347H349.838V25.4676C349.838 27.9238 349.246 29.9898 348.061 31.6658C346.906 33.3417 345.302 34.6132 343.25 35.48C341.227 36.3469 338.901 36.7804 336.272 36.7804ZM353.102 36.3469V8.43347H368.185C370.526 8.43347 372.448 8.88135 373.95 9.77713C375.482 10.644 376.609 11.8432 377.331 13.3747C378.082 14.9062 378.458 16.6544 378.458 18.6193C378.458 20.4975 377.981 22.159 377.028 23.6038C376.074 25.0197 374.875 26.1467 373.43 26.9846C373.979 27.4181 374.441 28.0538 374.817 28.8918L378.068 36.3469H368.359L365.498 29.8887C365.296 29.4552 365.079 29.1518 364.848 28.9785C364.617 28.8051 364.256 28.7184 363.764 28.7184H362.421V36.3469H353.102ZM362.421 21.5233H365.845C367.925 21.5233 368.966 20.5553 368.966 18.6193C368.966 16.6544 367.998 15.6719 366.062 15.6719H362.421V21.5233ZM389.927 36.3469V8.43347H398.856L405.184 21.3066L411.426 8.43347H420.355V36.3469H411.036V24.4707L407.568 31.5791H402.714L399.246 24.4707V36.3469H389.927ZM422.965 36.3469L433.671 8.43347H443.423L454.173 36.3469H444.464L442.296 30.7989H434.798L432.674 36.3469H422.965ZM435.925 24.2973H441.169L438.525 17.5357L435.925 24.2973ZM456.763 36.3469V8.43347H466.082V36.3469H456.763ZM469.546 36.3469V8.43347H478.865V29.2385H490.828V36.3469H469.546ZM492.573 36.3469V8.43347H501.891V36.3469H492.573ZM505.356 36.3469V8.43347H513.201L522.39 21.3066V8.43347H531.709V36.3469H523.777L514.675 23.5171V36.3469H505.356ZM550.064 36.7804C544.949 36.7804 541.048 35.5667 538.361 33.1395C535.674 30.7122 534.33 27.1725 534.33 22.5202C534.33 17.8102 535.731 14.2127 538.534 11.7276C541.337 9.24255 545.397 8.00003 550.714 8.00003C552.505 8.00003 554.095 8.10117 555.482 8.30344C556.898 8.50571 558.256 8.82356 559.556 9.257V17.1889C558.227 16.6977 556.883 16.3654 555.525 16.192C554.167 15.9898 552.78 15.8886 551.364 15.8886C548.995 15.8886 547.145 16.3943 545.816 17.4057C544.487 18.417 543.822 20.1219 543.822 22.5202C543.822 24.8319 544.342 26.479 545.383 27.4614C546.452 28.415 547.998 28.8918 550.02 28.8918C551.263 28.8918 552.361 28.7473 553.315 28.4583V25.5976H548.243V19.9196H561.073V34.1364C559.946 34.8588 558.472 35.48 556.652 36.0002C554.832 36.5203 552.636 36.7804 550.064 36.7804ZM572.572 36.3469V8.43347H581.891V29.2385H593.854V36.3469H572.572ZM595.599 36.3469V8.43347H604.918V36.3469H595.599ZM617.788 36.7804C615.852 36.7804 614.002 36.6214 612.24 36.3036C610.506 35.9857 609.032 35.5378 607.818 34.9599V27.6781C609.177 28.3139 610.665 28.834 612.283 29.2385C613.93 29.6431 615.433 29.8453 616.791 29.8453C617.946 29.8453 618.828 29.7298 619.435 29.4986C620.07 29.2674 620.388 28.834 620.388 28.1983C620.388 27.4759 619.911 26.9558 618.958 26.6379C618.004 26.2911 616.632 25.8144 614.84 25.2075C612.991 24.5718 611.532 23.8928 610.462 23.1704C609.422 22.4191 608.671 21.5233 608.209 20.4831C607.746 19.4139 607.515 18.1136 607.515 16.5821C607.515 10.8607 611.488 8.00003 619.435 8.00003C620.417 8.00003 621.457 8.07227 622.555 8.21675C623.682 8.33233 624.751 8.49126 625.763 8.69353C626.803 8.86691 627.684 9.06918 628.407 9.30035V16.6255C626.933 16.0475 625.575 15.643 624.332 15.4118C623.119 15.1518 622.006 15.0217 620.995 15.0217C619.984 15.0217 619.059 15.1084 618.221 15.2818C617.412 15.4263 617.007 15.8308 617.007 16.4954C617.007 17.0445 617.369 17.4634 618.091 17.7524C618.813 18.0125 620.027 18.3737 621.732 18.836C624.015 19.4717 625.734 20.223 626.89 21.0899C628.075 21.9568 628.869 22.9826 629.274 24.1673C629.707 25.3231 629.924 26.6523 629.924 28.1549C629.924 30.7556 628.912 32.8505 626.89 34.4398C624.867 36.0002 621.833 36.7804 617.788 36.7804ZM638.23 36.3469V15.2385H630.775V8.43347H655.048V15.2385H647.549V36.3469H638.23Z" fill="white"/>
<path d="M8.00158 36.3469H0.00157738C0.00157738 40.7652 3.5833 44.3469 8.00158 44.3469V36.3469ZM8.00158 8.43347V0.433468C3.5833 0.433468 0.00157738 4.01519 0.00157738 8.43347H8.00158ZM30.497 10.4706L25.1891 16.4561L25.1892 16.4561L30.497 10.4706ZM32.0141 19.8329L24.9438 16.0898C24.9148 16.1446 24.8864 16.1997 24.8587 16.2552L32.0141 19.8329ZM30.0203 22.1735L25.4784 15.5878C23.0766 17.2442 21.767 20.0768 22.061 22.9796C22.355 25.8824 24.206 28.3949 26.8911 29.5361L30.0203 22.1735ZM32.7509 24.2106L26.4021 29.0781C26.4287 29.1129 26.4557 29.1475 26.4829 29.1818L32.7509 24.2106ZM31.2339 34.1364L36.5166 40.1441L36.5166 40.1441L31.2339 34.1364ZM16.8437 19.3561H8.84373C8.84373 23.7744 12.4254 27.3561 16.8437 27.3561V19.3561ZM23.302 15.4552L17.6451 21.112C17.7796 21.2465 17.9188 21.3761 18.0625 21.5007L23.302 15.4552ZM16.8437 14.8484V6.84836C12.4254 6.84836 8.84373 10.4301 8.84373 14.8484H16.8437ZM16.8437 29.9754H8.84373C8.84373 34.3937 12.4254 37.9754 16.8437 37.9754V29.9754ZM16.8437 25.2942V17.2942C12.4254 17.2942 8.84373 20.876 8.84373 25.2942H16.8437ZM8.00158 36.3469H16.0016V8.43347H8.00158H0.00157738V36.3469H8.00158ZM8.00158 8.43347V16.4335H23.9521V8.43347V0.433468H8.00158V8.43347ZM23.9521 8.43347V16.4335C24.7465 16.4335 25.172 16.5307 25.3346 16.5813C25.469 16.6231 25.3658 16.6127 25.1891 16.4561L30.497 10.4706L35.8049 4.48513C32.3315 1.40493 27.9888 0.433468 23.9521 0.433468V8.43347ZM30.497 10.4706L25.1892 16.4561C25.1145 16.39 25.0293 16.2983 24.9496 16.1845C24.8701 16.071 24.8183 15.9673 24.7883 15.8919C24.7284 15.7415 24.7943 15.8078 24.7943 16.2354H32.7943H40.7943C40.7943 11.9946 39.4103 7.68235 35.8049 4.48513L30.497 10.4706ZM32.7943 16.2354H24.7943C24.7943 16.4584 24.7734 16.5361 24.781 16.5012C24.7898 16.4605 24.8289 16.3068 24.9438 16.0898L32.0141 19.8329L39.0844 23.576C40.3595 21.1675 40.7943 18.6079 40.7943 16.2354H32.7943ZM32.0141 19.8329L24.8587 16.2552C24.8813 16.2099 24.9419 16.1026 25.0573 15.9672C25.1746 15.8294 25.3186 15.698 25.4784 15.5878L30.0203 22.1735L34.5621 28.7592C36.598 27.3551 38.1238 25.502 39.1695 23.4106L32.0141 19.8329ZM30.0203 22.1735L26.8911 29.5361C26.9428 29.5581 26.8933 29.5434 26.7861 29.4634C26.6744 29.38 26.5354 29.252 26.4021 29.0781L32.7509 24.2106L39.0998 19.3432C37.4764 17.2258 35.3832 15.7602 33.1494 14.8108L30.0203 22.1735ZM32.7509 24.2106L26.4829 29.1818C25.999 28.5716 25.8206 28.0395 25.7643 27.8266C25.7118 27.6279 25.7478 27.6461 25.7478 27.9816H33.7478H41.7478C41.7478 25.4629 41.2843 22.0959 39.0189 19.2395L32.7509 24.2106ZM33.7478 27.9816H25.7478C25.7478 28.4488 25.6742 28.5632 25.7133 28.4674C25.7322 28.4213 25.7669 28.3527 25.8203 28.2779C25.8735 28.2033 25.9232 28.1532 25.9512 28.1286L31.2339 34.1364L36.5166 40.1441C40.2317 36.8774 41.7478 32.4605 41.7478 27.9816H33.7478ZM31.2339 34.1364L25.9512 28.1286C26.0299 28.0594 26.0334 28.0961 25.8192 28.1635C25.5779 28.2395 25.0758 28.3469 24.2122 28.3469V36.3469V44.3469C28.4811 44.3469 32.9394 43.2896 36.5166 40.1441L31.2339 34.1364ZM24.2122 36.3469V28.3469H8.00158V36.3469V44.3469H24.2122V36.3469ZM16.8437 19.3561V27.3561H21.4382V19.3561V11.3561H16.8437V19.3561ZM21.4382 19.3561V27.3561C23.3069 27.3561 26.2024 26.9562 28.664 24.7492C31.2919 22.3932 31.9521 19.3262 31.9521 17.1022H23.9521H15.9521C15.9521 16.3808 16.1934 14.4408 17.9833 12.8361C19.6069 11.3804 21.2455 11.3561 21.4382 11.3561V19.3561ZM23.9521 17.1022H31.9521C31.9521 14.709 31.1656 11.6839 28.5414 9.40966L23.302 15.4552L18.0625 21.5007C17.2768 20.8197 16.6987 19.9736 16.3483 19.086C16.015 18.2416 15.9521 17.5282 15.9521 17.1022H23.9521ZM23.302 15.4552L28.9588 9.79832C26.3544 7.19388 23.1017 6.84836 21.3081 6.84836V14.8484V22.8484C21.2252 22.8484 20.7961 22.8438 20.1708 22.6535C19.5136 22.4534 18.5503 22.0172 17.6451 21.112L23.302 15.4552ZM21.3081 14.8484V6.84836H16.8437V14.8484V22.8484H21.3081V14.8484ZM16.8437 14.8484H8.84373V19.3561H16.8437H24.8437V14.8484H16.8437ZM16.8437 29.9754V37.9754H21.6116V29.9754V21.9754H16.8437V29.9754ZM21.6116 29.9754V37.9754C23.5645 37.9754 26.5213 37.5416 29.0047 35.2618C31.6175 32.8631 32.2555 29.7746 32.2555 27.5481H24.2555H16.2555C16.2555 26.9398 16.4528 25.0649 18.1844 23.4753C19.7864 22.0046 21.4212 21.9754 21.6116 21.9754V29.9754ZM24.2555 27.5481H32.2555C32.2555 25.1161 31.445 21.9822 28.6654 19.6879C26.1798 17.6363 23.3348 17.2942 21.5249 17.2942V25.2942V33.2942C21.4559 33.2942 21.1115 33.29 20.5973 33.1485C20.0644 33.0019 19.279 32.6867 18.4803 32.0275C16.611 30.4845 16.2555 28.4776 16.2555 27.5481H24.2555ZM21.5249 25.2942V17.2942H16.8437V25.2942V33.2942H21.5249V25.2942ZM16.8437 25.2942H8.84373V29.9754H16.8437H24.8437V25.2942H16.8437ZM36.3613 36.3469H28.3613C28.3613 40.7652 31.9431 44.3469 36.3613 44.3469V36.3469ZM36.3613 8.43347V0.433468C31.9431 0.433468 28.3613 4.01519 28.3613 8.43347H36.3613ZM58.0766 8.43347H66.0766C66.0766 4.01519 62.4949 0.433468 58.0766 0.433468V8.43347ZM58.0766 15.3251V23.3251C62.4949 23.3251 66.0766 19.7434 66.0766 15.3251H58.0766ZM45.6803 15.3251V7.32515C41.262 7.32515 37.6803 10.9069 37.6803 15.3251H45.6803ZM45.6803 18.8793H37.6803C37.6803 23.2976 41.262 26.8793 45.6803 26.8793V18.8793ZM56.4729 18.8793H64.4729C64.4729 14.4611 60.8912 10.8793 56.4729 10.8793V18.8793ZM56.4729 25.9444V33.9444C60.8912 33.9444 64.4729 30.3627 64.4729 25.9444H56.4729ZM45.6803 25.9444V17.9444C41.262 17.9444 37.6803 21.5261 37.6803 25.9444H45.6803ZM45.6803 29.4552H37.6803C37.6803 33.8735 41.262 37.4552 45.6803 37.4552V29.4552ZM58.0766 29.4552H66.0766C66.0766 25.037 62.4949 21.4552 58.0766 21.4552V29.4552ZM58.0766 36.3469V44.3469C62.4949 44.3469 66.0766 40.7652 66.0766 36.3469H58.0766ZM36.3613 36.3469H44.3613V8.43347H36.3613H28.3613V36.3469H36.3613ZM36.3613 8.43347V16.4335H58.0766V8.43347V0.433468H36.3613V8.43347ZM58.0766 8.43347H50.0766V15.3251H58.0766H66.0766V8.43347H58.0766ZM58.0766 15.3251V7.32515H45.6803V15.3251V23.3251H58.0766V15.3251ZM45.6803 15.3251H37.6803V18.8793H45.6803H53.6803V15.3251H45.6803ZM45.6803 18.8793V26.8793H56.4729V18.8793V10.8793H45.6803V18.8793ZM56.4729 18.8793H48.4729V25.9444H56.4729H64.4729V18.8793H56.4729ZM56.4729 25.9444V17.9444H45.6803V25.9444V33.9444H56.4729V25.9444ZM45.6803 25.9444H37.6803V29.4552H45.6803H53.6803V25.9444H45.6803ZM45.6803 29.4552V37.4552H58.0766V29.4552V21.4552H45.6803V29.4552ZM58.0766 29.4552H50.0766V36.3469H58.0766H66.0766V29.4552H58.0766ZM58.0766 36.3469V28.3469H36.3613V36.3469V44.3469H58.0766V36.3469ZM68.468 36.3469L60.9985 33.4821C60.0551 35.9418 60.3832 38.7082 61.8756 40.8791C63.368 43.05 65.8336 44.3469 68.468 44.3469V36.3469ZM79.1739 8.43347V0.433468C75.861 0.433468 72.8908 2.47543 71.7045 5.56863L79.1739 8.43347ZM88.9263 8.43347L96.3919 5.55853C95.2027 2.47062 92.2352 0.433468 88.9263 0.433468V8.43347ZM99.6756 36.3469V44.3469C102.312 44.3469 104.779 43.0481 106.271 40.8746C107.763 38.7012 108.089 35.9322 107.141 33.472L99.6756 36.3469ZM89.9665 36.3469L82.5149 39.2577C83.7137 42.3268 86.6716 44.3469 89.9665 44.3469V36.3469ZM87.7993 30.7989L95.251 27.8881C94.0521 24.819 91.0942 22.7989 87.7993 22.7989V30.7989ZM80.3008 30.7989V22.7989C76.9861 22.7989 74.0147 24.8431 72.8296 27.9388L80.3008 30.7989ZM78.177 36.3469V44.3469C81.4918 44.3469 84.4632 42.3027 85.6483 39.207L78.177 36.3469ZM81.4278 24.2973L73.961 21.4255C73.0149 23.8855 73.3411 26.6538 74.8333 28.8264C76.3255 30.9991 78.7921 32.2973 81.4278 32.2973V24.2973ZM86.6724 24.2973V32.2973C89.316 32.2973 91.7889 30.9913 93.2795 28.808C94.7701 26.6247 95.0858 23.846 94.123 21.3839L86.6724 24.2973ZM84.0284 17.5357L91.4791 14.6223C90.2766 11.547 87.3082 9.52651 84.0061 9.53571C80.7041 9.54491 77.747 11.5819 76.5617 14.6638L84.0284 17.5357ZM68.468 36.3469L75.9374 39.2118L86.6434 11.2983L79.1739 8.43347L71.7045 5.56863L60.9985 33.4821L68.468 36.3469ZM79.1739 8.43347V16.4335H88.9263V8.43347V0.433468H79.1739V8.43347ZM88.9263 8.43347L81.4607 11.3084L92.21 39.2219L99.6756 36.3469L107.141 33.472L96.3919 5.55853L88.9263 8.43347ZM99.6756 36.3469V28.3469H89.9665V36.3469V44.3469H99.6756V36.3469ZM89.9665 36.3469L97.4182 33.4361L95.251 27.8881L87.7993 30.7989L80.3477 33.7097L82.5149 39.2577L89.9665 36.3469ZM87.7993 30.7989V22.7989H80.3008V30.7989V38.7989H87.7993V30.7989ZM80.3008 30.7989L72.8296 27.9388L70.7057 33.4868L78.177 36.3469L85.6483 39.207L87.7721 33.659L80.3008 30.7989ZM78.177 36.3469V28.3469H68.468V36.3469V44.3469H78.177V36.3469ZM81.4278 24.2973V32.2973H86.6724V24.2973V16.2973H81.4278V24.2973ZM86.6724 24.2973L94.123 21.3839L91.4791 14.6223L84.0284 17.5357L76.5778 20.4491L79.2218 27.2107L86.6724 24.2973ZM84.0284 17.5357L76.5617 14.6638L73.961 21.4255L81.4278 24.2973L88.8946 27.1692L91.4952 20.4075L84.0284 17.5357ZM111.155 36.3469H103.155C103.155 40.7652 106.737 44.3469 111.155 44.3469V36.3469ZM111.155 8.43347V0.433468C106.737 0.433468 103.155 4.01519 103.155 8.43347H111.155ZM131.96 9.86382L127.673 16.6185C127.693 16.6307 127.712 16.6429 127.732 16.655L131.96 9.86382ZM135.384 13.7214L128.128 17.0903C128.136 17.1071 128.144 17.1238 128.152 17.1405L135.384 13.7214ZM135.211 24.384L142.234 28.2148V28.2148L135.211 24.384ZM131.57 28.1549L135.553 35.093C135.585 35.0746 135.617 35.056 135.648 35.0373L131.57 28.1549ZM120.474 29.4986V21.4986C116.056 21.4986 112.474 25.0803 112.474 29.4986H120.474ZM120.474 36.3469V44.3469C124.892 44.3469 128.474 40.7652 128.474 36.3469H120.474ZM120.474 22.2602H112.474C112.474 26.6784 116.056 30.2602 120.474 30.2602V22.2602ZM126.195 21.3933L120.263 16.026C120.258 16.0312 120.254 16.0364 120.249 16.0416L126.195 21.3933ZM126.282 16.5821L120.064 21.6157C120.104 21.6654 120.145 21.7146 120.186 21.7633L126.282 16.5821ZM120.474 15.6719V7.6719C116.056 7.6719 112.474 11.2536 112.474 15.6719H120.474ZM111.155 36.3469H119.155V8.43347H111.155H103.155V36.3469H111.155ZM111.155 8.43347V16.4335H126.195V8.43347V0.433468H111.155V8.43347ZM126.195 8.43347V16.4335C127.487 16.4335 127.798 16.6975 127.673 16.6185L131.96 9.86382L136.247 3.10919C133.117 1.12297 129.585 0.433468 126.195 0.433468V8.43347ZM131.96 9.86382L127.732 16.655C127.958 16.7962 128.04 16.8997 128.128 17.0903L135.384 13.7214L142.64 10.3525C141.226 7.30679 139.025 4.83857 136.188 3.07264L131.96 9.86382ZM135.384 13.7214L128.152 17.1405C128.348 17.5564 128.511 18.1346 128.511 19.0094H136.511H144.511C144.511 16.0121 143.923 13.065 142.617 10.3024L135.384 13.7214ZM136.511 19.0094H128.511C128.511 19.8033 128.35 20.255 128.188 20.5532L135.211 24.384L142.234 28.2148C143.805 25.3345 144.511 22.2031 144.511 19.0094H136.511ZM135.211 24.384L128.188 20.5532C128.011 20.8764 127.816 21.0802 127.491 21.2726L131.57 28.1549L135.648 35.0373C138.444 33.3803 140.676 31.0702 142.234 28.2148L135.211 24.384ZM131.57 28.1549L127.587 21.2169C127.449 21.2961 127.027 21.4986 126.022 21.4986V29.4986V37.4986C129.293 37.4986 132.57 36.8053 135.553 35.093L131.57 28.1549ZM126.022 29.4986V21.4986H120.474V29.4986V37.4986H126.022V29.4986ZM120.474 29.4986H112.474V36.3469H120.474H128.474V29.4986H120.474ZM120.474 36.3469V28.3469H111.155V36.3469V44.3469H120.474V36.3469ZM120.474 22.2602V30.2602H123.855V22.2602V14.2602H120.474V22.2602ZM123.855 22.2602V30.2602C126.359 30.2602 129.639 29.5259 132.142 26.745L126.195 21.3933L120.249 16.0416C120.915 15.301 121.705 14.8144 122.441 14.5415C123.132 14.2857 123.654 14.2602 123.855 14.2602V22.2602ZM126.195 21.3933L132.128 26.7606C134.264 24.399 135.019 21.556 135.019 19.0094H127.019H119.019C119.019 18.7582 119.054 18.3012 119.251 17.73C119.456 17.1372 119.794 16.5439 120.263 16.026L126.195 21.3933ZM127.019 19.0094H135.019C135.019 16.7752 134.488 13.8841 132.377 11.4009L126.282 16.5821L120.186 21.7633C119.058 20.436 119.019 19.163 119.019 19.0094H127.019ZM126.282 16.5821L132.5 11.5485C130.063 8.53867 126.683 7.6719 124.028 7.6719V15.6719V23.6719C123.753 23.6719 123.135 23.6326 122.354 23.3174C121.52 22.9806 120.706 22.4084 120.064 21.6157L126.282 16.5821ZM124.028 15.6719V7.6719H120.474V15.6719V23.6719H124.028V15.6719ZM120.474 15.6719H112.474V22.2602H120.474H128.474V15.6719H120.474ZM133.907 36.3469L126.438 33.4821C125.494 35.9418 125.822 38.7082 127.315 40.8791C128.807 43.05 131.273 44.3469 133.907 44.3469V36.3469ZM144.613 8.43347V0.433468C141.3 0.433468 138.33 2.47543 137.144 5.56863L144.613 8.43347ZM154.365 8.43347L161.831 5.55853C160.642 2.47062 157.674 0.433468 154.365 0.433468V8.43347ZM165.115 36.3469V44.3469C167.751 44.3469 170.218 43.0481 171.71 40.8746C173.202 38.7012 173.528 35.9322 172.58 33.472L165.115 36.3469ZM155.406 36.3469L147.954 39.2577C149.153 42.3268 152.111 44.3469 155.406 44.3469V36.3469ZM153.238 30.7989L160.69 27.8881C159.491 24.819 156.533 22.7989 153.238 22.7989V30.7989ZM145.74 30.7989V22.7989C142.425 22.7989 139.454 24.8431 138.269 27.9388L145.74 30.7989ZM143.616 36.3469V44.3469C146.931 44.3469 149.902 42.3027 151.087 39.207L143.616 36.3469ZM146.867 24.2973L139.4 21.4255C138.454 23.8855 138.78 26.6538 140.272 28.8264C141.765 30.9991 144.231 32.2973 146.867 32.2973V24.2973ZM152.111 24.2973V32.2973C154.755 32.2973 157.228 30.9913 158.719 28.808C160.209 26.6247 160.525 23.846 159.562 21.3839L152.111 24.2973ZM149.468 17.5357L156.918 14.6223C155.716 11.547 152.747 9.52651 149.445 9.53571C146.143 9.54491 143.186 11.5819 142.001 14.6638L149.468 17.5357ZM133.907 36.3469L141.377 39.2118L152.082 11.2983L144.613 8.43347L137.144 5.56863L126.438 33.4821L133.907 36.3469ZM144.613 8.43347V16.4335H154.365V8.43347V0.433468H144.613V8.43347ZM154.365 8.43347L146.9 11.3084L157.649 39.2219L165.115 36.3469L172.58 33.472L161.831 5.55853L154.365 8.43347ZM165.115 36.3469V28.3469H155.406V36.3469V44.3469H165.115V36.3469ZM155.406 36.3469L162.857 33.4361L160.69 27.8881L153.238 30.7989L145.787 33.7097L147.954 39.2577L155.406 36.3469ZM153.238 30.7989V22.7989H145.74V30.7989V38.7989H153.238V30.7989ZM145.74 30.7989L138.269 27.9388L136.145 33.4868L143.616 36.3469L151.087 39.207L153.211 33.659L145.74 30.7989ZM143.616 36.3469V28.3469H133.907V36.3469V44.3469H143.616V36.3469ZM146.867 24.2973V32.2973H152.111V24.2973V16.2973H146.867V24.2973ZM152.111 24.2973L159.562 21.3839L156.918 14.6223L149.468 17.5357L142.017 20.4491L144.661 27.2107L152.111 24.2973ZM149.468 17.5357L142.001 14.6638L139.4 21.4255L146.867 24.2973L154.334 27.1692L156.934 20.4075L149.468 17.5357ZM167.705 36.3469H159.705C159.705 40.7652 163.287 44.3469 167.705 44.3469V36.3469ZM167.705 8.43347V0.433468C163.287 0.433468 159.705 4.01519 159.705 8.43347H167.705ZM188.554 9.77713L184.457 16.6487C184.509 16.6794 184.56 16.7096 184.613 16.7392L188.554 9.77713ZM191.934 13.3747L184.699 16.7876C184.716 16.8246 184.734 16.8614 184.752 16.8981L191.934 13.3747ZM191.631 23.6038L198.266 28.0726C198.28 28.052 198.294 28.0313 198.308 28.0106L191.631 23.6038ZM188.033 26.9846L184.02 20.0644C181.728 21.3937 180.243 23.7715 180.054 26.4143C179.865 29.0571 180.997 31.6219 183.076 33.2637L188.033 26.9846ZM189.42 28.8918L196.754 25.6942C196.743 25.6692 196.732 25.6442 196.72 25.6193L189.42 28.8918ZM192.671 36.3469V44.3469C195.369 44.3469 197.886 42.9869 199.364 40.7298C200.842 38.4727 201.083 35.6225 200.004 33.1493L192.671 36.3469ZM182.962 36.3469L175.648 39.5869C176.929 42.4808 179.797 44.3469 182.962 44.3469V36.3469ZM180.101 29.8887L187.416 26.6487C187.395 26.6008 187.373 26.5531 187.351 26.5056L180.101 29.8887ZM179.451 28.9785L184.251 22.5785L184.251 22.5785L179.451 28.9785ZM177.024 28.7184V20.7184C172.606 20.7184 169.024 24.3001 169.024 28.7184H177.024ZM177.024 36.3469V44.3469C181.442 44.3469 185.024 40.7652 185.024 36.3469H177.024ZM177.024 21.5233H169.024C169.024 25.9416 172.606 29.5233 177.024 29.5233V21.5233ZM177.024 15.6719V7.6719C172.606 7.6719 169.024 11.2536 169.024 15.6719H177.024ZM167.705 36.3469H175.705V8.43347H167.705H159.705V36.3469H167.705ZM167.705 8.43347V16.4335H182.789V8.43347V0.433468H167.705V8.43347ZM182.789 8.43347V16.4335C184.159 16.4335 184.544 16.7006 184.457 16.6487L188.554 9.77713L192.65 2.90555C189.558 1.06212 186.1 0.433468 182.789 0.433468V8.43347ZM188.554 9.77713L184.613 16.7392C184.673 16.7732 184.705 16.7969 184.717 16.8063C184.729 16.8153 184.727 16.8152 184.718 16.8052C184.708 16.7951 184.699 16.7837 184.693 16.7744C184.687 16.7653 184.689 16.7677 184.699 16.7876L191.934 13.3747L199.17 9.96172C197.713 6.87394 195.404 4.46217 192.494 2.81508L188.554 9.77713ZM191.934 13.3747L184.752 16.8981C184.889 17.1776 185.061 17.6902 185.061 18.6193H193.061H201.061C201.061 15.6185 200.482 12.6347 199.117 9.85127L191.934 13.3747ZM193.061 18.6193H185.061C185.061 19.0698 184.971 19.1714 184.954 19.1971L191.631 23.6038L198.308 28.0106C200.198 25.1467 201.061 21.9252 201.061 18.6193H193.061ZM191.631 23.6038L184.995 19.135C184.703 19.5687 184.392 19.8482 184.02 20.0644L188.033 26.9846L192.047 33.9049C194.564 32.4452 196.651 30.4708 198.266 28.0726L191.631 23.6038ZM188.033 26.9846L183.076 33.2637C182.711 32.9755 182.469 32.6933 182.322 32.4919C182.179 32.2948 182.122 32.1682 182.12 32.1642L189.42 28.8918L196.72 25.6193C195.977 23.9598 194.818 22.1482 192.991 20.7056L188.033 26.9846ZM189.42 28.8918L182.087 32.0894L185.338 39.5445L192.671 36.3469L200.004 33.1493L196.754 25.6942L189.42 28.8918ZM192.671 36.3469V28.3469H182.962V36.3469V44.3469H192.671V36.3469ZM182.962 36.3469L190.277 33.1069L187.416 26.6487L180.101 29.8887L172.787 33.1287L175.648 39.5869L182.962 36.3469ZM180.101 29.8887L187.351 26.5056C186.915 25.5708 186.01 23.8976 184.251 22.5785L179.451 28.9785L174.651 35.3785C173.952 34.8539 173.515 34.3187 173.277 33.986C173.034 33.6457 172.903 33.3815 172.852 33.2718L180.101 29.8887ZM179.451 28.9785L184.251 22.5785C181.961 20.8608 179.497 20.7184 178.368 20.7184V28.7184V36.7184C178.173 36.7184 177.731 36.7042 177.14 36.5625C176.55 36.4209 175.62 36.1051 174.651 35.3785L179.451 28.9785ZM178.368 28.7184V20.7184H177.024V28.7184V36.7184H178.368V28.7184ZM177.024 28.7184H169.024V36.3469H177.024H185.024V28.7184H177.024ZM177.024 36.3469V28.3469H167.705V36.3469V44.3469H177.024V36.3469ZM177.024 21.5233V29.5233H180.448V21.5233V13.5233H177.024V21.5233ZM180.448 21.5233V29.5233C182.584 29.5233 185.676 29.0381 188.239 26.6539C190.909 24.1686 191.569 20.974 191.569 18.6193H183.569H175.569C175.569 18.2006 175.708 16.458 177.339 14.9408C178.861 13.5245 180.393 13.5233 180.448 13.5233V21.5233ZM183.569 18.6193H191.569C191.569 16.4332 191.029 13.3185 188.542 10.7939C186.033 8.24756 182.896 7.6719 180.665 7.6719V15.6719V23.6719C180.37 23.6719 178.685 23.5875 177.144 22.0235C175.625 20.4815 175.569 18.8404 175.569 18.6193H183.569ZM180.665 15.6719V7.6719H177.024V15.6719V23.6719H180.665V15.6719ZM177.024 15.6719H169.024V21.5233H177.024H185.024V15.6719H177.024ZM201.363 36.3469H193.363C193.363 40.7652 196.945 44.3469 201.363 44.3469V36.3469ZM201.363 15.2385H209.363C209.363 10.8202 205.781 7.23846 201.363 7.23846V15.2385ZM193.908 15.2385H185.908C185.908 19.6567 189.49 23.2385 193.908 23.2385V15.2385ZM193.908 8.43347V0.433468C189.49 0.433468 185.908 4.01519 185.908 8.43347H193.908ZM218.18 8.43347H226.18C226.18 4.01519 222.599 0.433468 218.18 0.433468V8.43347ZM218.18 15.2385V23.2385C222.599 23.2385 226.18 19.6567 226.18 15.2385H218.18ZM210.682 15.2385V7.23846C206.264 7.23846 202.682 10.8202 202.682 15.2385H210.682ZM210.682 36.3469V44.3469C215.1 44.3469 218.682 40.7652 218.682 36.3469H210.682ZM201.363 36.3469H209.363V15.2385H201.363H193.363V36.3469H201.363ZM201.363 15.2385V7.23846H193.908V15.2385V23.2385H201.363V15.2385ZM193.908 15.2385H201.908V8.43347H193.908H185.908V15.2385H193.908ZM193.908 8.43347V16.4335H218.18V8.43347V0.433468H193.908V8.43347ZM218.18 8.43347H210.18V15.2385H218.18H226.18V8.43347H218.18ZM218.18 15.2385V7.23846H210.682V15.2385V23.2385H218.18V15.2385ZM210.682 15.2385H202.682V36.3469H210.682H218.682V15.2385H210.682ZM210.682 36.3469V28.3469H201.363V36.3469V44.3469H210.682V36.3469ZM234.593 35.35L237.814 28.0275V28.0275L234.593 35.35ZM229.608 30.7556L222.552 34.5253C222.565 34.5502 222.579 34.5751 222.592 34.5998L229.608 30.7556ZM229.608 14.0248L222.592 10.1805C222.579 10.2053 222.565 10.2302 222.552 10.2551L229.608 14.0248ZM234.593 9.43038L231.371 2.10786L231.371 2.10786L234.593 9.43038ZM250.456 9.43038L253.678 2.10786L253.678 2.10786L250.456 9.43038ZM255.398 14.0248L248.341 17.7946C248.355 17.8195 248.368 17.8443 248.382 17.8691L255.398 14.0248ZM255.398 30.7556L248.382 26.9113C248.368 26.9361 248.355 26.9609 248.341 26.9858L255.398 30.7556ZM250.456 35.35L247.234 28.0275L250.456 35.35ZM246.382 27.3747L240.135 22.3772C240.106 22.414 240.077 22.451 240.048 22.4883L246.382 27.3747ZM246.382 17.4057L240.117 22.3807C240.171 22.4485 240.226 22.5154 240.282 22.5815L246.382 17.4057ZM238.58 17.4057L232.405 12.32C232.399 12.3266 232.394 12.3332 232.388 12.3397L238.58 17.4057ZM238.58 27.3747L232.246 32.2612C232.275 32.2985 232.304 32.3355 232.333 32.3723L238.58 27.3747ZM242.524 36.7804V28.7804C240.177 28.7804 238.698 28.4164 237.814 28.0275L234.593 35.35L231.371 42.6725C234.821 44.1908 238.63 44.7804 242.524 44.7804V36.7804ZM234.593 35.35L237.814 28.0275C237.288 27.7959 236.947 27.5016 236.624 26.9113L229.608 30.7556L222.592 34.5998C224.58 38.2284 227.563 40.997 231.371 42.6725L234.593 35.35ZM229.608 30.7556L236.664 26.9858C236.369 26.4329 235.918 25.0954 235.918 22.4335H227.918H219.918C219.918 26.6489 220.593 30.8594 222.552 34.5253L229.608 30.7556ZM227.918 22.4335H235.918C235.918 19.6878 236.377 18.3316 236.664 17.7945L229.608 14.0248L222.552 10.2551C220.585 13.9369 219.918 18.1865 219.918 22.4335H227.918ZM229.608 14.0248L236.624 17.8691C236.947 17.2788 237.288 16.9845 237.814 16.7529L234.593 9.43038L231.371 2.10786C227.563 3.78336 224.58 6.55202 222.592 10.1805L229.608 14.0248ZM234.593 9.43038L237.814 16.7529C238.698 16.364 240.177 16 242.524 16V8.00003V2.95639e-05C238.63 2.95639e-05 234.821 0.589609 231.371 2.10786L234.593 9.43038ZM242.524 8.00003V16C244.872 16 246.351 16.364 247.234 16.7529L250.456 9.43038L253.678 2.10786C250.228 0.589609 246.419 2.95639e-05 242.524 2.95639e-05V8.00003ZM250.456 9.43038L247.234 16.7529C247.744 16.9771 248.049 17.248 248.341 17.7946L255.398 14.0248L262.454 10.2551C260.492 6.58281 257.503 3.79081 253.678 2.10786L250.456 9.43038ZM255.398 14.0248L248.382 17.8691C248.665 18.3857 249.131 19.7122 249.131 22.4335H257.131H265.131C265.131 18.1621 264.442 13.8827 262.413 10.1806L255.398 14.0248ZM257.131 22.4335H249.131C249.131 25.0703 248.674 26.3784 248.382 26.9113L255.398 30.7556L262.413 34.5998C264.433 30.9139 265.131 26.674 265.131 22.4335H257.131ZM255.398 30.7556L248.341 26.9858C248.049 27.5324 247.744 27.8033 247.234 28.0275L250.456 35.35L253.678 42.6725C257.503 40.9896 260.492 38.1976 262.454 34.5253L255.398 30.7556ZM250.456 35.35L247.234 28.0275C246.351 28.4164 244.872 28.7804 242.524 28.7804V36.7804V44.7804C246.419 44.7804 250.228 44.1908 253.678 42.6725L250.456 35.35ZM242.524 28.8918V36.8918C245.739 36.8918 249.875 35.9439 252.716 32.2612L246.382 27.3747L240.048 22.4883C240.613 21.7557 241.316 21.2992 241.905 21.0675C242.426 20.8627 242.701 20.8918 242.524 20.8918V28.8918ZM246.382 27.3747L252.629 32.3723C255.16 29.2089 255.596 25.2935 255.596 22.4335H247.596H239.596C239.596 22.7716 239.581 23.0261 239.562 23.2072C239.553 23.2965 239.543 23.3627 239.536 23.408C239.528 23.4534 239.523 23.4741 239.523 23.4727C239.523 23.4714 239.53 23.4442 239.547 23.3949C239.564 23.3455 239.592 23.2704 239.635 23.1747C239.723 22.9835 239.878 22.699 240.135 22.3772L246.382 27.3747ZM247.596 22.4335H255.596C255.596 19.6469 255.229 15.4671 252.482 12.2298L246.382 17.4057L240.282 22.5815C239.949 22.1886 239.754 21.8366 239.649 21.6087C239.596 21.4938 239.563 21.4039 239.543 21.3459C239.524 21.2879 239.516 21.2559 239.516 21.2549C239.515 21.2538 239.521 21.2778 239.53 21.3304C239.538 21.3829 239.549 21.4588 239.559 21.5607C239.579 21.7673 239.596 22.0545 239.596 22.4335H247.596ZM246.382 17.4057L252.647 12.4306C249.779 8.81957 245.663 7.93196 242.524 7.93196V15.932V23.932C242.724 23.932 242.475 23.9637 241.978 23.7736C241.415 23.5586 240.704 23.1203 240.117 22.3807L246.382 17.4057ZM242.524 15.932V7.93196C239.382 7.93196 235.303 8.80104 232.405 12.32L238.58 17.4057L244.756 22.4913C244.176 23.1946 243.494 23.5998 242.973 23.7944C242.513 23.9663 242.301 23.932 242.524 23.932V15.932ZM238.58 17.4057L232.388 12.3397C229.753 15.5614 229.41 19.6854 229.41 22.4335H237.41H245.41C245.41 22.0466 245.426 21.7499 245.447 21.5327C245.468 21.3132 245.491 21.2067 245.494 21.1914C245.498 21.1738 245.472 21.295 245.377 21.5091C245.281 21.7256 245.096 22.0747 244.772 22.4716L238.58 17.4057ZM237.41 22.4335H229.41C229.41 25.2523 229.819 29.1152 232.246 32.2612L238.58 27.3747L244.914 22.4883C245.164 22.8122 245.311 23.093 245.39 23.2738C245.469 23.4521 245.49 23.5515 245.487 23.5372C245.484 23.5237 245.463 23.4296 245.444 23.2362C245.425 23.0443 245.41 22.78 245.41 22.4335H237.41ZM238.58 27.3747L232.333 32.3723C235.207 35.965 239.31 36.8918 242.524 36.8918V28.8918V20.8918C242.323 20.8918 242.561 20.8598 243.045 21.0458C243.592 21.2561 244.269 21.6791 244.827 22.3772L238.58 27.3747ZM259.726 36.3469H251.726C251.726 40.7652 255.308 44.3469 259.726 44.3469V36.3469ZM259.726 8.43347V0.433468C255.308 0.433468 251.726 4.01519 251.726 8.43347H259.726ZM281.355 8.43347H289.355C289.355 4.01519 285.773 0.433468 281.355 0.433468V8.43347ZM281.355 15.2385V23.2385C285.773 23.2385 289.355 19.6567 289.355 15.2385H281.355ZM269.045 15.2385V7.23846C264.627 7.23846 261.045 10.8202 261.045 15.2385H269.045ZM269.045 18.9227H261.045C261.045 23.341 264.627 26.9227 269.045 26.9227V18.9227ZM279.708 18.9227H287.708C287.708 14.5044 284.126 10.9227 279.708 10.9227V18.9227ZM279.708 25.9011V33.9011C284.126 33.9011 287.708 30.3193 287.708 25.9011H279.708ZM269.045 25.9011V17.9011C264.627 17.9011 261.045 21.4828 261.045 25.9011H269.045ZM269.045 36.3469V44.3469C273.463 44.3469 277.045 40.7652 277.045 36.3469H269.045ZM259.726 36.3469H267.726V8.43347H259.726H251.726V36.3469H259.726ZM259.726 8.43347V16.4335H281.355V8.43347V0.433468H259.726V8.43347ZM281.355 8.43347H273.355V15.2385H281.355H289.355V8.43347H281.355ZM281.355 15.2385V7.23846H269.045V15.2385V23.2385H281.355V15.2385ZM269.045 15.2385H261.045V18.9227H269.045H277.045V15.2385H269.045ZM269.045 18.9227V26.9227H279.708V18.9227V10.9227H269.045V18.9227ZM279.708 18.9227H271.708V25.9011H279.708H287.708V18.9227H279.708ZM279.708 25.9011V17.9011H269.045V25.9011V33.9011H279.708V25.9011ZM269.045 25.9011H261.045V36.3469H269.045H277.045V25.9011H269.045ZM269.045 36.3469V28.3469H259.726V36.3469V44.3469H269.045V36.3469ZM297.788 35.35L301.01 28.0275V28.0275L297.788 35.35ZM292.804 30.7556L285.747 34.5253C285.761 34.5502 285.774 34.5751 285.788 34.5998L292.804 30.7556ZM292.804 14.0248L285.788 10.1805C285.774 10.2053 285.761 10.2302 285.747 10.2551L292.804 14.0248ZM297.788 9.43038L294.566 2.10786V2.10786L297.788 9.43038ZM313.652 9.43038L316.874 2.10786V2.10786L313.652 9.43038ZM318.593 14.0248L311.537 17.7946C311.55 17.8195 311.564 17.8443 311.577 17.8691L318.593 14.0248ZM318.593 30.7556L311.577 26.9113C311.564 26.9361 311.55 26.9609 311.537 26.9858L318.593 30.7556ZM313.652 35.35L310.43 28.0275L313.652 35.35ZM309.578 27.3747L303.331 22.3772C303.301 22.414 303.272 22.451 303.243 22.4883L309.578 27.3747ZM309.578 17.4057L303.313 22.3807C303.367 22.4485 303.422 22.5154 303.478 22.5815L309.578 17.4057ZM301.776 17.4057L295.6 12.32C295.595 12.3266 295.59 12.3332 295.584 12.3397L301.776 17.4057ZM301.776 27.3747L295.442 32.2612C295.47 32.2985 295.499 32.3355 295.529 32.3723L301.776 27.3747ZM305.72 36.7804V28.7804C303.373 28.7804 301.894 28.4164 301.01 28.0275L297.788 35.35L294.566 42.6725C298.017 44.1908 301.826 44.7804 305.72 44.7804V36.7804ZM297.788 35.35L301.01 28.0275C300.484 27.7959 300.143 27.5016 299.819 26.9113L292.804 30.7556L285.788 34.5998C287.776 38.2284 290.758 40.997 294.566 42.6725L297.788 35.35ZM292.804 30.7556L299.86 26.9858C299.564 26.4329 299.113 25.0954 299.113 22.4335H291.113H283.113C283.113 26.6489 283.789 30.8594 285.747 34.5253L292.804 30.7556ZM291.113 22.4335H299.113C299.113 19.6878 299.573 18.3316 299.86 17.7945L292.804 14.0248L285.747 10.2551C283.781 13.9369 283.113 18.1865 283.113 22.4335H291.113ZM292.804 14.0248L299.819 17.8691C300.143 17.2788 300.484 16.9845 301.01 16.7529L297.788 9.43038L294.566 2.10786C290.758 3.78336 287.776 6.55202 285.788 10.1805L292.804 14.0248ZM297.788 9.43038L301.01 16.7529C301.894 16.364 303.373 16 305.72 16V8.00003V2.95639e-05C301.826 2.95639e-05 298.017 0.589609 294.566 2.10786L297.788 9.43038ZM305.72 8.00003V16C308.067 16 309.546 16.364 310.43 16.7529L313.652 9.43038L316.874 2.10786C313.423 0.589609 309.614 2.95639e-05 305.72 2.95639e-05V8.00003ZM313.652 9.43038L310.43 16.7529C310.94 16.9771 311.245 17.248 311.537 17.7946L318.593 14.0248L325.649 10.2551C323.688 6.58281 320.699 3.79081 316.874 2.10786L313.652 9.43038ZM318.593 14.0248L311.577 17.8691C311.861 18.3857 312.327 19.7122 312.327 22.4335H320.327H328.327C328.327 18.1621 327.638 13.8827 325.609 10.1806L318.593 14.0248ZM320.327 22.4335H312.327C312.327 25.0703 311.869 26.3784 311.577 26.9113L318.593 30.7556L325.609 34.5998C327.629 30.9139 328.327 26.674 328.327 22.4335H320.327ZM318.593 30.7556L311.537 26.9858C311.245 27.5324 310.94 27.8033 310.43 28.0275L313.652 35.35L316.874 42.6725C320.699 40.9896 323.688 38.1976 325.649 34.5253L318.593 30.7556ZM313.652 35.35L310.43 28.0275C309.546 28.4164 308.067 28.7804 305.72 28.7804V36.7804V44.7804C309.614 44.7804 313.423 44.1908 316.874 42.6725L313.652 35.35ZM305.72 28.8918V36.8918C308.934 36.8918 313.071 35.9439 315.912 32.2612L309.578 27.3747L303.243 22.4883C303.809 21.7557 304.511 21.2992 305.1 21.0675C305.621 20.8627 305.897 20.8918 305.72 20.8918V28.8918ZM309.578 27.3747L315.825 32.3723C318.355 29.2089 318.791 25.2935 318.791 22.4335H310.791H302.791C302.791 22.7716 302.776 23.0261 302.758 23.2072C302.748 23.2965 302.739 23.3627 302.731 23.408C302.724 23.4534 302.719 23.4741 302.719 23.4727C302.719 23.4714 302.726 23.4442 302.743 23.3949C302.759 23.3455 302.788 23.2704 302.831 23.1747C302.918 22.9835 303.073 22.699 303.331 22.3772L309.578 27.3747ZM310.791 22.4335H318.791C318.791 19.6469 318.425 15.4671 315.678 12.2298L309.578 17.4057L303.478 22.5815C303.144 22.1886 302.95 21.8366 302.845 21.6087C302.792 21.4938 302.758 21.4039 302.739 21.3459C302.719 21.2879 302.712 21.2559 302.711 21.2549C302.711 21.2538 302.717 21.2778 302.725 21.3304C302.734 21.3829 302.745 21.4588 302.755 21.5607C302.775 21.7673 302.791 22.0545 302.791 22.4335H310.791ZM309.578 17.4057L315.843 12.4306C312.975 8.81957 308.859 7.93196 305.72 7.93196V15.932V23.932C305.919 23.932 305.671 23.9637 305.173 23.7736C304.61 23.5586 303.9 23.1203 303.313 22.3807L309.578 17.4057ZM305.72 15.932V7.93196C302.578 7.93196 298.498 8.80104 295.6 12.32L301.776 17.4057L307.951 22.4913C307.372 23.1946 306.69 23.5998 306.169 23.7944C305.709 23.9663 305.496 23.932 305.72 23.932V15.932ZM301.776 17.4057L295.584 12.3397C292.948 15.5614 292.606 19.6854 292.606 22.4335H300.606H308.606C308.606 22.0466 308.621 21.7499 308.642 21.5327C308.663 21.3132 308.686 21.2067 308.69 21.1914C308.694 21.1738 308.668 21.295 308.573 21.5091C308.476 21.7256 308.292 22.0747 307.967 22.4716L301.776 17.4057ZM300.606 22.4335H292.606C292.606 25.2523 293.015 29.1152 295.442 32.2612L301.776 27.3747L308.11 22.4883C308.36 22.8122 308.506 23.093 308.586 23.2738C308.664 23.4521 308.686 23.5515 308.683 23.5372C308.68 23.5237 308.659 23.4296 308.64 23.2362C308.621 23.0443 308.606 22.78 308.606 22.4335H300.606ZM301.776 27.3747L295.529 32.3723C298.403 35.965 302.506 36.8918 305.72 36.8918V28.8918V20.8918C305.519 20.8918 305.757 20.8598 306.241 21.0458C306.788 21.2561 307.464 21.6791 308.023 22.3772L301.776 27.3747ZM329.293 35.48L326.18 42.8492L329.293 35.48ZM324.439 31.6658L317.853 36.2076C317.871 36.2331 317.888 36.2584 317.906 36.2837L324.439 31.6658ZM322.705 8.43347V0.433468C318.287 0.433468 314.705 4.01519 314.705 8.43347H322.705ZM332.024 8.43347H340.024C340.024 4.01519 336.442 0.433468 332.024 0.433468V8.43347ZM340.52 8.43347V0.433468C336.101 0.433468 332.52 4.01519 332.52 8.43347H340.52ZM349.838 8.43347H357.838C357.838 4.01519 354.257 0.433468 349.838 0.433468V8.43347ZM348.061 31.6658L341.529 27.0479C341.511 27.0731 341.493 27.0985 341.476 27.1239L348.061 31.6658ZM343.25 35.48L340.136 28.1109C340.124 28.1162 340.111 28.1215 340.099 28.1269L343.25 35.48ZM336.272 36.7804V28.7804C334.564 28.7804 333.323 28.4976 332.407 28.1109L329.293 35.48L326.18 42.8492C329.368 44.1962 332.779 44.7804 336.272 44.7804V36.7804ZM329.293 35.48L332.407 28.1109C331.608 27.7732 331.222 27.4027 330.972 27.0479L324.439 31.6658L317.906 36.2837C320.025 39.2808 322.876 41.4532 326.18 42.8492L329.293 35.48ZM324.439 31.6658L331.025 27.1239C330.966 27.0388 330.705 26.642 330.705 25.4676H322.705H314.705C314.705 29.2055 315.6 32.9409 317.853 36.2076L324.439 31.6658ZM322.705 25.4676H330.705V8.43347H322.705H314.705V25.4676H322.705ZM322.705 8.43347V16.4335H332.024V8.43347V0.433468H322.705V8.43347ZM332.024 8.43347H324.024V24.384H332.024H340.024V8.43347H332.024ZM332.024 24.384H324.024C324.024 27.0052 324.633 30.459 327.264 33.2512C329.979 36.1327 333.497 36.8918 336.272 36.8918V28.8918V20.8918C336.215 20.8918 337.609 20.8995 338.908 22.2784C340.124 23.5681 340.024 24.768 340.024 24.384H332.024ZM336.272 28.8918V36.8918C339.046 36.8918 342.565 36.1327 345.28 33.2512C347.911 30.459 348.52 27.0052 348.52 24.384H340.52H332.52C332.52 24.768 332.42 23.5681 333.635 22.2784C334.935 20.8995 336.329 20.8918 336.272 20.8918V28.8918ZM340.52 24.384H348.52V8.43347H340.52H332.52V24.384H340.52ZM340.52 8.43347V16.4335H349.838V8.43347V0.433468H340.52V8.43347ZM349.838 8.43347H341.838V25.4676H349.838H357.838V8.43347H349.838ZM349.838 25.4676H341.838C341.838 26.6024 341.583 26.9708 341.529 27.0479L348.061 31.6658L354.594 36.2837C356.909 33.0088 357.838 29.2451 357.838 25.4676H349.838ZM348.061 31.6658L341.476 27.1239C341.265 27.4292 340.922 27.7789 340.136 28.1109L343.25 35.48L346.364 42.8492C349.681 41.4474 352.546 39.2543 354.647 36.2076L348.061 31.6658ZM343.25 35.48L340.099 28.1269C339.246 28.4923 338.025 28.7804 336.272 28.7804V36.7804V44.7804C339.778 44.7804 343.209 44.2016 346.402 42.8332L343.25 35.48ZM353.102 36.3469H345.102C345.102 40.7652 348.684 44.3469 353.102 44.3469V36.3469ZM353.102 8.43347V0.433468C348.684 0.433468 345.102 4.01519 345.102 8.43347H353.102ZM373.95 9.77713L369.854 16.6487C369.905 16.6794 369.957 16.7096 370.009 16.7392L373.95 9.77713ZM377.331 13.3747L370.096 16.7876C370.113 16.8246 370.131 16.8614 370.149 16.8981L377.331 13.3747ZM377.028 23.6038L383.663 28.0726C383.677 28.052 383.691 28.0313 383.704 28.0106L377.028 23.6038ZM373.43 26.9846L369.416 20.0644C367.124 21.3937 365.639 23.7715 365.45 26.4143C365.262 29.0571 366.393 31.6219 368.473 33.2637L373.43 26.9846ZM374.817 28.8918L382.15 25.6942C382.139 25.6692 382.128 25.6442 382.117 25.6193L374.817 28.8918ZM378.068 36.3469V44.3469C380.766 44.3469 383.282 42.9869 384.76 40.7298C386.239 38.4727 386.479 35.6225 385.401 33.1493L378.068 36.3469ZM368.359 36.3469L361.044 39.5869C362.326 42.4808 365.194 44.3469 368.359 44.3469V36.3469ZM365.498 29.8887L372.813 26.6487C372.791 26.6008 372.77 26.5531 372.748 26.5056L365.498 29.8887ZM364.848 28.9785L369.648 22.5785V22.5785L364.848 28.9785ZM362.421 28.7184V20.7184C358.002 20.7184 354.421 24.3001 354.421 28.7184H362.421ZM362.421 36.3469V44.3469C366.839 44.3469 370.421 40.7652 370.421 36.3469H362.421ZM362.421 21.5233H354.421C354.421 25.9416 358.002 29.5233 362.421 29.5233V21.5233ZM362.421 15.6719V7.6719C358.002 7.6719 354.421 11.2536 354.421 15.6719H362.421ZM353.102 36.3469H361.102V8.43347H353.102H345.102V36.3469H353.102ZM353.102 8.43347V16.4335H368.185V8.43347V0.433468H353.102V8.43347ZM368.185 8.43347V16.4335C369.556 16.4335 369.941 16.7006 369.854 16.6487L373.95 9.77713L378.047 2.90555C374.954 1.06212 371.496 0.433468 368.185 0.433468V8.43347ZM373.95 9.77713L370.009 16.7392C370.069 16.7732 370.102 16.7969 370.114 16.8063C370.125 16.8153 370.124 16.8152 370.114 16.8052C370.105 16.7951 370.096 16.7837 370.089 16.7744C370.083 16.7653 370.086 16.7677 370.096 16.7876L377.331 13.3747L384.566 9.96172C383.11 6.87394 380.801 4.46217 377.891 2.81508L373.95 9.77713ZM377.331 13.3747L370.149 16.8981C370.286 17.1776 370.458 17.6902 370.458 18.6193H378.458H386.458C386.458 15.6185 385.879 12.6347 384.513 9.85127L377.331 13.3747ZM378.458 18.6193H370.458C370.458 19.0698 370.368 19.1714 370.351 19.1971L377.028 23.6038L383.704 28.0106C385.595 25.1467 386.458 21.9252 386.458 18.6193H378.458ZM377.028 23.6038L370.392 19.135C370.1 19.5687 369.789 19.8482 369.416 20.0644L373.43 26.9846L377.444 33.9049C379.961 32.4452 382.048 30.4708 383.663 28.0726L377.028 23.6038ZM373.43 26.9846L368.473 33.2637C368.108 32.9755 367.865 32.6933 367.719 32.4919C367.575 32.2948 367.519 32.1682 367.517 32.1642L374.817 28.8918L382.117 25.6193C381.373 23.9598 380.215 22.1482 378.387 20.7056L373.43 26.9846ZM374.817 28.8918L367.484 32.0894L370.735 39.5445L378.068 36.3469L385.401 33.1493L382.15 25.6942L374.817 28.8918ZM378.068 36.3469V28.3469H368.359V36.3469V44.3469H378.068V36.3469ZM368.359 36.3469L375.673 33.1069L372.813 26.6487L365.498 29.8887L358.184 33.1287L361.044 39.5869L368.359 36.3469ZM365.498 29.8887L372.748 26.5056C372.311 25.5708 371.407 23.8976 369.648 22.5785L364.848 28.9785L360.048 35.3785C359.349 34.8539 358.912 34.3187 358.674 33.986C358.431 33.6457 358.3 33.3815 358.249 33.2718L365.498 29.8887ZM364.848 28.9785L369.648 22.5785C367.358 20.8608 364.893 20.7184 363.764 20.7184V28.7184V36.7184C363.57 36.7184 363.127 36.7042 362.537 36.5625C361.946 36.4209 361.017 36.1051 360.048 35.3785L364.848 28.9785ZM363.764 28.7184V20.7184H362.421V28.7184V36.7184H363.764V28.7184ZM362.421 28.7184H354.421V36.3469H362.421H370.421V28.7184H362.421ZM362.421 36.3469V28.3469H353.102V36.3469V44.3469H362.421V36.3469ZM362.421 21.5233V29.5233H365.845V21.5233V13.5233H362.421V21.5233ZM365.845 21.5233V29.5233C367.981 29.5233 371.073 29.0381 373.635 26.6539C376.306 24.1686 376.966 20.974 376.966 18.6193H368.966H360.966C360.966 18.2006 361.105 16.458 362.736 14.9408C364.257 13.5245 365.789 13.5233 365.845 13.5233V21.5233ZM368.966 18.6193H376.966C376.966 16.4332 376.426 13.3185 373.938 10.7939C371.429 8.24756 368.293 7.6719 366.062 7.6719V15.6719V23.6719C365.766 23.6719 364.082 23.5875 362.541 22.0235C361.022 20.4815 360.966 18.8404 360.966 18.6193H368.966ZM366.062 15.6719V7.6719H362.421V15.6719V23.6719H366.062V15.6719ZM362.421 15.6719H354.421V21.5233H362.421H370.421V15.6719H362.421ZM389.927 36.3469H381.927C381.927 40.7652 385.509 44.3469 389.927 44.3469V36.3469ZM389.927 8.43347V0.433468C385.509 0.433468 381.927 4.01519 381.927 8.43347H389.927ZM398.856 8.43347L406.035 4.90419C404.69 2.16734 401.906 0.433468 398.856 0.433468V8.43347ZM405.184 21.3066L398.005 24.8359C399.354 27.5798 402.148 29.3149 405.206 29.3066C408.263 29.2983 411.049 27.548 412.383 24.7968L405.184 21.3066ZM411.426 8.43347V0.433468C408.36 0.433468 405.564 2.18503 404.227 4.94328L411.426 8.43347ZM420.355 8.43347H428.355C428.355 4.01519 424.773 0.433468 420.355 0.433468V8.43347ZM420.355 36.3469V44.3469C424.773 44.3469 428.355 40.7652 428.355 36.3469H420.355ZM411.036 36.3469H403.036C403.036 40.7652 406.617 44.3469 411.036 44.3469V36.3469ZM411.036 24.4707H419.036C419.036 20.7458 416.465 17.5138 412.835 16.6758C409.206 15.8378 405.479 17.6155 403.845 20.9633L411.036 24.4707ZM407.568 31.5791V39.5791C410.627 39.5791 413.417 37.8353 414.758 35.0865L407.568 31.5791ZM402.714 31.5791L395.523 35.0865C396.864 37.8353 399.655 39.5791 402.714 39.5791V31.5791ZM399.246 24.4707L406.436 20.9633C404.803 17.6155 401.076 15.8378 397.446 16.6758C393.817 17.5138 391.246 20.7458 391.246 24.4707H399.246ZM399.246 36.3469V44.3469C403.664 44.3469 407.246 40.7652 407.246 36.3469H399.246ZM389.927 36.3469H397.927V8.43347H389.927H381.927V36.3469H389.927ZM389.927 8.43347V16.4335H398.856V8.43347V0.433468H389.927V8.43347ZM398.856 8.43347L391.677 11.9627L398.005 24.8359L405.184 21.3066L412.364 17.7773L406.035 4.90419L398.856 8.43347ZM405.184 21.3066L412.383 24.7968L418.624 11.9237L411.426 8.43347L404.227 4.94328L397.986 17.8164L405.184 21.3066ZM411.426 8.43347V16.4335H420.355V8.43347V0.433468H411.426V8.43347ZM420.355 8.43347H412.355V36.3469H420.355H428.355V8.43347H420.355ZM420.355 36.3469V28.3469H411.036V36.3469V44.3469H420.355V36.3469ZM411.036 36.3469H419.036V24.4707H411.036H403.036V36.3469H411.036ZM411.036 24.4707L403.845 20.9633L400.378 28.0717L407.568 31.5791L414.758 35.0865L418.226 27.9781L411.036 24.4707ZM407.568 31.5791V23.5791H402.714V31.5791V39.5791H407.568V31.5791ZM402.714 31.5791L409.904 28.0717L406.436 20.9633L399.246 24.4707L392.056 27.9781L395.523 35.0865L402.714 31.5791ZM399.246 24.4707H391.246V36.3469H399.246H407.246V24.4707H399.246ZM399.246 36.3469V28.3469H389.927V36.3469V44.3469H399.246V36.3469ZM422.965 36.3469L415.496 33.4821C414.552 35.9418 414.88 38.7082 416.373 40.8791C417.865 43.05 420.331 44.3469 422.965 44.3469V36.3469ZM433.671 8.43347V0.433468C430.358 0.433468 427.388 2.47543 426.201 5.56863L433.671 8.43347ZM443.423 8.43347L450.889 5.55853C449.7 2.47062 446.732 0.433468 443.423 0.433468V8.43347ZM454.173 36.3469V44.3469C456.809 44.3469 459.276 43.0481 460.768 40.8746C462.26 38.7012 462.586 35.9322 461.638 33.472L454.173 36.3469ZM444.464 36.3469L437.012 39.2577C438.211 42.3268 441.169 44.3469 444.464 44.3469V36.3469ZM442.296 30.7989L449.748 27.8881C448.549 24.819 445.591 22.7989 442.296 22.7989V30.7989ZM434.798 30.7989V22.7989C431.483 22.7989 428.512 24.8431 427.327 27.9388L434.798 30.7989ZM432.674 36.3469V44.3469C435.989 44.3469 438.96 42.3027 440.145 39.207L432.674 36.3469ZM435.925 24.2973L428.458 21.4255C427.512 23.8855 427.838 26.6538 429.33 28.8264C430.822 30.9991 433.289 32.2973 435.925 32.2973V24.2973ZM441.169 24.2973V32.2973C443.813 32.2973 446.286 30.9913 447.776 28.808C449.267 26.6247 449.583 23.846 448.62 21.3839L441.169 24.2973ZM438.525 17.5357L445.976 14.6223C444.774 11.547 441.805 9.52651 438.503 9.53571C435.201 9.54491 432.244 11.5819 431.059 14.6638L438.525 17.5357ZM422.965 36.3469L430.434 39.2118L441.14 11.2983L433.671 8.43347L426.201 5.56863L415.496 33.4821L422.965 36.3469ZM433.671 8.43347V16.4335H443.423V8.43347V0.433468H433.671V8.43347ZM443.423 8.43347L435.958 11.3084L446.707 39.2219L454.173 36.3469L461.638 33.472L450.889 5.55853L443.423 8.43347ZM454.173 36.3469V28.3469H444.464V36.3469V44.3469H454.173V36.3469ZM444.464 36.3469L451.915 33.4361L449.748 27.8881L442.296 30.7989L434.845 33.7097L437.012 39.2577L444.464 36.3469ZM442.296 30.7989V22.7989H434.798V30.7989V38.7989H442.296V30.7989ZM434.798 30.7989L427.327 27.9388L425.203 33.4868L432.674 36.3469L440.145 39.207L442.269 33.659L434.798 30.7989ZM432.674 36.3469V28.3469H422.965V36.3469V44.3469H432.674V36.3469ZM435.925 24.2973V32.2973H441.169V24.2973V16.2973H435.925V24.2973ZM441.169 24.2973L448.62 21.3839L445.976 14.6223L438.525 17.5357L431.075 20.4491L433.719 27.2107L441.169 24.2973ZM438.525 17.5357L431.059 14.6638L428.458 21.4255L435.925 24.2973L443.392 27.1692L445.992 20.4075L438.525 17.5357ZM456.763 36.3469H448.763C448.763 40.7652 452.345 44.3469 456.763 44.3469V36.3469ZM456.763 8.43347V0.433468C452.345 0.433468 448.763 4.01519 448.763 8.43347H456.763ZM466.082 8.43347H474.082C474.082 4.01519 470.5 0.433468 466.082 0.433468V8.43347ZM466.082 36.3469V44.3469C470.5 44.3469 474.082 40.7652 474.082 36.3469H466.082ZM456.763 36.3469H464.763V8.43347H456.763H448.763V36.3469H456.763ZM456.763 8.43347V16.4335H466.082V8.43347V0.433468H456.763V8.43347ZM466.082 8.43347H458.082V36.3469H466.082H474.082V8.43347H466.082ZM466.082 36.3469V28.3469H456.763V36.3469V44.3469H466.082V36.3469ZM469.546 36.3469H461.546C461.546 40.7652 465.128 44.3469 469.546 44.3469V36.3469ZM469.546 8.43347V0.433468C465.128 0.433468 461.546 4.01519 461.546 8.43347H469.546ZM478.865 8.43347H486.865C486.865 4.01519 483.283 0.433468 478.865 0.433468V8.43347ZM478.865 29.2385H470.865C470.865 33.6568 474.447 37.2385 478.865 37.2385V29.2385ZM490.828 29.2385H498.828C498.828 24.8203 495.246 21.2385 490.828 21.2385V29.2385ZM490.828 36.3469V44.3469C495.246 44.3469 498.828 40.7652 498.828 36.3469H490.828ZM469.546 36.3469H477.546V8.43347H469.546H461.546V36.3469H469.546ZM469.546 8.43347V16.4335H478.865V8.43347V0.433468H469.546V8.43347ZM478.865 8.43347H470.865V29.2385H478.865H486.865V8.43347H478.865ZM478.865 29.2385V37.2385H490.828V29.2385V21.2385H478.865V29.2385ZM490.828 29.2385H482.828V36.3469H490.828H498.828V29.2385H490.828ZM490.828 36.3469V28.3469H469.546V36.3469V44.3469H490.828V36.3469ZM492.573 36.3469H484.573C484.573 40.7652 488.154 44.3469 492.573 44.3469V36.3469ZM492.573 8.43347V0.433468C488.154 0.433468 484.573 4.01519 484.573 8.43347H492.573ZM501.891 8.43347H509.891C509.891 4.01519 506.31 0.433468 501.891 0.433468V8.43347ZM501.891 36.3469V44.3469C506.31 44.3469 509.891 40.7652 509.891 36.3469H501.891ZM492.573 36.3469H500.573V8.43347H492.573H484.573V36.3469H492.573ZM492.573 8.43347V16.4335H501.891V8.43347V0.433468H492.573V8.43347ZM501.891 8.43347H493.891V36.3469H501.891H509.891V8.43347H501.891ZM501.891 36.3469V28.3469H492.573V36.3469V44.3469H501.891V36.3469ZM505.356 36.3469H497.356C497.356 40.7652 500.937 44.3469 505.356 44.3469V36.3469ZM505.356 8.43347V0.433468C500.937 0.433468 497.356 4.01519 497.356 8.43347H505.356ZM513.201 8.43347L519.712 3.78564C518.211 1.68206 515.785 0.433468 513.201 0.433468V8.43347ZM522.39 21.3066L515.878 25.9544C517.899 28.7854 521.518 29.9863 524.83 28.9254C528.142 27.8644 530.39 24.7848 530.39 21.3066H522.39ZM522.39 8.43347V0.433468C517.971 0.433468 514.39 4.01519 514.39 8.43347H522.39ZM531.709 8.43347H539.709C539.709 4.01519 536.127 0.433468 531.709 0.433468V8.43347ZM531.709 36.3469V44.3469C536.127 44.3469 539.709 40.7652 539.709 36.3469H531.709ZM523.777 36.3469L517.252 40.976C518.752 43.0905 521.184 44.3469 523.777 44.3469V36.3469ZM514.674 23.5171L521.199 18.8881C519.184 16.0479 515.563 14.8374 512.245 15.8949C508.927 16.9523 506.674 20.0347 506.674 23.5171H514.674ZM514.674 36.3469V44.3469C519.093 44.3469 522.674 40.7652 522.674 36.3469H514.674ZM505.356 36.3469H513.356V8.43347H505.356H497.356V36.3469H505.356ZM505.356 8.43347V16.4335H513.201V8.43347V0.433468H505.356V8.43347ZM513.201 8.43347L506.689 13.0813L515.878 25.9544L522.39 21.3066L528.901 16.6588L519.712 3.78564L513.201 8.43347ZM522.39 21.3066H530.39V8.43347H522.39H514.39V21.3066H522.39ZM522.39 8.43347V16.4335H531.709V8.43347V0.433468H522.39V8.43347ZM531.709 8.43347H523.709V36.3469H531.709H539.709V8.43347H531.709ZM531.709 36.3469V28.3469H523.777V36.3469V44.3469H531.709V36.3469ZM523.777 36.3469L530.301 31.7179L521.199 18.8881L514.674 23.5171L508.15 28.1462L517.252 40.976L523.777 36.3469ZM514.674 23.5171H506.674V36.3469H514.674H522.674V23.5171H514.674ZM514.674 36.3469V28.3469H505.356V36.3469V44.3469H514.674V36.3469ZM538.361 33.1395L532.999 39.0763L538.361 33.1395ZM538.534 11.7276L543.842 17.7137V17.7137L538.534 11.7276ZM555.482 8.30344L554.327 16.2197C554.335 16.2208 554.343 16.2219 554.35 16.223L555.482 8.30344ZM559.556 9.257H567.556C567.556 5.81356 565.353 2.75645 562.086 1.66754L559.556 9.257ZM559.556 17.1889L556.783 24.6929C559.238 25.6001 561.981 25.2492 564.129 23.7534C566.276 22.2576 567.556 19.806 567.556 17.1889H559.556ZM555.525 16.192L554.347 24.1047C554.402 24.1129 554.457 24.1206 554.512 24.1276L555.525 16.192ZM545.816 17.4057L550.66 23.7723V23.7723L545.816 17.4057ZM545.383 27.4614L539.89 33.2775C539.945 33.3298 540.001 33.3812 540.058 33.4318L545.383 27.4614ZM553.315 28.4583L555.635 36.1145C559.008 35.0924 561.315 31.983 561.315 28.4583H553.315ZM553.315 25.5976H561.315C561.315 21.1794 557.733 17.5976 553.315 17.5976V25.5976ZM548.243 25.5976H540.243C540.243 30.0159 543.825 33.5976 548.243 33.5976V25.5976ZM548.243 19.9196V11.9196C543.825 11.9196 540.243 15.5013 540.243 19.9196H548.243ZM561.073 19.9196H569.073C569.073 15.5013 565.491 11.9196 561.073 11.9196V19.9196ZM561.073 34.1364L565.39 40.8714C567.685 39.4004 569.073 36.8622 569.073 34.1364H561.073ZM556.652 36.0002L554.454 28.308L556.652 36.0002ZM550.064 36.7804V28.7804C546.116 28.7804 544.431 27.8421 543.723 27.2027L538.361 33.1395L532.999 39.0763C537.665 43.2914 543.782 44.7804 550.064 44.7804V36.7804ZM538.361 33.1395L543.723 27.2027C543.164 26.6978 542.33 25.595 542.33 22.5202H534.33H526.33C526.33 28.75 528.183 34.7266 532.999 39.0763L538.361 33.1395ZM534.33 22.5202H542.33C542.33 19.4656 543.174 18.3056 543.842 17.7137L538.534 11.7276L533.227 5.74152C528.289 10.1197 526.33 16.1548 526.33 22.5202H534.33ZM538.534 11.7276L543.842 17.7137C544.669 16.9799 546.539 16 550.714 16V8.00003V2.95639e-05C544.255 2.95639e-05 538.005 1.50523 533.227 5.74153L538.534 11.7276ZM550.714 8.00003V16C552.22 16 553.411 16.086 554.327 16.2197L555.482 8.30344L556.636 0.387175C554.779 0.116319 552.791 2.95639e-05 550.714 2.95639e-05V8.00003ZM555.482 8.30344L554.35 16.223C555.312 16.3604 556.201 16.5712 557.026 16.8465L559.556 9.257L562.086 1.66754C560.311 1.0759 558.484 0.651047 556.613 0.383842L555.482 8.30344ZM559.556 9.257H551.556V17.1889H559.556H567.556V9.257H559.556ZM559.556 17.1889L562.329 9.68497C560.452 8.99102 558.518 8.50919 556.538 8.25642L555.525 16.192L554.512 24.1276C555.248 24.2216 556.002 24.4044 556.783 24.6929L559.556 17.1889ZM555.525 16.192L556.704 8.2793C554.943 8.01715 553.162 7.88861 551.364 7.88861V15.8886V23.8886C552.398 23.8886 553.391 23.9624 554.347 24.1047L555.525 16.192ZM551.364 15.8886V7.88861C547.957 7.88861 544.171 8.60526 540.972 11.039L545.816 17.4057L550.66 23.7723C550.397 23.9727 550.23 24.0065 550.31 23.9846C550.408 23.9578 550.732 23.8886 551.364 23.8886V15.8886ZM545.816 17.4057L540.972 11.039C536.892 14.1434 535.822 18.7692 535.822 22.5202H543.822H551.822C551.822 22.0224 551.896 22.0363 551.774 22.3485C551.709 22.5174 551.591 22.7586 551.393 23.0281C551.192 23.3015 550.944 23.5566 550.66 23.7723L545.816 17.4057ZM543.822 22.5202H535.822C535.822 25.723 536.497 30.0733 539.89 33.2775L545.383 27.4614L550.876 21.6453C551.532 22.2651 551.776 22.8728 551.841 23.0802C551.894 23.2489 551.822 23.1169 551.822 22.5202H543.822ZM545.383 27.4614L540.058 33.4318C543.099 36.144 546.839 36.8918 550.02 36.8918V28.8918V20.8918C549.617 20.8918 549.548 20.842 549.702 20.8895C549.884 20.9458 550.28 21.11 550.708 21.4911L545.383 27.4614ZM550.02 28.8918V36.8918C551.864 36.8918 553.77 36.6796 555.635 36.1145L553.315 28.4583L550.995 20.8021C550.952 20.815 550.662 20.8918 550.02 20.8918V28.8918ZM553.315 28.4583H561.315V25.5976H553.315H545.315V28.4583H553.315ZM553.315 25.5976V17.5976H548.243V25.5976V33.5976H553.315V25.5976ZM548.243 25.5976H556.243V19.9196H548.243H540.243V25.5976H548.243ZM548.243 19.9196V27.9196H561.073V19.9196V11.9196H548.243V19.9196ZM561.073 19.9196H553.073V34.1364H561.073H569.073V19.9196H561.073ZM561.073 34.1364L556.756 27.4014C556.494 27.5691 555.809 27.9209 554.454 28.308L556.652 36.0002L558.85 43.6924C561.136 43.0392 563.398 42.1485 565.39 40.8714L561.073 34.1364ZM556.652 36.0002L554.454 28.308C553.552 28.5657 552.139 28.7804 550.064 28.7804V36.7804V44.7804C553.132 44.7804 556.111 44.4749 558.85 43.6924L556.652 36.0002ZM572.572 36.3469H564.572C564.572 40.7652 568.154 44.3469 572.572 44.3469V36.3469ZM572.572 8.43347V0.433468C568.154 0.433468 564.572 4.01519 564.572 8.43347H572.572ZM581.891 8.43347H589.891C589.891 4.01519 586.31 0.433468 581.891 0.433468V8.43347ZM581.891 29.2385H573.891C573.891 33.6568 577.473 37.2385 581.891 37.2385V29.2385ZM593.854 29.2385H601.854C601.854 24.8203 598.273 21.2385 593.854 21.2385V29.2385ZM593.854 36.3469V44.3469C598.273 44.3469 601.854 40.7652 601.854 36.3469H593.854ZM572.572 36.3469H580.572V8.43347H572.572H564.572V36.3469H572.572ZM572.572 8.43347V16.4335H581.891V8.43347V0.433468H572.572V8.43347ZM581.891 8.43347H573.891V29.2385H581.891H589.891V8.43347H581.891ZM581.891 29.2385V37.2385H593.854V29.2385V21.2385H581.891V29.2385ZM593.854 29.2385H585.854V36.3469H593.854H601.854V29.2385H593.854ZM593.854 36.3469V28.3469H572.572V36.3469V44.3469H593.854V36.3469ZM595.599 36.3469H587.599C587.599 40.7652 591.181 44.3469 595.599 44.3469V36.3469ZM595.599 8.43347V0.433468C591.181 0.433468 587.599 4.01519 587.599 8.43347H595.599ZM604.918 8.43347H612.918C612.918 4.01519 609.336 0.433468 604.918 0.433468V8.43347ZM604.918 36.3469V44.3469C609.336 44.3469 612.918 40.7652 612.918 36.3469H604.918ZM595.599 36.3469H603.599V8.43347H595.599H587.599V36.3469H595.599ZM595.599 8.43347V16.4335H604.918V8.43347V0.433468H595.599V8.43347ZM604.918 8.43347H596.918V36.3469H604.918H612.918V8.43347H604.918ZM604.918 36.3469V28.3469H595.599V36.3469V44.3469H604.918V36.3469ZM612.24 36.3036L610.797 44.1724C610.805 44.1738 610.812 44.1752 610.82 44.1766L612.24 36.3036ZM607.818 34.9599H599.818C599.818 38.0456 601.593 40.8562 604.379 42.1828L607.818 34.9599ZM607.818 27.6782L611.21 20.4326C608.732 19.2728 605.833 19.4596 603.525 20.9279C601.217 22.3962 599.818 24.9423 599.818 27.6782H607.818ZM612.283 29.2385L610.343 36.9997C610.353 37.0023 610.364 37.005 610.375 37.0076L612.283 29.2385ZM619.435 29.4986L616.701 21.9802C616.663 21.9941 616.625 22.0083 616.587 22.0227L619.435 29.4986ZM618.958 26.6379L616.224 34.1562C616.292 34.1809 616.36 34.2046 616.428 34.2274L618.958 26.6379ZM614.84 25.2076L612.24 32.773C612.251 32.777 612.262 32.7808 612.274 32.7847L614.84 25.2076ZM610.462 23.1704L605.779 29.6558C605.846 29.7046 605.914 29.7524 605.984 29.7991L610.462 23.1704ZM608.209 20.4831L600.866 23.6584C600.876 23.683 600.887 23.7076 600.898 23.7322L608.209 20.4831ZM622.555 8.21675L621.512 16.1484C621.587 16.1583 621.663 16.1672 621.739 16.175L622.555 8.21675ZM625.763 8.69353L624.194 16.5382C624.278 16.555 624.363 16.5705 624.448 16.5847L625.763 8.69353ZM628.407 9.30035H636.407C636.407 5.8214 634.158 2.74126 630.845 1.68095L628.407 9.30035ZM628.407 16.6255L625.486 24.0732C627.949 25.0389 630.729 24.725 632.914 23.2348C635.099 21.7445 636.407 19.2705 636.407 16.6255H628.407ZM624.333 15.4118L622.656 23.2343C622.727 23.2494 622.798 23.2636 622.869 23.2769L624.333 15.4118ZM618.221 15.2818L619.627 23.1572C619.699 23.1444 619.771 23.1306 619.842 23.1159L618.221 15.2818ZM618.091 17.7524L615.12 25.1802C615.206 25.2148 615.294 25.2479 615.381 25.2795L618.091 17.7524ZM621.732 18.836L623.878 11.1293C623.861 11.1244 623.843 11.1196 623.826 11.1149L621.732 18.836ZM626.89 21.0899L622.09 27.4899C622.115 27.5088 622.14 27.5275 622.166 27.5461L626.89 21.0899ZM629.274 24.1673L621.703 26.7524C621.729 26.8274 621.755 26.9021 621.783 26.9763L629.274 24.1673ZM626.89 34.4398L631.776 40.7741C631.795 40.7596 631.814 40.745 631.832 40.7303L626.89 34.4398ZM617.788 36.7804V28.7804C616.29 28.7804 614.917 28.6574 613.659 28.4306L612.24 36.3036L610.82 44.1766C613.087 44.5854 615.413 44.7804 617.788 44.7804V36.7804ZM612.24 36.3036L613.682 28.4347C612.438 28.2067 611.676 27.936 611.258 27.737L607.818 34.9599L604.379 42.1828C606.388 43.1397 608.573 43.7648 610.797 44.1724L612.24 36.3036ZM607.818 34.9599H615.818V27.6782H607.818H599.818V34.9599H607.818ZM607.818 27.6782L604.427 34.9237C606.3 35.8003 608.28 36.484 610.343 36.9997L612.283 29.2385L614.223 21.4774C613.049 21.1839 612.053 20.8274 611.21 20.4326L607.818 27.6782ZM612.283 29.2385L610.375 37.0076C612.499 37.5293 614.654 37.8453 616.791 37.8453V29.8453V21.8453C616.211 21.8453 615.361 21.7568 614.191 21.4694L612.283 29.2385ZM616.791 29.8453V37.8453C618.282 37.8453 620.317 37.7233 622.283 36.9745L619.435 29.4986L616.587 22.0227C616.824 21.9322 617.007 21.8836 617.113 21.859C617.168 21.8462 617.209 21.8381 617.236 21.8334C617.263 21.8287 617.277 21.8267 617.278 21.8266C617.279 21.8265 617.239 21.8316 617.153 21.8365C617.067 21.8414 616.948 21.8453 616.791 21.8453V29.8453ZM619.435 29.4986L622.169 37.0169C623.59 36.5002 625.29 35.5184 626.601 33.731C627.94 31.9046 628.388 29.8973 628.388 28.1983H620.388H612.388C612.388 27.1349 612.677 25.6622 613.699 24.2692C614.691 22.9153 615.915 22.2658 616.701 21.9802L619.435 29.4986ZM620.388 28.1983H628.388C628.388 25.8883 627.554 23.6345 625.928 21.8606C624.463 20.2624 622.739 19.4655 621.488 19.0484L618.958 26.6379L616.428 34.2274C616.13 34.1281 615.122 33.7503 614.133 32.6722C612.984 31.4184 612.388 29.7859 612.388 28.1983H620.388ZM618.958 26.6379L621.692 19.1195C620.654 18.7422 619.215 18.243 617.407 17.6304L614.84 25.2076L612.274 32.7847C614.048 33.3857 615.354 33.8401 616.224 34.1562L618.958 26.6379ZM614.84 25.2076L617.441 17.6421C615.952 17.1302 615.211 16.7241 614.941 16.5417L610.462 23.1704L605.984 29.7991C607.852 31.0615 610.03 32.0134 612.24 32.773L614.84 25.2076ZM610.462 23.1704L615.146 16.685C615.11 16.6588 615.16 16.6894 615.248 16.7942C615.34 16.9031 615.439 17.0531 615.519 17.234L608.209 20.4831L600.898 23.7322C602.005 26.2224 603.741 28.1843 605.779 29.6558L610.462 23.1704ZM608.209 20.4831L615.551 17.3078C615.596 17.412 615.586 17.4253 615.565 17.3057C615.543 17.1839 615.515 16.9508 615.515 16.5821H607.515H599.515C599.515 18.8785 599.857 21.3246 600.866 23.6584L608.209 20.4831ZM607.515 16.5821H615.515C615.515 16.0732 615.602 16.0103 615.52 16.1884C615.417 16.4097 615.252 16.5786 615.169 16.6378C615.136 16.6618 615.362 16.4895 616.087 16.3155C616.816 16.1405 617.902 16 619.435 16V8.00003V2.95639e-05C614.741 2.95639e-05 609.781 0.8017 605.82 3.65328C601.374 6.85486 599.515 11.6439 599.515 16.5821H607.515ZM619.435 8.00003V16C620.027 16 620.717 16.0438 621.512 16.1484L622.555 8.21675L623.599 0.285114C622.198 0.100736 620.807 2.95639e-05 619.435 2.95639e-05V8.00003ZM622.555 8.21675L621.739 16.175C622.638 16.2672 623.454 16.3903 624.194 16.5382L625.763 8.69353L627.332 0.848888C626.049 0.592258 624.727 0.397495 623.372 0.258497L622.555 8.21675ZM625.763 8.69353L624.448 16.5847C625.242 16.7171 625.724 16.8415 625.969 16.9197L628.407 9.30035L630.845 1.68095C629.645 1.29686 628.364 1.01667 627.078 0.802381L625.763 8.69353ZM628.407 9.30035H620.407V16.6255H628.407H636.407V9.30035H628.407ZM628.407 16.6255L631.328 9.17768C629.495 8.45892 627.642 7.89033 625.796 7.54679L624.333 15.4118L622.869 23.2769C623.508 23.3957 624.372 23.6362 625.486 24.0732L628.407 16.6255ZM624.333 15.4118L626.009 7.58941C624.363 7.23682 622.68 7.02174 620.995 7.02174V15.0217V23.0217C621.333 23.0217 621.874 23.0667 622.656 23.2343L624.333 15.4118ZM620.995 15.0217V7.02174C619.534 7.02174 618.057 7.14626 616.6 7.44772L618.221 15.2818L619.842 23.1159C620.061 23.0706 620.433 23.0217 620.995 23.0217V15.0217ZM618.221 15.2818L616.815 7.40638C615.474 7.64585 613.417 8.27327 611.654 10.0367C609.708 11.9826 609.007 14.4123 609.007 16.4954H617.007H625.007C625.007 17.914 624.509 19.8091 622.968 21.3504C621.609 22.7093 620.159 23.0622 619.627 23.1572L618.221 15.2818ZM617.007 16.4954H609.007C609.007 21.682 612.868 24.2793 615.12 25.1802L618.091 17.7524L621.062 10.3246C621.437 10.4744 622.41 10.922 623.338 11.9979C624.398 13.2286 625.007 14.8365 625.007 16.4954H617.007ZM618.091 17.7524L615.381 25.2795C616.435 25.6587 617.922 26.0917 619.638 26.5571L621.732 18.836L623.826 11.1149C622.132 10.6557 621.192 10.3662 620.801 10.2253L618.091 17.7524ZM621.732 18.836L619.586 26.5427C620.455 26.7849 621.089 27.0142 621.53 27.2069C621.982 27.4042 622.128 27.5183 622.09 27.4899L626.89 21.0899L631.69 14.6899C629.391 12.9655 626.585 11.883 623.878 11.1293L621.732 18.836ZM626.89 21.0899L622.166 27.5461C622.232 27.5948 622.166 27.5586 622.05 27.4086C621.927 27.2499 621.796 27.0251 621.703 26.7524L629.274 24.1673L636.844 21.5821C635.823 18.5917 633.887 16.297 631.614 14.6336L626.89 21.0899ZM629.274 24.1673L621.783 26.9763C621.815 27.0624 621.924 27.4096 621.924 28.1549H629.924H637.924C637.924 25.895 637.599 23.5838 636.764 21.3583L629.274 24.1673ZM629.924 28.1549H621.924C621.924 28.2207 621.921 28.2661 621.918 28.2932C621.915 28.3201 621.913 28.3303 621.914 28.3261C621.914 28.3218 621.918 28.3063 621.926 28.2822C621.935 28.2579 621.946 28.2293 621.961 28.1986C621.976 28.1679 621.992 28.1398 622.007 28.1156C622.023 28.0914 622.035 28.0753 622.042 28.0674C622.048 28.0596 622.046 28.0627 622.033 28.076C622.019 28.0895 621.992 28.1144 621.947 28.1492L626.89 34.4398L631.832 40.7303C635.81 37.605 637.924 33.1789 637.924 28.1549H629.924ZM626.89 34.4398L622.003 28.1055C622.022 28.0913 621.803 28.2678 621.105 28.4473C620.396 28.6297 619.322 28.7804 617.788 28.7804V36.7804V44.7804C622.638 44.7804 627.746 43.8833 631.776 40.7741L626.89 34.4398ZM638.23 36.3469H630.23C630.23 40.7652 633.812 44.3469 638.23 44.3469V36.3469ZM638.23 15.2385H646.23C646.23 10.8202 642.649 7.23846 638.23 7.23846V15.2385ZM630.775 15.2385H622.775C622.775 19.6567 626.357 23.2385 630.775 23.2385V15.2385ZM630.775 8.43347V0.433468C626.357 0.433468 622.775 4.01519 622.775 8.43347H630.775ZM655.048 8.43347H663.048C663.048 4.01519 659.466 0.433468 655.048 0.433468V8.43347ZM655.048 15.2385V23.2385C659.466 23.2385 663.048 19.6567 663.048 15.2385H655.048ZM647.549 15.2385V7.23846C643.131 7.23846 639.549 10.8202 639.549 15.2385H647.549ZM647.549 36.3469V44.3469C651.968 44.3469 655.549 40.7652 655.549 36.3469H647.549ZM638.23 36.3469H646.23V15.2385H638.23H630.23V36.3469H638.23ZM638.23 15.2385V7.23846H630.775V15.2385V23.2385H638.23V15.2385ZM630.775 15.2385H638.775V8.43347H630.775H622.775V15.2385H630.775ZM630.775 8.43347V16.4335H655.048V8.43347V0.433468H630.775V8.43347ZM655.048 8.43347H647.048V15.2385H655.048H663.048V8.43347H655.048ZM655.048 15.2385V7.23846H647.549V15.2385V23.2385H655.048V15.2385ZM647.549 15.2385H639.549V36.3469H647.549H655.549V15.2385H647.549ZM647.549 36.3469V28.3469H638.23V36.3469V44.3469H647.549V36.3469Z" fill="black" mask="url(#path-1-outside-1_998_3027)"/>
</svg>
