<svg width="210" height="46" viewBox="0 0 210 46" fill="none" xmlns="http://www.w3.org/2000/svg">
<mask id="path-1-outside-1_616_2" maskUnits="userSpaceOnUse" x="-0.65625" y="-0.655518" width="211" height="25" fill="black">
<rect fill="white" x="-0.65625" y="-0.655518" width="211" height="25"/>
<path d="M4.34375 19.7386V4.57987H13.0059C14.5437 4.57987 15.7285 4.94864 16.5602 5.68618C17.3919 6.42371 17.8077 7.46725 17.8077 8.81679C17.8077 9.58571 17.6665 10.2369 17.3841 10.7705C17.1173 11.304 16.7564 11.7277 16.3013 12.0416C16.929 12.3083 17.4233 12.6771 17.7842 13.1479C18.1451 13.6029 18.3256 14.2856 18.3256 15.1957C18.3256 16.6237 17.8705 17.7379 16.9604 18.5382C16.0502 19.3385 14.7791 19.7386 13.1471 19.7386H4.34375ZM9.1456 10.5116H11.6407C12.5508 10.5116 13.0059 10.1036 13.0059 9.28756C13.0059 8.89525 12.8882 8.5971 12.6528 8.3931C12.4331 8.1734 12.0722 8.06356 11.5701 8.06356H9.1456V10.5116ZM9.1456 16.2785H11.7348C12.6921 16.2785 13.1707 15.8391 13.1707 14.9603C13.1707 14.1443 12.6764 13.7363 11.6877 13.7363H9.1456V16.2785Z"/>
<path d="M19.7449 19.7386V4.57987H31.5377V8.32248H24.8057V10.2526H30.6667V14.0894H24.8057V15.996H31.5377V19.7386H19.7449Z"/>
<path d="M37.1808 19.7386L42.9948 4.57987H48.291L54.1285 19.7386H48.8559L47.679 16.7257H43.6068L42.4534 19.7386H37.1808ZM44.2188 13.1949H47.067L45.6311 9.52294L44.2188 13.1949Z"/>
<path d="M60.3625 19.7386V4.57987H68.5304C69.8014 4.57987 70.845 4.83879 71.661 5.35664C72.4927 5.87448 73.1125 6.57279 73.5205 7.45156C73.9285 8.31464 74.1325 9.27187 74.1325 10.3233C74.1325 11.406 73.8971 12.3789 73.4264 13.242C72.9556 14.1051 72.2965 14.7877 71.4491 15.2899C70.6017 15.7763 69.5974 16.0196 68.4362 16.0196H65.4233V19.7386H60.3625ZM65.4233 12.0886H67.2593C67.8242 12.0886 68.2479 11.9317 68.5304 11.6179C68.8285 11.2883 68.9776 10.8568 68.9776 10.3233C68.9776 9.75833 68.8442 9.31894 68.5774 9.0051C68.3107 8.67556 67.9027 8.51079 67.3534 8.51079H65.4233V12.0886Z"/>
<path d="M72.7184 19.7386L78.5324 4.57987H83.8285L89.6661 19.7386H84.3934L83.2165 16.7257H79.1444L77.991 19.7386H72.7184ZM79.7564 13.1949H82.6045L81.1687 9.52294L79.7564 13.1949Z"/>
<path d="M91.0728 19.7386V4.57987H99.2642C100.535 4.57987 101.579 4.8231 102.395 5.30956C103.227 5.78033 103.839 6.43156 104.231 7.26325C104.639 8.09494 104.843 9.04433 104.843 10.1114C104.843 11.1314 104.584 12.0337 104.066 12.8183C103.548 13.5872 102.897 14.1992 102.112 14.6543C102.411 14.8897 102.662 15.2349 102.866 15.69L104.631 19.7386H99.3584L97.8048 16.2314C97.695 15.996 97.5773 15.8312 97.4518 15.7371C97.3262 15.6429 97.1301 15.5959 96.8633 15.5959H96.1336V19.7386H91.0728ZM96.1336 11.6885H97.9931C99.123 11.6885 99.6879 11.1628 99.6879 10.1114C99.6879 9.04433 99.1622 8.51079 98.1108 8.51079H96.1336V11.6885Z"/>
<path d="M109.351 19.7386V8.2754H105.303V4.57987H118.484V8.2754H114.412V19.7386H109.351Z"/>
<path d="M131.704 19.974C130.01 19.974 128.574 19.7151 127.397 19.1972C126.22 18.6794 125.318 17.8477 124.69 16.7022C124.078 15.5566 123.772 14.0502 123.772 12.1828C123.772 10.284 124.078 8.76187 124.69 7.61633C125.318 6.47079 126.22 5.6391 127.397 5.12125C128.574 4.60341 130.01 4.34448 131.704 4.34448C133.399 4.34448 134.835 4.60341 136.012 5.12125C137.189 5.6391 138.083 6.47079 138.695 7.61633C139.323 8.76187 139.637 10.284 139.637 12.1828C139.637 14.0502 139.323 15.5566 138.695 16.7022C138.083 17.8477 137.189 18.6794 136.012 19.1972C134.835 19.7151 133.399 19.974 131.704 19.974ZM131.704 15.69C132.677 15.69 133.376 15.4154 133.799 14.8662C134.239 14.3169 134.458 13.4225 134.458 12.1828C134.458 10.8803 134.239 9.97017 133.799 9.45233C133.376 8.91879 132.677 8.65202 131.704 8.65202C130.716 8.65202 130.002 8.91879 129.562 9.45233C129.139 9.97017 128.927 10.8803 128.927 12.1828C128.927 13.4225 129.139 14.3169 129.562 14.8662C130.002 15.4154 130.716 15.69 131.704 15.69Z"/>
<path d="M141.046 19.7386V4.57987H152.792V8.2754H146.107V10.2762H151.897V14.0659H146.107V19.7386H141.046Z"/>
<path d="M166.024 19.974C164.329 19.974 162.893 19.7151 161.716 19.1972C160.539 18.6794 159.637 17.8477 159.009 16.7022C158.397 15.5566 158.091 14.0502 158.091 12.1828C158.091 10.284 158.397 8.76187 159.009 7.61633C159.637 6.47079 160.539 5.6391 161.716 5.12125C162.893 4.60341 164.329 4.34448 166.024 4.34448C167.718 4.34448 169.154 4.60341 170.331 5.12125C171.508 5.6391 172.403 6.47079 173.015 7.61633C173.642 8.76187 173.956 10.284 173.956 12.1828C173.956 14.0502 173.642 15.5566 173.015 16.7022C172.403 17.8477 171.508 18.6794 170.331 19.1972C169.154 19.7151 167.718 19.974 166.024 19.974ZM166.024 15.69C166.997 15.69 167.695 15.4154 168.119 14.8662C168.558 14.3169 168.778 13.4225 168.778 12.1828C168.778 10.8803 168.558 9.97017 168.119 9.45233C167.695 8.91879 166.997 8.65202 166.024 8.65202C165.035 8.65202 164.321 8.91879 163.882 9.45233C163.458 9.97017 163.246 10.8803 163.246 12.1828C163.246 13.4225 163.458 14.3169 163.882 14.8662C164.321 15.4154 165.035 15.69 166.024 15.69Z"/>
<path d="M182.615 19.974C181.203 19.974 179.94 19.7386 178.826 19.2679C177.711 18.7971 176.833 18.1066 176.189 17.1965C175.561 16.2863 175.248 15.1643 175.248 13.8305V4.57987H180.308V13.242C180.308 14.874 181.077 15.69 182.615 15.69C184.153 15.69 184.922 14.874 184.922 13.242V4.57987H189.983V13.8305C189.983 15.1643 189.661 16.2863 189.018 17.1965C188.39 18.1066 187.519 18.7971 186.405 19.2679C185.306 19.7386 184.043 19.974 182.615 19.974Z"/>
<path d="M191.755 19.7386V4.57987H199.946C201.217 4.57987 202.261 4.8231 203.077 5.30956C203.909 5.78033 204.521 6.43156 204.913 7.26325C205.321 8.09494 205.525 9.04433 205.525 10.1114C205.525 11.1314 205.266 12.0337 204.748 12.8183C204.23 13.5872 203.579 14.1992 202.794 14.6543C203.093 14.8897 203.344 15.2349 203.548 15.69L205.313 19.7386H200.04L198.487 16.2314C198.377 15.996 198.259 15.8312 198.134 15.7371C198.008 15.6429 197.812 15.5959 197.545 15.5959H196.816V19.7386H191.755ZM196.816 11.6885H198.675C199.805 11.6885 200.37 11.1628 200.37 10.1114C200.37 9.04433 199.844 8.51079 198.793 8.51079H196.816V11.6885Z"/>
<path d="M131.704 15.69C132.677 15.69 133.376 15.4154 133.799 14.8662C134.239 14.3169 134.458 13.4225 134.458 12.1828C134.458 10.8803 134.239 9.97017 133.799 9.45233C133.376 8.91879 132.677 8.65202 131.704 8.65202C130.716 8.65202 130.002 8.91879 129.562 9.45233C129.139 9.97017 128.927 10.8803 128.927 12.1828C128.927 13.4225 129.139 14.3169 129.562 14.8662C130.002 15.4154 130.716 15.69 131.704 15.69Z"/>
<path d="M166.024 15.69C166.997 15.69 167.695 15.4154 168.119 14.8662C168.558 14.3169 168.778 13.4225 168.778 12.1828C168.778 10.8803 168.558 9.97017 168.119 9.45233C167.695 8.91879 166.997 8.65202 166.024 8.65202C165.035 8.65202 164.321 8.91879 163.882 9.45233C163.458 9.97017 163.246 10.8803 163.246 12.1828C163.246 13.4225 163.458 14.3169 163.882 14.8662C164.321 15.4154 165.035 15.69 166.024 15.69Z"/>
</mask>
<path d="M4.34375 19.7386V4.57987H13.0059C14.5437 4.57987 15.7285 4.94864 16.5602 5.68618C17.3919 6.42371 17.8077 7.46725 17.8077 8.81679C17.8077 9.58571 17.6665 10.2369 17.3841 10.7705C17.1173 11.304 16.7564 11.7277 16.3013 12.0416C16.929 12.3083 17.4233 12.6771 17.7842 13.1479C18.1451 13.6029 18.3256 14.2856 18.3256 15.1957C18.3256 16.6237 17.8705 17.7379 16.9604 18.5382C16.0502 19.3385 14.7791 19.7386 13.1471 19.7386H4.34375ZM9.1456 10.5116H11.6407C12.5508 10.5116 13.0059 10.1036 13.0059 9.28756C13.0059 8.89525 12.8882 8.5971 12.6528 8.3931C12.4331 8.1734 12.0722 8.06356 11.5701 8.06356H9.1456V10.5116ZM9.1456 16.2785H11.7348C12.6921 16.2785 13.1707 15.8391 13.1707 14.9603C13.1707 14.1443 12.6764 13.7363 11.6877 13.7363H9.1456V16.2785Z" fill="white"/>
<path d="M19.7449 19.7386V4.57987H31.5377V8.32248H24.8057V10.2526H30.6667V14.0894H24.8057V15.996H31.5377V19.7386H19.7449Z" fill="white"/>
<path d="M37.1808 19.7386L42.9948 4.57987H48.291L54.1285 19.7386H48.8559L47.679 16.7257H43.6068L42.4534 19.7386H37.1808ZM44.2188 13.1949H47.067L45.6311 9.52294L44.2188 13.1949Z" fill="white"/>
<path d="M60.3625 19.7386V4.57987H68.5304C69.8014 4.57987 70.845 4.83879 71.661 5.35664C72.4927 5.87448 73.1125 6.57279 73.5205 7.45156C73.9285 8.31464 74.1325 9.27187 74.1325 10.3233C74.1325 11.406 73.8971 12.3789 73.4264 13.242C72.9556 14.1051 72.2965 14.7877 71.4491 15.2899C70.6017 15.7763 69.5974 16.0196 68.4362 16.0196H65.4233V19.7386H60.3625ZM65.4233 12.0886H67.2593C67.8242 12.0886 68.2479 11.9317 68.5304 11.6179C68.8285 11.2883 68.9776 10.8568 68.9776 10.3233C68.9776 9.75833 68.8442 9.31894 68.5774 9.0051C68.3107 8.67556 67.9027 8.51079 67.3534 8.51079H65.4233V12.0886Z" fill="white"/>
<path d="M72.7184 19.7386L78.5324 4.57987H83.8285L89.6661 19.7386H84.3934L83.2165 16.7257H79.1444L77.991 19.7386H72.7184ZM79.7564 13.1949H82.6045L81.1687 9.52294L79.7564 13.1949Z" fill="white"/>
<path d="M91.0728 19.7386V4.57987H99.2642C100.535 4.57987 101.579 4.8231 102.395 5.30956C103.227 5.78033 103.839 6.43156 104.231 7.26325C104.639 8.09494 104.843 9.04433 104.843 10.1114C104.843 11.1314 104.584 12.0337 104.066 12.8183C103.548 13.5872 102.897 14.1992 102.112 14.6543C102.411 14.8897 102.662 15.2349 102.866 15.69L104.631 19.7386H99.3584L97.8048 16.2314C97.695 15.996 97.5773 15.8312 97.4518 15.7371C97.3262 15.6429 97.1301 15.5959 96.8633 15.5959H96.1336V19.7386H91.0728ZM96.1336 11.6885H97.9931C99.123 11.6885 99.6879 11.1628 99.6879 10.1114C99.6879 9.04433 99.1622 8.51079 98.1108 8.51079H96.1336V11.6885Z" fill="white"/>
<path d="M109.351 19.7386V8.2754H105.303V4.57987H118.484V8.2754H114.412V19.7386H109.351Z" fill="white"/>
<path d="M131.704 19.974C130.01 19.974 128.574 19.7151 127.397 19.1972C126.22 18.6794 125.318 17.8477 124.69 16.7022C124.078 15.5566 123.772 14.0502 123.772 12.1828C123.772 10.284 124.078 8.76187 124.69 7.61633C125.318 6.47079 126.22 5.6391 127.397 5.12125C128.574 4.60341 130.01 4.34448 131.704 4.34448C133.399 4.34448 134.835 4.60341 136.012 5.12125C137.189 5.6391 138.083 6.47079 138.695 7.61633C139.323 8.76187 139.637 10.284 139.637 12.1828C139.637 14.0502 139.323 15.5566 138.695 16.7022C138.083 17.8477 137.189 18.6794 136.012 19.1972C134.835 19.7151 133.399 19.974 131.704 19.974ZM131.704 15.69C132.677 15.69 133.376 15.4154 133.799 14.8662C134.239 14.3169 134.458 13.4225 134.458 12.1828C134.458 10.8803 134.239 9.97017 133.799 9.45233C133.376 8.91879 132.677 8.65202 131.704 8.65202C130.716 8.65202 130.002 8.91879 129.562 9.45233C129.139 9.97017 128.927 10.8803 128.927 12.1828C128.927 13.4225 129.139 14.3169 129.562 14.8662C130.002 15.4154 130.716 15.69 131.704 15.69Z" fill="white"/>
<path d="M141.046 19.7386V4.57987H152.792V8.2754H146.107V10.2762H151.897V14.0659H146.107V19.7386H141.046Z" fill="white"/>
<path d="M166.024 19.974C164.329 19.974 162.893 19.7151 161.716 19.1972C160.539 18.6794 159.637 17.8477 159.009 16.7022C158.397 15.5566 158.091 14.0502 158.091 12.1828C158.091 10.284 158.397 8.76187 159.009 7.61633C159.637 6.47079 160.539 5.6391 161.716 5.12125C162.893 4.60341 164.329 4.34448 166.024 4.34448C167.718 4.34448 169.154 4.60341 170.331 5.12125C171.508 5.6391 172.403 6.47079 173.015 7.61633C173.642 8.76187 173.956 10.284 173.956 12.1828C173.956 14.0502 173.642 15.5566 173.015 16.7022C172.403 17.8477 171.508 18.6794 170.331 19.1972C169.154 19.7151 167.718 19.974 166.024 19.974ZM166.024 15.69C166.997 15.69 167.695 15.4154 168.119 14.8662C168.558 14.3169 168.778 13.4225 168.778 12.1828C168.778 10.8803 168.558 9.97017 168.119 9.45233C167.695 8.91879 166.997 8.65202 166.024 8.65202C165.035 8.65202 164.321 8.91879 163.882 9.45233C163.458 9.97017 163.246 10.8803 163.246 12.1828C163.246 13.4225 163.458 14.3169 163.882 14.8662C164.321 15.4154 165.035 15.69 166.024 15.69Z" fill="white"/>
<path d="M182.615 19.974C181.203 19.974 179.94 19.7386 178.826 19.2679C177.711 18.7971 176.833 18.1066 176.189 17.1965C175.561 16.2863 175.248 15.1643 175.248 13.8305V4.57987H180.308V13.242C180.308 14.874 181.077 15.69 182.615 15.69C184.153 15.69 184.922 14.874 184.922 13.242V4.57987H189.983V13.8305C189.983 15.1643 189.661 16.2863 189.018 17.1965C188.39 18.1066 187.519 18.7971 186.405 19.2679C185.306 19.7386 184.043 19.974 182.615 19.974Z" fill="white"/>
<path d="M191.755 19.7386V4.57987H199.946C201.217 4.57987 202.261 4.8231 203.077 5.30956C203.909 5.78033 204.521 6.43156 204.913 7.26325C205.321 8.09494 205.525 9.04433 205.525 10.1114C205.525 11.1314 205.266 12.0337 204.748 12.8183C204.23 13.5872 203.579 14.1992 202.794 14.6543C203.093 14.8897 203.344 15.2349 203.548 15.69L205.313 19.7386H200.04L198.487 16.2314C198.377 15.996 198.259 15.8312 198.134 15.7371C198.008 15.6429 197.812 15.5959 197.545 15.5959H196.816V19.7386H191.755ZM196.816 11.6885H198.675C199.805 11.6885 200.37 11.1628 200.37 10.1114C200.37 9.04433 199.844 8.51079 198.793 8.51079H196.816V11.6885Z" fill="white"/>
<path d="M131.704 15.69C132.677 15.69 133.376 15.4154 133.799 14.8662C134.239 14.3169 134.458 13.4225 134.458 12.1828C134.458 10.8803 134.239 9.97017 133.799 9.45233C133.376 8.91879 132.677 8.65202 131.704 8.65202C130.716 8.65202 130.002 8.91879 129.562 9.45233C129.139 9.97017 128.927 10.8803 128.927 12.1828C128.927 13.4225 129.139 14.3169 129.562 14.8662C130.002 15.4154 130.716 15.69 131.704 15.69Z" fill="#131313"/>
<path d="M166.024 15.69C166.997 15.69 167.695 15.4154 168.119 14.8662C168.558 14.3169 168.778 13.4225 168.778 12.1828C168.778 10.8803 168.558 9.97017 168.119 9.45233C167.695 8.91879 166.997 8.65202 166.024 8.65202C165.035 8.65202 164.321 8.91879 163.882 9.45233C163.458 9.97017 163.246 10.8803 163.246 12.1828C163.246 13.4225 163.458 14.3169 163.882 14.8662C164.321 15.4154 165.035 15.69 166.024 15.69Z" fill="#131313"/>
<path d="M4.34375 19.7386V4.57987H13.0059C14.5437 4.57987 15.7285 4.94864 16.5602 5.68618C17.3919 6.42371 17.8077 7.46725 17.8077 8.81679C17.8077 9.58571 17.6665 10.2369 17.3841 10.7705C17.1173 11.304 16.7564 11.7277 16.3013 12.0416C16.929 12.3083 17.4233 12.6771 17.7842 13.1479C18.1451 13.6029 18.3256 14.2856 18.3256 15.1957C18.3256 16.6237 17.8705 17.7379 16.9604 18.5382C16.0502 19.3385 14.7791 19.7386 13.1471 19.7386H4.34375ZM9.1456 10.5116H11.6407C12.5508 10.5116 13.0059 10.1036 13.0059 9.28756C13.0059 8.89525 12.8882 8.5971 12.6528 8.3931C12.4331 8.1734 12.0722 8.06356 11.5701 8.06356H9.1456V10.5116ZM9.1456 16.2785H11.7348C12.6921 16.2785 13.1707 15.8391 13.1707 14.9603C13.1707 14.1443 12.6764 13.7363 11.6877 13.7363H9.1456V16.2785Z" stroke="#131313" stroke-width="8.68901" stroke-linejoin="round" mask="url(#path-1-outside-1_616_2)"/>
<path d="M19.7449 19.7386V4.57987H31.5377V8.32248H24.8057V10.2526H30.6667V14.0894H24.8057V15.996H31.5377V19.7386H19.7449Z" stroke="#131313" stroke-width="8.68901" stroke-linejoin="round" mask="url(#path-1-outside-1_616_2)"/>
<path d="M37.1808 19.7386L42.9948 4.57987H48.291L54.1285 19.7386H48.8559L47.679 16.7257H43.6068L42.4534 19.7386H37.1808ZM44.2188 13.1949H47.067L45.6311 9.52294L44.2188 13.1949Z" stroke="#131313" stroke-width="8.68901" stroke-linejoin="round" mask="url(#path-1-outside-1_616_2)"/>
<path d="M60.3625 19.7386V4.57987H68.5304C69.8014 4.57987 70.845 4.83879 71.661 5.35664C72.4927 5.87448 73.1125 6.57279 73.5205 7.45156C73.9285 8.31464 74.1325 9.27187 74.1325 10.3233C74.1325 11.406 73.8971 12.3789 73.4264 13.242C72.9556 14.1051 72.2965 14.7877 71.4491 15.2899C70.6017 15.7763 69.5974 16.0196 68.4362 16.0196H65.4233V19.7386H60.3625ZM65.4233 12.0886H67.2593C67.8242 12.0886 68.2479 11.9317 68.5304 11.6179C68.8285 11.2883 68.9776 10.8568 68.9776 10.3233C68.9776 9.75833 68.8442 9.31894 68.5774 9.0051C68.3107 8.67556 67.9027 8.51079 67.3534 8.51079H65.4233V12.0886Z" stroke="#131313" stroke-width="8.68901" stroke-linejoin="round" mask="url(#path-1-outside-1_616_2)"/>
<path d="M72.7184 19.7386L78.5324 4.57987H83.8285L89.6661 19.7386H84.3934L83.2165 16.7257H79.1444L77.991 19.7386H72.7184ZM79.7564 13.1949H82.6045L81.1687 9.52294L79.7564 13.1949Z" stroke="#131313" stroke-width="8.68901" stroke-linejoin="round" mask="url(#path-1-outside-1_616_2)"/>
<path d="M91.0728 19.7386V4.57987H99.2642C100.535 4.57987 101.579 4.8231 102.395 5.30956C103.227 5.78033 103.839 6.43156 104.231 7.26325C104.639 8.09494 104.843 9.04433 104.843 10.1114C104.843 11.1314 104.584 12.0337 104.066 12.8183C103.548 13.5872 102.897 14.1992 102.112 14.6543C102.411 14.8897 102.662 15.2349 102.866 15.69L104.631 19.7386H99.3584L97.8048 16.2314C97.695 15.996 97.5773 15.8312 97.4518 15.7371C97.3262 15.6429 97.1301 15.5959 96.8633 15.5959H96.1336V19.7386H91.0728ZM96.1336 11.6885H97.9931C99.123 11.6885 99.6879 11.1628 99.6879 10.1114C99.6879 9.04433 99.1622 8.51079 98.1108 8.51079H96.1336V11.6885Z" stroke="#131313" stroke-width="8.68901" stroke-linejoin="round" mask="url(#path-1-outside-1_616_2)"/>
<path d="M109.351 19.7386V8.2754H105.303V4.57987H118.484V8.2754H114.412V19.7386H109.351Z" stroke="#131313" stroke-width="8.68901" stroke-linejoin="round" mask="url(#path-1-outside-1_616_2)"/>
<path d="M131.704 19.974C130.01 19.974 128.574 19.7151 127.397 19.1972C126.22 18.6794 125.318 17.8477 124.69 16.7022C124.078 15.5566 123.772 14.0502 123.772 12.1828C123.772 10.284 124.078 8.76187 124.69 7.61633C125.318 6.47079 126.22 5.6391 127.397 5.12125C128.574 4.60341 130.01 4.34448 131.704 4.34448C133.399 4.34448 134.835 4.60341 136.012 5.12125C137.189 5.6391 138.083 6.47079 138.695 7.61633C139.323 8.76187 139.637 10.284 139.637 12.1828C139.637 14.0502 139.323 15.5566 138.695 16.7022C138.083 17.8477 137.189 18.6794 136.012 19.1972C134.835 19.7151 133.399 19.974 131.704 19.974ZM131.704 15.69C132.677 15.69 133.376 15.4154 133.799 14.8662C134.239 14.3169 134.458 13.4225 134.458 12.1828C134.458 10.8803 134.239 9.97017 133.799 9.45233C133.376 8.91879 132.677 8.65202 131.704 8.65202C130.716 8.65202 130.002 8.91879 129.562 9.45233C129.139 9.97017 128.927 10.8803 128.927 12.1828C128.927 13.4225 129.139 14.3169 129.562 14.8662C130.002 15.4154 130.716 15.69 131.704 15.69Z" stroke="#131313" stroke-width="8.68901" stroke-linejoin="round" mask="url(#path-1-outside-1_616_2)"/>
<path d="M141.046 19.7386V4.57987H152.792V8.2754H146.107V10.2762H151.897V14.0659H146.107V19.7386H141.046Z" stroke="#131313" stroke-width="8.68901" stroke-linejoin="round" mask="url(#path-1-outside-1_616_2)"/>
<path d="M166.024 19.974C164.329 19.974 162.893 19.7151 161.716 19.1972C160.539 18.6794 159.637 17.8477 159.009 16.7022C158.397 15.5566 158.091 14.0502 158.091 12.1828C158.091 10.284 158.397 8.76187 159.009 7.61633C159.637 6.47079 160.539 5.6391 161.716 5.12125C162.893 4.60341 164.329 4.34448 166.024 4.34448C167.718 4.34448 169.154 4.60341 170.331 5.12125C171.508 5.6391 172.403 6.47079 173.015 7.61633C173.642 8.76187 173.956 10.284 173.956 12.1828C173.956 14.0502 173.642 15.5566 173.015 16.7022C172.403 17.8477 171.508 18.6794 170.331 19.1972C169.154 19.7151 167.718 19.974 166.024 19.974ZM166.024 15.69C166.997 15.69 167.695 15.4154 168.119 14.8662C168.558 14.3169 168.778 13.4225 168.778 12.1828C168.778 10.8803 168.558 9.97017 168.119 9.45233C167.695 8.91879 166.997 8.65202 166.024 8.65202C165.035 8.65202 164.321 8.91879 163.882 9.45233C163.458 9.97017 163.246 10.8803 163.246 12.1828C163.246 13.4225 163.458 14.3169 163.882 14.8662C164.321 15.4154 165.035 15.69 166.024 15.69Z" stroke="#131313" stroke-width="8.68901" stroke-linejoin="round" mask="url(#path-1-outside-1_616_2)"/>
<path d="M182.615 19.974C181.203 19.974 179.94 19.7386 178.826 19.2679C177.711 18.7971 176.833 18.1066 176.189 17.1965C175.561 16.2863 175.248 15.1643 175.248 13.8305V4.57987H180.308V13.242C180.308 14.874 181.077 15.69 182.615 15.69C184.153 15.69 184.922 14.874 184.922 13.242V4.57987H189.983V13.8305C189.983 15.1643 189.661 16.2863 189.018 17.1965C188.39 18.1066 187.519 18.7971 186.405 19.2679C185.306 19.7386 184.043 19.974 182.615 19.974Z" stroke="#131313" stroke-width="8.68901" stroke-linejoin="round" mask="url(#path-1-outside-1_616_2)"/>
<path d="M191.755 19.7386V4.57987H199.946C201.217 4.57987 202.261 4.8231 203.077 5.30956C203.909 5.78033 204.521 6.43156 204.913 7.26325C205.321 8.09494 205.525 9.04433 205.525 10.1114C205.525 11.1314 205.266 12.0337 204.748 12.8183C204.23 13.5872 203.579 14.1992 202.794 14.6543C203.093 14.8897 203.344 15.2349 203.548 15.69L205.313 19.7386H200.04L198.487 16.2314C198.377 15.996 198.259 15.8312 198.134 15.7371C198.008 15.6429 197.812 15.5959 197.545 15.5959H196.816V19.7386H191.755ZM196.816 11.6885H198.675C199.805 11.6885 200.37 11.1628 200.37 10.1114C200.37 9.04433 199.844 8.51079 198.793 8.51079H196.816V11.6885Z" stroke="#131313" stroke-width="8.68901" stroke-linejoin="round" mask="url(#path-1-outside-1_616_2)"/>
<path d="M131.704 15.69C132.677 15.69 133.376 15.4154 133.799 14.8662C134.239 14.3169 134.458 13.4225 134.458 12.1828C134.458 10.8803 134.239 9.97017 133.799 9.45233C133.376 8.91879 132.677 8.65202 131.704 8.65202C130.716 8.65202 130.002 8.91879 129.562 9.45233C129.139 9.97017 128.927 10.8803 128.927 12.1828C128.927 13.4225 129.139 14.3169 129.562 14.8662C130.002 15.4154 130.716 15.69 131.704 15.69Z" stroke="#131313" stroke-width="8.68901" stroke-linejoin="round" mask="url(#path-1-outside-1_616_2)"/>
<path d="M166.024 15.69C166.997 15.69 167.695 15.4154 168.119 14.8662C168.558 14.3169 168.778 13.4225 168.778 12.1828C168.778 10.8803 168.558 9.97017 168.119 9.45233C167.695 8.91879 166.997 8.65202 166.024 8.65202C165.035 8.65202 164.321 8.91879 163.882 9.45233C163.458 9.97017 163.246 10.8803 163.246 12.1828C163.246 13.4225 163.458 14.3169 163.882 14.8662C164.321 15.4154 165.035 15.69 166.024 15.69Z" stroke="#131313" stroke-width="8.68901" stroke-linejoin="round" mask="url(#path-1-outside-1_616_2)"/>
<mask id="path-2-outside-2_616_2" maskUnits="userSpaceOnUse" x="31.3438" y="20.3445" width="154" height="25" fill="black">
<rect fill="white" x="31.3438" y="20.3445" width="154" height="25"/>
<path d="M36.3438 40.7386V25.5799H41.1927L44.6293 32.5708L48.0188 25.5799H52.8678V40.7386H47.807V34.2891L45.9239 38.1494H43.2876L41.4045 34.2891V40.7386H36.3438Z"/>
<path d="M54.2854 40.7386L60.0994 25.5799H65.3955L71.2331 40.7386H65.9605L64.7835 37.7257H60.7114L59.558 40.7386H54.2854ZM61.3234 34.1949H64.1715L62.7357 30.5229L61.3234 34.1949Z"/>
<path d="M72.6399 40.7386V25.5799H77.7006V40.7386H72.6399Z"/>
<path d="M79.5819 40.7386V25.5799H84.6426V36.8783H91.1392V40.7386H79.5819Z"/>
<path d="M92.0867 40.7386V25.5799H97.1475V40.7386H92.0867Z"/>
<path d="M99.0287 40.7386V25.5799H103.289L108.279 32.5708V25.5799H113.34V40.7386H109.033L104.089 33.7712V40.7386H99.0287Z"/>
<path d="M123.308 40.974C120.531 40.974 118.412 40.3149 116.953 38.9968C115.493 37.6786 114.764 35.7563 114.764 33.2299C114.764 30.672 115.525 28.7183 117.047 27.3688C118.569 26.0193 120.774 25.3445 123.661 25.3445C124.634 25.3445 125.497 25.3994 126.25 25.5093C127.019 25.6191 127.757 25.7917 128.463 26.0271V30.3346C127.741 30.0679 127.011 29.8874 126.274 29.7933C125.536 29.6834 124.783 29.6285 124.014 29.6285C122.727 29.6285 121.723 29.9031 121.001 30.4523C120.279 31.0016 119.919 31.9274 119.919 33.2299C119.919 34.4852 120.201 35.3797 120.766 35.9132C121.347 36.4311 122.186 36.69 123.285 36.69C123.959 36.69 124.556 36.6116 125.073 36.4546V34.9011H122.319V31.8176H129.287V39.5382C128.675 39.9305 127.875 40.2679 126.886 40.5503C125.897 40.8328 124.705 40.974 123.308 40.974Z"/>
<path d="M135.532 40.7386V25.5799H140.592V36.8783H147.089V40.7386H135.532Z"/>
<path d="M148.036 40.7386V25.5799H153.097V40.7386H148.036Z"/>
<path d="M160.086 40.974C159.035 40.974 158.031 40.8877 157.073 40.7151C156.132 40.5425 155.332 40.2992 154.673 39.9854V36.0309C155.41 36.3762 156.218 36.6586 157.097 36.8783C157.991 37.098 158.807 37.2079 159.545 37.2079C160.173 37.2079 160.651 37.1451 160.981 37.0196C161.326 36.894 161.499 36.6586 161.499 36.3134C161.499 35.9211 161.24 35.6386 160.722 35.466C160.204 35.2777 159.459 35.0188 158.486 34.6892C157.481 34.344 156.689 33.9752 156.108 33.5829C155.543 33.1749 155.135 32.6885 154.884 32.1236C154.633 31.5429 154.508 30.8368 154.508 30.0051C154.508 26.898 156.665 25.3445 160.981 25.3445C161.514 25.3445 162.079 25.3837 162.676 25.4622C163.288 25.5249 163.868 25.6113 164.417 25.7211C164.982 25.8153 165.461 25.9251 165.853 26.0506V30.0286C165.053 29.7148 164.315 29.4951 163.641 29.3696C162.982 29.2283 162.377 29.1577 161.828 29.1577C161.279 29.1577 160.777 29.2048 160.322 29.2989C159.882 29.3774 159.663 29.5971 159.663 29.958C159.663 30.2562 159.859 30.4837 160.251 30.6406C160.643 30.7819 161.303 30.978 162.228 31.2291C163.468 31.5743 164.402 31.9823 165.029 32.4531C165.673 32.9239 166.104 33.4809 166.324 34.1243C166.559 34.752 166.677 35.4739 166.677 36.2899C166.677 37.7022 166.128 38.8399 165.029 39.7029C163.931 40.5503 162.283 40.974 160.086 40.974Z"/>
<path d="M171.188 40.7386V29.2754H167.139V25.5799H180.321V29.2754H176.249V40.7386H171.188Z"/>
</mask>
<path d="M36.3438 40.7386V25.5799H41.1927L44.6293 32.5708L48.0188 25.5799H52.8678V40.7386H47.807V34.2891L45.9239 38.1494H43.2876L41.4045 34.2891V40.7386H36.3438Z" fill="white"/>
<path d="M54.2854 40.7386L60.0994 25.5799H65.3955L71.2331 40.7386H65.9605L64.7835 37.7257H60.7114L59.558 40.7386H54.2854ZM61.3234 34.1949H64.1715L62.7357 30.5229L61.3234 34.1949Z" fill="white"/>
<path d="M72.6399 40.7386V25.5799H77.7006V40.7386H72.6399Z" fill="white"/>
<path d="M79.5819 40.7386V25.5799H84.6426V36.8783H91.1392V40.7386H79.5819Z" fill="white"/>
<path d="M92.0867 40.7386V25.5799H97.1475V40.7386H92.0867Z" fill="white"/>
<path d="M99.0287 40.7386V25.5799H103.289L108.279 32.5708V25.5799H113.34V40.7386H109.033L104.089 33.7712V40.7386H99.0287Z" fill="white"/>
<path d="M123.308 40.974C120.531 40.974 118.412 40.3149 116.953 38.9968C115.493 37.6786 114.764 35.7563 114.764 33.2299C114.764 30.672 115.525 28.7183 117.047 27.3688C118.569 26.0193 120.774 25.3445 123.661 25.3445C124.634 25.3445 125.497 25.3994 126.25 25.5093C127.019 25.6191 127.757 25.7917 128.463 26.0271V30.3346C127.741 30.0679 127.011 29.8874 126.274 29.7933C125.536 29.6834 124.783 29.6285 124.014 29.6285C122.727 29.6285 121.723 29.9031 121.001 30.4523C120.279 31.0016 119.919 31.9274 119.919 33.2299C119.919 34.4852 120.201 35.3797 120.766 35.9132C121.347 36.4311 122.186 36.69 123.285 36.69C123.959 36.69 124.556 36.6116 125.073 36.4546V34.9011H122.319V31.8176H129.287V39.5382C128.675 39.9305 127.875 40.2679 126.886 40.5503C125.897 40.8328 124.705 40.974 123.308 40.974Z" fill="white"/>
<path d="M135.532 40.7386V25.5799H140.592V36.8783H147.089V40.7386H135.532Z" fill="white"/>
<path d="M148.036 40.7386V25.5799H153.097V40.7386H148.036Z" fill="white"/>
<path d="M160.086 40.974C159.035 40.974 158.031 40.8877 157.073 40.7151C156.132 40.5425 155.332 40.2992 154.673 39.9854V36.0309C155.41 36.3762 156.218 36.6586 157.097 36.8783C157.991 37.098 158.807 37.2079 159.545 37.2079C160.173 37.2079 160.651 37.1451 160.981 37.0196C161.326 36.894 161.499 36.6586 161.499 36.3134C161.499 35.9211 161.24 35.6386 160.722 35.466C160.204 35.2777 159.459 35.0188 158.486 34.6892C157.481 34.344 156.689 33.9752 156.108 33.5829C155.543 33.1749 155.135 32.6885 154.884 32.1236C154.633 31.5429 154.508 30.8368 154.508 30.0051C154.508 26.898 156.665 25.3445 160.981 25.3445C161.514 25.3445 162.079 25.3837 162.676 25.4622C163.288 25.5249 163.868 25.6113 164.417 25.7211C164.982 25.8153 165.461 25.9251 165.853 26.0506V30.0286C165.053 29.7148 164.315 29.4951 163.641 29.3696C162.982 29.2283 162.377 29.1577 161.828 29.1577C161.279 29.1577 160.777 29.2048 160.322 29.2989C159.882 29.3774 159.663 29.5971 159.663 29.958C159.663 30.2562 159.859 30.4837 160.251 30.6406C160.643 30.7819 161.303 30.978 162.228 31.2291C163.468 31.5743 164.402 31.9823 165.029 32.4531C165.673 32.9239 166.104 33.4809 166.324 34.1243C166.559 34.752 166.677 35.4739 166.677 36.2899C166.677 37.7022 166.128 38.8399 165.029 39.7029C163.931 40.5503 162.283 40.974 160.086 40.974Z" fill="white"/>
<path d="M171.188 40.7386V29.2754H167.139V25.5799H180.321V29.2754H176.249V40.7386H171.188Z" fill="white"/>
<path d="M36.3438 40.7386V25.5799H41.1927L44.6293 32.5708L48.0188 25.5799H52.8678V40.7386H47.807V34.2891L45.9239 38.1494H43.2876L41.4045 34.2891V40.7386H36.3438Z" stroke="#131313" stroke-width="8.68901" stroke-linejoin="round" mask="url(#path-2-outside-2_616_2)"/>
<path d="M54.2854 40.7386L60.0994 25.5799H65.3955L71.2331 40.7386H65.9605L64.7835 37.7257H60.7114L59.558 40.7386H54.2854ZM61.3234 34.1949H64.1715L62.7357 30.5229L61.3234 34.1949Z" stroke="#131313" stroke-width="8.68901" stroke-linejoin="round" mask="url(#path-2-outside-2_616_2)"/>
<path d="M72.6399 40.7386V25.5799H77.7006V40.7386H72.6399Z" stroke="#131313" stroke-width="8.68901" stroke-linejoin="round" mask="url(#path-2-outside-2_616_2)"/>
<path d="M79.5819 40.7386V25.5799H84.6426V36.8783H91.1392V40.7386H79.5819Z" stroke="#131313" stroke-width="8.68901" stroke-linejoin="round" mask="url(#path-2-outside-2_616_2)"/>
<path d="M92.0867 40.7386V25.5799H97.1475V40.7386H92.0867Z" stroke="#131313" stroke-width="8.68901" stroke-linejoin="round" mask="url(#path-2-outside-2_616_2)"/>
<path d="M99.0287 40.7386V25.5799H103.289L108.279 32.5708V25.5799H113.34V40.7386H109.033L104.089 33.7712V40.7386H99.0287Z" stroke="#131313" stroke-width="8.68901" stroke-linejoin="round" mask="url(#path-2-outside-2_616_2)"/>
<path d="M123.308 40.974C120.531 40.974 118.412 40.3149 116.953 38.9968C115.493 37.6786 114.764 35.7563 114.764 33.2299C114.764 30.672 115.525 28.7183 117.047 27.3688C118.569 26.0193 120.774 25.3445 123.661 25.3445C124.634 25.3445 125.497 25.3994 126.25 25.5093C127.019 25.6191 127.757 25.7917 128.463 26.0271V30.3346C127.741 30.0679 127.011 29.8874 126.274 29.7933C125.536 29.6834 124.783 29.6285 124.014 29.6285C122.727 29.6285 121.723 29.9031 121.001 30.4523C120.279 31.0016 119.919 31.9274 119.919 33.2299C119.919 34.4852 120.201 35.3797 120.766 35.9132C121.347 36.4311 122.186 36.69 123.285 36.69C123.959 36.69 124.556 36.6116 125.073 36.4546V34.9011H122.319V31.8176H129.287V39.5382C128.675 39.9305 127.875 40.2679 126.886 40.5503C125.897 40.8328 124.705 40.974 123.308 40.974Z" stroke="#131313" stroke-width="8.68901" stroke-linejoin="round" mask="url(#path-2-outside-2_616_2)"/>
<path d="M135.532 40.7386V25.5799H140.592V36.8783H147.089V40.7386H135.532Z" stroke="#131313" stroke-width="8.68901" stroke-linejoin="round" mask="url(#path-2-outside-2_616_2)"/>
<path d="M148.036 40.7386V25.5799H153.097V40.7386H148.036Z" stroke="#131313" stroke-width="8.68901" stroke-linejoin="round" mask="url(#path-2-outside-2_616_2)"/>
<path d="M160.086 40.974C159.035 40.974 158.031 40.8877 157.073 40.7151C156.132 40.5425 155.332 40.2992 154.673 39.9854V36.0309C155.41 36.3762 156.218 36.6586 157.097 36.8783C157.991 37.098 158.807 37.2079 159.545 37.2079C160.173 37.2079 160.651 37.1451 160.981 37.0196C161.326 36.894 161.499 36.6586 161.499 36.3134C161.499 35.9211 161.24 35.6386 160.722 35.466C160.204 35.2777 159.459 35.0188 158.486 34.6892C157.481 34.344 156.689 33.9752 156.108 33.5829C155.543 33.1749 155.135 32.6885 154.884 32.1236C154.633 31.5429 154.508 30.8368 154.508 30.0051C154.508 26.898 156.665 25.3445 160.981 25.3445C161.514 25.3445 162.079 25.3837 162.676 25.4622C163.288 25.5249 163.868 25.6113 164.417 25.7211C164.982 25.8153 165.461 25.9251 165.853 26.0506V30.0286C165.053 29.7148 164.315 29.4951 163.641 29.3696C162.982 29.2283 162.377 29.1577 161.828 29.1577C161.279 29.1577 160.777 29.2048 160.322 29.2989C159.882 29.3774 159.663 29.5971 159.663 29.958C159.663 30.2562 159.859 30.4837 160.251 30.6406C160.643 30.7819 161.303 30.978 162.228 31.2291C163.468 31.5743 164.402 31.9823 165.029 32.4531C165.673 32.9239 166.104 33.4809 166.324 34.1243C166.559 34.752 166.677 35.4739 166.677 36.2899C166.677 37.7022 166.128 38.8399 165.029 39.7029C163.931 40.5503 162.283 40.974 160.086 40.974Z" stroke="#131313" stroke-width="8.68901" stroke-linejoin="round" mask="url(#path-2-outside-2_616_2)"/>
<path d="M171.188 40.7386V29.2754H167.139V25.5799H180.321V29.2754H176.249V40.7386H171.188Z" stroke="#131313" stroke-width="8.68901" stroke-linejoin="round" mask="url(#path-2-outside-2_616_2)"/>
</svg>
