<svg width="178" height="197" viewBox="0 0 178 197" fill="none" xmlns="http://www.w3.org/2000/svg">
<mask id="path-1-outside-1_970_4555" maskUnits="userSpaceOnUse" x="-33.2931" y="-14.824" width="236.362" height="236.362" fill="black">
<rect fill="white" x="-33.2931" y="-14.824" width="236.362" height="236.362"/>
<path d="M96.0509 177.618L61.9262 149.842L79.5103 139.931L86.7143 149.28C89.0068 150.56 92.0271 149.872 94.3196 151.152C95.4953 151.813 96.3472 152.937 96.9261 154.157C98.1233 156.684 98.519 159.998 101.027 161.266C103.982 162.757 107.943 161.177 109.956 164.548C111.795 167.65 100.237 180.896 96.0509 177.618Z"/>
<path d="M99.2252 186.297L98.3933 187.358C95.1074 191.547 89.0586 192.289 84.8721 189.011L46.8892 159.259L65.2148 147.453C67.0731 148.9 67.7412 149.442 69.6108 150.882C71.3152 152.19 72.6938 152.497 73.3132 154.648C73.9181 156.775 74.7728 159.093 76.8147 160.231C79.1073 161.511 82.1275 160.823 84.4201 162.103C85.5958 162.764 86.4477 163.888 87.0265 165.108C88.2237 167.635 88.6195 170.95 91.128 172.217C94.0828 173.708 98.0439 172.128 100.057 175.499C101.899 178.583 101.436 183.486 99.2252 186.297Z"/>
<path d="M88.4993 168.939C89.2024 170.972 90.4035 170.533 91.4781 169.872C94.1041 168.276 96.8425 165.046 98.0367 163.209C98.4896 162.517 98.8565 161.772 99.1294 160.991C99.3322 160.414 99.3055 159.778 99.0128 159.25C98.1414 157.724 97.6969 155.796 96.9238 154.174C96.6037 153.504 96.1902 152.862 95.697 152.32C95.3061 151.886 94.5827 152.002 94.3065 152.515C93.6083 153.809 92.3183 156.042 91.1996 157.129C88.9846 159.289 87.388 160.254 86.2974 160.989C85.4814 161.53 85.2988 162.684 85.9339 163.422C86.3756 163.934 86.7343 164.516 87.0221 165.111C87.5864 166.309 88.0517 167.65 88.4993 168.939ZM100.045 175.491C101.624 181.261 98.9312 185.354 95.1623 188.149C91.5175 190.864 87.5075 190.436 87.5075 190.436C98.2469 195.116 108.967 180.992 110.808 177.607C113.619 172.434 112.788 169.559 110.147 164.84C109.988 164.544 108.897 163.892 108.471 165.186C107.814 167.139 106.534 168.521 105.045 169.975C103.212 171.761 102.004 172.364 101.183 172.973C100.122 173.752 99.7288 174.356 100.045 175.491Z"/>
<path d="M46.8724 159.27L56.9892 167.22C56.9892 167.22 56.06 161.047 65.1966 156.403C71.3889 153.258 74.4314 154.166 74.4314 154.166L69.2321 145.279L46.8724 159.27Z"/>
<path d="M163.208 127.916C153.31 130.256 102.078 125.68 74.6773 143.876C60.8109 152.3 50.899 158.638 48.5195 160.171C41.054 164.981 25.5963 159.962 13.5829 141.316C1.56955 122.669 3.17605 103.836 10.6416 99.0261C11.7468 98.3141 24.0039 91.4051 38.0197 81.8015C64.5781 67.829 76.5147 25.4644 87.6312 10.6094L163.208 127.916Z"/>
<path d="M110.284 102.772C110.475 105.867 113.789 111.062 117.218 115.64C119.679 118.915 117.879 123.676 113.852 124.485C86.4301 130.074 68.9249 142.436 68.9249 142.436L72.0929 145.446L74.6738 143.879C94.1491 132.048 122.397 128.683 141.718 127.883C141.718 127.883 133.383 124.458 125.703 117.392C117.712 110.016 110.284 102.772 110.284 102.772Z"/>
<path d="M47.733 119.313C40.8775 108.672 36.6724 94.4915 35.6902 83.3811C22.6812 92.1448 11.7041 98.3406 10.6553 99.0163C3.18975 103.826 1.58323 122.659 13.5966 141.306C25.61 159.952 41.0564 164.979 48.5332 160.162C50.9127 158.629 60.8246 152.29 74.691 143.867C74.7699 143.816 74.8674 143.769 74.9463 143.718C64.0615 137.92 54.5667 129.92 47.733 119.313Z"/>
<path d="M163.212 127.914C150.233 136.276 122.792 116.795 101.922 84.4016C81.0521 52.0081 74.6557 18.969 87.6354 10.6066C100.615 2.24422 128.056 21.7252 148.926 54.1186C169.796 86.512 176.192 119.551 163.212 127.914Z"/>
<path d="M148.926 54.1186C126.147 18.7621 100.785 -2.64529 85.4591 7.22863C70.1333 17.1026 75.7526 51.2135 98.5389 86.5812C121.325 121.949 150.063 141.165 165.389 131.292C180.715 121.418 171.712 89.4863 148.926 54.1186ZM145.543 56.2983C166.53 88.8736 170.554 118.403 161.036 124.536C151.518 130.668 126.292 114.797 105.305 82.2219C84.3181 49.6466 80.305 20.1095 89.8118 13.9846C99.3185 7.85976 124.563 23.7343 145.543 56.2983Z"/>
<path d="M84.4729 39.3809C85.2281 42.7823 85.4876 51.2353 96.709 72.3679C97.0879 73.0799 98.6309 76.2923 96.9731 77.3603C95.868 78.0723 94.4673 76.6165 92.9873 74.3195C87.22 65.3678 82.3465 54.5337 79.5262 42.552C77.941 35.7816 83.4451 34.6893 84.4729 39.3809Z"/>
<path d="M97.2067 68.2223L120.117 56.9676L134.553 79.375L115.849 96.8112C103.039 80.0001 97.2067 68.2223 97.2067 68.2223Z"/>
<path d="M134.567 79.3804C131.627 81.2744 126.012 77.7937 122.025 71.6061C118.039 65.4184 117.19 58.867 120.13 56.973C123.07 55.079 128.685 58.5597 132.671 64.7474C136.658 70.935 137.506 77.4865 134.567 79.3804Z"/>
<path d="M73.1286 148.921L73.2259 150.929L81.3945 155.657C82.3856 156.23 83.6376 156.092 84.4688 155.302L89.7904 150.136C89.7904 150.136 89.9335 146.618 89.9051 145.856C89.8767 145.094 89.5422 144.847 89.5422 144.847L83.4515 150.651C83.4402 150.658 73.3977 148.843 73.1286 148.921Z"/>
<path d="M81.0637 151.074L73.0861 148.996L81.511 143.52L88.9549 144.572C89.9218 144.809 90.0357 145.804 89.2995 146.469L85.0306 150.271C83.9513 151.221 82.4472 151.537 81.0637 151.074Z"/>
<path d="M58.6919 78.7583C65.2323 73.2061 70.8918 66.4847 74.4046 58.6606C76.9548 70.3223 82.5838 82.7252 90.3009 91.8548C85.9036 92.3614 81.4726 92.8899 77.227 94.1273C73.684 95.1672 70.3079 96.689 66.997 98.3122C58.6474 102.369 51.3808 106.844 43.6825 112.01C43.908 111.865 41.1404 106.207 39.5632 101.678C37.9859 97.1496 37.4904 94.2502 37.4904 94.2502C37.4904 94.2502 52.4946 84.0258 58.6919 78.7583Z"/>
<path d="M34.1478 95.7189C23.4193 103.093 11.3003 111.108 11.3003 111.108C11.3003 111.108 8.87609 119.458 14.7069 130.663C14.7069 130.663 27.7322 122.271 39.6999 114.864C35.6304 106.714 34.4688 99.5115 34.1478 95.7189Z"/>
</mask>
<path d="M96.0509 177.618L61.9262 149.842L79.5103 139.931L86.7143 149.28C89.0068 150.56 92.0271 149.872 94.3196 151.152C95.4953 151.813 96.3472 152.937 96.9261 154.157C98.1233 156.684 98.519 159.998 101.027 161.266C103.982 162.757 107.943 161.177 109.956 164.548C111.795 167.65 100.237 180.896 96.0509 177.618Z" fill="#A91A1A"/>
<path d="M99.2252 186.297L98.3933 187.358C95.1074 191.547 89.0586 192.289 84.8721 189.011L46.8892 159.259L65.2148 147.453C67.0731 148.9 67.7412 149.442 69.6108 150.882C71.3152 152.19 72.6938 152.497 73.3132 154.648C73.9181 156.775 74.7728 159.093 76.8147 160.231C79.1073 161.511 82.1275 160.823 84.4201 162.103C85.5958 162.764 86.4477 163.888 87.0265 165.108C88.2237 167.635 88.6195 170.95 91.128 172.217C94.0828 173.708 98.0439 172.128 100.057 175.499C101.899 178.583 101.436 183.486 99.2252 186.297Z" fill="#F93324"/>
<path d="M88.4993 168.939C89.2024 170.972 90.4035 170.533 91.4781 169.872C94.1041 168.276 96.8425 165.046 98.0367 163.209C98.4896 162.517 98.8565 161.772 99.1294 160.991C99.3322 160.414 99.3055 159.778 99.0128 159.25C98.1414 157.724 97.6969 155.796 96.9238 154.174C96.6037 153.504 96.1902 152.862 95.697 152.32C95.3061 151.886 94.5827 152.002 94.3065 152.515C93.6083 153.809 92.3183 156.042 91.1996 157.129C88.9846 159.289 87.388 160.254 86.2974 160.989C85.4814 161.53 85.2988 162.684 85.9339 163.422C86.3756 163.934 86.7343 164.516 87.0221 165.111C87.5864 166.309 88.0517 167.65 88.4993 168.939ZM100.045 175.491C101.624 181.261 98.9312 185.354 95.1623 188.149C91.5175 190.864 87.5075 190.436 87.5075 190.436C98.2469 195.116 108.967 180.992 110.808 177.607C113.619 172.434 112.788 169.559 110.147 164.84C109.988 164.544 108.897 163.892 108.471 165.186C107.814 167.139 106.534 168.521 105.045 169.975C103.212 171.761 102.004 172.364 101.183 172.973C100.122 173.752 99.7288 174.356 100.045 175.491Z" fill="#681615"/>
<path d="M46.8724 159.27L56.9892 167.22C56.9892 167.22 56.06 161.047 65.1966 156.403C71.3889 153.258 74.4314 154.166 74.4314 154.166L69.2321 145.279L46.8724 159.27Z" fill="#A91A1A"/>
<path d="M163.208 127.916C153.31 130.256 102.078 125.68 74.6773 143.876C60.8109 152.3 50.899 158.638 48.5195 160.171C41.054 164.981 25.5963 159.962 13.5829 141.316C1.56955 122.669 3.17605 103.836 10.6416 99.0261C11.7468 98.3141 24.0039 91.4051 38.0197 81.8015C64.5781 67.829 76.5147 25.4644 87.6312 10.6094L163.208 127.916Z" fill="#E0E0E0"/>
<path d="M110.284 102.772C110.475 105.867 113.789 111.062 117.218 115.64C119.679 118.915 117.879 123.676 113.852 124.485C86.4301 130.074 68.9249 142.436 68.9249 142.436L72.0929 145.446L74.6738 143.879C94.1491 132.048 122.397 128.683 141.718 127.883C141.718 127.883 133.383 124.458 125.703 117.392C117.712 110.016 110.284 102.772 110.284 102.772Z" fill="#717171"/>
<path d="M47.733 119.313C40.8775 108.672 36.6724 94.4915 35.6902 83.3811C22.6812 92.1448 11.7041 98.3406 10.6553 99.0163C3.18975 103.826 1.58323 122.659 13.5966 141.306C25.61 159.952 41.0564 164.979 48.5332 160.162C50.9127 158.629 60.8246 152.29 74.691 143.867C74.7699 143.816 74.8674 143.769 74.9463 143.718C64.0615 137.92 54.5667 129.92 47.733 119.313Z" fill="#F93324"/>
<path d="M163.212 127.914C150.233 136.276 122.792 116.795 101.922 84.4016C81.0521 52.0081 74.6557 18.969 87.6354 10.6066C100.615 2.24422 128.056 21.7252 148.926 54.1186C169.796 86.512 176.192 119.551 163.212 127.914Z" fill="#00708B"/>
<path d="M148.926 54.1186C126.147 18.7621 100.785 -2.64529 85.4591 7.22863C70.1333 17.1026 75.7526 51.2135 98.5389 86.5812C121.325 121.949 150.063 141.165 165.389 131.292C180.715 121.418 171.712 89.4863 148.926 54.1186ZM145.543 56.2983C166.53 88.8736 170.554 118.403 161.036 124.536C151.518 130.668 126.292 114.797 105.305 82.2219C84.3181 49.6466 80.305 20.1095 89.8118 13.9846C99.3185 7.85976 124.563 23.7343 145.543 56.2983Z" fill="#E0E0E0"/>
<path d="M84.4729 39.3809C85.2281 42.7823 85.4876 51.2353 96.709 72.3679C97.0879 73.0799 98.6309 76.2923 96.9731 77.3603C95.868 78.0723 94.4673 76.6165 92.9873 74.3195C87.22 65.3678 82.3465 54.5337 79.5262 42.552C77.941 35.7816 83.4451 34.6893 84.4729 39.3809Z" fill="white"/>
<path d="M97.2067 68.2223L120.117 56.9676L134.553 79.375L115.849 96.8112C103.039 80.0001 97.2067 68.2223 97.2067 68.2223Z" fill="#7BB9D2"/>
<path d="M134.567 79.3804C131.627 81.2744 126.012 77.7937 122.025 71.6061C118.039 65.4184 117.19 58.867 120.13 56.973C123.07 55.079 128.685 58.5597 132.671 64.7474C136.658 70.935 137.506 77.4865 134.567 79.3804Z" fill="#E0E0E0"/>
<path d="M73.1286 148.921L73.2259 150.929L81.3945 155.657C82.3856 156.23 83.6376 156.092 84.4688 155.302L89.7904 150.136C89.7904 150.136 89.9335 146.618 89.9051 145.856C89.8767 145.094 89.5422 144.847 89.5422 144.847L83.4515 150.651C83.4402 150.658 73.3977 148.843 73.1286 148.921Z" fill="#353738"/>
<path d="M81.0637 151.074L73.0861 148.996L81.511 143.52L88.9549 144.572C89.9218 144.809 90.0357 145.804 89.2995 146.469L85.0306 150.271C83.9513 151.221 82.4472 151.537 81.0637 151.074Z" fill="#D2CACA"/>
<path d="M58.6919 78.7583C65.2323 73.2061 70.8918 66.4847 74.4046 58.6606C76.9548 70.3223 82.5838 82.7252 90.3009 91.8548C85.9036 92.3614 81.4726 92.8899 77.227 94.1273C73.684 95.1672 70.3079 96.689 66.997 98.3122C58.6474 102.369 51.3808 106.844 43.6825 112.01C43.908 111.865 41.1404 106.207 39.5632 101.678C37.9859 97.1496 37.4904 94.2502 37.4904 94.2502C37.4904 94.2502 52.4946 84.0258 58.6919 78.7583Z" fill="white"/>
<path d="M34.1478 95.7189C23.4193 103.093 11.3003 111.108 11.3003 111.108C11.3003 111.108 8.87609 119.458 14.7069 130.663C14.7069 130.663 27.7322 122.271 39.6999 114.864C35.6304 106.714 34.4688 99.5115 34.1478 95.7189Z" fill="#FF977F"/>
<path d="M96.0509 177.618L93.0925 181.396L93.0568 181.368L93.0216 181.34L96.0509 177.618ZM61.9262 149.842L58.8969 153.564L53.4359 149.119L59.57 145.662L61.9262 149.842ZM79.5103 139.931L77.1541 135.751L80.7747 133.71L83.3115 137.002L79.5103 139.931ZM86.7143 149.28L84.3755 153.47L83.5148 152.99L82.9131 152.209L86.7143 149.28ZM94.3196 151.152L96.6584 146.962L96.6705 146.968L94.3196 151.152ZM96.9261 154.157L101.262 152.101L101.263 152.103L96.9261 154.157ZM101.027 161.266L98.8666 165.551L98.8627 165.549L101.027 161.266ZM109.956 164.548L114.077 162.089L114.08 162.095L114.084 162.101L109.956 164.548ZM99.2252 186.297L95.4478 183.337L95.4534 183.33L99.2252 186.297ZM98.3933 187.358L102.171 190.318L102.169 190.32L98.3933 187.358ZM84.8721 189.011L81.9136 192.789L81.9129 192.789L84.8721 189.011ZM46.8892 159.259L43.9301 163.037L38.6204 158.878L44.2902 155.225L46.8892 159.259ZM65.2148 147.453L62.6158 143.419L65.4781 141.574L68.164 143.667L65.2148 147.453ZM69.6108 150.882L66.6893 154.689L66.6819 154.684L69.6108 150.882ZM73.3132 154.648L77.9245 153.319L77.9268 153.327L77.9291 153.335L73.3132 154.648ZM76.8147 160.231L79.1513 156.039L79.1535 156.041L76.8147 160.231ZM84.4201 162.103L86.7589 157.913L86.771 157.92L84.4201 162.103ZM87.0265 165.108L91.3624 163.052L91.3633 163.054L87.0265 165.108ZM91.128 172.217L88.9671 176.502L88.9632 176.5L91.128 172.217ZM100.057 175.499L95.9375 177.961L95.9361 177.959L100.057 175.499ZM88.4993 168.939L93.0326 167.365L93.0344 167.37L88.4993 168.939ZM91.4781 169.872L88.9654 165.784L88.9754 165.778L88.9855 165.772L91.4781 169.872ZM98.0367 163.209L94.0134 160.593L94.0208 160.582L98.0367 163.209ZM99.1294 160.991L94.5993 159.408L94.6023 159.399L99.1294 160.991ZM99.0128 159.25L103.18 156.87L103.196 156.898L103.211 156.925L99.0128 159.25ZM96.9238 154.174L101.254 152.106L101.255 152.109L96.9238 154.174ZM95.697 152.32L92.1459 155.548L92.1398 155.541L92.1337 155.534L95.697 152.32ZM94.3065 152.515L98.531 154.791L98.53 154.793L94.3065 152.515ZM91.1996 157.129L87.8492 153.694L87.8551 153.688L91.1996 157.129ZM86.2974 160.989L88.978 164.969L88.9647 164.978L88.9513 164.987L86.2974 160.989ZM85.9339 163.422L82.2998 166.556L82.2964 166.552L85.9339 163.422ZM87.0221 165.111L91.3425 163.022L91.353 163.044L91.3633 163.066L87.0221 165.111ZM100.045 175.491L104.668 174.203L104.671 174.213L104.674 174.224L100.045 175.491ZM95.1623 188.149L92.2958 184.3L92.304 184.294L95.1623 188.149ZM87.5075 190.436L85.5902 194.835L88.0168 185.664L87.5075 190.436ZM110.808 177.607L115.024 179.898L115.024 179.9L110.808 177.607ZM110.147 164.84L105.959 167.184L105.938 167.146L105.918 167.108L110.147 164.84ZM108.471 165.186L113.029 166.688L113.024 166.702L113.019 166.716L108.471 165.186ZM105.045 169.975L108.397 173.409L108.394 173.412L105.045 169.975ZM101.183 172.973L104.041 176.828L104.033 176.834L104.024 176.841L101.183 172.973ZM46.8724 159.27L43.9073 163.043L38.5383 158.824L44.3268 155.202L46.8724 159.27ZM56.9892 167.22L61.7346 166.506L63.535 178.467L54.0242 170.993L56.9892 167.22ZM65.1966 156.403L63.0224 152.125L63.0236 152.125L65.1966 156.403ZM74.4314 154.166L78.5735 151.743L84.7162 162.243L73.0592 158.765L74.4314 154.166ZM69.2321 145.279L66.6866 141.211L70.8777 138.588L73.3742 142.855L69.2321 145.279ZM163.208 127.916L167.242 125.317L170.919 131.025L164.312 132.586L163.208 127.916ZM74.6773 143.876L77.332 147.874L77.2515 147.928L77.1688 147.978L74.6773 143.876ZM38.0197 81.8015L35.3073 77.8428L35.538 77.6848L35.7854 77.5546L38.0197 81.8015ZM87.6312 10.6094L83.7891 7.73417L87.9258 2.2062L91.6653 8.01034L87.6312 10.6094ZM110.284 102.772L105.494 103.068L104.727 90.6501L113.634 99.3364L110.284 102.772ZM117.218 115.64L113.382 118.523L113.377 118.517L117.218 115.64ZM113.852 124.485L112.894 119.783L112.906 119.781L113.852 124.485ZM68.9249 142.436L65.6195 145.915L61.3814 141.888L66.1568 138.516L68.9249 142.436ZM72.0929 145.446L74.5836 149.548L71.4475 151.452L68.7875 148.925L72.0929 145.446ZM74.6738 143.879L77.1652 147.98L77.1646 147.981L74.6738 143.879ZM141.718 127.883L143.542 123.445L141.917 132.678L141.718 127.883ZM125.703 117.392L122.454 120.923L122.448 120.918L125.703 117.392ZM35.6902 83.3811L33.009 79.4011L39.7541 74.8572L40.4704 82.9585L35.6902 83.3811ZM74.691 143.867L77.29 147.901L77.2367 147.935L77.1825 147.968L74.691 143.867ZM74.9463 143.718L77.2024 139.483L84.4164 143.325L77.5454 147.752L74.9463 143.718ZM84.4729 39.3809L79.7882 40.421L79.7853 40.4079L84.4729 39.3809ZM96.709 72.3679L92.4727 74.6224L92.4706 74.6185L96.709 72.3679ZM79.5262 42.552L74.8551 43.6515L74.8538 43.646L79.5262 42.552ZM97.2067 68.2223L92.9063 70.352L90.7699 66.0379L95.0908 63.9152L97.2067 68.2223ZM120.117 56.9676L118.001 52.6604L121.836 50.7762L124.151 54.3686L120.117 56.9676ZM134.553 79.375L138.587 76.776L140.76 80.1491L137.825 82.8852L134.553 79.375ZM115.849 96.8112L119.121 100.321L115.244 103.935L112.032 99.7196L115.849 96.8112ZM73.1286 148.921L68.3354 149.153L68.1519 145.364L71.7965 144.31L73.1286 148.921ZM73.2259 150.929L70.8221 155.083L68.5592 153.773L68.4327 151.162L73.2259 150.929ZM81.3945 155.657L78.9946 159.813L78.9906 159.81L81.3945 155.657ZM84.4688 155.302L87.8112 158.745L87.7936 158.762L87.7758 158.779L84.4688 155.302ZM89.7904 150.136L94.5852 150.332L94.5073 152.246L93.1327 153.58L89.7904 150.136ZM89.5422 144.847L86.2317 141.373L89.1481 138.594L92.3904 140.985L89.5422 144.847ZM83.4515 150.651L86.7621 154.125L86.4328 154.439L86.0505 154.685L83.4515 150.651ZM81.0637 151.074L82.2735 146.43L82.4317 146.472L82.5868 146.523L81.0637 151.074ZM73.0861 148.996L71.8763 153.64L61.3532 150.898L70.471 144.972L73.0861 148.996ZM81.511 143.52L78.8959 139.497L80.4028 138.517L82.1824 138.769L81.511 143.52ZM88.9549 144.572L89.6263 139.82L89.8653 139.854L90.0997 139.912L88.9549 144.572ZM89.2995 146.469L92.5176 150.029L92.5044 150.041L92.4911 150.053L89.2995 146.469ZM85.0306 150.271L88.2222 153.855L88.212 153.864L88.2018 153.873L85.0306 150.271ZM58.6919 78.7583L55.584 75.1019L55.5863 75.1L58.6919 78.7583ZM74.4046 58.6606L70.0268 56.6951L75.9849 43.4245L79.0926 57.6354L74.4046 58.6606ZM90.3009 91.8548L93.9658 88.7569L99.7475 95.5969L90.8502 96.622L90.3009 91.8548ZM77.227 94.1273L75.8757 89.5227L75.8842 89.5202L77.227 94.1273ZM66.997 98.3122L69.1095 102.621L69.1019 102.625L69.0942 102.628L66.997 98.3122ZM43.6825 112.01L46.2815 116.045L41.0082 108.026L43.6825 112.01ZM37.4904 94.2502L32.7601 95.0587L32.2408 92.0203L34.788 90.2846L37.4904 94.2502ZM34.1478 95.7189L31.4296 91.7642L38.2333 87.0878L38.9295 95.3142L34.1478 95.7189ZM11.3003 111.108L6.69177 109.77L7.18315 108.078L8.6531 107.105L11.3003 111.108ZM14.7069 130.663L17.3059 134.697L12.8802 137.548L10.45 132.878L14.7069 130.663ZM39.6999 114.864L43.9931 112.72L45.9501 116.639L42.2255 118.944L39.6999 114.864ZM96.0509 177.618L93.0216 181.34L58.8969 153.564L61.9262 149.842L64.9556 146.12L99.0803 173.896L96.0509 177.618ZM61.9262 149.842L59.57 145.662L77.1541 135.751L79.5103 139.931L81.8666 144.112L64.2824 154.023L61.9262 149.842ZM79.5103 139.931L83.3115 137.002L90.5154 146.351L86.7143 149.28L82.9131 152.209L75.7092 142.86L79.5103 139.931ZM86.7143 149.28L89.053 145.09C89.2085 145.176 89.5293 145.277 91.0488 145.447C92.1857 145.574 94.5214 145.769 96.6584 146.962L94.3196 151.152L91.9808 155.342C91.8253 155.256 91.5045 155.155 89.9851 154.985C88.8481 154.858 86.5125 154.663 84.3755 153.47L86.7143 149.28ZM94.3196 151.152L96.6705 146.968C98.9995 148.277 100.425 150.336 101.262 152.101L96.9261 154.157L92.5902 156.214C92.4427 155.903 92.2937 155.676 92.1676 155.526C92.0445 155.379 91.9715 155.337 91.9687 155.336L94.3196 151.152ZM96.9261 154.157L101.263 152.103C101.677 152.977 101.997 153.865 102.239 154.544C102.507 155.296 102.687 155.809 102.891 156.283C103.304 157.24 103.45 157.114 103.192 156.984L101.027 161.266L98.8627 165.549C96.0963 164.151 94.7903 161.734 94.0789 160.085C93.7212 159.256 93.4203 158.387 93.1994 157.768C92.952 157.075 92.7739 156.602 92.5893 156.212L96.9261 154.157ZM101.027 161.266L103.188 156.982C103.25 157.013 103.459 157.099 104.049 157.181C104.342 157.222 104.658 157.253 105.078 157.294C105.465 157.331 105.968 157.378 106.473 157.444C108.595 157.725 111.938 158.506 114.077 162.089L109.956 164.548L105.836 167.008C105.815 166.973 105.886 167.067 105.986 167.117C105.988 167.118 105.827 167.04 105.217 166.959C104.917 166.92 104.599 166.889 104.163 166.848C103.759 166.809 103.249 166.76 102.723 166.687C101.677 166.541 100.282 166.265 98.8666 165.551L101.027 161.266ZM109.956 164.548L114.084 162.101C115.243 164.056 114.99 166.09 114.738 167.198C114.455 168.443 113.92 169.636 113.357 170.664C112.217 172.747 110.531 174.932 108.712 176.813C106.915 178.67 104.709 180.52 102.41 181.679C100.445 182.671 96.4983 184.063 93.0925 181.396L96.0509 177.618L99.0094 173.84C97.6967 172.812 96.7642 173.778 98.0865 173.111C99.0751 172.612 100.428 171.571 101.814 170.139C103.178 168.73 104.298 167.226 104.938 166.056C105.092 165.776 105.202 165.544 105.276 165.362C105.313 165.272 105.339 165.202 105.356 165.15C105.364 165.125 105.37 165.105 105.373 165.092C105.377 165.078 105.379 165.072 105.379 165.072C105.379 165.072 105.377 165.081 105.374 165.097C105.371 165.114 105.367 165.14 105.364 165.175C105.357 165.243 105.349 165.36 105.358 165.518C105.376 165.827 105.464 166.382 105.828 166.996L109.956 164.548ZM99.2252 186.297L103.003 189.256L102.171 190.318L98.3933 187.358L94.6158 184.399L95.4478 183.337L99.2252 186.297ZM98.3933 187.358L102.169 190.32C97.2544 196.585 88.1934 197.706 81.9136 192.789L84.8721 189.011L87.8305 185.232C89.9237 186.871 92.9603 186.509 94.6177 184.396L98.3933 187.358ZM84.8721 189.011L81.9129 192.789L43.9301 163.037L46.8892 159.259L49.8484 155.481L87.8312 185.233L84.8721 189.011ZM46.8892 159.259L44.2902 155.225L62.6158 143.419L65.2148 147.453L67.8138 151.487L49.4883 163.293L46.8892 159.259ZM65.2148 147.453L68.164 143.667C70.0779 145.158 70.674 145.644 72.5397 147.081L69.6108 150.882L66.6819 154.684C64.8084 153.24 64.0684 152.643 62.2656 151.238L65.2148 147.453ZM69.6108 150.882L72.5323 147.075C72.7917 147.274 73.0514 147.446 73.438 147.698C73.7713 147.914 74.3326 148.274 74.8699 148.704C76.1877 149.76 77.3099 151.186 77.9245 153.319L73.3132 154.648L68.7019 155.976C68.674 155.879 68.6799 155.941 68.7653 156.064C68.8492 156.186 68.919 156.235 68.8679 156.194C68.77 156.115 68.6284 156.018 68.2044 155.743C67.8339 155.502 67.2821 155.144 66.6893 154.689L69.6108 150.882ZM73.3132 154.648L77.9291 153.335C78.208 154.316 78.4547 154.999 78.7275 155.493C78.9777 155.947 79.135 156.03 79.1513 156.039L76.8147 160.231L74.4782 164.423C70.527 162.22 69.2751 157.992 68.6973 155.96L73.3132 154.648ZM76.8147 160.231L79.1535 156.041C79.309 156.127 79.6298 156.228 81.1493 156.398C82.2862 156.525 84.6218 156.72 86.7589 157.913L84.4201 162.103L82.0813 166.293C81.9258 166.207 81.605 166.106 80.0856 165.936C78.9486 165.809 76.613 165.614 74.476 164.421L76.8147 160.231ZM84.4201 162.103L86.771 157.92C89.0999 159.228 90.5253 161.287 91.3624 163.052L87.0265 165.108L82.6907 167.165C82.5432 166.854 82.3941 166.627 82.2681 166.477C82.145 166.33 82.072 166.288 82.0692 166.287L84.4201 162.103ZM87.0265 165.108L91.3633 163.054C91.7773 163.928 92.0976 164.816 92.3396 165.495C92.608 166.247 92.7873 166.76 92.9917 167.234C93.4046 168.191 93.5508 168.065 93.2927 167.935L91.128 172.217L88.9632 176.5C86.1967 175.102 84.8908 172.685 84.1793 171.036C83.8216 170.207 83.5208 169.339 83.2998 168.719C83.0525 168.026 82.8744 167.553 82.6898 167.163L87.0265 165.108ZM91.128 172.217L93.2888 167.933C93.3507 167.964 93.5595 168.05 94.1494 168.132C94.4424 168.173 94.7586 168.205 95.1786 168.245C95.5655 168.282 96.0685 168.329 96.5738 168.395C98.6959 168.676 102.039 169.457 104.177 173.04L100.057 175.499L95.9361 177.959C95.9152 177.924 95.986 178.018 96.0865 178.068C96.0888 178.069 95.9276 177.991 95.3174 177.91C95.0171 177.871 94.6997 177.84 94.2631 177.799C93.8596 177.76 93.3491 177.711 92.8238 177.638C91.7771 177.492 90.3827 177.216 88.9671 176.502L91.128 172.217ZM100.057 175.499L104.176 173.038C105.732 175.641 106.166 178.698 105.944 181.395C105.721 184.097 104.796 186.976 102.997 189.263L99.2252 186.297L95.4534 183.33C95.865 182.806 96.2775 181.829 96.3784 180.606C96.4797 179.377 96.2241 178.441 95.9375 177.961L100.057 175.499ZM88.4993 168.939L93.0344 167.37C93.0705 167.475 92.9746 167.125 92.5477 166.687C92.0385 166.164 91.2853 165.753 90.4123 165.65C89.6573 165.561 89.1291 165.74 88.9836 165.794C88.8323 165.85 88.8035 165.883 88.9654 165.784L91.4781 169.872L93.9909 173.961C93.4992 174.263 91.6293 175.458 89.2865 175.181C86.1196 174.807 84.591 172.32 83.9641 170.508L88.4993 168.939ZM91.4781 169.872L88.9855 165.772C89.7797 165.289 90.7825 164.425 91.7973 163.345C92.7919 162.286 93.5919 161.242 94.0134 160.593L98.0367 163.209L102.06 165.825C100.655 167.985 97.4447 171.861 93.9707 173.973L91.4781 169.872ZM98.0367 163.209L94.0208 160.582C94.2607 160.215 94.4549 159.821 94.5993 159.408L99.1294 160.991L103.659 162.575C103.258 163.723 102.718 164.818 102.053 165.836L98.0367 163.209ZM99.1294 160.991L94.6023 159.399C94.4068 159.955 94.3657 160.764 94.8146 161.574L99.0128 159.25L103.211 156.925C104.245 158.793 104.258 160.874 103.656 162.583L99.1294 160.991ZM99.0128 159.25L94.8456 161.63C94.1826 160.469 93.7335 159.25 93.4188 158.38C93.0569 157.38 92.8506 156.782 92.5924 156.24L96.9238 154.174L101.255 152.109C101.77 153.188 102.173 154.365 102.444 155.115C102.763 155.997 102.972 156.505 103.18 156.87L99.0128 159.25ZM96.9238 154.174L92.5935 156.242C92.4454 155.932 92.2809 155.696 92.1459 155.548L95.697 152.32L99.2481 149.092C100.1 150.029 100.762 151.076 101.254 152.106L96.9238 154.174ZM95.697 152.32L92.1337 155.534C94.1559 157.776 97.371 156.944 98.531 154.791L94.3065 152.515L90.0819 150.238C91.7943 147.06 96.4563 145.997 99.2603 149.106L95.697 152.32ZM94.3065 152.515L98.53 154.793C98.1486 155.5 97.588 156.497 96.9489 157.492C96.3547 158.418 95.5124 159.63 94.544 160.571L91.1996 157.129L87.8551 153.688C88.0055 153.542 88.3676 153.094 88.8726 152.307C89.3328 151.59 89.7662 150.824 90.0829 150.236L94.3065 152.515ZM91.1996 157.129L94.5499 160.565C91.9751 163.076 90.0149 164.271 88.978 164.969L86.2974 160.989L83.6167 157.009C84.7612 156.238 85.9941 155.503 87.8492 153.694L91.1996 157.129ZM86.2974 160.989L88.9513 164.987C90.4273 164.007 90.9068 161.844 89.5715 160.292L85.9339 163.422L82.2964 166.552C79.6909 163.524 80.5354 159.054 83.6434 156.991L86.2974 160.989ZM85.9339 163.422L89.568 160.288C90.3375 161.18 90.9128 162.133 91.3425 163.022L87.0221 165.111L82.7017 167.199C82.5558 166.898 82.4137 166.688 82.2999 166.556L85.9339 163.422ZM87.0221 165.111L91.3633 163.066C92.056 164.536 92.6031 166.128 93.0326 167.365L88.4993 168.939L83.9659 170.513C83.5003 169.172 83.1169 168.081 82.6809 167.156L87.0221 165.111ZM100.045 175.491L104.674 174.224C105.746 178.142 105.408 181.759 103.982 184.913C102.598 187.972 100.335 190.287 98.0206 192.004L95.1623 188.149L92.304 184.294C93.7585 183.216 94.7261 182.087 95.2367 180.958C95.704 179.925 95.9233 178.61 95.4164 176.757L100.045 175.491ZM95.1623 188.149L98.0288 191.998C95.4267 193.936 92.7249 194.73 90.7232 195.049C89.7158 195.21 88.8531 195.255 88.2164 195.259C87.8966 195.261 87.6294 195.252 87.4242 195.24C87.3215 195.235 87.234 195.229 87.1627 195.223C87.127 195.22 87.0954 195.217 87.068 195.214C87.0542 195.213 87.0415 195.212 87.0299 195.211C87.0241 195.21 87.0185 195.21 87.0133 195.209C87.0106 195.209 87.008 195.208 87.0055 195.208C87.0043 195.208 87.0024 195.208 87.0018 195.208C87 195.208 86.9982 195.207 87.5075 190.436C88.0168 185.664 88.015 185.664 88.0133 185.664C88.0127 185.664 88.011 185.663 88.0098 185.663C88.0076 185.663 88.0054 185.663 88.0032 185.663C87.9989 185.662 87.9948 185.662 87.9909 185.661C87.9832 185.66 87.9763 185.66 87.9703 185.659C87.9582 185.658 87.9495 185.657 87.9441 185.657C87.9334 185.656 87.9355 185.656 87.9496 185.657C87.978 185.659 88.0525 185.662 88.1656 185.661C88.3947 185.66 88.7623 185.643 89.2129 185.571C90.1275 185.426 91.2531 185.077 92.2958 184.3L95.1623 188.149ZM87.5075 190.436L89.4248 186.037C92.2962 187.288 95.6976 186.309 99.5146 183.285C103.224 180.346 105.957 176.481 106.592 175.314L110.808 177.607L115.024 179.9C113.817 182.117 110.27 187.008 105.475 190.807C100.787 194.522 93.4582 198.264 85.5902 194.835L87.5075 190.436ZM110.808 177.607L106.591 175.316C107.717 173.243 107.811 172.202 107.745 171.509C107.661 170.629 107.248 169.486 105.959 167.184L110.147 164.84L114.334 162.496C115.687 164.913 117.01 167.567 117.299 170.598C117.606 173.815 116.709 176.797 115.024 179.898L110.808 177.607ZM110.147 164.84L105.918 167.108C106.436 168.074 107.119 168.521 107.323 168.649C107.656 168.859 108.177 169.109 108.883 169.186C109.664 169.273 110.705 169.137 111.659 168.464C112.565 167.824 112.915 167.034 113.029 166.688L108.471 165.186L103.913 163.685C104.24 162.692 104.886 161.497 106.122 160.625C107.404 159.719 108.808 159.522 109.936 159.647C110.987 159.763 111.837 160.15 112.432 160.525C112.899 160.818 113.778 161.458 114.375 162.571L110.147 164.84ZM108.471 165.186L113.019 166.716C111.966 169.848 109.924 171.918 108.397 173.409L105.045 169.975L101.693 166.541C103.144 165.125 103.662 164.431 103.922 163.657L108.471 165.186ZM105.045 169.975L108.394 173.412C106.266 175.485 104.291 176.643 104.041 176.828L101.183 172.973L98.3256 169.118C99.7175 168.086 100.157 168.038 101.696 166.538L105.045 169.975ZM101.183 172.973L104.024 176.841C103.865 176.957 103.865 176.971 103.932 176.903C104.009 176.825 104.217 176.597 104.406 176.212C104.609 175.797 104.718 175.347 104.735 174.917C104.751 174.522 104.684 174.262 104.668 174.203L100.045 175.491L95.4222 176.779C95.0521 175.45 94.9309 173.735 95.7892 171.985C96.5175 170.5 97.6899 169.584 98.3431 169.105L101.183 172.973ZM46.8724 159.27L49.8374 155.497L59.9543 163.447L56.9892 167.22L54.0242 170.993L43.9073 163.043L46.8724 159.27ZM56.9892 167.22C52.2439 167.934 52.2433 167.931 52.2428 167.927C52.2426 167.926 52.242 167.922 52.2417 167.919C52.2409 167.914 52.2402 167.909 52.2394 167.904C52.2379 167.894 52.2364 167.883 52.2348 167.871C52.2317 167.849 52.2284 167.824 52.2252 167.798C52.2186 167.746 52.2119 167.687 52.2054 167.621C52.1925 167.49 52.1804 167.332 52.1727 167.15C52.1572 166.785 52.1587 166.321 52.2054 165.774C52.299 164.679 52.5744 163.253 53.2556 161.663C54.6571 158.392 57.5683 154.897 63.0224 152.125L65.1966 156.403L67.3709 160.681C63.6883 162.553 62.4959 164.467 62.0778 165.443C61.8492 165.976 61.7859 166.384 61.7682 166.591C61.7592 166.696 61.762 166.75 61.7616 166.742C61.7614 166.737 61.7604 166.717 61.7566 166.678C61.7547 166.659 61.7521 166.635 61.7485 166.606C61.7467 166.592 61.7447 166.576 61.7424 166.56C61.7412 166.551 61.74 166.543 61.7387 166.534C61.7381 166.529 61.7374 166.525 61.7367 166.52C61.7363 166.518 61.7358 166.514 61.7356 166.513C61.7351 166.509 61.7346 166.506 56.9892 167.22ZM65.1966 156.403L63.0236 152.125C66.5733 150.322 69.44 149.57 71.6196 149.334C72.7062 149.217 73.6038 149.229 74.3092 149.296C74.661 149.329 74.962 149.375 75.2119 149.424C75.3367 149.449 75.4485 149.474 75.5472 149.498C75.5966 149.51 75.6426 149.522 75.6854 149.534C75.7067 149.54 75.7273 149.545 75.747 149.551C75.7568 149.554 75.7665 149.557 75.7759 149.559C75.7806 149.561 75.7853 149.562 75.7899 149.564C75.7922 149.564 75.7956 149.565 75.7968 149.566C75.8002 149.567 75.8036 149.568 74.4314 154.166C73.0592 158.765 73.0626 158.766 73.066 158.767C73.0671 158.767 73.0704 158.768 73.0726 158.769C73.0771 158.77 73.0815 158.771 73.0858 158.772C73.0945 158.775 73.103 158.777 73.1114 158.78C73.1281 158.785 73.1442 158.789 73.1596 158.793C73.1905 158.802 73.2187 158.809 73.2442 158.815C73.2953 158.828 73.3357 158.837 73.3653 158.842C73.4246 158.854 73.4395 158.854 73.4093 158.851C73.3508 158.846 73.1007 158.828 72.6526 158.876C71.7629 158.973 70.0122 159.34 67.3697 160.682L65.1966 156.403ZM74.4314 154.166L70.2893 156.589L65.09 147.702L69.2321 145.279L73.3742 142.855L78.5735 151.743L74.4314 154.166ZM69.2321 145.279L71.7777 149.347L49.4179 163.338L46.8724 159.27L44.3268 155.202L66.6866 141.211L69.2321 145.279ZM163.208 127.916L164.312 132.586C162.618 132.987 160.351 133.185 157.954 133.319C155.472 133.458 152.48 133.543 149.186 133.635C142.548 133.82 134.484 134.033 125.896 134.733C108.516 136.149 89.9384 139.503 77.332 147.874L74.6773 143.876L72.0226 139.879C86.8173 130.054 107.556 126.598 125.117 125.167C133.999 124.444 142.312 124.225 148.919 124.041C152.248 123.949 155.097 123.866 157.418 123.736C159.825 123.601 161.324 123.431 162.104 123.246L163.208 127.916ZM74.6773 143.876L77.1688 147.978C63.3451 156.376 53.4696 162.691 51.1185 164.205L48.5195 160.171L45.9205 156.137C48.3284 154.586 58.2767 148.225 72.1858 139.775L74.6773 143.876ZM48.5195 160.171L51.1185 164.205C45.4484 167.859 37.8058 167.242 30.7021 163.876C23.4387 160.435 15.9382 153.832 9.54888 143.915L13.5829 141.316L17.617 138.717C23.2411 147.446 29.4761 152.675 34.8112 155.203C40.3061 157.806 44.1251 157.294 45.9205 156.137L48.5195 160.171ZM13.5829 141.316L9.54888 143.915C3.10409 133.911 0.197828 123.687 0.0100087 115.087C-0.169421 106.871 2.18499 98.7659 8.04259 94.992L10.6416 99.0261L13.2406 103.06C11.6327 104.096 9.45106 107.813 9.60533 114.877C9.75122 121.557 12.0484 130.073 17.617 138.717L13.5829 141.316ZM10.6416 99.0261L8.04259 94.992C9.61961 93.976 21.2463 87.4773 35.3073 77.8428L38.0197 81.8015L40.7322 85.7602C33.6329 90.6246 26.9881 94.8005 21.9849 97.8469C19.4816 99.3711 17.3868 100.614 15.8513 101.519C15.1086 101.957 14.4322 102.353 13.9958 102.61C13.7634 102.747 13.5799 102.856 13.4406 102.939C13.2853 103.032 13.235 103.064 13.2406 103.06L10.6416 99.0261ZM38.0197 81.8015L35.7854 77.5546C47.7001 71.2862 56.753 58.3534 64.3972 44.2497C68.1855 37.2603 71.4763 30.2868 74.6207 23.9123C77.6889 17.6924 80.7021 11.8593 83.7891 7.73417L87.6312 10.6094L91.4733 13.4845C89.002 16.7869 86.3545 21.8201 83.2281 28.1581C80.1779 34.3417 76.7403 41.6179 72.8351 48.8231C65.0923 63.1086 54.8978 78.3443 40.2541 86.0484L38.0197 81.8015ZM87.6312 10.6094L91.6653 8.01034L167.242 125.317L163.208 127.916L159.174 130.515L83.5971 13.2084L87.6312 10.6094ZM110.284 102.772L115.073 102.476C115.096 102.837 115.459 104.076 116.71 106.282C117.851 108.293 119.405 110.555 121.059 112.764L117.218 115.64L113.377 118.517C111.602 116.147 109.784 113.523 108.363 111.018C107.052 108.708 105.663 105.803 105.494 103.068L110.284 102.772ZM117.218 115.64L121.054 112.757C125.628 118.844 122.298 127.682 114.798 129.19L113.852 124.485L112.906 119.781C113.181 119.725 113.376 119.561 113.481 119.284C113.588 119.004 113.549 118.747 113.382 118.523L117.218 115.64ZM113.852 124.485L114.81 129.187C101.574 131.885 90.7262 136.22 83.2012 139.873C79.4423 141.698 76.5239 143.348 74.564 144.528C73.5844 145.118 72.8454 145.59 72.3617 145.907C72.1199 146.066 71.942 146.185 71.8299 146.262C71.7739 146.3 71.7343 146.327 71.7114 146.343C71.6999 146.351 71.6927 146.356 71.6896 146.358C71.6881 146.359 71.6876 146.36 71.6881 146.359C71.6884 146.359 71.689 146.359 71.6898 146.358C71.6902 146.358 71.691 146.357 71.6912 146.357C71.6921 146.357 71.693 146.356 68.9249 142.436C66.1568 138.516 66.1578 138.515 66.159 138.514C66.1594 138.514 66.1606 138.513 66.1616 138.513C66.1635 138.511 66.1656 138.51 66.168 138.508C66.1729 138.505 66.1788 138.501 66.1857 138.496C66.1997 138.486 66.218 138.473 66.2405 138.457C66.2855 138.426 66.3475 138.383 66.4264 138.33C66.5841 138.222 66.8091 138.071 67.0995 137.881C67.6802 137.5 68.523 136.962 69.613 136.306C71.7923 134.994 74.9641 133.204 79.0093 131.24C87.0923 127.315 98.708 122.674 112.894 119.783L113.852 124.485ZM68.9249 142.436L72.2303 138.957L75.3983 141.967L72.0929 145.446L68.7875 148.925L65.6195 145.915L68.9249 142.436ZM72.0929 145.446L69.6022 141.344L72.1831 139.777L74.6738 143.879L77.1646 147.981L74.5836 149.548L72.0929 145.446ZM74.6738 143.879L72.1824 139.777C92.7815 127.264 122.114 123.892 141.52 123.089L141.718 127.883L141.917 132.678C122.681 133.475 95.5166 136.833 77.1652 147.98L74.6738 143.879ZM141.718 127.883C139.894 132.322 139.893 132.322 139.892 132.321C139.892 132.321 139.891 132.321 139.89 132.32C139.889 132.32 139.887 132.319 139.885 132.318C139.882 132.317 139.878 132.315 139.874 132.314C139.865 132.31 139.854 132.305 139.842 132.3C139.816 132.289 139.783 132.275 139.741 132.258C139.659 132.223 139.545 132.174 139.403 132.111C139.119 131.985 138.72 131.804 138.224 131.566C137.231 131.091 135.845 130.388 134.209 129.454C130.953 127.592 126.631 124.767 122.454 120.923L125.703 117.392L128.952 113.86C132.455 117.083 136.141 119.503 138.972 121.121C140.38 121.926 141.557 122.521 142.368 122.909C142.773 123.103 143.085 123.245 143.287 123.334C143.387 123.378 143.461 123.41 143.504 123.428C143.526 123.438 143.54 123.444 143.546 123.446C143.55 123.448 143.551 123.448 143.55 123.448C143.55 123.448 143.549 123.448 143.548 123.447C143.547 123.447 143.546 123.446 143.545 123.446C143.545 123.446 143.544 123.446 143.544 123.445C143.543 123.445 143.542 123.445 141.718 127.883ZM125.703 117.392L122.448 120.918C118.424 117.204 114.547 113.528 111.679 110.783C110.244 109.41 109.059 108.268 108.233 107.468C107.819 107.068 107.496 106.754 107.274 106.54C107.164 106.432 107.079 106.35 107.022 106.294C106.993 106.266 106.971 106.244 106.956 106.23C106.949 106.223 106.943 106.217 106.939 106.213C106.937 106.212 106.936 106.21 106.935 106.209C106.934 106.209 106.934 106.208 106.934 106.208C106.933 106.208 106.933 106.208 106.933 106.208C106.933 106.207 106.933 106.207 110.284 102.772C113.634 99.3364 113.634 99.3364 113.634 99.3364C113.634 99.3365 113.634 99.3365 113.634 99.3366C113.634 99.3367 113.635 99.337 113.635 99.3374C113.636 99.3381 113.637 99.3393 113.639 99.3409C113.642 99.3442 113.647 99.3492 113.654 99.3559C113.668 99.3693 113.689 99.3896 113.716 99.4165C113.772 99.4703 113.854 99.5506 113.962 99.6557C114.179 99.8659 114.498 100.175 114.906 100.57C115.722 101.359 116.894 102.489 118.314 103.849C121.158 106.57 124.99 110.204 128.958 113.865L125.703 117.392ZM47.733 119.313L43.6989 121.912C36.3642 110.527 31.9508 95.5758 30.91 83.8037L35.6902 83.3811L40.4704 82.9585C41.3941 93.4072 45.3907 106.817 51.767 116.714L47.733 119.313ZM35.6902 83.3811L38.3713 87.361C31.7858 91.7975 25.7213 95.5795 21.1754 98.3354C18.9012 99.714 17.0055 100.837 15.6157 101.655C14.9059 102.074 14.3693 102.388 13.9363 102.643C13.7258 102.768 13.5597 102.866 13.4337 102.942C13.2934 103.026 13.2482 103.054 13.2543 103.05L10.6553 99.0163L8.05629 94.9823C9.65081 93.955 19.8606 88.2587 33.009 79.4011L35.6902 83.3811ZM10.6553 99.0163L13.2543 103.05C11.6464 104.086 9.46475 107.803 9.61903 114.868C9.7649 121.548 12.0621 130.064 17.6307 138.707L13.5966 141.306L9.56256 143.905C3.11777 133.902 0.211521 123.678 0.0236909 115.077C-0.155739 106.861 2.19869 98.7561 8.05629 94.9823L10.6553 99.0163ZM13.5966 141.306L17.6307 138.707C23.2555 147.437 29.4881 152.668 34.8216 155.196C40.313 157.799 44.1323 157.288 45.9342 156.128L48.5332 160.162L51.1322 164.196C45.4573 167.852 37.815 167.236 30.7107 163.869C23.4484 160.427 15.9512 153.821 9.56256 143.905L13.5966 141.306ZM48.5332 160.162L45.9342 156.128C48.3421 154.576 58.2904 148.215 72.1995 139.765L74.691 143.867L77.1825 147.968C63.3588 156.366 53.4833 162.681 51.1322 164.196L48.5332 160.162ZM74.691 143.867L72.092 139.833C72.2037 139.761 72.2999 139.704 72.362 139.668C72.4218 139.634 72.4773 139.604 72.4934 139.595C72.5214 139.579 72.51 139.585 72.4932 139.595C72.474 139.606 72.4196 139.637 72.3473 139.684L74.9463 143.718L77.5454 147.752C77.4336 147.824 77.3375 147.881 77.2753 147.916C77.2155 147.951 77.1601 147.981 77.144 147.99C77.116 148.006 77.1273 148 77.1442 147.99C77.1634 147.979 77.2178 147.947 77.29 147.901L74.691 143.867ZM74.9463 143.718L72.6903 147.953C61.2087 141.838 51.0473 133.318 43.6989 121.912L47.733 119.313L51.767 116.714C58.0861 126.522 66.9144 134.002 77.2024 139.483L74.9463 143.718ZM101.922 84.4016L105.956 81.8025C116.145 97.6167 127.825 110.088 138.304 117.528C143.555 121.256 148.298 123.573 152.236 124.537C156.16 125.498 158.833 125.027 160.613 123.879L163.212 127.914L165.811 131.948C161.103 134.981 155.478 135.212 149.954 133.859C144.444 132.51 138.588 129.5 132.748 125.354C121.045 117.045 108.57 103.58 97.888 87.0006L101.922 84.4016ZM163.212 127.914L160.613 123.879C162.394 122.732 163.928 120.493 164.675 116.523C165.425 112.539 165.276 107.262 164.051 100.94C161.609 88.3224 155.08 72.5318 144.892 56.7176L148.926 54.1186L152.96 51.5196C163.641 68.0989 170.746 85.0245 173.474 99.1156C174.835 106.147 175.156 112.723 174.107 118.298C173.055 123.887 170.52 128.914 165.811 131.948L163.212 127.914ZM148.926 54.1186L144.892 56.7176C134.703 40.9035 123.023 28.4319 112.544 20.9922C107.292 17.2641 102.55 14.9474 98.6119 13.9833C94.6878 13.0226 92.0154 13.4933 90.2344 14.6407L87.6354 10.6066L85.0364 6.57256C89.7454 3.53874 95.3703 3.30865 100.894 4.66101C106.404 6.00995 112.26 9.02014 118.1 13.1662C129.803 21.4748 142.278 34.9403 152.96 51.5196L148.926 54.1186ZM87.6354 10.6066L90.2344 14.6407C88.4535 15.7881 86.9203 18.027 86.1731 21.9972C85.4232 25.9816 85.5724 31.2577 86.7964 37.5804C89.2392 50.1978 95.7676 65.9884 105.956 81.8025L101.922 84.4016L97.888 87.0006C87.2066 70.4213 80.1018 53.4956 77.3738 39.4046C76.0125 32.373 75.6919 25.7968 76.741 20.2221C77.7929 14.6332 80.3275 9.60639 85.0364 6.57256L87.6354 10.6066ZM148.926 54.1186L144.892 56.7176C133.653 39.2737 121.967 25.5856 111.472 17.5165C100.619 9.17168 92.925 8.12712 88.0581 11.2627L85.4591 7.22863L82.8601 3.19457C93.319 -3.54378 105.969 1.17841 117.323 9.90791C129.035 18.9132 141.419 33.607 152.96 51.5196L148.926 54.1186ZM85.4591 7.22863L88.0581 11.2627C82.9728 14.539 80.1701 22.7793 82.4419 36.5644C84.6437 49.9242 91.4246 66.6782 102.573 83.9822L98.5389 86.5812L94.5049 89.1803C82.867 71.1166 75.4451 53.1312 72.972 38.1251C70.5691 23.5444 72.6196 9.7922 82.8601 3.19457L85.4591 7.22863ZM98.5389 86.5812L102.573 83.9822C113.721 101.286 126.174 114.386 137.429 121.913C149.043 129.68 157.704 130.534 162.79 127.257L165.389 131.292L167.988 135.326C157.747 141.923 144.377 138.106 132.094 129.891C119.452 121.436 106.143 107.244 94.5049 89.1803L98.5389 86.5812ZM165.389 131.292L162.79 127.257C167.657 124.121 169.887 116.686 166.776 103.356C163.768 90.4661 156.134 74.1673 144.892 56.7176L148.926 54.1186L152.96 51.5196C164.504 69.4376 172.765 86.7883 176.123 101.175C179.378 115.121 178.446 128.588 167.988 135.326L165.389 131.292ZM145.543 56.2983L149.577 53.6993C160.326 70.384 166.854 86.4672 169.435 99.3936C170.721 105.837 171.071 111.718 170.326 116.593C169.595 121.367 167.67 125.97 163.635 128.57L161.036 124.536L158.437 120.501C159.162 120.035 160.302 118.647 160.838 115.142C161.359 111.737 161.176 107.05 160.023 101.273C157.724 89.7572 151.746 74.7878 141.509 58.8973L145.543 56.2983ZM161.036 124.536L163.635 128.57C159.601 131.169 154.613 131.02 149.964 129.711C145.217 128.375 140.006 125.625 134.671 121.791C123.967 114.098 112.021 101.506 101.271 84.8209L105.305 82.2219L109.339 79.6229C119.577 95.5134 130.737 107.144 140.272 113.997C145.056 117.436 149.249 119.54 152.564 120.473C155.978 121.433 157.712 120.968 158.437 120.501L161.036 124.536ZM105.305 82.2219L101.271 84.8209C90.5214 68.1356 83.9963 52.0504 81.4172 39.1233C80.1317 32.6795 79.7819 26.7986 80.5269 21.9247C81.2564 17.1525 83.18 12.5487 87.2128 9.95058L89.8118 13.9846L92.4108 18.0187C91.6902 18.483 90.5504 19.8682 90.0144 23.3749C89.4939 26.7797 89.6766 31.4674 90.8294 37.2455C93.127 48.7619 99.102 63.7329 109.339 79.6229L105.305 82.2219ZM89.8118 13.9846L87.2128 9.95058C91.2462 7.35195 96.2344 7.50474 100.881 8.81391C105.628 10.1511 110.839 12.9014 116.175 16.7362C126.881 24.4292 138.83 37.0195 149.577 53.6993L145.543 56.2983L141.509 58.8973C131.275 43.0132 120.112 31.3841 110.574 24.5301C105.789 21.0913 101.595 18.9862 98.2788 18.0519C94.863 17.0896 93.1307 17.5549 92.4108 18.0187L89.8118 13.9846ZM84.4729 39.3809L89.1577 38.3408C89.6856 40.7188 89.7455 42.8151 91.2606 47.8398C92.7155 52.6646 95.4531 59.7703 100.947 70.1174L96.709 72.3679L92.4706 74.6185C86.7435 63.8328 83.7407 56.1457 82.0716 50.6106C80.4629 45.2753 80.0154 41.4443 79.7882 40.421L84.4729 39.3809ZM96.709 72.3679L100.945 70.1134C101.21 70.6112 101.927 72.0425 102.291 73.6983C102.472 74.5197 102.647 75.7397 102.409 77.0729C102.148 78.5318 101.352 80.2478 99.5721 81.3944L96.9731 77.3603L94.3741 73.3262C93.9542 73.5968 93.6006 73.9654 93.3464 74.3859C93.1035 74.7878 93.0024 75.1508 92.9603 75.3866C92.8875 75.795 92.9633 75.9671 92.9183 75.7628C92.8842 75.6079 92.8119 75.3829 92.7056 75.1247C92.6038 74.8774 92.5071 74.687 92.4727 74.6224L96.709 72.3679ZM96.9731 77.3603L99.5721 81.3944C98.1416 82.316 96.5042 82.5322 95.0026 82.1821C93.6817 81.8741 92.6853 81.1863 92.0455 80.6522C90.7861 79.6009 89.744 78.1458 88.9533 76.9185L92.9873 74.3195L97.0214 71.7205C97.3351 72.2074 97.6065 72.5897 97.8345 72.8763C97.9466 73.0172 98.0368 73.1206 98.1048 73.1929C98.1741 73.2667 98.2048 73.2917 98.1961 73.2844C98.1896 73.279 98.1126 73.2146 97.9645 73.1316C97.8168 73.0487 97.5527 72.9216 97.1818 72.8351C96.7978 72.7456 96.3148 72.7041 95.7765 72.7915C95.2327 72.8797 94.7571 73.0795 94.3741 73.3262L96.9731 77.3603ZM92.9873 74.3195L88.9533 76.9185C82.9063 67.5327 77.8075 56.1947 74.8551 43.6515L79.5262 42.552L84.1974 41.4525C86.8854 52.8726 91.5338 63.2029 97.0214 71.7205L92.9873 74.3195ZM79.5262 42.552L74.8538 43.646C73.8835 39.5017 74.5199 34.137 79.2071 32.2249C81.4984 31.2902 83.9547 31.7062 85.8223 33.0327C87.643 34.3259 88.71 36.2972 89.1606 38.3539L84.4729 39.3809L79.7853 40.4079C79.722 40.1189 79.7155 40.4674 80.2647 40.8574C80.8607 41.2808 81.8473 41.5134 82.8323 41.1115C83.7746 40.7271 84.0403 40.0541 84.0629 39.9826C84.0803 39.9272 83.94 40.3532 84.1987 41.458L79.5262 42.552ZM97.2067 68.2223L95.0908 63.9152L118.001 52.6604L120.117 56.9676L122.233 61.2747L99.3226 72.5295L97.2067 68.2223ZM120.117 56.9676L124.151 54.3686L138.587 76.776L134.553 79.375L130.519 81.974L116.083 59.5666L120.117 56.9676ZM134.553 79.375L137.825 82.8852L119.121 100.321L115.849 96.8112L112.577 93.301L131.281 75.8649L134.553 79.375ZM115.849 96.8112L112.032 99.7196C105.513 91.1646 100.758 83.875 97.6208 78.7006C96.0518 76.113 94.8867 74.053 94.1072 72.6266C93.7174 71.9133 93.424 71.3583 93.2246 70.9749C93.1249 70.7831 93.0487 70.6343 92.9958 70.5299C92.9693 70.4777 92.9487 70.4367 92.9338 70.4069C92.9263 70.3921 92.9203 70.38 92.9157 70.3709C92.9135 70.3663 92.9115 70.3624 92.91 70.3593C92.9092 70.3577 92.9085 70.3563 92.9079 70.3551C92.9076 70.3545 92.9072 70.3537 92.907 70.3534C92.9067 70.3527 92.9063 70.352 97.2067 68.2223C101.507 66.0927 101.507 66.0921 101.507 66.0915C101.506 66.0914 101.506 66.0909 101.506 66.0907C101.506 66.0902 101.506 66.0898 101.506 66.0897C101.505 66.0894 101.506 66.0899 101.506 66.091C101.507 66.0933 101.51 66.0984 101.514 66.1063C101.522 66.1222 101.536 66.1493 101.555 66.1875C101.594 66.2639 101.655 66.3845 101.74 66.5476C101.91 66.8739 102.172 67.3704 102.529 68.024C103.244 69.3313 104.337 71.2664 105.828 73.7246C108.809 78.6418 113.375 85.6467 119.666 93.9027L115.849 96.8112ZM122.025 71.6061L126.06 69.0071C127.755 71.6381 129.677 73.4905 131.217 74.4452C133.097 75.6107 132.958 74.7085 131.968 75.3464L134.567 79.3804L137.166 83.4145C133.236 85.9464 128.819 84.2508 126.16 82.6025C123.161 80.7435 120.283 77.7617 117.991 74.2051L122.025 71.6061ZM134.567 79.3804L131.968 75.3464C130.977 75.9843 131.741 76.4842 131.457 74.2904C131.224 72.4935 130.332 69.9774 128.637 67.3464L132.671 64.7474L136.705 62.1483C138.997 65.705 140.522 69.5584 140.975 73.0576C141.377 76.16 141.095 80.8826 137.166 83.4145L134.567 79.3804ZM132.671 64.7474L128.637 67.3464C126.942 64.7154 125.02 62.8629 123.48 61.9083C121.6 60.7427 121.739 61.645 122.729 61.0071L120.13 56.973L117.531 52.9389C121.461 50.407 125.878 52.1026 128.537 53.7509C131.535 55.61 134.414 58.5917 136.705 62.1483L132.671 64.7474ZM120.13 56.973L122.729 61.0071C123.719 60.3691 122.955 59.8692 123.24 62.063C123.472 63.86 124.364 66.3761 126.06 69.0071L122.025 71.6061L117.991 74.2051C115.7 70.6484 114.175 66.795 113.721 63.2958C113.32 60.1935 113.601 55.4708 117.531 52.9389L120.13 56.973ZM73.1286 148.921L77.9218 148.689L78.0191 150.697L73.2259 150.929L68.4327 151.162L68.3354 149.153L73.1286 148.921ZM73.2259 150.929L75.6298 146.776L83.7983 151.504L81.3945 155.657L78.9906 159.81L70.8221 155.083L73.2259 150.929ZM81.3945 155.657L83.7944 151.502C82.9769 151.029 81.9003 151.122 81.1619 151.824L84.4688 155.302L87.7758 158.779C85.3749 161.062 81.7944 161.43 78.9946 159.813L81.3945 155.657ZM84.4688 155.302L81.1265 151.858L86.448 146.693L89.7904 150.136L93.1327 153.58L87.8112 158.745L84.4688 155.302ZM89.7904 150.136C84.9955 149.941 84.9955 149.941 84.9955 149.941C84.9955 149.941 84.9955 149.941 84.9955 149.941C84.9955 149.941 84.9955 149.941 84.9955 149.941C84.9956 149.941 84.9956 149.94 84.9956 149.939C84.9957 149.938 84.9958 149.936 84.9959 149.932C84.9961 149.926 84.9965 149.917 84.997 149.904C84.998 149.879 84.9995 149.842 85.0014 149.794C85.0052 149.699 85.0106 149.561 85.0169 149.393C85.0297 149.056 85.0464 148.601 85.0622 148.123C85.0781 147.644 85.0926 147.154 85.1015 146.743C85.1059 146.537 85.1087 146.362 85.1096 146.225C85.1107 146.07 85.109 146.019 85.1096 146.035L89.9051 145.856L94.7006 145.677C94.7227 146.271 94.6838 147.556 94.6546 148.441C94.6381 148.938 94.6208 149.41 94.6076 149.757C94.6011 149.931 94.5955 150.073 94.5915 150.173C94.5896 150.223 94.588 150.262 94.5869 150.289C94.5864 150.303 94.586 150.313 94.5857 150.32C94.5855 150.324 94.5854 150.326 94.5853 150.328C94.5853 150.329 94.5853 150.33 94.5852 150.331C94.5852 150.331 94.5852 150.331 94.5852 150.331C94.5852 150.331 94.5852 150.331 94.5852 150.331C94.5852 150.331 94.5852 150.332 89.7904 150.136ZM89.9051 145.856L85.1096 146.035C85.1217 146.359 85.2156 146.851 85.5177 147.395C85.6623 147.656 85.839 147.899 86.0415 148.122C86.142 148.233 86.2474 148.337 86.3566 148.435C86.4112 148.484 86.4667 148.531 86.523 148.577C86.5511 148.6 86.5795 148.622 86.608 148.644C86.6222 148.655 86.6365 148.666 86.6509 148.677C86.6581 148.682 86.6653 148.688 86.6725 148.693C86.6761 148.696 86.6797 148.698 86.6833 148.701C86.6851 148.702 86.6878 148.704 86.6887 148.705C86.6914 148.707 86.6941 148.709 89.5422 144.847C92.3904 140.985 92.3931 140.987 92.3958 140.989C92.3967 140.989 92.3994 140.991 92.4012 140.993C92.4049 140.995 92.4085 140.998 92.4122 141.001C92.4194 141.006 92.4267 141.012 92.4341 141.017C92.4488 141.028 92.4635 141.04 92.4784 141.051C92.5082 141.074 92.5384 141.098 92.569 141.123C92.6302 141.173 92.6929 141.226 92.7567 141.283C92.8844 141.397 93.0161 141.526 93.1484 141.672C93.4145 141.965 93.6765 142.318 93.9084 142.736C94.3847 143.594 94.66 144.59 94.7006 145.677L89.9051 145.856ZM89.5422 144.847L92.8528 148.321L86.7621 154.125L83.4515 150.651L80.1409 147.177L86.2317 141.373L89.5422 144.847ZM83.4515 150.651L86.0505 154.685C85.0785 155.166 83.7454 155.441 83.4665 155.45C83.3426 155.449 83.1497 155.441 83.0804 155.436C82.964 155.427 82.8732 155.415 82.8503 155.412C82.7851 155.404 82.7333 155.396 82.7202 155.394C82.6818 155.388 82.6483 155.383 82.6336 155.38C82.5974 155.374 82.5557 155.367 82.5164 155.36C82.4342 155.346 82.3193 155.326 82.1808 155.301C81.9027 155.252 81.5051 155.182 81.0338 155.098C80.0874 154.93 78.8287 154.707 77.5635 154.487C76.2945 154.266 75.0355 154.051 74.0838 153.896C73.6034 153.818 73.2297 153.76 72.9815 153.725C72.8509 153.707 72.7993 153.701 72.8011 153.701C72.8052 153.702 72.8208 153.703 72.8452 153.705C72.8675 153.707 72.9137 153.711 72.976 153.713C73.0282 153.715 73.1514 153.72 73.3124 153.714C73.3725 153.712 73.8639 153.703 74.4608 153.531L73.1286 148.921L71.7965 144.31C72.4018 144.136 72.9064 144.125 72.9842 144.122C73.1631 144.116 73.3087 144.121 73.3877 144.124C73.5515 144.131 73.6938 144.145 73.7765 144.153C73.955 144.172 74.1467 144.197 74.3165 144.221C74.669 144.27 75.1241 144.341 75.6232 144.423C76.6305 144.586 77.9333 144.81 79.2099 145.032C80.4905 145.255 81.7613 145.48 82.7095 145.648C83.1854 145.732 83.5764 145.802 83.8506 145.85C83.9883 145.874 84.0906 145.892 84.1569 145.904C84.1731 145.907 84.1858 145.909 84.1955 145.911C84.2057 145.912 84.2098 145.913 84.2097 145.913C84.2095 145.913 84.2063 145.912 84.2008 145.912C84.1964 145.911 84.1841 145.909 84.1672 145.906C84.1591 145.905 84.1111 145.898 84.0485 145.89C84.0269 145.887 83.9371 145.876 83.8214 145.867C83.7525 145.862 83.5598 145.854 83.4361 145.852C83.1573 145.861 81.8245 146.137 80.8525 146.617L83.4515 150.651ZM81.0637 151.074L79.8539 155.718L71.8763 153.64L73.0861 148.996L74.2959 144.352L82.2735 146.43L81.0637 151.074ZM73.0861 148.996L70.471 144.972L78.8959 139.497L81.511 143.52L84.1261 147.544L75.7012 153.019L73.0861 148.996ZM81.511 143.52L82.1824 138.769L89.6263 139.82L88.9549 144.572L88.2836 149.324L80.8396 148.272L81.511 143.52ZM88.9549 144.572L90.0997 139.912C92.1911 140.425 94.1047 142.081 94.5055 144.608C94.8693 146.903 93.8173 148.854 92.5176 150.029L89.2995 146.469L86.0815 142.909C85.518 143.419 84.7771 144.54 85.0263 146.112C85.3125 147.916 86.6857 148.956 87.8102 149.232L88.9549 144.572ZM89.2995 146.469L92.4911 150.053L88.2222 153.855L85.0306 150.271L81.839 146.688L86.1079 142.886L89.2995 146.469ZM85.0306 150.271L88.2018 153.873C85.8511 155.943 82.5618 156.636 79.5406 155.625L81.0637 151.074L82.5868 146.523C82.3326 146.438 82.0515 146.5 81.8594 146.669L85.0306 150.271ZM58.6919 78.7583L55.5863 75.1C61.7327 69.8822 66.8781 63.708 70.0268 56.6951L74.4046 58.6606L78.7824 60.6261C74.9054 69.2613 68.732 76.53 61.7975 82.4167L58.6919 78.7583ZM74.4046 58.6606L79.0926 57.6354C81.5012 68.6496 86.8252 80.3093 93.9658 88.7569L90.3009 91.8548L86.636 94.9527C78.3423 85.141 72.4084 71.995 69.7166 59.6858L74.4046 58.6606ZM90.3009 91.8548L90.8502 96.622C86.4014 97.1346 82.366 97.6279 78.5699 98.7344L77.227 94.1273L75.8842 89.5202C80.5791 88.1518 85.4059 87.5882 89.7516 87.0875L90.3009 91.8548ZM77.227 94.1273L78.5784 98.7319C75.4349 99.6545 72.3519 101.031 69.1095 102.621L66.997 98.3122L64.8846 94.0034C68.2638 92.3466 71.9331 90.6798 75.8757 89.5227L77.227 94.1273ZM66.997 98.3122L69.0942 102.628C61.0193 106.552 53.9558 110.895 46.3568 115.995L43.6825 112.01L41.0082 108.026C48.8058 102.792 56.2756 98.1862 64.8998 93.9959L66.997 98.3122ZM43.6825 112.01L41.0835 107.976C39.1089 109.249 38.94 111.273 38.9147 111.56C38.8644 112.13 38.9339 112.567 38.9549 112.695C38.9847 112.878 39.0189 113.011 39.0337 113.067C39.0509 113.131 39.0641 113.172 39.0673 113.182C39.0681 113.185 39.0295 113.073 38.9095 112.777C38.6816 112.216 38.3365 111.42 37.8915 110.386C37.0382 108.405 35.8848 105.707 35.0313 103.257L39.5632 101.678L44.095 100.1C44.8188 102.178 45.8379 104.574 46.7063 106.59C47.1222 107.556 47.5252 108.484 47.8021 109.166C47.9344 109.492 48.0874 109.882 48.2026 110.239C48.2503 110.387 48.359 110.732 48.4266 111.146C48.4558 111.324 48.5282 111.801 48.4753 112.402C48.4473 112.719 48.2701 114.763 46.2815 116.045L43.6825 112.01ZM39.5632 101.678L35.0313 103.257C34.1898 100.84 33.6309 98.8418 33.2783 97.4241C33.102 96.7149 32.9769 96.1499 32.8938 95.7492C32.8522 95.5488 32.821 95.3894 32.7992 95.2735C32.7882 95.2156 32.7796 95.1685 32.7731 95.1326C32.7699 95.1146 32.7672 95.0995 32.7651 95.0871C32.764 95.081 32.763 95.0755 32.7622 95.0708C32.7618 95.0684 32.7614 95.0662 32.7611 95.0642C32.7609 95.0632 32.7607 95.0622 32.7606 95.0613C32.7605 95.0608 32.7604 95.0602 32.7604 95.06C32.7602 95.0593 32.7601 95.0587 37.4904 94.2502C42.2206 93.4417 42.2205 93.4411 42.2204 93.4405C42.2203 93.4403 42.2202 93.4397 42.2202 93.4393C42.22 93.4386 42.2199 93.4379 42.2198 93.4372C42.2196 93.4359 42.2194 93.4348 42.2192 93.4338C42.2189 93.4319 42.2187 93.4307 42.2186 93.4301C42.2184 93.4291 42.2187 93.4307 42.2195 93.4351C42.221 93.4439 42.2246 93.4635 42.2303 93.4937C42.2417 93.554 42.2616 93.6565 42.2911 93.7987C42.3501 94.0832 42.4476 94.5261 42.5922 95.1078C42.8818 96.272 43.3593 97.9877 44.095 100.1L39.5632 101.678ZM37.4904 94.2502C34.788 90.2846 34.788 90.2846 34.788 90.2846C34.7881 90.2845 34.7882 90.2845 34.7884 90.2844C34.7887 90.2841 34.7893 90.2838 34.79 90.2832C34.7916 90.2821 34.7941 90.2805 34.7974 90.2782C34.8042 90.2736 34.8145 90.2665 34.8283 90.2571C34.8558 90.2383 34.8973 90.21 34.9519 90.1727C35.0611 90.098 35.223 89.9872 35.4318 89.8439C35.8494 89.5573 36.4543 89.141 37.2001 88.6247C38.6924 87.5917 40.7452 86.1604 42.9883 84.5672C47.5303 81.3411 52.6669 77.5813 55.584 75.1019L58.6919 78.7583L61.7997 82.4148C58.5196 85.2028 53.0554 89.189 48.546 92.3919C46.2634 94.0132 44.1778 95.4673 42.6631 96.5159C41.9054 97.0404 41.2896 97.4641 40.8625 97.7573C40.6489 97.9038 40.4824 98.0178 40.3689 98.0955C40.3121 98.1343 40.2685 98.164 40.2389 98.1843C40.2241 98.1944 40.2128 98.2021 40.2051 98.2074C40.2012 98.21 40.1982 98.212 40.1961 98.2134C40.1951 98.2141 40.1943 98.2147 40.1937 98.2151C40.1934 98.2153 40.1932 98.2155 40.193 98.2156C40.1928 98.2157 40.1927 98.2158 37.4904 94.2502ZM34.1478 95.7189L36.8661 99.6736C31.4788 103.377 25.7487 107.236 21.3701 110.167C19.1797 111.633 17.3252 112.868 16.018 113.737C15.3643 114.172 14.8473 114.514 14.4934 114.749C14.3165 114.866 14.1803 114.957 14.0882 115.018C14.0422 115.048 14.0072 115.071 13.9836 115.087C13.9718 115.095 13.9628 115.101 13.9568 115.105C13.9538 115.107 13.9515 115.108 13.9499 115.109C13.9491 115.11 13.9485 115.11 13.9481 115.11C13.9479 115.11 13.9477 115.111 13.9476 115.111C13.9475 115.111 13.9475 115.111 11.3003 111.108C8.6531 107.105 8.65312 107.105 8.65318 107.105C8.65325 107.105 8.65336 107.105 8.65352 107.105C8.65385 107.105 8.65436 107.105 8.65506 107.104C8.65645 107.103 8.65857 107.102 8.66141 107.1C8.66712 107.096 8.67572 107.091 8.68717 107.083C8.71008 107.068 8.74441 107.045 8.78975 107.015C8.88042 106.955 9.01509 106.866 9.19049 106.75C9.54129 106.517 10.0549 106.176 10.705 105.744C12.0053 104.88 13.8511 103.65 16.0316 102.191C20.3946 99.2706 26.0883 95.4355 31.4296 91.7642L34.1478 95.7189ZM11.3003 111.108C15.9088 112.446 15.9094 112.444 15.9101 112.442C15.9103 112.441 15.9109 112.439 15.9113 112.437C15.9121 112.435 15.9128 112.432 15.9136 112.429C15.915 112.424 15.9163 112.42 15.9175 112.416C15.9198 112.408 15.9215 112.401 15.9227 112.397C15.9251 112.388 15.9254 112.387 15.9238 112.393C15.9206 112.405 15.9102 112.447 15.8948 112.517C15.8641 112.657 15.8139 112.909 15.7636 113.263C15.663 113.971 15.5624 115.081 15.6129 116.515C15.7132 119.365 16.4115 123.543 18.9639 128.448L14.7069 130.663L10.45 132.878C7.17153 126.578 6.16645 120.978 6.0212 116.852C5.94885 114.798 6.08989 113.12 6.26155 111.912C6.34743 111.308 6.44115 110.821 6.52019 110.46C6.55973 110.28 6.59565 110.132 6.62516 110.016C6.63991 109.958 6.65307 109.909 6.66428 109.868C6.66989 109.847 6.67501 109.829 6.67961 109.813C6.68191 109.804 6.68407 109.797 6.6861 109.79C6.68712 109.786 6.68809 109.783 6.68905 109.78C6.68952 109.778 6.69019 109.776 6.69043 109.775C6.69111 109.772 6.69177 109.77 11.3003 111.108ZM14.7069 130.663C12.1079 126.629 12.108 126.629 12.1081 126.629C12.1082 126.629 12.1084 126.629 12.1086 126.628C12.1091 126.628 12.1097 126.628 12.1105 126.627C12.1122 126.626 12.1147 126.625 12.1179 126.622C12.1244 126.618 12.134 126.612 12.1467 126.604C12.172 126.588 12.2097 126.563 12.2592 126.532C12.3583 126.468 12.5048 126.374 12.6954 126.251C13.0765 126.006 13.6338 125.648 14.3397 125.196C15.7514 124.291 17.758 123.008 20.1393 121.492C24.8997 118.463 31.1665 114.502 37.1742 110.783L39.6999 114.864L42.2255 118.944C36.2655 122.633 30.0358 126.571 25.2917 129.59C22.9207 131.099 20.923 132.376 19.5185 133.276C18.8163 133.726 18.2625 134.082 17.8845 134.325C17.6956 134.446 17.5506 134.54 17.453 134.602C17.4042 134.634 17.3673 134.658 17.3426 134.673C17.3303 134.681 17.321 134.687 17.3149 134.691C17.3118 134.693 17.3096 134.695 17.308 134.696C17.3073 134.696 17.3068 134.697 17.3064 134.697C17.3062 134.697 17.3061 134.697 17.306 134.697C17.3059 134.697 17.3059 134.697 14.7069 130.663ZM39.6999 114.864L35.4066 117.007C30.9994 108.182 29.7242 100.354 29.3661 96.1236L34.1478 95.7189L38.9295 95.3142C39.2135 98.669 40.2613 105.246 43.9931 112.72L39.6999 114.864Z" fill="black" mask="url(#path-1-outside-1_970_4555)"/>
</svg>
