<svg width="162" height="37" viewBox="0 0 162 37" fill="none" xmlns="http://www.w3.org/2000/svg">
<mask id="path-1-outside-1_1553_2598" maskUnits="userSpaceOnUse" x="-0.132812" y="-0.84375" width="162" height="38" fill="black">
<rect fill="white" x="-0.132812" y="-0.84375" width="162" height="38"/>
<path d="M6.92255 31.1562L16.5961 5.93441H25.4081L35.1209 31.1562H26.3481L24.3898 26.1432H17.6144L15.6954 31.1562H6.92255ZM18.6327 20.2686H23.3716L20.9825 14.1589L18.6327 20.2686ZM43.6134 31.5479C41.8641 31.5479 40.3367 31.2476 39.0312 30.6471C37.7257 30.0466 36.7074 29.0805 35.9764 27.749C35.2714 26.3913 34.9189 24.6158 34.9189 22.4226C34.9189 20.125 35.3367 18.232 36.1722 16.7438C37.0077 15.2294 38.1174 14.0937 39.5012 13.3365C40.9111 12.5793 42.4515 12.2007 44.1226 12.2007C44.8797 12.2007 45.6239 12.279 46.3549 12.4357C47.1121 12.5924 47.7648 12.8143 48.3131 13.1015V4.75948H56.7335V31.1562H49.4489L49.0573 29.8247C48.3262 30.373 47.5298 30.8038 46.6682 31.1171C45.8066 31.4043 44.7883 31.5479 43.6134 31.5479ZM46.0416 25.5166C46.5116 25.5166 46.9293 25.4383 47.2949 25.2816C47.6604 25.1249 47.9998 24.9161 48.3131 24.655V19.0545C47.7126 18.5323 46.9554 18.2712 46.0416 18.2712C45.1278 18.2712 44.475 18.6367 44.0834 19.3678C43.6917 20.0727 43.4959 21.1041 43.4959 22.4618C43.4959 23.8195 43.7048 24.668 44.1226 25.0074C44.5664 25.3469 45.2061 25.5166 46.0416 25.5166ZM67.4027 31.5479C65.6533 31.5479 64.1259 31.2476 62.8205 30.6471C61.515 30.0466 60.4967 29.0805 59.7656 27.749C59.0607 26.3913 58.7082 24.6158 58.7082 22.4226C58.7082 20.125 59.126 18.232 59.9615 16.7438C60.797 15.2294 61.9066 14.0937 63.2904 13.3365C64.7004 12.5793 66.2408 12.2007 67.9118 12.2007C68.669 12.2007 69.4131 12.279 70.1442 12.4357C70.9014 12.5924 71.5541 12.8143 72.1024 13.1015V4.75948H80.5227V31.1562H73.2382L72.8465 29.8247C72.1155 30.373 71.3191 30.8038 70.4575 31.1171C69.5959 31.4043 68.5776 31.5479 67.4027 31.5479ZM69.8309 25.5166C70.3009 25.5166 70.7186 25.4383 71.0841 25.2816C71.4497 25.1249 71.7891 24.9161 72.1024 24.655V19.0545C71.5019 18.5323 70.7447 18.2712 69.8309 18.2712C68.917 18.2712 68.2643 18.6367 67.8727 19.3678C67.481 20.0727 67.2852 21.1041 67.2852 22.4618C67.2852 23.8195 67.4941 24.668 67.9118 25.0074C68.3557 25.3469 68.9954 25.5166 69.8309 25.5166ZM83.6632 31.1562V12.5924H91.8486L92.0444 13.8848C92.7494 13.467 93.6763 13.0884 94.8251 12.749C95.9739 12.4096 97.1488 12.2268 98.3499 12.2007V18.4278C97.6971 18.4539 96.9661 18.5192 96.1567 18.6237C95.3734 18.7281 94.6162 18.8586 93.8851 19.0153C93.1802 19.1459 92.5797 19.3156 92.0836 19.5244V31.1562H83.6632ZM110.032 31.5479C107.864 31.5479 105.919 31.1954 104.196 30.4905C102.499 29.7594 101.167 28.6758 100.201 27.2398C99.2352 25.8038 98.7522 24.0414 98.7522 21.9526C98.7522 19.0022 99.6008 16.6393 101.298 14.8639C103.021 13.0884 105.593 12.2007 109.013 12.2007C112.12 12.2007 114.575 12.984 116.376 14.5506C118.178 16.091 119.079 18.2581 119.079 21.0518V24.2633H106.468C107.146 25.6994 109.052 26.4174 112.186 26.4174C113.334 26.4174 114.444 26.326 115.515 26.1432C116.585 25.9343 117.447 25.6994 118.099 25.4383V30.2163C116.246 31.104 113.556 31.5479 110.032 31.5479ZM106.468 19.8769H111.872V19.3678C111.872 18.8195 111.676 18.3495 111.285 17.9579C110.919 17.5662 110.253 17.3704 109.287 17.3704C108.243 17.3704 107.512 17.5923 107.094 18.0362C106.676 18.4801 106.468 19.0936 106.468 19.8769ZM128.819 31.5479C127.148 31.5479 125.568 31.4173 124.08 31.1562C122.592 30.9213 121.443 30.6341 120.634 30.2946V24.655C121.26 24.9683 121.965 25.2424 122.749 25.4774C123.558 25.6863 124.367 25.843 125.177 25.9474C125.986 26.0518 126.678 26.104 127.253 26.104C128.01 26.104 128.61 26.091 129.054 26.0649C129.498 26.0127 129.72 25.8299 129.72 25.5166C129.72 25.2555 129.511 25.0466 129.093 24.89C128.702 24.7333 128.179 24.5766 127.527 24.42C126.874 24.2372 126.156 24.0153 125.373 23.7542C123.676 23.1276 122.422 22.4226 121.613 21.6393C120.83 20.8299 120.438 19.668 120.438 18.1537C120.438 16.2216 121.208 14.7464 122.749 13.7281C124.315 12.7098 126.73 12.2007 129.994 12.2007C130.803 12.2007 131.665 12.2529 132.579 12.3574C133.493 12.4357 134.354 12.5401 135.164 12.6707C135.999 12.8012 136.665 12.9579 137.161 13.1407V18.702C136.352 18.3365 135.477 18.0754 134.537 17.9187C133.597 17.7359 132.749 17.6446 131.991 17.6446C131.313 17.6446 130.647 17.6707 129.994 17.7229C129.341 17.7751 129.015 17.9579 129.015 18.2712C129.015 18.6106 129.394 18.8586 130.151 19.0153C130.934 19.172 131.887 19.4331 133.01 19.7986C134.394 20.1902 135.464 20.6341 136.221 21.1302C137.004 21.6263 137.553 22.2268 137.866 22.9317C138.179 23.6367 138.336 24.4983 138.336 25.5166C138.336 27.3965 137.527 28.8717 135.908 29.9422C134.315 31.0126 131.952 31.5479 128.819 31.5479ZM147.292 31.5479C145.621 31.5479 144.042 31.4173 142.553 31.1562C141.065 30.9213 139.916 30.6341 139.107 30.2946V24.655C139.733 24.9683 140.438 25.2424 141.222 25.4774C142.031 25.6863 142.84 25.843 143.65 25.9474C144.459 26.0518 145.151 26.104 145.726 26.104C146.483 26.104 147.083 26.091 147.527 26.0649C147.971 26.0127 148.193 25.8299 148.193 25.5166C148.193 25.2555 147.984 25.0466 147.566 24.89C147.175 24.7333 146.652 24.5766 146 24.42C145.347 24.2372 144.629 24.0153 143.846 23.7542C142.149 23.1276 140.895 22.4226 140.086 21.6393C139.303 20.8299 138.911 19.668 138.911 18.1537C138.911 16.2216 139.681 14.7464 141.222 13.7281C142.788 12.7098 145.203 12.2007 148.467 12.2007C149.276 12.2007 150.138 12.2529 151.052 12.3574C151.966 12.4357 152.827 12.5401 153.637 12.6707C154.472 12.8012 155.138 12.9579 155.634 13.1407V18.702C154.825 18.3365 153.95 18.0754 153.01 17.9187C152.07 17.7359 151.222 17.6446 150.464 17.6446C149.786 17.6446 149.12 17.6707 148.467 17.7229C147.814 17.7751 147.488 17.9579 147.488 18.2712C147.488 18.6106 147.867 18.8586 148.624 19.0153C149.407 19.172 150.36 19.4331 151.483 19.7986C152.867 20.1902 153.937 20.6341 154.694 21.1302C155.477 21.6263 156.026 22.2268 156.339 22.9317C156.652 23.6367 156.809 24.4983 156.809 25.5166C156.809 27.3965 156 28.8717 154.381 29.9422C152.788 31.0126 150.425 31.5479 147.292 31.5479Z"/>
</mask>
<path d="M6.92255 31.1562L16.5961 5.93441H25.4081L35.1209 31.1562H26.3481L24.3898 26.1432H17.6144L15.6954 31.1562H6.92255ZM18.6327 20.2686H23.3716L20.9825 14.1589L18.6327 20.2686ZM43.6134 31.5479C41.8641 31.5479 40.3367 31.2476 39.0312 30.6471C37.7257 30.0466 36.7074 29.0805 35.9764 27.749C35.2714 26.3913 34.9189 24.6158 34.9189 22.4226C34.9189 20.125 35.3367 18.232 36.1722 16.7438C37.0077 15.2294 38.1174 14.0937 39.5012 13.3365C40.9111 12.5793 42.4515 12.2007 44.1226 12.2007C44.8797 12.2007 45.6239 12.279 46.3549 12.4357C47.1121 12.5924 47.7648 12.8143 48.3131 13.1015V4.75948H56.7335V31.1562H49.4489L49.0573 29.8247C48.3262 30.373 47.5298 30.8038 46.6682 31.1171C45.8066 31.4043 44.7883 31.5479 43.6134 31.5479ZM46.0416 25.5166C46.5116 25.5166 46.9293 25.4383 47.2949 25.2816C47.6604 25.1249 47.9998 24.9161 48.3131 24.655V19.0545C47.7126 18.5323 46.9554 18.2712 46.0416 18.2712C45.1278 18.2712 44.475 18.6367 44.0834 19.3678C43.6917 20.0727 43.4959 21.1041 43.4959 22.4618C43.4959 23.8195 43.7048 24.668 44.1226 25.0074C44.5664 25.3469 45.2061 25.5166 46.0416 25.5166ZM67.4027 31.5479C65.6533 31.5479 64.1259 31.2476 62.8205 30.6471C61.515 30.0466 60.4967 29.0805 59.7656 27.749C59.0607 26.3913 58.7082 24.6158 58.7082 22.4226C58.7082 20.125 59.126 18.232 59.9615 16.7438C60.797 15.2294 61.9066 14.0937 63.2904 13.3365C64.7004 12.5793 66.2408 12.2007 67.9118 12.2007C68.669 12.2007 69.4131 12.279 70.1442 12.4357C70.9014 12.5924 71.5541 12.8143 72.1024 13.1015V4.75948H80.5227V31.1562H73.2382L72.8465 29.8247C72.1155 30.373 71.3191 30.8038 70.4575 31.1171C69.5959 31.4043 68.5776 31.5479 67.4027 31.5479ZM69.8309 25.5166C70.3009 25.5166 70.7186 25.4383 71.0841 25.2816C71.4497 25.1249 71.7891 24.9161 72.1024 24.655V19.0545C71.5019 18.5323 70.7447 18.2712 69.8309 18.2712C68.917 18.2712 68.2643 18.6367 67.8727 19.3678C67.481 20.0727 67.2852 21.1041 67.2852 22.4618C67.2852 23.8195 67.4941 24.668 67.9118 25.0074C68.3557 25.3469 68.9954 25.5166 69.8309 25.5166ZM83.6632 31.1562V12.5924H91.8486L92.0444 13.8848C92.7494 13.467 93.6763 13.0884 94.8251 12.749C95.9739 12.4096 97.1488 12.2268 98.3499 12.2007V18.4278C97.6971 18.4539 96.9661 18.5192 96.1567 18.6237C95.3734 18.7281 94.6162 18.8586 93.8851 19.0153C93.1802 19.1459 92.5797 19.3156 92.0836 19.5244V31.1562H83.6632ZM110.032 31.5479C107.864 31.5479 105.919 31.1954 104.196 30.4905C102.499 29.7594 101.167 28.6758 100.201 27.2398C99.2352 25.8038 98.7522 24.0414 98.7522 21.9526C98.7522 19.0022 99.6008 16.6393 101.298 14.8639C103.021 13.0884 105.593 12.2007 109.013 12.2007C112.12 12.2007 114.575 12.984 116.376 14.5506C118.178 16.091 119.079 18.2581 119.079 21.0518V24.2633H106.468C107.146 25.6994 109.052 26.4174 112.186 26.4174C113.334 26.4174 114.444 26.326 115.515 26.1432C116.585 25.9343 117.447 25.6994 118.099 25.4383V30.2163C116.246 31.104 113.556 31.5479 110.032 31.5479ZM106.468 19.8769H111.872V19.3678C111.872 18.8195 111.676 18.3495 111.285 17.9579C110.919 17.5662 110.253 17.3704 109.287 17.3704C108.243 17.3704 107.512 17.5923 107.094 18.0362C106.676 18.4801 106.468 19.0936 106.468 19.8769ZM128.819 31.5479C127.148 31.5479 125.568 31.4173 124.08 31.1562C122.592 30.9213 121.443 30.6341 120.634 30.2946V24.655C121.26 24.9683 121.965 25.2424 122.749 25.4774C123.558 25.6863 124.367 25.843 125.177 25.9474C125.986 26.0518 126.678 26.104 127.253 26.104C128.01 26.104 128.61 26.091 129.054 26.0649C129.498 26.0127 129.72 25.8299 129.72 25.5166C129.72 25.2555 129.511 25.0466 129.093 24.89C128.702 24.7333 128.179 24.5766 127.527 24.42C126.874 24.2372 126.156 24.0153 125.373 23.7542C123.676 23.1276 122.422 22.4226 121.613 21.6393C120.83 20.8299 120.438 19.668 120.438 18.1537C120.438 16.2216 121.208 14.7464 122.749 13.7281C124.315 12.7098 126.73 12.2007 129.994 12.2007C130.803 12.2007 131.665 12.2529 132.579 12.3574C133.493 12.4357 134.354 12.5401 135.164 12.6707C135.999 12.8012 136.665 12.9579 137.161 13.1407V18.702C136.352 18.3365 135.477 18.0754 134.537 17.9187C133.597 17.7359 132.749 17.6446 131.991 17.6446C131.313 17.6446 130.647 17.6707 129.994 17.7229C129.341 17.7751 129.015 17.9579 129.015 18.2712C129.015 18.6106 129.394 18.8586 130.151 19.0153C130.934 19.172 131.887 19.4331 133.01 19.7986C134.394 20.1902 135.464 20.6341 136.221 21.1302C137.004 21.6263 137.553 22.2268 137.866 22.9317C138.179 23.6367 138.336 24.4983 138.336 25.5166C138.336 27.3965 137.527 28.8717 135.908 29.9422C134.315 31.0126 131.952 31.5479 128.819 31.5479ZM147.292 31.5479C145.621 31.5479 144.042 31.4173 142.553 31.1562C141.065 30.9213 139.916 30.6341 139.107 30.2946V24.655C139.733 24.9683 140.438 25.2424 141.222 25.4774C142.031 25.6863 142.84 25.843 143.65 25.9474C144.459 26.0518 145.151 26.104 145.726 26.104C146.483 26.104 147.083 26.091 147.527 26.0649C147.971 26.0127 148.193 25.8299 148.193 25.5166C148.193 25.2555 147.984 25.0466 147.566 24.89C147.175 24.7333 146.652 24.5766 146 24.42C145.347 24.2372 144.629 24.0153 143.846 23.7542C142.149 23.1276 140.895 22.4226 140.086 21.6393C139.303 20.8299 138.911 19.668 138.911 18.1537C138.911 16.2216 139.681 14.7464 141.222 13.7281C142.788 12.7098 145.203 12.2007 148.467 12.2007C149.276 12.2007 150.138 12.2529 151.052 12.3574C151.966 12.4357 152.827 12.5401 153.637 12.6707C154.472 12.8012 155.138 12.9579 155.634 13.1407V18.702C154.825 18.3365 153.95 18.0754 153.01 17.9187C152.07 17.7359 151.222 17.6446 150.464 17.6446C149.786 17.6446 149.12 17.6707 148.467 17.7229C147.814 17.7751 147.488 17.9579 147.488 18.2712C147.488 18.6106 147.867 18.8586 148.624 19.0153C149.407 19.172 150.36 19.4331 151.483 19.7986C152.867 20.1902 153.937 20.6341 154.694 21.1302C155.477 21.6263 156.026 22.2268 156.339 22.9317C156.652 23.6367 156.809 24.4983 156.809 25.5166C156.809 27.3965 156 28.8717 154.381 29.9422C152.788 31.0126 150.425 31.5479 147.292 31.5479Z" fill="white"/>
<path d="M6.92255 31.1562L2.47864 29.4518L-0.000558853 35.9158H6.92255V31.1562ZM16.5961 5.93441V1.17486H13.324L12.1522 4.22999L16.5961 5.93441ZM25.4081 5.93441L29.8497 4.22398L28.6755 1.17486H25.4081V5.93441ZM35.1209 31.1562V35.9158H42.054L39.5625 29.4458L35.1209 31.1562ZM26.3481 31.1562L21.9147 32.888L23.0975 35.9158H26.3481V31.1562ZM24.3898 26.1432L28.8232 24.4114L27.6404 21.3837H24.3898V26.1432ZM17.6144 26.1432V21.3837H14.34L13.1694 24.4416L17.6144 26.1432ZM15.6954 31.1562V35.9158H18.9697L20.1403 32.8578L15.6954 31.1562ZM18.6327 20.2686L14.1904 18.56L11.7026 25.0281H18.6327V20.2686ZM23.3716 20.2686V25.0281H30.3432L27.8043 18.5353L23.3716 20.2686ZM20.9825 14.1589L25.4153 12.4256L20.9459 0.995691L16.5402 12.4503L20.9825 14.1589ZM6.92255 31.1562L11.3665 32.8607L21.04 7.63883L16.5961 5.93441L12.1522 4.22999L2.47864 29.4518L6.92255 31.1562ZM16.5961 5.93441V10.694H25.4081V5.93441V1.17486H16.5961V5.93441ZM25.4081 5.93441L20.9665 7.64484L30.6793 32.8667L35.1209 31.1562L39.5625 29.4458L29.8497 4.22398L25.4081 5.93441ZM35.1209 31.1562V26.3967H26.3481V31.1562V35.9158H35.1209V31.1562ZM26.3481 31.1562L30.7814 29.4245L28.8232 24.4114L24.3898 26.1432L19.9565 27.875L21.9147 32.888L26.3481 31.1562ZM24.3898 26.1432V21.3837H17.6144V26.1432V30.9028H24.3898V26.1432ZM17.6144 26.1432L13.1694 24.4416L11.2504 29.4547L15.6954 31.1562L20.1403 32.8578L22.0594 27.8448L17.6144 26.1432ZM15.6954 31.1562V26.3967H6.92255V31.1562V35.9158H15.6954V31.1562ZM18.6327 20.2686V25.0281H23.3716V20.2686V15.509H18.6327V20.2686ZM23.3716 20.2686L27.8043 18.5353L25.4153 12.4256L20.9825 14.1589L16.5498 15.8922L18.9388 22.0019L23.3716 20.2686ZM20.9825 14.1589L16.5402 12.4503L14.1904 18.56L18.6327 20.2686L23.075 21.9771L25.4249 15.8675L20.9825 14.1589ZM39.0312 30.6471L37.0421 34.9711L39.0312 30.6471ZM35.9764 27.749L31.7523 29.9422L31.7777 29.9912L31.8042 30.0395L35.9764 27.749ZM36.1722 16.7438L40.3224 19.0737L40.3311 19.0584L40.3396 19.043L36.1722 16.7438ZM39.5012 13.3365L37.2493 9.14333L37.2329 9.15215L37.2165 9.16109L39.5012 13.3365ZM46.3549 12.4357L45.3577 17.0896L45.3741 17.0931L45.3906 17.0965L46.3549 12.4357ZM48.3131 13.1015L46.1047 17.3177L53.0727 20.9676V13.1015H48.3131ZM48.3131 4.75948V-7.34329e-05H43.5536V4.75948H48.3131ZM56.7335 4.75948H61.493V-7.34329e-05H56.7335V4.75948ZM56.7335 31.1562V35.9158H61.493V31.1562H56.7335ZM49.4489 31.1562L44.8827 32.4992L45.8876 35.9158H49.4489V31.1562ZM49.0573 29.8247L53.6234 28.4817L51.6882 21.902L46.2015 26.017L49.0573 29.8247ZM46.6682 31.1171L48.1733 35.6324L48.2343 35.6121L48.2948 35.5901L46.6682 31.1171ZM48.3131 24.655L51.3601 28.3114L53.0727 26.8842V24.655H48.3131ZM48.3131 19.0545H53.0727V16.8859L51.4363 15.4629L48.3131 19.0545ZM44.0834 19.3678L48.244 21.6792L48.2617 21.6474L48.2788 21.6153L44.0834 19.3678ZM44.1226 25.0075L41.1212 28.7014L41.1756 28.7456L41.2314 28.7882L44.1226 25.0075ZM43.6134 31.5479V26.7883C42.4045 26.7883 41.5814 26.5812 41.0202 26.3231L39.0312 30.6471L37.0421 34.9711C39.0919 35.914 41.3237 36.3074 43.6134 36.3074V31.5479ZM39.0312 30.6471L41.0202 26.3231C40.6964 26.1742 40.4185 25.9501 40.1485 25.4584L35.9764 27.749L31.8042 30.0395C32.9964 32.2109 34.755 33.919 37.0421 34.9711L39.0312 30.6471ZM35.9764 27.749L40.2005 25.5557C39.9665 25.1051 39.6785 24.1615 39.6785 22.4226H34.9189H30.1594C30.1594 25.0701 30.5763 27.6774 31.7523 29.9422L35.9764 27.749ZM34.9189 22.4226H39.6785C39.6785 20.6694 40.0011 19.6461 40.3224 19.0737L36.1722 16.7438L32.0219 14.4138C30.6723 16.8179 30.1594 19.5805 30.1594 22.4226H34.9189ZM36.1722 16.7438L40.3396 19.043C40.7821 18.2409 41.2708 17.7937 41.7858 17.5119L39.5012 13.3365L37.2165 9.16109C34.9639 10.3936 33.2333 12.2179 32.0048 14.4445L36.1722 16.7438ZM39.5012 13.3365L41.753 17.5296C42.4396 17.1609 43.2015 16.9603 44.1226 16.9603V12.2007V7.44115C41.7016 7.44115 39.3825 7.9977 37.2493 9.14333L39.5012 13.3365ZM44.1226 12.2007V16.9603C44.5488 16.9603 44.9585 17.0041 45.3577 17.0896L46.3549 12.4357L47.3522 7.78179C46.2892 7.554 45.2107 7.44115 44.1226 7.44115V12.2007ZM46.3549 12.4357L45.3906 17.0965C45.8172 17.1848 46.0317 17.2794 46.1047 17.3177L48.3131 13.1015L50.5216 8.88532C49.498 8.34916 48.407 7.9999 47.3192 7.77485L46.3549 12.4357ZM48.3131 13.1015H53.0727V4.75948H48.3131H43.5536V13.1015H48.3131ZM48.3131 4.75948V9.51904H56.7335V4.75948V-7.34329e-05H48.3131V4.75948ZM56.7335 4.75948H51.9739V31.1562H56.7335H61.493V4.75948H56.7335ZM56.7335 31.1562V26.3967H49.4489V31.1562V35.9158H56.7335V31.1562ZM49.4489 31.1562L54.0151 29.8133L53.6234 28.4817L49.0573 29.8247L44.4911 31.1677L44.8827 32.4992L49.4489 31.1562ZM49.0573 29.8247L46.2015 26.017C45.8464 26.2833 45.4645 26.4903 45.0417 26.6441L46.6682 31.1171L48.2948 35.5901C49.5952 35.1172 50.8059 34.4626 51.913 33.6323L49.0573 29.8247ZM46.6682 31.1171L45.1631 26.6018C44.9054 26.6877 44.4189 26.7883 43.6134 26.7883V31.5479V36.3074C45.1578 36.3074 46.7078 36.1209 48.1733 35.6324L46.6682 31.1171ZM46.0416 25.5166V30.2761C47.0408 30.2761 48.1142 30.1087 49.1697 29.6563L47.2949 25.2816L45.42 20.9069C45.7445 20.7678 45.9824 20.757 46.0416 20.757V25.5166ZM47.2949 25.2816L49.1697 29.6563C49.9695 29.3136 50.7021 28.8598 51.3601 28.3114L48.3131 24.655L45.2661 20.9986C45.2799 20.9871 45.301 20.9713 45.3291 20.9539C45.3574 20.9365 45.3882 20.9205 45.42 20.9069L47.2949 25.2816ZM48.3131 24.655H53.0727V19.0545H48.3131H43.5536V24.655H48.3131ZM48.3131 19.0545L51.4363 15.4629C49.8422 14.0767 47.9224 13.5116 46.0416 13.5116V18.2712V23.0307C46.0438 23.0307 45.9288 23.0305 45.7433 22.9666C45.5485 22.8994 45.3535 22.7883 45.19 22.6461L48.3131 19.0545ZM46.0416 18.2712V13.5116C44.9494 13.5116 43.7194 13.7327 42.5411 14.3926C41.3379 15.0664 40.4644 16.0442 39.8879 17.1202L44.0834 19.3678L48.2788 21.6153C48.094 21.9603 47.7427 22.3898 47.1922 22.6981C46.6667 22.9924 46.2199 23.0307 46.0416 23.0307V18.2712ZM44.0834 19.3678L39.9228 17.0563C38.9553 18.7978 38.7364 20.7819 38.7364 22.4618H43.4959H48.2555C48.2555 21.9992 48.2899 21.7103 48.3188 21.5578C48.3489 21.3991 48.3564 21.4769 48.244 21.6792L44.0834 19.3678ZM43.4959 22.4618H38.7364C38.7364 23.3378 38.7991 24.3121 39.031 25.2541C39.2408 26.1064 39.7447 27.583 41.1212 28.7014L44.1226 25.0075L47.1239 21.3135C47.6244 21.7201 47.9089 22.1538 48.0582 22.4369C48.2055 22.7161 48.2599 22.9207 48.2742 22.9788C48.2972 23.0723 48.2555 22.9434 48.2555 22.4618H43.4959ZM44.1226 25.0075L41.2314 28.7882C42.8268 30.0083 44.6547 30.2761 46.0416 30.2761V25.5166V20.757C45.9335 20.757 45.9892 20.7447 46.1557 20.7889C46.3316 20.8356 46.6553 20.9526 47.0137 21.2267L44.1226 25.0075ZM62.8205 30.6471L60.8314 34.9711L62.8205 30.6471ZM59.7656 27.749L55.5416 29.9422L55.567 29.9912L55.5935 30.0395L59.7656 27.749ZM59.9615 16.7438L64.1117 19.0737L64.1203 19.0584L64.1288 19.043L59.9615 16.7438ZM63.2904 13.3365L61.0386 9.14333L61.0221 9.15215L61.0058 9.16109L63.2904 13.3365ZM70.1442 12.4357L69.1469 17.0896L69.1634 17.0931L69.1799 17.0965L70.1442 12.4357ZM72.1024 13.1015L69.8939 17.3177L76.862 20.9676V13.1015H72.1024ZM72.1024 4.75948V-7.34329e-05H67.3429V4.75948H72.1024ZM80.5227 4.75948H85.2823V-7.34329e-05H80.5227V4.75948ZM80.5227 31.1562V35.9158H85.2823V31.1562H80.5227ZM73.2382 31.1562L68.672 32.4992L69.6769 35.9158H73.2382V31.1562ZM72.8465 29.8247L77.4127 28.4817L75.4775 21.902L69.9908 26.017L72.8465 29.8247ZM70.4575 31.1171L71.9626 35.6324L72.0236 35.6121L72.0841 35.5901L70.4575 31.1171ZM72.1024 24.655L75.1494 28.3114L76.862 26.8842V24.655H72.1024ZM72.1024 19.0545H76.862V16.8859L75.2255 15.4629L72.1024 19.0545ZM67.8727 19.3678L72.0333 21.6792L72.0509 21.6474L72.0681 21.6153L67.8727 19.3678ZM67.9118 25.0075L64.9105 28.7014L64.9649 28.7456L65.0206 28.7882L67.9118 25.0075ZM67.4027 31.5479V26.7883C66.1938 26.7883 65.3707 26.5812 64.8095 26.3231L62.8205 30.6471L60.8314 34.9711C62.8812 35.914 65.1129 36.3074 67.4027 36.3074V31.5479ZM62.8205 30.6471L64.8095 26.3231C64.4857 26.1742 64.2078 25.9501 63.9378 25.4584L59.7656 27.749L55.5935 30.0395C56.7857 32.2109 58.5443 33.919 60.8314 34.9711L62.8205 30.6471ZM59.7656 27.749L63.9897 25.5557C63.7558 25.1051 63.4678 24.1615 63.4678 22.4226H58.7082H53.9487C53.9487 25.0701 54.3656 27.6774 55.5416 29.9422L59.7656 27.749ZM58.7082 22.4226H63.4678C63.4678 20.6694 63.7904 19.6461 64.1117 19.0737L59.9615 16.7438L55.8112 14.4138C54.4615 16.8179 53.9487 19.5805 53.9487 22.4226H58.7082ZM59.9615 16.7438L64.1288 19.043C64.5713 18.2409 65.06 17.7937 65.5751 17.5119L63.2904 13.3365L61.0058 9.16109C58.7532 10.3936 57.0226 12.2179 55.7941 14.4445L59.9615 16.7438ZM63.2904 13.3365L65.5423 17.5296C66.2289 17.1609 66.9908 16.9603 67.9118 16.9603V12.2007V7.44115C65.4909 7.44115 63.1718 7.9977 61.0386 9.14333L63.2904 13.3365ZM67.9118 12.2007V16.9603C68.3381 16.9603 68.7478 17.0041 69.1469 17.0896L70.1442 12.4357L71.1415 7.78179C70.0785 7.554 68.9999 7.44115 67.9118 7.44115V12.2007ZM70.1442 12.4357L69.1799 17.0965C69.6065 17.1848 69.8209 17.2794 69.8939 17.3177L72.1024 13.1015L74.3109 8.88532C73.2873 8.34916 72.1962 7.9999 71.1085 7.77485L70.1442 12.4357ZM72.1024 13.1015H76.862V4.75948H72.1024H67.3429V13.1015H72.1024ZM72.1024 4.75948V9.51904H80.5227V4.75948V-7.34329e-05H72.1024V4.75948ZM80.5227 4.75948H75.7632V31.1562H80.5227H85.2823V4.75948H80.5227ZM80.5227 31.1562V26.3967H73.2382V31.1562V35.9158H80.5227V31.1562ZM73.2382 31.1562L77.8043 29.8133L77.4127 28.4817L72.8465 29.8247L68.2804 31.1677L68.672 32.4992L73.2382 31.1562ZM72.8465 29.8247L69.9908 26.017C69.6357 26.2833 69.2538 26.4903 68.831 26.6441L70.4575 31.1171L72.0841 35.5901C73.3845 35.1172 74.5952 34.4626 75.7023 33.6323L72.8465 29.8247ZM70.4575 31.1171L68.9524 26.6018C68.6947 26.6877 68.2081 26.7883 67.4027 26.7883V31.5479V36.3074C68.9471 36.3074 70.4971 36.1209 71.9626 35.6324L70.4575 31.1171ZM69.8309 25.5166V30.2761C70.83 30.2761 71.9035 30.1087 72.959 29.6563L71.0841 25.2816L69.2093 20.9069C69.5337 20.7678 69.7717 20.757 69.8309 20.757V25.5166ZM71.0841 25.2816L72.959 29.6563C73.7587 29.3136 74.4913 28.8598 75.1494 28.3114L72.1024 24.655L69.0554 20.9986C69.0692 20.9871 69.0902 20.9713 69.1184 20.9539C69.1466 20.9365 69.1775 20.9205 69.2093 20.9069L71.0841 25.2816ZM72.1024 24.655H76.862V19.0545H72.1024H67.3429V24.655H72.1024ZM72.1024 19.0545L75.2255 15.4629C73.6315 14.0767 71.7116 13.5116 69.8309 13.5116V18.2712V23.0307C69.8331 23.0307 69.7181 23.0305 69.5326 22.9666C69.3377 22.8994 69.1428 22.7883 68.9793 22.6461L72.1024 19.0545ZM69.8309 18.2712V13.5116C68.7387 13.5116 67.5087 13.7327 66.3304 14.3926C65.1272 15.0664 64.2537 16.0442 63.6772 17.1202L67.8727 19.3678L72.0681 21.6153C71.8833 21.9603 71.532 22.3898 70.9815 22.6981C70.4559 22.9924 70.0092 23.0307 69.8309 23.0307V18.2712ZM67.8727 19.3678L63.7121 17.0563C62.7446 18.7978 62.5256 20.7819 62.5256 22.4618H67.2852H72.0448C72.0448 21.9992 72.0791 21.7103 72.1081 21.5578C72.1382 21.3991 72.1457 21.4769 72.0333 21.6792L67.8727 19.3678ZM67.2852 22.4618H62.5256C62.5256 23.3378 62.5884 24.3121 62.8203 25.2541C63.0301 26.1064 63.534 27.583 64.9105 28.7014L67.9118 25.0075L70.9132 21.3135C71.4137 21.7201 71.6982 22.1538 71.8475 22.4369C71.9948 22.7161 72.0492 22.9207 72.0635 22.9788C72.0865 23.0723 72.0448 22.9434 72.0448 22.4618H67.2852ZM67.9118 25.0075L65.0206 28.7882C66.6161 30.0083 68.444 30.2761 69.8309 30.2761V25.5166V20.757C69.7227 20.757 69.7785 20.7447 69.945 20.7889C70.1209 20.8356 70.4446 20.9526 70.803 21.2267L67.9118 25.0075ZM83.6632 31.1562H78.9037V35.9158H83.6632V31.1562ZM83.6632 12.5924V7.83279H78.9037V12.5924H83.6632ZM91.8486 12.5924L96.5544 11.8793L95.9413 7.83279H91.8486V12.5924ZM92.0444 13.8848L87.3386 14.5978L88.3963 21.5791L94.4708 17.9794L92.0444 13.8848ZM94.8251 12.749L93.4765 8.18451H93.4765L94.8251 12.749ZM98.3499 12.2007H103.109V7.33656L98.2464 7.44228L98.3499 12.2007ZM98.3499 18.4278L98.5401 23.1836L103.109 23.0008V18.4278H98.3499ZM96.1567 18.6237L95.5476 13.9032L95.5376 13.9045L95.5276 13.9059L96.1567 18.6237ZM93.8851 19.0153L94.7518 23.6953L94.8173 23.6832L94.8824 23.6692L93.8851 19.0153ZM92.0836 19.5244L90.2366 15.1379L87.324 16.3642V19.5244H92.0836ZM92.0836 31.1562V35.9158H96.8431V31.1562H92.0836ZM83.6632 31.1562H88.4228V12.5924H83.6632H78.9037V31.1562H83.6632ZM83.6632 12.5924V17.3519H91.8486V12.5924V7.83279H83.6632V12.5924ZM91.8486 12.5924L87.1427 13.3054L87.3386 14.5978L92.0444 13.8848L96.7503 13.1718L96.5544 11.8793L91.8486 12.5924ZM92.0444 13.8848L94.4708 17.9794C94.7209 17.8312 95.2456 17.5877 96.1737 17.3135L94.8251 12.749L93.4765 8.18451C92.1069 8.58914 90.7778 9.10287 89.618 9.79017L92.0444 13.8848ZM94.8251 12.749L96.1737 17.3135C96.9167 17.094 97.6729 16.9761 98.4533 16.9591L98.3499 12.2007L98.2464 7.44228C96.6248 7.47753 95.0311 7.72519 93.4765 8.18451L94.8251 12.749ZM98.3499 12.2007H93.5903V18.4278H98.3499H103.109V12.2007H98.3499ZM98.3499 18.4278L98.1596 13.6721C97.3375 13.705 96.4634 13.7851 95.5476 13.9032L96.1567 18.6237L96.7657 23.3441C97.4687 23.2534 98.0568 23.2029 98.5401 23.1836L98.3499 18.4278ZM96.1567 18.6237L95.5276 13.9059C94.6277 14.0258 93.7475 14.1772 92.8879 14.3614L93.8851 19.0153L94.8824 23.6692C95.485 23.5401 96.119 23.4304 96.7857 23.3415L96.1567 18.6237ZM93.8851 19.0153L93.0185 14.3353C92.0806 14.509 91.132 14.7608 90.2366 15.1379L92.0836 19.5244L93.9305 23.911C94.0273 23.8703 94.2797 23.7827 94.7518 23.6953L93.8851 19.0153ZM92.0836 19.5244H87.324V31.1562H92.0836H96.8431V19.5244H92.0836ZM92.0836 31.1562V26.3967H83.6632V31.1562V35.9158H92.0836V31.1562ZM104.196 30.4905L102.313 34.8617L102.353 34.879L102.394 34.8956L104.196 30.4905ZM100.201 27.2398L104.15 24.5831H104.15L100.201 27.2398ZM101.298 14.8639L97.8825 11.549L97.8699 11.562L97.8573 11.5751L101.298 14.8639ZM116.376 14.5506L113.253 18.1422L113.268 18.1551L113.283 18.168L116.376 14.5506ZM119.079 24.2633V29.0229H123.838V24.2633H119.079ZM106.468 24.2633V19.5038H98.953L102.165 26.2975L106.468 24.2633ZM115.515 26.1432L116.316 30.8349L116.371 30.8254L116.426 30.8147L115.515 26.1432ZM118.099 25.4383H122.859V18.4082L116.332 21.0191L118.099 25.4383ZM118.099 30.2163L120.155 34.509L122.859 33.2142V30.2163H118.099ZM106.468 19.8769H101.708V24.6365H106.468V19.8769ZM111.872 19.8769V24.6365H116.632V19.8769H111.872ZM111.285 17.9579L107.805 21.2054L107.861 21.2654L107.919 21.3234L111.285 17.9579ZM107.094 18.0362L110.56 21.2982V21.2982L107.094 18.0362ZM110.032 31.5479V26.7883C108.382 26.7883 107.064 26.5211 105.998 26.0853L104.196 30.4905L102.394 34.8956C104.775 35.8697 107.346 36.3074 110.032 36.3074V31.5479ZM104.196 30.4905L106.079 26.1192C105.161 25.724 104.572 25.2093 104.15 24.5831L100.201 27.2398L96.2522 29.8965C97.7631 32.1424 99.8364 33.7948 102.313 34.8617L104.196 30.4905ZM100.201 27.2398L104.15 24.5831C103.814 24.0824 103.512 23.2935 103.512 21.9526H98.7522H93.9927C93.9927 24.7893 94.657 27.5252 96.2522 29.8965L100.201 27.2398ZM98.7522 21.9526H103.512C103.512 19.9654 104.053 18.8696 104.738 18.1526L101.298 14.8639L97.8573 11.5751C95.1485 14.409 93.9927 18.0391 93.9927 21.9526H98.7522ZM101.298 14.8639L104.713 18.1788C105.241 17.6349 106.376 16.9603 109.013 16.9603V12.2007V7.44115C104.81 7.44115 100.801 8.54196 97.8825 11.549L101.298 14.8639ZM109.013 12.2007V16.9603C111.326 16.9603 112.551 17.532 113.253 18.1422L116.376 14.5506L119.499 10.959C116.598 8.43597 112.915 7.44115 109.013 7.44115V12.2007ZM116.376 14.5506L113.283 18.168C113.835 18.6399 114.319 19.3751 114.319 21.0518H119.079H123.838C123.838 17.1412 122.521 13.5422 119.469 10.9331L116.376 14.5506ZM119.079 21.0518H114.319V24.2633H119.079H123.838V21.0518H119.079ZM119.079 24.2633V19.5038H106.468V24.2633V29.0229H119.079V24.2633ZM106.468 24.2633L102.165 26.2975C103.169 28.4224 104.959 29.6665 106.728 30.3329C108.426 30.9724 110.321 31.1769 112.186 31.1769V26.4174V21.6578C111.578 21.6578 111.101 21.6226 110.737 21.5708C110.37 21.5184 110.167 21.456 110.084 21.4249C110.004 21.3946 110.093 21.415 110.254 21.5493C110.43 21.6963 110.627 21.9258 110.771 22.2292L106.468 24.2633ZM112.186 26.4174V31.1769C113.587 31.1769 114.966 31.0653 116.316 30.8349L115.515 26.1432L114.714 21.4515C113.922 21.5866 113.081 21.6578 112.186 21.6578V26.4174ZM115.515 26.1432L116.426 30.8147C117.648 30.5762 118.83 30.2722 119.867 29.8574L118.099 25.4383L116.332 21.0191C116.063 21.1265 115.522 21.2925 114.603 21.4718L115.515 26.1432ZM118.099 25.4383H113.34V30.2163H118.099H122.859V25.4383H118.099ZM118.099 30.2163L116.044 25.9236C115.136 26.3583 113.284 26.7883 110.032 26.7883V31.5479V36.3074C113.828 36.3074 117.355 35.8498 120.155 34.509L118.099 30.2163ZM106.468 19.8769V24.6365H111.872V19.8769V15.1174H106.468V19.8769ZM111.872 19.8769H116.632V19.3678H111.872H107.113V19.8769H111.872ZM111.872 19.3678H116.632C116.632 17.5428 115.924 15.8664 114.65 14.5923L111.285 17.9579L107.919 21.3234C107.714 21.1185 107.493 20.8222 107.332 20.4347C107.17 20.0462 107.113 19.6732 107.113 19.3678H111.872ZM111.285 17.9579L114.764 14.7103C112.998 12.8184 110.596 12.6108 109.287 12.6108V17.3704V22.13C109.48 22.13 109.405 22.153 109.168 22.0834C108.92 22.0104 108.352 21.7907 107.805 21.2054L111.285 17.9579ZM109.287 17.3704V12.6108C107.813 12.6108 105.41 12.8809 103.628 14.7742L107.094 18.0362L110.56 21.2982C110.072 21.8168 109.569 22.0211 109.338 22.0912C109.125 22.1558 109.075 22.13 109.287 22.13V17.3704ZM107.094 18.0362L103.628 14.7742C102.163 16.3312 101.708 18.2396 101.708 19.8769H106.468H111.227C111.227 19.9018 111.224 20.0853 111.13 20.3631C111.029 20.6585 110.846 20.994 110.56 21.2982L107.094 18.0362ZM124.08 31.1562L124.903 26.4683L124.863 26.4613L124.823 26.4549L124.08 31.1562ZM120.634 30.2946H115.874V33.4598L118.793 34.6839L120.634 30.2946ZM120.634 24.655L122.762 20.3979L115.874 16.9538V24.655H120.634ZM122.749 25.4774L121.381 30.0362L121.47 30.0629L121.559 30.086L122.749 25.4774ZM125.177 25.9474L124.568 30.6678L125.177 25.9474ZM129.054 26.0649L129.334 30.8162L129.472 30.8081L129.61 30.7918L129.054 26.0649ZM129.093 24.89L127.326 29.3091L127.374 29.3283L127.422 29.3465L129.093 24.89ZM127.527 24.42L126.243 29.0033L126.329 29.0273L126.416 29.0481L127.527 24.42ZM125.373 23.7542L123.724 28.2191L123.795 28.2455L123.868 28.2695L125.373 23.7542ZM121.613 21.6393L118.193 24.9492L118.247 25.0053L118.303 25.0595L121.613 21.6393ZM122.749 13.7281L120.155 9.7375L120.139 9.74749L120.124 9.7576L122.749 13.7281ZM132.579 12.3574L132.038 17.0861L132.105 17.0938L132.172 17.0995L132.579 12.3574ZM135.164 12.6707L134.406 17.3695L134.417 17.3714L134.429 17.3732L135.164 12.6707ZM137.161 13.1407H141.921V9.82187L138.807 8.67456L137.161 13.1407ZM137.161 18.702L135.202 23.0397L141.921 26.0739V18.702H137.161ZM134.537 17.9187L133.629 22.5908L133.691 22.603L133.755 22.6135L134.537 17.9187ZM129.994 17.7229L129.614 12.9785L129.994 17.7229ZM130.151 19.0153L129.186 23.6761L129.202 23.6793L129.217 23.6824L130.151 19.0153ZM133.01 19.7986L131.536 24.3243L131.624 24.353L131.714 24.3783L133.01 19.7986ZM136.221 21.1302L133.613 25.1114L133.644 25.1315L133.675 25.1511L136.221 21.1302ZM137.866 22.9317L142.215 20.9987V20.9987L137.866 22.9317ZM135.908 29.9422L133.283 25.9721L133.268 25.982L133.253 25.992L135.908 29.9422ZM128.819 31.5479V26.7883C127.395 26.7883 126.093 26.677 124.903 26.4683L124.08 31.1562L123.258 35.8442C125.044 36.1576 126.901 36.3074 128.819 36.3074V31.5479ZM124.08 31.1562L124.823 26.4549C123.484 26.2436 122.769 26.0287 122.474 25.9054L120.634 30.2946L118.793 34.6839C120.118 35.2394 121.7 35.5989 123.338 35.8576L124.08 31.1562ZM120.634 30.2946H125.393V24.655H120.634H115.874V30.2946H120.634ZM120.634 24.655L118.505 28.912C119.413 29.3658 120.378 29.7354 121.381 30.0362L122.749 25.4774L124.116 20.9186C123.553 20.7495 123.108 20.5707 122.762 20.3979L120.634 24.655ZM122.749 25.4774L121.559 30.086C122.555 30.3429 123.558 30.5375 124.568 30.6678L125.177 25.9474L125.786 21.227C125.177 21.1484 124.561 21.0297 123.938 20.8688L122.749 25.4774ZM125.177 25.9474L124.568 30.6678C125.503 30.7884 126.41 30.8636 127.253 30.8636V26.104V21.3445C126.947 21.3445 126.47 21.3152 125.786 21.227L125.177 25.9474ZM127.253 26.104V30.8636C128.048 30.8636 128.755 30.8503 129.334 30.8162L129.054 26.0649L128.775 21.3135C128.466 21.3317 127.971 21.3445 127.253 21.3445V26.104ZM129.054 26.0649L129.61 30.7918C130.276 30.7136 131.473 30.4735 132.579 29.5627C133.895 28.4787 134.479 26.9502 134.479 25.5166H129.72H124.96C124.96 24.3963 125.433 23.1158 126.528 22.2146C127.412 21.4866 128.276 21.364 128.498 21.3379L129.054 26.0649ZM129.72 25.5166H134.479C134.479 22.0727 131.583 20.7402 130.764 20.4334L129.093 24.89L127.422 29.3465C127.289 29.2967 126.755 29.0871 126.198 28.5296C125.537 27.8693 124.96 26.8183 124.96 25.5166H129.72ZM129.093 24.89L130.861 20.4708C130.169 20.194 129.4 19.9748 128.637 19.7919L127.527 24.42L126.416 29.0481C126.959 29.1785 127.234 29.2726 127.326 29.3091L129.093 24.89ZM127.527 24.42L128.81 19.8367C128.246 19.6787 127.603 19.4806 126.878 19.2389L125.373 23.7542L123.868 28.2695C124.709 28.55 125.502 28.7957 126.243 29.0033L127.527 24.42ZM125.373 23.7542L127.021 19.2893C125.612 18.769 125.055 18.3474 124.923 18.2191L121.613 21.6393L118.303 25.0595C119.789 26.4978 121.739 27.4862 123.724 28.2191L125.373 23.7542ZM121.613 21.6393L125.033 18.3294C125.098 18.3962 125.149 18.4659 125.187 18.5294C125.224 18.5917 125.239 18.6332 125.242 18.6406C125.245 18.6491 125.198 18.5107 125.198 18.1537H120.438H115.678C115.678 20.4672 116.288 22.9816 118.193 24.9492L121.613 21.6393ZM120.438 18.1537H125.198C125.198 17.9869 125.214 17.8871 125.225 17.8397C125.235 17.7951 125.242 17.7877 125.235 17.8011C125.227 17.8152 125.221 17.8208 125.229 17.8126C125.238 17.8027 125.278 17.7615 125.373 17.6986L122.749 13.7281L120.124 9.7576C117.178 11.7049 115.678 14.7123 115.678 18.1537H120.438ZM122.749 13.7281L125.343 17.7187C125.752 17.4528 127.047 16.9603 129.994 16.9603V12.2007V7.44115C126.413 7.44115 122.879 7.96694 120.155 9.7375L122.749 13.7281ZM129.994 12.2007V16.9603C130.6 16.9603 131.28 16.9995 132.038 17.0861L132.579 12.3574L133.119 7.62859C132.05 7.50636 131.006 7.44115 129.994 7.44115V12.2007ZM132.579 12.3574L132.172 17.0995C132.982 17.1689 133.726 17.2598 134.406 17.3695L135.164 12.6707L135.922 7.97185C134.983 7.82045 134.003 7.70245 132.985 7.6152L132.579 12.3574ZM135.164 12.6707L134.429 17.3732C135.115 17.4803 135.436 17.5773 135.516 17.6068L137.161 13.1407L138.807 8.67456C137.894 8.33844 136.884 8.12212 135.898 7.96818L135.164 12.6707ZM137.161 13.1407H132.402V18.702H137.161H141.921V13.1407H137.161ZM137.161 18.702L139.12 14.3643C137.909 13.8175 136.636 13.4433 135.32 13.2239L134.537 17.9187L133.755 22.6135C134.318 22.7074 134.794 22.8554 135.202 23.0397L137.161 18.702ZM134.537 17.9187L135.446 13.2466C134.281 13.0202 133.121 12.885 131.991 12.885V17.6446V22.4041C132.376 22.4041 132.913 22.4517 133.629 22.5908L134.537 17.9187ZM131.991 17.6446V12.885C131.191 12.885 130.398 12.9158 129.614 12.9785L129.994 17.7229L130.374 22.4673C130.896 22.4255 131.435 22.4041 131.991 22.4041V17.6446ZM129.994 17.7229L129.614 12.9785C129.043 13.0242 127.987 13.1565 126.934 13.7464C125.615 14.4854 124.255 16.0281 124.255 18.2712H129.015H133.774C133.774 19.0686 133.551 19.9179 133.052 20.6766C132.579 21.3959 132 21.8195 131.585 22.0519C131.18 22.2788 130.842 22.3748 130.676 22.4147C130.499 22.4571 130.388 22.4661 130.374 22.4673L129.994 17.7229ZM129.015 18.2712H124.255C124.255 20.5615 125.656 22.0155 126.691 22.693C127.614 23.2978 128.577 23.5501 129.186 23.6761L130.151 19.0153L131.115 14.3545C130.967 14.3238 131.363 14.3738 131.907 14.7306C132.212 14.9304 132.683 15.3046 133.087 15.9304C133.519 16.6016 133.774 17.4135 133.774 18.2712H129.015ZM130.151 19.0153L129.217 23.6824C129.754 23.7898 130.515 23.992 131.536 24.3243L133.01 19.7986L134.483 15.2729C133.258 14.8741 132.114 14.5541 131.084 14.3482L130.151 19.0153ZM133.01 19.7986L131.714 24.3783C132.872 24.7061 133.426 24.9889 133.613 25.1114L136.221 21.1302L138.83 17.149C137.502 16.2793 135.915 15.6744 134.306 15.2189L133.01 19.7986ZM136.221 21.1302L133.675 25.1511C133.758 25.2039 133.753 25.2141 133.705 25.1619C133.653 25.1049 133.579 25.0046 133.517 24.8648L137.866 22.9317L142.215 20.9987C141.449 19.2747 140.182 18.0051 138.768 17.1092L136.221 21.1302ZM137.866 22.9317L133.517 24.8648C133.488 24.7997 133.576 24.9614 133.576 25.5166H138.336H143.096C143.096 24.0352 142.871 22.4737 142.215 20.9987L137.866 22.9317ZM138.336 25.5166H133.576C133.576 25.6438 133.563 25.7115 133.557 25.7344C133.553 25.7549 133.551 25.7533 133.556 25.7434C133.561 25.734 133.558 25.7454 133.526 25.7783C133.493 25.8133 133.42 25.8814 133.283 25.9721L135.908 29.9422L138.533 33.9122C141.433 31.9947 143.096 29.0553 143.096 25.5166H138.336ZM135.908 29.9422L133.253 25.992C132.799 26.2969 131.549 26.7883 128.819 26.7883V31.5479V36.3074C132.355 36.3074 135.831 35.7284 138.563 33.8924L135.908 29.9422ZM142.553 31.1562L143.376 26.4683L143.336 26.4613L143.296 26.4549L142.553 31.1562ZM139.107 30.2946H134.347V33.4598L137.266 34.6839L139.107 30.2946ZM139.107 24.655L141.235 20.3979L134.347 16.9538V24.655H139.107ZM141.222 25.4774L139.854 30.0362L139.943 30.0629L140.032 30.086L141.222 25.4774ZM143.65 25.9474L143.041 30.6678L143.65 25.9474ZM147.527 26.0649L147.807 30.8162L147.945 30.8081L148.083 30.7918L147.527 26.0649ZM147.566 24.89L145.799 29.3091L145.847 29.3283L145.895 29.3465L147.566 24.89ZM146 24.42L144.716 29.0033L144.802 29.0273L144.889 29.0481L146 24.42ZM143.846 23.7542L142.197 28.2191L142.268 28.2455L142.341 28.2695L143.846 23.7542ZM140.086 21.6393L136.666 24.9492L136.72 25.0053L136.776 25.0595L140.086 21.6393ZM141.222 13.7281L138.628 9.7375L138.612 9.74749L138.597 9.7576L141.222 13.7281ZM151.052 12.3574L150.511 17.0861L150.578 17.0938L150.645 17.0995L151.052 12.3574ZM153.637 12.6707L152.879 17.3695L152.89 17.3714L152.902 17.3732L153.637 12.6707ZM155.634 13.1407H160.394V9.82187L157.28 8.67456L155.634 13.1407ZM155.634 18.702L153.675 23.0397L160.394 26.0739V18.702H155.634ZM153.01 17.9187L152.102 22.5908L152.165 22.603L152.228 22.6135L153.01 17.9187ZM148.467 17.7229L148.088 12.9785L148.467 17.7229ZM148.624 19.0153L147.659 23.6761L147.675 23.6793L147.69 23.6824L148.624 19.0153ZM151.483 19.7986L150.009 24.3243L150.097 24.353L150.187 24.3783L151.483 19.7986ZM154.694 21.1302L152.086 25.1114L152.117 25.1315L152.148 25.1511L154.694 21.1302ZM156.339 22.9317L160.688 20.9987V20.9987L156.339 22.9317ZM154.381 29.9422L151.756 25.9721L151.741 25.982L151.726 25.992L154.381 29.9422ZM147.292 31.5479V26.7883C145.868 26.7883 144.566 26.677 143.376 26.4683L142.553 31.1562L141.731 35.8442C143.517 36.1576 145.374 36.3074 147.292 36.3074V31.5479ZM142.553 31.1562L143.296 26.4549C141.957 26.2436 141.242 26.0287 140.947 25.9054L139.107 30.2946L137.266 34.6839C138.591 35.2394 140.173 35.5989 141.811 35.8576L142.553 31.1562ZM139.107 30.2946H143.866V24.655H139.107H134.347V30.2946H139.107ZM139.107 24.655L136.978 28.912C137.886 29.3658 138.851 29.7354 139.854 30.0362L141.222 25.4774L142.589 20.9186C142.026 20.7495 141.581 20.5707 141.235 20.3979L139.107 24.655ZM141.222 25.4774L140.032 30.086C141.028 30.3429 142.031 30.5375 143.041 30.6678L143.65 25.9474L144.259 21.227C143.65 21.1484 143.034 21.0297 142.411 20.8688L141.222 25.4774ZM143.65 25.9474L143.041 30.6678C143.976 30.7884 144.883 30.8636 145.726 30.8636V26.104V21.3445C145.42 21.3445 144.943 21.3152 144.259 21.227L143.65 25.9474ZM145.726 26.104V30.8636C146.521 30.8636 147.228 30.8503 147.807 30.8162L147.527 26.0649L147.248 21.3135C146.939 21.3317 146.444 21.3445 145.726 21.3445V26.104ZM147.527 26.0649L148.083 30.7918C148.749 30.7136 149.946 30.4735 151.052 29.5627C152.368 28.4787 152.952 26.9502 152.952 25.5166H148.193H143.433C143.433 24.3963 143.906 23.1158 145.001 22.2146C145.885 21.4866 146.749 21.364 146.971 21.3379L147.527 26.0649ZM148.193 25.5166H152.952C152.952 22.0727 150.056 20.7402 149.237 20.4334L147.566 24.89L145.895 29.3465C145.762 29.2967 145.228 29.0871 144.671 28.5296C144.01 27.8693 143.433 26.8183 143.433 25.5166H148.193ZM147.566 24.89L149.334 20.4708C148.642 20.194 147.873 19.9748 147.11 19.7919L146 24.42L144.889 29.0481C145.432 29.1785 145.707 29.2726 145.799 29.3091L147.566 24.89ZM146 24.42L147.283 19.8367C146.719 19.6787 146.076 19.4806 145.351 19.2389L143.846 23.7542L142.341 28.2695C143.182 28.55 143.975 28.7957 144.716 29.0033L146 24.42ZM143.846 23.7542L145.494 19.2893C144.085 18.769 143.528 18.3474 143.396 18.2191L140.086 21.6393L136.776 25.0595C138.262 26.4978 140.212 27.4862 142.197 28.2191L143.846 23.7542ZM140.086 21.6393L143.506 18.3294C143.571 18.3962 143.622 18.4659 143.66 18.5294C143.697 18.5917 143.712 18.6332 143.715 18.6406C143.718 18.6491 143.671 18.5107 143.671 18.1537H138.911H134.151C134.151 20.4672 134.762 22.9816 136.666 24.9492L140.086 21.6393ZM138.911 18.1537H143.671C143.671 17.9869 143.687 17.8871 143.698 17.8397C143.708 17.7951 143.715 17.7877 143.708 17.8011C143.7 17.8152 143.694 17.8208 143.702 17.8126C143.711 17.8027 143.751 17.7615 143.846 17.6986L141.222 13.7281L138.597 9.7576C135.651 11.7049 134.151 14.7123 134.151 18.1537H138.911ZM141.222 13.7281L143.816 17.7187C144.225 17.4528 145.52 16.9603 148.467 16.9603V12.2007V7.44115C144.886 7.44115 141.352 7.96694 138.628 9.7375L141.222 13.7281ZM148.467 12.2007V16.9603C149.074 16.9603 149.753 16.9995 150.511 17.0861L151.052 12.3574L151.592 7.62859C150.523 7.50636 149.479 7.44115 148.467 7.44115V12.2007ZM151.052 12.3574L150.645 17.0995C151.455 17.1689 152.199 17.2598 152.879 17.3695L153.637 12.6707L154.395 7.97185C153.456 7.82045 152.476 7.70245 151.458 7.6152L151.052 12.3574ZM153.637 12.6707L152.902 17.3732C153.588 17.4803 153.909 17.5773 153.989 17.6068L155.634 13.1407L157.28 8.67456C156.367 8.33844 155.357 8.12212 154.372 7.96818L153.637 12.6707ZM155.634 13.1407H150.875V18.702H155.634H160.394V13.1407H155.634ZM155.634 18.702L157.593 14.3643C156.382 13.8175 155.109 13.4433 153.793 13.2239L153.01 17.9187L152.228 22.6135C152.791 22.7074 153.267 22.8554 153.675 23.0397L155.634 18.702ZM153.01 17.9187L153.919 13.2466C152.754 13.0202 151.594 12.885 150.464 12.885V17.6446V22.4041C150.849 22.4041 151.387 22.4517 152.102 22.5908L153.01 17.9187ZM150.464 17.6446V12.885C149.664 12.885 148.871 12.9158 148.088 12.9785L148.467 17.7229L148.847 22.4673C149.369 22.4255 149.908 22.4041 150.464 22.4041V17.6446ZM148.467 17.7229L148.088 12.9785C147.516 13.0242 146.46 13.1565 145.407 13.7464C144.088 14.4854 142.728 16.0281 142.728 18.2712H147.488H152.248C152.248 19.0686 152.025 19.9179 151.525 20.6766C151.052 21.3959 150.473 21.8195 150.058 22.0519C149.653 22.2788 149.315 22.3748 149.149 22.4147C148.973 22.4571 148.861 22.4661 148.847 22.4673L148.467 17.7229ZM147.488 18.2712H142.728C142.728 20.5615 144.129 22.0155 145.164 22.693C146.087 23.2978 147.05 23.5501 147.659 23.6761L148.624 19.0153L149.588 14.3545C149.44 14.3238 149.836 14.3738 150.38 14.7306C150.685 14.9304 151.156 15.3046 151.56 15.9304C151.992 16.6016 152.248 17.4135 152.248 18.2712H147.488ZM148.624 19.0153L147.69 23.6824C148.227 23.7898 148.989 23.992 150.009 24.3243L151.483 19.7986L152.956 15.2729C151.732 14.8741 150.587 14.5541 149.557 14.3482L148.624 19.0153ZM151.483 19.7986L150.187 24.3783C151.345 24.7061 151.899 24.9889 152.086 25.1114L154.694 21.1302L157.303 17.149C155.975 16.2793 154.388 15.6744 152.779 15.2189L151.483 19.7986ZM154.694 21.1302L152.148 25.1511C152.231 25.2039 152.226 25.2141 152.178 25.1619C152.126 25.1049 152.052 25.0046 151.99 24.8648L156.339 22.9317L160.688 20.9987C159.922 19.2747 158.655 18.0051 157.241 17.1092L154.694 21.1302ZM156.339 22.9317L151.99 24.8648C151.961 24.7997 152.05 24.9614 152.05 25.5166H156.809H161.569C161.569 24.0352 161.344 22.4737 160.688 20.9987L156.339 22.9317ZM156.809 25.5166H152.05C152.05 25.6438 152.036 25.7115 152.03 25.7344C152.026 25.7549 152.024 25.7533 152.029 25.7434C152.034 25.734 152.031 25.7454 151.999 25.7783C151.966 25.8133 151.893 25.8814 151.756 25.9721L154.381 29.9422L157.006 33.9122C159.906 31.9947 161.569 29.0553 161.569 25.5166H156.809ZM154.381 29.9422L151.726 25.992C151.272 26.2969 150.022 26.7883 147.292 26.7883V31.5479V36.3074C150.828 36.3074 154.304 35.7284 157.036 33.8924L154.381 29.9422Z" fill="#62009B" mask="url(#path-1-outside-1_1553_2598)"/>
</svg>
