<svg width="219" height="83" viewBox="0 0 219 83" fill="none" xmlns="http://www.w3.org/2000/svg">
<mask id="path-1-outside-1_1401_2646" maskUnits="userSpaceOnUse" x="-3.74221" y="-3.75836" width="225.57" height="89.6314" fill="black">
<rect fill="white" x="-3.74221" y="-3.75836" width="225.57" height="89.6314"/>
<path d="M4.51251 31.1352C6.06753 14.8758 20.509 2.95554 36.7684 4.51056L187.268 18.9041C203.527 20.4591 215.448 34.9005 213.893 51.1599C212.337 67.4193 197.896 79.3396 181.637 77.7845L31.1371 63.391C14.8777 61.836 2.9575 47.3946 4.51251 31.1352Z"/>
<path d="M6.92064 31.7353C8.36597 16.6229 21.7887 5.54345 36.9012 6.98878L186.668 21.3122C201.78 22.7575 212.86 36.1803 211.414 51.2927C209.969 66.4052 196.546 77.4846 181.434 76.0393L31.6672 61.7159C16.5547 60.2705 5.47531 46.8478 6.92064 31.7353Z"/>
<path d="M139.843 20.5323C143.05 20.839 145.535 23.4927 145.575 26.7142C145.74 40.2402 144.932 49.452 142.243 62.0544C141.578 65.1739 138.653 67.2633 135.478 66.9596L78.9853 61.5568C75.8954 61.2613 73.4536 58.7822 73.2803 55.6831C72.5245 42.1659 73.2888 32.884 76.6806 19.7492C77.4497 16.7706 80.3003 14.8377 83.3625 15.1305L139.843 20.5323Z"/>
<path d="M138.329 21.8668C141.531 22.1729 144.015 24.8178 144.057 28.0333C144.219 40.4055 143.469 48.9423 141.002 60.4737C140.336 63.5864 137.414 65.6655 134.246 65.3625L80.7094 60.2424C77.6275 59.9476 75.1875 57.4795 75.0105 54.3887C74.3009 41.998 75.0116 33.3856 78.1346 21.3474C78.9049 18.3781 81.7515 16.4558 84.8051 16.7478L138.329 21.8668Z"/>
<path d="M44.2418 38.5098C44.0482 40.5338 42.2505 42.0177 40.2265 41.8241C38.2025 41.6305 36.7187 39.8328 36.9122 37.8088C37.1058 35.7848 38.9035 34.301 40.9275 34.4946C42.9515 34.6881 44.4353 36.4858 44.2418 38.5098Z"/>
<path d="M172.721 43.4008C172.527 45.4247 174.011 47.2224 176.035 47.416C178.059 47.6096 179.857 46.1257 180.05 44.1017C180.244 42.0777 178.76 40.2801 176.736 40.0865C174.712 39.8929 172.914 41.3768 172.721 43.4008Z"/>
<path d="M64.3545 47.3368C64.1609 49.3608 62.3632 50.8447 60.3392 50.6511C58.3152 50.4575 56.8314 48.6598 57.025 46.6358C57.2185 44.6118 59.0162 43.128 61.0402 43.3216C63.0642 43.5151 64.5481 45.3128 64.3545 47.3368Z"/>
<path d="M159.532 60.1377C159.339 62.1617 160.822 63.9594 162.846 64.153C164.87 64.3465 166.668 62.8627 166.862 60.8387C167.055 58.8147 165.571 57.017 163.547 56.8234C161.523 56.6299 159.726 58.1137 159.532 60.1377Z"/>
<path d="M55.6501 22.3423C55.4565 24.3662 53.6588 25.8501 51.6348 25.6565C49.6108 25.4629 48.127 23.6653 48.3206 21.6413C48.5141 19.6173 50.3118 18.1334 52.3358 18.327C54.3598 18.5206 55.8436 20.3183 55.6501 22.3423Z"/>
<path d="M154.004 35.4469C153.81 37.4709 155.294 39.2686 157.318 39.4622C159.342 39.6557 161.14 38.1719 161.333 36.1479C161.527 34.1239 160.043 32.3262 158.019 32.1326C155.995 31.9391 154.197 33.4229 154.004 35.4469Z"/>
<path d="M111.422 51.1392C110.99 51.0463 110.701 50.6381 110.757 50.1998L113.319 30.1519C113.379 29.6846 113.807 29.3549 114.274 29.4166L126.409 31.0201C128.714 31.3247 130.417 32.1119 131.517 33.3818C132.618 34.6516 133.034 36.2976 132.767 38.3198C132.615 39.472 132.275 40.4198 131.746 41.1634C131.552 41.4496 131.341 41.7088 131.112 41.9412C130.641 42.419 130.623 43.3164 131.096 43.7916C131.404 44.1014 131.664 44.4391 131.875 44.8049C132.326 45.5583 132.461 46.6169 132.281 47.9807C131.998 50.1204 131.095 51.6998 129.573 52.7187C128.051 53.7377 126.066 54.0856 123.62 53.7624L111.422 51.1392ZM119.561 38.3007C119.5 38.7663 119.827 39.1937 120.293 39.2553L123.189 39.638C124.553 39.8182 125.316 39.297 125.478 38.0743C125.555 37.4864 125.438 37.0164 125.125 36.6641C124.84 36.2914 124.32 36.0553 123.568 35.9558L120.778 35.5871C120.312 35.5256 119.884 35.8532 119.823 36.3189L119.561 38.3007ZM118.42 46.9419C118.358 47.4076 118.686 47.835 119.152 47.8966L122.189 48.2979C123.623 48.4875 124.428 47.9239 124.602 46.6071C124.763 45.3844 124.103 44.6751 122.621 44.4794L119.655 44.0874C119.189 44.0258 118.762 44.3534 118.7 44.8191L118.42 46.9419Z"/>
<path d="M83.4845 35.6391L89.8665 53.891C90.0159 54.3182 90.4814 54.5456 90.9102 54.4007L95.8998 52.7154C96.3353 52.5683 96.5668 52.0938 96.4146 51.66L94.7191 46.8265C94.5574 46.3658 94.8288 45.8662 95.3032 45.751L100.623 44.4588C101.174 44.3248 101.694 44.7746 101.64 45.3398L101.208 49.8502C101.154 50.4154 101.674 50.8652 102.225 50.7312L107.36 49.484C107.695 49.4025 107.944 49.1209 107.985 48.7781L110.242 29.5769C110.308 29.0156 109.803 28.5555 109.25 28.6728L103.731 29.844C103.411 29.9119 103.161 30.1623 103.094 30.4824L101.716 37.0623C101.655 37.3573 101.437 37.5953 101.148 37.6829L93.219 40.0932C92.7904 40.2235 92.3361 39.9883 92.195 39.5632L90.3043 33.8646C90.1696 33.4586 89.747 33.2227 89.3306 33.3211L84.074 34.5632C83.5972 34.6759 83.3228 35.1766 83.4845 35.6391Z"/>
</mask>
<path d="M4.51251 31.1352C6.06753 14.8758 20.509 2.95554 36.7684 4.51056L187.268 18.9041C203.527 20.4591 215.448 34.9005 213.893 51.1599C212.337 67.4193 197.896 79.3396 181.637 77.7845L31.1371 63.391C14.8777 61.836 2.9575 47.3946 4.51251 31.1352Z" fill="#F0C855"/>
<path d="M6.92064 31.7353C8.36597 16.6229 21.7887 5.54345 36.9012 6.98878L186.668 21.3122C201.78 22.7575 212.86 36.1803 211.414 51.2927C209.969 66.4052 196.546 77.4846 181.434 76.0393L31.6672 61.7159C16.5547 60.2705 5.47531 46.8478 6.92064 31.7353Z" fill="#FFEE00"/>
<path d="M139.843 20.5323C143.05 20.839 145.535 23.4927 145.575 26.7142C145.74 40.2402 144.932 49.452 142.243 62.0544C141.578 65.1739 138.653 67.2633 135.478 66.9596L78.9853 61.5568C75.8954 61.2613 73.4536 58.7822 73.2803 55.6831C72.5245 42.1659 73.2888 32.884 76.6806 19.7492C77.4497 16.7706 80.3003 14.8377 83.3625 15.1305L139.843 20.5323Z" fill="#F0C855"/>
<path d="M138.329 21.8668C141.531 22.1729 144.015 24.8178 144.057 28.0333C144.219 40.4055 143.469 48.9423 141.002 60.4737C140.336 63.5864 137.414 65.6655 134.246 65.3625L80.7094 60.2424C77.6275 59.9476 75.1875 57.4795 75.0105 54.3887C74.3009 41.998 75.0116 33.3856 78.1346 21.3474C78.9049 18.3781 81.7515 16.4558 84.8051 16.7478L138.329 21.8668Z" fill="#8B00DB"/>
<path d="M44.2418 38.5098C44.0482 40.5338 42.2505 42.0177 40.2265 41.8241C38.2025 41.6305 36.7187 39.8328 36.9122 37.8088C37.1058 35.7848 38.9035 34.301 40.9275 34.4946C42.9515 34.6881 44.4353 36.4858 44.2418 38.5098Z" fill="#7300B7"/>
<path d="M172.721 43.4008C172.527 45.4247 174.011 47.2224 176.035 47.416C178.059 47.6096 179.857 46.1257 180.05 44.1017C180.244 42.0777 178.76 40.2801 176.736 40.0865C174.712 39.8929 172.914 41.3768 172.721 43.4008Z" fill="#7300B7"/>
<path d="M64.3545 47.3368C64.1609 49.3608 62.3632 50.8447 60.3392 50.6511C58.3152 50.4575 56.8314 48.6598 57.025 46.6358C57.2185 44.6118 59.0162 43.128 61.0402 43.3216C63.0642 43.5151 64.5481 45.3128 64.3545 47.3368Z" fill="#7300B7"/>
<path d="M159.532 60.1377C159.339 62.1617 160.822 63.9594 162.846 64.153C164.87 64.3465 166.668 62.8627 166.862 60.8387C167.055 58.8147 165.571 57.017 163.547 56.8234C161.523 56.6299 159.726 58.1137 159.532 60.1377Z" fill="#7300B7"/>
<path d="M55.6501 22.3423C55.4565 24.3662 53.6588 25.8501 51.6348 25.6565C49.6108 25.4629 48.127 23.6653 48.3206 21.6413C48.5141 19.6173 50.3118 18.1334 52.3358 18.327C54.3598 18.5206 55.8436 20.3183 55.6501 22.3423Z" fill="#7300B7"/>
<path d="M154.004 35.4469C153.81 37.4709 155.294 39.2686 157.318 39.4622C159.342 39.6557 161.14 38.1719 161.333 36.1479C161.527 34.1239 160.043 32.3262 158.019 32.1326C155.995 31.9391 154.197 33.4229 154.004 35.4469Z" fill="#7300B7"/>
<path d="M111.422 51.1392C110.99 51.0463 110.701 50.6381 110.757 50.1998L113.319 30.1519C113.379 29.6846 113.807 29.3549 114.274 29.4166L126.409 31.0201C128.714 31.3247 130.417 32.1119 131.517 33.3818C132.618 34.6516 133.034 36.2976 132.767 38.3198C132.615 39.472 132.275 40.4198 131.746 41.1634C131.552 41.4496 131.341 41.7088 131.112 41.9412C130.641 42.419 130.623 43.3164 131.096 43.7916C131.404 44.1014 131.664 44.4391 131.875 44.8049C132.326 45.5583 132.461 46.6169 132.281 47.9807C131.998 50.1204 131.095 51.6998 129.573 52.7187C128.051 53.7377 126.066 54.0856 123.62 53.7624L111.422 51.1392ZM119.561 38.3007C119.5 38.7663 119.827 39.1937 120.293 39.2553L123.189 39.638C124.553 39.8182 125.316 39.297 125.478 38.0743C125.555 37.4864 125.438 37.0164 125.125 36.6641C124.84 36.2914 124.32 36.0553 123.568 35.9558L120.778 35.5871C120.312 35.5256 119.884 35.8532 119.823 36.3189L119.561 38.3007ZM118.42 46.9419C118.358 47.4076 118.686 47.835 119.152 47.8966L122.189 48.2979C123.623 48.4875 124.428 47.9239 124.602 46.6071C124.763 45.3844 124.103 44.6751 122.621 44.4794L119.655 44.0874C119.189 44.0258 118.762 44.3534 118.7 44.8191L118.42 46.9419Z" fill="white"/>
<path d="M83.4845 35.6391L89.8665 53.891C90.0159 54.3182 90.4814 54.5456 90.9102 54.4007L95.8998 52.7154C96.3353 52.5683 96.5668 52.0938 96.4146 51.66L94.7191 46.8265C94.5574 46.3658 94.8288 45.8662 95.3032 45.751L100.623 44.4588C101.174 44.3248 101.694 44.7746 101.64 45.3398L101.208 49.8502C101.154 50.4154 101.674 50.8652 102.225 50.7312L107.36 49.484C107.695 49.4025 107.944 49.1209 107.985 48.7781L110.242 29.5769C110.308 29.0156 109.803 28.5555 109.25 28.6728L103.731 29.844C103.411 29.9119 103.161 30.1623 103.094 30.4824L101.716 37.0623C101.655 37.3573 101.437 37.5953 101.148 37.6829L93.219 40.0932C92.7904 40.2235 92.3361 39.9883 92.195 39.5632L90.3043 33.8646C90.1696 33.4586 89.747 33.2227 89.3306 33.3211L84.074 34.5632C83.5972 34.6759 83.3228 35.1766 83.4845 35.6391Z" fill="white"/>
<path d="M4.51251 31.1352C6.06753 14.8758 20.509 2.95554 36.7684 4.51056L187.268 18.9041C203.527 20.4591 215.448 34.9005 213.893 51.1599C212.337 67.4193 197.896 79.3396 181.637 77.7845L31.1371 63.391C14.8777 61.836 2.9575 47.3946 4.51251 31.1352Z" stroke="white" stroke-width="8.74778" mask="url(#path-1-outside-1_1401_2646)"/>
<path d="M6.92064 31.7353C8.36597 16.6229 21.7887 5.54345 36.9012 6.98878L186.668 21.3122C201.78 22.7575 212.86 36.1803 211.414 51.2927C209.969 66.4052 196.546 77.4846 181.434 76.0393L31.6672 61.7159C16.5547 60.2705 5.47531 46.8478 6.92064 31.7353Z" stroke="white" stroke-width="8.74778" mask="url(#path-1-outside-1_1401_2646)"/>
<path d="M139.843 20.5323C143.05 20.839 145.535 23.4927 145.575 26.7142C145.74 40.2402 144.932 49.452 142.243 62.0544C141.578 65.1739 138.653 67.2633 135.478 66.9596L78.9853 61.5568C75.8954 61.2613 73.4536 58.7822 73.2803 55.6831C72.5245 42.1659 73.2888 32.884 76.6806 19.7492C77.4497 16.7706 80.3003 14.8377 83.3625 15.1305L139.843 20.5323Z" stroke="white" stroke-width="8.74778" mask="url(#path-1-outside-1_1401_2646)"/>
<path d="M138.329 21.8668C141.531 22.1729 144.015 24.8178 144.057 28.0333C144.219 40.4055 143.469 48.9423 141.002 60.4737C140.336 63.5864 137.414 65.6655 134.246 65.3625L80.7094 60.2424C77.6275 59.9476 75.1875 57.4795 75.0105 54.3887C74.3009 41.998 75.0116 33.3856 78.1346 21.3474C78.9049 18.3781 81.7515 16.4558 84.8051 16.7478L138.329 21.8668Z" stroke="white" stroke-width="8.74778" mask="url(#path-1-outside-1_1401_2646)"/>
<path d="M44.2418 38.5098C44.0482 40.5338 42.2505 42.0177 40.2265 41.8241C38.2025 41.6305 36.7187 39.8328 36.9122 37.8088C37.1058 35.7848 38.9035 34.301 40.9275 34.4946C42.9515 34.6881 44.4353 36.4858 44.2418 38.5098Z" stroke="white" stroke-width="8.74778" mask="url(#path-1-outside-1_1401_2646)"/>
<path d="M172.721 43.4008C172.527 45.4247 174.011 47.2224 176.035 47.416C178.059 47.6096 179.857 46.1257 180.05 44.1017C180.244 42.0777 178.76 40.2801 176.736 40.0865C174.712 39.8929 172.914 41.3768 172.721 43.4008Z" stroke="white" stroke-width="8.74778" mask="url(#path-1-outside-1_1401_2646)"/>
<path d="M64.3545 47.3368C64.1609 49.3608 62.3632 50.8447 60.3392 50.6511C58.3152 50.4575 56.8314 48.6598 57.025 46.6358C57.2185 44.6118 59.0162 43.128 61.0402 43.3216C63.0642 43.5151 64.5481 45.3128 64.3545 47.3368Z" stroke="white" stroke-width="8.74778" mask="url(#path-1-outside-1_1401_2646)"/>
<path d="M159.532 60.1377C159.339 62.1617 160.822 63.9594 162.846 64.153C164.87 64.3465 166.668 62.8627 166.862 60.8387C167.055 58.8147 165.571 57.017 163.547 56.8234C161.523 56.6299 159.726 58.1137 159.532 60.1377Z" stroke="white" stroke-width="8.74778" mask="url(#path-1-outside-1_1401_2646)"/>
<path d="M55.6501 22.3423C55.4565 24.3662 53.6588 25.8501 51.6348 25.6565C49.6108 25.4629 48.127 23.6653 48.3206 21.6413C48.5141 19.6173 50.3118 18.1334 52.3358 18.327C54.3598 18.5206 55.8436 20.3183 55.6501 22.3423Z" stroke="white" stroke-width="8.74778" mask="url(#path-1-outside-1_1401_2646)"/>
<path d="M154.004 35.4469C153.81 37.4709 155.294 39.2686 157.318 39.4622C159.342 39.6557 161.14 38.1719 161.333 36.1479C161.527 34.1239 160.043 32.3262 158.019 32.1326C155.995 31.9391 154.197 33.4229 154.004 35.4469Z" stroke="white" stroke-width="8.74778" mask="url(#path-1-outside-1_1401_2646)"/>
<path d="M111.422 51.1392C110.99 51.0463 110.701 50.6381 110.757 50.1998L113.319 30.1519C113.379 29.6846 113.807 29.3549 114.274 29.4166L126.409 31.0201C128.714 31.3247 130.417 32.1119 131.517 33.3818C132.618 34.6516 133.034 36.2976 132.767 38.3198C132.615 39.472 132.275 40.4198 131.746 41.1634C131.552 41.4496 131.341 41.7088 131.112 41.9412C130.641 42.419 130.623 43.3164 131.096 43.7916C131.404 44.1014 131.664 44.4391 131.875 44.8049C132.326 45.5583 132.461 46.6169 132.281 47.9807C131.998 50.1204 131.095 51.6998 129.573 52.7187C128.051 53.7377 126.066 54.0856 123.62 53.7624L111.422 51.1392ZM119.561 38.3007C119.5 38.7663 119.827 39.1937 120.293 39.2553L123.189 39.638C124.553 39.8182 125.316 39.297 125.478 38.0743C125.555 37.4864 125.438 37.0164 125.125 36.6641C124.84 36.2914 124.32 36.0553 123.568 35.9558L120.778 35.5871C120.312 35.5256 119.884 35.8532 119.823 36.3189L119.561 38.3007ZM118.42 46.9419C118.358 47.4076 118.686 47.835 119.152 47.8966L122.189 48.2979C123.623 48.4875 124.428 47.9239 124.602 46.6071C124.763 45.3844 124.103 44.6751 122.621 44.4794L119.655 44.0874C119.189 44.0258 118.762 44.3534 118.7 44.8191L118.42 46.9419Z" stroke="white" stroke-width="8.74778" mask="url(#path-1-outside-1_1401_2646)"/>
<path d="M83.4845 35.6391L89.8665 53.891C90.0159 54.3182 90.4814 54.5456 90.9102 54.4007L95.8998 52.7154C96.3353 52.5683 96.5668 52.0938 96.4146 51.66L94.7191 46.8265C94.5574 46.3658 94.8288 45.8662 95.3032 45.751L100.623 44.4588C101.174 44.3248 101.694 44.7746 101.64 45.3398L101.208 49.8502C101.154 50.4154 101.674 50.8652 102.225 50.7312L107.36 49.484C107.695 49.4025 107.944 49.1209 107.985 48.7781L110.242 29.5769C110.308 29.0156 109.803 28.5555 109.25 28.6728L103.731 29.844C103.411 29.9119 103.161 30.1623 103.094 30.4824L101.716 37.0623C101.655 37.3573 101.437 37.5953 101.148 37.6829L93.219 40.0932C92.7904 40.2235 92.3361 39.9883 92.195 39.5632L90.3043 33.8646C90.1696 33.4586 89.747 33.2227 89.3306 33.3211L84.074 34.5632C83.5972 34.6759 83.3228 35.1766 83.4845 35.6391Z" stroke="white" stroke-width="8.74778" mask="url(#path-1-outside-1_1401_2646)"/>
</svg>
