<svg width="1280" height="141" viewBox="0 0 1280 141" fill="none" xmlns="http://www.w3.org/2000/svg">
<path d="M69.5 138L-18 72V0H1280V115L1223 52.5L1097 107L1046.5 52.5L976.5 92L962.5 138L813.5 83L727 115V72L636 52.5L583.5 99.5L465 39.5L435.5 83L428 132.5L316.5 107L285.5 52.5L241 72L208 107L139.5 72L69.5 138Z" fill="url(#paint0_linear_998_2067)"/>
<path opacity="0.72" d="M1280 0V115L1223 52.5L1097 107L1046.5 52.5L976.5 92L962.5 138L813.5 83L727 115V72L636 52.5L583.5 99.5L465 39.5L435.5 83L428 132.5L316.5 107L285.5 52.5L241 72L208 107L139.5 72L69.5 138L-18 72V0" stroke="url(#paint1_radial_998_2067)" stroke-width="3.42"/>
<defs>
<linearGradient id="paint0_linear_998_2067" x1="-18" y1="69" x2="1280" y2="69" gradientUnits="userSpaceOnUse">
<stop stop-color="#180029"/>
<stop offset="1" stop-color="#2B004A"/>
</linearGradient>
<radialGradient id="paint1_radial_998_2067" cx="0" cy="0" r="1" gradientUnits="userSpaceOnUse" gradientTransform="translate(431.5 138) scale(817 410.014)">
<stop stop-color="#825096"/>
<stop offset="1" stop-color="#969696" stop-opacity="0"/>
</radialGradient>
</defs>
</svg>
