<svg width="2173" height="415" viewBox="0 0 2173 415" fill="none" xmlns="http://www.w3.org/2000/svg">
<g clip-path="url(#clip0_3010_2463)">
<path d="M801.621 405.538L889.121 339.538V267.538H-408.879V382.538L-351.879 320.038L-225.879 374.538L-175.379 320.038L-105.379 359.538L-91.3789 405.538L57.6211 350.538L144.121 382.538V339.538L235.121 320.038L287.621 367.038L406.121 307.038L435.621 350.538L443.121 400.038L554.621 374.538L585.621 320.038L630.121 339.538L663.121 374.538L731.621 339.538L801.621 405.538Z" fill="url(#paint0_linear_3010_2463)"/>
<mask id="mask0_3010_2463" style="mask-type:alpha" maskUnits="userSpaceOnUse" x="-409" y="224" width="1306" height="182">
<path d="M801.621 405.538L889.121 339.538L896.621 224.038H-401.379L-408.879 382.538L-351.879 320.038L-225.879 374.538L-175.379 320.038L-105.379 359.538L-91.3789 405.538L57.6211 350.538L144.121 382.538V339.538L235.121 320.038L287.621 367.038L406.121 307.038L435.621 350.538L443.121 400.038L554.621 374.538L585.621 320.038L630.121 339.538L663.121 374.538L731.621 339.538L801.621 405.538Z" fill="url(#paint1_linear_3010_2463)"/>
</mask>
<g mask="url(#mask0_3010_2463)">
<g style="mix-blend-mode:multiply">
<path d="M894.175 -733.145L624.696 -343.637L-496.379 -29.9619L-422.433 406.538L883.621 406.538L1183.46 98.6303L894.175 -733.145Z" fill="url(#paint2_linear_3010_2463)"/>
</g>
</g>
<path opacity="0.72" d="M-408.879 267.538V382.538L-351.879 320.038L-225.879 374.538L-175.379 320.038L-105.379 359.538L-91.3789 405.538L57.6211 350.538L144.121 382.538V339.538L235.121 320.038L287.621 367.038L406.121 307.038L435.621 350.538L443.121 400.038L554.621 374.538L585.621 320.038L630.121 339.538L663.121 374.538L731.621 339.538L801.621 405.538L889.121 339.538V267.538" stroke="url(#paint3_radial_3010_2463)" stroke-width="3.42"/>
<g opacity="0.41">
<path d="M715.814 199.865L806.424 203.289L806.424 283.024L878.577 256.364C854.526 298.759 806.424 386.973 806.424 400.67L806.424 283.024L729.118 340.041L664.618 371.541L629.342 340.041L420.118 248.041L400.656 212.094L552.118 248.041L712.292 125.511L715.814 199.865Z" fill="url(#paint4_linear_3010_2463)" fill-opacity="0.11"/>
<path d="M664.618 371.541L729.118 340.041M664.618 371.541L629.342 340.041M664.618 371.541L685.618 305.541M698.317 23.0293L712.292 125.511M715.814 199.865L806.424 203.289M715.814 199.865L729.118 340.041M715.814 199.865L552.118 248.041M715.814 199.865L712.292 125.511M806.424 203.289L878.577 23.0293M806.424 203.289L806.424 283.024M806.424 400.67L971.52 267.86L1125.12 203.289M806.424 400.67L1058.84 144.588M806.424 400.67C806.424 386.973 854.526 298.759 878.577 256.364L806.424 283.024M806.424 400.67L806.424 283.024M806.424 283.024L729.118 340.041M729.118 340.041L685.618 305.541M629.342 340.041L685.618 305.541M629.342 340.041L420.118 248.041M685.618 305.541L552.118 248.041M552.118 248.041L712.292 125.511M552.118 248.041L587.118 99.041M552.118 248.041L400.656 212.094L420.118 248.041M555.618 371.541L420.118 248.041M420.118 248.041L435.121 348.041M420.118 248.041L404.621 308.541" stroke="url(#paint5_radial_3010_2463)" stroke-width="3.4242"/>
</g>
<g opacity="0.41">
<path d="M55.6171 349.538L-92.3821 406.538L-120.212 282.038L-177.384 320.538L-141.934 179.463L-52.3828 245.038L23.2515 225.673L122.36 179.463L164.21 185.409L122.359 221.362L84.1141 303.862L55.6171 349.538Z" fill="url(#paint6_linear_3010_2463)" fill-opacity="0.11"/>
<path d="M186.183 228.186L84.1141 303.862M-92.3821 406.538L55.6171 349.538L84.1141 303.862M-92.3821 406.538L23.2515 225.673M-92.3821 406.538L122.359 221.362M-92.3821 406.538L-120.212 282.038M23.2515 225.673L122.36 179.463L164.21 185.409L122.359 221.362M23.2515 225.673L122.359 221.362M23.2515 225.673L-52.3828 245.038L-141.934 179.463M84.1141 303.862L122.359 221.362M-141.934 179.463L-120.882 279.038L-120.212 282.038M-141.934 179.463L-177.384 320.538L-120.212 282.038" stroke="url(#paint7_radial_3010_2463)" stroke-width="3.4242"/>
</g>
<g opacity="0.41">
<path d="M360.12 304.038L284.876 361.538L256.376 234.038L235.324 320.538L181.12 227.538L256.376 234.038L400.509 180.673L383.12 245.538L419.12 251.538L360.12 304.038Z" fill="url(#paint8_linear_3010_2463)" fill-opacity="0.11"/>
<path d="M284.876 361.538L360.12 304.038L419.12 251.538L383.12 245.538M284.876 361.538L400.509 180.673M284.876 361.538L383.12 245.538M284.876 361.538L256.376 234.038M400.509 180.673L383.12 245.538M400.509 180.673L256.376 234.038M256.376 234.038L181.12 227.538L235.324 320.538L256.376 234.038ZM256.376 234.038L263.621 111.538" stroke="url(#paint9_radial_3010_2463)" stroke-width="3.4242"/>
</g>
<path d="M972.496 405.538L884.996 339.538V267.538H2183V382.538L2126 320.038L2000 374.538L1949.5 320.038L1879.5 359.538L1865.5 405.538L1716.5 350.538L1630 382.538V339.538L1539 320.038L1486.5 367.038L1368 307.038L1338.5 350.538L1331 400.038L1219.5 374.538L1188.5 320.038L1144 339.538L1111 374.538L1042.5 339.538L972.496 405.538Z" fill="url(#paint10_linear_3010_2463)"/>
<mask id="mask1_3010_2463" style="mask-type:alpha" maskUnits="userSpaceOnUse" x="877" y="224" width="1306" height="182">
<path d="M972.496 405.538L884.996 339.538L877.496 224.038H2175.5L2183 382.538L2126 320.038L2000 374.538L1949.5 320.038L1879.5 359.538L1865.5 405.538L1716.5 350.538L1630 382.538V339.538L1539 320.038L1486.5 367.038L1368 307.038L1338.5 350.538L1331 400.038L1219.5 374.538L1188.5 320.038L1144 339.538L1111 374.538L1042.5 339.538L972.496 405.538Z" fill="url(#paint11_linear_3010_2463)"/>
</mask>
<g mask="url(#mask1_3010_2463)">
<g style="mix-blend-mode:multiply">
<path d="M879.942 -733.145L1149.42 -343.637L2270.5 -29.9617L2196.55 406.538L890.496 406.538L590.658 98.6306L879.942 -733.145Z" fill="url(#paint12_linear_3010_2463)"/>
</g>
</g>
<path opacity="0.72" d="M2183 267.538V382.538L2126 320.038L2000 374.538L1949.5 320.038L1879.5 359.538L1865.5 405.538L1716.5 350.538L1630 382.538V339.538L1539 320.038L1486.5 367.038L1368 307.038L1338.5 350.538L1331 400.038L1219.5 374.538L1188.5 320.038L1144 339.538L1111 374.538L1042.5 339.538L972.496 405.538L884.996 339.538V267.538" stroke="url(#paint13_radial_3010_2463)" stroke-width="3.42"/>
<g opacity="0.41">
<path d="M1058.3 199.863L967.693 203.288L967.693 283.022L895.54 256.363C919.591 298.757 967.693 386.971 967.693 400.668L967.693 283.022L1045 340.04L1109.5 371.54L1144.78 340.04L1354 248.039L1373.46 212.093L1222 248.039L1061.83 125.509L1058.3 199.863Z" fill="url(#paint14_linear_3010_2463)" fill-opacity="0.11"/>
<path d="M1109.5 371.54L1045 340.04M1109.5 371.54L1144.78 340.04M1109.5 371.54L1088.5 305.54M1075.8 23.0279L1061.83 125.509M1058.3 199.863L967.693 203.288M1058.3 199.863L1045 340.04M1058.3 199.863L1222 248.039M1058.3 199.863L1061.83 125.509M967.693 203.288L895.54 23.0279M967.693 203.288L967.693 283.022M967.693 400.668L802.598 267.858L648.998 203.288M967.693 400.668L715.281 144.587M967.693 400.668C967.693 386.971 919.591 298.757 895.54 256.363L967.693 283.022M967.693 400.668L967.693 283.022M967.693 283.022L1045 340.04M1045 340.04L1088.5 305.54M1144.78 340.04L1088.5 305.54M1144.78 340.04L1354 248.039M1088.5 305.54L1222 248.039M1222 248.039L1061.83 125.509M1222 248.039L1187 99.0395M1222 248.039L1373.46 212.093L1354 248.039M1218.5 371.54L1354 248.039M1354 248.039L1339 348.04M1354 248.039L1369.5 308.54" stroke="url(#paint15_radial_3010_2463)" stroke-width="3.4242"/>
</g>
<g opacity="0.41">
<path d="M1718.5 349.538L1866.5 406.538L1894.33 282.038L1951.5 320.538L1916.05 179.464L1826.5 245.038L1750.87 225.673L1651.76 179.464L1609.91 185.409L1651.76 221.362L1690 303.862L1718.5 349.538Z" fill="url(#paint16_linear_3010_2463)" fill-opacity="0.11"/>
<path d="M1587.93 228.187L1690 303.862M1866.5 406.538L1718.5 349.538L1690 303.862M1866.5 406.538L1750.87 225.673M1866.5 406.538L1651.76 221.362M1866.5 406.538L1894.33 282.038M1750.87 225.673L1651.76 179.464L1609.91 185.409L1651.76 221.362M1750.87 225.673L1651.76 221.362M1750.87 225.673L1826.5 245.038L1916.05 179.464M1690 303.862L1651.76 221.362M1916.05 179.464L1895 279.038L1894.33 282.038M1916.05 179.464L1951.5 320.538L1894.33 282.038" stroke="url(#paint17_radial_3010_2463)" stroke-width="3.4242"/>
</g>
<g opacity="0.41">
<path d="M1414 304.038L1489.24 361.538L1517.74 234.038L1538.79 320.538L1593 227.538L1517.74 234.038L1373.61 180.673L1391 245.538L1355 251.538L1414 304.038Z" fill="url(#paint18_linear_3010_2463)" fill-opacity="0.11"/>
<path d="M1489.24 361.538L1414 304.038L1355 251.538L1391 245.538M1489.24 361.538L1373.61 180.673M1489.24 361.538L1391 245.538M1489.24 361.538L1517.74 234.038M1373.61 180.673L1391 245.538M1373.61 180.673L1517.74 234.038M1517.74 234.038L1593 227.538L1538.79 320.538L1517.74 234.038ZM1517.74 234.038L1510.5 111.538" stroke="url(#paint19_radial_3010_2463)" stroke-width="3.4242"/>
</g>
<g opacity="0.41">
<path d="M1916.5 178.038L2008.26 292.906L2128.51 319.038L2173.01 253.224L2149.01 125.538L2091.87 97.5382L2050.07 195.222L1927.5 97.5382L1916.5 178.038Z" fill="url(#paint20_linear_3010_2463)" fill-opacity="0.48"/>
<path d="M2008.26 292.906L1916.5 178.038L1927.5 97.5382M2008.26 292.906L2128.51 319.038M2008.26 292.906L2117.62 253.224M2008.26 292.906L2001.5 376.038L1954 322.038M2008.26 292.906L2050.07 195.222M2128.51 319.038L2091.87 97.5382M2128.51 319.038L2173.01 253.224L2149.01 125.538M2091.87 97.5382L2050.07 195.222M2091.87 97.5382L2149.01 125.538M2149.01 125.538L2173 107.538M2149.01 125.538L2117.62 0.0382112M2050.07 195.222L1927.5 97.5382M1927.5 97.5382L1896.5 -23.9617" stroke="url(#paint21_radial_3010_2463)" stroke-width="3.4242"/>
</g>
</g>
<defs>
<linearGradient id="paint0_linear_3010_2463" x1="889.121" y1="336.538" x2="-408.879" y2="336.538" gradientUnits="userSpaceOnUse">
<stop stop-color="#35005C"/>
<stop offset="1" stop-color="#490080"/>
</linearGradient>
<linearGradient id="paint1_linear_3010_2463" x1="889.121" y1="336.538" x2="-408.879" y2="336.538" gradientUnits="userSpaceOnUse">
<stop stop-color="#35005C"/>
<stop offset="1" stop-color="#490080"/>
</linearGradient>
<linearGradient id="paint2_linear_3010_2463" x1="212.121" y1="211.038" x2="95.6211" y2="-104.962" gradientUnits="userSpaceOnUse">
<stop stop-color="#090017"/>
<stop offset="1" stop-color="#21023C" stop-opacity="0.5"/>
</linearGradient>
<radialGradient id="paint3_radial_3010_2463" cx="0" cy="0" r="1" gradientUnits="userSpaceOnUse" gradientTransform="translate(439.621 405.538) rotate(180) scale(817 410.014)">
<stop stop-color="#825096"/>
<stop offset="1" stop-color="#969696" stop-opacity="0"/>
</radialGradient>
<linearGradient id="paint4_linear_3010_2463" x1="553.037" y1="74.1477" x2="674.351" y2="363.248" gradientUnits="userSpaceOnUse">
<stop stop-color="#787878"/>
<stop offset="1" stop-color="#FF00FF"/>
</linearGradient>
<radialGradient id="paint5_radial_3010_2463" cx="0" cy="0" r="1" gradientUnits="userSpaceOnUse" gradientTransform="translate(685.121 448.041) rotate(-97.2403) scale(430.893 458.873)">
<stop stop-color="white"/>
<stop offset="1" stop-color="#999999" stop-opacity="0"/>
</radialGradient>
<linearGradient id="paint6_linear_3010_2463" x1="284.468" y1="616.598" x2="14.8347" y2="456.616" gradientUnits="userSpaceOnUse">
<stop stop-color="#787878"/>
<stop offset="1" stop-color="#FF00FF"/>
</linearGradient>
<radialGradient id="paint7_radial_3010_2463" cx="0" cy="0" r="1" gradientUnits="userSpaceOnUse" gradientTransform="translate(-99.0659 433.584) rotate(37.6563) scale(445.826 474.776)">
<stop stop-color="white"/>
<stop offset="1" stop-color="#999999" stop-opacity="0"/>
</radialGradient>
<linearGradient id="paint8_linear_3010_2463" x1="661.725" y1="571.598" x2="392.093" y2="411.616" gradientUnits="userSpaceOnUse">
<stop stop-color="#787878"/>
<stop offset="1" stop-color="#FF00FF"/>
</linearGradient>
<radialGradient id="paint9_radial_3010_2463" cx="0" cy="0" r="1" gradientUnits="userSpaceOnUse" gradientTransform="translate(314.121 384.038) rotate(-66.3082) scale(236.426 251.778)">
<stop stop-color="white"/>
<stop offset="1" stop-color="#999999" stop-opacity="0"/>
</radialGradient>
<linearGradient id="paint10_linear_3010_2463" x1="884.996" y1="336.538" x2="2183" y2="336.538" gradientUnits="userSpaceOnUse">
<stop stop-color="#35005C"/>
<stop offset="1" stop-color="#490080"/>
</linearGradient>
<linearGradient id="paint11_linear_3010_2463" x1="884.996" y1="336.538" x2="2183" y2="336.538" gradientUnits="userSpaceOnUse">
<stop stop-color="#35005C"/>
<stop offset="1" stop-color="#490080"/>
</linearGradient>
<linearGradient id="paint12_linear_3010_2463" x1="1562" y1="211.038" x2="1678.5" y2="-104.962" gradientUnits="userSpaceOnUse">
<stop stop-color="#090017"/>
<stop offset="1" stop-color="#21023C" stop-opacity="0.5"/>
</linearGradient>
<radialGradient id="paint13_radial_3010_2463" cx="0" cy="0" r="1" gradientUnits="userSpaceOnUse" gradientTransform="translate(1334.5 405.538) scale(817 410.014)">
<stop stop-color="#825096"/>
<stop offset="1" stop-color="#969696" stop-opacity="0"/>
</radialGradient>
<linearGradient id="paint14_linear_3010_2463" x1="1221.08" y1="74.1462" x2="1099.77" y2="363.247" gradientUnits="userSpaceOnUse">
<stop stop-color="#787878"/>
<stop offset="1" stop-color="#FF00FF"/>
</linearGradient>
<radialGradient id="paint15_radial_3010_2463" cx="0" cy="0" r="1" gradientUnits="userSpaceOnUse" gradientTransform="translate(1089 448.04) rotate(-82.7597) scale(430.893 458.873)">
<stop stop-color="white"/>
<stop offset="1" stop-color="#999999" stop-opacity="0"/>
</radialGradient>
<linearGradient id="paint16_linear_3010_2463" x1="1489.65" y1="616.599" x2="1759.28" y2="456.617" gradientUnits="userSpaceOnUse">
<stop stop-color="#787878"/>
<stop offset="1" stop-color="#FF00FF"/>
</linearGradient>
<radialGradient id="paint17_radial_3010_2463" cx="0" cy="0" r="1" gradientUnits="userSpaceOnUse" gradientTransform="translate(1873.18 433.584) rotate(142.344) scale(445.826 474.776)">
<stop stop-color="white"/>
<stop offset="1" stop-color="#999999" stop-opacity="0"/>
</radialGradient>
<linearGradient id="paint18_linear_3010_2463" x1="1112.39" y1="571.598" x2="1382.02" y2="411.616" gradientUnits="userSpaceOnUse">
<stop stop-color="#787878"/>
<stop offset="1" stop-color="#FF00FF"/>
</linearGradient>
<radialGradient id="paint19_radial_3010_2463" cx="0" cy="0" r="1" gradientUnits="userSpaceOnUse" gradientTransform="translate(1460 384.038) rotate(-113.692) scale(236.426 251.778)">
<stop stop-color="white"/>
<stop offset="1" stop-color="#999999" stop-opacity="0"/>
</radialGradient>
<linearGradient id="paint20_linear_3010_2463" x1="2055.91" y1="-10.4029" x2="2101" y2="367.038" gradientUnits="userSpaceOnUse">
<stop stop-color="#737373" stop-opacity="0"/>
<stop offset="1" stop-color="#670450"/>
</linearGradient>
<radialGradient id="paint21_radial_3010_2463" cx="0" cy="0" r="1" gradientUnits="userSpaceOnUse" gradientTransform="translate(1795.52 419.889) rotate(115.393) scale(445.826 474.776)">
<stop stop-color="white"/>
<stop offset="1" stop-color="#999999" stop-opacity="0"/>
</radialGradient>
<clipPath id="clip0_3010_2463">
<rect width="2173" height="415" fill="white"/>
</clipPath>
</defs>
</svg>
