<svg width="48" height="50" viewBox="0 0 48 50" fill="none" xmlns="http://www.w3.org/2000/svg">
<g filter="url(#filter0_d_1178_2279)">
<path d="M35.625 8.49994H9.375C7.30393 8.49994 5.625 10.1789 5.625 12.2499V20H39.375V12.2499C39.375 10.1789 37.6961 8.49994 35.625 8.49994Z" fill="white"/>
<path d="M35.625 42.2499C37.6961 42.2499 39.375 40.571 39.375 38.4999V20H5.625V38.4999C5.625 40.571 7.30393 42.2499 9.375 42.2499H35.625Z" fill="white"/>
<path d="M15 4.75V12.25V4.75Z" fill="white"/>
<path d="M30 4.74994V12.2499V4.74994Z" fill="white"/>
<path d="M5.625 20V38.4999C5.625 40.571 7.30393 42.2499 9.375 42.2499H35.625C37.6961 42.2499 39.375 40.571 39.375 38.4999V20M5.625 20V12.2499C5.625 10.1789 7.30393 8.49994 9.375 8.49994H35.625C37.6961 8.49994 39.375 10.1789 39.375 12.2499V20M5.625 20H39.375M15 4.75V12.25M30 4.74994V12.2499" stroke="white" stroke-width="8" stroke-linecap="round" stroke-linejoin="round"/>
</g>
<path d="M35.625 8.49994L9.375 8.49994C7.30393 8.49994 5.625 10.1789 5.625 12.2499L5.625 20L39.375 20V12.2499C39.375 10.1789 37.6961 8.49994 35.625 8.49994Z" fill="url(#paint0_linear_1178_2279)"/>
<path d="M35.625 42.2499C37.6961 42.2499 39.375 40.571 39.375 38.4999L39.375 20L5.625 20L5.625 38.4999C5.625 40.571 7.30393 42.2499 9.375 42.2499L35.625 42.2499Z" fill="white"/>
<path d="M5.625 20L5.625 38.4999C5.625 40.571 7.30393 42.2499 9.375 42.2499L35.625 42.2499C37.6961 42.2499 39.375 40.571 39.375 38.4999L39.375 20M5.625 20L5.625 12.2499C5.625 10.1789 7.30393 8.49994 9.375 8.49994L35.625 8.49994C37.6961 8.49994 39.375 10.1789 39.375 12.2499V20M5.625 20L39.375 20" stroke="#62009B" stroke-width="3.25" stroke-linecap="round" stroke-linejoin="round"/>
<path d="M5.625 19.7499L39.375 19.7499L5.625 19.7499Z" fill="url(#paint1_linear_1178_2279)"/>
<path d="M5.625 19.7499L39.375 19.7499" stroke="#62009B" stroke-width="3.25" stroke-linecap="round" stroke-linejoin="round"/>
<path d="M15 4.75L15 12.25L15 4.75Z" fill="url(#paint2_linear_1178_2279)"/>
<path d="M15 4.75L15 12.25" stroke="#62009B" stroke-width="3.25" stroke-linecap="round" stroke-linejoin="round"/>
<path d="M30 4.74994V12.2499V4.74994Z" fill="url(#paint3_linear_1178_2279)"/>
<path d="M30 4.74994V12.2499" stroke="#62009B" stroke-width="3.25" stroke-linecap="round" stroke-linejoin="round"/>
<defs>
<filter id="filter0_d_1178_2279" x="1.625" y="0.749939" width="44.75" height="48.5" filterUnits="userSpaceOnUse" color-interpolation-filters="sRGB">
<feFlood flood-opacity="0" result="BackgroundImageFix"/>
<feColorMatrix in="SourceAlpha" type="matrix" values="0 0 0 0 0 0 0 0 0 0 0 0 0 0 0 0 0 0 127 0" result="hardAlpha"/>
<feOffset dx="3" dy="3"/>
<feComposite in2="hardAlpha" operator="out"/>
<feColorMatrix type="matrix" values="0 0 0 0 0 0 0 0 0 0 0 0 0 0 0 0 0 0 0.38 0"/>
<feBlend mode="normal" in2="BackgroundImageFix" result="effect1_dropShadow_1178_2279"/>
<feBlend mode="normal" in="SourceGraphic" in2="effect1_dropShadow_1178_2279" result="shape"/>
</filter>
<linearGradient id="paint0_linear_1178_2279" x1="3.12048" y1="24.5775" x2="57.0157" y2="31.421" gradientUnits="userSpaceOnUse">
<stop stop-color="#570089"/>
<stop offset="0.355421" stop-color="#A200FF"/>
<stop offset="1" stop-color="#210035"/>
</linearGradient>
<linearGradient id="paint1_linear_1178_2279" x1="3.12048" y1="20.2263" x2="5.94839" y2="32.3454" gradientUnits="userSpaceOnUse">
<stop stop-color="#570089"/>
<stop offset="0.355421" stop-color="#A200FF"/>
<stop offset="1" stop-color="#210035"/>
</linearGradient>
<linearGradient id="paint2_linear_1178_2279" x1="14.9258" y1="8.32279" x2="16.548" y2="8.35025" gradientUnits="userSpaceOnUse">
<stop stop-color="#570089"/>
<stop offset="0.355421" stop-color="#A200FF"/>
<stop offset="1" stop-color="#210035"/>
</linearGradient>
<linearGradient id="paint3_linear_1178_2279" x1="29.9258" y1="8.32273" x2="31.548" y2="8.35019" gradientUnits="userSpaceOnUse">
<stop stop-color="#570089"/>
<stop offset="0.355421" stop-color="#A200FF"/>
<stop offset="1" stop-color="#210035"/>
</linearGradient>
</defs>
</svg>
