<svg width="195" height="201" viewBox="0 0 195 201" fill="none" xmlns="http://www.w3.org/2000/svg">
<path d="M45.3465 37.1041C46.3671 37.1198 47.6918 37.4149 48.8865 38.1861C50.0789 38.9559 51.1388 40.2105 51.5233 42.0027L51.5913 42.3692L51.5937 42.3859L51.5961 42.4035L51.6123 42.5134L51.6147 42.5291L51.6162 42.5448L51.7065 43.2344C52.1654 46.6991 52.7545 50.4808 53.4523 53.6499C53.8264 55.3486 54.207 56.7555 54.5755 57.7964C54.7285 58.2288 54.8615 58.5429 54.9643 58.7579C55.1728 58.8736 55.4991 59.0392 55.9735 59.2411C56.9975 59.6769 58.373 60.151 60.0254 60.6416C63.3176 61.619 67.2984 62.5418 70.8939 63.2945C73.0085 63.7373 74.3452 65.0484 75.0684 66.4447C75.7398 67.7411 75.8924 69.1014 75.8363 70.0323C75.7802 70.9638 75.4681 72.2865 74.6562 73.4872C73.7842 74.7767 72.3231 75.9175 70.1995 76.1328C66.5213 76.5057 62.5338 77.0679 59.3345 77.8815C57.7252 78.2908 56.5048 78.7171 55.6857 79.1185C55.4213 79.2481 55.2452 79.3549 55.135 79.4271C54.5648 80.6033 53.7487 82.9776 52.8299 86.2623C51.8734 89.6816 50.942 93.5687 50.1796 96.9501C49.7293 98.9468 48.4996 100.261 47.1368 100.996C45.8614 101.684 44.4889 101.864 43.4519 101.785C42.4163 101.707 41.0958 101.323 39.9428 100.46C38.7134 99.5395 37.6936 98.0739 37.5272 96.0532C37.2533 92.7259 36.8337 88.9658 36.2056 85.6654C35.8805 83.9574 35.524 82.5139 35.1591 81.3756C34.7941 80.2371 34.4656 79.5505 34.2412 79.2118C34.2209 79.1916 34.1785 79.151 34.1062 79.0924C33.9445 78.9615 33.6715 78.7694 33.2468 78.5338C32.4101 78.0696 31.2486 77.5807 29.7793 77.0953C26.8433 76.1255 23.2194 75.3463 19.7103 74.7511C17.4426 74.3666 16.0379 72.8739 15.3439 71.6166C14.6779 70.4097 14.4747 69.1539 14.4839 68.1337C14.4931 67.1158 14.7184 65.855 15.4186 64.6508L15.5646 64.4119C16.3389 63.2091 17.7593 61.9037 19.9137 61.6135C23.6227 61.1141 27.5317 60.4835 30.6935 59.744C32.2824 59.3724 33.5566 59.0022 34.4716 58.6536C34.759 58.5442 34.9768 58.4473 35.1368 58.3711C35.2457 58.1493 35.3951 57.816 35.5706 57.3447C35.9618 56.2946 36.3727 54.8972 36.7855 53.2295C37.6081 49.906 38.3371 45.9197 38.9111 42.3527L38.9181 42.3158L38.937 42.2069L38.9395 42.1894L38.943 42.172C39.3161 40.1947 40.4789 38.857 41.7752 38.0757C42.9929 37.3419 44.3261 37.0884 45.3465 37.1041ZM45.1096 52.5601C44.9175 53.4426 44.7204 54.3089 44.514 55.1427C44.0645 56.9586 43.57 58.6783 43.0313 60.1243C42.5261 61.4805 41.8672 62.9223 40.962 63.9047L40.9488 63.92L40.9337 63.9351L40.8873 63.9845L40.8752 63.9969L40.863 64.0102C39.9102 64.9869 38.493 65.6484 37.2068 66.1311C35.8243 66.65 34.1744 67.109 32.4231 67.5162C31.0968 67.8246 29.6769 68.1101 28.2202 68.3748C29.6193 68.7233 30.9878 69.1094 32.2766 69.5351C34.0195 70.1109 35.6858 70.7824 37.1093 71.5721C38.4981 72.3427 39.8595 73.3366 40.7662 74.6479C42.3579 76.9499 43.3496 80.6171 44.0271 84.1766C44.1852 85.0073 44.3282 85.8576 44.4616 86.7154C44.6764 85.8934 44.8943 85.08 45.115 84.2869C46.0832 80.8084 47.1615 77.4507 48.2289 75.4432L48.2412 75.4221L48.3334 75.251L48.3406 75.2394C49.1882 73.7162 50.7003 72.7046 52.1069 72.0061C53.5836 71.2728 55.3501 70.6885 57.1874 70.2129C58.5438 69.8617 59.9914 69.5562 61.4685 69.2912C60.2228 68.9722 59.0012 68.6416 57.8437 68.2994C56.0561 67.7708 54.3689 67.2042 52.9554 66.6095C51.6269 66.0505 50.2323 65.3441 49.2927 64.4275L49.2718 64.4073L49.2206 64.3559L49.1941 64.3297C48.2166 63.3271 47.5548 61.8223 47.0701 60.4526C46.5482 58.9779 46.0855 57.2179 45.6768 55.3619C45.478 54.4589 45.289 53.519 45.1096 52.5601Z" fill="black" stroke="white" stroke-width="5.36962"/>
<mask id="path-2-outside-1_1525_2622" maskUnits="userSpaceOnUse" x="21.5465" y="6.29774" width="177.608" height="191.564" fill="black">
<rect fill="white" x="21.5465" y="6.29774" width="177.608" height="191.564"/>
<path d="M103.442 27.288C104.421 26.7776 105.49 26.3083 106.627 25.922C110.378 24.648 115.309 24.1408 120.297 26.5534C125 28.8279 127.648 32.3012 129.27 34.9973C129.594 35.5364 129.935 36.1514 130.231 36.6984C131.097 36.4589 132.178 36.1748 133.339 35.9454C136.815 35.2586 141.676 34.9076 146.689 37.2888C151.87 39.75 154.841 44.2997 156.275 48.4197C157 50.5009 157.386 52.6088 157.453 54.526C157.493 55.6764 157.425 56.949 157.14 58.1822C157.137 58.216 157.134 58.248 157.131 58.2778C157.065 58.9082 156.924 59.5344 156.756 60.1139C156.417 61.2837 155.869 62.596 155.132 63.9416C153.657 66.6367 151.263 69.7617 147.76 72.339L147.76 72.3391C146.924 72.9552 146.015 73.5481 145.055 74.1172C145.513 74.14 145.97 74.1696 146.423 74.2064L146.424 74.2065C151.466 74.6175 155.29 76.0762 158.203 78.1044C161.006 80.0568 162.71 82.3611 163.818 84.171L163.923 84.3446L163.924 84.3461C164.076 84.5993 164.217 84.8578 164.346 85.1204C166.374 88.8318 167.29 93.283 166.88 97.5907L166.88 97.5908C166.465 101.991 164.368 104.929 162.502 106.864C161.965 107.42 161.393 107.944 160.938 108.351C161.138 109.04 161.378 109.939 161.544 110.915C162.114 114.266 161.869 118.538 158.885 123.484L158.884 123.485L158.883 123.487C155.981 128.288 150.343 130.974 145.39 132.036C142.805 132.59 140.098 132.777 137.56 132.495C135.669 132.284 133.68 131.79 131.886 130.835C130.722 130.361 129.645 129.821 128.644 129.22C132.157 134.141 136.801 137.698 142.234 140.578C145.803 142.468 148.702 142.887 151.282 143.297C152.406 143.476 154.18 143.737 155.684 144.449C157.652 145.38 159.191 147.053 159.738 149.526C160.217 151.693 159.753 153.768 159.188 155.319C158.6 156.934 157.728 158.455 156.834 159.744C155.933 161.044 154.915 162.242 153.929 163.203C153.109 164.002 151.797 165.157 150.294 165.692C147.053 166.846 143.007 166.626 139.997 163.416C140.012 163.432 139.932 163.348 139.694 163.153C139.474 162.972 139.186 162.75 138.831 162.491C138.121 161.973 137.241 161.375 136.301 160.766C134.399 159.532 132.457 158.383 131.483 157.871L131.166 157.705L130.88 157.493C123.228 151.824 119.044 145.982 113.063 134.35C111.988 139.207 109.675 144.021 105.244 147.344C103.36 148.836 100.832 150.227 98.1474 151.174C94.1566 152.582 88.8817 153.344 83.7327 151.284L83.7328 151.284C78.3805 149.148 75.3342 144.811 73.6869 141.478C73.3153 140.726 73.0016 140 72.7382 139.324C72.491 139.326 72.2363 139.323 71.9746 139.314C68.7208 139.2 64.5333 138.151 60.2938 134.795L60.2924 134.794L60.2913 134.793C55.1634 130.728 53.3648 125.468 53.2449 120.889C53.1696 118.018 53.7519 115.232 54.6839 113.032C55.3541 111.151 57.0864 107.137 61.5177 103.072C58.9569 103.224 56.316 103.027 53.867 102.171L53.8621 102.169C53.0203 101.874 52.236 101.552 51.5066 101.214L51.3508 101.375L49.8935 100.391C46.4318 98.4566 44.4876 96.2067 43.6487 94.9168L43.6484 94.917C43.645 94.9117 43.6416 94.9063 43.6381 94.901C43.6377 94.9004 43.6373 94.8998 43.6369 94.8993L43.637 94.899C43.5752 94.8037 43.5156 94.7061 43.4585 94.6066C43.1963 94.2594 42.9347 93.8924 42.6779 93.5055C40.2176 89.7982 38.168 84.2051 40.0252 77.2193C41.6369 71.1391 45.566 67.4678 48.9084 65.3905C49.7028 64.8968 50.4738 64.4865 51.1882 64.1469C51.1397 63.6928 51.0969 63.2114 51.0634 62.7087C50.8643 59.7183 50.9501 55.3515 52.7262 51.4968L52.7264 51.4965C55.7817 44.867 62.804 40.1827 70.9638 40.6347L71.1567 40.6463L71.1579 40.6464C71.5134 40.6697 71.8574 40.7154 72.1899 40.7812C76.723 41.2434 82.3205 43.0461 87.7705 48.3328C88.6951 49.2297 89.568 50.1676 90.3904 51.1328C90.2919 49.6354 90.2997 48.2458 90.3994 46.9444C90.7307 42.6231 92.0515 39.6121 93.2681 37.2531C94.6339 34.6045 96.659 32.4205 98.3218 30.8983C99.9867 29.3741 101.588 28.2439 102.43 27.7552L102.439 27.7494L102.449 27.7439C102.776 27.5563 103.109 27.4069 103.442 27.288ZM118.282 30.7205C113.417 28.3675 108.511 29.7801 105.233 31.5792C105.048 31.622 104.887 31.6816 104.754 31.7582C103.737 32.3488 99.4109 35.4404 97.3822 39.3749C95.2465 43.516 93.2474 48.92 97.2555 61.703C99.6505 69.3449 102.848 71.8861 99.3942 73.4042C96.5724 74.6371 96.7068 73.2441 94.9091 68.1929C93.1113 63.1417 89.6743 56.6285 84.5474 51.6552C79.8488 47.0975 75.1596 45.6894 71.4563 45.3606C71.2658 45.3114 71.0657 45.2793 70.8555 45.2656C64.5983 44.8576 59.2386 48.4254 56.9304 53.4339C54.3542 59.025 56.3633 67.1482 56.3686 67.1696C56.3524 67.173 46.9453 69.171 44.4988 78.4086C42.8573 84.5829 45.1195 89.2346 47.3635 92.0905C47.4177 92.2063 47.4712 92.3051 47.5234 92.385C48.1119 93.2945 50.3902 96.0451 55.3948 97.8012C61.9771 100.103 72.1097 96.0514 77.0754 94.284C82.0412 92.5167 87.096 90.3504 88.0704 93.8657L88.0913 93.9476C88.8965 97.3809 79.4896 97.3851 70.4482 102.37L70.2359 102.488C61.9965 107.106 59.6404 112.849 58.9931 114.73C57.3947 118.396 56.5593 125.928 63.1667 131.165C69.9508 136.535 76.0198 134.183 76.0198 134.183C76.0198 134.183 77.7218 143.9 85.4492 146.985C91.869 149.556 99.1603 146.287 102.435 143.664C109.747 138.203 110.071 126.825 108.498 117.632C107.339 110.862 106.081 103.285 106.731 98.9704C107.248 100.535 107.809 102.5 108.278 104.775C109.518 110.794 111.174 120.552 117.078 132.035C122.97 143.522 126.762 148.681 133.635 153.773C135.929 154.978 141.92 158.698 143.374 160.25C144.783 161.753 146.666 162.011 148.559 161.393L148.742 161.331C150.696 160.635 156.066 154.362 155.218 150.525C154.376 146.718 148.769 149.191 140.268 144.774L140.067 144.668C132.163 140.479 125.418 134.746 121.258 125.626C117.108 116.503 115.142 106.988 114.449 103.216C114.24 102.075 113.895 100.423 113.517 98.6757C115.667 101.714 117.87 106.461 120.113 110.983C124.034 118.896 127.253 124.04 133.864 126.641C139.308 129.747 150.979 127.334 154.827 121.244L154.921 121.092C159.636 113.278 155.339 108.575 156 106.884C156.662 105.192 161.702 103.194 162.272 97.1558C162.608 93.63 161.821 90.116 160.245 87.2752C160.157 87.0869 160.062 86.9055 159.957 86.7319C158.132 83.6998 154.685 79.5243 146.048 78.8202C137.103 78.0936 126.693 80.4871 122.505 82.0738C118.317 83.6605 115.974 84.8425 115.212 82.972C114.45 81.1016 114.844 80.6975 119.168 79.255C123.491 77.8126 137.875 73.8727 145.014 68.6125C150.361 64.6802 152.574 59.1761 152.543 57.4729C153.647 53.7368 151.738 44.8121 144.703 41.4701C137.203 37.9071 129.802 42.2978 128.171 41.8072C126.53 41.3204 125.461 34.1931 118.282 30.7205ZM128.246 37.227C128.135 37.2373 128.12 37.2498 128.234 37.2296C128.238 37.2289 128.242 37.2278 128.246 37.227Z"/>
</mask>
<path d="M103.442 27.288C104.421 26.7776 105.49 26.3083 106.627 25.922C110.378 24.648 115.309 24.1408 120.297 26.5534C125 28.8279 127.648 32.3012 129.27 34.9973C129.594 35.5364 129.935 36.1514 130.231 36.6984C131.097 36.4589 132.178 36.1748 133.339 35.9454C136.815 35.2586 141.676 34.9076 146.689 37.2888C151.87 39.75 154.841 44.2997 156.275 48.4197C157 50.5009 157.386 52.6088 157.453 54.526C157.493 55.6764 157.425 56.949 157.14 58.1822C157.137 58.216 157.134 58.248 157.131 58.2778C157.065 58.9082 156.924 59.5344 156.756 60.1139C156.417 61.2837 155.869 62.596 155.132 63.9416C153.657 66.6367 151.263 69.7617 147.76 72.339L147.76 72.3391C146.924 72.9552 146.015 73.5481 145.055 74.1172C145.513 74.14 145.97 74.1696 146.423 74.2064L146.424 74.2065C151.466 74.6175 155.29 76.0762 158.203 78.1044C161.006 80.0568 162.71 82.3611 163.818 84.171L163.923 84.3446L163.924 84.3461C164.076 84.5993 164.217 84.8578 164.346 85.1204C166.374 88.8318 167.29 93.283 166.88 97.5907L166.88 97.5908C166.465 101.991 164.368 104.929 162.502 106.864C161.965 107.42 161.393 107.944 160.938 108.351C161.138 109.04 161.378 109.939 161.544 110.915C162.114 114.266 161.869 118.538 158.885 123.484L158.884 123.485L158.883 123.487C155.981 128.288 150.343 130.974 145.39 132.036C142.805 132.59 140.098 132.777 137.56 132.495C135.669 132.284 133.68 131.79 131.886 130.835C130.722 130.361 129.645 129.821 128.644 129.22C132.157 134.141 136.801 137.698 142.234 140.578C145.803 142.468 148.702 142.887 151.282 143.297C152.406 143.476 154.18 143.737 155.684 144.449C157.652 145.38 159.191 147.053 159.738 149.526C160.217 151.693 159.753 153.768 159.188 155.319C158.6 156.934 157.728 158.455 156.834 159.744C155.933 161.044 154.915 162.242 153.929 163.203C153.109 164.002 151.797 165.157 150.294 165.692C147.053 166.846 143.007 166.626 139.997 163.416C140.012 163.432 139.932 163.348 139.694 163.153C139.474 162.972 139.186 162.75 138.831 162.491C138.121 161.973 137.241 161.375 136.301 160.766C134.399 159.532 132.457 158.383 131.483 157.871L131.166 157.705L130.88 157.493C123.228 151.824 119.044 145.982 113.063 134.35C111.988 139.207 109.675 144.021 105.244 147.344C103.36 148.836 100.832 150.227 98.1474 151.174C94.1566 152.582 88.8817 153.344 83.7327 151.284L83.7328 151.284C78.3805 149.148 75.3342 144.811 73.6869 141.478C73.3153 140.726 73.0016 140 72.7382 139.324C72.491 139.326 72.2363 139.323 71.9746 139.314C68.7208 139.2 64.5333 138.151 60.2938 134.795L60.2924 134.794L60.2913 134.793C55.1634 130.728 53.3648 125.468 53.2449 120.889C53.1696 118.018 53.7519 115.232 54.6839 113.032C55.3541 111.151 57.0864 107.137 61.5177 103.072C58.9569 103.224 56.316 103.027 53.867 102.171L53.8621 102.169C53.0203 101.874 52.236 101.552 51.5066 101.214L51.3508 101.375L49.8935 100.391C46.4318 98.4566 44.4876 96.2067 43.6487 94.9168L43.6484 94.917C43.645 94.9117 43.6416 94.9063 43.6381 94.901C43.6377 94.9004 43.6373 94.8998 43.6369 94.8993L43.637 94.899C43.5752 94.8037 43.5156 94.7061 43.4585 94.6066C43.1963 94.2594 42.9347 93.8924 42.6779 93.5055C40.2176 89.7982 38.168 84.2051 40.0252 77.2193C41.6369 71.1391 45.566 67.4678 48.9084 65.3905C49.7028 64.8968 50.4738 64.4865 51.1882 64.1469C51.1397 63.6928 51.0969 63.2114 51.0634 62.7087C50.8643 59.7183 50.9501 55.3515 52.7262 51.4968L52.7264 51.4965C55.7817 44.867 62.804 40.1827 70.9638 40.6347L71.1567 40.6463L71.1579 40.6464C71.5134 40.6697 71.8574 40.7154 72.1899 40.7812C76.723 41.2434 82.3205 43.0461 87.7705 48.3328C88.6951 49.2297 89.568 50.1676 90.3904 51.1328C90.2919 49.6354 90.2997 48.2458 90.3994 46.9444C90.7307 42.6231 92.0515 39.6121 93.2681 37.2531C94.6339 34.6045 96.659 32.4205 98.3218 30.8983C99.9867 29.3741 101.588 28.2439 102.43 27.7552L102.439 27.7494L102.449 27.7439C102.776 27.5563 103.109 27.4069 103.442 27.288ZM118.282 30.7205C113.417 28.3675 108.511 29.7801 105.233 31.5792C105.048 31.622 104.887 31.6816 104.754 31.7582C103.737 32.3488 99.4109 35.4404 97.3822 39.3749C95.2465 43.516 93.2474 48.92 97.2555 61.703C99.6505 69.3449 102.848 71.8861 99.3942 73.4042C96.5724 74.6371 96.7068 73.2441 94.9091 68.1929C93.1113 63.1417 89.6743 56.6285 84.5474 51.6552C79.8488 47.0975 75.1596 45.6894 71.4563 45.3606C71.2658 45.3114 71.0657 45.2793 70.8555 45.2656C64.5983 44.8576 59.2386 48.4254 56.9304 53.4339C54.3542 59.025 56.3633 67.1482 56.3686 67.1696C56.3524 67.173 46.9453 69.171 44.4988 78.4086C42.8573 84.5829 45.1195 89.2346 47.3635 92.0905C47.4177 92.2063 47.4712 92.3051 47.5234 92.385C48.1119 93.2945 50.3902 96.0451 55.3948 97.8012C61.9771 100.103 72.1097 96.0514 77.0754 94.284C82.0412 92.5167 87.096 90.3504 88.0704 93.8657L88.0913 93.9476C88.8965 97.3809 79.4896 97.3851 70.4482 102.37L70.2359 102.488C61.9965 107.106 59.6404 112.849 58.9931 114.73C57.3947 118.396 56.5593 125.928 63.1667 131.165C69.9508 136.535 76.0198 134.183 76.0198 134.183C76.0198 134.183 77.7218 143.9 85.4492 146.985C91.869 149.556 99.1603 146.287 102.435 143.664C109.747 138.203 110.071 126.825 108.498 117.632C107.339 110.862 106.081 103.285 106.731 98.9704C107.248 100.535 107.809 102.5 108.278 104.775C109.518 110.794 111.174 120.552 117.078 132.035C122.97 143.522 126.762 148.681 133.635 153.773C135.929 154.978 141.92 158.698 143.374 160.25C144.783 161.753 146.666 162.011 148.559 161.393L148.742 161.331C150.696 160.635 156.066 154.362 155.218 150.525C154.376 146.718 148.769 149.191 140.268 144.774L140.067 144.668C132.163 140.479 125.418 134.746 121.258 125.626C117.108 116.503 115.142 106.988 114.449 103.216C114.24 102.075 113.895 100.423 113.517 98.6757C115.667 101.714 117.87 106.461 120.113 110.983C124.034 118.896 127.253 124.04 133.864 126.641C139.308 129.747 150.979 127.334 154.827 121.244L154.921 121.092C159.636 113.278 155.339 108.575 156 106.884C156.662 105.192 161.702 103.194 162.272 97.1558C162.608 93.63 161.821 90.116 160.245 87.2752C160.157 87.0869 160.062 86.9055 159.957 86.7319C158.132 83.6998 154.685 79.5243 146.048 78.8202C137.103 78.0936 126.693 80.4871 122.505 82.0738C118.317 83.6605 115.974 84.8425 115.212 82.972C114.45 81.1016 114.844 80.6975 119.168 79.255C123.491 77.8126 137.875 73.8727 145.014 68.6125C150.361 64.6802 152.574 59.1761 152.543 57.4729C153.647 53.7368 151.738 44.8121 144.703 41.4701C137.203 37.9071 129.802 42.2978 128.171 41.8072C126.53 41.3204 125.461 34.1931 118.282 30.7205ZM128.246 37.227C128.135 37.2373 128.12 37.2498 128.234 37.2296C128.238 37.2289 128.242 37.2278 128.246 37.227Z" fill="black"/>
<path d="M103.442 27.288C104.421 26.7776 105.49 26.3083 106.627 25.922C110.378 24.648 115.309 24.1408 120.297 26.5534C125 28.8279 127.648 32.3012 129.27 34.9973C129.594 35.5364 129.935 36.1514 130.231 36.6984C131.097 36.4589 132.178 36.1748 133.339 35.9454C136.815 35.2586 141.676 34.9076 146.689 37.2888C151.87 39.75 154.841 44.2997 156.275 48.4197C157 50.5009 157.386 52.6088 157.453 54.526C157.493 55.6764 157.425 56.949 157.14 58.1822C157.137 58.216 157.134 58.248 157.131 58.2778C157.065 58.9082 156.924 59.5344 156.756 60.1139C156.417 61.2837 155.869 62.596 155.132 63.9416C153.657 66.6367 151.263 69.7617 147.76 72.339L147.76 72.3391C146.924 72.9552 146.015 73.5481 145.055 74.1172C145.513 74.14 145.97 74.1696 146.423 74.2064L146.424 74.2065C151.466 74.6175 155.29 76.0762 158.203 78.1044C161.006 80.0568 162.71 82.3611 163.818 84.171L163.923 84.3446L163.924 84.3461C164.076 84.5993 164.217 84.8578 164.346 85.1204C166.374 88.8318 167.29 93.283 166.88 97.5907L166.88 97.5908C166.465 101.991 164.368 104.929 162.502 106.864C161.965 107.42 161.393 107.944 160.938 108.351C161.138 109.04 161.378 109.939 161.544 110.915C162.114 114.266 161.869 118.538 158.885 123.484L158.884 123.485L158.883 123.487C155.981 128.288 150.343 130.974 145.39 132.036C142.805 132.59 140.098 132.777 137.56 132.495C135.669 132.284 133.68 131.79 131.886 130.835C130.722 130.361 129.645 129.821 128.644 129.22C132.157 134.141 136.801 137.698 142.234 140.578C145.803 142.468 148.702 142.887 151.282 143.297C152.406 143.476 154.18 143.737 155.684 144.449C157.652 145.38 159.191 147.053 159.738 149.526C160.217 151.693 159.753 153.768 159.188 155.319C158.6 156.934 157.728 158.455 156.834 159.744C155.933 161.044 154.915 162.242 153.929 163.203C153.109 164.002 151.797 165.157 150.294 165.692C147.053 166.846 143.007 166.626 139.997 163.416C140.012 163.432 139.932 163.348 139.694 163.153C139.474 162.972 139.186 162.75 138.831 162.491C138.121 161.973 137.241 161.375 136.301 160.766C134.399 159.532 132.457 158.383 131.483 157.871L131.166 157.705L130.88 157.493C123.228 151.824 119.044 145.982 113.063 134.35C111.988 139.207 109.675 144.021 105.244 147.344C103.36 148.836 100.832 150.227 98.1474 151.174C94.1566 152.582 88.8817 153.344 83.7327 151.284L83.7328 151.284C78.3805 149.148 75.3342 144.811 73.6869 141.478C73.3153 140.726 73.0016 140 72.7382 139.324C72.491 139.326 72.2363 139.323 71.9746 139.314C68.7208 139.2 64.5333 138.151 60.2938 134.795L60.2924 134.794L60.2913 134.793C55.1634 130.728 53.3648 125.468 53.2449 120.889C53.1696 118.018 53.7519 115.232 54.6839 113.032C55.3541 111.151 57.0864 107.137 61.5177 103.072C58.9569 103.224 56.316 103.027 53.867 102.171L53.8621 102.169C53.0203 101.874 52.236 101.552 51.5066 101.214L51.3508 101.375L49.8935 100.391C46.4318 98.4566 44.4876 96.2067 43.6487 94.9168L43.6484 94.917C43.645 94.9117 43.6416 94.9063 43.6381 94.901C43.6377 94.9004 43.6373 94.8998 43.6369 94.8993L43.637 94.899C43.5752 94.8037 43.5156 94.7061 43.4585 94.6066C43.1963 94.2594 42.9347 93.8924 42.6779 93.5055C40.2176 89.7982 38.168 84.2051 40.0252 77.2193C41.6369 71.1391 45.566 67.4678 48.9084 65.3905C49.7028 64.8968 50.4738 64.4865 51.1882 64.1469C51.1397 63.6928 51.0969 63.2114 51.0634 62.7087C50.8643 59.7183 50.9501 55.3515 52.7262 51.4968L52.7264 51.4965C55.7817 44.867 62.804 40.1827 70.9638 40.6347L71.1567 40.6463L71.1579 40.6464C71.5134 40.6697 71.8574 40.7154 72.1899 40.7812C76.723 41.2434 82.3205 43.0461 87.7705 48.3328C88.6951 49.2297 89.568 50.1676 90.3904 51.1328C90.2919 49.6354 90.2997 48.2458 90.3994 46.9444C90.7307 42.6231 92.0515 39.6121 93.2681 37.2531C94.6339 34.6045 96.659 32.4205 98.3218 30.8983C99.9867 29.3741 101.588 28.2439 102.43 27.7552L102.439 27.7494L102.449 27.7439C102.776 27.5563 103.109 27.4069 103.442 27.288ZM118.282 30.7205C113.417 28.3675 108.511 29.7801 105.233 31.5792C105.048 31.622 104.887 31.6816 104.754 31.7582C103.737 32.3488 99.4109 35.4404 97.3822 39.3749C95.2465 43.516 93.2474 48.92 97.2555 61.703C99.6505 69.3449 102.848 71.8861 99.3942 73.4042C96.5724 74.6371 96.7068 73.2441 94.9091 68.1929C93.1113 63.1417 89.6743 56.6285 84.5474 51.6552C79.8488 47.0975 75.1596 45.6894 71.4563 45.3606C71.2658 45.3114 71.0657 45.2793 70.8555 45.2656C64.5983 44.8576 59.2386 48.4254 56.9304 53.4339C54.3542 59.025 56.3633 67.1482 56.3686 67.1696C56.3524 67.173 46.9453 69.171 44.4988 78.4086C42.8573 84.5829 45.1195 89.2346 47.3635 92.0905C47.4177 92.2063 47.4712 92.3051 47.5234 92.385C48.1119 93.2945 50.3902 96.0451 55.3948 97.8012C61.9771 100.103 72.1097 96.0514 77.0754 94.284C82.0412 92.5167 87.096 90.3504 88.0704 93.8657L88.0913 93.9476C88.8965 97.3809 79.4896 97.3851 70.4482 102.37L70.2359 102.488C61.9965 107.106 59.6404 112.849 58.9931 114.73C57.3947 118.396 56.5593 125.928 63.1667 131.165C69.9508 136.535 76.0198 134.183 76.0198 134.183C76.0198 134.183 77.7218 143.9 85.4492 146.985C91.869 149.556 99.1603 146.287 102.435 143.664C109.747 138.203 110.071 126.825 108.498 117.632C107.339 110.862 106.081 103.285 106.731 98.9704C107.248 100.535 107.809 102.5 108.278 104.775C109.518 110.794 111.174 120.552 117.078 132.035C122.97 143.522 126.762 148.681 133.635 153.773C135.929 154.978 141.92 158.698 143.374 160.25C144.783 161.753 146.666 162.011 148.559 161.393L148.742 161.331C150.696 160.635 156.066 154.362 155.218 150.525C154.376 146.718 148.769 149.191 140.268 144.774L140.067 144.668C132.163 140.479 125.418 134.746 121.258 125.626C117.108 116.503 115.142 106.988 114.449 103.216C114.24 102.075 113.895 100.423 113.517 98.6757C115.667 101.714 117.87 106.461 120.113 110.983C124.034 118.896 127.253 124.04 133.864 126.641C139.308 129.747 150.979 127.334 154.827 121.244L154.921 121.092C159.636 113.278 155.339 108.575 156 106.884C156.662 105.192 161.702 103.194 162.272 97.1558C162.608 93.63 161.821 90.116 160.245 87.2752C160.157 87.0869 160.062 86.9055 159.957 86.7319C158.132 83.6998 154.685 79.5243 146.048 78.8202C137.103 78.0936 126.693 80.4871 122.505 82.0738C118.317 83.6605 115.974 84.8425 115.212 82.972C114.45 81.1016 114.844 80.6975 119.168 79.255C123.491 77.8126 137.875 73.8727 145.014 68.6125C150.361 64.6802 152.574 59.1761 152.543 57.4729C153.647 53.7368 151.738 44.8121 144.703 41.4701C137.203 37.9071 129.802 42.2978 128.171 41.8072C126.53 41.3204 125.461 34.1931 118.282 30.7205ZM128.246 37.227C128.135 37.2373 128.12 37.2498 128.234 37.2296C128.238 37.2289 128.242 37.2278 128.246 37.227Z" stroke="white" stroke-width="8.51733" stroke-linejoin="round" mask="url(#path-2-outside-1_1525_2622)"/>
<path d="M111.603 90.1409L105.148 94.8925C105.148 94.8925 107.036 98.7444 108.28 104.775C109.52 110.794 111.176 120.552 117.08 132.035C122.973 143.522 126.764 148.681 133.638 153.773C135.931 154.978 141.922 158.698 143.377 160.25C144.831 161.802 146.79 162.026 148.744 161.331C150.698 160.635 156.068 154.362 155.22 150.525C154.372 146.688 148.683 149.23 140.069 144.668C132.165 140.479 125.42 134.746 121.26 125.626C117.111 116.503 115.144 106.988 114.451 103.216C113.762 99.4548 111.603 90.1409 111.603 90.1409ZM101.841 34.046C103.836 31.9765 111.104 27.2479 118.284 30.7206C125.464 34.1932 126.532 41.3206 128.173 41.8074C129.804 42.2979 137.205 37.9072 144.705 41.4702C152.206 45.0332 153.879 54.9413 152.288 58.1427C150.696 61.3442 121.053 53.0043 121.053 53.0043L101.841 34.046ZM56.3709 67.1697C56.3709 67.1697 54.3532 59.0325 56.9327 53.4341C59.2409 48.4255 64.6006 44.8576 70.8579 45.2656C78.9389 45.7945 72.2462 73.2024 72.2462 73.2024L50.7303 95.3703C50.7303 95.3703 41.6253 89.2261 44.5011 78.4087C46.9497 69.1632 56.3709 67.1697 56.3709 67.1697ZM59.8911 113.165C57.9365 115.618 55.3756 124.987 63.1691 131.165C69.9532 136.535 76.0221 134.183 76.0221 134.183C76.0221 134.183 77.724 143.9 85.4515 146.986C92.9443 149.986 101.625 145.032 103.72 142.433C106.217 139.342 88.1403 116.238 88.1403 116.238L59.8911 113.165Z" fill="#436B11"/>
<path d="M143.577 99.6233C143.577 99.6233 128.597 122.677 133.083 126.122C138.138 130.014 150.986 127.607 154.924 121.092C159.638 113.278 155.341 108.575 156.003 106.884C156.664 105.192 161.704 103.194 162.274 97.1558C162.851 91.1031 160.12 85.0848 155.764 82.4479C151.419 79.8072 143.577 99.6233 143.577 99.6233Z" fill="#436B11"/>
<path d="M99.3965 73.4043C102.851 71.8862 99.6528 69.3449 97.2578 61.7029C93.2498 48.92 95.2488 43.5161 97.3845 39.3751C99.4133 35.4406 103.739 32.3488 104.756 31.7583C106.355 30.8405 111.87 32.3067 116.291 37.1221C120.085 41.2582 122.106 47.445 124.379 48.3205C126.652 49.1961 133.806 43.7742 142.044 47.2793C150.282 50.7844 152.086 55.9896 152.497 57.1429C152.907 58.2963 150.786 64.3695 145.016 68.6125C137.877 73.8727 123.493 77.8127 119.17 79.2551C114.847 80.6976 114.452 81.1017 115.214 82.9721C115.976 84.8426 118.32 83.6606 122.507 82.0739C126.695 80.4872 137.105 78.0937 146.051 78.8203C154.687 79.5244 158.135 83.6998 159.96 86.7319C161.551 89.378 161.189 93.8382 158.86 96.7247C156.526 99.6005 149.977 101.751 149.129 103.966C147.967 106.99 153.453 113.243 148.261 120.121C143.068 126.998 135.913 127.415 134.107 126.734C127.333 124.164 124.084 118.992 120.115 110.983C116.15 102.986 112.306 94.2831 108.665 95.5792C105.023 96.8752 106.862 108.06 108.5 117.632C110.138 127.204 109.72 139.144 101.499 144.307C95.5404 148.052 87.0888 143.372 85.022 138.85C82.858 134.121 81.8617 128.989 80.0057 127.629C77.7422 125.968 71.0536 130.839 64.2053 125.66C58.2125 121.127 58.4273 116.491 58.8657 115.12C59.2911 113.813 61.3378 107.394 70.4505 102.37C79.5632 97.3459 89.0471 97.3812 88.0727 93.8658C87.0983 90.3504 82.0436 92.5167 77.0778 94.2841C72.1121 96.0514 61.9795 100.103 55.3971 97.8012C50.3926 96.0451 48.1142 93.2946 47.5258 92.385C46.6009 90.9696 45.1922 83.6985 49.5894 78.2713C55.0532 71.514 61.6728 72.4668 62.9176 70.7243C64.1624 68.9819 59.1913 64.4465 61.5397 55.5615C63.3688 48.666 69.5525 45.25 70.4713 45.296C74.3072 45.4588 79.4229 46.6821 84.5498 51.6554C89.6766 56.6286 93.1137 63.1418 94.9114 68.193C96.7091 73.2441 96.5747 74.6372 99.3965 73.4043Z" fill="#8BC02B"/>
<path d="M117.772 59.1655C117.772 59.1655 118.755 54.051 115.019 53.1548C110.692 52.1199 109.376 56.7392 109.376 56.7392C109.376 56.7392 107.902 53.8828 104.89 54.9187C102.736 55.6613 102.277 58.1587 103.455 61.7704C104.621 65.3859 105.934 66.4708 107.804 66.2144C110.41 65.8642 110.544 63.4343 110.544 63.4343C110.544 63.4343 111.105 65.1117 113.185 65.6828C115.265 66.2539 116.493 64.1927 116.493 64.1927C116.493 64.1927 115.8 66.9781 117.59 67.9171C119.05 68.6728 120.617 67.2609 120.617 67.2609C120.617 67.2609 118.505 71.1648 120.569 72.5358C122.637 73.9174 125.617 72.8928 127.431 71.6336C129.245 70.3745 131.093 67.4547 129.469 64.4113C127.844 61.3679 122.968 63.8613 122.968 63.8613C122.968 63.8613 124.541 59.5237 122.283 58.1495C119.633 56.5179 117.772 59.1655 117.772 59.1655ZM128.576 85.0265C128.571 86.7368 131.148 87.9253 131.148 87.9253C131.148 87.9253 129.651 88.5542 129.529 89.8008C129.407 91.0473 130.569 92.3181 130.569 92.3181C130.569 92.3181 127.294 91.6672 125.701 93.9544C124.287 95.9979 126.212 98.8021 126.212 98.8021C126.212 98.8021 123.458 97.2192 121.409 99.4404C119.992 100.968 120.995 104.292 122.381 106.735C123.768 109.177 126.365 111.369 128.983 109.835C131.602 108.302 129.311 102.777 129.311 102.777C129.311 102.777 134.662 105.372 136.537 102.021C138.105 99.2254 135.335 96.9509 135.335 96.9509C135.335 96.9509 136.806 97.0288 137.461 95.7249C138.116 94.421 136.665 93.2169 136.665 93.2169C136.665 93.2169 140.721 93.4936 140.63 90.7348C140.538 87.976 137.492 87.6646 137.492 87.6646C137.492 87.6646 139.262 87.2632 138.228 85.0326C137.092 82.5852 128.574 80.3227 128.576 85.0265ZM92.1453 108.255C92.1453 108.255 93.0234 106.463 91.4678 103.816C89.556 100.574 84.4053 101.349 82.5858 102.153C80.7664 102.957 78.6217 104.165 79.6277 106.755C80.3728 108.679 82.2273 108.549 82.2273 108.549C82.2273 108.549 80.7499 110.314 82.1087 112.441C84.1486 115.637 89.3964 112.567 89.3964 112.567C89.3964 112.567 86.9868 116.817 90.0435 119.05C93.1001 121.283 96.103 117.651 96.103 117.651C96.103 117.651 96.096 121.215 98.6747 121.26C101.106 121.297 102.343 119.16 102.707 116.059C103.056 113.083 101.79 108.986 98.9862 107.734C94.9302 105.905 92.1453 108.255 92.1453 108.255ZM76.2231 67.9129C74.1611 70.9087 76.8436 74.3215 76.8436 74.3215C76.8436 74.3215 74.112 74.6921 74.0815 76.7363C74.051 78.7805 76.0393 79.0595 76.0393 79.0595C76.0393 79.0595 73.3489 79.3432 73.5295 81.5409C73.7101 83.7386 75.8227 83.9613 75.8227 83.9613C75.8227 83.9613 73.3493 85.2266 74.1087 88.0365C74.5666 89.7625 76.9221 91.7155 80.9602 90.3505C84.9983 88.9855 86.7493 87.9893 86.1964 85.9964C85.6435 84.0034 83.1664 83.8382 83.1664 83.8382C83.1664 83.8382 84.7999 82.8839 84.2072 81.0494C83.4123 78.6132 80.8939 78.5349 80.8939 78.5349C80.8939 78.5349 84.1066 78.9075 85.8464 77.0009C88.2878 74.3272 85.7114 71.5504 85.7114 71.5504C85.7114 71.5504 87.7148 74.0018 89.7847 72.8199C91.3725 71.9059 92.1255 69.424 90.586 65.9774C89.0465 62.5308 87.0904 62.0719 85.3986 62.6259C83.1653 63.3486 83.4589 66.7092 83.4589 66.7092C83.4589 66.7092 79.1107 63.7208 76.2231 67.9129Z" fill="#D6EC42"/>
<path d="M45.2948 40.4374C46.2918 40.4527 47.9566 41.0313 48.2837 42.8011L48.3116 42.9768L48.4965 44.3776C48.9469 47.6914 49.5188 51.2838 50.1977 54.3668C50.5862 56.1311 51.0001 57.6859 51.4328 58.9085C51.8925 60.2072 52.286 60.8696 52.5082 61.0975C52.7492 61.3447 53.4128 61.7734 54.6676 62.3075C55.8546 62.8127 57.3632 63.3286 59.0762 63.8371C62.4972 64.8528 66.5807 65.7969 70.2103 66.5568C72.1681 66.9666 72.5666 68.874 72.509 69.8315C72.4511 70.7918 71.8308 72.6172 69.8631 72.8167C66.1256 73.1956 61.9484 73.7775 58.5128 74.6512C56.7917 75.0889 55.3264 75.5827 54.2188 76.1254C53.0576 76.6945 52.5512 77.1921 52.3853 77.4901C51.5939 78.9124 50.6176 81.7968 49.6196 85.3645C48.6413 88.8619 47.6961 92.811 46.9281 96.2172C46.5078 98.081 44.733 98.54 43.7039 98.4617C42.6742 98.3833 41.0043 97.6665 40.8487 95.7797C40.5703 92.3972 40.1386 88.5062 39.4792 85.0415C38.8015 81.4805 37.9389 78.698 36.9588 77.2804C36.6318 76.8075 35.9702 76.2344 34.8629 75.6201C33.7805 75.0196 32.4083 74.4539 30.8246 73.9307C27.6579 72.8847 23.8462 72.0722 20.267 71.4651C19.258 71.294 18.6071 70.6316 18.2617 70.0059C17.9293 69.4034 17.8115 68.7405 17.8167 68.1643C17.8218 67.5886 17.9516 66.9243 18.2997 66.3256C18.6631 65.7009 19.3376 65.0535 20.3583 64.9161C24.1066 64.4113 28.1375 63.764 31.4525 62.9887C33.1127 62.6004 34.5469 62.1908 35.6577 61.7677C36.8451 61.3154 37.3948 60.9449 37.5582 60.7676C37.811 60.4931 38.2159 59.7888 38.693 58.5082C39.146 57.2923 39.5924 55.7598 40.0206 54.03C40.8758 50.5747 41.6227 46.4834 42.2023 42.8813L42.235 42.7074C42.6168 40.9493 44.2979 40.4221 45.2948 40.4374Z" fill="#FEE812" stroke="black" stroke-width="3.88835"/>
</svg>
