<svg width="46" height="46" viewBox="0 0 46 46" fill="none" xmlns="http://www.w3.org/2000/svg">
<g filter="url(#filter0_d_1178_2293)">
<path d="M37.6703 30.2L37.6703 35.2C37.6722 35.6641 37.5771 36.1236 37.3911 36.5489C37.2052 36.9742 36.9325 37.3559 36.5904 37.6697C36.2484 37.9835 35.8446 38.2224 35.4049 38.3711C34.9652 38.5198 34.4993 38.5751 34.037 38.5333C28.9084 37.976 23.982 36.2235 19.6536 33.4166C15.6267 30.8577 12.2125 27.4436 9.65363 23.4166C6.83693 19.0686 5.08404 14.1183 4.53697 8.96662C4.49532 8.50574 4.55009 8.04123 4.6978 7.60267C4.84551 7.16411 5.08292 6.76111 5.39491 6.41933C5.7069 6.07755 6.08664 5.80447 6.50995 5.61749C6.93326 5.43052 7.39087 5.33373 7.85363 5.33329L12.8536 5.33329C13.6625 5.32533 14.4466 5.61176 15.0599 6.13918C15.6732 6.6666 16.0738 7.39904 16.187 8.19996C16.398 9.80007 16.7894 11.3712 17.3536 12.8833C17.5779 13.4798 17.6264 14.1281 17.4935 14.7514C17.3605 15.3747 17.0517 15.9468 16.6036 16.4L14.487 18.5166C16.8596 22.6892 20.3144 26.144 24.487 28.5166L26.6036 26.4C27.0568 25.9519 27.6289 25.643 28.2522 25.5101C28.8754 25.3772 29.5238 25.4257 30.1203 25.65C31.6324 26.2142 33.2035 26.6056 34.8036 26.8166C35.6132 26.9308 36.3526 27.3386 36.8812 27.9625C37.4097 28.5863 37.6906 29.3826 37.6703 30.2Z" fill="white"/>
<path d="M37.6703 30.2L37.6703 35.2C37.6722 35.6641 37.5771 36.1236 37.3911 36.5489C37.2052 36.9742 36.9325 37.3559 36.5904 37.6697C36.2484 37.9835 35.8446 38.2224 35.4049 38.3711C34.9652 38.5198 34.4993 38.5751 34.037 38.5333C28.9084 37.976 23.982 36.2235 19.6536 33.4166C15.6267 30.8577 12.2125 27.4436 9.65363 23.4166C6.83693 19.0686 5.08404 14.1183 4.53697 8.96662C4.49532 8.50574 4.55009 8.04123 4.6978 7.60267C4.84551 7.16411 5.08292 6.76111 5.39491 6.41933C5.7069 6.07755 6.08664 5.80447 6.50995 5.61749C6.93326 5.43052 7.39087 5.33373 7.85363 5.33329L12.8536 5.33329C13.6625 5.32533 14.4466 5.61176 15.0599 6.13918C15.6732 6.6666 16.0738 7.39904 16.187 8.19996C16.398 9.80007 16.7894 11.3712 17.3536 12.8833C17.5779 13.4798 17.6264 14.1281 17.4935 14.7514C17.3605 15.3747 17.0517 15.9468 16.6036 16.4L14.487 18.5166C16.8596 22.6892 20.3144 26.144 24.487 28.5166L26.6036 26.4C27.0568 25.9519 27.6289 25.643 28.2522 25.5101C28.8754 25.3772 29.5238 25.4257 30.1203 25.65C31.6324 26.2142 33.2035 26.6056 34.8036 26.8166C35.6132 26.9308 36.3526 27.3386 36.8812 27.9625C37.4097 28.5863 37.6906 29.3826 37.6703 30.2Z" stroke="white" stroke-width="8" stroke-linecap="round" stroke-linejoin="round"/>
</g>
<path d="M37.6703 30.2L37.6703 35.2C37.6722 35.6641 37.5771 36.1236 37.3911 36.5489C37.2052 36.9742 36.9325 37.3559 36.5904 37.6697C36.2484 37.9835 35.8446 38.2224 35.4049 38.3711C34.9652 38.5198 34.4993 38.5751 34.037 38.5333C28.9084 37.976 23.982 36.2235 19.6536 33.4166C15.6267 30.8577 12.2125 27.4436 9.65363 23.4166C6.83693 19.0686 5.08404 14.1183 4.53697 8.96662C4.49532 8.50574 4.55009 8.04123 4.6978 7.60267C4.84551 7.16411 5.08292 6.76111 5.39491 6.41933C5.7069 6.07755 6.08664 5.80447 6.50995 5.61749C6.93326 5.43052 7.39087 5.33373 7.85363 5.33329L12.8536 5.33329C13.6625 5.32533 14.4466 5.61176 15.0599 6.13918C15.6732 6.6666 16.0738 7.39904 16.187 8.19996C16.398 9.80007 16.7894 11.3712 17.3536 12.8833C17.5779 13.4798 17.6264 14.1281 17.4935 14.7514C17.3605 15.3747 17.0517 15.9468 16.6036 16.4L14.487 18.5166C16.8596 22.6892 20.3144 26.144 24.487 28.5166L26.6036 26.4C27.0568 25.9519 27.6289 25.643 28.2522 25.5101C28.8754 25.3772 29.5238 25.4257 30.1203 25.65C31.6324 26.2142 33.2035 26.6056 34.8036 26.8166C35.6132 26.9308 36.3526 27.3386 36.8812 27.9625C37.4097 28.5863 37.6906 29.3826 37.6703 30.2Z" fill="url(#paint0_linear_1178_2293)" stroke="#62009B" stroke-width="3.25" stroke-linecap="round" stroke-linejoin="round"/>
<defs>
<filter id="filter0_d_1178_2293" x="0.523438" y="1.33313" width="44.1484" height="44.2137" filterUnits="userSpaceOnUse" color-interpolation-filters="sRGB">
<feFlood flood-opacity="0" result="BackgroundImageFix"/>
<feColorMatrix in="SourceAlpha" type="matrix" values="0 0 0 0 0 0 0 0 0 0 0 0 0 0 0 0 0 0 127 0" result="hardAlpha"/>
<feOffset dx="3" dy="3"/>
<feComposite in2="hardAlpha" operator="out"/>
<feColorMatrix type="matrix" values="0 0 0 0 0 0 0 0 0 0 0 0 0 0 0 0 0 0 0.38 0"/>
<feBlend mode="normal" in2="BackgroundImageFix" result="effect1_dropShadow_1178_2293"/>
<feBlend mode="normal" in="SourceGraphic" in2="effect1_dropShadow_1178_2293" result="shape"/>
</filter>
<linearGradient id="paint0_linear_1178_2293" x1="-1" y1="22" x2="60.7559" y2="26.4089" gradientUnits="userSpaceOnUse">
<stop stop-color="#570089"/>
<stop offset="0.355421" stop-color="#A200FF"/>
<stop offset="1" stop-color="#210035"/>
</linearGradient>
</defs>
</svg>
