<svg width="481" height="420" viewBox="0 0 481 420" fill="none" xmlns="http://www.w3.org/2000/svg">
<g opacity="0.28">
<path d="M180.35 20.537L169.996 -59.8274L240.343 -71.6094L206.172 -131.261C247.125 -116.329 332.053 -86.9694 344.137 -88.9933L240.343 -71.6094L283.463 -11.5102L337.733 -34.5124L374.392 91.6495L301.394 292.909L237.66 296.492L231.246 284.484L156.879 416.838L52.2356 284.777L148.462 129.489L115.27 34.6282L180.35 20.537Z" fill="url(#paint0_linear_998_3154)" fill-opacity="0.11"/>
<path d="M405.363 38.1511L416.24 -25.3892L572.039 -51.483L509.246 -238.311L615.002 -168.487L572.039 -51.483L615.192 20.7369L583.56 168.309L511.17 133.452L535.034 275.939L485.893 262.009L474.28 214.091L424.119 150.137L405.363 38.1511Z" fill="url(#paint1_linear_998_3154)" fill-opacity="0.11"/>
<path d="M337.733 -34.5124L283.463 -11.5102M337.733 -34.5124L335.982 98.0826M337.733 -34.5124L300.442 16.2769M337.733 -34.5124L374.392 91.6495L301.394 292.909M26.9181 62.0879L115.27 34.6282M180.35 20.537L169.996 -59.8274M180.35 20.537L283.463 -11.5102M180.35 20.537L148.462 129.489M180.35 20.537L115.27 34.6282M169.996 -59.8274L0.30978 -96.7828M169.996 -59.8274L240.343 -71.6094M344.137 -88.9933L202.594 -214.874L122.953 -340.707M344.137 -88.9933L80.9481 -273.616M344.137 -88.9933C332.053 -86.9694 247.125 -116.329 206.172 -131.261L240.343 -71.6094M344.137 -88.9933L240.343 -71.6094M240.343 -71.6094L283.463 -11.5102M283.463 -11.5102L300.442 16.2769M335.982 98.0826L300.442 16.2769M335.982 98.0826L156.879 416.838L52.2356 284.777L148.462 129.489M335.982 98.0826L301.394 292.909M300.442 16.2769L148.462 129.489M148.462 129.489L115.27 34.6282M148.462 129.489L237.66 296.492L301.394 292.909M442.875 262.122L424.119 150.137M416.24 -25.3892L405.363 38.1511L424.119 150.137M416.24 -25.3892L511.17 133.452M416.24 -25.3892L474.28 214.091M416.24 -25.3892L572.039 -51.483M511.17 133.452L535.034 275.939L485.893 262.009L474.28 214.091M511.17 133.452L474.28 214.091M511.17 133.452L583.56 168.309M424.119 150.137L474.28 214.091M583.56 168.309L615.192 20.7369M583.56 168.309L616.969 216.786M615.192 20.7369L572.039 -51.483M615.192 20.7369L692.032 38.4498M572.039 -51.483L615.002 -168.487M572.039 -51.483L509.246 -238.311M615.002 -168.487L509.246 -238.311M615.002 -168.487L686.768 -210.202M509.246 -238.311L493.072 -334.883M509.246 -238.311L544.88 -312.978" stroke="url(#paint2_radial_998_3154)" stroke-opacity="0.75" stroke-width="2.90345"/>
</g>
<defs>
<linearGradient id="paint0_linear_998_3154" x1="93.4633" y1="182.579" x2="330.506" y2="32.7653" gradientUnits="userSpaceOnUse">
<stop stop-color="#787878"/>
<stop offset="1" stop-color="#FF00FF"/>
</linearGradient>
<linearGradient id="paint1_linear_998_3154" x1="93.4633" y1="182.579" x2="330.506" y2="32.7653" gradientUnits="userSpaceOnUse">
<stop stop-color="#787878"/>
<stop offset="1" stop-color="#FF00FF"/>
</linearGradient>
<radialGradient id="paint2_radial_998_3154" cx="0" cy="0" r="1" gradientTransform="matrix(-360.585 170.311 -181.419 -383.561 395.31 -48.3663)" gradientUnits="userSpaceOnUse">
<stop stop-color="white"/>
<stop offset="1" stop-color="#999999" stop-opacity="0"/>
</radialGradient>
</defs>
</svg>
