<svg width="24" height="19" viewBox="0 0 24 19" fill="none" xmlns="http://www.w3.org/2000/svg">
<path d="M20.3178 1.51754C18.7617 0.802917 17.1195 0.293164 15.4323 0.00104193C15.417 -0.00153229 15.4013 0.000690973 15.3873 0.00740609C15.3733 0.0141212 15.3618 0.0249984 15.3543 0.0385419C15.1428 0.413542 14.9088 0.904042 14.7453 1.28804C12.9266 1.01228 11.0769 1.01228 9.25825 1.28804C9.07664 0.859919 8.87029 0.442715 8.64025 0.0385419C8.63272 0.0249984 8.62118 0.0141212 8.60721 0.00740609C8.59324 0.000690973 8.57754 -0.00153229 8.56225 0.00104193C6.87475 0.292042 5.23225 0.802042 3.67675 1.51754C3.66338 1.52251 3.65221 1.53208 3.64525 1.54454C0.534253 6.19304 -0.319247 10.7275 0.0992533 15.205C0.102253 15.227 0.112753 15.2455 0.130753 15.2605C1.94271 16.6019 3.9689 17.6264 6.12325 18.2905C6.13847 18.2953 6.15481 18.2952 6.16992 18.29C6.18502 18.2849 6.1981 18.2751 6.20725 18.262C6.67025 17.632 7.07925 16.9675 7.43425 16.2685C7.44163 16.2541 7.44416 16.2377 7.44145 16.2218C7.43875 16.2058 7.43096 16.1912 7.41925 16.18L7.39225 16.1635C6.74629 15.9145 6.12044 15.6161 5.52025 15.271C5.5035 15.2615 5.49104 15.246 5.48545 15.2275C5.47987 15.2091 5.48159 15.1892 5.49025 15.172L5.51275 15.1435C5.63975 15.0485 5.76375 14.951 5.88475 14.851C5.89535 14.8425 5.90807 14.837 5.92155 14.8352C5.93502 14.8333 5.94875 14.8352 5.96125 14.8405C9.88975 16.6345 14.1423 16.6345 18.0228 14.8405C18.0356 14.8346 18.05 14.8324 18.064 14.8343C18.0781 14.8361 18.0914 14.8419 18.1023 14.851C18.2233 14.951 18.3473 15.0485 18.4743 15.1435C18.4848 15.1508 18.4933 15.1606 18.499 15.172C18.5047 15.1835 18.5074 15.1962 18.5068 15.209C18.5062 15.2217 18.5024 15.2342 18.4956 15.245C18.4889 15.2559 18.4794 15.2648 18.4683 15.271C17.8706 15.6216 17.2438 15.9197 16.5948 16.162C16.5844 16.1658 16.575 16.1718 16.5672 16.1795C16.5595 16.1873 16.5535 16.1967 16.5498 16.207C16.5461 16.217 16.5446 16.2277 16.5454 16.2383C16.5462 16.2489 16.5492 16.2592 16.5543 16.2685C16.9143 16.966 17.3268 17.632 17.7798 18.262C17.7889 18.2751 17.802 18.2849 17.8171 18.29C17.8322 18.2952 17.8485 18.2953 17.8638 18.2905C20.0224 17.63 22.0521 16.6053 23.8653 15.2605C23.8743 15.2542 23.8818 15.2459 23.8872 15.2363C23.8926 15.2267 23.8959 15.216 23.8968 15.205C24.3978 10.0285 23.0583 5.53154 20.3478 1.54604C20.3454 1.53924 20.3414 1.5331 20.3362 1.52814C20.331 1.52318 20.3247 1.51955 20.3178 1.51754ZM8.02075 12.478C6.83725 12.478 5.86375 11.392 5.86375 10.06C5.86375 8.72804 6.81925 7.64054 8.02075 7.64054C9.23125 7.64054 10.1958 8.73554 10.1778 10.06C10.1778 11.392 9.22225 12.478 8.02075 12.478ZM15.9948 12.478C14.8128 12.478 13.8378 11.392 13.8378 10.06C13.8378 8.72804 14.7933 7.64054 15.9948 7.64054C17.2053 7.64054 18.1713 8.73554 18.1518 10.06C18.1518 11.392 17.2053 12.478 15.9948 12.478Z" fill="white"/>
</svg>
