<svg width="115" height="142" viewBox="0 0 115 142" fill="none" xmlns="http://www.w3.org/2000/svg">
<g filter="url(#filter0_d_3008_2151)">
<mask id="path-1-outside-1_3008_2151" maskUnits="userSpaceOnUse" x="40.1584" y="98.2883" width="71.6725" height="41.5076" fill="black">
<rect fill="white" x="40.1584" y="98.2883" width="71.6725" height="41.5076"/>
<path d="M63.9281 115.375L86.1172 111.218L98.7049 109.12L100.895 121.078L88.3071 123.176L65.9548 126.442L63.9281 115.375ZM50.683 116.817L59.3231 115.377L61.6218 127.93L52.9817 129.37L50.683 116.817Z"/>
</mask>
<path d="M63.9281 115.375L86.1172 111.218L98.7049 109.12L100.895 121.078L88.3071 123.176L65.9548 126.442L63.9281 115.375ZM50.683 116.817L59.3231 115.377L61.6218 127.93L52.9817 129.37L50.683 116.817Z" fill="#8A00DA"/>
<path d="M63.9281 115.375L62.213 106.965C57.6224 107.825 54.6225 112.19 55.4641 116.786L63.9281 115.375ZM86.1172 111.218L84.5715 102.777C84.5149 102.787 84.4584 102.797 84.402 102.807L86.1172 111.218ZM98.7049 109.12L107.169 107.709C106.315 103.047 101.834 99.9001 97.1592 100.679L98.7049 109.12ZM100.895 121.078L102.441 129.519C107.115 128.739 110.213 124.329 109.359 119.667L100.895 121.078ZM88.3071 123.176L89.6826 131.643C89.7394 131.635 89.7961 131.626 89.8528 131.616L88.3071 123.176ZM65.9548 126.442L57.4908 127.853C58.3323 132.448 62.706 135.585 67.3304 134.909L65.9548 126.442ZM50.683 116.817L49.1373 108.377C44.4627 109.156 41.3653 113.566 42.2189 118.228L50.683 116.817ZM59.3231 115.377L67.7872 113.966C66.9335 109.305 62.452 106.158 57.7774 106.937L59.3231 115.377ZM61.6218 127.93L63.1675 136.37C67.8421 135.591 70.9395 131.181 70.0859 126.519L61.6218 127.93ZM52.9817 129.37L44.5176 130.78C45.3713 135.442 49.8528 138.589 54.5274 137.81L52.9817 129.37ZM63.9281 115.375L65.6433 123.785L87.8323 119.628L86.1172 111.218L84.402 102.807L62.213 106.965L63.9281 115.375ZM86.1172 111.218L87.6628 119.658L100.251 117.56L98.7049 109.12L97.1592 100.679L84.5715 102.777L86.1172 111.218ZM98.7049 109.12L90.2409 110.53L92.4308 122.489L100.895 121.078L109.359 119.667L107.169 107.709L98.7049 109.12ZM100.895 121.078L99.3492 112.638L86.7614 114.736L88.3071 123.176L89.8528 131.616L102.441 129.519L100.895 121.078ZM88.3071 123.176L86.9315 114.709L64.5793 117.975L65.9548 126.442L67.3304 134.909L89.6826 131.643L88.3071 123.176ZM65.9548 126.442L74.4189 125.031L72.3922 113.964L63.9281 115.375L55.4641 116.786L57.4908 127.853L65.9548 126.442ZM50.683 116.817L52.2287 125.258L60.8688 123.818L59.3231 115.377L57.7774 106.937L49.1373 108.377L50.683 116.817ZM59.3231 115.377L50.859 116.788L53.1578 129.34L61.6218 127.93L70.0859 126.519L67.7872 113.966L59.3231 115.377ZM61.6218 127.93L60.0761 119.489L51.436 120.929L52.9817 129.37L54.5274 137.81L63.1675 136.37L61.6218 127.93ZM52.9817 129.37L61.4458 127.959L59.147 115.406L50.683 116.817L42.2189 118.228L44.5176 130.78L52.9817 129.37Z" fill="white" mask="url(#path-1-outside-1_3008_2151)"/>
</g>
<g filter="url(#filter1_d_3008_2151)">
<mask id="path-3-outside-2_3008_2151" maskUnits="userSpaceOnUse" x="28.5062" y="45.822" width="73.3889" height="62.5611" fill="black">
<rect fill="white" x="28.5062" y="45.822" width="73.3889" height="62.5611"/>
<path d="M52.6871 78.6712L71.2558 65.8322L81.896 58.7867L88.7691 68.8147L78.1289 75.8602L59.0479 87.9517L52.6871 78.6712ZM41.1793 85.3857L48.4826 80.5497L55.6972 91.0759L48.3939 95.9119L41.1793 85.3857Z"/>
</mask>
<path d="M52.6871 78.6712L71.2558 65.8322L81.896 58.7867L88.7691 68.8147L78.1289 75.8602L59.0479 87.9517L52.6871 78.6712ZM41.1793 85.3857L48.4826 80.5497L55.6972 91.0759L48.3939 95.9119L41.1793 85.3857Z" fill="#8A00DA"/>
<path d="M52.6871 78.6712L47.6934 71.6897C43.8518 74.3459 42.8913 79.5549 45.5326 83.4086L52.6871 78.6712ZM71.2558 65.8322L66.4047 58.7543C66.3569 58.786 66.3093 58.8182 66.2621 58.8508L71.2558 65.8322ZM81.896 58.7867L89.0505 54.0492C86.3713 50.1402 80.9962 49.0923 77.0449 51.7088L81.896 58.7867ZM88.7691 68.8147L93.6202 75.8926C97.5715 73.2761 98.6028 67.9862 95.9236 64.0772L88.7691 68.8147ZM78.1289 75.8602L82.8355 83.0317C82.884 83.001 82.9322 82.9698 82.9801 82.9381L78.1289 75.8602ZM59.0479 87.9517L51.8934 92.6892C54.5347 96.5429 59.8069 97.6248 63.7545 95.1232L59.0479 87.9517ZM41.1793 85.3857L36.3282 78.3078C32.3769 80.9242 31.3456 86.2141 34.0248 90.1231L41.1793 85.3857ZM48.4826 80.5497L55.6371 75.8122C52.9579 71.9032 47.5828 70.8553 43.6315 73.4718L48.4826 80.5497ZM55.6972 91.0759L60.5483 98.1539C64.4997 95.5374 65.5309 90.2475 62.8517 86.3385L55.6972 91.0759ZM48.3939 95.912L41.2394 100.649C43.9186 104.558 49.2937 105.606 53.245 102.99L48.3939 95.912ZM52.6871 78.6712L57.6808 85.6526L76.2495 72.8137L71.2558 65.8322L66.2621 58.8508L47.6934 71.6897L52.6871 78.6712ZM71.2558 65.8322L76.107 72.9101L86.7471 65.8646L81.896 58.7867L77.0449 51.7088L66.4047 58.7543L71.2558 65.8322ZM81.896 58.7867L74.7415 63.5241L81.6146 73.5521L88.7691 68.8147L95.9236 64.0772L89.0505 54.0492L81.896 58.7867ZM88.7691 68.8147L83.918 61.7367L73.2778 68.7823L78.1289 75.8602L82.9801 82.9381L93.6202 75.8926L88.7691 68.8147ZM78.1289 75.8602L73.4223 68.6887L54.3413 80.7802L59.0479 87.9517L63.7545 95.1232L82.8355 83.0317L78.1289 75.8602ZM59.0479 87.9517L66.2024 83.2142L59.8416 73.9337L52.6871 78.6712L45.5326 83.4086L51.8934 92.6892L59.0479 87.9517ZM41.1793 85.3857L46.0304 92.4636L53.3337 87.6276L48.4826 80.5497L43.6315 73.4718L36.3282 78.3078L41.1793 85.3857ZM48.4826 80.5497L41.3281 85.2871L48.5427 95.8134L55.6972 91.0759L62.8517 86.3385L55.6371 75.8122L48.4826 80.5497ZM55.6972 91.0759L50.8461 83.998L43.5428 88.834L48.3939 95.912L53.245 102.99L60.5483 98.1539L55.6972 91.0759ZM48.3939 95.912L55.5484 91.1745L48.3338 80.6482L41.1793 85.3857L34.0248 90.1231L41.2394 100.649L48.3939 95.912Z" fill="white" mask="url(#path-3-outside-2_3008_2151)"/>
</g>
<g filter="url(#filter2_d_3008_2151)">
<mask id="path-5-outside-3_3008_2151" maskUnits="userSpaceOnUse" x="-3.21684" y="-3.626" width="62.3922" height="89.0829" fill="black">
<rect fill="white" x="-3.21684" y="-3.626" width="62.3922" height="89.0829"/>
<path d="M16.9174 51.6202L25.631 25.2823L30.8544 10.4956L45.0187 15.2461L39.7953 30.0328L30.0261 56.0167L16.9174 51.6202ZM10.5979 66.7243L14.1832 56.5749L29.0514 61.5614L25.4661 71.7108L10.5979 66.7243Z"/>
</mask>
<path d="M16.9174 51.6202L25.631 25.2823L30.8544 10.4956L45.0187 15.2461L39.7953 30.0328L30.0261 56.0167L16.9174 51.6202ZM10.5979 66.7243L14.1832 56.5749L29.0514 61.5614L25.4661 71.7108L10.5979 66.7243Z" fill="#8A00DA"/>
<path d="M16.9174 51.6202L6.85158 48.4674C5.04888 53.9163 7.96197 59.7372 13.4052 61.5628L16.9174 51.6202ZM25.631 25.2823L15.6336 21.9293C15.6101 21.9958 15.5872 22.0625 15.5651 22.1294L25.631 25.2823ZM30.8544 10.4956L34.3666 0.553053C28.8452 -1.29875 22.7967 1.65152 20.8569 7.14266L30.8544 10.4956ZM45.0187 15.2461L55.0161 18.5991C56.9559 13.108 54.0523 7.15535 48.5309 5.30356L45.0187 15.2461ZM39.7953 30.0328L49.7202 33.5845C49.7451 33.5185 49.7692 33.4522 49.7927 33.3857L39.7953 30.0328ZM30.0261 56.0167L26.5138 65.9592C31.9571 67.7848 37.9299 64.9441 39.951 59.5684L30.0261 56.0167ZM10.5979 66.7242L0.600518 63.3713C-1.33923 68.8624 1.56428 74.815 7.0857 76.6668L10.5979 66.7242ZM14.1832 56.5749L17.6954 46.6323C12.174 44.7805 6.12556 47.7307 4.1858 53.2219L14.1832 56.5749ZM29.0514 61.5614L39.0488 64.9144C40.9885 59.4232 38.085 53.4706 32.5636 51.6188L29.0514 61.5614ZM25.4661 71.7108L21.9539 81.6534C27.4753 83.5052 33.5238 80.5549 35.4635 75.0638L25.4661 71.7108ZM16.9174 51.6202L26.9833 54.7731L35.6968 28.4351L25.631 25.2823L15.5651 22.1294L6.85158 48.4674L16.9174 51.6202ZM25.631 25.2823L35.6284 28.6352L40.8518 13.8486L30.8544 10.4956L20.8569 7.14266L15.6336 21.9293L25.631 25.2823ZM30.8544 10.4956L27.3421 20.4382L41.5065 25.1887L45.0187 15.2461L48.5309 5.30356L34.3666 0.553053L30.8544 10.4956ZM45.0187 15.2461L35.0213 11.8932L29.7979 26.6798L39.7953 30.0328L49.7927 33.3857L55.0161 18.5991L45.0187 15.2461ZM39.7953 30.0328L29.8704 26.481L20.1011 52.4649L30.0261 56.0167L39.951 59.5684L49.7202 33.5845L39.7953 30.0328ZM30.0261 56.0167L33.5383 46.0741L20.4297 41.6776L16.9174 51.6202L13.4052 61.5628L26.5138 65.9592L30.0261 56.0167ZM10.5979 66.7242L20.5953 70.0772L24.1806 59.9278L14.1832 56.5749L4.1858 53.2219L0.600518 63.3713L10.5979 66.7242ZM14.1832 56.5749L10.671 66.5174L25.5391 71.504L29.0514 61.5614L32.5636 51.6188L17.6954 46.6323L14.1832 56.5749ZM29.0514 61.5614L19.054 58.2084L15.4687 68.3578L25.4661 71.7108L35.4635 75.0638L39.0488 64.9144L29.0514 61.5614ZM25.4661 71.7108L28.9783 61.7682L14.1102 56.7817L10.5979 66.7242L7.0857 76.6668L21.9539 81.6534L25.4661 71.7108Z" fill="white" mask="url(#path-5-outside-3_3008_2151)"/>
</g>
<defs>
<filter id="filter0_d_3008_2151" x="42.0781" y="100.561" width="67.4219" height="40.1775" filterUnits="userSpaceOnUse" color-interpolation-filters="sRGB">
<feFlood flood-opacity="0" result="BackgroundImageFix"/>
<feColorMatrix in="SourceAlpha" type="matrix" values="0 0 0 0 0 0 0 0 0 0 0 0 0 0 0 0 0 0 127 0" result="hardAlpha"/>
<feOffset dy="2.80968"/>
<feComposite in2="hardAlpha" operator="out"/>
<feColorMatrix type="matrix" values="0 0 0 0 0 0 0 0 0 0 0 0 0 0 0 0 0 0 0.25 0"/>
<feBlend mode="normal" in2="BackgroundImageFix" result="effect1_dropShadow_3008_2151"/>
<feBlend mode="normal" in="SourceGraphic" in2="effect1_dropShadow_3008_2151" result="shape"/>
</filter>
<filter id="filter1_d_3008_2151" x="32.5352" y="50.2687" width="64.8789" height="56.9709" filterUnits="userSpaceOnUse" color-interpolation-filters="sRGB">
<feFlood flood-opacity="0" result="BackgroundImageFix"/>
<feColorMatrix in="SourceAlpha" type="matrix" values="0 0 0 0 0 0 0 0 0 0 0 0 0 0 0 0 0 0 127 0" result="hardAlpha"/>
<feOffset dy="2.80968"/>
<feComposite in2="hardAlpha" operator="out"/>
<feColorMatrix type="matrix" values="0 0 0 0 0 0 0 0 0 0 0 0 0 0 0 0 0 0 0.25 0"/>
<feBlend mode="normal" in2="BackgroundImageFix" result="effect1_dropShadow_3008_2151"/>
<feBlend mode="normal" in="SourceGraphic" in2="effect1_dropShadow_3008_2151" result="shape"/>
</filter>
<filter id="filter2_d_3008_2151" x="0" y="0" width="55.6172" height="85.6592" filterUnits="userSpaceOnUse" color-interpolation-filters="sRGB">
<feFlood flood-opacity="0" result="BackgroundImageFix"/>
<feColorMatrix in="SourceAlpha" type="matrix" values="0 0 0 0 0 0 0 0 0 0 0 0 0 0 0 0 0 0 127 0" result="hardAlpha"/>
<feOffset dy="3.45274"/>
<feComposite in2="hardAlpha" operator="out"/>
<feColorMatrix type="matrix" values="0 0 0 0 0 0 0 0 0 0 0 0 0 0 0 0 0 0 0.25 0"/>
<feBlend mode="normal" in2="BackgroundImageFix" result="effect1_dropShadow_3008_2151"/>
<feBlend mode="normal" in="SourceGraphic" in2="effect1_dropShadow_3008_2151" result="shape"/>
</filter>
</defs>
</svg>
