<svg width="693" height="129" viewBox="0 0 693 129" fill="none" xmlns="http://www.w3.org/2000/svg">
<g filter="url(#filter0_d_1404_2712)">
<mask id="path-1-outside-1_1404_2712" maskUnits="userSpaceOnUse" x="-1.7717" y="-2.35178" width="695.56" height="130.761" fill="black">
<rect fill="white" x="-1.7717" y="-2.35178" width="695.56" height="130.761"/>
<path d="M50.5455 112.727C38.7631 113.372 29.6683 111.065 23.2612 105.808C16.8541 100.55 13.4432 92.5589 13.0286 81.8336C12.6087 70.9751 15.5166 62.5047 21.7521 56.4227C27.9876 50.3406 37.2296 46.9648 49.478 46.2951C53.6051 46.0695 57.2753 46.1025 60.4886 46.3941C63.7684 46.6821 66.9254 47.2439 69.9596 48.0794L70.6666 66.3657C67.5607 65.4006 64.4357 64.8038 61.2916 64.5751C58.1449 64.2798 54.9407 64.2214 51.6789 64.3997C46.2204 64.6981 42.0051 66.0968 39.0332 68.5958C36.0612 71.0948 34.6821 75.1089 34.8959 80.6381C35.102 85.9675 36.447 89.6991 38.931 91.8331C41.479 93.8968 45.0828 94.8013 49.7425 94.5465C52.6049 94.39 55.1216 93.9186 57.2925 93.1324L57.0376 86.5373L45.355 87.176L44.8489 74.0858L74.4048 72.4699L75.6719 105.245C73.1402 107.053 69.8007 108.671 65.6533 110.099C61.5059 111.527 56.47 112.404 50.5455 112.727ZM81.8827 110.013L79.3946 45.661L129.42 42.926L130.034 58.8142L101.477 60.3754L101.794 68.5693L126.657 67.21L127.286 83.4979L102.423 84.8571L102.736 92.9511L131.294 91.3898L131.908 107.278L81.8827 110.013ZM150.547 106.259L148.665 57.5953L131.491 58.5343L130.884 42.846L186.801 39.789L187.407 55.4773L170.133 56.4217L172.014 105.085L150.547 106.259ZM213.717 102.805L211.229 38.4535L232.697 37.2798L235.185 101.632L213.717 102.805ZM243.165 101.195L240.677 36.8435L258.75 35.8555L281.066 64.376L279.919 34.6982L301.387 33.5245L303.875 97.8765L285.602 98.8754L263.49 70.4439L264.633 100.022L243.165 101.195ZM345.568 95.5971L343.686 46.9334L326.512 47.8724L325.905 32.1841L381.822 29.1271L382.428 44.8154L365.154 45.7598L367.036 94.4234L345.568 95.5971ZM418.977 92.5851C411.788 92.9781 405.655 92.2119 400.577 90.2865C395.5 88.3611 391.535 85.0397 388.685 80.3222C385.901 75.6011 384.355 69.2769 384.049 61.3495C383.737 53.2888 384.785 46.756 387.193 41.751C389.668 36.7424 393.359 33.0025 398.267 30.5312C403.174 28.0599 409.223 26.6277 416.412 26.2347C423.601 25.8416 429.735 26.6078 434.812 28.5332C439.89 30.4586 443.821 33.7819 446.605 38.503C449.455 43.2204 451.037 49.6095 451.348 57.6701C451.655 65.5976 450.571 72.0656 448.096 77.0742C445.688 82.0791 442.03 85.8173 437.122 88.2886C432.215 90.7599 426.167 92.1921 418.977 92.5851ZM418.274 74.3987C422.401 74.173 425.318 72.8453 427.026 70.4154C428.799 67.982 429.585 64.1338 429.381 58.8711C429.167 53.3419 428.086 49.5291 426.137 47.4326C424.252 45.2659 421.246 44.2954 417.119 44.521C412.925 44.7503 409.94 46.0483 408.164 48.4152C406.452 50.7118 405.702 54.6247 405.916 60.154C406.12 65.4167 407.165 69.1647 409.052 71.3981C411.007 73.6277 414.08 74.628 418.274 74.3987ZM489.359 88.7373C483.368 89.0648 477.971 88.3585 473.167 86.6184C468.363 84.8783 464.522 82.1509 461.644 78.4364C458.832 74.7182 457.316 70.0278 457.097 64.3654L455.579 25.0947L477.047 23.9211L478.469 60.6936C478.736 67.6218 482.132 70.9075 488.656 70.5509C495.179 70.1942 498.307 66.5518 498.039 59.6237L496.618 22.8511L518.086 21.6775L519.604 60.9481C519.823 66.6106 518.642 71.4483 516.062 75.4613C513.549 79.4706 509.968 82.6038 505.319 84.8606C500.737 87.1139 495.417 88.4061 489.359 88.7373ZM563.277 84.6961C551.096 85.3621 541.733 83.0367 535.19 77.72C528.714 72.3997 525.27 64.4102 524.858 53.7515C524.436 42.8263 527.21 34.3633 533.182 28.3624C539.154 22.3615 548.264 19.0262 560.512 18.3566C564.64 18.131 568.279 18.2324 571.431 18.6609C574.583 19.0894 577.645 19.7899 580.618 20.7622L581.34 39.4483C578.227 38.2833 575.159 37.4497 572.138 36.9473C569.183 36.4412 566.042 36.2792 562.713 36.4611C557.321 36.7559 553.239 38.1473 550.467 40.6354C547.759 43.0533 546.512 47.0268 546.725 52.556C546.934 57.9519 548.546 61.7023 551.563 63.8072C554.644 65.8418 558.813 66.7153 564.072 66.4278C567.334 66.2495 570.451 65.7787 573.423 65.0154C576.393 64.1854 579.383 63.0206 582.394 61.5208L583.12 80.3068C580.232 81.5328 577.201 82.4996 574.027 83.2072C570.921 83.9778 567.338 84.4741 563.277 84.6961ZM589.23 82.2759L586.742 17.924L608.21 16.7503L609.08 39.2335L628.151 38.1909L627.282 15.7076L648.75 14.534L651.238 78.8859L629.77 80.0596L628.901 57.5764L609.829 58.619L610.698 81.1022L589.23 82.2759ZM657.507 59.4171L655.841 31.8705L655.157 14.1837L676.625 13.01L677.309 30.6968L677.676 58.3144L657.507 59.4171ZM657.246 78.5574L656.667 63.5686L678.933 62.3513L679.513 77.3401L657.246 78.5574Z"/>
</mask>
<path d="M50.5455 112.727C38.7631 113.372 29.6683 111.065 23.2612 105.808C16.8541 100.55 13.4432 92.5589 13.0286 81.8336C12.6087 70.9751 15.5166 62.5047 21.7521 56.4227C27.9876 50.3406 37.2296 46.9648 49.478 46.2951C53.6051 46.0695 57.2753 46.1025 60.4886 46.3941C63.7684 46.6821 66.9254 47.2439 69.9596 48.0794L70.6666 66.3657C67.5607 65.4006 64.4357 64.8038 61.2916 64.5751C58.1449 64.2798 54.9407 64.2214 51.6789 64.3997C46.2204 64.6981 42.0051 66.0968 39.0332 68.5958C36.0612 71.0948 34.6821 75.1089 34.8959 80.6381C35.102 85.9675 36.447 89.6991 38.931 91.8331C41.479 93.8968 45.0828 94.8013 49.7425 94.5465C52.6049 94.39 55.1216 93.9186 57.2925 93.1324L57.0376 86.5373L45.355 87.176L44.8489 74.0858L74.4048 72.4699L75.6719 105.245C73.1402 107.053 69.8007 108.671 65.6533 110.099C61.5059 111.527 56.47 112.404 50.5455 112.727ZM81.8827 110.013L79.3946 45.661L129.42 42.926L130.034 58.8142L101.477 60.3754L101.794 68.5693L126.657 67.21L127.286 83.4979L102.423 84.8571L102.736 92.9511L131.294 91.3898L131.908 107.278L81.8827 110.013ZM150.547 106.259L148.665 57.5953L131.491 58.5343L130.884 42.846L186.801 39.789L187.407 55.4773L170.133 56.4217L172.014 105.085L150.547 106.259ZM213.717 102.805L211.229 38.4535L232.697 37.2798L235.185 101.632L213.717 102.805ZM243.165 101.195L240.677 36.8435L258.75 35.8555L281.066 64.376L279.919 34.6982L301.387 33.5245L303.875 97.8765L285.602 98.8754L263.49 70.4439L264.633 100.022L243.165 101.195ZM345.568 95.5971L343.686 46.9334L326.512 47.8724L325.905 32.1841L381.822 29.1271L382.428 44.8154L365.154 45.7598L367.036 94.4234L345.568 95.5971ZM418.977 92.5851C411.788 92.9781 405.655 92.2119 400.577 90.2865C395.5 88.3611 391.535 85.0397 388.685 80.3222C385.901 75.6011 384.355 69.2769 384.049 61.3495C383.737 53.2888 384.785 46.756 387.193 41.751C389.668 36.7424 393.359 33.0025 398.267 30.5312C403.174 28.0599 409.223 26.6277 416.412 26.2347C423.601 25.8416 429.735 26.6078 434.812 28.5332C439.89 30.4586 443.821 33.7819 446.605 38.503C449.455 43.2204 451.037 49.6095 451.348 57.6701C451.655 65.5976 450.571 72.0656 448.096 77.0742C445.688 82.0791 442.03 85.8173 437.122 88.2886C432.215 90.7599 426.167 92.1921 418.977 92.5851ZM418.274 74.3987C422.401 74.173 425.318 72.8453 427.026 70.4154C428.799 67.982 429.585 64.1338 429.381 58.8711C429.167 53.3419 428.086 49.5291 426.137 47.4326C424.252 45.2659 421.246 44.2954 417.119 44.521C412.925 44.7503 409.94 46.0483 408.164 48.4152C406.452 50.7118 405.702 54.6247 405.916 60.154C406.12 65.4167 407.165 69.1647 409.052 71.3981C411.007 73.6277 414.08 74.628 418.274 74.3987ZM489.359 88.7373C483.368 89.0648 477.971 88.3585 473.167 86.6184C468.363 84.8783 464.522 82.1509 461.644 78.4364C458.832 74.7182 457.316 70.0278 457.097 64.3654L455.579 25.0947L477.047 23.9211L478.469 60.6936C478.736 67.6218 482.132 70.9075 488.656 70.5509C495.179 70.1942 498.307 66.5518 498.039 59.6237L496.618 22.8511L518.086 21.6775L519.604 60.9481C519.823 66.6106 518.642 71.4483 516.062 75.4613C513.549 79.4706 509.968 82.6038 505.319 84.8606C500.737 87.1139 495.417 88.4061 489.359 88.7373ZM563.277 84.6961C551.096 85.3621 541.733 83.0367 535.19 77.72C528.714 72.3997 525.27 64.4102 524.858 53.7515C524.436 42.8263 527.21 34.3633 533.182 28.3624C539.154 22.3615 548.264 19.0262 560.512 18.3566C564.64 18.131 568.279 18.2324 571.431 18.6609C574.583 19.0894 577.645 19.7899 580.618 20.7622L581.34 39.4483C578.227 38.2833 575.159 37.4497 572.138 36.9473C569.183 36.4412 566.042 36.2792 562.713 36.4611C557.321 36.7559 553.239 38.1473 550.467 40.6354C547.759 43.0533 546.512 47.0268 546.725 52.556C546.934 57.9519 548.546 61.7023 551.563 63.8072C554.644 65.8418 558.813 66.7153 564.072 66.4278C567.334 66.2495 570.451 65.7787 573.423 65.0154C576.393 64.1854 579.383 63.0206 582.394 61.5208L583.12 80.3068C580.232 81.5328 577.201 82.4996 574.027 83.2072C570.921 83.9778 567.338 84.4741 563.277 84.6961ZM589.23 82.2759L586.742 17.924L608.21 16.7503L609.08 39.2335L628.151 38.1909L627.282 15.7076L648.75 14.534L651.238 78.8859L629.77 80.0596L628.901 57.5764L609.829 58.619L610.698 81.1022L589.23 82.2759ZM657.507 59.4171L655.841 31.8705L655.157 14.1837L676.625 13.01L677.309 30.6968L677.676 58.3144L657.507 59.4171ZM657.246 78.5574L656.667 63.5686L678.933 62.3513L679.513 77.3401L657.246 78.5574Z" fill="#8A00DA"/>
<path d="M23.2612 105.808L14.9332 115.923L14.9332 115.923L23.2612 105.808ZM21.7521 56.4227L30.7393 65.672L30.7393 65.672L21.7521 56.4227ZM60.4886 46.3941L59.1124 59.3509C59.1249 59.352 59.1375 59.3531 59.1501 59.3542L60.4886 46.3941ZM69.9596 48.0794L82.9402 47.3697C82.724 41.7783 78.9569 37.0097 73.588 35.5313L69.9596 48.0794ZM70.6666 66.3657L66.638 78.7965C70.678 80.0519 75.1073 79.2388 78.4978 76.6195C81.8884 74.0001 83.8115 69.9056 83.6472 65.656L70.6666 66.3657ZM61.2916 64.5751L59.8762 77.5282C59.966 77.5366 60.056 77.5441 60.146 77.5507L61.2916 64.5751ZM39.0332 68.5958L47.2929 78.5041L47.2929 78.5041L39.0332 68.5958ZM38.931 91.8331L30.3833 101.764C30.4763 101.844 30.5704 101.923 30.6657 102L38.931 91.8331ZM57.2925 93.1324L61.5377 105.359C66.9467 103.4 70.4944 98.146 70.2732 92.4227L57.2925 93.1324ZM57.0376 86.5373L70.0182 85.8277C69.7408 78.6533 63.7043 73.1551 56.5353 73.547L57.0376 86.5373ZM45.355 87.176L32.3744 87.8857C32.6518 95.06 38.6882 100.558 45.8572 100.166L45.355 87.176ZM44.8489 74.0858L44.3467 61.0955C37.1777 61.4874 31.5909 67.6211 31.8683 74.7954L44.8489 74.0858ZM74.4048 72.4699L87.3854 71.7603C87.108 64.5859 81.0715 59.0877 73.9025 59.4796L74.4048 72.4699ZM75.6719 105.245L83.1 115.799C86.7311 113.207 88.8237 108.962 88.6526 104.536L75.6719 105.245ZM65.6533 110.099L61.6043 97.8035L61.6043 97.8035L65.6533 110.099ZM50.5455 112.727L50.0433 99.7372C40.1546 100.278 34.6724 98.2217 31.5892 95.6918L23.2612 105.808L14.9332 115.923C24.6643 123.908 37.3716 126.465 51.0477 125.718L50.5455 112.727ZM23.2612 105.808L31.5892 95.6918C28.7563 93.3672 26.3248 89.2878 26.0092 81.124L13.0286 81.8336L0.0479538 82.5433C0.56166 95.8301 4.95199 107.733 14.9332 115.923L23.2612 105.808ZM13.0286 81.8336L26.0092 81.124C25.6933 72.9535 27.8496 68.4906 30.7393 65.672L21.7521 56.4227L12.7649 47.1734C3.18358 56.5189 -0.475796 68.9966 0.0479538 82.5433L13.0286 81.8336ZM21.7521 56.4227L30.7393 65.672C33.8798 62.6088 39.585 59.8538 49.9802 59.2854L49.478 46.2951L48.9757 33.3049C34.8742 34.0758 22.0955 38.0724 12.7649 47.1734L21.7521 56.4227ZM49.478 46.2951L49.9802 59.2854C53.6436 59.0852 56.6665 59.1289 59.1124 59.3509L60.4886 46.3941L61.8648 33.4374C57.8842 33.0761 53.5667 33.0539 48.9757 33.3049L49.478 46.2951ZM60.4886 46.3941L59.1501 59.3542C61.6883 59.5771 64.0771 60.0068 66.3312 60.6275L69.9596 48.0794L73.588 35.5313C69.7738 34.481 65.8486 33.7872 61.8271 33.4341L60.4886 46.3941ZM69.9596 48.0794L56.979 48.789L57.686 67.0754L70.6666 66.3657L83.6472 65.656L82.9402 47.3697L69.9596 48.0794ZM70.6666 66.3657L74.6952 53.9349C70.6866 52.6893 66.5953 51.9019 62.4372 51.5995L61.2916 64.5751L60.146 77.5507C62.2761 77.7056 64.4349 78.112 66.638 78.7965L70.6666 66.3657ZM61.2916 64.5751L62.707 51.622C58.9042 51.2651 55.0586 51.1972 51.1766 51.4094L51.6789 64.3997L52.1811 77.39C54.8228 77.2456 57.3856 77.2945 59.8762 77.5282L61.2916 64.5751ZM51.6789 64.3997L51.1766 51.4094C44.035 51.7998 36.6894 53.713 30.7734 58.6875L39.0332 68.5958L47.2929 78.5041C47.3208 78.4807 48.4057 77.5964 52.1811 77.39L51.6789 64.3997ZM39.0332 68.5958L30.7734 58.6875C23.4694 64.8292 21.6166 73.6221 21.9153 81.3478L34.8959 80.6381L47.8765 79.9285C47.8137 78.3027 48.0204 77.6133 48.0465 77.5376C48.0522 77.521 48.0075 77.6544 47.8642 77.8689C47.7165 78.0899 47.5197 78.3134 47.2929 78.5041L39.0332 68.5958ZM34.8959 80.6381L21.9153 81.3478C22.1773 88.124 23.9428 96.2315 30.3833 101.764L38.931 91.8331L47.4786 81.9017C48.2151 82.5344 48.3656 83.066 48.2861 82.8454C48.1842 82.5629 47.9444 81.6851 47.8765 79.9285L34.8959 80.6381ZM38.931 91.8331L30.6657 102C36.5236 106.745 43.7042 107.894 50.2447 107.537L49.7425 94.5465L49.2403 81.5562C47.8976 81.6296 47.1705 81.507 46.8905 81.4367C46.6576 81.3783 46.8556 81.3903 47.1962 81.6661L38.931 91.8331ZM49.7425 94.5465L50.2447 107.537C54.0819 107.327 57.9057 106.674 61.5377 105.359L57.2925 93.1324L53.0474 80.9062C52.3375 81.1633 51.1279 81.453 49.2403 81.5562L49.7425 94.5465ZM57.2925 93.1324L70.2732 92.4227L70.0182 85.8277L57.0376 86.5373L44.0569 87.247L44.3119 93.842L57.2925 93.1324ZM57.0376 86.5373L56.5353 73.547L44.8528 74.1857L45.355 87.176L45.8572 100.166L57.5398 99.5276L57.0376 86.5373ZM45.355 87.176L58.3356 86.4663L57.8295 73.3761L44.8489 74.0858L31.8683 74.7954L32.3744 87.8857L45.355 87.176ZM44.8489 74.0858L45.3511 87.0761L74.907 85.4602L74.4048 72.4699L73.9025 59.4796L44.3467 61.0955L44.8489 74.0858ZM74.4048 72.4699L61.4241 73.1796L62.6913 105.955L75.6719 105.245L88.6526 104.536L87.3854 71.7603L74.4048 72.4699ZM75.6719 105.245L68.2439 94.6922C67.0814 95.5221 65.0045 96.6325 61.6043 97.8035L65.6533 110.099L69.7023 122.395C74.5968 120.709 79.1991 118.584 83.1 115.799L75.6719 105.245ZM65.6533 110.099L61.6043 97.8035C58.9305 98.7244 55.1617 99.4573 50.0433 99.7372L50.5455 112.727L51.0477 125.718C57.7783 125.35 64.0813 124.33 69.7023 122.395L65.6533 110.099ZM81.8827 110.013L68.902 110.723C69.1794 117.897 75.2159 123.395 82.3849 123.003L81.8827 110.013ZM79.3946 45.661L78.8924 32.6707C71.7234 33.0626 66.1366 39.1963 66.414 46.3706L79.3946 45.661ZM129.42 42.926L142.401 42.2164C142.123 35.042 136.087 29.5438 128.918 29.9357L129.42 42.926ZM130.034 58.8142L130.536 71.8045C137.705 71.4125 143.292 65.2789 143.015 58.1045L130.034 58.8142ZM101.477 60.3754L100.975 47.3851C93.8056 47.7771 88.2189 53.9107 88.4962 61.0851L101.477 60.3754ZM101.794 68.5693L88.813 69.279C89.0904 76.4533 95.1269 81.9515 102.296 81.5596L101.794 68.5693ZM126.657 67.21L139.637 66.5004C139.36 59.326 133.323 53.8278 126.154 54.2197L126.657 67.21ZM127.286 83.4979L127.788 96.4882C134.957 96.0962 140.544 89.9626 140.267 82.7882L127.286 83.4979ZM102.423 84.8571L101.921 71.8668C94.7521 72.2588 89.1654 78.3924 89.4428 85.5668L102.423 84.8571ZM102.736 92.9511L89.7557 93.6607C90.0331 100.835 96.0696 106.333 103.239 105.941L102.736 92.9511ZM131.294 91.3898L144.274 90.6802C143.997 83.5058 137.96 78.0076 130.791 78.3995L131.294 91.3898ZM131.908 107.278L132.41 120.268C139.579 119.876 145.166 113.743 144.889 106.568L131.908 107.278ZM81.8827 110.013L94.8633 109.303L92.3752 44.9513L79.3946 45.661L66.414 46.3706L68.902 110.723L81.8827 110.013ZM79.3946 45.661L79.8969 58.6512L129.922 55.9163L129.42 42.926L128.918 29.9357L78.8924 32.6707L79.3946 45.661ZM129.42 42.926L116.439 43.6357L117.054 59.5238L130.034 58.8142L143.015 58.1045L142.401 42.2164L129.42 42.926ZM130.034 58.8142L129.532 45.8239L100.975 47.3851L101.477 60.3754L101.979 73.3657L130.536 71.8045L130.034 58.8142ZM101.477 60.3754L88.4962 61.0851L88.813 69.279L101.794 68.5693L114.774 67.8596L114.457 59.6658L101.477 60.3754ZM101.794 68.5693L102.296 81.5596L127.159 80.2003L126.657 67.21L126.154 54.2197L101.291 55.579L101.794 68.5693ZM126.657 67.21L113.676 67.9197L114.306 84.2075L127.286 83.4979L140.267 82.7882L139.637 66.5004L126.657 67.21ZM127.286 83.4979L126.784 70.5076L101.921 71.8668L102.423 84.8571L102.926 97.8474L127.788 96.4882L127.286 83.4979ZM102.423 84.8571L89.4428 85.5668L89.7557 93.6607L102.736 92.9511L115.717 92.2414L115.404 84.1475L102.423 84.8571ZM102.736 92.9511L103.239 105.941L131.796 104.38L131.294 91.3898L130.791 78.3995L102.234 79.9608L102.736 92.9511ZM131.294 91.3898L118.313 92.0995L118.927 107.988L131.908 107.278L144.889 106.568L144.274 90.6802L131.294 91.3898ZM131.908 107.278L131.406 94.2877L81.3804 97.0226L81.8827 110.013L82.3849 123.003L132.41 120.268L131.908 107.278ZM150.547 106.259L137.566 106.969C137.843 114.143 143.88 119.641 151.049 119.249L150.547 106.259ZM148.665 57.5953L161.646 56.8857C161.368 49.7113 155.332 44.2131 148.163 44.605L148.665 57.5953ZM131.491 58.5343L118.51 59.2439C118.787 66.4183 124.824 71.9165 131.993 71.5246L131.491 58.5343ZM130.884 42.846L130.382 29.8557C123.213 30.2476 117.626 36.3813 117.904 43.5556L130.884 42.846ZM186.801 39.789L199.781 39.0793C199.504 31.905 193.467 26.4068 186.298 26.7987L186.801 39.789ZM187.407 55.4773L187.909 68.4676C195.078 68.0757 200.665 61.942 200.388 54.7676L187.407 55.4773ZM170.133 56.4217L169.631 43.4314C162.462 43.8233 156.875 49.957 157.152 57.1313L170.133 56.4217ZM172.014 105.085L172.517 118.076C179.686 117.684 185.272 111.55 184.995 104.376L172.014 105.085ZM150.547 106.259L163.527 105.549L161.646 56.8857L148.665 57.5953L135.684 58.305L137.566 106.969L150.547 106.259ZM148.665 57.5953L148.163 44.605L130.988 45.544L131.491 58.5343L131.993 71.5246L149.167 70.5856L148.665 57.5953ZM131.491 58.5343L144.471 57.8246L143.865 42.1363L130.884 42.846L117.904 43.5556L118.51 59.2439L131.491 58.5343ZM130.884 42.846L131.386 55.8363L187.303 52.7793L186.801 39.789L186.298 26.7987L130.382 29.8557L130.884 42.846ZM186.801 39.789L173.82 40.4987L174.427 56.1869L187.407 55.4773L200.388 54.7676L199.781 39.0793L186.801 39.789ZM187.407 55.4773L186.905 42.487L169.631 43.4314L170.133 56.4217L170.635 69.412L187.909 68.4676L187.407 55.4773ZM170.133 56.4217L157.152 57.1313L159.034 105.795L172.014 105.085L184.995 104.376L183.114 55.712L170.133 56.4217ZM172.014 105.085L171.512 92.095L150.044 93.2687L150.547 106.259L151.049 119.249L172.517 118.076L172.014 105.085ZM213.717 102.805L200.736 103.515C201.014 110.689 207.05 116.188 214.219 115.796L213.717 102.805ZM211.229 38.4535L210.727 25.4632C203.558 25.8551 197.971 31.9888 198.248 39.1631L211.229 38.4535ZM232.697 37.2798L245.678 36.5702C245.4 29.3958 239.364 23.8976 232.195 24.2895L232.697 37.2798ZM235.185 101.632L235.687 114.622C242.856 114.23 248.443 108.096 248.166 100.922L235.185 101.632ZM213.717 102.805L226.698 102.096L224.21 37.7438L211.229 38.4535L198.248 39.1631L200.736 103.515L213.717 102.805ZM211.229 38.4535L211.731 51.4438L233.199 50.2701L232.697 37.2798L232.195 24.2895L210.727 25.4632L211.229 38.4535ZM232.697 37.2798L219.716 37.9895L222.204 102.341L235.185 101.632L248.166 100.922L245.678 36.5702L232.697 37.2798ZM235.185 101.632L234.683 88.6415L213.215 89.8151L213.717 102.805L214.219 115.796L235.687 114.622L235.185 101.632ZM243.165 101.195L230.185 101.905C230.462 109.079 236.498 114.578 243.667 114.186L243.165 101.195ZM240.677 36.8435L240.175 23.8532C233.006 24.2452 227.419 30.3789 227.697 37.5532L240.677 36.8435ZM258.75 35.8555L269.024 27.7308C266.455 24.4482 262.442 22.6359 258.248 22.8652L258.75 35.8555ZM281.066 64.376L270.793 72.5007C274.249 76.9183 280.196 78.5474 285.504 76.5308C290.812 74.5142 294.265 69.3142 294.047 63.6664L281.066 64.376ZM279.919 34.6982L279.416 21.7079C272.247 22.0998 266.661 28.2335 266.938 35.4079L279.919 34.6982ZM301.387 33.5245L314.367 32.8149C314.09 25.6405 308.053 20.1423 300.884 20.5342L301.387 33.5245ZM303.875 97.8765L304.377 110.867C311.546 110.475 317.133 104.341 316.855 97.1668L303.875 97.8765ZM285.602 98.8754L275.306 106.971C277.872 110.271 281.897 112.096 286.104 111.866L285.602 98.8754ZM263.49 70.4439L273.786 62.3486C270.338 57.9154 264.387 56.2711 259.069 58.2825C253.752 60.2939 250.29 65.4988 250.509 71.1536L263.49 70.4439ZM264.633 100.022L265.135 113.012C272.304 112.62 277.891 106.486 277.614 99.3122L264.633 100.022ZM243.165 101.195L256.146 100.486L253.658 36.1339L240.677 36.8435L227.697 37.5532L230.185 101.905L243.165 101.195ZM240.677 36.8435L241.179 49.8338L259.252 48.8458L258.75 35.8555L258.248 22.8652L240.175 23.8532L240.677 36.8435ZM258.75 35.8555L248.477 43.9802L270.793 72.5007L281.066 64.376L291.339 56.2513L269.024 27.7308L258.75 35.8555ZM281.066 64.376L294.047 63.6664L292.899 33.9885L279.919 34.6982L266.938 35.4079L268.085 65.0857L281.066 64.376ZM279.919 34.6982L280.421 47.6885L301.889 46.5148L301.387 33.5245L300.884 20.5342L279.416 21.7079L279.919 34.6982ZM301.387 33.5245L288.406 34.2342L290.894 98.5861L303.875 97.8765L316.855 97.1668L314.367 32.8149L301.387 33.5245ZM303.875 97.8765L303.372 84.8862L285.1 85.8851L285.602 98.8754L286.104 111.866L304.377 110.867L303.875 97.8765ZM285.602 98.8754L295.898 90.7801L273.786 62.3486L263.49 70.4439L253.193 78.5393L275.306 106.971L285.602 98.8754ZM263.49 70.4439L250.509 71.1536L251.653 100.731L264.633 100.022L277.614 99.3122L276.47 69.7342L263.49 70.4439ZM264.633 100.022L264.131 87.0315L242.663 88.2052L243.165 101.195L243.667 114.186L265.135 113.012L264.633 100.022ZM345.568 95.5971L332.587 96.3067C332.865 103.481 338.901 108.979 346.07 108.587L345.568 95.5971ZM343.686 46.9334L356.667 46.2238C356.39 39.0494 350.353 33.5512 343.184 33.9431L343.686 46.9334ZM326.512 47.8724L313.531 48.582C313.809 55.7563 319.845 61.2546 327.014 60.8626L326.512 47.8724ZM325.905 32.1841L325.403 19.1938C318.234 19.5857 312.647 25.7194 312.925 32.8937L325.905 32.1841ZM381.822 29.1271L394.802 28.4174C394.525 21.2431 388.489 15.7449 381.32 16.1368L381.822 29.1271ZM382.428 44.8154L382.931 57.8057C390.1 57.4137 395.686 51.28 395.409 44.1057L382.428 44.8154ZM365.154 45.7598L364.652 32.7695C357.483 33.1614 351.896 39.2951 352.174 46.4694L365.154 45.7598ZM367.036 94.4234L367.538 107.414C374.707 107.022 380.294 100.888 380.016 93.7137L367.036 94.4234ZM345.568 95.5971L358.548 94.8874L356.667 46.2238L343.686 46.9334L330.706 47.6431L332.587 96.3067L345.568 95.5971ZM343.686 46.9334L343.184 33.9431L326.01 34.8821L326.512 47.8724L327.014 60.8626L344.189 59.9237L343.686 46.9334ZM326.512 47.8724L339.493 47.1627L338.886 31.4744L325.905 32.1841L312.925 32.8937L313.531 48.582L326.512 47.8724ZM325.905 32.1841L326.408 45.1744L382.324 42.1174L381.822 29.1271L381.32 16.1368L325.403 19.1938L325.905 32.1841ZM381.822 29.1271L368.841 29.8367L369.448 45.525L382.428 44.8154L395.409 44.1057L394.802 28.4174L381.822 29.1271ZM382.428 44.8154L381.926 31.8251L364.652 32.7695L365.154 45.7598L365.656 58.7501L382.931 57.8057L382.428 44.8154ZM365.154 45.7598L352.174 46.4694L354.055 95.1331L367.036 94.4234L380.016 93.7137L378.135 45.0501L365.154 45.7598ZM367.036 94.4234L366.533 81.4331L345.066 82.6068L345.568 95.5971L346.07 108.587L367.538 107.414L367.036 94.4234ZM400.577 90.2865L405.345 78.1105L400.577 90.2865ZM388.685 80.3222L377.472 87.0694C377.495 87.1087 377.519 87.1478 377.542 87.1869L388.685 80.3222ZM387.193 41.751L375.568 36.1311C375.548 36.1725 375.528 36.2141 375.508 36.2557L387.193 41.751ZM398.267 30.5312L392.579 18.9268L392.579 18.9268L398.267 30.5312ZM434.812 28.5332L439.58 16.3572L439.58 16.3572L434.812 28.5332ZM446.605 38.503L435.392 45.2501C435.415 45.2894 435.439 45.3286 435.462 45.3676L446.605 38.503ZM448.096 77.0742L436.471 71.4542C436.45 71.4957 436.43 71.5372 436.41 71.5789L448.096 77.0742ZM437.122 88.2886L431.435 76.6842L437.122 88.2886ZM427.026 70.4154L416.576 62.8546C416.53 62.917 416.485 62.9797 416.441 63.0428L427.026 70.4154ZM426.137 47.4326L416.284 56.0668C416.376 56.1721 416.469 56.2759 416.564 56.3782L426.137 47.4326ZM408.164 48.4152L397.825 40.705C397.816 40.7162 397.808 40.7273 397.799 40.7385L408.164 48.4152ZM409.052 71.398L399.081 79.8945C399.13 79.9525 399.18 80.01 399.23 80.0672L409.052 71.398ZM418.977 92.5851L418.475 79.5948C412.541 79.9192 408.305 79.2329 405.345 78.1105L400.577 90.2865L395.809 102.463C403.004 105.191 411.035 106.037 419.48 105.575L418.977 92.5851ZM400.577 90.2865L405.345 78.1105C402.975 77.2118 401.232 75.7821 399.827 73.4576L388.685 80.3222L377.542 87.1869C381.839 94.2972 388.024 99.5104 395.809 102.463L400.577 90.2865ZM388.685 80.3222L399.897 73.5751C398.56 71.3076 397.287 67.3059 397.029 60.6398L384.049 61.3495L371.068 62.0591C371.423 71.2478 373.241 79.8947 377.472 87.0694L388.685 80.3222ZM384.049 61.3495L397.029 60.6398C396.765 53.798 397.735 49.6236 398.879 47.2463L387.193 41.751L375.508 36.2557C371.835 43.8884 370.709 52.7796 371.068 62.0591L384.049 61.3495ZM387.193 41.751L398.818 47.371C400.038 44.903 401.664 43.2891 403.954 42.1356L398.267 30.5312L392.579 18.9268C385.055 22.7159 379.298 28.5819 375.568 36.1311L387.193 41.751ZM398.267 30.5312L403.954 42.1356C406.815 40.695 410.98 39.5494 416.914 39.2249L416.412 26.2347L415.91 13.2444C407.466 13.706 399.534 15.4247 392.579 18.9268L398.267 30.5312ZM416.412 26.2347L416.914 39.2249C422.849 38.9005 427.084 39.5869 430.044 40.7092L434.812 28.5332L439.58 16.3572C432.385 13.6287 424.354 12.7827 415.91 13.2444L416.412 26.2347ZM434.812 28.5332L430.044 40.7092C432.386 41.5973 434.061 42.9928 435.392 45.2501L446.605 38.503L457.817 31.7558C453.58 24.571 447.393 19.3199 439.58 16.3572L434.812 28.5332ZM446.605 38.503L435.462 45.3676C436.797 47.5762 438.105 51.5777 438.368 58.3798L451.348 57.6701L464.329 56.9605C463.969 47.6413 462.114 38.8647 457.747 31.6384L446.605 38.503ZM451.348 57.6701L438.368 58.3798C438.624 65.0052 437.643 69.0822 436.471 71.4542L448.096 77.0742L459.721 82.6941C463.498 75.049 464.686 66.1899 464.329 56.9605L451.348 57.6701ZM448.096 77.0742L436.41 71.5789C435.259 73.972 433.699 75.5443 431.435 76.6842L437.122 88.2886L442.81 99.893C450.361 96.0903 456.117 90.1863 459.782 82.5695L448.096 77.0742ZM437.122 88.2886L431.435 76.6842C428.574 78.1247 424.409 79.2704 418.475 79.5948L418.977 92.5851L419.48 105.575C427.924 105.114 435.856 103.395 442.81 99.893L437.122 88.2886ZM418.274 74.3987L418.776 87.389C425.212 87.0371 432.727 84.7385 437.61 77.7881L427.026 70.4154L416.441 63.0428C416.722 62.6435 417.061 62.2813 417.431 61.9804C417.796 61.6836 418.121 61.5036 418.339 61.4043C418.741 61.2217 418.668 61.3594 417.772 61.4084L418.274 74.3987ZM427.026 70.4154L437.476 77.9763C441.908 71.8956 442.601 64.3614 442.362 58.1615L429.381 58.8711L416.4 59.5808C416.475 61.5022 416.344 62.6822 416.219 63.2949C416.093 63.9125 416.052 63.5733 416.576 62.8546L427.026 70.4154ZM429.381 58.8711L442.362 58.1615C442.124 52.0018 440.946 44.1198 435.71 38.4871L426.137 47.4326L416.564 56.3782C415.747 55.4994 415.723 54.9465 415.909 55.6025C416.086 56.225 416.319 57.4758 416.4 59.5808L429.381 58.8711ZM426.137 47.4326L435.99 38.7984C430.553 32.5487 422.93 31.1855 416.617 31.5307L417.119 44.521L417.621 57.5113C418.555 57.4603 418.68 57.5888 418.306 57.4679C418.099 57.4012 417.77 57.2673 417.384 57.0196C416.992 56.7679 416.614 56.4455 416.284 56.0668L426.137 47.4326ZM417.119 44.521L416.617 31.5307C410.279 31.8772 402.831 34.0341 397.825 40.705L408.164 48.4152L418.503 56.1254C418.213 56.5117 417.879 56.8441 417.535 57.1086C417.198 57.3687 416.914 57.515 416.749 57.5868C416.454 57.7149 416.638 57.565 417.621 57.5113L417.119 44.521ZM408.164 48.4152L397.799 40.7385C393.218 46.8826 392.7 54.7664 392.935 60.8636L405.916 60.154L418.897 59.4443C418.814 57.3146 418.944 56.0066 419.074 55.3261C419.213 54.5997 419.249 55.1258 418.528 56.0919L408.164 48.4152ZM405.916 60.154L392.935 60.8636C393.173 66.9967 394.388 74.341 399.081 79.8945L409.052 71.398L419.024 62.9016C419.581 63.5608 419.55 63.8779 419.368 63.2276C419.191 62.5908 418.972 61.3923 418.897 59.4443L405.916 60.154ZM409.052 71.398L399.23 80.0672C404.697 86.3052 412.321 87.7419 418.776 87.389L418.274 74.3987L417.772 61.4084C416.825 61.4602 416.673 61.3301 417.014 61.4413C417.203 61.5026 417.506 61.6267 417.864 61.8567C418.227 62.0901 418.575 62.3863 418.875 62.7289L409.052 71.398ZM473.167 86.6184L468.577 98.8606L473.167 86.6184ZM461.644 78.4364L451.243 86.3956C451.273 86.4354 451.303 86.4749 451.334 86.5143L461.644 78.4364ZM455.579 25.0947L455.077 12.1044C447.908 12.4964 442.321 18.6301 442.598 25.8044L455.579 25.0947ZM477.047 23.9211L490.027 23.2114C489.75 16.0371 483.714 10.5388 476.545 10.9308L477.047 23.9211ZM496.618 22.8511L496.115 9.86084C488.946 10.2528 483.36 16.3864 483.637 23.5608L496.618 22.8511ZM518.086 21.6775L531.066 20.9678C530.789 13.7935 524.752 8.29524 517.583 8.68717L518.086 21.6775ZM516.062 75.4613L505.173 68.5423C505.145 68.5849 505.118 68.6276 505.091 68.6705L516.062 75.4613ZM505.319 84.8606L499.804 73.1709C499.784 73.1806 499.764 73.1904 499.744 73.2002L505.319 84.8606ZM489.359 88.7373L488.857 75.747C484.314 75.9954 480.686 75.4375 477.757 74.3762L473.167 86.6184L468.577 98.8606C475.255 101.28 482.422 102.134 489.861 101.728L489.359 88.7373ZM473.167 86.6184L477.757 74.3762C475.018 73.3843 473.234 72.0105 471.953 70.3584L461.644 78.4364L451.334 86.5143C455.811 92.2914 461.709 96.3723 468.577 98.8606L473.167 86.6184ZM461.644 78.4364L472.044 70.4772C471.112 69.2448 470.216 67.2368 470.078 63.6558L457.097 64.3654L444.117 65.0751C444.416 72.8188 446.551 80.1915 451.243 86.3956L461.644 78.4364ZM457.097 64.3654L470.078 63.6558L468.56 24.3851L455.579 25.0947L442.598 25.8044L444.117 65.0751L457.097 64.3654ZM455.579 25.0947L456.081 38.085L477.549 36.9114L477.047 23.9211L476.545 10.9308L455.077 12.1044L455.579 25.0947ZM477.047 23.9211L464.066 24.6307L465.488 61.4033L478.469 60.6936L491.449 59.9839L490.027 23.2114L477.047 23.9211ZM478.469 60.6936L465.488 61.4033C465.692 66.6838 467.167 72.993 472.114 77.7793C477.202 82.7031 483.692 83.84 489.158 83.5412L488.656 70.5509L488.153 57.5606C487.635 57.589 487.726 57.5107 488.205 57.6521C488.755 57.8146 489.562 58.1964 490.319 58.9288C491.87 60.4294 491.513 61.6316 491.449 59.9839L478.469 60.6936ZM488.656 70.5509L489.158 83.5412C494.624 83.2423 500.999 81.4021 505.686 75.9439C510.242 70.638 511.224 64.1945 511.02 58.914L498.039 59.6237L485.059 60.3333C485.122 61.981 484.674 60.8227 486.103 59.1593C486.8 58.3474 487.574 57.8792 488.109 57.6573C488.575 57.4643 488.672 57.5322 488.153 57.5606L488.656 70.5509ZM498.039 59.6237L511.02 58.914L509.598 22.1415L496.618 22.8511L483.637 23.5608L485.059 60.3333L498.039 59.6237ZM496.618 22.8511L497.12 35.8414L518.588 34.6678L518.086 21.6775L517.583 8.68717L496.115 9.86084L496.618 22.8511ZM518.086 21.6775L505.105 22.3871L506.623 61.6578L519.604 60.9481L532.584 60.2385L531.066 20.9678L518.086 21.6775ZM519.604 60.9481L506.623 61.6578C506.759 65.1746 506.019 67.2259 505.173 68.5423L516.062 75.4613L526.952 82.3802C531.265 75.6707 532.886 68.0466 532.584 60.2385L519.604 60.9481ZM516.062 75.4613L505.091 68.6705C504.026 70.3703 502.433 71.8949 499.804 73.1709L505.319 84.8606L510.834 96.5504C517.503 93.3126 523.072 88.571 527.033 82.2521L516.062 75.4613ZM505.319 84.8606L499.744 73.2002C497.029 74.5354 493.493 75.4935 488.857 75.747L489.359 88.7373L489.861 101.728C497.34 101.319 504.444 99.6924 510.894 96.5211L505.319 84.8606ZM535.19 77.72L526.857 87.8312C526.874 87.8456 526.892 87.8599 526.909 87.8741L535.19 77.72ZM533.182 28.3624L542.31 37.4723L542.31 37.4723L533.182 28.3624ZM571.431 18.6609L569.483 31.5529L571.431 18.6609ZM580.618 20.7622L593.598 20.0526C593.391 14.6848 589.906 10.0501 584.827 8.38913L580.618 20.7622ZM581.34 39.4483L576.625 51.6442C580.705 53.1707 585.311 52.5235 588.878 49.9227C592.444 47.3218 594.49 43.1173 594.321 38.7386L581.34 39.4483ZM572.138 36.9473L569.751 49.7718C569.771 49.7753 569.792 49.7788 569.812 49.7822L572.138 36.9473ZM550.467 40.6354L559.025 50.2856C559.033 50.2778 559.042 50.27 559.051 50.2622L550.467 40.6354ZM551.563 63.8072L544.023 74.5201C544.112 74.582 544.202 74.6427 544.292 74.7023L551.563 63.8072ZM573.423 65.0154L576.461 77.6142C576.551 77.5912 576.64 77.5673 576.729 77.5424L573.423 65.0154ZM582.394 61.5208L595.374 60.8112C595.205 56.4325 592.843 52.469 589.091 50.2682C585.339 48.0674 580.703 47.9255 576.757 49.8908L582.394 61.5208ZM583.12 80.3068L588.028 92.2725C593.086 90.1253 596.312 85.0596 596.101 79.5971L583.12 80.3068ZM574.027 83.2072L571.397 70.5104C571.295 70.5331 571.193 70.557 571.092 70.5822L574.027 83.2072ZM563.277 84.6961L562.775 71.7058C552.411 72.2724 546.665 70.161 543.472 67.5659L535.19 77.72L526.909 87.8741C536.801 95.9125 549.78 98.4518 563.78 97.6864L563.277 84.6961ZM535.19 77.72L543.524 67.6089C540.569 65.1813 538.149 61.0599 537.839 53.0418L524.858 53.7515L511.877 54.4611C512.392 67.7604 516.859 79.6181 526.857 87.8312L535.19 77.72ZM524.858 53.7515L537.839 53.0418C537.512 44.6014 539.66 40.1356 542.31 37.4723L533.182 28.3624L524.054 19.2525C514.761 28.5909 511.359 41.0512 511.877 54.4611L524.858 53.7515ZM533.182 28.3624L542.31 37.4723C545.106 34.6628 550.537 31.9197 561.015 31.3469L560.512 18.3566L560.01 5.36631C545.991 6.13273 533.202 10.0602 524.054 19.2525L533.182 28.3624ZM560.512 18.3566L561.015 31.3469C564.549 31.1537 567.338 31.2613 569.483 31.5529L571.431 18.6609L573.379 5.76896C569.22 5.20351 564.731 5.10824 560.01 5.36631L560.512 18.3566ZM571.431 18.6609L569.483 31.5529C571.877 31.8783 574.182 32.4071 576.408 33.1353L580.618 20.7622L584.827 8.38913C581.108 7.17263 577.289 6.30049 573.379 5.76896L571.431 18.6609ZM580.618 20.7622L567.637 21.4719L568.36 40.1579L581.34 39.4483L594.321 38.7386L593.598 20.0526L580.618 20.7622ZM581.34 39.4483L586.055 27.2523C582.236 25.8232 578.369 24.7618 574.464 24.1123L572.138 36.9473L569.812 49.7822C571.949 50.1375 574.218 50.7434 576.625 51.6442L581.34 39.4483ZM572.138 36.9473L574.525 24.1227C570.522 23.4371 566.405 23.2416 562.211 23.4708L562.713 36.4611L563.216 49.4514C565.679 49.3168 567.844 49.4453 569.751 49.7718L572.138 36.9473ZM562.713 36.4611L562.211 23.4708C555.169 23.8558 547.729 25.7623 541.883 31.0086L550.467 40.6354L559.051 50.2622C558.75 50.5324 559.474 49.656 563.216 49.4514L562.713 36.4611ZM550.467 40.6354L541.909 30.9853C534.956 37.1928 533.462 45.9446 533.745 53.2656L546.725 52.556L559.706 51.8463C559.639 50.1069 559.837 49.3097 559.887 49.15C559.904 49.0956 559.87 49.2266 559.721 49.4665C559.567 49.7158 559.335 50.0082 559.025 50.2856L550.467 40.6354ZM546.725 52.556L533.745 53.2656C534.035 60.7679 536.435 69.225 544.023 74.5201L551.563 63.8072L559.103 53.0942C559.381 53.2882 559.618 53.5179 559.798 53.7451C559.972 53.9656 560.036 54.1128 560.035 54.1109C560.015 54.0647 559.767 53.4313 559.706 51.8463L546.725 52.556ZM551.563 63.8072L544.292 74.7023C550.438 78.7619 557.667 79.7958 564.574 79.4181L564.072 66.4278L563.57 53.4375C559.96 53.6349 558.849 52.9217 558.834 52.9121L551.563 63.8072ZM564.072 66.4278L564.574 79.4181C568.634 79.1962 572.603 78.605 576.461 77.6142L573.423 65.0154L570.385 52.4165C568.298 52.9524 566.034 53.3028 563.57 53.4375L564.072 66.4278ZM573.423 65.0154L576.729 77.5424C580.568 76.4696 584.337 74.9907 588.03 73.1509L582.394 61.5208L576.757 49.8908C574.43 51.0505 572.218 51.9013 570.117 52.4884L573.423 65.0154ZM582.394 61.5208L569.413 62.2305L570.139 81.0165L583.12 80.3068L596.101 79.5971L595.374 60.8112L582.394 61.5208ZM583.12 80.3068L578.212 68.3411C576.089 69.2423 573.823 69.9696 571.397 70.5104L574.027 83.2072L576.656 95.9041C580.579 95.0296 584.375 93.8233 588.028 92.2725L583.12 80.3068ZM574.027 83.2072L571.092 70.5822C568.968 71.1093 566.228 71.5171 562.775 71.7058L563.277 84.6961L563.78 97.6864C568.448 97.4312 572.874 96.8463 576.961 95.8323L574.027 83.2072ZM589.23 82.2759L576.25 82.9855C576.527 90.1599 582.564 95.6581 589.733 95.2662L589.23 82.2759ZM586.742 17.924L586.24 4.93366C579.071 5.3256 573.484 11.4593 573.762 18.6336L586.742 17.924ZM608.21 16.7503L621.191 16.0406C620.914 8.8663 614.877 3.36807 607.708 3.76L608.21 16.7503ZM609.08 39.2335L596.099 39.9432C596.376 47.1175 602.413 52.6157 609.582 52.2238L609.08 39.2335ZM628.151 38.1909L628.653 51.1811C635.822 50.7892 641.409 44.6555 641.132 37.4812L628.151 38.1909ZM627.282 15.7076L626.78 2.71735C619.611 3.10928 614.024 9.24296 614.301 16.4173L627.282 15.7076ZM648.75 14.534L661.73 13.8243C661.453 6.64998 655.417 1.15175 648.248 1.54369L648.75 14.534ZM651.238 78.8859L651.74 91.8762C658.909 91.4843 664.496 85.3506 664.218 78.1763L651.238 78.8859ZM629.77 80.0596L616.789 80.7692C617.067 87.9436 623.103 93.4418 630.272 93.0499L629.77 80.0596ZM628.901 57.5764L641.881 56.8667C641.604 49.6924 635.567 44.1941 628.398 44.5861L628.901 57.5764ZM609.829 58.619L609.327 45.6287C602.158 46.0207 596.571 52.1543 596.848 59.3287L609.829 58.619ZM610.698 81.1022L611.201 94.0925C618.37 93.7006 623.956 87.5669 623.679 80.3926L610.698 81.1022ZM589.23 82.2759L602.211 81.5662L599.723 17.2143L586.742 17.924L573.762 18.6336L576.25 82.9855L589.23 82.2759ZM586.742 17.924L587.245 30.9143L608.713 29.7406L608.21 16.7503L607.708 3.76L586.24 4.93366L586.742 17.924ZM608.21 16.7503L595.23 17.46L596.099 39.9432L609.08 39.2335L622.06 38.5238L621.191 16.0406L608.21 16.7503ZM609.08 39.2335L609.582 52.2238L628.653 51.1811L628.151 38.1909L627.649 25.2006L608.577 26.2432L609.08 39.2335ZM628.151 38.1909L641.132 37.4812L640.262 14.998L627.282 15.7076L614.301 16.4173L615.17 38.9005L628.151 38.1909ZM627.282 15.7076L627.784 28.6979L649.252 27.5243L648.75 14.534L648.248 1.54369L626.78 2.71735L627.282 15.7076ZM648.75 14.534L635.769 15.2436L638.257 79.5956L651.238 78.8859L664.218 78.1763L661.73 13.8243L648.75 14.534ZM651.238 78.8859L650.736 65.8956L629.268 67.0693L629.77 80.0596L630.272 93.0499L651.74 91.8762L651.238 78.8859ZM629.77 80.0596L642.75 79.3499L641.881 56.8667L628.901 57.5764L615.92 58.286L616.789 80.7692L629.77 80.0596ZM628.901 57.5764L628.398 44.5861L609.327 45.6287L609.829 58.619L610.331 71.6093L629.403 70.5667L628.901 57.5764ZM609.829 58.619L596.848 59.3287L597.718 81.8119L610.698 81.1022L623.679 80.3926L622.81 57.9094L609.829 58.619ZM610.698 81.1022L610.196 68.1119L588.728 69.2856L589.23 82.2759L589.733 95.2662L611.201 94.0925L610.698 81.1022ZM657.507 59.4171L644.54 60.4089C644.966 67.4632 650.95 72.7933 658.009 72.4074L657.507 59.4171ZM655.841 31.8705L642.861 32.5801C642.864 32.6742 642.869 32.7683 642.875 32.8623L655.841 31.8705ZM655.157 14.1837L654.655 1.19337C647.486 1.58531 641.899 7.71899 642.177 14.8933L655.157 14.1837ZM676.625 13.01L689.606 12.3003C689.329 5.12601 683.292 -0.372222 676.123 0.0197104L676.625 13.01ZM677.309 30.6968L690.298 30.3167C690.297 30.2068 690.294 30.0969 690.29 29.9871L677.309 30.6968ZM677.677 58.3144L678.179 71.3047C685.22 70.9198 690.759 64.9879 690.666 57.9343L677.677 58.3144ZM657.246 78.5574L644.265 79.2671C644.543 86.4414 650.579 91.9397 657.748 91.5477L657.246 78.5574ZM656.667 63.5686L656.164 50.5783C648.995 50.9703 643.409 57.104 643.686 64.2783L656.667 63.5686ZM678.933 62.3513L691.914 61.6416C691.636 54.4673 685.6 48.9691 678.431 49.361L678.933 62.3513ZM679.513 77.3401L680.015 90.3304C687.184 89.9385 692.771 83.8048 692.493 76.6304L679.513 77.3401ZM657.507 59.4171L670.473 58.4253L668.808 30.8786L655.841 31.8705L642.875 32.8623L644.54 60.4089L657.507 59.4171ZM655.841 31.8705L668.822 31.1608L668.138 13.474L655.157 14.1837L642.177 14.8933L642.861 32.5801L655.841 31.8705ZM655.157 14.1837L655.66 27.174L677.128 26.0003L676.625 13.01L676.123 0.0197104L654.655 1.19337L655.157 14.1837ZM676.625 13.01L663.645 13.7197L664.329 31.4065L677.309 30.6968L690.29 29.9871L689.606 12.3003L676.625 13.01ZM677.309 30.6968L664.32 31.0769L664.687 58.6945L677.677 58.3144L690.666 57.9343L690.298 30.3167L677.309 30.6968ZM677.677 58.3144L677.174 45.3241L657.004 46.4268L657.507 59.4171L658.009 72.4074L678.179 71.3047L677.677 58.3144ZM657.246 78.5574L670.227 77.8478L669.647 62.859L656.667 63.5686L643.686 64.2783L644.265 79.2671L657.246 78.5574ZM656.667 63.5686L657.169 76.5589L679.435 75.3416L678.933 62.3513L678.431 49.361L656.164 50.5783L656.667 63.5686ZM678.933 62.3513L665.953 63.061L666.532 78.0498L679.513 77.3401L692.493 76.6304L691.914 61.6416L678.933 62.3513ZM679.513 77.3401L679.011 64.3498L656.744 65.5671L657.246 78.5574L657.748 91.5477L680.015 90.3304L679.513 77.3401Z" fill="white" mask="url(#path-1-outside-1_1404_2712)"/>
</g>
<defs>
<filter id="filter0_d_1404_2712" x="0" y="0" width="692.504" height="128.72" filterUnits="userSpaceOnUse" color-interpolation-filters="sRGB">
<feFlood flood-opacity="0" result="BackgroundImageFix"/>
<feColorMatrix in="SourceAlpha" type="matrix" values="0 0 0 0 0 0 0 0 0 0 0 0 0 0 0 0 0 0 127 0" result="hardAlpha"/>
<feOffset dy="2.87819"/>
<feComposite in2="hardAlpha" operator="out"/>
<feColorMatrix type="matrix" values="0 0 0 0 0 0 0 0 0 0 0 0 0 0 0 0 0 0 0.25 0"/>
<feBlend mode="normal" in2="BackgroundImageFix" result="effect1_dropShadow_1404_2712"/>
<feBlend mode="normal" in="SourceGraphic" in2="effect1_dropShadow_1404_2712" result="shape"/>
</filter>
</defs>
</svg>
