<svg width="328" height="332" viewBox="0 0 328 332" fill="none" xmlns="http://www.w3.org/2000/svg">
<g filter="url(#filter0_d_1474_3385)">
<path d="M289.589 187.325C300.152 190.916 307.994 196.41 312.399 204.144C316.847 211.952 317.156 220.859 313.896 230.447C312.057 235.857 309.424 240.357 305.869 243.735L305.87 243.736C304.594 244.997 303.239 246.118 301.806 247.092C301.511 247.293 301.139 247.774 300.986 248.497C300.833 249.219 300.989 249.738 301.144 249.972C302.413 251.88 303.415 253.899 304.141 256.026L304.142 256.027C305.905 260.964 305.301 266.796 303.156 273.106C299.708 283.248 293.599 290.472 284.688 294.171C275.859 297.836 265.678 297.444 254.476 293.635L254.327 293.585L254.184 293.522L202.105 271.002C198.41 269.404 196.553 265.242 197.833 261.425L227.045 174.282C228.41 170.211 232.823 168.027 236.887 169.408L289.589 187.325ZM262.764 254.161C262.278 253.374 261.059 252.298 258.255 251.345L245.384 246.968L242.258 256.162L255.436 260.642C258.059 261.534 259.548 261.362 260.361 261.004C261.095 260.681 262.023 259.876 262.774 257.668C263.414 255.785 263.153 254.792 262.764 254.161ZM274.124 216.75C273.848 216.188 272.907 215.144 270.038 214.169L257.933 210.052L255.015 218.633L267.582 222.906C270.07 223.752 271.443 223.587 272.151 223.285C272.759 223.025 273.578 222.365 274.251 220.387C274.857 218.602 274.626 217.628 274.256 216.994L274.186 216.874L274.124 216.75Z" fill="#9E00F9" stroke="white" stroke-width="7.76296"/>
<mask id="mask0_1474_3385" style="mask-type:alpha" maskUnits="userSpaceOnUse" x="193" y="165" width="127" height="136">
<path d="M289.585 187.325C300.148 190.916 307.991 196.41 312.395 204.144C316.843 211.952 317.152 220.859 313.892 230.448C312.053 235.858 309.42 240.357 305.865 243.735L305.866 243.736C304.59 244.997 303.235 246.119 301.802 247.093C301.507 247.293 301.136 247.774 300.982 248.497C300.829 249.219 300.985 249.738 301.14 249.972C302.409 251.88 303.411 253.9 304.137 256.026L304.138 256.027C305.901 260.964 305.297 266.796 303.152 273.106C299.704 283.248 293.595 290.472 284.684 294.171C275.855 297.836 265.674 297.444 254.472 293.635L254.323 293.585L254.18 293.523L202.101 271.002C198.406 269.404 196.549 265.243 197.829 261.425L227.041 174.282C228.406 170.211 232.819 168.027 236.883 169.408L289.585 187.325ZM262.76 254.162C262.274 253.374 261.055 252.298 258.251 251.345L245.38 246.969L242.254 256.162L255.432 260.643C258.056 261.534 259.544 261.362 260.357 261.004C261.091 260.681 262.019 259.876 262.77 257.668C263.41 255.785 263.149 254.792 262.76 254.162ZM274.121 216.75C273.844 216.188 272.903 215.145 270.034 214.169L257.929 210.052L255.011 218.633L267.578 222.906C270.066 223.752 271.439 223.587 272.147 223.285C272.755 223.026 273.574 222.365 274.247 220.387C274.854 218.603 274.622 217.628 274.252 216.994L274.182 216.874L274.121 216.75Z" fill="#9E00F9" stroke="#FFEE00" stroke-width="7.76296"/>
</mask>
<g mask="url(#mask0_1474_3385)">
<rect x="255.336" y="162.667" width="39.1774" height="134.873" transform="rotate(33.0919 255.336 162.667)" fill="#FFFCC7" fill-opacity="0.3"/>
<rect x="309.176" y="180.611" width="13.6279" height="134.873" transform="rotate(32.5581 309.176 180.611)" fill="#FFFCC7" fill-opacity="0.3"/>
<rect x="333.875" y="194.263" width="5.80265" height="134.873" transform="rotate(32.5581 333.875 194.263)" fill="#FFFCC7" fill-opacity="0.3"/>
</g>
</g>
<g filter="url(#filter1_d_1474_3385)">
<g filter="url(#filter2_d_1474_3385)">
<path d="M112.889 151.263C114.38 125.667 136.338 106.125 161.934 107.616L240.019 112.163C254.909 113.03 271.57 123.457 279.414 134.863L266.337 195.2C263.484 195.66 255.113 206.048 234.622 204.855L156.536 200.308C130.94 198.818 111.399 176.859 112.889 151.263ZM230.402 130.133C224.25 129.628 219.075 130.245 214.875 131.982C210.679 133.666 207.253 136.375 204.598 140.107C201.942 143.84 199.773 148.494 198.087 154.068C197.199 157.092 196.648 159.903 196.434 162.501C195.96 168.281 197.24 172.845 200.276 176.19C203.364 179.54 208.197 181.484 214.772 182.024C220.977 182.533 226.151 181.943 230.294 180.254C234.493 178.517 237.921 175.782 240.576 172.05C243.284 168.321 245.455 163.667 247.088 158.089C247.528 156.63 247.855 155.243 248.07 153.926C248.342 152.56 248.53 151.24 248.635 149.968C249.096 144.347 247.868 139.788 244.952 136.292C242.093 132.747 237.243 130.694 230.402 130.133ZM178.119 167.405C178 167.395 177.891 167.47 177.858 167.584L174.894 177.647C174.849 177.8 174.956 177.956 175.115 177.969L186.376 178.894C186.495 178.903 186.603 178.828 186.637 178.714L189.601 168.65C189.646 168.497 189.539 168.342 189.381 168.329L178.119 167.405ZM218.418 145.406C220.461 143.278 223.206 142.356 226.653 142.638C229.305 142.856 231.113 143.591 232.078 144.845C233.047 146.045 233.438 147.786 233.251 150.066C233.173 151.021 233.008 152.049 232.758 153.15C232.507 154.25 232.193 155.479 231.814 156.836C230.49 161.265 228.804 164.57 226.756 166.751C224.713 168.879 221.968 169.801 218.522 169.518C215.817 169.296 213.978 168.612 213.004 167.464C212.035 166.264 211.638 164.602 211.812 162.481C211.973 160.519 212.488 158.132 213.359 155.321C214.688 150.839 216.375 147.534 218.418 145.406ZM169.98 125.975C169.914 125.969 169.848 125.99 169.797 126.033L135.266 155.106C135.228 155.138 135.202 155.18 135.188 155.227L132.426 164.472C132.381 164.625 132.487 164.781 132.646 164.794L155.338 166.656C155.496 166.669 155.602 166.825 155.558 166.977L152.953 175.848C152.908 176 153.015 176.156 153.173 176.169L167.617 177.354C167.735 177.364 167.844 177.288 167.878 177.174L170.541 168.105C170.575 167.991 170.685 167.915 170.803 167.925L175.011 168.271C175.129 168.28 175.237 168.206 175.271 168.093L178.739 156.71C178.786 156.557 178.679 156.399 178.519 156.386L174.524 156.058C174.366 156.045 174.26 155.89 174.305 155.737L182.754 127.328C182.799 127.175 182.693 127.019 182.534 127.005L169.98 125.975ZM167.808 140.403C168.008 140.261 168.272 140.462 168.189 140.693L163.358 154.111C163.322 154.212 163.224 154.279 163.117 154.277L149.434 154.014C149.192 154.009 149.095 153.697 149.293 153.557L167.808 140.403Z" fill="url(#paint0_linear_1474_3385)"/>
<path d="M112.889 151.263C114.38 125.667 136.338 106.125 161.934 107.616L240.019 112.163C254.909 113.03 271.57 123.457 279.414 134.863L266.337 195.2C263.484 195.66 255.113 206.048 234.622 204.855L156.536 200.308C130.94 198.818 111.399 176.859 112.889 151.263ZM230.402 130.133C224.25 129.628 219.075 130.245 214.875 131.982C210.679 133.666 207.253 136.375 204.598 140.107C201.942 143.84 199.773 148.494 198.087 154.068C197.199 157.092 196.648 159.903 196.434 162.501C195.96 168.281 197.24 172.845 200.276 176.19C203.364 179.54 208.197 181.484 214.772 182.024C220.977 182.533 226.151 181.943 230.294 180.254C234.493 178.517 237.921 175.782 240.576 172.05C243.284 168.321 245.455 163.667 247.088 158.089C247.528 156.63 247.855 155.243 248.07 153.926C248.342 152.56 248.53 151.24 248.635 149.968C249.096 144.347 247.868 139.788 244.952 136.292C242.093 132.747 237.243 130.694 230.402 130.133ZM178.119 167.405C178 167.395 177.891 167.47 177.858 167.584L174.894 177.647C174.849 177.8 174.956 177.956 175.115 177.969L186.376 178.894C186.495 178.903 186.603 178.828 186.637 178.714L189.601 168.65C189.646 168.497 189.539 168.342 189.381 168.329L178.119 167.405ZM218.418 145.406C220.461 143.278 223.206 142.356 226.653 142.638C229.305 142.856 231.113 143.591 232.078 144.845C233.047 146.045 233.438 147.786 233.251 150.066C233.173 151.021 233.008 152.049 232.758 153.15C232.507 154.25 232.193 155.479 231.814 156.836C230.49 161.265 228.804 164.57 226.756 166.751C224.713 168.879 221.968 169.801 218.522 169.518C215.817 169.296 213.978 168.612 213.004 167.464C212.035 166.264 211.638 164.602 211.812 162.481C211.973 160.519 212.488 158.132 213.359 155.321C214.688 150.839 216.375 147.534 218.418 145.406ZM169.98 125.975C169.914 125.969 169.848 125.99 169.797 126.033L135.266 155.106C135.228 155.138 135.202 155.18 135.188 155.227L132.426 164.472C132.381 164.625 132.487 164.781 132.646 164.794L155.338 166.656C155.496 166.669 155.602 166.825 155.558 166.977L152.953 175.848C152.908 176 153.015 176.156 153.173 176.169L167.617 177.354C167.735 177.364 167.844 177.288 167.878 177.174L170.541 168.105C170.575 167.991 170.685 167.915 170.803 167.925L175.011 168.271C175.129 168.28 175.237 168.206 175.271 168.093L178.739 156.71C178.786 156.557 178.679 156.399 178.519 156.386L174.524 156.058C174.366 156.045 174.26 155.89 174.305 155.737L182.754 127.328C182.799 127.175 182.693 127.019 182.534 127.005L169.98 125.975ZM167.808 140.403C168.008 140.261 168.272 140.462 168.189 140.693L163.358 154.111C163.322 154.212 163.224 154.279 163.117 154.277L149.434 154.014C149.192 154.009 149.095 153.697 149.293 153.557L167.808 140.403Z" fill="#FFEE00"/>
</g>
<path d="M230.454 129.903C237.326 130.467 242.255 132.534 245.175 136.152L245.449 136.489C248.219 140 249.367 144.516 248.916 150.009C248.811 151.289 248.621 152.615 248.348 153.986C248.131 155.314 247.801 156.713 247.359 158.18C245.72 163.779 243.54 168.461 240.811 172.217C238.129 175.987 234.664 178.752 230.42 180.508L230.419 180.509C226.229 182.217 221.012 182.806 214.783 182.295C208.173 181.753 203.269 179.795 200.122 176.381L200.121 176.379C197.027 172.968 195.737 168.33 196.215 162.501C196.43 159.883 196.985 157.055 197.877 154.018L197.877 154.016C199.568 148.423 201.75 143.743 204.425 139.983C207.108 136.212 210.571 133.472 214.812 131.769C219.059 130.013 224.277 129.397 230.454 129.903ZM182.585 126.776C182.903 126.802 183.117 127.114 183.026 127.42L174.576 155.829L178.571 156.156C178.89 156.183 179.103 156.497 179.01 156.804L175.543 168.187C175.474 168.413 175.256 168.562 175.021 168.542L170.813 168.197L168.151 177.265C168.084 177.494 167.865 177.645 167.627 177.625L153.184 176.44C152.866 176.414 152.653 176.103 152.743 175.797L155.348 166.928L132.656 165.066C132.339 165.04 132.125 164.727 132.217 164.421L134.977 155.176C135.005 155.082 135.06 154.998 135.135 154.935L169.666 125.862C169.768 125.776 169.9 125.735 170.032 125.746L182.585 126.776ZM189.433 168.099C189.75 168.126 189.963 168.437 189.873 168.742L186.909 178.806C186.841 179.034 186.624 179.184 186.387 179.165L175.125 178.24C174.807 178.214 174.595 177.903 174.684 177.598L177.647 167.534C177.715 167.306 177.933 167.156 178.171 167.175L189.433 168.099ZM226.663 142.909C223.277 142.632 220.612 143.537 218.63 145.6C216.626 147.687 214.956 150.95 213.632 155.414L213.631 155.417C212.763 158.218 212.251 160.586 212.092 162.523C211.922 164.604 212.315 166.193 213.231 167.327L213.23 167.327C214.137 168.394 215.889 169.069 218.573 169.289C221.959 169.567 224.625 168.662 226.607 166.598C228.616 164.457 230.286 161.194 231.605 156.785C231.982 155.432 232.295 154.209 232.544 153.114C232.792 152.023 232.955 151.007 233.032 150.067C233.216 147.82 232.826 146.154 231.913 145.024L231.91 145.019C231.01 143.85 229.29 143.125 226.663 142.909ZM149.162 153.824L163.152 154.047L167.987 140.621L149.162 153.824Z" fill="#7709B8" stroke="#FFD000" stroke-width="0.502355"/>
<g filter="url(#filter3_dn_1474_3385)">
<path d="M113.441 151.291C114.915 125.995 136.615 106.683 161.911 108.155L239.997 112.703C247.334 113.13 255.139 115.917 262.092 120.026C268.965 124.088 274.967 129.42 278.841 134.977L265.886 194.753C265.52 194.875 265.129 195.084 264.725 195.327C264.167 195.662 263.51 196.111 262.764 196.617C261.261 197.634 259.332 198.922 256.86 200.158C251.926 202.626 244.804 204.899 234.663 204.308L156.577 199.761C131.281 198.288 111.968 176.587 113.441 151.291Z" stroke="url(#paint1_linear_1474_3385)" stroke-width="1.08773" shape-rendering="crispEdges"/>
</g>
<mask id="mask1_1474_3385" style="mask-type:alpha" maskUnits="userSpaceOnUse" x="112" y="107" width="168" height="98">
<path d="M112.869 151.264C114.36 125.668 136.318 106.127 161.914 107.618L240 112.165C254.889 113.032 271.55 123.459 279.393 134.865L266.317 195.202C263.464 195.663 255.092 206.05 234.602 204.857L156.516 200.309C130.92 198.819 111.378 176.86 112.869 151.264ZM230.382 130.134C224.231 129.629 219.054 130.246 214.854 131.983C210.659 133.667 207.234 136.376 204.578 140.109C201.923 143.842 199.752 148.495 198.067 154.069C197.178 157.093 196.627 159.904 196.414 162.502C195.94 168.282 197.221 172.845 200.256 176.191C203.345 179.541 208.177 181.486 214.753 182.026C220.957 182.535 226.131 181.945 230.273 180.257C234.473 178.519 237.901 175.783 240.557 172.051C243.265 168.322 245.435 163.669 247.067 158.091C247.507 156.632 247.834 155.244 248.049 153.927C248.322 152.561 248.51 151.242 248.614 149.969C249.075 144.348 247.848 139.789 244.932 136.294C242.073 132.749 237.223 130.695 230.382 130.134ZM178.099 167.406C177.981 167.397 177.871 167.471 177.837 167.585L174.874 177.649C174.829 177.802 174.936 177.957 175.094 177.971L186.356 178.895C186.474 178.904 186.584 178.83 186.618 178.716L189.581 168.652C189.626 168.499 189.519 168.344 189.361 168.331L178.099 167.406ZM218.398 145.408C220.441 143.28 223.186 142.357 226.633 142.639C229.284 142.857 231.093 143.593 232.058 144.847C233.027 146.047 233.418 147.788 233.231 150.068C233.152 151.023 232.988 152.05 232.738 153.15C232.488 154.251 232.173 155.48 231.795 156.837C230.471 161.266 228.784 164.571 226.737 166.752C224.693 168.88 221.948 169.803 218.501 169.52C215.797 169.299 213.958 168.614 212.984 167.466C212.015 166.266 211.617 164.604 211.791 162.483C211.952 160.521 212.469 158.134 213.34 155.323C214.669 150.841 216.355 147.536 218.398 145.408ZM169.96 125.977C169.894 125.972 169.828 125.992 169.778 126.035L135.246 155.107C135.209 155.139 135.181 155.181 135.167 155.228L132.406 164.474C132.36 164.627 132.467 164.783 132.626 164.796L155.317 166.658C155.476 166.671 155.582 166.826 155.538 166.979L152.933 175.849C152.888 176.002 152.995 176.157 153.153 176.17L167.596 177.355C167.715 177.365 167.825 177.29 167.858 177.176L170.522 168.106C170.556 167.992 170.664 167.918 170.783 167.927L174.99 168.272C175.108 168.282 175.218 168.208 175.252 168.095L178.719 156.711C178.765 156.558 178.659 156.401 178.499 156.388L174.505 156.06C174.346 156.047 174.239 155.891 174.284 155.738L182.734 127.329C182.78 127.176 182.673 127.02 182.514 127.007L169.96 125.977ZM167.737 140.464C167.94 140.313 168.213 140.522 168.122 140.757L162.885 154.178C162.846 154.277 162.749 154.342 162.643 154.338L150.497 153.871C150.261 153.862 150.167 153.561 150.357 153.42L167.737 140.464Z" fill="url(#paint2_linear_1474_3385)"/>
</mask>
<g mask="url(#mask1_1474_3385)">
<rect x="163.273" y="87.0638" width="39.1774" height="134.873" transform="rotate(12.1959 163.273 87.0638)" fill="#FFFCC7" fill-opacity="0.45"/>
<rect x="219.969" y="84.6258" width="13.6279" height="134.873" transform="rotate(11.6621 219.969 84.6258)" fill="#FFFCC7" fill-opacity="0.45"/>
<rect x="247.918" y="88.5688" width="5.80265" height="134.873" transform="rotate(11.6621 247.918 88.5688)" fill="#FFFCC7" fill-opacity="0.45"/>
</g>
<g filter="url(#filter4_d_1474_3385)">
<path d="M266.439 195.185C254.669 189.234 245.828 146.971 279.206 135.225C276.524 149.415 271.948 174.18 266.439 195.185Z" fill="url(#paint3_linear_1474_3385)"/>
<path d="M266.439 195.185C254.669 189.234 245.828 146.971 279.206 135.225C276.524 149.415 271.948 174.18 266.439 195.185Z" fill="black" fill-opacity="0.24"/>
<path d="M266.439 195.185C254.669 189.234 245.828 146.971 279.206 135.225C276.524 149.415 271.948 174.18 266.439 195.185Z" stroke="url(#paint4_linear_1474_3385)" stroke-width="0.125589"/>
</g>
</g>
<g filter="url(#filter5_d_1474_3385)">
<path d="M138.008 27.9151C142.648 26.6292 147.329 29.946 147.652 34.7508L147.669 35.2356L148.164 123.154C148.182 126.347 146.211 129.213 143.224 130.341L120.745 138.826C115.833 140.68 110.557 137.139 110.414 131.89L109.856 111.47L86.8629 120.149L97.1434 140.896C99.0312 144.706 97.4429 149.324 93.6113 151.167L72.0298 161.55C68.258 163.364 63.7279 161.804 61.873 158.052L22.9144 79.2246C20.9067 75.1619 22.8583 70.2551 27.1075 68.6811L50.1416 60.1503C53.736 58.8191 57.7394 60.3612 59.5279 63.7092L59.6932 64.0387L71.3446 88.5942L105.611 73.384L108.163 42.9965C108.416 39.9821 110.425 37.4015 113.285 36.4162L137.545 28.059L138.008 27.9151Z" fill="#9E00F9" stroke="white" stroke-width="7.76296"/>
<mask id="mask2_1474_3385" style="mask-type:alpha" maskUnits="userSpaceOnUse" x="18" y="23" width="135" height="144">
<path d="M138.008 27.915C142.648 26.6291 147.329 29.946 147.652 34.7508L147.669 35.2355L148.164 123.154C148.182 126.346 146.211 129.213 143.224 130.34L120.745 138.826C115.833 140.68 110.557 137.139 110.414 131.89L109.856 111.47L86.8629 120.149L97.1434 140.896C99.0312 144.706 97.4429 149.324 93.6113 151.167L72.0298 161.55C68.258 163.364 63.7279 161.804 61.873 158.052L22.9144 79.2245C20.9067 75.1618 22.8583 70.255 27.1075 68.6811L50.1416 60.1502C53.736 58.8191 57.7394 60.3612 59.5279 63.7091L59.6932 64.0386L71.3446 88.5942L105.611 73.3839L108.163 42.9965C108.416 39.982 110.425 37.4015 113.285 36.4161L137.545 28.0589L138.008 27.915Z" fill="#9E00F9" stroke="#FFF45A" stroke-width="7.76296"/>
</mask>
<g mask="url(#mask2_1474_3385)">
<rect x="74.5977" y="10.7551" width="47.4684" height="163.416" transform="rotate(28.5743 74.5977 10.7551)" fill="#FFFCC7" fill-opacity="0.3"/>
<rect x="141.336" y="27.2926" width="16.5119" height="163.416" transform="rotate(28.0405 141.336 27.2926)" fill="#FFFCC7" fill-opacity="0.3"/>
<rect x="172.477" y="41.4239" width="7.03065" height="163.416" transform="rotate(28.0405 172.477 41.4239)" fill="#FFFCC7" fill-opacity="0.3"/>
</g>
</g>
<path d="M99.8837 45.8509L89.5029 69.043C89.8157 68.6721 97.2083 58.3019 102.452 50.0375C106.598 41.255 118.342 46.255 120.633 48.3155L130.76 52.5466C129.133 51.145 120.845 47.2313 117.969 43.887C110.368 39.896 110.526 34.1292 112.345 30.7782L122.913 10.421C122.169 11.3749 114.171 23.5847 110.789 29.3787C105.584 38.2958 97.0254 30.1742 94.4938 29.5872L83.9239 23.9195C83.9239 23.9195 89.0121 28.0381 93.4341 31.27C101.156 36.9134 101.727 41.0188 99.8837 45.8509Z" fill="white"/>
<path d="M277.821 299.914L252.298 318.598C252.865 318.39 267.253 311.731 278.018 306.025C287.915 299.081 297.535 311.728 298.743 315.368L307.088 326.187C306.192 323.668 299.641 314.327 298.592 308.937C292.831 299.935 296.556 293.796 300.589 291.293L324.567 275.789C323.173 276.362 306.998 284.638 299.769 288.82C288.643 295.256 284.392 281.197 282.016 279.001L274.078 266.356C274.078 266.356 277.042 273.947 279.833 280.168C284.705 291.031 282.793 295.824 277.821 299.914Z" fill="white"/>
<defs>
<filter id="filter0_d_1474_3385" x="185.78" y="165.111" width="134.177" height="145.579" filterUnits="userSpaceOnUse" color-interpolation-filters="sRGB">
<feFlood flood-opacity="0" result="BackgroundImageFix"/>
<feColorMatrix in="SourceAlpha" type="matrix" values="0 0 0 0 0 0 0 0 0 0 0 0 0 0 0 0 0 0 127 0" result="hardAlpha"/>
<feOffset dx="-3.88148" dy="6.21037"/>
<feGaussianBlur stdDeviation="1.94074"/>
<feComposite in2="hardAlpha" operator="out"/>
<feColorMatrix type="matrix" values="0 0 0 0 0 0 0 0 0 0 0 0 0 0 0 0 0 0 0.5 0"/>
<feBlend mode="normal" in2="BackgroundImageFix" result="effect1_dropShadow_1474_3385"/>
<feBlend mode="normal" in="SourceGraphic" in2="effect1_dropShadow_1474_3385" result="shape"/>
</filter>
<filter id="filter1_d_1474_3385" x="112.809" y="107.533" width="172.824" height="105.959" filterUnits="userSpaceOnUse" color-interpolation-filters="sRGB">
<feFlood flood-opacity="0" result="BackgroundImageFix"/>
<feColorMatrix in="SourceAlpha" type="matrix" values="0 0 0 0 0 0 0 0 0 0 0 0 0 0 0 0 0 0 127 0" result="hardAlpha"/>
<feOffset dx="3.10519" dy="5.43407"/>
<feGaussianBlur stdDeviation="1.55259"/>
<feComposite in2="hardAlpha" operator="out"/>
<feColorMatrix type="matrix" values="0 0 0 0 0 0 0 0 0 0 0 0 0 0 0 0 0 0 0.45 0"/>
<feBlend mode="normal" in2="BackgroundImageFix" result="effect1_dropShadow_1474_3385"/>
<feBlend mode="normal" in="SourceGraphic" in2="effect1_dropShadow_1474_3385" result="shape"/>
</filter>
<filter id="filter2_d_1474_3385" x="111.804" y="107.536" width="168.615" height="99.4236" filterUnits="userSpaceOnUse" color-interpolation-filters="sRGB">
<feFlood flood-opacity="0" result="BackgroundImageFix"/>
<feColorMatrix in="SourceAlpha" type="matrix" values="0 0 0 0 0 0 0 0 0 0 0 0 0 0 0 0 0 0 127 0" result="hardAlpha"/>
<feOffset dy="1.00471"/>
<feGaussianBlur stdDeviation="0.502355"/>
<feComposite in2="hardAlpha" operator="out"/>
<feColorMatrix type="matrix" values="0 0 0 0 0 0 0 0 0 0 0 0 0 0 0 0 0 0 0.41 0"/>
<feBlend mode="normal" in2="BackgroundImageFix" result="effect1_dropShadow_1474_3385"/>
<feBlend mode="normal" in="SourceGraphic" in2="effect1_dropShadow_1474_3385" result="shape"/>
</filter>
<filter id="filter3_dn_1474_3385" x="111.816" y="107.533" width="168.611" height="99.4237" filterUnits="userSpaceOnUse" color-interpolation-filters="sRGB">
<feFlood flood-opacity="0" result="BackgroundImageFix"/>
<feColorMatrix in="SourceAlpha" type="matrix" values="0 0 0 0 0 0 0 0 0 0 0 0 0 0 0 0 0 0 127 0" result="hardAlpha"/>
<feOffset dy="1.00471"/>
<feGaussianBlur stdDeviation="0.502355"/>
<feComposite in2="hardAlpha" operator="out"/>
<feColorMatrix type="matrix" values="0 0 0 0 0 0 0 0 0 0 0 0 0 0 0 0 0 0 0.25 0"/>
<feBlend mode="normal" in2="BackgroundImageFix" result="effect1_dropShadow_1474_3385"/>
<feBlend mode="normal" in="SourceGraphic" in2="BackgroundImageFix" result="shape"/>
<feTurbulence type="fractalNoise" baseFrequency="0.34027758240699768 0.34027758240699768" stitchTiles="stitch" numOctaves="3" result="noise" seed="6754" />
<feColorMatrix in="noise" type="luminanceToAlpha" result="alphaNoise" />
<feComponentTransfer in="alphaNoise" result="coloredNoise1">
<feFuncA type="discrete" tableValues="0 0 0 0 0 0 0 0 0 0 0 0 0 0 0 0 0 1 1 1 1 1 1 1 1 1 1 1 1 1 1 1 0 0 0 0 0 0 0 0 0 0 0 0 0 0 0 0 0 0 0 0 0 0 0 0 0 0 0 0 0 0 0 0 0 0 0 0 0 0 0 0 0 0 0 0 0 0 0 0 0 0 0 0 0 0 0 0 0 0 0 0 0 0 0 0 0 0 0 0 "/>
</feComponentTransfer>
<feComposite operator="in" in2="shape" in="coloredNoise1" result="noise1Clipped" />
<feComponentTransfer in="alphaNoise" result="coloredNoise2">
<feFuncA type="discrete" tableValues="0 0 0 0 0 0 0 0 0 0 0 0 0 0 0 0 0 0 0 0 0 0 0 0 0 0 0 0 0 0 0 0 0 0 0 0 0 0 0 0 0 0 0 0 0 0 0 0 0 0 0 0 0 0 0 0 0 0 0 0 0 0 0 0 0 0 0 0 1 1 1 1 1 1 1 1 1 1 1 1 1 1 1 0 0 0 0 0 0 0 0 0 0 0 0 0 0 0 0 0 "/>
</feComponentTransfer>
<feComposite operator="in" in2="shape" in="coloredNoise2" result="noise2Clipped" />
<feFlood flood-color="rgba(255, 196, 0, 0.72)" result="color1Flood" />
<feComposite operator="in" in2="noise1Clipped" in="color1Flood" result="color1" />
<feFlood flood-color="rgba(255, 255, 255, 0.44)" result="color2Flood" />
<feComposite operator="in" in2="noise2Clipped" in="color2Flood" result="color2" />
<feMerge result="effect2_noise_1474_3385">
<feMergeNode in="shape" />
<feMergeNode in="color1" />
<feMergeNode in="color2" />
</feMerge>
<feBlend mode="normal" in="effect2_noise_1474_3385" in2="effect1_dropShadow_1474_3385" result="effect2_noise_1474_3385"/>
</filter>
<filter id="filter4_d_1474_3385" x="255.37" y="134.954" width="25.3509" height="62.0048" filterUnits="userSpaceOnUse" color-interpolation-filters="sRGB">
<feFlood flood-opacity="0" result="BackgroundImageFix"/>
<feColorMatrix in="SourceAlpha" type="matrix" values="0 0 0 0 0 0 0 0 0 0 0 0 0 0 0 0 0 0 127 0" result="hardAlpha"/>
<feOffset dx="0.502355" dy="0.753533"/>
<feGaussianBlur stdDeviation="0.464678"/>
<feComposite in2="hardAlpha" operator="out"/>
<feColorMatrix type="matrix" values="0 0 0 0 0 0 0 0 0 0 0 0 0 0 0 0 0 0 0.48 0"/>
<feBlend mode="normal" in2="BackgroundImageFix" result="effect1_dropShadow_1474_3385"/>
<feBlend mode="normal" in="SourceGraphic" in2="effect1_dropShadow_1474_3385" result="shape"/>
</filter>
<filter id="filter5_d_1474_3385" x="8.14643" y="23.7517" width="146.229" height="154.858" filterUnits="userSpaceOnUse" color-interpolation-filters="sRGB">
<feFlood flood-opacity="0" result="BackgroundImageFix"/>
<feColorMatrix in="SourceAlpha" type="matrix" values="0 0 0 0 0 0 0 0 0 0 0 0 0 0 0 0 0 0 127 0" result="hardAlpha"/>
<feOffset dx="-3.88148" dy="6.21037"/>
<feGaussianBlur stdDeviation="3.10519"/>
<feComposite in2="hardAlpha" operator="out"/>
<feColorMatrix type="matrix" values="0 0 0 0 0 0 0 0 0 0 0 0 0 0 0 0 0 0 0.5 0"/>
<feBlend mode="normal" in2="BackgroundImageFix" result="effect1_dropShadow_1474_3385"/>
<feBlend mode="normal" in="SourceGraphic" in2="effect1_dropShadow_1474_3385" result="shape"/>
</filter>
<linearGradient id="paint0_linear_1474_3385" x1="131.307" y1="149.996" x2="312.058" y2="184.244" gradientUnits="userSpaceOnUse">
<stop stop-color="#FFE030"/>
<stop offset="0.261174" stop-color="#FFFDEB"/>
<stop offset="0.360249" stop-color="#FFE610"/>
<stop offset="0.439479" stop-color="#FFF9C4"/>
<stop offset="0.614238" stop-color="#FFE514"/>
<stop offset="1" stop-color="#FFE41A"/>
</linearGradient>
<linearGradient id="paint1_linear_1474_3385" x1="130.446" y1="124.438" x2="207.752" y2="210.447" gradientUnits="userSpaceOnUse">
<stop stop-color="#FFF9A1"/>
<stop offset="1" stop-color="#E9B334"/>
</linearGradient>
<linearGradient id="paint2_linear_1474_3385" x1="149.184" y1="150.681" x2="312.039" y2="184.244" gradientUnits="userSpaceOnUse">
<stop stop-color="#FFEC1A"/>
<stop offset="0.380812" stop-color="#FFE60B"/>
<stop offset="1" stop-color="#FFE41A"/>
</linearGradient>
<linearGradient id="paint3_linear_1474_3385" x1="254.842" y1="159.643" x2="273.536" y2="164.097" gradientUnits="userSpaceOnUse">
<stop stop-color="#D1D1D1"/>
<stop offset="0.3423" stop-color="#FAFAFA"/>
<stop offset="0.573639" stop-color="white"/>
<stop offset="1" stop-color="#666666"/>
</linearGradient>
<linearGradient id="paint4_linear_1474_3385" x1="256.673" y1="153.49" x2="282.944" y2="158.45" gradientUnits="userSpaceOnUse">
<stop stop-color="white"/>
<stop offset="1" stop-color="#0B0B0B"/>
</linearGradient>
</defs>
</svg>
