<svg width="389" height="294" viewBox="0 0 389 294" fill="none" xmlns="http://www.w3.org/2000/svg">
<g filter="url(#filter0_d_970_3647)">
<g filter="url(#filter1_d_970_3647)">
<path d="M316.887 55.6948C333.676 59.072 349.885 66.5276 360.863 81.0448C372.204 96.0431 374.381 113.754 370.95 130.803C369.452 138.25 366.846 145.699 362.605 152.495C367.159 163.656 366.483 175.304 364.587 184.725C360.962 202.739 351.476 218.625 334.605 228.331C322.035 235.563 308.192 237.729 294.378 236.712L291.509 244.394L289.781 249.022L286.042 252.252L273.416 237.636L284.458 250.428C285.962 252.174 286.027 252.257 286.026 252.263C286.024 252.266 286.017 252.273 286.011 252.277C286.001 252.286 285.99 252.296 285.98 252.305C285.958 252.323 285.935 252.342 285.912 252.362C285.866 252.401 285.817 252.443 285.764 252.487C285.659 252.575 285.54 252.672 285.409 252.778C285.147 252.989 284.832 253.236 284.466 253.51C283.735 254.057 282.791 254.719 281.641 255.441C279.346 256.882 276.184 258.59 272.203 260.085C264.129 263.117 252.912 265.178 239.325 262.638L165.47 248.828C139.492 243.97 120.144 224.033 114.787 199.756L96.3094 198.594C83.0614 197.761 71.7029 188.782 67.8575 176.046L35.5373 68.996C29.2314 48.1095 45.3361 27.2964 67.0546 28.0284L99.7022 29.1282C112.077 29.5453 123.083 37.1052 127.913 48.493L128.138 49.0386L137.742 72.9018L150.779 74.4682L152.655 61.5882C155.034 45.2535 169.5 33.4941 185.926 34.4247L217.146 36.1945L218.024 36.2561C224.304 36.7826 229.996 39.1059 234.649 42.6672C239.326 41.3621 244.37 41.1099 249.45 42.1317L316.887 55.6948ZM144.865 196.261C141.83 198.039 138.467 199.33 134.873 200.016C139.817 214.918 152.494 226.754 169.019 229.844L242.874 243.652C262.184 247.263 273.334 237.706 273.416 237.636L275.107 233.105L212.518 215.186C208.544 214.048 204.952 212.195 201.849 209.801C198.884 210.213 195.813 210.212 192.707 209.743L162.559 205.18C155.595 204.126 149.499 200.885 144.865 196.261ZM61.4078 61.1846L93.1742 166.398L61.4088 61.1848C61.3793 61.0869 61.3526 60.9891 61.3295 60.8913L61.4078 61.1846ZM218.716 188.651C218.733 188.662 218.75 188.67 218.766 188.68C218.687 188.632 218.608 188.582 218.532 188.529L218.716 188.651ZM321.129 204.907C320.576 205.226 320.013 205.529 319.442 205.817C319.725 205.674 320.007 205.528 320.286 205.378C320.569 205.225 320.85 205.069 321.129 204.908L321.129 204.907ZM127.304 137.971C127.249 138.04 127.195 138.109 127.144 138.181C127.195 138.11 127.249 138.04 127.304 137.972L127.304 137.971ZM130.127 136.285C130.107 136.289 130.088 136.293 130.068 136.297C130.101 136.29 130.134 136.284 130.166 136.278L130.127 136.285ZM131.316 136.214C131.214 136.208 131.113 136.205 131.012 136.205C131.113 136.205 131.215 136.208 131.317 136.214L136.734 136.555L131.316 136.214ZM334.218 144.761C334.084 144.885 333.948 145.007 333.812 145.128L333.813 145.128C333.949 145.008 334.084 144.885 334.218 144.761ZM238.489 72.3826L229.067 120.253L238.49 72.3828C238.505 72.3018 238.523 72.2217 238.543 72.1425L238.489 72.3826ZM117.588 95.2039C117.613 95.2645 117.641 95.3234 117.667 95.3826L117.589 95.2029L109.009 73.8881L117.588 95.2039ZM98.7929 56.1363L82.4681 55.5862L98.7927 56.1373C98.9109 56.1413 99.0282 56.1492 99.1446 56.1617L98.7929 56.1363ZM239.219 70.6274C239.175 70.6917 239.133 70.7572 239.093 70.8238L239.22 70.6276C239.264 70.5633 239.308 70.4998 239.355 70.4379L239.219 70.6274ZM240.407 69.4159C240.258 69.5217 240.115 69.6354 239.979 69.7577L240.154 69.6082C240.236 69.5413 240.321 69.4773 240.407 69.4159Z" fill="#D9D9D9"/>
</g>
<path d="M123.88 176.037C129.388 146.585 157.728 127.174 187.179 132.681L261.035 146.49C269.956 148.158 278.519 152.637 285.573 158.117C292.631 163.599 298.82 170.582 302.627 177.972L304.584 181.77L303.303 185.199C303 186.399 302.556 187.755 302.168 188.9C301.58 190.639 300.808 192.795 299.926 195.196C298.158 200.008 295.867 206.022 293.53 212.1C290.245 220.645 286.917 229.195 284.701 235L282.455 241.014L281.591 243.328L279.722 244.943L273.409 237.635L278.93 244.032C279.675 244.897 279.714 244.945 279.714 244.949C279.713 244.951 279.709 244.954 279.706 244.957C279.701 244.961 279.695 244.966 279.689 244.971C279.678 244.981 279.666 244.991 279.653 245.002C279.628 245.024 279.598 245.048 279.567 245.075C279.503 245.128 279.428 245.19 279.34 245.26C279.166 245.401 278.944 245.574 278.675 245.776C278.137 246.177 277.41 246.69 276.497 247.263C274.676 248.407 272.094 249.807 268.8 251.043C262.156 253.538 252.731 255.321 241.092 253.145L167.237 239.336C137.785 233.829 118.374 205.488 123.88 176.037Z" stroke="#6C00AB" stroke-width="19.3138"/>
<path d="M219.958 189.205C217.57 188.521 216.104 186.126 216.583 183.693L238.491 72.3815C239.002 69.7867 241.527 68.1018 244.124 68.624L311.559 82.188C324.367 84.7642 333.617 89.816 339.309 97.3435C345.001 104.871 346.718 114.247 344.459 125.471C343.172 131.867 340.906 137.046 337.66 141.011C336.467 142.54 335.184 143.913 333.814 145.128C330.996 147.626 330.554 152.645 333.029 155.485C334.641 157.336 335.97 159.326 337.014 161.454C339.258 165.844 339.619 171.824 338.095 179.394C335.705 191.271 330.051 199.775 321.131 204.907C312.211 210.038 300.956 211.237 287.364 208.503L219.958 189.205ZM270.423 120.376C269.902 122.961 271.579 125.479 274.167 125.999L290.261 129.236C297.841 130.761 302.314 128.13 303.679 121.343C304.336 118.08 303.855 115.403 302.236 113.312C300.774 111.117 297.952 109.598 293.77 108.757L278.265 105.639C275.676 105.118 273.156 106.791 272.636 109.376L270.423 120.376ZM260.77 168.341C260.25 170.926 261.927 173.443 264.515 173.964L281.393 177.359C289.365 178.962 294.086 176.109 295.557 168.801C296.923 162.014 293.489 157.792 285.255 156.136L268.77 152.82C266.182 152.3 263.662 153.973 263.142 156.558L260.77 168.341Z" fill="black"/>
<path d="M219.958 189.205C217.57 188.521 216.104 186.126 216.583 183.693L238.491 72.3815C239.002 69.7867 241.527 68.1018 244.124 68.624L311.559 82.188C324.367 84.7642 333.617 89.816 339.309 97.3435C345.001 104.871 346.718 114.247 344.459 125.471C343.172 131.867 340.906 137.046 337.66 141.011C336.467 142.54 335.184 143.913 333.814 145.128C330.996 147.626 330.554 152.645 333.029 155.485C334.641 157.336 335.97 159.326 337.014 161.454C339.258 165.844 339.619 171.824 338.095 179.394C335.705 191.271 330.051 199.775 321.131 204.907C312.211 210.038 300.956 211.237 287.364 208.503L219.958 189.205ZM270.423 120.376C269.902 122.961 271.579 125.479 274.167 125.999L290.261 129.236C297.841 130.761 302.314 128.13 303.679 121.343C304.336 118.08 303.855 115.403 302.236 113.312C300.774 111.117 297.952 109.598 293.77 108.757L278.265 105.639C275.676 105.118 273.156 106.791 272.636 109.376L270.423 120.376ZM260.77 168.341C260.25 170.926 261.927 173.443 264.515 173.964L281.393 177.359C289.365 178.962 294.086 176.109 295.557 168.801C296.923 162.014 293.489 157.792 285.255 156.136L268.77 152.82C266.182 152.3 263.662 153.973 263.142 156.558L260.77 168.341Z" fill="#FFF7E5"/>
<path d="M274.167 125.999L290.261 129.236C297.841 130.761 302.314 128.13 303.679 121.343C304.336 118.08 303.855 115.403 302.236 113.312C300.774 111.117 297.952 109.598 293.77 108.757L278.265 105.639C275.676 105.118 273.156 106.791 272.636 109.376L270.423 120.376C269.902 122.961 271.579 125.479 274.167 125.999Z" fill="black"/>
<path d="M274.167 125.999L290.261 129.236C297.841 130.761 302.314 128.13 303.679 121.343C304.336 118.08 303.855 115.403 302.236 113.312C300.774 111.117 297.952 109.598 293.77 108.757L278.265 105.639C275.676 105.118 273.156 106.791 272.636 109.376L270.423 120.376C269.902 122.961 271.579 125.479 274.167 125.999Z" fill="#6C00AB"/>
<path d="M264.515 173.964L281.393 177.359C289.365 178.962 294.086 176.109 295.557 168.801C296.923 162.014 293.489 157.792 285.255 156.136L268.77 152.82C266.182 152.3 263.662 153.973 263.142 156.558L260.77 168.341C260.25 170.926 261.927 173.443 264.515 173.964Z" fill="black"/>
<path d="M264.515 173.964L281.393 177.359C289.365 178.962 294.086 176.109 295.557 168.801C296.923 162.014 293.489 157.792 285.255 156.136L268.77 152.82C266.182 152.3 263.662 153.973 263.142 156.558L260.77 168.341C260.25 170.926 261.927 173.443 264.515 173.964Z" fill="#6C00AB"/>
<path d="M196.752 183.021C199.343 183.414 201.766 181.649 202.185 179.066L220.07 68.7055C220.523 65.9089 218.452 63.3346 215.62 63.1741L184.399 61.4051C181.926 61.265 179.756 63.0346 179.399 65.4825L174.396 99.8363C174.022 102.399 171.671 104.196 169.096 103.887L121.456 98.1635C119.723 97.9553 118.241 96.8203 117.59 95.2025L103.07 59.1285C102.364 57.3735 100.687 56.1999 98.7942 56.1361L66.1461 55.0357C62.8761 54.9255 60.4656 58.0549 61.4103 61.1838L93.7308 168.234C94.3078 170.145 96.0142 171.497 98.0088 171.622L128.538 173.544C131.819 173.75 134.323 170.665 133.442 167.502L126.414 142.255C125.534 139.092 128.038 136.007 131.318 136.213L162.948 138.204C165.769 138.381 167.822 140.952 167.368 143.738L162.6 172.97C162.172 175.593 163.972 178.061 166.604 178.46L196.752 183.021Z" fill="black"/>
<path d="M196.752 183.021C199.343 183.414 201.766 181.649 202.185 179.066L220.07 68.7055C220.523 65.9089 218.452 63.3346 215.62 63.1741L184.399 61.4051C181.926 61.265 179.756 63.0346 179.399 65.4825L174.396 99.8363C174.022 102.399 171.671 104.196 169.096 103.887L121.456 98.1635C119.723 97.9553 118.241 96.8203 117.59 95.2025L103.07 59.1285C102.364 57.3735 100.687 56.1999 98.7942 56.1361L66.1461 55.0357C62.8761 54.9255 60.4656 58.0549 61.4103 61.1838L93.7308 168.234C94.3078 170.145 96.0142 171.497 98.0088 171.622L128.538 173.544C131.819 173.75 134.323 170.665 133.442 167.502L126.414 142.255C125.534 139.092 128.038 136.007 131.318 136.213L162.948 138.204C165.769 138.381 167.822 140.952 167.368 143.738L162.6 172.97C162.172 175.593 163.972 178.061 166.604 178.46L196.752 183.021Z" fill="#FFF7E5"/>
<path d="M216.889 49.7187C223.287 50.2552 228.623 54.0287 231.456 59.2683C235.455 55.9351 240.834 54.3299 246.324 55.2898L246.788 55.3769L314.223 68.9412C329.022 71.9178 341.751 78.1709 350.086 89.1932C358.603 100.456 360.55 114 357.705 128.137C356.114 136.045 353.144 143.357 348.253 149.399C348.213 149.45 348.173 149.499 348.133 149.549C348.127 149.556 348.121 149.563 348.116 149.57C347.664 150.141 347.2 150.699 346.724 151.246C347.613 152.611 348.422 154.03 349.145 155.502L349.143 155.502C353.267 163.722 353.132 173.162 351.342 182.059C348.334 197.004 340.764 209.2 327.869 216.619C315.246 223.881 300.38 224.904 284.699 221.75L284.167 221.643L283.644 221.493L216.238 202.195C211.825 200.932 208.23 198.134 205.902 194.526C202.582 196.254 198.706 196.983 194.73 196.382L164.583 191.82C154.53 190.298 147.622 180.86 149.264 170.794L152.478 151.083L142.726 150.47L146.459 163.878C149.839 176.018 140.223 187.818 127.69 187.029L97.16 185.108C89.5388 184.628 83.0068 179.463 80.7956 172.139L48.4751 65.0891C44.8498 53.0814 54.1073 41.1102 66.6015 41.5313L99.2494 42.6312L99.9246 42.6671C106.654 43.1422 112.589 47.2894 115.341 53.4597L115.606 54.0828L128.195 85.363L162.253 89.455L166.028 63.5348C167.396 54.1435 175.714 47.3793 185.163 47.9147L216.384 49.6833L216.889 49.7187Z" stroke="#6C00AB" stroke-width="27.0243"/>
<rect x="152.215" y="150.925" width="120.303" height="62.3108" transform="rotate(10.2866 152.215 150.925)" fill="#6C00AB"/>
<g filter="url(#filter2_d_970_3647)">
<path d="M137.366 177.518C142.262 154.43 164.948 139.682 188.036 144.577L258.471 159.512C271.902 162.36 285.623 174.152 291.184 185.617L270.942 238.721C268.281 238.745 259.227 247.041 240.743 243.122L170.308 228.188C147.219 223.292 132.471 200.606 137.366 177.518ZM247.252 174.511C241.724 173.201 236.928 173.046 232.865 174.047C228.814 175 225.322 176.991 222.389 180.021C219.456 183.051 216.838 186.986 214.533 191.826C213.306 194.454 212.417 196.937 211.863 199.272C210.633 204.467 211.167 208.797 213.467 212.261C215.815 215.737 219.943 218.175 225.853 219.575C231.429 220.896 236.219 221.075 240.223 220.111C244.285 219.11 247.784 217.095 250.716 214.065C253.696 211.046 256.315 207.111 258.572 202.26C259.174 200.993 259.663 199.776 260.041 198.607C260.477 197.402 260.831 196.226 261.102 195.082C262.299 190.031 261.813 185.713 259.642 182.128C257.53 178.507 253.4 175.967 247.252 174.511ZM194.877 201.288C194.561 201.213 194.235 201.37 194.098 201.665L190.402 209.572C190.218 209.966 190.443 210.43 190.866 210.53L200.083 212.714C200.399 212.789 200.725 212.631 200.862 212.337L204.558 204.429C204.742 204.036 204.518 203.573 204.096 203.472L194.877 201.288ZM234.234 186.754C236.387 185.1 239.013 184.64 242.111 185.374C244.494 185.938 246.038 186.857 246.743 188.131C247.459 189.358 247.575 190.997 247.089 193.046C246.886 193.904 246.593 194.816 246.213 195.783C245.833 196.75 245.378 197.826 244.846 199.008C243.028 202.856 241.037 205.631 238.872 207.333C236.718 208.987 234.092 209.447 230.994 208.713C228.564 208.137 226.985 207.259 226.257 206.08C225.541 204.853 225.409 203.286 225.86 201.38C226.278 199.617 227.078 197.516 228.259 195.078C230.088 191.183 232.08 188.408 234.234 186.754ZM193.02 162.416C192.844 162.374 192.658 162.404 192.504 162.499L157.334 184.014C157.22 184.083 157.129 184.186 157.072 184.307L153.578 191.709C153.392 192.103 153.616 192.568 154.039 192.668L173.344 197.242C173.767 197.343 173.991 197.806 173.808 198.2L170.682 204.901C170.499 205.295 170.723 205.758 171.145 205.858L183.223 208.72C183.54 208.795 183.865 208.636 184.002 208.342L187.368 201.128C187.505 200.833 187.831 200.675 188.147 200.75L191.212 201.476C191.526 201.551 191.849 201.396 191.988 201.105L196.316 192.063C196.505 191.669 196.282 191.201 195.857 191.1L193.36 190.509C192.936 190.409 192.712 189.944 192.897 189.55L204.038 165.876C204.223 165.482 203.999 165.018 203.576 164.918L193.02 162.416ZM187.572 175.856C188.171 175.554 188.803 176.204 188.483 176.795L183.077 186.777C182.937 187.035 182.647 187.176 182.357 187.127L171.621 185.283C170.969 185.171 170.838 184.293 171.428 183.995L187.572 175.856Z" fill="url(#paint0_linear_970_3647)"/>
<path d="M137.366 177.518C142.262 154.43 164.948 139.682 188.036 144.577L258.471 159.512C271.902 162.36 285.623 174.152 291.184 185.617L270.942 238.721C268.281 238.745 259.227 247.041 240.743 243.122L170.308 228.188C147.219 223.292 132.471 200.606 137.366 177.518ZM247.252 174.511C241.724 173.201 236.928 173.046 232.865 174.047C228.814 175 225.322 176.991 222.389 180.021C219.456 183.051 216.838 186.986 214.533 191.826C213.306 194.454 212.417 196.937 211.863 199.272C210.633 204.467 211.167 208.797 213.467 212.261C215.815 215.737 219.943 218.175 225.853 219.575C231.429 220.896 236.219 221.075 240.223 220.111C244.285 219.11 247.784 217.095 250.716 214.065C253.696 211.046 256.315 207.111 258.572 202.26C259.174 200.993 259.663 199.776 260.041 198.607C260.477 197.402 260.831 196.226 261.102 195.082C262.299 190.031 261.813 185.713 259.642 182.128C257.53 178.507 253.4 175.967 247.252 174.511ZM194.877 201.288C194.561 201.213 194.235 201.37 194.098 201.665L190.402 209.572C190.218 209.966 190.443 210.43 190.866 210.53L200.083 212.714C200.399 212.789 200.725 212.631 200.862 212.337L204.558 204.429C204.742 204.036 204.518 203.573 204.096 203.472L194.877 201.288ZM234.234 186.754C236.387 185.1 239.013 184.64 242.111 185.374C244.494 185.938 246.038 186.857 246.743 188.131C247.459 189.358 247.575 190.997 247.089 193.046C246.886 193.904 246.593 194.816 246.213 195.783C245.833 196.75 245.378 197.826 244.846 199.008C243.028 202.856 241.037 205.631 238.872 207.333C236.718 208.987 234.092 209.447 230.994 208.713C228.564 208.137 226.985 207.259 226.257 206.08C225.541 204.853 225.409 203.286 225.86 201.38C226.278 199.617 227.078 197.516 228.259 195.078C230.088 191.183 232.08 188.408 234.234 186.754ZM193.02 162.416C192.844 162.374 192.658 162.404 192.504 162.499L157.334 184.014C157.22 184.083 157.129 184.186 157.072 184.307L153.578 191.709C153.392 192.103 153.616 192.568 154.039 192.668L173.344 197.242C173.767 197.343 173.991 197.806 173.808 198.2L170.682 204.901C170.499 205.295 170.723 205.758 171.145 205.858L183.223 208.72C183.54 208.795 183.865 208.636 184.002 208.342L187.368 201.128C187.505 200.833 187.831 200.675 188.147 200.75L191.212 201.476C191.526 201.551 191.849 201.396 191.988 201.105L196.316 192.063C196.505 191.669 196.282 191.201 195.857 191.1L193.36 190.509C192.936 190.409 192.712 189.944 192.897 189.55L204.038 165.876C204.223 165.482 203.999 165.018 203.576 164.918L193.02 162.416ZM187.572 175.856C188.171 175.554 188.803 176.204 188.483 176.795L183.077 186.777C182.937 187.035 182.647 187.176 182.357 187.127L171.621 185.283C170.969 185.171 170.838 184.293 171.428 183.995L187.572 175.856Z" fill="#FFEE00"/>
</g>
<path d="M247.369 173.886C253.601 175.363 257.939 177.971 260.186 181.815L260.187 181.815C262.472 185.588 262.956 190.101 261.729 195.283C261.453 196.447 261.092 197.639 260.652 198.859C260.264 200.06 259.763 201.307 259.15 202.597C256.87 207.497 254.211 211.497 251.166 214.583L251.167 214.584C248.145 217.706 244.534 219.787 240.345 220.819L240.342 220.82C236.201 221.817 231.296 221.622 225.654 220.285C219.651 218.863 215.337 216.359 212.857 212.688L212.854 212.683C210.422 209.019 209.893 204.481 211.155 199.156C211.721 196.768 212.628 194.241 213.871 191.578L213.874 191.574C216.202 186.684 218.859 182.682 221.855 179.587C224.878 176.464 228.486 174.405 232.666 173.422C236.864 172.389 241.773 172.561 247.369 173.886ZM203.693 164.293C204.54 164.494 204.988 165.423 204.617 166.211L193.476 189.885L195.973 190.476C196.823 190.678 197.271 191.613 196.893 192.401L192.566 201.444C192.288 202.026 191.641 202.335 191.013 202.186L187.948 201.46L184.582 208.674C184.308 209.264 183.656 209.579 183.024 209.429L170.946 206.567C170.101 206.367 169.652 205.441 170.019 204.654L173.145 197.953L153.84 193.379C152.993 193.178 152.544 192.247 152.916 191.46L156.41 184.057C156.524 183.815 156.706 183.611 156.934 183.472L192.105 161.957C192.413 161.768 192.784 161.708 193.136 161.792L203.693 164.293ZM204.211 202.847C205.057 203.048 205.506 203.975 205.138 204.762L201.443 212.67C201.167 213.259 200.516 213.574 199.884 213.424L190.666 211.24C189.82 211.039 189.372 210.113 189.74 209.325L193.435 201.417C193.711 200.829 194.362 200.514 194.994 200.664L204.211 202.847ZM241.912 186.083C238.976 185.387 236.571 185.833 234.61 187.339C232.579 188.899 230.646 191.564 228.839 195.412L228.835 195.42C227.666 197.833 226.889 199.884 226.486 201.581C226.062 203.373 226.208 204.739 226.799 205.763L226.916 205.938C227.551 206.804 228.876 207.558 231.111 208.088C234.047 208.783 236.452 208.337 238.413 206.831C240.458 205.221 242.39 202.554 244.183 198.76C244.709 197.589 245.16 196.527 245.535 195.575C245.905 194.633 246.185 193.752 246.38 192.93C246.844 190.971 246.702 189.535 246.109 188.52L246.101 188.507C245.537 187.487 244.229 186.632 241.912 186.083ZM171.432 184.643L182.432 186.495L187.849 176.49L171.432 184.643Z" fill="#7709B8" stroke="#FFD000" stroke-width="1.37098"/>
<g filter="url(#filter3_dn_970_3647)">
<path d="M138.789 177.81C143.515 155.524 165.413 141.288 187.699 146.014L258.134 160.948C264.562 162.311 271.14 165.838 276.811 170.467C282.287 174.936 286.827 180.359 289.536 185.68L269.818 237.408C269.546 237.49 269.284 237.591 269.045 237.689C268.459 237.93 267.768 238.264 267.033 238.614C265.532 239.329 263.646 240.21 261.291 240.972C256.605 242.488 249.984 243.555 241.022 241.654L170.586 226.72C148.3 221.994 134.064 200.097 138.789 177.81Z" stroke="url(#paint1_linear_970_3647)" stroke-width="2.96855" shape-rendering="crispEdges"/>
</g>
<mask id="mask0_970_3647" style="mask-type:alpha" maskUnits="userSpaceOnUse" x="136" y="143" width="156" height="102">
<path d="M137.277 177.533C142.172 154.445 164.858 139.696 187.946 144.592L258.382 159.526C271.812 162.374 285.533 174.167 291.094 185.632L270.852 238.735C268.191 238.759 259.137 247.056 240.653 243.137L170.218 228.202C147.129 223.307 132.381 200.621 137.277 177.533ZM247.163 174.525C241.634 173.216 236.838 173.061 232.775 174.062C228.724 175.015 225.232 177.006 222.299 180.036C219.367 183.066 216.748 187.001 214.443 191.841C213.217 194.469 212.327 196.952 211.774 199.287C210.543 204.482 211.077 208.812 213.377 212.276C215.725 215.751 219.853 218.189 225.763 219.59C231.339 220.911 236.129 221.09 240.133 220.125C244.196 219.125 247.694 217.109 250.626 214.079C253.607 211.061 256.225 207.126 258.482 202.275C259.084 201.008 259.573 199.79 259.951 198.621C260.388 197.416 260.741 196.241 261.012 195.097C262.209 190.045 261.723 185.727 259.552 182.142C257.441 178.521 253.31 175.982 247.163 174.525ZM194.787 201.302C194.471 201.227 194.146 201.385 194.008 201.679L190.312 209.587C190.128 209.981 190.353 210.444 190.776 210.545L199.993 212.729C200.309 212.804 200.635 212.646 200.772 212.352L204.468 204.443C204.652 204.05 204.428 203.586 204.005 203.486L194.787 201.302ZM234.144 186.768C236.297 185.114 238.923 184.654 242.021 185.388C244.404 185.952 245.949 186.872 246.653 188.146C247.369 189.373 247.484 191.011 246.998 193.06C246.795 193.918 246.503 194.83 246.123 195.797C245.743 196.764 245.288 197.84 244.756 199.022C242.938 202.87 240.947 205.645 238.782 207.347C236.628 209.001 234.002 209.461 230.904 208.728C228.474 208.152 226.895 207.274 226.168 206.095C225.451 204.868 225.319 203.301 225.77 201.395C226.188 199.632 226.988 197.531 228.17 195.093C229.999 191.197 231.99 188.422 234.144 186.768ZM192.93 162.431C192.754 162.389 192.568 162.419 192.414 162.514L157.244 184.029C157.13 184.098 157.039 184.2 156.982 184.321L153.488 191.724C153.302 192.118 153.526 192.583 153.95 192.683L173.255 197.257C173.677 197.358 173.902 197.821 173.718 198.215L170.592 204.915C170.408 205.309 170.633 205.772 171.055 205.873L183.133 208.734C183.45 208.809 183.775 208.651 183.912 208.357L187.278 201.142C187.415 200.847 187.741 200.69 188.057 200.765L191.122 201.491C191.436 201.566 191.759 201.411 191.899 201.12L196.227 192.078C196.415 191.684 196.192 191.216 195.767 191.115L193.27 190.523C192.846 190.423 192.622 189.958 192.807 189.565L203.948 165.891C204.134 165.497 203.91 165.032 203.486 164.932L192.93 162.431ZM187.324 176.011C187.932 175.687 188.584 176.361 188.24 176.958L182.572 186.795C182.426 187.048 182.136 187.18 181.849 187.126L172.442 185.325C171.807 185.204 171.678 184.351 172.249 184.047L187.324 176.011Z" fill="url(#paint2_linear_970_3647)"/>
</mask>
<g mask="url(#mask0_970_3647)">
<rect x="192.079" y="126.069" width="36.0636" height="124.153" transform="rotate(20.8343 192.079 126.069)" fill="#FFFCC7" fill-opacity="0.45"/>
<rect x="244" y="131.71" width="12.5448" height="124.153" transform="rotate(20.3005 244 131.71)" fill="#FFFCC7" fill-opacity="0.45"/>
<rect x="268.903" y="139.158" width="5.34146" height="124.153" transform="rotate(20.3005 268.903 139.158)" fill="#FFFCC7" fill-opacity="0.45"/>
</g>
<g filter="url(#filter4_d_970_3647)">
<path d="M270.977 238.712C261.088 231.669 258.885 191.984 290.886 185.909C286.483 198.453 278.895 220.358 270.977 238.712Z" fill="url(#paint3_linear_970_3647)"/>
<path d="M270.977 238.712C261.088 231.669 258.885 191.984 290.886 185.909C286.483 198.453 278.895 220.358 270.977 238.712Z" fill="black" fill-opacity="0.24"/>
<path d="M270.977 238.712C261.088 231.669 258.885 191.984 290.886 185.909C286.483 198.453 278.895 220.358 270.977 238.712Z" stroke="url(#paint4_linear_970_3647)" stroke-width="0.342745"/>
</g>
</g>
<defs>
<filter id="filter0_d_970_3647" x="27.8496" y="28.0081" width="350.896" height="248.388" filterUnits="userSpaceOnUse" color-interpolation-filters="sRGB">
<feFlood flood-opacity="0" result="BackgroundImageFix"/>
<feColorMatrix in="SourceAlpha" type="matrix" values="0 0 0 0 0 0 0 0 0 0 0 0 0 0 0 0 0 0 127 0" result="hardAlpha"/>
<feOffset dy="6.30715"/>
<feGaussianBlur stdDeviation="3.15357"/>
<feComposite in2="hardAlpha" operator="out"/>
<feColorMatrix type="matrix" values="0 0 0 0 0 0 0 0 0 0 0 0 0 0 0 0 0 0 0.25 0"/>
<feBlend mode="normal" in2="BackgroundImageFix" result="effect1_dropShadow_970_3647"/>
<feBlend mode="normal" in="SourceGraphic" in2="effect1_dropShadow_970_3647" result="shape"/>
</filter>
<filter id="filter1_d_970_3647" x="34.1567" y="28.0095" width="338.277" height="244.279" filterUnits="userSpaceOnUse" color-interpolation-filters="sRGB">
<feFlood flood-opacity="0" result="BackgroundImageFix"/>
<feColorMatrix in="SourceAlpha" type="matrix" values="0 0 0 0 0 0 0 0 0 0 0 0 0 0 0 0 0 0 127 0" result="hardAlpha"/>
<feOffset dy="8.50676"/>
<feComposite in2="hardAlpha" operator="out"/>
<feColorMatrix type="matrix" values="0 0 0 0 0 0 0 0 0 0 0 0 0 0 0 0 0 0 0.25 0"/>
<feBlend mode="normal" in2="BackgroundImageFix" result="effect1_dropShadow_970_3647"/>
<feBlend mode="normal" in="SourceGraphic" in2="effect1_dropShadow_970_3647" result="shape"/>
</filter>
<filter id="filter2_d_970_3647" x="136.43" y="143.639" width="154.754" height="106.472" filterUnits="userSpaceOnUse" color-interpolation-filters="sRGB">
<feFlood flood-opacity="0" result="BackgroundImageFix"/>
<feColorMatrix in="SourceAlpha" type="matrix" values="0 0 0 0 0 0 0 0 0 0 0 0 0 0 0 0 0 0 127 0" result="hardAlpha"/>
<feOffset dy="5.93709"/>
<feComposite in2="hardAlpha" operator="out"/>
<feColorMatrix type="matrix" values="0 0 0 0 0 0 0 0 0 0 0 0 0 0 0 0 0 0 0.27 0"/>
<feBlend mode="normal" in2="BackgroundImageFix" result="effect1_dropShadow_970_3647"/>
<feBlend mode="normal" in="SourceGraphic" in2="effect1_dropShadow_970_3647" result="shape"/>
</filter>
<filter id="filter3_dn_970_3647" x="133.657" y="143.624" width="162.656" height="106.018" filterUnits="userSpaceOnUse" color-interpolation-filters="sRGB">
<feFlood flood-opacity="0" result="BackgroundImageFix"/>
<feColorMatrix in="SourceAlpha" type="matrix" values="0 0 0 0 0 0 0 0 0 0 0 0 0 0 0 0 0 0 127 0" result="hardAlpha"/>
<feOffset dy="2.74196"/>
<feGaussianBlur stdDeviation="1.37098"/>
<feComposite in2="hardAlpha" operator="out"/>
<feColorMatrix type="matrix" values="0 0 0 0 0 0 0 0 0 0 0 0 0 0 0 0 0 0 0.25 0"/>
<feBlend mode="normal" in2="BackgroundImageFix" result="effect1_dropShadow_970_3647"/>
<feBlend mode="normal" in="SourceGraphic" in2="BackgroundImageFix" result="shape"/>
<feTurbulence type="fractalNoise" baseFrequency="0.12468452006578445 0.12468452006578445" stitchTiles="stitch" numOctaves="3" result="noise" seed="6754" />
<feColorMatrix in="noise" type="luminanceToAlpha" result="alphaNoise" />
<feComponentTransfer in="alphaNoise" result="coloredNoise1">
<feFuncA type="discrete" tableValues="0 0 0 0 0 0 0 0 0 0 0 0 0 0 0 0 0 1 1 1 1 1 1 1 1 1 1 1 1 1 1 1 0 0 0 0 0 0 0 0 0 0 0 0 0 0 0 0 0 0 0 0 0 0 0 0 0 0 0 0 0 0 0 0 0 0 0 0 0 0 0 0 0 0 0 0 0 0 0 0 0 0 0 0 0 0 0 0 0 0 0 0 0 0 0 0 0 0 0 0 "/>
</feComponentTransfer>
<feComposite operator="in" in2="shape" in="coloredNoise1" result="noise1Clipped" />
<feComponentTransfer in="alphaNoise" result="coloredNoise2">
<feFuncA type="discrete" tableValues="0 0 0 0 0 0 0 0 0 0 0 0 0 0 0 0 0 0 0 0 0 0 0 0 0 0 0 0 0 0 0 0 0 0 0 0 0 0 0 0 0 0 0 0 0 0 0 0 0 0 0 0 0 0 0 0 0 0 0 0 0 0 0 0 0 0 0 0 1 1 1 1 1 1 1 1 1 1 1 1 1 1 1 0 0 0 0 0 0 0 0 0 0 0 0 0 0 0 0 0 "/>
</feComponentTransfer>
<feComposite operator="in" in2="shape" in="coloredNoise2" result="noise2Clipped" />
<feFlood flood-color="rgba(255, 196, 0, 0.72)" result="color1Flood" />
<feComposite operator="in" in2="noise1Clipped" in="color1Flood" result="color1" />
<feFlood flood-color="rgba(255, 255, 255, 0.44)" result="color2Flood" />
<feComposite operator="in" in2="noise2Clipped" in="color2Flood" result="color2" />
<feMerge result="effect2_noise_970_3647">
<feMergeNode in="shape" />
<feMergeNode in="color1" />
<feMergeNode in="color2" />
</feMerge>
<feBlend mode="normal" in="effect2_noise_970_3647" in2="effect1_dropShadow_970_3647" result="effect2_noise_970_3647"/>
</filter>
<filter id="filter4_d_970_3647" x="263.148" y="185.205" width="31.9047" height="58.3619" filterUnits="userSpaceOnUse" color-interpolation-filters="sRGB">
<feFlood flood-opacity="0" result="BackgroundImageFix"/>
<feColorMatrix in="SourceAlpha" type="matrix" values="0 0 0 0 0 0 0 0 0 0 0 0 0 0 0 0 0 0 127 0" result="hardAlpha"/>
<feOffset dx="1.37098" dy="2.05647"/>
<feGaussianBlur stdDeviation="1.26816"/>
<feComposite in2="hardAlpha" operator="out"/>
<feColorMatrix type="matrix" values="0 0 0 0 0 0 0 0 0 0 0 0 0 0 0 0 0 0 0.48 0"/>
<feBlend mode="normal" in2="BackgroundImageFix" result="effect1_dropShadow_970_3647"/>
<feBlend mode="normal" in="SourceGraphic" in2="effect1_dropShadow_970_3647" result="shape"/>
</filter>
<linearGradient id="paint0_linear_970_3647" x1="154.304" y1="178.912" x2="314.066" y2="235.071" gradientUnits="userSpaceOnUse">
<stop stop-color="#FFE030"/>
<stop offset="0.261174" stop-color="#FFFDEB"/>
<stop offset="0.360249" stop-color="#FFE610"/>
<stop offset="0.439479" stop-color="#FFF9C4"/>
<stop offset="0.614238" stop-color="#FFE514"/>
<stop offset="1" stop-color="#FFE41A"/>
</linearGradient>
<linearGradient id="paint1_linear_970_3647" x1="157.015" y1="155.519" x2="215.478" y2="244.483" gradientUnits="userSpaceOnUse">
<stop stop-color="#FFF459"/>
<stop offset="1" stop-color="#E9B334"/>
</linearGradient>
<linearGradient id="paint2_linear_970_3647" x1="170.407" y1="182.023" x2="313.977" y2="235.086" gradientUnits="userSpaceOnUse">
<stop stop-color="#FFEC1A"/>
<stop offset="0.380812" stop-color="#FFE60B"/>
<stop offset="1" stop-color="#FFE41A"/>
</linearGradient>
<linearGradient id="paint3_linear_970_3647" x1="265.337" y1="204.763" x2="281.734" y2="211.401" gradientUnits="userSpaceOnUse">
<stop stop-color="#D1D1D1"/>
<stop offset="0.3423" stop-color="#FAFAFA"/>
<stop offset="0.573639" stop-color="white"/>
<stop offset="1" stop-color="#666666"/>
</linearGradient>
<linearGradient id="paint4_linear_970_3647" x1="267.854" y1="199.416" x2="291.076" y2="207.563" gradientUnits="userSpaceOnUse">
<stop stop-color="white"/>
<stop offset="1" stop-color="#0B0B0B"/>
</linearGradient>
</defs>
</svg>
