<svg width="831" height="419" viewBox="0 0 831 419" fill="none" xmlns="http://www.w3.org/2000/svg">
<g filter="url(#filter0_d_3003_2385)">
<path d="M-29.3582 239.199C-30.2649 228.793 -22.5643 219.622 -12.1583 218.715L793.952 148.473C804.358 147.567 813.528 155.267 814.435 165.673L825.843 296.592C826.377 302.716 823.901 308.717 819.204 312.683L782.6 343.595C779.617 346.114 775.928 347.648 772.039 347.987L4.9306 414.83C-5.47541 415.737 -14.6462 408.036 -15.553 397.63L-29.3582 239.199Z" fill="#8A00DA"/>
<path d="M-11.8225 222.569L794.287 152.327C802.564 151.606 809.86 157.732 810.581 166.009L821.989 296.927C822.413 301.799 820.444 306.573 816.708 309.728L780.104 340.639C777.731 342.643 774.796 343.863 771.703 344.133L4.5947 410.976C-3.68266 411.697 -10.9779 405.572 -11.6994 397.295L-25.5046 238.863C-26.2259 230.586 -20.1 223.29 -11.8225 222.569Z" stroke="white" stroke-width="7.73719"/>
</g>
<path d="M823.497 305.643C824.955 305.516 825.706 307.334 824.598 308.279L778.244 347.792C777.35 348.554 775.966 348.039 775.789 346.878L772.44 324.957C772.437 324.932 772.431 324.908 772.423 324.881C771.684 322.438 771.672 318.726 774.025 315.431C776.383 312.128 781.045 309.342 789.452 308.61L823.497 305.643Z" fill="white" stroke="#C7C7C7"/>
<path d="M88.5075 280.972L87.8741 273.704L80.0557 274.385L80.6891 281.653L77.9634 281.891L76.5154 265.274L79.2411 265.036L79.862 272.161L87.6803 271.48L87.0595 264.355L89.7852 264.117L91.2331 280.734L88.5075 280.972ZM93.0946 273.875C92.7404 269.81 95.2566 266.893 98.7235 266.591C100.947 266.397 102.569 267.316 103.476 268.321L103.309 266.408L106.059 266.169L107.206 279.343L104.457 279.582L104.286 277.622C103.547 278.818 102.061 280.008 99.8611 280.199C96.4421 280.497 93.4487 277.94 93.0946 273.875ZM103.882 272.983C103.636 270.162 101.56 268.729 99.5036 268.908C97.4713 269.085 95.644 270.786 95.892 273.631C96.1399 276.476 98.2442 277.955 100.277 277.778C102.333 277.599 104.13 275.828 103.882 272.983ZM109.064 272.532C108.706 268.419 111.15 265.508 114.928 265.179C118.155 264.898 120.399 266.316 121.382 269.025L118.441 269.281C117.876 268.054 116.754 267.333 115.128 267.474C112.928 267.666 111.611 269.419 111.861 272.288C112.113 275.181 113.713 276.68 115.913 276.488C117.539 276.346 118.481 275.542 118.864 274.135L121.805 273.879C121.289 276.526 119.341 278.502 116.113 278.783C112.335 279.113 109.424 276.668 109.064 272.532ZM124.645 277.823L123.103 260.13L125.829 259.893L126.724 270.174L131.004 263.995L134.782 263.666L129.284 270.794L135.93 276.84L132.248 277.161L126.877 271.919L127.37 277.586L124.645 277.823ZM142.225 265.113C140.384 265.273 139.01 266.646 138.904 268.751L146.196 268.116C145.971 266.087 144.257 264.936 142.225 265.113ZM149.018 271.748C148.477 274.108 146.557 276.131 143.33 276.412C139.552 276.741 136.521 274.307 136.161 270.171C135.8 266.034 138.247 263.147 142.144 262.807C145.898 262.48 148.779 264.855 149.117 268.728C149.156 269.183 149.17 269.615 149.138 270.076L139.072 270.953C139.453 273.112 141.121 274.291 143.13 274.116C144.803 273.971 145.665 273.076 146.078 272.005L149.018 271.748ZM154.283 268.254L154.888 275.188L152.162 275.425L151.014 262.251L153.74 262.014L153.906 263.926C154.557 262.545 155.801 261.617 157.666 261.455L157.912 264.276L157.218 264.337C155.21 264.512 154.04 265.457 154.283 268.254ZM174.802 256.685L174.996 258.909L168.54 259.471L168.965 264.349L174.703 263.849L174.897 266.072L169.159 266.572L169.603 271.665L176.058 271.103L176.252 273.326L167.071 274.126L165.621 257.485L174.802 256.685ZM186.184 272.461L182.949 268.238L180.661 272.942L177.816 273.19L181.507 266.34L176.668 260.016L179.752 259.747L182.987 263.97L185.275 259.266L188.121 259.018L184.431 265.892L189.269 272.192L186.184 272.461ZM192.809 260.561C193.55 259.388 195.06 258.196 197.212 258.009C200.679 257.707 203.638 260.147 203.992 264.212C204.346 268.276 201.864 271.311 198.397 271.613C196.222 271.803 194.572 270.839 193.621 269.885L194.334 278.062L191.608 278.3L189.914 258.862L192.64 258.624L192.809 260.561ZM201.218 264.453C200.971 261.608 198.877 260.249 196.82 260.428C194.788 260.605 192.967 262.378 193.213 265.199C193.461 268.044 195.561 269.475 197.593 269.298C199.65 269.119 201.466 267.299 201.218 264.453ZM211.608 259.067C209.767 259.228 208.393 260.6 208.287 262.705L215.579 262.07C215.355 260.042 213.64 258.89 211.608 259.067ZM218.401 265.703C217.86 268.062 215.941 270.085 212.713 270.366C208.935 270.695 205.904 268.261 205.544 264.125C205.183 259.988 207.63 257.101 211.527 256.761C215.281 256.434 218.162 258.809 218.5 262.683C218.539 263.137 218.553 263.569 218.521 264.03L208.455 264.907C208.836 267.066 210.504 268.246 212.513 268.071C214.186 267.925 215.048 267.031 215.461 265.959L218.401 265.703ZM223.666 262.208L224.271 269.142L221.545 269.38L220.397 256.205L223.123 255.968L223.289 257.881C223.94 256.499 225.184 255.571 227.049 255.409L227.295 258.23L226.601 258.291C224.593 258.466 223.423 259.411 223.666 262.208ZM230.482 268.601L229.334 255.427L232.06 255.189L233.208 268.363L230.482 268.601ZM230.569 253.56C229.588 253.646 228.757 252.947 228.671 251.967C228.586 250.987 229.284 250.155 230.265 250.07C231.221 249.986 232.053 250.685 232.138 251.665C232.224 252.645 231.525 253.477 230.569 253.56ZM241.127 256.495C239.286 256.655 237.912 258.028 237.807 260.133L245.099 259.498C244.874 257.469 243.16 256.318 241.127 256.495ZM247.921 263.13C247.38 265.49 245.46 267.512 242.232 267.794C238.455 268.123 235.424 265.689 235.064 261.552C234.703 257.416 237.15 254.529 241.047 254.189C244.801 253.862 247.682 256.237 248.019 260.11C248.059 260.565 248.073 260.997 248.04 261.458L237.975 262.335C238.355 264.494 240.024 265.673 242.032 265.498C243.706 265.353 244.568 264.458 244.98 263.387L247.921 263.13ZM260.413 265.993L259.772 258.629C259.561 256.214 258.138 255.085 256.153 255.258C254.145 255.433 252.938 256.791 253.149 259.206L253.79 266.57L251.065 266.807L249.917 253.633L252.642 253.396L252.774 254.902C253.565 253.749 254.967 252.976 256.545 252.839C259.629 252.57 262.117 254.305 262.438 257.987L263.115 265.757L260.413 265.993ZM264.869 258.955C264.511 254.843 266.955 251.932 270.733 251.602C273.961 251.321 276.204 252.74 277.187 255.449L274.246 255.705C273.682 254.477 272.559 253.756 270.933 253.898C268.733 254.089 267.416 255.842 267.666 258.712C267.919 261.605 269.519 263.103 271.718 262.912C273.344 262.77 274.286 261.965 274.669 260.559L277.61 260.302C277.094 262.949 275.146 264.926 271.918 265.207C268.141 265.536 265.23 263.092 264.869 258.955ZM285.03 252.669C283.189 252.83 281.815 254.202 281.709 256.307L289.002 255.672C288.777 253.644 287.062 252.492 285.03 252.669ZM291.824 259.305C291.283 261.665 289.363 263.687 286.135 263.968C282.357 264.297 279.327 261.863 278.966 257.727C278.606 253.591 281.052 250.703 284.95 250.364C288.703 250.037 291.585 252.411 291.922 256.285C291.962 256.739 291.975 257.172 291.943 257.632L281.877 258.509C282.258 260.668 283.927 261.848 285.935 261.673C287.609 261.527 288.47 260.633 288.883 259.561L291.824 259.305ZM300.939 262.461L299.791 249.287L302.517 249.05L303.665 262.224L300.939 262.461ZM301.026 247.421C300.046 247.506 299.214 246.808 299.128 245.828C299.043 244.847 299.741 244.016 300.722 243.93C301.678 243.847 302.51 244.545 302.595 245.526C302.681 246.506 301.982 247.338 301.026 247.421ZM316.51 257.395C316.704 259.618 314.913 261.461 311.805 261.731C308.649 262.006 306.263 260.335 305.935 257.955L308.756 257.709C308.946 258.776 310.051 259.571 311.557 259.44C313.135 259.303 313.914 258.56 313.834 257.652C313.609 255.07 306.088 257.219 305.667 252.389C305.483 250.285 307.296 248.416 310.404 248.146C313.393 247.885 315.493 249.316 315.866 251.934L313.14 252.171C312.944 251.032 311.991 250.32 310.509 250.449C309.05 250.576 308.337 251.241 308.414 252.125C308.645 254.779 315.952 252.649 316.51 257.395ZM328.067 260.097L322.807 247.282L325.58 247.04L329.253 257.392L331.127 246.557L333.972 246.309L337.569 256.62L339.376 245.838L342.054 245.605L339.113 259.135L336.244 259.385L332.742 249.885L330.936 259.847L328.067 260.097ZM345 258.622L343.458 240.929L346.184 240.692L346.711 246.741C347.523 245.562 348.95 244.787 350.647 244.639C353.588 244.383 356.052 246.119 356.373 249.801L357.05 257.572L354.348 257.807L353.707 250.443C353.496 248.028 352.073 246.9 350.088 247.073C348.08 247.248 346.873 248.606 347.084 251.02L347.725 258.385L345 258.622ZM358.8 250.722C358.446 246.658 360.962 243.74 364.429 243.438C366.652 243.244 368.274 244.163 369.181 245.168L369.014 243.255L371.764 243.016L372.912 256.19L370.162 256.429L369.991 254.469C369.253 255.666 367.766 256.855 365.567 257.047C362.147 257.345 359.154 254.787 358.8 250.722ZM369.587 249.83C369.341 247.009 367.265 245.576 365.209 245.755C363.177 245.932 361.349 247.633 361.597 250.478C361.845 253.324 363.95 254.803 365.982 254.626C368.038 254.446 369.835 252.676 369.587 249.83ZM376.364 252.203L375.729 244.911L374.175 245.046L373.981 242.823L375.535 242.687L375.25 239.412L377.999 239.172L378.285 242.448L381.489 242.168L381.682 244.392L378.479 244.671L379.114 251.964C379.199 252.944 379.617 253.317 380.765 253.217L382.439 253.071L382.637 255.342L380.485 255.53C378.142 255.734 376.598 254.881 376.364 252.203ZM393.44 254.401L388.179 241.585L390.953 241.344L394.625 251.696L396.5 240.86L399.345 240.612L402.942 250.923L404.749 240.142L407.426 239.908L404.486 253.439L401.617 253.689L398.115 244.189L396.309 254.151L393.44 254.401ZM414.953 241.348C413.112 241.509 411.737 242.881 411.632 244.986L418.924 244.351C418.699 242.323 416.985 241.171 414.953 241.348ZM421.746 247.984C421.205 250.344 419.285 252.366 416.058 252.647C412.28 252.976 409.249 250.542 408.889 246.406C408.528 242.27 410.975 239.382 414.872 239.043C418.626 238.716 421.507 241.09 421.844 244.964C421.884 245.418 421.898 245.85 421.865 246.311L411.8 247.188C412.18 249.347 413.849 250.527 415.858 250.352C417.531 250.206 418.393 249.312 418.805 248.24L421.746 247.984ZM432.608 239.665C433.349 238.493 434.859 237.301 437.011 237.114C440.478 236.811 443.437 239.252 443.791 243.316C444.145 247.381 441.663 250.416 438.197 250.718C436.021 250.908 434.371 249.943 433.421 248.99L434.133 257.167L431.407 257.405L429.714 237.966L432.439 237.729L432.608 239.665ZM441.018 243.558C440.77 240.713 438.676 239.353 436.62 239.533C434.587 239.71 432.766 241.482 433.012 244.304C433.26 247.149 435.36 248.58 437.393 248.403C439.449 248.224 441.266 246.403 441.018 243.558ZM448.948 242.578L449.552 249.512L446.827 249.749L445.679 236.575L448.404 236.338L448.571 238.25C449.222 236.869 450.466 235.941 452.331 235.779L452.576 238.6L451.883 238.66C449.875 238.835 448.704 239.781 448.948 242.578ZM455.764 248.97L454.616 235.796L457.341 235.559L458.489 248.733L455.764 248.97ZM455.85 233.93C454.87 234.016 454.038 233.317 453.953 232.337C453.868 231.357 454.566 230.525 455.546 230.439C456.503 230.356 457.334 231.054 457.42 232.035C457.505 233.015 456.807 233.847 455.85 233.93ZM473.806 240.749C474.167 244.885 471.34 247.83 467.562 248.159C463.808 248.486 460.73 246.056 460.369 241.92C460.009 237.784 462.742 234.871 466.496 234.544C470.25 234.217 473.446 236.613 473.806 240.749ZM463.143 241.678C463.403 244.667 465.299 245.971 467.356 245.792C469.388 245.615 471.269 243.982 471.009 240.993C470.748 238.004 468.687 236.738 466.654 236.915C464.598 237.095 462.882 238.69 463.143 241.678ZM478.958 239.963L479.562 246.897L476.837 247.134L475.689 233.96L478.414 233.723L478.581 235.635C479.232 234.254 480.476 233.326 482.341 233.164L482.587 235.985L481.893 236.045C479.885 236.22 478.714 237.166 478.958 239.963ZM485.774 246.355L484.626 233.181L487.351 232.944L488.499 246.118L485.774 246.355ZM485.86 231.315C484.88 231.401 484.048 230.702 483.963 229.722C483.878 228.742 484.576 227.91 485.556 227.824C486.513 227.741 487.344 228.439 487.43 229.42C487.515 230.4 486.817 231.232 485.86 231.315ZM491.95 242.131L491.315 234.839L489.761 234.974L489.567 232.751L491.121 232.615L490.836 229.34L493.585 229.1L493.871 232.376L497.075 232.097L497.269 234.32L494.065 234.599L494.7 241.892C494.785 242.872 495.203 243.245 496.351 243.145L498.025 242.999L498.223 245.271L496.071 245.458C493.728 245.662 492.184 244.809 491.95 242.131ZM500.496 245.073L499.348 231.899L502.073 231.661L503.221 244.835L500.496 245.073ZM500.582 230.032C499.602 230.118 498.77 229.419 498.685 228.439C498.6 227.459 499.298 226.627 500.278 226.542C501.235 226.458 502.066 227.157 502.152 228.137C502.237 229.117 501.539 229.949 500.582 230.032ZM513.805 230.639L513.999 232.862L508.782 242.11L514.759 241.589L514.953 243.813L505.82 244.609L505.626 242.385L510.867 233.135L504.866 233.658L504.672 231.435L513.805 230.639ZM522.156 232.007C520.315 232.167 518.941 233.54 518.836 235.645L526.128 235.01C525.903 232.981 524.189 231.83 522.156 232.007ZM528.95 238.642C528.409 241.002 526.489 243.024 523.261 243.306C519.484 243.635 516.453 241.201 516.092 237.064C515.732 232.928 518.179 230.041 522.076 229.701C525.83 229.374 528.711 231.749 529.048 235.622C529.088 236.077 529.101 236.509 529.069 236.97L519.003 237.847C519.384 240.006 521.053 241.185 523.061 241.01C524.735 240.865 525.597 239.97 526.009 238.899L528.95 238.642ZM532.493 237.225L531.172 225.656L534.065 225.404L534.764 237.027L532.493 237.225ZM535.734 240.412C535.819 241.392 535.121 242.224 534.164 242.307C533.184 242.393 532.352 241.694 532.267 240.714C532.181 239.734 532.88 238.902 533.86 238.817C534.817 238.733 535.648 239.432 535.734 240.412ZM556.052 240.232L555.419 232.963L547.6 233.644L548.234 240.913L545.508 241.15L544.06 224.533L546.786 224.296L547.407 231.421L555.225 230.74L554.604 223.615L557.33 223.377L558.778 239.994L556.052 240.232ZM560.639 233.135C560.285 229.07 562.801 226.153 566.268 225.85C568.492 225.657 570.114 226.575 571.02 227.58L570.854 225.668L573.603 225.428L574.751 238.602L572.002 238.842L571.831 236.881C571.092 238.078 569.605 239.267 567.406 239.459C563.987 239.757 560.993 237.199 560.639 233.135ZM571.426 232.243C571.181 229.421 569.104 227.988 567.048 228.167C565.016 228.345 563.189 230.046 563.437 232.891C563.685 235.736 565.789 237.215 567.821 237.038C569.877 236.859 571.674 235.088 571.426 232.243ZM575.39 225.272L578.307 225.018L582.972 235.429L585.767 224.368L588.66 224.116L584.787 237.728L581.535 238.011L575.39 225.272ZM596.209 225.554C594.368 225.715 592.994 227.087 592.888 229.192L600.181 228.557C599.956 226.529 598.241 225.377 596.209 225.554ZM603.003 232.19C602.462 234.549 600.542 236.572 597.314 236.853C593.536 237.182 590.506 234.748 590.145 230.612C589.785 226.475 592.231 223.588 596.129 223.249C599.882 222.921 602.764 225.296 603.101 229.17C603.141 229.624 603.154 230.056 603.122 230.517L593.056 231.394C593.437 233.553 595.106 234.733 597.114 234.558C598.788 234.412 599.649 233.518 600.062 232.446L603.003 232.19ZM610.63 228.779C610.276 224.714 612.792 221.796 616.283 221.492C618.459 221.303 620.153 222.215 621.011 223.224L620.845 221.312L623.594 221.072L625.288 240.51L622.539 240.75L621.826 232.573C621.151 233.668 619.597 234.911 617.373 235.105C613.978 235.401 610.985 232.843 610.63 228.779ZM621.418 227.887C621.172 225.065 619.096 223.632 617.039 223.811C615.007 223.988 613.18 225.69 613.428 228.535C613.676 231.38 615.78 232.859 617.812 232.682C619.869 232.503 621.666 230.732 621.418 227.887ZM638.866 219.741L640.014 232.915L637.288 233.153L637.151 231.575C636.388 232.774 634.962 233.548 633.408 233.684C630.323 233.953 627.812 232.22 627.491 228.538L626.816 220.791L629.517 220.556L630.157 227.896C630.368 230.311 631.791 231.44 633.775 231.267C635.784 231.092 636.99 229.734 636.78 227.319L636.14 219.979L638.866 219.741ZM647.952 221.046C646.11 221.206 644.736 222.578 644.631 224.684L651.923 224.048C651.698 222.02 649.984 220.868 647.952 221.046ZM654.745 227.681C654.204 230.041 652.284 232.063 649.057 232.344C645.279 232.673 642.248 230.239 641.888 226.103C641.527 221.967 643.974 219.079 647.871 218.74C651.625 218.413 654.506 220.788 654.843 224.661C654.883 225.115 654.897 225.548 654.864 226.008L644.799 226.885C645.179 229.044 646.848 230.224 648.857 230.049C650.53 229.903 651.392 229.009 651.804 227.937L654.745 227.681ZM667.395 226.82C667.588 229.043 665.798 230.886 662.689 231.156C659.533 231.431 657.147 229.76 656.819 227.38L659.641 227.134C659.83 228.201 660.935 228.996 662.442 228.865C664.02 228.728 664.798 227.985 664.719 227.077C664.494 224.495 656.972 226.644 656.551 221.814C656.368 219.71 658.181 217.841 661.289 217.571C664.277 217.31 666.378 218.741 666.75 221.359L664.025 221.596C663.829 220.457 662.875 219.745 661.393 219.874C659.935 220.001 659.222 220.666 659.299 221.55C659.53 224.204 666.837 222.074 667.395 226.82ZM670.533 226.57L669.898 219.278L668.344 219.413L668.15 217.19L669.704 217.054L669.419 213.779L672.168 213.539L672.454 216.815L675.657 216.535L675.851 218.759L672.647 219.038L673.283 226.331C673.368 227.311 673.786 227.684 674.934 227.584L676.607 227.438L676.805 229.71L674.654 229.897C672.31 230.101 670.767 229.248 670.533 226.57ZM679.078 229.511L677.931 216.337L680.656 216.1L681.804 229.274L679.078 229.511ZM679.165 214.471C678.185 214.557 677.353 213.858 677.268 212.878C677.182 211.898 677.881 211.066 678.861 210.98C679.817 210.897 680.649 211.595 680.735 212.576C680.82 213.556 680.122 214.388 679.165 214.471ZM697.121 221.29C697.481 225.426 694.654 228.371 690.877 228.7C687.123 229.027 684.044 226.597 683.684 222.461C683.324 218.325 686.057 215.412 689.811 215.085C693.565 214.758 696.761 217.154 697.121 221.29ZM686.457 222.219C686.718 225.208 688.614 226.512 690.67 226.333C692.703 226.156 694.584 224.523 694.324 221.534C694.063 218.545 692.002 217.279 689.969 217.457C687.913 217.636 686.197 219.231 686.457 222.219ZM709.5 226.861L708.858 219.497C708.648 217.082 707.225 215.953 705.24 216.126C703.232 216.301 702.025 217.659 702.235 220.074L702.877 227.438L700.151 227.675L699.003 214.501L701.729 214.264L701.86 215.77C702.651 214.617 704.054 213.844 705.632 213.707C708.716 213.438 711.204 215.173 711.525 218.855L712.202 226.625L709.5 226.861ZM724.945 221.805C725.139 224.028 723.348 225.871 720.24 226.142C717.084 226.417 714.698 224.745 714.37 222.365L717.191 222.119C717.381 223.187 718.486 223.982 719.992 223.85C721.57 223.713 722.349 222.971 722.27 222.062C722.045 219.48 714.523 221.629 714.102 216.799C713.919 214.695 715.731 212.827 718.839 212.556C721.828 212.295 723.928 213.727 724.301 216.344L721.575 216.582C721.38 215.442 720.426 214.73 718.944 214.86C717.485 214.987 716.772 215.651 716.849 216.536C717.081 219.19 724.387 217.059 724.945 221.805ZM726.588 228.72L727.711 221.973L730.675 221.715L728.357 228.566L726.588 228.72ZM90.2635 314.948L89.6218 307.584C89.4113 305.169 87.988 304.04 86.0035 304.213C83.9951 304.388 82.7884 305.746 82.9989 308.161L83.6405 315.525L80.9149 315.762L79.7669 302.588L82.4926 302.351L82.6239 303.857C83.4147 302.704 84.817 301.931 86.395 301.794C89.4793 301.525 91.9673 303.26 92.2881 306.942L92.9652 314.712L90.2635 314.948ZM100.783 302.853C98.9421 303.013 97.5681 304.386 97.4624 306.491L104.755 305.856C104.53 303.827 102.815 302.676 100.783 302.853ZM107.577 309.488C107.036 311.848 105.116 313.87 101.888 314.152C98.1105 314.481 95.0797 312.047 94.7193 307.91C94.3589 303.774 96.8055 300.887 100.703 300.547C104.456 300.22 107.338 302.595 107.675 306.468C107.715 306.923 107.728 307.355 107.696 307.816L97.6302 308.693C98.0111 310.852 99.6798 312.031 101.688 311.856C103.362 311.711 104.223 310.816 104.636 309.745L107.577 309.488ZM115.301 301.588C113.46 301.748 112.086 303.121 111.98 305.226L119.272 304.591C119.047 302.562 117.333 301.411 115.301 301.588ZM122.094 308.223C121.553 310.583 119.633 312.605 116.406 312.887C112.628 313.216 109.597 310.782 109.237 306.645C108.876 302.509 111.323 299.622 115.22 299.282C118.974 298.955 121.855 301.33 122.193 305.203C122.232 305.658 122.246 306.09 122.214 306.551L112.148 307.428C112.529 309.587 114.197 310.766 116.206 310.591C117.879 310.446 118.741 309.551 119.153 308.48L122.094 308.223ZM123.75 305.333C123.396 301.268 125.912 298.351 129.403 298.046C131.124 297.896 133.012 298.551 134.125 299.707L133.571 293.347L136.32 293.107L137.862 310.8L135.112 311.04L134.94 309.055C134.207 310.324 132.716 311.465 130.565 311.653C127.098 311.955 124.104 309.397 123.75 305.333ZM134.537 304.441C134.292 301.62 132.215 300.186 130.159 300.365C128.127 300.543 126.3 302.244 126.548 305.089C126.795 307.934 128.9 309.413 130.932 309.236C132.988 309.057 134.785 307.286 134.537 304.441ZM145.687 303.421C145.333 299.356 147.849 296.439 151.316 296.137C153.54 295.943 155.161 296.862 156.068 297.867L155.901 295.954L158.651 295.715L159.799 308.889L157.049 309.128L156.878 307.168C156.14 308.364 154.653 309.554 152.454 309.746C149.035 310.043 146.041 307.486 145.687 303.421ZM156.474 302.529C156.228 299.708 154.152 298.275 152.096 298.454C150.064 298.631 148.236 300.332 148.484 303.177C148.732 306.023 150.837 307.501 152.869 307.324C154.925 307.145 156.722 305.375 156.474 302.529ZM172.646 304.059C172.84 306.283 171.049 308.125 167.94 308.396C164.784 308.671 162.398 307 162.07 304.619L164.892 304.374C165.081 305.441 166.186 306.236 167.693 306.105C169.271 305.967 170.049 305.225 169.97 304.317C169.745 301.734 162.223 303.883 161.802 299.054C161.619 296.95 163.432 295.081 166.54 294.81C169.529 294.55 171.629 295.981 172.001 298.599L169.276 298.836C169.08 297.697 168.127 296.985 166.644 297.114C165.186 297.241 164.473 297.906 164.55 298.79C164.781 301.444 172.088 299.314 172.646 304.059ZM185.179 302.967C185.372 305.191 183.582 307.033 180.473 307.304C177.317 307.579 174.931 305.908 174.603 303.527L177.425 303.281C177.614 304.349 178.719 305.144 180.225 305.013C181.804 304.875 182.582 304.133 182.503 303.224C182.278 300.642 174.756 302.791 174.335 297.962C174.152 295.858 175.964 293.989 179.073 293.718C182.061 293.458 184.162 294.889 184.534 297.507L181.808 297.744C181.613 296.605 180.659 295.893 179.177 296.022C177.719 296.149 177.006 296.813 177.083 297.698C177.314 300.352 184.621 298.222 185.179 302.967ZM188.206 306.413L187.058 293.239L189.783 293.002L190.931 306.176L188.206 306.413ZM188.292 291.373C187.312 291.459 186.48 290.76 186.395 289.78C186.309 288.8 187.008 287.968 187.988 287.882C188.944 287.799 189.776 288.497 189.862 289.478C189.947 290.458 189.249 291.29 188.292 291.373ZM203.777 301.347C203.97 303.57 202.18 305.413 199.071 305.683C195.915 305.958 193.529 304.287 193.201 301.907L196.023 301.661C196.212 302.729 197.317 303.524 198.823 303.392C200.401 303.255 201.18 302.512 201.101 301.604C200.876 299.022 193.354 301.171 192.933 296.341C192.75 294.237 194.562 292.369 197.671 292.098C200.659 291.837 202.759 293.268 203.132 295.886L200.406 296.123C200.211 294.984 199.257 294.272 197.775 294.401C196.317 294.528 195.604 295.193 195.681 296.078C195.912 298.731 203.219 296.601 203.777 301.347ZM206.915 301.097L206.28 293.805L204.726 293.94L204.532 291.717L206.086 291.581L205.8 288.306L208.55 288.066L208.835 291.342L212.039 291.063L212.233 293.286L209.029 293.565L209.665 300.858C209.75 301.838 210.168 302.211 211.316 302.111L212.989 301.965L213.187 304.237L211.035 304.424C208.692 304.628 207.148 303.775 206.915 301.097ZM213.973 297.471C213.618 293.406 216.135 290.489 219.602 290.187C221.825 289.993 223.447 290.912 224.354 291.917L224.187 290.004L226.937 289.764L228.085 302.939L225.335 303.178L225.164 301.218C224.425 302.414 222.939 303.604 220.739 303.795C217.32 304.093 214.327 301.535 213.973 297.471ZM224.76 296.579C224.514 293.758 222.438 292.325 220.382 292.504C218.349 292.681 216.522 294.382 216.77 297.227C217.018 300.072 219.122 301.551 221.155 301.374C223.211 301.195 225.008 299.424 224.76 296.579ZM240.774 301.833L240.132 294.469C239.922 292.054 238.499 290.925 236.514 291.098C234.506 291.273 233.299 292.631 233.509 295.046L234.151 302.41L231.425 302.647L230.278 289.473L233.003 289.236L233.134 290.742C233.925 289.589 235.328 288.816 236.906 288.679C239.99 288.41 242.478 290.145 242.799 293.827L243.476 301.597L240.774 301.833ZM245.23 294.795C244.872 290.683 247.316 287.772 251.094 287.443C254.322 287.161 256.565 288.58 257.548 291.289L254.607 291.545C254.042 290.318 252.92 289.596 251.294 289.738C249.094 289.93 247.777 291.683 248.027 294.552C248.279 297.445 249.88 298.943 252.079 298.752C253.705 298.61 254.647 297.805 255.03 296.399L257.971 296.142C257.455 298.789 255.507 300.766 252.279 301.047C248.502 301.376 245.59 298.932 245.23 294.795ZM265.391 288.51C263.55 288.67 262.176 290.042 262.07 292.148L269.363 291.512C269.138 289.484 267.423 288.332 265.391 288.51ZM272.185 295.145C271.643 297.505 269.724 299.527 266.496 299.808C262.718 300.137 259.688 297.703 259.327 293.567C258.967 289.431 261.413 286.543 265.311 286.204C269.064 285.877 271.945 288.252 272.283 292.125C272.322 292.579 272.336 293.012 272.304 293.472L262.238 294.349C262.619 296.508 264.288 297.688 266.296 297.513C267.97 297.367 268.831 296.473 269.244 295.401L272.185 295.145ZM273.944 302.291L275.067 295.544L278.031 295.286L275.713 302.137L273.944 302.291ZM298.409 290.162C298.769 294.298 295.942 297.242 292.164 297.572C288.41 297.899 285.332 295.469 284.971 291.332C284.611 287.196 287.345 284.284 291.098 283.957C294.852 283.63 298.048 286.025 298.409 290.162ZM287.745 291.091C288.005 294.079 289.902 295.384 291.958 295.205C293.99 295.027 295.872 293.394 295.611 290.405C295.351 287.417 293.289 286.151 291.257 286.328C289.201 286.507 287.485 288.102 287.745 291.091ZM303.56 289.375L304.165 296.309L301.439 296.547L300.291 283.373L303.017 283.135L303.183 285.048C303.834 283.666 305.078 282.739 306.943 282.576L307.189 285.397L306.495 285.458C304.487 285.633 303.317 286.578 303.56 289.375ZM316.434 280.207C315.454 280.293 314.622 279.594 314.537 278.614C314.452 277.634 315.15 276.802 316.13 276.716C317.087 276.633 317.918 277.332 318.004 278.312C318.089 279.292 317.391 280.124 316.434 280.207ZM315.2 282.073L317.925 281.836L319.298 297.592C319.532 300.27 318.185 301.399 315.842 301.603L314.431 301.726L314.231 299.431L315.163 299.35C316.311 299.25 316.658 298.81 316.573 297.83L315.2 282.073ZM333.196 280.505L334.344 293.679L331.618 293.917L331.481 292.339C330.718 293.538 329.292 294.312 327.737 294.448C324.653 294.717 322.141 292.984 321.82 289.302L321.145 281.555L323.847 281.32L324.487 288.66C324.697 291.075 326.121 292.204 328.105 292.031C330.113 291.856 331.32 290.498 331.11 288.083L330.47 280.743L333.196 280.505ZM347.207 288.849C347.401 291.072 345.61 292.915 342.502 293.185C339.346 293.46 336.959 291.789 336.632 289.409L339.453 289.163C339.642 290.23 340.747 291.025 342.254 290.894C343.832 290.757 344.61 290.014 344.531 289.106C344.306 286.524 336.784 288.673 336.363 283.843C336.18 281.739 337.993 279.871 341.101 279.6C344.09 279.339 346.19 280.77 346.562 283.388L343.837 283.625C343.641 282.486 342.688 281.774 341.205 281.903C339.747 282.03 339.034 282.695 339.111 283.579C339.342 286.233 346.649 284.103 347.207 288.849ZM350.345 288.599L349.71 281.307L348.156 281.442L347.962 279.219L349.516 279.083L349.231 275.808L351.98 275.568L352.266 278.844L355.47 278.564L355.663 280.788L352.46 281.067L353.095 288.36C353.18 289.34 353.598 289.713 354.746 289.613L356.42 289.467L356.618 291.739L354.466 291.926C352.123 292.13 350.579 291.277 350.345 288.599ZM367.421 290.797L362.16 277.981L364.934 277.74L368.606 288.092L370.481 277.256L373.326 277.008L376.923 287.319L378.73 276.538L381.407 276.304L378.467 289.835L375.598 290.085L372.096 280.585L370.29 290.547L367.421 290.797ZM382.865 282.754C382.511 278.689 385.028 275.772 388.494 275.47C390.718 275.276 392.34 276.195 393.247 277.2L393.08 275.287L395.829 275.048L396.977 288.222L394.228 288.461L394.057 286.501C393.318 287.697 391.832 288.887 389.632 289.079C386.213 289.376 383.22 286.819 382.865 282.754ZM393.653 281.862C393.407 279.041 391.331 277.608 389.274 277.787C387.242 277.964 385.415 279.665 385.663 282.51C385.911 285.356 388.015 286.834 390.047 286.657C392.104 286.478 393.901 284.708 393.653 281.862ZM409.667 287.116L409.025 279.752C408.815 277.337 407.391 276.208 405.407 276.381C403.399 276.556 402.192 277.914 402.402 280.329L403.044 287.693L400.318 287.931L399.17 274.756L401.896 274.519L402.027 276.025C402.818 274.872 404.22 274.1 405.798 273.962C408.883 273.693 411.371 275.428 411.692 279.11L412.369 286.881L409.667 287.116ZM415.718 282.903L415.083 275.61L413.528 275.746L413.335 273.522L414.889 273.387L414.603 270.111L417.353 269.872L417.638 273.147L420.842 272.868L421.036 275.092L417.832 275.371L418.468 282.663C418.553 283.643 418.971 284.017 420.119 283.917L421.792 283.771L421.99 286.042L419.838 286.23C417.495 286.434 415.951 285.581 415.718 282.903ZM430.347 281.628L429.711 274.336L428.157 274.471L427.963 272.248L429.517 272.112L429.232 268.837L431.982 268.597L432.267 271.873L435.471 271.593L435.665 273.817L432.461 274.096L433.096 281.389C433.182 282.369 433.6 282.742 434.747 282.642L436.421 282.496L436.619 284.767L434.467 284.955C432.124 285.159 430.58 284.306 430.347 281.628ZM450.869 276.877C451.23 281.013 448.403 283.957 444.625 284.287C440.871 284.614 437.793 282.184 437.432 278.047C437.072 273.911 439.805 270.999 443.559 270.672C447.313 270.345 450.509 272.74 450.869 276.877ZM440.206 277.806C440.466 280.794 442.362 282.099 444.419 281.92C446.451 281.743 448.332 280.109 448.072 277.12C447.811 274.132 445.75 272.866 443.717 273.043C441.661 273.222 439.945 274.817 440.206 277.806ZM458.388 276.221C458.029 272.109 460.474 269.198 464.252 268.869C467.479 268.587 469.723 270.006 470.706 272.715L467.765 272.971C467.2 271.744 466.078 271.022 464.452 271.164C462.252 271.356 460.935 273.109 461.185 275.978C461.437 278.871 463.037 280.37 465.237 280.178C466.863 280.036 467.805 279.231 468.188 277.825L471.129 277.569C470.613 280.215 468.665 282.192 465.437 282.473C461.659 282.802 458.748 280.358 458.388 276.221ZM485.946 273.82C486.306 277.956 483.479 280.901 479.702 281.23C475.948 281.557 472.869 279.127 472.509 274.991C472.149 270.855 474.882 267.942 478.636 267.615C482.39 267.288 485.586 269.684 485.946 273.82ZM475.282 274.749C475.543 277.738 477.439 279.042 479.495 278.863C481.528 278.686 483.409 277.053 483.149 274.064C482.888 271.075 480.827 269.809 478.794 269.987C476.738 270.166 475.022 271.761 475.282 274.749ZM498.325 279.391L497.683 272.026C497.473 269.612 496.05 268.483 494.065 268.656C492.057 268.831 490.85 270.189 491.06 272.604L491.702 279.968L488.976 280.205L487.829 267.031L490.554 266.794L490.685 268.3C491.476 267.147 492.879 266.374 494.457 266.237C497.541 265.968 500.029 267.703 500.35 271.385L501.027 279.155L498.325 279.391ZM513.613 278.058L512.971 270.694C512.761 268.279 511.338 267.151 509.353 267.324C507.345 267.499 506.138 268.857 506.348 271.271L506.99 278.636L504.264 278.873L503.116 265.699L505.842 265.461L505.973 266.968C506.764 265.815 508.167 265.042 509.745 264.905C512.829 264.636 515.317 266.37 515.638 270.052L516.315 277.823L513.613 278.058ZM524.133 265.964C522.292 266.124 520.918 267.496 520.812 269.602L528.104 268.966C527.879 266.938 526.165 265.786 524.133 265.964ZM530.926 272.599C530.385 274.959 528.466 276.981 525.238 277.262C521.46 277.591 518.429 275.157 518.069 271.021C517.708 266.885 520.155 263.997 524.052 263.658C527.806 263.331 530.687 265.706 531.025 269.579C531.064 270.033 531.078 270.466 531.046 270.926L520.98 271.803C521.361 273.962 523.029 275.142 525.038 274.967C526.711 274.821 527.573 273.927 527.986 272.855L530.926 272.599ZM532.586 269.756C532.228 265.644 534.673 262.732 538.45 262.403C541.678 262.122 543.922 263.541 544.904 266.249L541.964 266.506C541.399 265.278 540.276 264.557 538.65 264.699C536.451 264.89 535.134 266.643 535.384 269.512C535.636 272.405 537.236 273.904 539.436 273.712C541.062 273.571 542.003 272.766 542.387 271.359L545.327 271.103C544.811 273.75 542.863 275.726 539.636 276.008C535.858 276.337 532.947 273.892 532.586 269.756ZM548.279 271.352L547.643 264.059L546.089 264.195L545.895 261.971L547.45 261.836L547.164 258.56L549.914 258.321L550.199 261.596L553.403 261.317L553.597 263.541L550.393 263.82L551.028 271.112C551.114 272.093 551.532 272.466 552.679 272.366L554.353 272.22L554.551 274.491L552.399 274.679C550.056 274.883 548.512 274.03 548.279 271.352ZM554.948 262.435C554.672 259.544 556.575 257.331 559.826 257.047C563.03 256.768 565.371 258.468 565.641 261.576C565.935 264.947 563.673 266.638 560.469 266.917L560.538 268.814L558.171 269.02L557.725 265.277L558.514 265.208C561.216 264.973 563.254 264.313 563.035 261.803C562.889 260.129 561.772 259.191 560.05 259.341C558.353 259.489 557.36 260.539 557.506 262.212L554.948 262.435ZM561.349 272.309C561.434 273.289 560.736 274.121 559.779 274.204C558.799 274.29 557.967 273.591 557.882 272.611C557.797 271.631 558.495 270.799 559.475 270.713C560.432 270.63 561.263 271.329 561.349 272.309ZM575.422 272.673L573.974 256.056L583.753 255.203L583.947 257.427L576.893 258.042L577.321 262.943L582.82 262.464L583.014 264.687L577.514 265.167L578.148 272.435L575.422 272.673ZM592.068 260.044C590.227 260.204 588.853 261.577 588.747 263.682L596.04 263.046C595.815 261.018 594.1 259.867 592.068 260.044ZM598.862 266.679C598.321 269.039 596.401 271.061 593.173 271.343C589.395 271.672 586.365 269.238 586.004 265.101C585.644 260.965 588.09 258.078 591.988 257.738C595.741 257.411 598.622 259.786 598.96 263.659C599 264.114 599.013 264.546 598.981 265.007L588.915 265.884C589.296 268.043 590.965 269.222 592.973 269.047C594.647 268.901 595.508 268.007 595.921 266.935L598.862 266.679ZM606.586 258.779C604.745 258.939 603.371 260.312 603.265 262.417L610.557 261.781C610.332 259.753 608.618 258.602 606.586 258.779ZM613.379 265.414C612.838 267.774 610.918 269.796 607.691 270.078C603.913 270.407 600.882 267.973 600.522 263.836C600.161 259.7 602.608 256.813 606.505 256.473C610.259 256.146 613.14 258.521 613.477 262.394C613.517 262.849 613.531 263.281 613.499 263.742L603.433 264.619C603.814 266.778 605.482 267.957 607.491 267.782C609.164 267.636 610.026 266.742 610.438 265.67L613.379 265.414ZM616.523 269.091L614.981 251.398L617.707 251.161L619.249 268.854L616.523 269.091ZM628.894 268.013L627.94 257.063L626.386 257.198L626.192 254.974L627.746 254.839L627.665 253.907C627.401 250.87 628.84 249.42 632.283 249.12L632.481 251.391C630.807 251.537 630.284 252.161 630.415 253.667L630.496 254.599L632.935 254.387L633.129 256.611L630.69 256.823L631.644 267.774L628.894 268.013ZM638.381 260.2L638.985 267.134L636.259 267.371L635.111 254.197L637.837 253.96L638.004 255.873C638.654 254.491 639.898 253.563 641.763 253.401L642.009 256.222L641.316 256.283C639.307 256.458 638.137 257.403 638.381 260.2ZM649.777 255.015C647.936 255.176 646.562 256.548 646.456 258.653L653.748 258.018C653.523 255.99 651.809 254.838 649.777 255.015ZM656.57 261.651C656.029 264.011 654.109 266.033 650.882 266.314C647.104 266.643 644.073 264.209 643.713 260.073C643.352 255.937 645.799 253.049 649.696 252.71C653.45 252.383 656.331 254.757 656.669 258.631C656.708 259.085 656.722 259.517 656.69 259.978L646.624 260.855C647.005 263.014 648.673 264.194 650.682 264.019C652.355 263.873 653.217 262.979 653.629 261.907L656.57 261.651ZM664.294 253.75C662.453 253.911 661.079 255.283 660.973 257.388L668.266 256.753C668.041 254.725 666.326 253.573 664.294 253.75ZM671.088 260.386C670.547 262.746 668.627 264.768 665.399 265.049C661.621 265.378 658.591 262.944 658.23 258.808C657.87 254.671 660.316 251.784 664.214 251.445C667.967 251.118 670.848 253.492 671.186 257.366C671.226 257.82 671.239 258.252 671.207 258.713L661.141 259.59C661.522 261.749 663.191 262.929 665.199 262.754C666.873 262.608 667.734 261.714 668.147 260.642L671.088 260.386ZM680.315 259.847L679.679 252.554L678.125 252.69L677.931 250.466L679.486 250.331L679.2 247.055L681.95 246.816L682.235 250.091L685.439 249.812L685.633 252.036L682.429 252.315L683.064 259.607C683.15 260.587 683.568 260.96 684.715 260.86L686.389 260.715L686.587 262.986L684.435 263.174C682.092 263.378 680.548 262.524 680.315 259.847ZM700.837 255.095C701.198 259.231 698.371 262.176 694.593 262.505C690.839 262.832 687.761 260.402 687.4 256.266C687.04 252.13 689.773 249.217 693.527 248.89C697.281 248.563 700.477 250.959 700.837 255.095ZM690.174 256.024C690.434 259.013 692.331 260.317 694.387 260.138C696.419 259.961 698.3 258.328 698.04 255.339C697.78 252.35 695.718 251.084 693.686 251.262C691.629 251.441 689.913 253.036 690.174 256.024ZM85.9878 342.463L86.592 349.397L83.8663 349.634L82.7184 336.46L85.4441 336.222L85.6107 338.135C86.2613 336.754 87.5054 335.826 89.3704 335.664L89.6162 338.485L88.9228 338.545C86.9145 338.72 85.7441 339.665 85.9878 342.463ZM97.3837 337.278C95.5427 337.438 94.1686 338.811 94.063 340.916L101.355 340.281C101.13 338.252 99.416 337.101 97.3837 337.278ZM104.177 343.913C103.636 346.273 101.716 348.295 98.4887 348.577C94.711 348.906 91.6803 346.472 91.3198 342.335C90.9594 338.199 93.406 335.312 97.3033 334.972C101.057 334.645 103.938 337.02 104.276 340.893C104.315 341.348 104.329 341.78 104.297 342.241L94.2307 343.118C94.6116 345.277 96.2803 346.456 98.2887 346.281C99.9624 346.136 100.824 345.241 101.236 344.17L104.177 343.913ZM105.833 341.023C105.479 336.958 107.995 334.041 111.462 333.739C113.686 333.545 115.308 334.463 116.214 335.469L116.048 333.556L118.797 333.316L119.945 346.49L117.195 346.73L117.025 344.769C116.286 345.966 114.799 347.155 112.6 347.347C109.181 347.645 106.187 345.087 105.833 341.023ZM116.62 340.131C116.375 337.31 114.298 335.876 112.242 336.056C110.21 336.233 108.383 337.934 108.631 340.779C108.878 343.624 110.983 345.103 113.015 344.926C115.071 344.747 116.868 342.976 116.62 340.131ZM121.802 339.679C121.444 335.567 123.889 332.656 127.666 332.327C130.894 332.045 133.138 333.464 134.121 336.173L131.18 336.429C130.615 335.201 129.492 334.48 127.866 334.622C125.667 334.814 124.35 336.566 124.6 339.436C124.852 342.329 126.452 343.827 128.652 343.636C130.278 343.494 131.219 342.689 131.603 341.283L134.543 341.026C134.027 343.673 132.08 345.65 128.852 345.931C125.074 346.26 122.163 343.816 121.802 339.679ZM137.383 344.971L135.842 327.278L138.567 327.04L139.094 333.089C139.907 331.91 141.333 331.136 143.031 330.988C145.972 330.731 148.436 332.468 148.756 336.15L149.434 343.921L146.732 344.156L146.09 336.792C145.88 334.377 144.456 333.249 142.472 333.421C140.463 333.596 139.257 334.954 139.467 337.369L140.109 344.733L137.383 344.971ZM170.62 335.425C170.981 339.562 168.154 342.506 164.376 342.836C160.622 343.163 157.544 340.733 157.183 336.596C156.823 332.46 159.556 329.548 163.31 329.221C167.064 328.894 170.26 331.289 170.62 335.425ZM159.957 336.355C160.217 339.343 162.114 340.648 164.17 340.468C166.202 340.291 168.083 338.658 167.823 335.669C167.563 332.681 165.501 331.415 163.469 331.592C161.412 331.771 159.696 333.366 159.957 336.355ZM184.434 327.597L185.582 340.771L182.856 341.008L182.718 339.43C181.956 340.629 180.529 341.404 178.975 341.539C175.891 341.808 173.379 340.076 173.058 336.394L172.383 328.647L175.085 328.411L175.725 335.752C175.935 338.166 177.358 339.295 179.343 339.122C181.351 338.947 182.558 337.589 182.348 335.175L181.708 327.834L184.434 327.597ZM189.05 336.783L188.415 329.49L186.861 329.626L186.667 327.402L188.221 327.267L187.936 323.991L190.685 323.752L190.971 327.027L194.175 326.748L194.368 328.972L191.165 329.251L191.8 336.543C191.885 337.523 192.303 337.897 193.451 337.797L195.125 337.651L195.323 339.922L193.171 340.11C190.828 340.314 189.284 339.461 189.05 336.783ZM197.995 334.63L196.674 323.061L199.567 322.809L200.266 334.432L197.995 334.63ZM201.236 337.817C201.321 338.797 200.623 339.629 199.667 339.712C198.686 339.798 197.854 339.099 197.769 338.119C197.684 337.139 198.382 336.307 199.362 336.221C200.319 336.138 201.15 336.837 201.236 337.817Z" fill="#F6F6F6"/>
<g filter="url(#filter1_d_3003_2385)">
<mask id="path-5-outside-1_3003_2385" maskUnits="userSpaceOnUse" x="59.6914" y="-0.707379" width="694" height="237" fill="black">
<rect fill="white" x="59.6914" y="-0.707379" width="694" height="237"/>
<path d="M78.1638 122.443L73.6914 71.1172L114.736 67.5407L115.944 81.4081L94.1867 83.304L94.5895 87.9265L113.319 86.2945L114.569 100.64L95.8395 102.272L96.2423 106.895L118 104.999L119.208 118.866L78.1638 122.443Z"/>
<path d="M139.375 117.109L115.137 67.5057L135.221 65.7556L147.351 93.4472L154.588 64.0681L174.672 62.318L159.379 115.366L139.375 117.109Z"/>
<path d="M183.157 113.294L178.684 61.9684L219.729 58.3919L220.937 72.2594L199.179 74.1553L199.582 78.7778L218.311 77.1458L219.561 91.4914L200.832 93.1234L201.235 97.7459L222.993 95.85L224.201 109.717L183.157 113.294Z"/>
<path d="M227.364 109.442L222.892 58.1163L251.742 55.6024C256.152 55.2181 259.866 55.7511 262.883 57.2013C265.896 58.5984 268.22 60.6978 269.856 63.4997C271.541 66.2439 272.543 69.449 272.862 73.1151C273.163 76.5687 272.524 79.6759 270.944 82.4368C269.418 85.193 267.48 87.5301 265.131 89.4479C265.748 89.7689 266.236 90.1546 266.597 90.605C266.953 91.0023 267.258 91.4307 267.512 91.8904L274.784 105.31L254.7 107.06L248.686 96.1005C248.365 95.4861 248.036 95.0865 247.699 94.9017C247.357 94.6639 246.893 94.5704 246.309 94.6213L245.512 94.6908L246.651 107.761L227.364 109.442ZM244.199 79.6278L248.902 79.2181C252.036 78.9449 253.488 77.4801 253.257 74.8235C253.127 73.3358 252.662 72.3055 251.863 71.7328C251.117 71.1554 250 70.9315 248.512 71.0611L243.491 71.4986L244.199 79.6278Z"/>
<path d="M291.028 103.894L289.403 85.245L267.986 54.1869L288.07 52.4368L297.623 68.0666L304.329 51.0201L324.413 49.2701L308.69 83.5644L310.315 102.214L291.028 103.894Z"/>
<path d="M340.692 99.5668L337.428 62.1087L324.358 63.2476L323.149 49.3802L368.577 45.4217L369.786 59.2892L356.715 60.4281L359.979 97.8862L340.692 99.5668Z"/>
<path d="M375.864 96.502L371.391 45.1765L390.678 43.4959L392.137 60.2325L404.968 59.1144L403.51 42.3778L422.797 40.6972L427.269 92.0227L407.982 93.7033L406.524 76.9667L393.692 78.0848L395.151 94.8214L375.864 96.502Z"/>
<path d="M432.835 91.5377L428.363 40.2122L447.65 38.5316L452.122 89.8571L432.835 91.5377Z"/>
<path d="M457.663 89.3743L453.191 38.0487L469.37 36.639L485.465 55.4728L483.715 35.3889L503.002 33.7083L507.474 85.0339L491.216 86.4506L475.2 67.6098L476.95 87.6937L457.663 89.3743Z"/>
<path d="M541.44 82.8772C531.77 83.7198 524.164 82.1341 518.621 78.1201C513.132 74.1015 510.007 67.7354 509.248 59.0217C508.489 50.3081 510.598 43.4859 515.575 38.5552C520.553 33.6245 528.089 30.7193 538.184 29.8397C541.478 29.5526 544.443 29.4816 547.079 29.6267C549.764 29.714 552.365 30.0762 554.883 30.7134L556.314 47.1312C553.786 46.3877 551.233 45.9678 548.655 45.8712C546.126 45.7169 543.533 45.7555 540.876 45.9869C537.157 46.311 534.14 47.3234 531.825 49.0241C529.56 50.667 528.596 53.4277 528.934 57.3064C529.272 61.185 530.355 63.7941 532.185 65.1336C534.064 66.4154 536.623 66.9151 539.864 66.6327C541.565 66.4845 543.142 66.1597 544.598 65.6581L544.327 62.5499L535.799 63.293L534.785 51.6571L559.253 49.5251L561.565 76.0645C559.502 77.5826 556.815 78.9946 553.502 80.3004C550.19 81.6062 546.169 82.4652 541.44 82.8772Z"/>
<path d="M598.846 77.072L597.221 58.4227L575.804 27.3646L595.888 25.6145L605.441 41.2443L612.147 24.1978L632.231 22.4478L616.508 56.7421L618.133 75.3914L598.846 77.072Z"/>
<path d="M659.453 72.594C653.661 73.0986 648.646 72.6791 644.407 71.3353C640.163 69.9385 636.782 67.3956 634.266 63.7068C631.75 60.018 630.211 54.9591 629.651 48.5301C629.086 42.048 629.727 36.7993 631.572 32.784C633.412 28.7155 636.304 25.653 640.247 23.5962C644.185 21.4864 649.05 20.1791 654.841 19.6745C660.633 19.1699 665.651 19.616 669.894 21.0128C674.134 22.3566 677.512 24.8728 680.028 28.5617C682.54 32.1973 684.078 37.2562 684.643 43.7383C685.203 50.1673 684.563 55.416 682.723 59.4845C680.882 63.5529 677.993 66.6421 674.054 68.7519C670.111 70.8087 665.244 72.0893 659.453 72.594ZM658.029 56.2559C660.845 56.0105 662.773 55.093 663.812 53.5035C664.9 51.8562 665.282 49.1729 664.957 45.4537C664.633 41.7344 663.796 39.1842 662.444 37.803C661.141 36.364 659.081 35.7672 656.265 36.0126C653.449 36.258 651.497 37.2043 650.409 38.8516C649.37 40.4412 649.013 43.0956 649.337 46.8148C649.661 50.5341 650.474 53.1132 651.778 54.5521C653.129 55.9333 655.213 56.5013 658.029 56.2559Z"/>
<path d="M716.176 67.6513C711.341 68.0726 706.915 67.6553 702.897 66.3993C698.88 65.1433 695.592 63.0474 693.034 60.1117C690.529 57.1714 689.078 53.4165 688.68 48.8472L685.971 17.765L705.258 16.0844L707.751 44.696C708.168 49.4778 710.502 51.6836 714.752 51.3132C719.003 50.9428 720.92 48.3667 720.503 43.5848L718.01 14.9732L737.297 13.2926L740.005 44.3748C740.403 48.9442 739.597 52.8958 737.585 56.2297C735.627 59.5589 732.778 62.1895 729.038 64.1214C725.298 66.0534 721.011 67.23 716.176 67.6513Z"/>
<path d="M86.8446 222.065L82.3722 170.74L98.5509 169.33L114.647 188.164L112.897 168.08L132.183 166.399L136.656 217.725L120.397 219.141L104.381 200.301L106.131 220.385L86.8446 222.065Z"/>
<path d="M142.26 217.236L137.787 165.911L178.832 162.334L180.04 176.202L158.283 178.098L158.685 182.72L177.414 181.088L178.664 195.434L159.935 197.066L160.338 201.688L182.096 199.793L183.304 213.66L142.26 217.236Z"/>
<path d="M186.467 213.384L181.995 162.059L223.039 158.482L224.248 172.35L202.49 174.246L202.893 178.868L221.622 177.236L222.872 191.582L204.143 193.214L204.546 197.836L226.303 195.94L227.512 209.808L186.467 213.384Z"/>
<path d="M230.675 209.532L226.202 158.207L250.59 156.082C256.009 155.609 260.788 156.076 264.926 157.483C269.059 158.836 272.381 161.33 274.893 164.966C277.4 168.548 278.927 173.474 279.473 179.744C279.991 185.695 279.324 190.624 277.469 194.534C275.668 198.438 272.851 201.44 269.019 203.541C265.24 205.637 260.588 206.926 255.062 207.407L230.675 209.532ZM248.684 193.187L251.553 192.937C253.466 192.771 255.089 192.361 256.425 191.71C257.76 191.058 258.732 189.929 259.342 188.324C259.951 186.718 260.126 184.428 259.867 181.452C259.608 178.477 259.07 176.302 258.255 174.927C257.434 173.5 256.315 172.634 254.896 172.329C253.526 171.967 251.805 171.876 249.733 172.056L246.864 172.306L248.684 193.187Z"/>
<path d="M311.08 202.526L307.817 165.068L294.746 166.207L293.538 152.339L338.966 148.381L340.174 162.248L327.103 163.387L330.367 200.845L311.08 202.526Z"/>
<path d="M371.445 198.069C365.654 198.574 360.638 198.154 356.399 196.81C352.155 195.413 348.775 192.871 346.259 189.182C343.742 185.493 342.204 180.434 341.644 174.005C341.079 167.523 341.719 162.274 343.564 158.259C345.405 154.191 348.296 151.128 352.239 149.071C356.178 146.961 361.043 145.654 366.834 145.15C372.625 144.645 377.643 145.091 381.887 146.488C386.126 147.832 389.504 150.348 392.021 154.037C394.532 157.672 396.071 162.731 396.635 169.213C397.196 175.642 396.556 180.891 394.715 184.959C392.875 189.028 389.985 192.117 386.047 194.227C382.104 196.284 377.237 197.564 371.445 198.069ZM370.022 181.731C372.838 181.486 374.765 180.568 375.804 178.979C376.892 177.331 377.274 174.648 376.95 170.929C376.626 167.209 375.788 164.659 374.436 163.278C373.133 161.839 371.074 161.242 368.258 161.488C365.442 161.733 363.49 162.679 362.402 164.327C361.363 165.916 361.005 168.571 361.329 172.29C361.653 176.009 362.467 178.588 363.77 180.027C365.122 181.408 367.206 181.976 370.022 181.731Z"/>
<path d="M418.401 193.174L413.928 141.849L433.215 140.168L434.465 154.514L444.453 139.189L466.21 137.293L450.531 160.1L472.277 188.48L451.874 190.258L439.798 173.322L436.521 178.105L437.688 191.494L418.401 193.174Z"/>
<path d="M475.061 188.237L470.589 136.912L486.767 135.502L502.863 154.336L501.113 134.252L520.4 132.571L524.872 183.897L508.614 185.314L492.598 166.473L494.348 186.557L475.061 188.237Z"/>
<path d="M556.447 181.948C550.656 182.453 545.641 182.034 541.401 180.69C537.157 179.293 533.777 176.75 531.261 173.061C528.744 169.373 527.206 164.314 526.646 157.885C526.081 151.403 526.721 146.154 528.566 142.138C530.407 138.07 533.298 135.007 537.241 132.951C541.18 130.841 546.045 129.534 551.836 129.029C557.627 128.524 562.645 128.97 566.889 130.367C571.128 131.711 574.506 134.227 577.023 137.916C579.534 141.552 581.073 146.611 581.638 153.093C582.198 159.522 581.558 164.771 579.717 168.839C577.877 172.907 574.987 175.997 571.049 178.106C567.106 180.163 562.239 181.444 556.447 181.948ZM555.024 165.61C557.84 165.365 559.767 164.448 560.807 162.858C561.894 161.211 562.276 158.527 561.952 154.808C561.628 151.089 560.79 148.539 559.438 147.157C558.135 145.719 556.076 145.122 553.26 145.367C550.444 145.612 548.492 146.559 547.404 148.206C546.365 149.796 546.007 152.45 546.331 156.169C546.655 159.889 547.469 162.468 548.772 163.907C550.124 165.288 552.208 165.856 555.024 165.61Z"/>
<path d="M596.641 177.643L580.214 127.359L599.023 125.72L604.636 144.986L606.634 133.81L605.877 125.123L621.577 123.755L629.031 142.94L631.699 122.873L650.428 121.241L643.025 173.601L626.209 175.067L618.308 155.358L613.457 176.178L596.641 177.643Z"/>
<path d="M656.952 156.407L654.554 135.336L653.304 120.99L672.591 119.31L673.841 133.655L675.123 154.824L656.952 156.407ZM657.457 172.344L656.298 159.034L676.222 157.298L677.382 170.608L657.457 172.344Z"/>
<path d="M370.022 181.731C372.838 181.486 374.765 180.568 375.804 178.979C376.892 177.331 377.274 174.648 376.95 170.929C376.626 167.209 375.788 164.659 374.436 163.278C373.133 161.839 371.074 161.242 368.258 161.488C365.442 161.733 363.49 162.679 362.402 164.327C361.363 165.916 361.005 168.571 361.329 172.29C361.653 176.009 362.467 178.588 363.77 180.027C365.122 181.408 367.206 181.976 370.022 181.731Z"/>
<path d="M555.024 165.61C557.84 165.365 559.767 164.448 560.807 162.858C561.894 161.211 562.276 158.527 561.952 154.808C561.628 151.089 560.79 148.539 559.438 147.157C558.135 145.719 556.076 145.122 553.26 145.367C550.444 145.612 548.492 146.559 547.404 148.206C546.365 149.796 546.007 152.45 546.331 156.169C546.655 159.889 547.469 162.468 548.772 163.907C550.124 165.288 552.208 165.856 555.024 165.61Z"/>
<path d="M658.029 56.2559C660.845 56.0105 662.773 55.093 663.812 53.5035C664.9 51.8562 665.282 49.1729 664.957 45.4537C664.633 41.7344 663.796 39.1842 662.444 37.803C661.141 36.364 659.081 35.7672 656.265 36.0126C653.449 36.258 651.497 37.2043 650.409 38.8516C649.37 40.4412 649.013 43.0956 649.337 46.8148C649.661 50.5341 650.474 53.1132 651.778 54.5521C653.129 55.9333 655.213 56.5013 658.029 56.2559Z"/>
</mask>
<path d="M78.1638 122.443L73.6914 71.1172L114.736 67.5407L115.944 81.4081L94.1867 83.304L94.5895 87.9265L113.319 86.2945L114.569 100.64L95.8395 102.272L96.2423 106.895L118 104.999L119.208 118.866L78.1638 122.443Z" fill="#8E01DA"/>
<path d="M139.375 117.109L115.137 67.5057L135.221 65.7556L147.351 93.4472L154.588 64.0681L174.672 62.318L159.379 115.366L139.375 117.109Z" fill="#8E01DA"/>
<path d="M183.157 113.294L178.684 61.9684L219.729 58.3919L220.937 72.2594L199.179 74.1553L199.582 78.7778L218.311 77.1458L219.561 91.4914L200.832 93.1234L201.235 97.7459L222.993 95.85L224.201 109.717L183.157 113.294Z" fill="#8E01DA"/>
<path d="M227.364 109.442L222.892 58.1163L251.742 55.6024C256.152 55.2181 259.866 55.7511 262.883 57.2013C265.896 58.5984 268.22 60.6978 269.856 63.4997C271.541 66.2439 272.543 69.449 272.862 73.1151C273.163 76.5687 272.524 79.6759 270.944 82.4368C269.418 85.193 267.48 87.5301 265.131 89.4479C265.748 89.7689 266.236 90.1546 266.597 90.605C266.953 91.0023 267.258 91.4307 267.512 91.8904L274.784 105.31L254.7 107.06L248.686 96.1005C248.365 95.4861 248.036 95.0865 247.699 94.9017C247.357 94.6639 246.893 94.5704 246.309 94.6213L245.512 94.6908L246.651 107.761L227.364 109.442ZM244.199 79.6278L248.902 79.2181C252.036 78.9449 253.488 77.4801 253.257 74.8235C253.127 73.3358 252.662 72.3055 251.863 71.7328C251.117 71.1554 250 70.9315 248.512 71.0611L243.491 71.4986L244.199 79.6278Z" fill="#8E01DA"/>
<path d="M291.028 103.894L289.403 85.245L267.986 54.1869L288.07 52.4368L297.623 68.0666L304.329 51.0201L324.413 49.2701L308.69 83.5644L310.315 102.214L291.028 103.894Z" fill="#8E01DA"/>
<path d="M340.692 99.5668L337.428 62.1087L324.358 63.2476L323.149 49.3802L368.577 45.4217L369.786 59.2892L356.715 60.4281L359.979 97.8862L340.692 99.5668Z" fill="#8E01DA"/>
<path d="M375.864 96.502L371.391 45.1765L390.678 43.4959L392.137 60.2325L404.968 59.1144L403.51 42.3778L422.797 40.6972L427.269 92.0227L407.982 93.7033L406.524 76.9667L393.692 78.0848L395.151 94.8214L375.864 96.502Z" fill="#8E01DA"/>
<path d="M432.835 91.5377L428.363 40.2122L447.65 38.5316L452.122 89.8571L432.835 91.5377Z" fill="#8E01DA"/>
<path d="M457.663 89.3743L453.191 38.0487L469.37 36.639L485.465 55.4728L483.715 35.3889L503.002 33.7083L507.474 85.0339L491.216 86.4506L475.2 67.6098L476.95 87.6937L457.663 89.3743Z" fill="#8E01DA"/>
<path d="M541.44 82.8772C531.77 83.7198 524.164 82.1341 518.621 78.1201C513.132 74.1015 510.007 67.7354 509.248 59.0217C508.489 50.3081 510.598 43.4859 515.575 38.5552C520.553 33.6245 528.089 30.7193 538.184 29.8397C541.478 29.5526 544.443 29.4816 547.079 29.6267C549.764 29.714 552.365 30.0762 554.883 30.7134L556.314 47.1312C553.786 46.3877 551.233 45.9678 548.655 45.8712C546.126 45.7169 543.533 45.7555 540.876 45.9869C537.157 46.311 534.14 47.3234 531.825 49.0241C529.56 50.667 528.596 53.4277 528.934 57.3064C529.272 61.185 530.355 63.7941 532.185 65.1336C534.064 66.4154 536.623 66.9151 539.864 66.6327C541.565 66.4845 543.142 66.1597 544.598 65.6581L544.327 62.5499L535.799 63.293L534.785 51.6571L559.253 49.5251L561.565 76.0645C559.502 77.5826 556.815 78.9946 553.502 80.3004C550.19 81.6062 546.169 82.4652 541.44 82.8772Z" fill="#8E01DA"/>
<path d="M598.846 77.072L597.221 58.4227L575.804 27.3646L595.888 25.6145L605.441 41.2443L612.147 24.1978L632.231 22.4478L616.508 56.7421L618.133 75.3914L598.846 77.072Z" fill="#8E01DA"/>
<path d="M659.453 72.594C653.661 73.0986 648.646 72.6791 644.407 71.3353C640.163 69.9385 636.782 67.3956 634.266 63.7068C631.75 60.018 630.211 54.9591 629.651 48.5301C629.086 42.048 629.727 36.7993 631.572 32.784C633.412 28.7155 636.304 25.653 640.247 23.5962C644.185 21.4864 649.05 20.1791 654.841 19.6745C660.633 19.1699 665.651 19.616 669.894 21.0128C674.134 22.3566 677.512 24.8728 680.028 28.5617C682.54 32.1973 684.078 37.2562 684.643 43.7383C685.203 50.1673 684.563 55.416 682.723 59.4845C680.882 63.5529 677.993 66.6421 674.054 68.7519C670.111 70.8087 665.244 72.0893 659.453 72.594ZM658.029 56.2559C660.845 56.0105 662.773 55.093 663.812 53.5035C664.9 51.8562 665.282 49.1729 664.957 45.4537C664.633 41.7344 663.796 39.1842 662.444 37.803C661.141 36.364 659.081 35.7672 656.265 36.0126C653.449 36.258 651.497 37.2043 650.409 38.8516C649.37 40.4412 649.013 43.0956 649.337 46.8148C649.661 50.5341 650.474 53.1132 651.778 54.5521C653.129 55.9333 655.213 56.5013 658.029 56.2559Z" fill="#8E01DA"/>
<path d="M716.176 67.6513C711.341 68.0726 706.915 67.6553 702.897 66.3993C698.88 65.1433 695.592 63.0474 693.034 60.1117C690.529 57.1714 689.078 53.4165 688.68 48.8472L685.971 17.765L705.258 16.0844L707.751 44.696C708.168 49.4778 710.502 51.6836 714.752 51.3132C719.003 50.9428 720.92 48.3667 720.503 43.5848L718.01 14.9732L737.297 13.2926L740.005 44.3748C740.403 48.9442 739.597 52.8958 737.585 56.2297C735.627 59.5589 732.778 62.1895 729.038 64.1214C725.298 66.0534 721.011 67.23 716.176 67.6513Z" fill="#8E01DA"/>
<path d="M86.8446 222.065L82.3722 170.74L98.5509 169.33L114.647 188.164L112.897 168.08L132.183 166.399L136.656 217.725L120.397 219.141L104.381 200.301L106.131 220.385L86.8446 222.065Z" fill="#8E01DA"/>
<path d="M142.26 217.236L137.787 165.911L178.832 162.334L180.04 176.202L158.283 178.098L158.685 182.72L177.414 181.088L178.664 195.434L159.935 197.066L160.338 201.688L182.096 199.793L183.304 213.66L142.26 217.236Z" fill="#8E01DA"/>
<path d="M186.467 213.384L181.995 162.059L223.039 158.482L224.248 172.35L202.49 174.246L202.893 178.868L221.622 177.236L222.872 191.582L204.143 193.214L204.546 197.836L226.303 195.94L227.512 209.808L186.467 213.384Z" fill="#8E01DA"/>
<path d="M230.675 209.532L226.202 158.207L250.59 156.082C256.009 155.609 260.788 156.076 264.926 157.483C269.059 158.836 272.381 161.33 274.893 164.966C277.4 168.548 278.927 173.474 279.473 179.744C279.991 185.695 279.324 190.624 277.469 194.534C275.668 198.438 272.851 201.44 269.019 203.541C265.24 205.637 260.588 206.926 255.062 207.407L230.675 209.532ZM248.684 193.187L251.553 192.937C253.466 192.771 255.089 192.361 256.425 191.71C257.76 191.058 258.732 189.929 259.342 188.324C259.951 186.718 260.126 184.428 259.867 181.452C259.608 178.477 259.07 176.302 258.255 174.927C257.434 173.5 256.315 172.634 254.896 172.329C253.526 171.967 251.805 171.876 249.733 172.056L246.864 172.306L248.684 193.187Z" fill="#8E01DA"/>
<path d="M311.08 202.526L307.817 165.068L294.746 166.207L293.538 152.339L338.966 148.381L340.174 162.248L327.103 163.387L330.367 200.845L311.08 202.526Z" fill="#8E01DA"/>
<path d="M371.445 198.069C365.654 198.574 360.638 198.154 356.399 196.81C352.155 195.413 348.775 192.871 346.259 189.182C343.742 185.493 342.204 180.434 341.644 174.005C341.079 167.523 341.719 162.274 343.564 158.259C345.405 154.191 348.296 151.128 352.239 149.071C356.178 146.961 361.043 145.654 366.834 145.15C372.625 144.645 377.643 145.091 381.887 146.488C386.126 147.832 389.504 150.348 392.021 154.037C394.532 157.672 396.071 162.731 396.635 169.213C397.196 175.642 396.556 180.891 394.715 184.959C392.875 189.028 389.985 192.117 386.047 194.227C382.104 196.284 377.237 197.564 371.445 198.069ZM370.022 181.731C372.838 181.486 374.765 180.568 375.804 178.979C376.892 177.331 377.274 174.648 376.95 170.929C376.626 167.209 375.788 164.659 374.436 163.278C373.133 161.839 371.074 161.242 368.258 161.488C365.442 161.733 363.49 162.679 362.402 164.327C361.363 165.916 361.005 168.571 361.329 172.29C361.653 176.009 362.467 178.588 363.77 180.027C365.122 181.408 367.206 181.976 370.022 181.731Z" fill="#8E01DA"/>
<path d="M418.401 193.174L413.928 141.849L433.215 140.168L434.465 154.514L444.453 139.189L466.21 137.293L450.531 160.1L472.277 188.48L451.874 190.258L439.798 173.322L436.521 178.105L437.688 191.494L418.401 193.174Z" fill="#8E01DA"/>
<path d="M475.061 188.237L470.589 136.912L486.767 135.502L502.863 154.336L501.113 134.252L520.4 132.571L524.872 183.897L508.614 185.314L492.598 166.473L494.348 186.557L475.061 188.237Z" fill="#8E01DA"/>
<path d="M556.447 181.948C550.656 182.453 545.641 182.034 541.401 180.69C537.157 179.293 533.777 176.75 531.261 173.061C528.744 169.373 527.206 164.314 526.646 157.885C526.081 151.403 526.721 146.154 528.566 142.138C530.407 138.07 533.298 135.007 537.241 132.951C541.18 130.841 546.045 129.534 551.836 129.029C557.627 128.524 562.645 128.97 566.889 130.367C571.128 131.711 574.506 134.227 577.023 137.916C579.534 141.552 581.073 146.611 581.638 153.093C582.198 159.522 581.558 164.771 579.717 168.839C577.877 172.907 574.987 175.997 571.049 178.106C567.106 180.163 562.239 181.444 556.447 181.948ZM555.024 165.61C557.84 165.365 559.767 164.448 560.807 162.858C561.894 161.211 562.276 158.527 561.952 154.808C561.628 151.089 560.79 148.539 559.438 147.157C558.135 145.719 556.076 145.122 553.26 145.367C550.444 145.612 548.492 146.559 547.404 148.206C546.365 149.796 546.007 152.45 546.331 156.169C546.655 159.889 547.469 162.468 548.772 163.907C550.124 165.288 552.208 165.856 555.024 165.61Z" fill="#8E01DA"/>
<path d="M596.641 177.643L580.214 127.359L599.023 125.72L604.636 144.986L606.634 133.81L605.877 125.123L621.577 123.755L629.031 142.94L631.699 122.873L650.428 121.241L643.025 173.601L626.209 175.067L618.308 155.358L613.457 176.178L596.641 177.643Z" fill="#8E01DA"/>
<path d="M656.952 156.407L654.554 135.336L653.304 120.99L672.591 119.31L673.841 133.655L675.123 154.824L656.952 156.407ZM657.457 172.344L656.298 159.034L676.222 157.298L677.382 170.608L657.457 172.344Z" fill="#8E01DA"/>
<path d="M370.022 181.731C372.838 181.486 374.765 180.568 375.804 178.979C376.892 177.331 377.274 174.648 376.95 170.929C376.626 167.209 375.788 164.659 374.436 163.278C373.133 161.839 371.074 161.242 368.258 161.488C365.442 161.733 363.49 162.679 362.402 164.327C361.363 165.916 361.005 168.571 361.329 172.29C361.653 176.009 362.467 178.588 363.77 180.027C365.122 181.408 367.206 181.976 370.022 181.731Z" fill="white"/>
<path d="M555.024 165.61C557.84 165.365 559.767 164.448 560.807 162.858C561.894 161.211 562.276 158.527 561.952 154.808C561.628 151.089 560.79 148.539 559.438 147.157C558.135 145.719 556.076 145.122 553.26 145.367C550.444 145.612 548.492 146.559 547.404 148.206C546.365 149.796 546.007 152.45 546.331 156.169C546.655 159.889 547.469 162.468 548.772 163.907C550.124 165.288 552.208 165.856 555.024 165.61Z" fill="white"/>
<path d="M658.029 56.2559C660.845 56.0105 662.773 55.093 663.812 53.5035C664.9 51.8562 665.282 49.1729 664.957 45.4537C664.633 41.7344 663.796 39.1842 662.444 37.803C661.141 36.364 659.081 35.7672 656.265 36.0126C653.449 36.258 651.497 37.2043 650.409 38.8516C649.37 40.4412 649.013 43.0956 649.337 46.8148C649.661 50.5341 650.474 53.1132 651.778 54.5521C653.129 55.9333 655.213 56.5013 658.029 56.2559Z" fill="white"/>
<path d="M78.1638 122.443L73.6914 71.1172L114.736 67.5407L115.944 81.4081L94.1867 83.304L94.5895 87.9265L113.319 86.2945L114.569 100.64L95.8395 102.272L96.2423 106.895L118 104.999L119.208 118.866L78.1638 122.443Z" stroke="white" stroke-width="26.5852" stroke-linejoin="round" mask="url(#path-5-outside-1_3003_2385)"/>
<path d="M139.375 117.109L115.137 67.5057L135.221 65.7556L147.351 93.4472L154.588 64.0681L174.672 62.318L159.379 115.366L139.375 117.109Z" stroke="white" stroke-width="26.5852" stroke-linejoin="round" mask="url(#path-5-outside-1_3003_2385)"/>
<path d="M183.157 113.294L178.684 61.9684L219.729 58.3919L220.937 72.2594L199.179 74.1553L199.582 78.7778L218.311 77.1458L219.561 91.4914L200.832 93.1234L201.235 97.7459L222.993 95.85L224.201 109.717L183.157 113.294Z" stroke="white" stroke-width="26.5852" stroke-linejoin="round" mask="url(#path-5-outside-1_3003_2385)"/>
<path d="M227.364 109.442L222.892 58.1163L251.742 55.6024C256.152 55.2181 259.866 55.7511 262.883 57.2013C265.896 58.5984 268.22 60.6978 269.856 63.4997C271.541 66.2439 272.543 69.449 272.862 73.1151C273.163 76.5687 272.524 79.6759 270.944 82.4368C269.418 85.193 267.48 87.5301 265.131 89.4479C265.748 89.7689 266.236 90.1546 266.597 90.605C266.953 91.0023 267.258 91.4307 267.512 91.8904L274.784 105.31L254.7 107.06L248.686 96.1005C248.365 95.4861 248.036 95.0865 247.699 94.9017C247.357 94.6639 246.893 94.5704 246.309 94.6213L245.512 94.6908L246.651 107.761L227.364 109.442ZM244.199 79.6278L248.902 79.2181C252.036 78.9449 253.488 77.4801 253.257 74.8235C253.127 73.3358 252.662 72.3055 251.863 71.7328C251.117 71.1554 250 70.9315 248.512 71.0611L243.491 71.4986L244.199 79.6278Z" stroke="white" stroke-width="26.5852" stroke-linejoin="round" mask="url(#path-5-outside-1_3003_2385)"/>
<path d="M291.028 103.894L289.403 85.245L267.986 54.1869L288.07 52.4368L297.623 68.0666L304.329 51.0201L324.413 49.2701L308.69 83.5644L310.315 102.214L291.028 103.894Z" stroke="white" stroke-width="26.5852" stroke-linejoin="round" mask="url(#path-5-outside-1_3003_2385)"/>
<path d="M340.692 99.5668L337.428 62.1087L324.358 63.2476L323.149 49.3802L368.577 45.4217L369.786 59.2892L356.715 60.4281L359.979 97.8862L340.692 99.5668Z" stroke="white" stroke-width="26.5852" stroke-linejoin="round" mask="url(#path-5-outside-1_3003_2385)"/>
<path d="M375.864 96.502L371.391 45.1765L390.678 43.4959L392.137 60.2325L404.968 59.1144L403.51 42.3778L422.797 40.6972L427.269 92.0227L407.982 93.7033L406.524 76.9667L393.692 78.0848L395.151 94.8214L375.864 96.502Z" stroke="white" stroke-width="26.5852" stroke-linejoin="round" mask="url(#path-5-outside-1_3003_2385)"/>
<path d="M432.835 91.5377L428.363 40.2122L447.65 38.5316L452.122 89.8571L432.835 91.5377Z" stroke="white" stroke-width="26.5852" stroke-linejoin="round" mask="url(#path-5-outside-1_3003_2385)"/>
<path d="M457.663 89.3743L453.191 38.0487L469.37 36.639L485.465 55.4728L483.715 35.3889L503.002 33.7083L507.474 85.0339L491.216 86.4506L475.2 67.6098L476.95 87.6937L457.663 89.3743Z" stroke="white" stroke-width="26.5852" stroke-linejoin="round" mask="url(#path-5-outside-1_3003_2385)"/>
<path d="M541.44 82.8772C531.77 83.7198 524.164 82.1341 518.621 78.1201C513.132 74.1015 510.007 67.7354 509.248 59.0217C508.489 50.3081 510.598 43.4859 515.575 38.5552C520.553 33.6245 528.089 30.7193 538.184 29.8397C541.478 29.5526 544.443 29.4816 547.079 29.6267C549.764 29.714 552.365 30.0762 554.883 30.7134L556.314 47.1312C553.786 46.3877 551.233 45.9678 548.655 45.8712C546.126 45.7169 543.533 45.7555 540.876 45.9869C537.157 46.311 534.14 47.3234 531.825 49.0241C529.56 50.667 528.596 53.4277 528.934 57.3064C529.272 61.185 530.355 63.7941 532.185 65.1336C534.064 66.4154 536.623 66.9151 539.864 66.6327C541.565 66.4845 543.142 66.1597 544.598 65.6581L544.327 62.5499L535.799 63.293L534.785 51.6571L559.253 49.5251L561.565 76.0645C559.502 77.5826 556.815 78.9946 553.502 80.3004C550.19 81.6062 546.169 82.4652 541.44 82.8772Z" stroke="white" stroke-width="26.5852" stroke-linejoin="round" mask="url(#path-5-outside-1_3003_2385)"/>
<path d="M598.846 77.072L597.221 58.4227L575.804 27.3646L595.888 25.6145L605.441 41.2443L612.147 24.1978L632.231 22.4478L616.508 56.7421L618.133 75.3914L598.846 77.072Z" stroke="white" stroke-width="26.5852" stroke-linejoin="round" mask="url(#path-5-outside-1_3003_2385)"/>
<path d="M659.453 72.594C653.661 73.0986 648.646 72.6791 644.407 71.3353C640.163 69.9385 636.782 67.3956 634.266 63.7068C631.75 60.018 630.211 54.9591 629.651 48.5301C629.086 42.048 629.727 36.7993 631.572 32.784C633.412 28.7155 636.304 25.653 640.247 23.5962C644.185 21.4864 649.05 20.1791 654.841 19.6745C660.633 19.1699 665.651 19.616 669.894 21.0128C674.134 22.3566 677.512 24.8728 680.028 28.5617C682.54 32.1973 684.078 37.2562 684.643 43.7383C685.203 50.1673 684.563 55.416 682.723 59.4845C680.882 63.5529 677.993 66.6421 674.054 68.7519C670.111 70.8087 665.244 72.0893 659.453 72.594ZM658.029 56.2559C660.845 56.0105 662.773 55.093 663.812 53.5035C664.9 51.8562 665.282 49.1729 664.957 45.4537C664.633 41.7344 663.796 39.1842 662.444 37.803C661.141 36.364 659.081 35.7672 656.265 36.0126C653.449 36.258 651.497 37.2043 650.409 38.8516C649.37 40.4412 649.013 43.0956 649.337 46.8148C649.661 50.5341 650.474 53.1132 651.778 54.5521C653.129 55.9333 655.213 56.5013 658.029 56.2559Z" stroke="white" stroke-width="26.5852" stroke-linejoin="round" mask="url(#path-5-outside-1_3003_2385)"/>
<path d="M716.176 67.6513C711.341 68.0726 706.915 67.6553 702.897 66.3993C698.88 65.1433 695.592 63.0474 693.034 60.1117C690.529 57.1714 689.078 53.4165 688.68 48.8472L685.971 17.765L705.258 16.0844L707.751 44.696C708.168 49.4778 710.502 51.6836 714.752 51.3132C719.003 50.9428 720.92 48.3667 720.503 43.5848L718.01 14.9732L737.297 13.2926L740.005 44.3748C740.403 48.9442 739.597 52.8958 737.585 56.2297C735.627 59.5589 732.778 62.1895 729.038 64.1214C725.298 66.0534 721.011 67.23 716.176 67.6513Z" stroke="white" stroke-width="26.5852" stroke-linejoin="round" mask="url(#path-5-outside-1_3003_2385)"/>
<path d="M86.8446 222.065L82.3722 170.74L98.5509 169.33L114.647 188.164L112.897 168.08L132.183 166.399L136.656 217.725L120.397 219.141L104.381 200.301L106.131 220.385L86.8446 222.065Z" stroke="white" stroke-width="26.5852" stroke-linejoin="round" mask="url(#path-5-outside-1_3003_2385)"/>
<path d="M142.26 217.236L137.787 165.911L178.832 162.334L180.04 176.202L158.283 178.098L158.685 182.72L177.414 181.088L178.664 195.434L159.935 197.066L160.338 201.688L182.096 199.793L183.304 213.66L142.26 217.236Z" stroke="white" stroke-width="26.5852" stroke-linejoin="round" mask="url(#path-5-outside-1_3003_2385)"/>
<path d="M186.467 213.384L181.995 162.059L223.039 158.482L224.248 172.35L202.49 174.246L202.893 178.868L221.622 177.236L222.872 191.582L204.143 193.214L204.546 197.836L226.303 195.94L227.512 209.808L186.467 213.384Z" stroke="white" stroke-width="26.5852" stroke-linejoin="round" mask="url(#path-5-outside-1_3003_2385)"/>
<path d="M230.675 209.532L226.202 158.207L250.59 156.082C256.009 155.609 260.788 156.076 264.926 157.483C269.059 158.836 272.381 161.33 274.893 164.966C277.4 168.548 278.927 173.474 279.473 179.744C279.991 185.695 279.324 190.624 277.469 194.534C275.668 198.438 272.851 201.44 269.019 203.541C265.24 205.637 260.588 206.926 255.062 207.407L230.675 209.532ZM248.684 193.187L251.553 192.937C253.466 192.771 255.089 192.361 256.425 191.71C257.76 191.058 258.732 189.929 259.342 188.324C259.951 186.718 260.126 184.428 259.867 181.452C259.608 178.477 259.07 176.302 258.255 174.927C257.434 173.5 256.315 172.634 254.896 172.329C253.526 171.967 251.805 171.876 249.733 172.056L246.864 172.306L248.684 193.187Z" stroke="white" stroke-width="26.5852" stroke-linejoin="round" mask="url(#path-5-outside-1_3003_2385)"/>
<path d="M311.08 202.526L307.817 165.068L294.746 166.207L293.538 152.339L338.966 148.381L340.174 162.248L327.103 163.387L330.367 200.845L311.08 202.526Z" stroke="white" stroke-width="26.5852" stroke-linejoin="round" mask="url(#path-5-outside-1_3003_2385)"/>
<path d="M371.445 198.069C365.654 198.574 360.638 198.154 356.399 196.81C352.155 195.413 348.775 192.871 346.259 189.182C343.742 185.493 342.204 180.434 341.644 174.005C341.079 167.523 341.719 162.274 343.564 158.259C345.405 154.191 348.296 151.128 352.239 149.071C356.178 146.961 361.043 145.654 366.834 145.15C372.625 144.645 377.643 145.091 381.887 146.488C386.126 147.832 389.504 150.348 392.021 154.037C394.532 157.672 396.071 162.731 396.635 169.213C397.196 175.642 396.556 180.891 394.715 184.959C392.875 189.028 389.985 192.117 386.047 194.227C382.104 196.284 377.237 197.564 371.445 198.069ZM370.022 181.731C372.838 181.486 374.765 180.568 375.804 178.979C376.892 177.331 377.274 174.648 376.95 170.929C376.626 167.209 375.788 164.659 374.436 163.278C373.133 161.839 371.074 161.242 368.258 161.488C365.442 161.733 363.49 162.679 362.402 164.327C361.363 165.916 361.005 168.571 361.329 172.29C361.653 176.009 362.467 178.588 363.77 180.027C365.122 181.408 367.206 181.976 370.022 181.731Z" stroke="white" stroke-width="26.5852" stroke-linejoin="round" mask="url(#path-5-outside-1_3003_2385)"/>
<path d="M418.401 193.174L413.928 141.849L433.215 140.168L434.465 154.514L444.453 139.189L466.21 137.293L450.531 160.1L472.277 188.48L451.874 190.258L439.798 173.322L436.521 178.105L437.688 191.494L418.401 193.174Z" stroke="white" stroke-width="26.5852" stroke-linejoin="round" mask="url(#path-5-outside-1_3003_2385)"/>
<path d="M475.061 188.237L470.589 136.912L486.767 135.502L502.863 154.336L501.113 134.252L520.4 132.571L524.872 183.897L508.614 185.314L492.598 166.473L494.348 186.557L475.061 188.237Z" stroke="white" stroke-width="26.5852" stroke-linejoin="round" mask="url(#path-5-outside-1_3003_2385)"/>
<path d="M556.447 181.948C550.656 182.453 545.641 182.034 541.401 180.69C537.157 179.293 533.777 176.75 531.261 173.061C528.744 169.373 527.206 164.314 526.646 157.885C526.081 151.403 526.721 146.154 528.566 142.138C530.407 138.07 533.298 135.007 537.241 132.951C541.18 130.841 546.045 129.534 551.836 129.029C557.627 128.524 562.645 128.97 566.889 130.367C571.128 131.711 574.506 134.227 577.023 137.916C579.534 141.552 581.073 146.611 581.638 153.093C582.198 159.522 581.558 164.771 579.717 168.839C577.877 172.907 574.987 175.997 571.049 178.106C567.106 180.163 562.239 181.444 556.447 181.948ZM555.024 165.61C557.84 165.365 559.767 164.448 560.807 162.858C561.894 161.211 562.276 158.527 561.952 154.808C561.628 151.089 560.79 148.539 559.438 147.157C558.135 145.719 556.076 145.122 553.26 145.367C550.444 145.612 548.492 146.559 547.404 148.206C546.365 149.796 546.007 152.45 546.331 156.169C546.655 159.889 547.469 162.468 548.772 163.907C550.124 165.288 552.208 165.856 555.024 165.61Z" stroke="white" stroke-width="26.5852" stroke-linejoin="round" mask="url(#path-5-outside-1_3003_2385)"/>
<path d="M596.641 177.643L580.214 127.359L599.023 125.72L604.636 144.986L606.634 133.81L605.877 125.123L621.577 123.755L629.031 142.94L631.699 122.873L650.428 121.241L643.025 173.601L626.209 175.067L618.308 155.358L613.457 176.178L596.641 177.643Z" stroke="white" stroke-width="26.5852" stroke-linejoin="round" mask="url(#path-5-outside-1_3003_2385)"/>
<path d="M656.952 156.407L654.554 135.336L653.304 120.99L672.591 119.31L673.841 133.655L675.123 154.824L656.952 156.407ZM657.457 172.344L656.298 159.034L676.222 157.298L677.382 170.608L657.457 172.344Z" stroke="white" stroke-width="26.5852" stroke-linejoin="round" mask="url(#path-5-outside-1_3003_2385)"/>
<path d="M370.022 181.731C372.838 181.486 374.765 180.568 375.804 178.979C376.892 177.331 377.274 174.648 376.95 170.929C376.626 167.209 375.788 164.659 374.436 163.278C373.133 161.839 371.074 161.242 368.258 161.488C365.442 161.733 363.49 162.679 362.402 164.327C361.363 165.916 361.005 168.571 361.329 172.29C361.653 176.009 362.467 178.588 363.77 180.027C365.122 181.408 367.206 181.976 370.022 181.731Z" stroke="white" stroke-width="26.5852" stroke-linejoin="round" mask="url(#path-5-outside-1_3003_2385)"/>
<path d="M555.024 165.61C557.84 165.365 559.767 164.448 560.807 162.858C561.894 161.211 562.276 158.527 561.952 154.808C561.628 151.089 560.79 148.539 559.438 147.157C558.135 145.719 556.076 145.122 553.26 145.367C550.444 145.612 548.492 146.559 547.404 148.206C546.365 149.796 546.007 152.45 546.331 156.169C546.655 159.889 547.469 162.468 548.772 163.907C550.124 165.288 552.208 165.856 555.024 165.61Z" stroke="white" stroke-width="26.5852" stroke-linejoin="round" mask="url(#path-5-outside-1_3003_2385)"/>
<path d="M658.029 56.2559C660.845 56.0105 662.773 55.093 663.812 53.5035C664.9 51.8562 665.282 49.1729 664.957 45.4537C664.633 41.7344 663.796 39.1842 662.444 37.803C661.141 36.364 659.081 35.7672 656.265 36.0126C653.449 36.258 651.497 37.2043 650.409 38.8516C649.37 40.4412 649.013 43.0956 649.337 46.8148C649.661 50.5341 650.474 53.1132 651.778 54.5521C653.129 55.9333 655.213 56.5013 658.029 56.2559Z" stroke="white" stroke-width="26.5852" stroke-linejoin="round" mask="url(#path-5-outside-1_3003_2385)"/>
</g>
<defs>
<filter id="filter0_d_3003_2385" x="-29.4297" y="148.401" width="860.344" height="270.502" filterUnits="userSpaceOnUse" color-interpolation-filters="sRGB">
<feFlood flood-opacity="0" result="BackgroundImageFix"/>
<feColorMatrix in="SourceAlpha" type="matrix" values="0 0 0 0 0 0 0 0 0 0 0 0 0 0 0 0 0 0 127 0" result="hardAlpha"/>
<feOffset dx="5" dy="4"/>
<feComposite in2="hardAlpha" operator="out"/>
<feColorMatrix type="matrix" values="0 0 0 0 0 0 0 0 0 0 0 0 0 0 0 0 0 0 0.25 0"/>
<feBlend mode="normal" in2="BackgroundImageFix" result="effect1_dropShadow_3003_2385"/>
<feBlend mode="normal" in="SourceGraphic" in2="effect1_dropShadow_3003_2385" result="shape"/>
</filter>
<filter id="filter1_d_3003_2385" x="60.3984" y="0" width="696.996" height="242.359" filterUnits="userSpaceOnUse" color-interpolation-filters="sRGB">
<feFlood flood-opacity="0" result="BackgroundImageFix"/>
<feColorMatrix in="SourceAlpha" type="matrix" values="0 0 0 0 0 0 0 0 0 0 0 0 0 0 0 0 0 0 127 0" result="hardAlpha"/>
<feOffset dx="4" dy="7"/>
<feComposite in2="hardAlpha" operator="out"/>
<feColorMatrix type="matrix" values="0 0 0 0 0 0 0 0 0 0 0 0 0 0 0 0 0 0 0.35 0"/>
<feBlend mode="normal" in2="BackgroundImageFix" result="effect1_dropShadow_3003_2385"/>
<feBlend mode="normal" in="SourceGraphic" in2="effect1_dropShadow_3003_2385" result="shape"/>
</filter>
</defs>
</svg>
