<svg width="49" height="49" viewBox="0 0 49 49" fill="none" xmlns="http://www.w3.org/2000/svg">
<g filter="url(#filter0_d_1178_2258)">
<path d="M5.99219 19.9816C5.99205 19.4003 6.11872 18.8261 6.36336 18.2988C6.608 17.7716 6.96472 17.3041 7.40865 16.9289L21.3934 4.94393C22.1146 4.33441 23.0284 4 23.9726 4C24.9169 4 25.8306 4.33441 26.5518 4.94393L40.5366 16.9289C40.9805 17.3041 41.3372 17.7716 41.5819 18.2988C41.8265 18.8261 41.9532 19.4003 41.9531 19.9816V37.962C41.9531 39.0217 41.5321 40.038 40.7828 40.7874C40.0334 41.5367 39.0171 41.9577 37.9574 41.9577H9.98784C8.92813 41.9577 7.91182 41.5367 7.16249 40.7874C6.41316 40.038 5.99219 39.0217 5.99219 37.962L5.99219 19.9816Z" fill="white"/>
<path d="M5.99219 19.9816C5.99205 19.4003 6.11872 18.8261 6.36336 18.2988C6.608 17.7716 6.96472 17.3041 7.40865 16.9289L21.3934 4.94393C22.1146 4.33441 23.0284 4 23.9726 4C24.9169 4 25.8306 4.33441 26.5518 4.94393L40.5366 16.9289C40.9805 17.3041 41.3372 17.7716 41.5819 18.2988C41.8265 18.8261 41.9532 19.4003 41.9531 19.9816V37.962C41.9531 39.0217 41.5321 40.038 40.7828 40.7874C40.0334 41.5367 39.0171 41.9577 37.9574 41.9577H9.98784C8.92813 41.9577 7.91182 41.5367 7.16249 40.7874C6.41316 40.038 5.99219 39.0217 5.99219 37.962L5.99219 19.9816Z" stroke="white" stroke-width="8" stroke-linecap="round" stroke-linejoin="round"/>
</g>
<path d="M5.99219 19.9816C5.99205 19.4003 6.11872 18.8261 6.36336 18.2988C6.608 17.7716 6.96472 17.3041 7.40865 16.9289L21.3934 4.94393C22.1146 4.33441 23.0284 4 23.9726 4C24.9169 4 25.8306 4.33441 26.5518 4.94393L40.5366 16.9289C40.9805 17.3041 41.3372 17.7716 41.5819 18.2988C41.8265 18.8261 41.9532 19.4003 41.9531 19.9816V37.962C41.9531 39.0217 41.5321 40.038 40.7828 40.7874C40.0334 41.5367 39.0171 41.9577 37.9574 41.9577H9.98784C8.92813 41.9577 7.91182 41.5367 7.16249 40.7874C6.41316 40.038 5.99219 39.0217 5.99219 37.962L5.99219 19.9816Z" fill="url(#paint0_linear_1178_2258)" stroke="#62009B" stroke-width="3.33333" stroke-linecap="round" stroke-linejoin="round"/>
<path d="M29.9674 41.9579V25.9752C29.9674 25.4454 29.7569 24.9372 29.3823 24.5626C29.0076 24.1879 28.4995 23.9774 27.9696 23.9774H19.9783C19.4484 23.9774 18.9403 24.1879 18.5656 24.5626C18.191 24.9372 17.9805 25.4454 17.9805 25.9752V41.9579" fill="white"/>
<path d="M29.9674 41.9579V25.9752C29.9674 25.4454 29.7569 24.9372 29.3823 24.5626C29.0076 24.1879 28.4995 23.9774 27.9696 23.9774H19.9783C19.4484 23.9774 18.9403 24.1879 18.5656 24.5626C18.191 24.9372 17.9805 25.4454 17.9805 25.9752V41.9579" stroke="#62009B" stroke-width="3.33333" stroke-linecap="round" stroke-linejoin="round"/>
<defs>
<filter id="filter0_d_1178_2258" x="1.99219" y="0" width="46.9609" height="48.9576" filterUnits="userSpaceOnUse" color-interpolation-filters="sRGB">
<feFlood flood-opacity="0" result="BackgroundImageFix"/>
<feColorMatrix in="SourceAlpha" type="matrix" values="0 0 0 0 0 0 0 0 0 0 0 0 0 0 0 0 0 0 127 0" result="hardAlpha"/>
<feOffset dx="3" dy="3"/>
<feComposite in2="hardAlpha" operator="out"/>
<feColorMatrix type="matrix" values="0 0 0 0 0 0 0 0 0 0 0 0 0 0 0 0 0 0 0.38 0"/>
<feBlend mode="normal" in2="BackgroundImageFix" result="effect1_dropShadow_1178_2258"/>
<feBlend mode="normal" in="SourceGraphic" in2="effect1_dropShadow_1178_2258" result="shape"/>
</filter>
<linearGradient id="paint0_linear_1178_2258" x1="-4.92773" y1="10.1313" x2="76.7357" y2="33.037" gradientUnits="userSpaceOnUse">
<stop stop-color="#570089"/>
<stop offset="0.355421" stop-color="#A200FF"/>
<stop offset="1" stop-color="#210035"/>
</linearGradient>
</defs>
</svg>
