<svg width="140" height="37" viewBox="0 0 140 37" fill="none" xmlns="http://www.w3.org/2000/svg">
<mask id="path-1-outside-1_1553_2590" maskUnits="userSpaceOnUse" x="-0.871094" y="-0.765625" width="140" height="38" fill="black">
<rect fill="white" x="-0.871094" y="-0.765625" width="140" height="38"/>
<path d="M4.75864 31.2344V6.01254H12.8265L18.5445 17.6443L24.1841 6.01254H32.252V31.2344H23.8317V20.5033L20.6985 26.9263H16.3121L13.179 20.5033V31.2344H4.75864ZM41.1512 31.626C39.9763 31.626 38.8927 31.4171 37.9005 30.9994C36.9084 30.5816 36.112 29.9289 35.5115 29.0412C34.911 28.1273 34.6107 26.9655 34.6107 25.5555C34.6107 23.5451 35.2635 22.0046 36.569 20.9342C37.8744 19.8376 39.8718 19.2893 42.5611 19.2893H47.065V19.0151C47.065 18.4929 46.7647 18.1013 46.1642 17.8402C45.5898 17.553 44.6499 17.4094 43.3444 17.4094C42.3522 17.4094 41.2817 17.5007 40.1329 17.6835C39.0102 17.8402 37.9397 18.0752 36.9214 18.3885V13.6496C37.9136 13.2318 39.1538 12.9055 40.642 12.6705C42.1303 12.4094 43.5924 12.2788 45.0285 12.2788C48.0572 12.2788 50.4854 12.9055 52.313 14.1587C54.1407 15.3859 55.0545 17.331 55.0545 19.9942V31.2344H47.6916L47.3391 29.8245C46.6864 30.3728 45.8509 30.8166 44.8326 31.156C43.8405 31.4694 42.6133 31.626 41.1512 31.626ZM44.206 26.8871C44.8587 26.8871 45.407 26.7827 45.8509 26.5738C46.3209 26.3388 46.7256 26.0516 47.065 25.7122V23.7148H44.4018C43.018 23.7148 42.3261 24.2501 42.3261 25.3206C42.3261 26.3649 42.9527 26.8871 44.206 26.8871ZM59.4449 10.6731V4.75928H68.4919V10.6731H59.4449ZM60.0715 31.2344V18.7801H57.4475L58.1525 12.6705H68.4919V31.2344H60.0715ZM78.4671 31.626C75.9606 31.626 74.1852 31.1169 73.1408 30.0986C72.1225 29.0803 71.6134 27.4746 71.6134 25.2814V4.83761H80.0337V24.224C80.0337 24.7461 80.1382 25.1247 80.347 25.3597C80.5559 25.5686 80.9214 25.673 81.4436 25.673C81.7831 25.673 82.1094 25.6469 82.4227 25.5947C82.7622 25.5425 83.0755 25.4642 83.3627 25.3597V30.7252C82.6316 31.0386 81.9136 31.2605 81.2087 31.391C80.5298 31.5477 79.616 31.626 78.4671 31.626ZM99.7276 31.626C97.5866 31.626 95.9025 31.0124 94.6754 29.7853C93.4743 28.5581 92.8738 26.7696 92.8738 24.4198V12.6705H101.294V23.5973C101.294 24.8245 101.921 25.4381 103.174 25.4381C103.618 25.4381 104.062 25.3336 104.506 25.1247C104.976 24.9159 105.341 24.6678 105.602 24.3806V12.6705H114.023V31.2344H106.111L105.916 30.0203C105.211 30.4903 104.323 30.8819 103.252 31.1952C102.208 31.4824 101.033 31.626 99.7276 31.626ZM124.763 31.626C123.092 31.626 121.512 31.4955 120.024 31.2344C118.536 30.9994 117.387 30.7122 116.577 30.3728V24.7331C117.204 25.0464 117.909 25.3206 118.692 25.5555C119.502 25.7644 120.311 25.9211 121.12 26.0255C121.93 26.13 122.622 26.1822 123.196 26.1822C123.953 26.1822 124.554 26.1691 124.998 26.143C125.442 26.0908 125.664 25.908 125.664 25.5947C125.664 25.3336 125.455 25.1247 125.037 24.9681C124.645 24.8114 124.123 24.6548 123.47 24.4981C122.818 24.3153 122.1 24.0934 121.316 23.8323C119.619 23.2057 118.366 22.5007 117.557 21.7174C116.773 20.908 116.382 19.7462 116.382 18.2318C116.382 16.2997 117.152 14.8245 118.692 13.8062C120.259 12.788 122.674 12.2788 125.938 12.2788C126.747 12.2788 127.609 12.3311 128.523 12.4355C129.436 12.5138 130.298 12.6183 131.107 12.7488C131.943 12.8794 132.609 13.036 133.105 13.2188V18.7801C132.295 18.4146 131.421 18.1535 130.481 17.9968C129.541 17.8141 128.692 17.7227 127.935 17.7227C127.256 17.7227 126.59 17.7488 125.938 17.801C125.285 17.8532 124.959 18.036 124.959 18.3493C124.959 18.6887 125.337 18.9368 126.094 19.0934C126.878 19.2501 127.831 19.5112 128.953 19.8767C130.337 20.2684 131.408 20.7122 132.165 21.2083C132.948 21.7044 133.496 22.3049 133.81 23.0099C134.123 23.7148 134.28 24.5764 134.28 25.5947C134.28 27.4746 133.47 28.9498 131.852 30.0203C130.259 31.0908 127.896 31.626 124.763 31.626Z"/>
</mask>
<path d="M4.75864 31.2344V6.01254H12.8265L18.5445 17.6443L24.1841 6.01254H32.252V31.2344H23.8317V20.5033L20.6985 26.9263H16.3121L13.179 20.5033V31.2344H4.75864ZM41.1512 31.626C39.9763 31.626 38.8927 31.4171 37.9005 30.9994C36.9084 30.5816 36.112 29.9289 35.5115 29.0412C34.911 28.1273 34.6107 26.9655 34.6107 25.5555C34.6107 23.5451 35.2635 22.0046 36.569 20.9342C37.8744 19.8376 39.8718 19.2893 42.5611 19.2893H47.065V19.0151C47.065 18.4929 46.7647 18.1013 46.1642 17.8402C45.5898 17.553 44.6499 17.4094 43.3444 17.4094C42.3522 17.4094 41.2817 17.5007 40.1329 17.6835C39.0102 17.8402 37.9397 18.0752 36.9214 18.3885V13.6496C37.9136 13.2318 39.1538 12.9055 40.642 12.6705C42.1303 12.4094 43.5924 12.2788 45.0285 12.2788C48.0572 12.2788 50.4854 12.9055 52.313 14.1587C54.1407 15.3859 55.0545 17.331 55.0545 19.9942V31.2344H47.6916L47.3391 29.8245C46.6864 30.3728 45.8509 30.8166 44.8326 31.156C43.8405 31.4694 42.6133 31.626 41.1512 31.626ZM44.206 26.8871C44.8587 26.8871 45.407 26.7827 45.8509 26.5738C46.3209 26.3388 46.7256 26.0516 47.065 25.7122V23.7148H44.4018C43.018 23.7148 42.3261 24.2501 42.3261 25.3206C42.3261 26.3649 42.9527 26.8871 44.206 26.8871ZM59.4449 10.6731V4.75928H68.4919V10.6731H59.4449ZM60.0715 31.2344V18.7801H57.4475L58.1525 12.6705H68.4919V31.2344H60.0715ZM78.4671 31.626C75.9606 31.626 74.1852 31.1169 73.1408 30.0986C72.1225 29.0803 71.6134 27.4746 71.6134 25.2814V4.83761H80.0337V24.224C80.0337 24.7461 80.1382 25.1247 80.347 25.3597C80.5559 25.5686 80.9214 25.673 81.4436 25.673C81.7831 25.673 82.1094 25.6469 82.4227 25.5947C82.7622 25.5425 83.0755 25.4642 83.3627 25.3597V30.7252C82.6316 31.0386 81.9136 31.2605 81.2087 31.391C80.5298 31.5477 79.616 31.626 78.4671 31.626ZM99.7276 31.626C97.5866 31.626 95.9025 31.0124 94.6754 29.7853C93.4743 28.5581 92.8738 26.7696 92.8738 24.4198V12.6705H101.294V23.5973C101.294 24.8245 101.921 25.4381 103.174 25.4381C103.618 25.4381 104.062 25.3336 104.506 25.1247C104.976 24.9159 105.341 24.6678 105.602 24.3806V12.6705H114.023V31.2344H106.111L105.916 30.0203C105.211 30.4903 104.323 30.8819 103.252 31.1952C102.208 31.4824 101.033 31.626 99.7276 31.626ZM124.763 31.626C123.092 31.626 121.512 31.4955 120.024 31.2344C118.536 30.9994 117.387 30.7122 116.577 30.3728V24.7331C117.204 25.0464 117.909 25.3206 118.692 25.5555C119.502 25.7644 120.311 25.9211 121.12 26.0255C121.93 26.13 122.622 26.1822 123.196 26.1822C123.953 26.1822 124.554 26.1691 124.998 26.143C125.442 26.0908 125.664 25.908 125.664 25.5947C125.664 25.3336 125.455 25.1247 125.037 24.9681C124.645 24.8114 124.123 24.6548 123.47 24.4981C122.818 24.3153 122.1 24.0934 121.316 23.8323C119.619 23.2057 118.366 22.5007 117.557 21.7174C116.773 20.908 116.382 19.7462 116.382 18.2318C116.382 16.2997 117.152 14.8245 118.692 13.8062C120.259 12.788 122.674 12.2788 125.938 12.2788C126.747 12.2788 127.609 12.3311 128.523 12.4355C129.436 12.5138 130.298 12.6183 131.107 12.7488C131.943 12.8794 132.609 13.036 133.105 13.2188V18.7801C132.295 18.4146 131.421 18.1535 130.481 17.9968C129.541 17.8141 128.692 17.7227 127.935 17.7227C127.256 17.7227 126.59 17.7488 125.938 17.801C125.285 17.8532 124.959 18.036 124.959 18.3493C124.959 18.6887 125.337 18.9368 126.094 19.0934C126.878 19.2501 127.831 19.5112 128.953 19.8767C130.337 20.2684 131.408 20.7122 132.165 21.2083C132.948 21.7044 133.496 22.3049 133.81 23.0099C134.123 23.7148 134.28 24.5764 134.28 25.5947C134.28 27.4746 133.47 28.9498 131.852 30.0203C130.259 31.0908 127.896 31.626 124.763 31.626Z" fill="white"/>
<path d="M4.75864 31.2344H-0.000920057V35.9939H4.75864V31.2344ZM4.75864 6.01254V1.25298H-0.000920057V6.01254H4.75864ZM12.8265 6.01254L17.0979 3.91281L15.7903 1.25298H12.8265V6.01254ZM18.5445 17.6443L14.2731 19.7441L18.574 28.4931L22.8272 19.7208L18.5445 17.6443ZM24.1841 6.01254V1.25298H21.2023L19.9014 3.93607L24.1841 6.01254ZM32.252 6.01254H37.0116V1.25298H32.252V6.01254ZM32.252 31.2344V35.9939H37.0116V31.2344H32.252ZM23.8317 31.2344H19.0721V35.9939H23.8317V31.2344ZM23.8317 20.5033H28.5912L19.5539 18.4166L23.8317 20.5033ZM20.6985 26.9263V31.6859H23.6724L24.9763 29.013L20.6985 26.9263ZM16.3121 26.9263L12.0344 29.013L13.3382 31.6859H16.3121V26.9263ZM13.179 20.5033L17.4567 18.4166L8.41941 20.5033H13.179ZM13.179 31.2344V35.9939H17.9385V31.2344H13.179ZM4.75864 31.2344H9.51819V6.01254H4.75864H-0.000920057V31.2344H4.75864ZM4.75864 6.01254V10.7721H12.8265V6.01254V1.25298H4.75864V6.01254ZM12.8265 6.01254L8.55513 8.11226L14.2731 19.7441L18.5445 17.6443L22.8158 15.5446L17.0979 3.91281L12.8265 6.01254ZM18.5445 17.6443L22.8272 19.7208L28.4669 8.089L24.1841 6.01254L19.9014 3.93607L14.2618 15.5679L18.5445 17.6443ZM24.1841 6.01254V10.7721H32.252V6.01254V1.25298H24.1841V6.01254ZM32.252 6.01254H27.4924V31.2344H32.252H37.0116V6.01254H32.252ZM32.252 31.2344V26.4748H23.8317V31.2344V35.9939H32.252V31.2344ZM23.8317 31.2344H28.5912V20.5033H23.8317H19.0721V31.2344H23.8317ZM23.8317 20.5033L19.5539 18.4166L16.4208 24.8396L20.6985 26.9263L24.9763 29.013L28.1094 22.59L23.8317 20.5033ZM20.6985 26.9263V22.1667H16.3121V26.9263V31.6859H20.6985V26.9263ZM16.3121 26.9263L20.5899 24.8396L17.4567 18.4166L13.179 20.5033L8.90123 22.59L12.0344 29.013L16.3121 26.9263ZM13.179 20.5033H8.41941V31.2344H13.179H17.9385V20.5033H13.179ZM13.179 31.2344V26.4748H4.75864V31.2344V35.9939H13.179V31.2344ZM37.9005 30.9994L36.0536 35.386L37.9005 30.9994ZM35.5115 29.0412L31.5339 31.655L31.5514 31.6816L31.5693 31.708L35.5115 29.0412ZM36.569 20.9342L39.5869 24.6146L39.6087 24.5967L39.6303 24.5786L36.569 20.9342ZM47.065 19.2893V24.0488H51.8246V19.2893H47.065ZM46.1642 17.8402L44.0357 22.0972L44.1496 22.1542L44.2665 22.205L46.1642 17.8402ZM40.1329 17.6835L40.7907 22.3974L40.8358 22.3911L40.8807 22.384L40.1329 17.6835ZM36.9214 18.3885H32.1619V24.8327L38.3212 22.9376L36.9214 18.3885ZM36.9214 13.6496L35.0745 9.26301L32.1619 10.4894V13.6496H36.9214ZM40.642 12.6705L41.3844 17.3718L41.4245 17.3655L41.4645 17.3584L40.642 12.6705ZM52.313 14.1587L49.6214 18.0841L49.6406 18.0972L49.6599 18.1102L52.313 14.1587ZM55.0545 31.2344V35.9939H59.8141V31.2344H55.0545ZM47.6916 31.2344L43.0742 32.3887L43.9755 35.9939H47.6916V31.2344ZM47.3391 29.8245L51.9566 28.6701L50.1095 21.2815L44.2778 26.18L47.3391 29.8245ZM44.8326 31.156L46.2659 35.6947L46.3019 35.6833L46.3377 35.6714L44.8326 31.156ZM45.8509 26.5738L47.8775 30.8804L47.9288 30.8562L47.9794 30.8309L45.8509 26.5738ZM47.065 25.7122L50.4305 29.0777L51.8246 27.6837V25.7122H47.065ZM47.065 23.7148H51.8246V18.9553H47.065V23.7148ZM41.1512 31.626V26.8665C40.5522 26.8665 40.1035 26.7627 39.7475 26.6128L37.9005 30.9994L36.0536 35.386C37.6819 36.0716 39.4003 36.3856 41.1512 36.3856V31.626ZM37.9005 30.9994L39.7475 26.6128C39.6017 26.5514 39.5349 26.4942 39.4538 26.3743L35.5115 29.0412L31.5693 31.708C32.6892 33.3635 34.2151 34.6119 36.0536 35.386L37.9005 30.9994ZM35.5115 29.0412L39.4891 26.4273C39.5275 26.4858 39.3703 26.3027 39.3703 25.5555H34.6107H29.8512C29.8512 27.6283 30.2945 29.7689 31.5339 31.655L35.5115 29.0412ZM34.6107 25.5555H39.3703C39.3703 25.0624 39.4501 24.8263 39.4827 24.7493C39.5056 24.6951 39.5242 24.666 39.5869 24.6146L36.569 20.9342L33.551 17.2537C30.9292 19.4036 29.8512 22.4211 29.8512 25.5555H34.6107ZM36.569 20.9342L39.6303 24.5786C39.7047 24.516 40.3809 24.0488 42.5611 24.0488V19.2893V14.5297C39.3627 14.5297 36.0442 15.1591 33.5076 17.2897L36.569 20.9342ZM42.5611 19.2893V24.0488H47.065V19.2893V14.5297H42.5611V19.2893ZM47.065 19.2893H51.8246V19.0151H47.065H42.3054V19.2893H47.065ZM47.065 19.0151H51.8246C51.8246 17.7721 51.4427 16.5109 50.617 15.4339C49.8405 14.421 48.8694 13.8264 48.062 13.4753L46.1642 17.8402L44.2665 22.205C44.0595 22.115 43.5389 21.8468 43.0626 21.2256C42.5371 20.5402 42.3054 19.7359 42.3054 19.0151H47.065ZM46.1642 17.8402L48.2928 13.5831C46.6696 12.7715 44.7774 12.6498 43.3444 12.6498V17.4094V22.1689C43.8384 22.1689 44.1467 22.1971 44.3096 22.222C44.3866 22.2338 44.3994 22.2401 44.3625 22.2296C44.3282 22.2198 44.2082 22.1835 44.0357 22.0972L46.1642 17.8402ZM43.3444 17.4094V12.6498C42.0634 12.6498 40.7402 12.7675 39.3851 12.9831L40.1329 17.6835L40.8807 22.384C41.8232 22.234 42.641 22.1689 43.3444 22.1689V17.4094ZM40.1329 17.6835L39.4752 12.9696C38.117 13.1591 36.7974 13.4469 35.5217 13.8394L36.9214 18.3885L38.3212 22.9376C39.082 22.7034 39.9034 22.5212 40.7907 22.3974L40.1329 17.6835ZM36.9214 18.3885H41.681V13.6496H36.9214H32.1619V18.3885H36.9214ZM36.9214 13.6496L38.7684 18.0362C39.2971 17.8136 40.1373 17.5687 41.3844 17.3718L40.642 12.6705L39.8997 7.96916C38.1703 8.24223 36.5301 8.65011 35.0745 9.26301L36.9214 13.6496ZM40.642 12.6705L41.4645 17.3584C42.6952 17.1425 43.8821 17.0384 45.0285 17.0384V12.2788V7.51928C43.3028 7.51928 41.5653 7.67625 39.8196 7.98252L40.642 12.6705ZM45.0285 12.2788V17.0384C47.4396 17.0384 48.8286 17.5405 49.6214 18.0841L52.313 14.1587L55.0047 10.2334C52.1421 8.27046 48.6747 7.51928 45.0285 7.51928V12.2788ZM52.313 14.1587L49.6599 18.1102C49.8836 18.2604 50.295 18.5362 50.295 19.9942H55.0545H59.8141C59.8141 16.1259 58.3978 12.5114 54.9662 10.2072L52.313 14.1587ZM55.0545 19.9942H50.295V31.2344H55.0545H59.8141V19.9942H55.0545ZM55.0545 31.2344V26.4748H47.6916V31.2344V35.9939H55.0545V31.2344ZM47.6916 31.2344L52.3091 30.08L51.9566 28.6701L47.3391 29.8245L42.7217 30.9788L43.0742 32.3887L47.6916 31.2344ZM47.3391 29.8245L44.2778 26.18C44.1863 26.2569 43.9185 26.4437 43.3275 26.6407L44.8326 31.156L46.3377 35.6714C47.7833 35.1895 49.1865 34.4886 50.4005 33.4689L47.3391 29.8245ZM44.8326 31.156L43.3994 26.6174C43.0165 26.7383 42.3078 26.8665 41.1512 26.8665V31.626V36.3856C42.9188 36.3856 44.6645 36.2004 46.2659 35.6947L44.8326 31.156ZM44.206 26.8871V31.6467C45.3387 31.6467 46.6264 31.4691 47.8775 30.8804L45.8509 26.5738L43.8243 22.2673C44.0097 22.18 44.1506 22.1458 44.2162 22.1333C44.28 22.1212 44.2824 22.1276 44.206 22.1276V26.8871ZM45.8509 26.5738L47.9794 30.8309C48.8639 30.3887 49.6968 29.8115 50.4305 29.0777L47.065 25.7122L43.6995 22.3467C43.7248 22.3213 43.7443 22.3064 43.7523 22.3007C43.76 22.2953 43.7521 22.3019 43.7224 22.3167L45.8509 26.5738ZM47.065 25.7122H51.8246V23.7148H47.065H42.3054V25.7122H47.065ZM47.065 23.7148V18.9553H44.4018V23.7148V28.4744H47.065V23.7148ZM44.4018 23.7148V18.9553C43.2286 18.9553 41.4739 19.1595 39.9328 20.3517C38.1598 21.7232 37.5666 23.6783 37.5666 25.3206H42.3261H47.0857C47.0857 25.559 47.0474 25.9898 46.8269 26.5015C46.5941 27.0418 46.2216 27.5216 45.7573 27.8809C44.908 28.5378 44.1913 28.4744 44.4018 28.4744V23.7148ZM42.3261 25.3206H37.5666C37.5666 26.8277 38.0601 28.7444 39.7491 30.1519C41.2718 31.4208 43.0356 31.6467 44.206 31.6467V26.8871V22.1276C44.2077 22.1276 44.3793 22.1261 44.6574 22.2033C44.9473 22.2838 45.3898 22.4614 45.8431 22.8391C46.9054 23.7244 47.0857 24.8578 47.0857 25.3206H42.3261ZM59.4449 10.6731H54.6854V15.4327H59.4449V10.6731ZM59.4449 4.75928V-0.000278473H54.6854V4.75928H59.4449ZM68.4919 4.75928H73.2514V-0.000278473H68.4919V4.75928ZM68.4919 10.6731V15.4327H73.2514V10.6731H68.4919ZM60.0715 31.2344H55.312V35.9939H60.0715V31.2344ZM60.0715 18.7801H64.8311V14.0206H60.0715V18.7801ZM57.4475 18.7801L52.7193 18.2346L52.1072 23.5397H57.4475V18.7801ZM58.1525 12.6705V7.91092H53.9105L53.4243 12.1249L58.1525 12.6705ZM68.4919 12.6705H73.2514V7.91092H68.4919V12.6705ZM68.4919 31.2344V35.9939H73.2514V31.2344H68.4919ZM59.4449 10.6731H64.2045V4.75928H59.4449H54.6854V10.6731H59.4449ZM59.4449 4.75928V9.51884H68.4919V4.75928V-0.000278473H59.4449V4.75928ZM68.4919 4.75928H63.7323V10.6731H68.4919H73.2514V4.75928H68.4919ZM68.4919 10.6731V5.91354H59.4449V10.6731V15.4327H68.4919V10.6731ZM60.0715 31.2344H64.8311V18.7801H60.0715H55.312V31.2344H60.0715ZM60.0715 18.7801V14.0206H57.4475V18.7801V23.5397H60.0715V18.7801ZM57.4475 18.7801L62.1757 19.3257L62.8807 13.216L58.1525 12.6705L53.4243 12.1249L52.7193 18.2346L57.4475 18.7801ZM58.1525 12.6705V17.43H68.4919V12.6705V7.91092H58.1525V12.6705ZM68.4919 12.6705H63.7323V31.2344H68.4919H73.2514V12.6705H68.4919ZM68.4919 31.2344V26.4748H60.0715V31.2344V35.9939H68.4919V31.2344ZM73.1408 30.0986L69.7753 33.4641L69.7966 33.4854L69.8182 33.5065L73.1408 30.0986ZM71.6134 4.83761V0.0780516H66.8538V4.83761H71.6134ZM80.0337 4.83761H84.7933V0.0780516H80.0337V4.83761ZM80.347 25.3597L76.7897 28.5218L76.8826 28.6263L76.9815 28.7252L80.347 25.3597ZM82.4227 25.5947L81.699 20.8905L81.6696 20.895L81.6403 20.8999L82.4227 25.5947ZM83.3627 25.3597H88.1222V18.5645L81.7361 20.8867L83.3627 25.3597ZM83.3627 30.7252L85.2376 35.1L88.1222 33.8637V30.7252H83.3627ZM81.2086 31.391L80.342 26.711L80.2397 26.73L80.1384 26.7534L81.2086 31.391ZM78.4671 31.626V26.8665C77.5109 26.8665 76.9076 26.7665 76.5677 26.669C76.2393 26.5749 76.2918 26.5234 76.4634 26.6908L73.1408 30.0986L69.8182 33.5065C72.2067 35.8353 75.548 36.3856 78.4671 36.3856V31.626ZM73.1408 30.0986L76.5063 26.7331C76.621 26.8478 76.5954 26.8914 76.5322 26.6921C76.462 26.4705 76.3729 26.0288 76.3729 25.2814H71.6134H66.8538C66.8538 28.0885 67.4919 31.1807 69.7753 33.4641L73.1408 30.0986ZM71.6134 25.2814H76.3729V4.83761H71.6134H66.8538V25.2814H71.6134ZM71.6134 4.83761V9.59716H80.0337V4.83761V0.0780516H71.6134V4.83761ZM80.0337 4.83761H75.2742V24.224H80.0337H84.7933V4.83761H80.0337ZM80.0337 24.224H75.2742C75.2742 25.1944 75.4349 26.9976 76.7897 28.5218L80.347 25.3597L83.9044 22.1977C84.3897 22.7436 84.6057 23.2913 84.7002 23.6338C84.7921 23.9667 84.7933 24.1887 84.7933 24.224H80.0337ZM80.347 25.3597L76.9815 28.7252C78.5608 30.3045 80.5516 30.4326 81.4436 30.4326V25.673V20.9135C81.4724 20.9135 81.7178 20.9133 82.0854 21.0183C82.4627 21.1261 83.1038 21.3855 83.7125 21.9942L80.347 25.3597ZM81.4436 25.673V30.4326C82.0275 30.4326 82.6164 30.3876 83.2052 30.2895L82.4227 25.5947L81.6403 20.8999C81.6025 20.9062 81.5387 20.9135 81.4436 20.9135V25.673ZM82.4227 25.5947L83.1465 30.2989C83.7565 30.2051 84.376 30.0557 84.9892 29.8327L83.3627 25.3597L81.7361 20.8867C81.7749 20.8726 81.7678 20.8799 81.699 20.8905L82.4227 25.5947ZM83.3627 25.3597H78.6031V30.7252H83.3627H88.1222V25.3597H83.3627ZM83.3627 30.7252L81.4878 26.3505C81.0457 26.54 80.6653 26.6512 80.342 26.711L81.2086 31.391L82.0753 36.071C83.1619 35.8698 84.2175 35.5371 85.2376 35.1L83.3627 30.7252ZM81.2086 31.391L80.1384 26.7534C79.9629 26.7939 79.4557 26.8665 78.4671 26.8665V31.626V36.3856C79.7762 36.3856 81.0967 36.3015 82.2789 36.0287L81.2086 31.391ZM94.6754 29.7853L91.2739 33.1144L91.2918 33.1327L91.3099 33.1508L94.6754 29.7853ZM92.8738 12.6705V7.91092H88.1143V12.6705H92.8738ZM101.294 12.6705H106.054V7.91092H101.294V12.6705ZM104.506 25.1247L102.573 20.7754L102.526 20.7963L102.479 20.8182L104.506 25.1247ZM105.602 24.3806L109.124 27.5822L110.362 26.2207V24.3806H105.602ZM105.602 12.6705V7.91092H100.843V12.6705H105.602ZM114.023 12.6705H118.782V7.91092H114.023V12.6705ZM114.023 31.2344V35.9939H118.782V31.2344H114.023ZM106.111 31.2344L101.413 31.9922L102.058 35.9939H106.111V31.2344ZM105.916 30.0203L110.614 29.2624L109.435 21.9534L103.275 26.0601L105.916 30.0203ZM103.252 31.1952L104.514 35.7844L104.552 35.7741L104.589 35.7631L103.252 31.1952ZM99.7276 31.626V26.8665C98.536 26.8665 98.1762 26.5551 98.0409 26.4198L94.6754 29.7853L91.3099 33.1508C93.6289 35.4698 96.6372 36.3856 99.7276 36.3856V31.626ZM94.6754 29.7853L98.0769 26.4562C98.0264 26.4046 97.6334 25.9929 97.6334 24.4198H92.8738H88.1143C88.1143 27.5464 88.9222 30.7117 91.2739 33.1144L94.6754 29.7853ZM92.8738 24.4198H97.6334V12.6705H92.8738H88.1143V24.4198H92.8738ZM92.8738 12.6705V17.43H101.294V12.6705V7.91092H92.8738V12.6705ZM101.294 12.6705H96.5346V23.5973H101.294H106.054V12.6705H101.294ZM101.294 23.5973H96.5346C96.5346 24.9703 96.8918 26.8684 98.4342 28.3786C99.9581 29.8707 101.839 30.1976 103.174 30.1976V25.4381V20.6785C103.256 20.6785 104.197 20.6986 105.094 21.5771C106.01 22.4738 106.054 23.4515 106.054 23.5973H101.294ZM103.174 25.4381V30.1976C104.389 30.1976 105.522 29.9068 106.532 29.4313L104.506 25.1247L102.479 20.8182C102.602 20.7604 102.846 20.6785 103.174 20.6785V25.4381ZM104.506 25.1247L106.439 29.4741C107.326 29.0798 108.299 28.4893 109.124 27.5822L105.602 24.3806L102.08 21.179C102.383 20.8463 102.625 20.7519 102.573 20.7754L104.506 25.1247ZM105.602 24.3806H110.362V12.6705H105.602H100.843V24.3806H105.602ZM105.602 12.6705V17.43H114.023V12.6705V7.91092H105.602V12.6705ZM114.023 12.6705H109.263V31.2344H114.023H118.782V12.6705H114.023ZM114.023 31.2344V26.4748H106.111V31.2344V35.9939H114.023V31.2344ZM106.111 31.2344L110.81 30.4765L110.614 29.2624L105.916 30.0203L101.217 30.7782L101.413 31.9922L106.111 31.2344ZM105.916 30.0203L103.275 26.0601C103.075 26.1934 102.661 26.4092 101.915 26.6273L103.252 31.1952L104.589 35.7631C105.985 35.3546 107.346 34.7871 108.556 33.9805L105.916 30.0203ZM103.252 31.1952L101.99 26.606C101.431 26.7598 100.691 26.8665 99.7276 26.8665V31.626V36.3856C101.375 36.3856 102.985 36.205 104.514 35.7844L103.252 31.1952ZM120.024 31.2344L120.846 26.5464L120.806 26.5394L120.766 26.5331L120.024 31.2344ZM116.577 30.3728H111.818V33.5379L114.737 34.762L116.577 30.3728ZM116.577 24.7331L118.706 20.476L111.818 17.032V24.7331H116.577ZM118.692 25.5555L117.325 30.1144L117.413 30.141L117.503 30.1641L118.692 25.5555ZM121.12 26.0255L120.511 30.7459L121.12 26.0255ZM124.998 26.143L125.277 30.8944L125.416 30.8862L125.554 30.87L124.998 26.143ZM125.037 24.9681L123.269 29.3872L123.317 29.4064L123.366 29.4246L125.037 24.9681ZM123.47 24.4981L122.187 29.0814L122.273 29.1054L122.36 29.1262L123.47 24.4981ZM121.316 23.8323L119.668 28.2972L119.739 28.3236L119.811 28.3476L121.316 23.8323ZM117.557 21.7174L114.136 25.0273L114.191 25.0834L114.247 25.1377L117.557 21.7174ZM118.692 13.8062L116.098 9.81562L116.083 9.82562L116.068 9.83573L118.692 13.8062ZM128.523 12.4355L127.982 17.1643L128.049 17.1719L128.116 17.1777L128.523 12.4355ZM131.107 12.7488L130.35 17.4476L130.361 17.4495L130.373 17.4513L131.107 12.7488ZM133.105 13.2188H137.864V9.9L134.75 8.75268L133.105 13.2188ZM133.105 18.7801L131.146 23.1178L137.864 26.152V18.7801H133.105ZM130.481 17.9968L129.572 22.6689L129.635 22.6811L129.698 22.6916L130.481 17.9968ZM125.938 17.801L125.558 13.0566L125.938 17.801ZM126.094 19.0934L125.13 23.7543L125.145 23.7575L125.161 23.7606L126.094 19.0934ZM128.953 19.8767L127.48 24.4024L127.568 24.4311L127.657 24.4564L128.953 19.8767ZM132.165 21.2083L129.556 25.1895L129.587 25.2096L129.618 25.2293L132.165 21.2083ZM133.81 23.0099L138.159 21.0768V21.0768L133.81 23.0099ZM131.852 30.0203L129.226 26.0503L129.211 26.0601L129.196 26.0701L131.852 30.0203ZM124.763 31.626V26.8665C123.339 26.8665 122.036 26.7552 120.846 26.5464L120.024 31.2344L119.201 35.9223C120.988 36.2358 122.845 36.3856 124.763 36.3856V31.626ZM120.024 31.2344L120.766 26.5331C119.428 26.3217 118.712 26.1069 118.418 25.9835L116.577 30.3728L114.737 34.762C116.061 35.3175 117.644 35.6771 119.282 35.9357L120.024 31.2344ZM116.577 30.3728H121.337V24.7331H116.577H111.818V30.3728H116.577ZM116.577 24.7331L114.449 28.9902C115.356 29.444 116.322 29.8135 117.325 30.1144L118.692 25.5555L120.06 20.9967C119.496 20.8276 119.052 20.6488 118.706 20.476L116.577 24.7331ZM118.692 25.5555L117.503 30.1641C118.499 30.4211 119.502 30.6157 120.511 30.7459L121.12 26.0255L121.73 21.3051C121.12 21.2265 120.505 21.1078 119.882 20.947L118.692 25.5555ZM121.12 26.0255L120.511 30.7459C121.446 30.8666 122.353 30.9417 123.196 30.9417V26.1822V21.4226C122.89 21.4226 122.414 21.3933 121.73 21.3051L121.12 26.0255ZM123.196 26.1822V30.9417C123.992 30.9417 124.698 30.9284 125.277 30.8944L124.998 26.143L124.718 21.3917C124.41 21.4098 123.915 21.4226 123.196 21.4226V26.1822ZM124.998 26.143L125.554 30.87C126.219 30.7917 127.417 30.5516 128.523 29.6408C129.839 28.5568 130.423 27.0283 130.423 25.5947H125.664H120.904C120.904 24.4744 121.377 23.1939 122.471 22.2927C123.355 21.5647 124.22 21.4421 124.442 21.4161L124.998 26.143ZM125.664 25.5947H130.423C130.423 22.1508 127.526 20.8184 126.708 20.5116L125.037 24.9681L123.366 29.4246C123.233 29.3749 122.699 29.1652 122.141 28.6077C121.481 27.9474 120.904 26.8964 120.904 25.5947H125.664ZM125.037 24.9681L126.805 20.5489C126.113 20.2722 125.343 20.0529 124.581 19.87L123.47 24.4981L122.36 29.1262C122.903 29.2566 123.178 29.3507 123.269 29.3872L125.037 24.9681ZM123.47 24.4981L124.754 19.9148C124.189 19.7568 123.546 19.5587 122.821 19.317L121.316 23.8323L119.811 28.3476C120.653 28.6281 121.446 28.8739 122.187 29.0814L123.47 24.4981ZM121.316 23.8323L122.965 19.3674C121.556 18.8471 120.999 18.4256 120.866 18.2972L117.557 21.7174L114.247 25.1377C115.733 26.5759 117.683 27.5643 119.668 28.2972L121.316 23.8323ZM117.557 21.7174L120.977 18.4075C121.041 18.4744 121.093 18.544 121.131 18.6075C121.168 18.6698 121.183 18.7113 121.186 18.7187C121.188 18.7272 121.141 18.5888 121.141 18.2318H116.382H111.622C111.622 20.5453 112.232 23.0597 114.136 25.0273L117.557 21.7174ZM116.382 18.2318H121.141C121.141 18.065 121.158 17.9652 121.168 17.9178C121.179 17.8732 121.185 17.8658 121.178 17.8792C121.171 17.8933 121.165 17.8989 121.172 17.8908C121.182 17.8808 121.222 17.8396 121.317 17.7768L118.692 13.8062L116.068 9.83573C113.122 11.783 111.622 14.7904 111.622 18.2318H116.382ZM118.692 13.8062L121.286 17.7969C121.695 17.5309 122.991 17.0384 125.938 17.0384V12.2788V7.51928C122.357 7.51928 118.822 8.04506 116.098 9.81562L118.692 13.8062ZM125.938 12.2788V17.0384C126.544 17.0384 127.224 17.0776 127.982 17.1643L128.523 12.4355L129.063 7.70672C127.993 7.58448 126.95 7.51928 125.938 7.51928V12.2788ZM128.523 12.4355L128.116 17.1777C128.926 17.2471 129.669 17.3379 130.35 17.4476L131.107 12.7488L131.865 8.04997C130.927 7.89858 129.947 7.78057 128.929 7.69332L128.523 12.4355ZM131.107 12.7488L130.373 17.4513C131.058 17.5585 131.38 17.6555 131.459 17.6849L133.105 13.2188L134.75 8.75268C133.838 8.41656 132.827 8.20024 131.842 8.04631L131.107 12.7488ZM133.105 13.2188H128.345V18.7801H133.105H137.864V13.2188H133.105ZM133.105 18.7801L135.064 14.4424C133.853 13.8956 132.58 13.5214 131.263 13.302L130.481 17.9968L129.698 22.6916C130.262 22.7855 130.738 22.9336 131.146 23.1178L133.105 18.7801ZM130.481 17.9968L131.389 13.3248C130.225 13.0983 129.065 12.9631 127.935 12.9631V17.7227V22.4822C128.32 22.4822 128.857 22.5298 129.572 22.6689L130.481 17.9968ZM127.935 17.7227V12.9631C127.134 12.9631 126.342 12.9939 125.558 13.0566L125.938 17.801L126.317 22.5454C126.839 22.5036 127.378 22.4822 127.935 22.4822V17.7227ZM125.938 17.801L125.558 13.0566C124.986 13.1023 123.931 13.2347 122.878 13.8245C121.558 14.5635 120.199 16.1062 120.199 18.3493H124.959H129.718C129.718 19.1467 129.495 19.996 128.996 20.7547C128.523 21.474 127.944 21.8977 127.529 22.13C127.124 22.3569 126.786 22.4529 126.62 22.4928C126.443 22.5352 126.332 22.5443 126.317 22.5454L125.938 17.801ZM124.959 18.3493H120.199C120.199 20.6396 121.6 22.0936 122.634 22.7711C123.557 23.3759 124.521 23.6283 125.13 23.7543L126.094 19.0934L127.059 14.4326C126.91 14.4019 127.306 14.4519 127.851 14.8087C128.156 15.0085 128.627 15.3827 129.03 16.0085C129.463 16.6798 129.718 17.4916 129.718 18.3493H124.959ZM126.094 19.0934L125.161 23.7606C125.698 23.8679 126.459 24.0701 127.48 24.4024L128.953 19.8767L130.427 15.351C129.202 14.9523 128.058 14.6322 127.028 14.4263L126.094 19.0934ZM128.953 19.8767L127.657 24.4564C128.815 24.7842 129.37 25.067 129.556 25.1895L132.165 21.2083L134.773 17.2271C133.446 16.3574 131.859 15.7525 130.249 15.297L128.953 19.8767ZM132.165 21.2083L129.618 25.2293C129.701 25.282 129.696 25.2922 129.649 25.24C129.597 25.183 129.523 25.0827 129.46 24.9429L133.81 23.0099L138.159 21.0768C137.393 19.3528 136.126 18.0832 134.711 17.1873L132.165 21.2083ZM133.81 23.0099L129.46 24.9429C129.431 24.8778 129.52 25.0395 129.52 25.5947H134.28H139.039C139.039 24.1134 138.815 22.5518 138.159 21.0768L133.81 23.0099ZM134.28 25.5947H129.52C129.52 25.7219 129.507 25.7896 129.501 25.8125C129.496 25.833 129.495 25.8314 129.5 25.8216C129.505 25.8122 129.501 25.8235 129.47 25.8564C129.436 25.8914 129.363 25.9595 129.226 26.0503L131.852 30.0203L134.477 33.9903C137.376 32.0728 139.039 29.1335 139.039 25.5947H134.28ZM131.852 30.0203L129.196 26.0701C128.743 26.375 127.493 26.8665 124.763 26.8665V31.626V36.3856C128.299 36.3856 131.775 35.8065 134.507 33.9705L131.852 30.0203Z" fill="#62009B" mask="url(#path-1-outside-1_1553_2590)"/>
</svg>
