<svg width="1088" height="849" viewBox="0 0 1088 849" fill="none" xmlns="http://www.w3.org/2000/svg">
<g clip-path="url(#clip0_1179_16041)">
<g opacity="0.41">
<path d="M648.749 729.676L558.139 726.252L558.139 646.517L485.986 673.177C510.037 630.782 558.139 542.568 558.139 528.871L558.139 646.517L632.439 610.074L617.084 545.992L763.102 528.871L971.733 646.517L964.077 715.905L1087.5 804.03L934.5 913L763.102 784.953L674.5 788L648.749 729.676Z" fill="url(#paint0_linear_1179_16041)" fill-opacity="0.11"/>
<path d="M709.782 484.846L641.665 461.121L641.665 284.53L423.861 319.261L520.473 215.557L641.665 284.53L729.349 250.288L886.373 312.413L834.521 385.789L996.192 385.789L971.733 437.396L916.702 441.352L836.844 484.846L709.782 484.846Z" fill="url(#paint1_linear_1179_16041)" fill-opacity="0.11"/>
<path d="M617.084 545.992L632.439 610.074M617.084 545.992L763.102 572.408M617.084 545.992L666.246 596.485M617.084 545.992L763.102 528.871L971.733 646.517M648.749 729.676L558.139 726.252M648.749 729.676L632.439 610.074M648.749 729.676L763.102 784.953M648.749 729.676L674.5 788L763.102 784.953M558.139 726.252L522.5 822.5M558.139 726.252L558.139 646.517M558.139 528.871L393.043 661.681L239.444 726.252M558.139 528.871L305.726 784.953M558.139 528.871C558.139 542.568 510.037 630.782 485.986 673.177L558.139 646.517M558.139 528.871L558.139 646.517M558.139 646.517L632.439 610.074M632.439 610.074L666.246 596.485M763.102 572.408L666.246 596.485M763.102 572.408L1087.5 804.03L934.5 913L763.102 784.953M763.102 572.408L971.733 646.517M666.246 596.485L763.102 784.953M763.102 784.953L963.907 717.447L971.733 646.517M963.907 484.846L836.844 484.846M641.665 461.121L709.782 484.846L836.844 484.846M641.665 461.121L834.521 385.789M641.665 461.121L916.702 441.352M641.665 461.121L641.665 284.53M834.521 385.789L996.192 385.789L971.733 437.396L916.702 441.352M834.521 385.789L916.702 441.352M834.521 385.789L886.373 312.413M836.844 484.846L916.702 441.352M886.373 312.413L729.349 250.288M886.373 312.413L946.052 284.53M729.349 250.288L641.665 284.53M729.349 250.288L763.102 168.841M641.665 284.53L520.473 215.557M641.665 284.53L423.861 319.261M520.473 215.557L423.861 319.261M520.473 215.557L487.698 128.729M423.861 319.261L314.287 319.261M423.861 319.261L348.04 266.186" stroke="url(#paint2_radial_1179_16041)" stroke-width="3.4242"/>
</g>
<g opacity="0.46">
<path d="M576.259 106.875L656.576 129.808L634.684 206.479L723.476 206.479C688.709 240.641 618.236 312.258 614.476 325.428L634.684 206.479L559.104 226.359L550.404 286.956L405.297 263.329L236.984 92.9221L263.984 26.867L279.43 26.4881L181.179 -112.511L364.911 -154.671L488.918 21.35L587.416 29.1737L576.259 106.875Z" fill="url(#paint3_linear_1179_16041)" fill-opacity="0.29"/>
<path d="M444.48 320.301L503.465 361.817L454.98 531.621L361.265 540.473L227.332 437.623L297.338 381.304L141.879 336.915L179.567 294.006L233.57 305.312L322.3 285.415L444.48 320.301Z" fill="url(#paint4_linear_1179_16041)" fill-opacity="0.29"/>
<path d="M550.404 286.956L559.104 226.359M550.404 286.956L417.25 221.465M550.404 286.956L516.994 224.906M550.404 286.956L405.297 263.329L236.984 92.9221M602.115 -73.2063L587.416 29.1737M576.259 106.875L656.576 129.808M576.259 106.875L559.104 226.359M576.259 106.875L488.918 21.35M576.259 106.875L587.416 29.1737M656.576 129.808L775.448 -23.7142M656.576 129.808L634.684 206.479M634.684 206.479L614.476 325.428C618.236 312.258 688.71 240.641 723.476 206.479L634.684 206.479ZM634.684 206.479L559.104 226.359M559.104 226.359L516.994 224.906M417.25 221.465L516.994 224.906M417.25 221.465L181.179 -112.511L364.911 -154.671L488.918 21.35M417.25 221.465L236.984 92.9221M516.994 224.906L488.918 21.35M488.918 21.35L587.416 29.1737M488.918 21.35L263.984 26.867L236.984 92.9221M200.121 250.529L322.3 285.415M503.465 361.817L444.48 320.301L322.3 285.415M503.465 361.817L297.338 381.304M503.465 361.817L233.57 305.312M503.465 361.817L454.98 531.621L361.265 540.473M297.338 381.304L141.879 336.915L179.567 294.006L233.57 305.312M297.338 381.304L233.57 305.312M297.338 381.304L227.332 437.623M322.3 285.415L233.57 305.312M227.332 437.623L361.265 540.473M227.332 437.623L162.291 448.049M361.265 540.473L306.447 609.523" stroke="url(#paint5_radial_1179_16041)" stroke-width="3.4242"/>
</g>
<path d="M492.484 60.11L509.858 181.164L526.75 145.117L531.262 135.488L530 146.047L520.205 227.982L558.506 179.272L562.236 174.528L561.552 180.524L553.231 253.553L687.753 240.912L689.83 240.717L689.617 242.792L677.231 363.637L790.166 427.559L792.147 428.68L790.52 430.273L686 532.559L685.821 532.733L685.601 532.85L649.408 551.919L674.045 560.094L681.028 562.412L629.593 569.495L643.408 685.823L644.843 697.907L640.129 686.688L600.109 591.436L571.195 531.191C570.598 532.294 569.9 533.862 569.177 535.697C568.139 538.333 567.135 541.27 566.387 543.56C566.015 544.702 565.707 545.677 565.494 546.367C565.387 546.712 565.303 546.985 565.246 547.171C565.231 547.222 565.217 547.266 565.206 547.304L556.418 630.304L554.997 643.722L553.021 630.374L535.31 510.703L468.323 553.719L463.549 556.783L465.831 551.589L479.931 519.481L417.075 540.469C416.409 540.827 415.317 541.231 414.256 540.621C413.129 539.974 412.966 538.702 412.937 538.037C412.87 536.486 413.401 534.167 414.216 531.51C415.888 526.058 419.09 518.161 422.913 509.614C430.187 493.348 439.851 474.411 445.851 464.957L343.718 388.623L316.772 375.314L311.771 372.844L374.322 364.231L346.93 289.943L346.193 287.945L379.848 283.311L386.829 252.299L387.157 250.836L388.653 250.97L417.377 253.557L414.459 232.371L449.986 227.479L443.983 183.885L446.995 185.588L483.545 206.256L489.079 60.288L489.796 41.3757L492.484 60.11Z" fill="black" stroke="url(#paint6_linear_1179_16041)" stroke-width="3.4242" stroke-miterlimit="16"/>
</g>
<defs>
<linearGradient id="paint0_linear_1179_16041" x1="811.53" y1="855.393" x2="690.215" y2="566.293" gradientUnits="userSpaceOnUse">
<stop stop-color="#787878"/>
<stop offset="1" stop-color="#FF00FF"/>
</linearGradient>
<linearGradient id="paint1_linear_1179_16041" x1="811.53" y1="855.393" x2="690.215" y2="566.293" gradientUnits="userSpaceOnUse">
<stop stop-color="#787878"/>
<stop offset="1" stop-color="#FF00FF"/>
</linearGradient>
<radialGradient id="paint2_radial_1179_16041" cx="0" cy="0" r="1" gradientUnits="userSpaceOnUse" gradientTransform="translate(612.437 479.954) rotate(74.21) scale(445.826 474.776)">
<stop stop-color="white"/>
<stop offset="1" stop-color="#999999" stop-opacity="0"/>
</radialGradient>
<linearGradient id="paint3_linear_1179_16041" x1="448.38" y1="-63.9415" x2="485.657" y2="247.357" gradientUnits="userSpaceOnUse">
<stop stop-color="#FF00FF"/>
<stop offset="1" stop-color="#787878"/>
</linearGradient>
<linearGradient id="paint4_linear_1179_16041" x1="448.38" y1="-63.9415" x2="485.657" y2="247.357" gradientUnits="userSpaceOnUse">
<stop stop-color="#FF00FF"/>
<stop offset="1" stop-color="#787878"/>
</linearGradient>
<radialGradient id="paint5_radial_1179_16041" cx="0" cy="0" r="1" gradientUnits="userSpaceOnUse" gradientTransform="translate(475.955 405.105) rotate(-148.436) scale(411.892 438.638)">
<stop stop-color="white"/>
<stop offset="1" stop-color="#999999" stop-opacity="0"/>
</radialGradient>
<linearGradient id="paint6_linear_1179_16041" x1="506.17" y1="58.2353" x2="593.532" y2="692.659" gradientUnits="userSpaceOnUse">
<stop stop-color="#5A1985"/>
<stop offset="1" stop-color="#8300A1"/>
</linearGradient>
<clipPath id="clip0_1179_16041">
<rect width="1088" height="849" fill="white"/>
</clipPath>
</defs>
</svg>
