<svg width="73" height="73" viewBox="0 0 73 73" fill="none" xmlns="http://www.w3.org/2000/svg">
<path d="M36.1992 9.70001L39.9469 32.4523L62.6992 36.2L39.9469 39.9477L36.1992 62.7L32.4516 39.9477L9.69922 36.2L32.4516 32.4523L36.1992 9.70001Z" fill="#FF5900"/>
<g filter="url(#filter0_f_998_3179)">
<path d="M36.1992 9.70001L39.9469 32.4523L62.6992 36.2L39.9469 39.9477L36.1992 62.7L32.4516 39.9477L9.69922 36.2L32.4516 32.4523L36.1992 9.70001Z" fill="#FF5900"/>
</g>
<g filter="url(#filter1_f_998_3179)">
<path d="M36.199 26.5049L37.5701 34.8289L45.8941 36.2L37.5701 37.5711L36.199 45.8951L34.8279 37.5711L26.5039 36.2L34.8279 34.8289L36.199 26.5049Z" fill="white"/>
</g>
<defs>
<filter id="filter0_f_998_3179" x="-0.000781059" y="1.23978e-05" width="72.4" height="72.4" filterUnits="userSpaceOnUse" color-interpolation-filters="sRGB">
<feFlood flood-opacity="0" result="BackgroundImageFix"/>
<feBlend mode="normal" in="SourceGraphic" in2="BackgroundImageFix" result="shape"/>
<feGaussianBlur stdDeviation="4.85" result="effect1_foregroundBlur_998_3179"/>
</filter>
<filter id="filter1_f_998_3179" x="24.5039" y="24.5049" width="23.3906" height="23.3903" filterUnits="userSpaceOnUse" color-interpolation-filters="sRGB">
<feFlood flood-opacity="0" result="BackgroundImageFix"/>
<feBlend mode="normal" in="SourceGraphic" in2="BackgroundImageFix" result="shape"/>
<feGaussianBlur stdDeviation="1" result="effect1_foregroundBlur_998_3179"/>
</filter>
</defs>
</svg>
