<svg width="745" height="121" viewBox="0 0 745 121" fill="none" xmlns="http://www.w3.org/2000/svg">
<g filter="url(#filter0_d_998_2102)">
<mask id="path-1-outside-1_998_2102" maskUnits="userSpaceOnUse" x="-28.7801" y="-315.336" width="786.208" height="756.866" fill="black">
<rect fill="white" x="-28.7801" y="-315.336" width="786.208" height="756.866"/>
<path d="M436.695 33.1133C437.835 28.4515 441.896 25.0763 446.687 24.8092L447.169 24.7936L454.724 24.703C456.589 24.6807 458.342 25.1289 459.881 25.9288C462.142 25.1759 464.401 24.5798 466.654 24.1621C471.565 23.2519 475.812 25.6453 477.977 29.3216C478.893 28.6452 479.854 28.0187 480.861 27.4489L481.707 26.9877L481.736 26.9728L481.766 26.958C486.565 24.4863 492.021 23.4877 497.669 23.4203C504.757 23.3357 512.288 25.1097 517.355 31.228L517.357 31.2267C517.38 31.2547 517.403 31.2838 517.426 31.3119C517.442 31.3316 517.46 31.3509 517.476 31.3707L517.474 31.3719C518.8 32.9692 519.821 34.6656 520.573 36.4285C523.385 32.4609 526.888 29.1891 531.105 26.8136C531.116 26.8071 531.129 26.8006 531.14 26.7941C531.166 26.7797 531.191 26.7639 531.217 26.7495L531.217 26.751C535.637 24.2328 540.466 22.9097 545.558 22.8489C548.257 22.8167 551.013 23.0786 553.657 23.8456C554.344 23.665 555.056 23.5493 555.785 23.5082L556.266 23.491L564.548 23.3922C567.918 23.3521 570.887 24.8265 572.897 27.1302L575.024 16.5126L575.129 16.0431C576.274 11.389 580.332 8.02241 585.117 7.75605L585.599 7.73967L593.76 7.64271C599.308 7.57651 603.777 11.6082 604.654 16.7044C605.631 11.8085 609.798 8.21804 614.746 7.94171L615.229 7.92555L624.318 7.81677C630.17 7.74698 634.825 12.2382 635.323 17.734C636.535 16.4729 638.051 15.5004 639.765 14.9338L640.127 14.8221L648.74 12.3017C655.968 10.1866 662.887 15.8097 662.726 22.9722C664.099 23.4927 665.33 24.2808 666.365 25.2659C668.217 23.4235 670.716 22.2552 673.454 22.1027L673.936 22.0872L682.099 21.9898C685.943 21.944 689.268 23.8671 691.24 26.7475C693.099 23.8854 696.243 21.9864 699.788 21.7891L700.269 21.7727L708.432 21.6753C715.367 21.5928 720.62 27.9142 719.27 34.7171L716.021 51.0886C717.132 50.6285 718.332 50.346 719.581 50.2763L720.064 50.2601L726.304 50.1858C733.226 50.1034 738.476 56.4022 737.148 63.1964L736.051 68.804C735.059 73.8804 730.64 77.5632 725.468 77.6251L719.228 77.6994C715.802 77.7402 712.787 76.2177 710.775 73.8462C709.879 75.9012 708.754 77.8534 707.395 79.6854L707.396 79.6856C707.387 79.6983 707.377 79.7107 707.367 79.7234C707.357 79.7374 707.347 79.7522 707.337 79.7663L707.335 79.766C704.25 83.9473 700.038 86.8442 695.307 88.7457C690.287 90.8383 684.393 91.6686 678.117 91.7434C676.972 91.7571 675.682 91.7049 674.318 91.6145C672.936 91.5675 671.555 91.4688 670.177 91.3167C669.459 91.2598 668.759 91.1917 668.091 91.1043C661.453 90.2363 657.711 83.9501 658.871 78.1812L659.266 76.2172C658.499 76.7446 657.65 77.1834 656.726 77.5091C653.218 78.7467 649.494 79.3016 645.682 79.3472C640.06 79.4142 633.49 77.94 629.167 72.2739C627.647 70.2813 626.668 68.1432 626.098 65.9623L625.265 70.1576C624.26 75.2192 619.848 78.8859 614.688 78.9476L606.525 79.0443C603.344 79.0823 600.518 77.7709 598.52 75.6854C597.333 76.9474 595.824 77.9498 594.048 78.54C590.972 79.5622 587.763 80.0385 584.5 80.0775C579.801 80.1336 573.665 79.0368 569.57 73.8385C569.078 73.2148 568.65 72.5739 568.279 71.9222C566.898 76.4128 562.761 79.5667 557.979 79.6238L551.05 79.7064C549.672 79.7229 548.352 79.4821 547.135 79.0318C543.967 80.1234 540.624 80.6013 537.238 80.6417C532.932 80.6931 528.666 79.9648 524.729 78.0978L524.69 78.0793L524.65 78.06C520.741 76.1634 517.801 73.1996 515.868 69.5517L515.741 70.2022C515.059 73.6861 512.667 76.8007 509.099 78.2246C506.69 79.186 504.136 79.8589 501.494 80.3059C498.525 80.8588 495.445 81.1403 492.275 81.1781C487.197 81.2387 482.242 80.4082 477.745 78.2666L477.713 78.2507L477.68 78.2353C472.804 75.8695 469.108 72.0509 466.947 67.0517L466.903 66.9534L466.863 66.8541C464.942 62.1292 464.781 57.0398 465.547 52.0952C464.756 52.3036 463.973 52.525 463.198 52.7584L459.34 72.1418C458.333 77.2012 453.922 80.8657 448.763 80.9272L440.6 81.0246C433.665 81.1073 428.412 74.7859 429.762 67.9829L436.592 33.5836L436.695 33.1133ZM722.123 58.5893C720.302 59.3108 718.768 60.6282 717.783 62.3261C717.893 63.109 718.11 63.862 718.418 64.5699L718.027 66.574C717.894 67.2534 718.419 67.8838 719.111 67.8756L720.897 67.8545C721.639 68.4648 722.485 68.955 723.408 69.2957C725.229 68.5743 726.762 67.257 727.748 65.5589C727.637 64.7764 727.42 64.0242 727.113 63.3166L727.505 61.3112C727.638 60.6318 727.113 60.0019 726.42 60.0102L724.633 60.0321C723.891 59.4216 723.046 58.93 722.123 58.5893ZM674.052 31.9116C673.537 31.9178 673.096 32.284 672.995 32.7897L668.59 54.848L668.489 55.3841C668.025 58.0427 668.166 60.3782 668.912 62.3906L669.066 62.7879C669.875 64.7455 671.153 66.2908 672.899 67.4251C674.761 68.5837 676.975 69.1477 679.541 69.1171C682.416 69.0828 684.953 68.6678 687.151 67.8715C688.6 67.325 689.952 66.6939 691.207 65.979C691.954 65.5542 692.92 66.1906 692.762 67.0351C692.228 69.608 690.607 71.4242 687.899 72.4832C685.19 73.5423 681.859 74.095 677.907 74.1421C676.778 74.1556 675.416 74.0692 673.822 73.8828C672.772 73.7938 671.845 73.6697 671.039 73.5108C670.413 73.3876 669.78 73.7724 669.654 74.3974L668.503 80.1183C668.384 80.7091 668.768 81.2845 669.365 81.3626C669.884 81.4305 670.477 81.4897 671.142 81.5395C672.375 81.6788 673.609 81.7663 674.841 81.8029C676.126 81.8903 677.179 81.9288 678 81.919C683.595 81.8522 688.104 81.1048 691.527 79.6778C695.001 78.3016 697.648 76.3708 699.466 73.885C701.172 71.6026 702.355 69.0107 703.015 66.1091L703.14 65.5245L709.633 32.8037C709.768 32.1236 709.242 31.4915 708.549 31.4998L700.385 31.5971C699.87 31.6034 699.429 31.9702 699.328 32.4761L694.416 57.1744C694.368 57.4135 694.243 57.6318 694.054 57.7864C692.85 58.7732 691.469 59.6086 689.91 60.2922C688.224 61.031 686.482 61.4109 684.686 61.4324C681.863 61.466 680.086 60.9481 679.355 59.8789C678.674 58.7576 678.575 56.9621 679.059 54.4922L683.3 33.1182C683.427 32.4804 682.973 31.8853 682.344 31.8203L682.217 31.8136L674.052 31.9116ZM642.886 24.2517C642.498 24.3655 642.204 24.6848 642.123 25.0817L640.829 31.4462C640.727 31.9501 640.287 32.3145 639.773 32.3206L636.38 32.3611C635.865 32.3673 635.423 32.7335 635.323 33.2392L634.159 39.0786C634.024 39.7589 634.55 40.3911 635.243 40.3832L637.706 40.3544C638.401 40.3461 638.926 40.9796 638.79 41.6605L635.639 57.3203C634.863 61.1286 635.31 64.1268 636.979 66.3144C638.648 68.5017 641.509 69.5708 645.564 69.5225C648.507 69.4874 651.139 69.0613 653.458 68.2434C653.765 68.1351 653.998 67.8885 654.1 67.5844L654.136 67.4508L655.104 62.6733C655.259 61.9088 654.589 61.248 653.834 61.3149L653.683 61.3384C652.681 61.5571 651.741 61.6715 650.861 61.682C648.654 61.7083 647.213 61.3661 646.537 60.6556C645.912 59.8931 645.792 58.5084 646.179 56.5019L649.276 41.0796C649.378 40.5747 649.819 40.2092 650.334 40.203L657.252 40.1213C657.678 40.1162 658.055 39.8646 658.23 39.4876L658.292 39.3198L659.903 33.4745C660.083 32.8179 659.627 32.171 658.97 32.0999L658.837 32.0933L652.395 32.1702C651.702 32.1784 651.176 31.546 651.312 30.8656L652.876 22.9915C653.026 22.2377 652.376 21.587 651.646 21.6981L651.499 21.7314L642.886 24.2517ZM657.106 51.9893C657.755 52.187 658.385 52.4423 658.989 52.7501L659.6 49.6883C658.925 49.8377 658.228 49.9221 657.518 49.9402L657.106 51.9893ZM605.79 38.9929C605.565 39.7019 606.1 40.4233 606.844 40.4144L609.454 40.3834C610.148 40.3751 610.673 41.0076 610.538 41.688L605.324 67.9159C605.189 68.5963 605.714 69.2288 606.408 69.2206L614.571 69.1223C615.087 69.1161 615.527 68.7495 615.628 68.2434L622.457 33.8442C622.592 33.164 622.068 32.5322 621.374 32.5404L608.572 32.6928C608.101 32.6986 607.686 33.0059 607.544 33.4548L605.79 38.9929ZM585.715 17.5641C585.2 17.5704 584.759 17.9363 584.658 18.4415L576.328 60.0303C574.922 66.9261 577.606 70.3336 584.382 70.2529C586.766 70.2245 588.956 69.8787 590.949 69.2162C591.266 69.1107 591.506 68.8586 591.61 68.546L591.645 68.4087L592.556 63.6619C592.713 62.8432 591.922 62.139 591.099 62.2663C590.647 62.336 590.182 62.3824 589.702 62.4042L589.217 62.4178C588.088 62.4313 587.341 62.2087 586.976 61.7511C586.662 61.2416 586.625 60.3439 586.867 59.0579L594.96 18.7741C595.089 18.1357 594.635 17.538 594.006 17.4725L593.877 17.4665L585.715 17.5641ZM597.792 54.5587C597.842 54.5929 597.891 54.6277 597.94 54.6626L599.4 47.322C599.356 47.2814 599.313 47.2406 599.27 47.1993L597.792 54.5587ZM615.346 17.7493C614.829 17.7556 614.387 18.1243 614.288 18.6319L613.119 24.625C612.986 25.3043 613.511 25.9349 614.203 25.9267L623.292 25.8179C623.809 25.8118 624.251 25.4431 624.35 24.9354L625.52 18.9415C625.644 18.3048 625.19 17.712 624.563 17.6472L624.435 17.6414L619.232 17.7033C619.043 17.5689 618.847 17.4422 618.647 17.3228C618.449 17.4467 618.257 17.578 618.07 17.7169L615.346 17.7493ZM536.004 35.3295C532.995 37.0082 530.431 39.4009 528.312 42.5065C526.193 45.6119 524.697 49.3518 523.825 53.7257C523.002 57.8939 523.068 61.2566 524.023 63.8121L524.219 64.273C525.235 66.5379 526.809 68.1869 528.939 69.2203C531.262 70.3218 533.989 70.8544 537.12 70.8171C539.686 70.7865 541.967 70.4258 543.961 69.7346C545.354 69.2283 546.71 68.5673 548.027 67.7521C548.796 67.2764 549.838 67.8118 549.829 68.716L549.828 68.7791C549.822 69.3914 550.32 69.8889 550.932 69.8818L557.862 69.7994C558.378 69.7931 558.819 69.4265 558.919 68.9204L565.749 34.5212C565.884 33.8409 565.358 33.2083 564.665 33.2166L556.383 33.3162C555.938 33.3216 555.56 33.6413 555.48 34.0792C555.351 34.7949 554.477 35.0979 553.876 34.688C552.96 34.0635 552.001 33.6013 550.996 33.3027C549.502 32.8585 547.729 32.6491 545.676 32.6735C542.237 32.7145 539.012 33.5996 536.004 35.3295ZM534.374 53.5998C536.168 44.7998 540.325 40.3614 546.844 40.2836C549.542 40.2514 551.686 41.1754 553.276 43.0557C553.477 43.2931 553.547 43.6113 553.487 43.9162L550.462 59.3427C550.414 59.5891 550.282 59.8122 550.086 59.9685C547.472 62.0462 544.609 63.1043 541.495 63.1415C538.21 63.1807 535.995 62.5394 534.85 61.2184C533.824 59.9793 533.621 57.6698 534.239 54.2904L534.374 53.5998ZM559.414 26.5717C559.332 26.5163 559.25 26.4635 559.168 26.4112C559.249 26.4653 559.333 26.5166 559.414 26.5717ZM486.265 35.6921C483.254 37.2682 480.893 39.4787 479.182 42.3227C477.47 45.1667 476.227 48.5444 475.452 52.4553C474.63 56.726 474.802 60.2918 475.965 63.1528C477.179 65.9619 479.181 68.0428 481.969 69.3957C484.809 70.7478 488.205 71.4007 492.157 71.3535C494.826 71.3217 497.339 71.0857 499.696 70.6469C501.828 70.2963 503.748 69.7803 505.457 69.0986C505.75 68.9817 505.969 68.7389 506.066 68.4432L506.1 68.3133L507.063 63.3972C507.227 62.5566 506.398 61.849 505.575 62.088C504.49 62.4033 503.295 62.6801 501.99 62.9188C499.89 63.3033 497.865 63.5078 495.915 63.5311C491.449 63.5844 488.388 63.0815 486.732 62.0232C485.332 61.099 484.549 59.4635 484.384 57.1171C484.342 56.5233 484.828 56.0396 485.424 56.0325L509.874 55.7408C510.391 55.7344 510.832 55.367 510.932 54.8604L512.067 49.0924C513.037 44.3064 512.298 40.4645 509.85 37.5674C507.454 34.6185 503.432 33.1773 497.786 33.2447C493.166 33.2998 489.326 34.1156 486.265 35.6921ZM489.046 42.8978C490.672 41.4925 493.204 40.7688 496.643 40.7278C499.569 40.6929 501.527 41.2863 502.517 42.5066C503.506 43.6755 503.783 45.3147 503.346 47.4244L503.145 48.544C503.052 49.059 502.607 49.4357 502.083 49.4422L487.014 49.6223C486.318 49.6306 485.79 48.9921 485.974 48.3209C486.637 45.903 487.661 44.0951 489.046 42.8978ZM494.491 44.0083C494.175 44.5597 493.917 45.1509 493.725 45.7737C493.73 45.8694 493.74 45.9809 493.757 46.1071L495.434 46.0871C495.213 45.3449 494.891 44.6494 494.491 44.0083ZM447.286 34.6174C446.77 34.6236 446.329 34.9908 446.228 35.497L439.399 69.8962C439.264 70.5764 439.789 71.2076 440.483 71.1994L448.647 71.1028C449.13 71.0969 449.548 70.7743 449.681 70.3173L449.704 70.2239L454.514 46.0585C454.579 45.7323 454.789 45.4514 455.088 45.3069C456.112 44.8128 457.309 44.3366 458.679 43.8768C460.315 43.3439 461.978 42.8616 463.667 42.4307C465.107 42.0739 466.442 41.7887 467.672 41.5747C468.126 41.4959 468.487 41.1482 468.575 40.696L469.662 35.0774C469.796 34.3879 469.256 33.7678 468.581 33.8058L468.445 33.8224C466.502 34.1826 464.496 34.7211 462.428 35.438C460.639 36.034 459.014 36.6781 457.553 37.3707C456.771 37.7419 455.842 37.1461 455.902 36.2819L455.944 35.6947C455.985 35.0981 455.54 34.5881 454.959 34.5328L454.841 34.5268L447.286 34.6174ZM282.001 26.9382C282.91 23.141 285.786 20.107 289.551 19.0049L298.164 16.4846C305.392 14.3695 312.311 19.9932 312.15 27.1557C312.952 27.4597 313.706 27.8544 314.4 28.3271L316.143 19.6072L316.247 19.1369C317.39 14.4806 321.449 11.1112 326.237 10.8447L326.718 10.8283L334.88 10.7316C341.822 10.649 347.077 16.9816 345.715 23.7889L345.425 25.24C345.523 25.2381 345.621 25.2349 345.719 25.2337C351.621 25.1633 358.37 26.6109 362.939 32.157L362.941 32.1557C362.973 32.1942 363.003 32.2341 363.035 32.2727C363.053 32.295 363.072 32.3167 363.09 32.3392L363.089 32.3404C364.102 33.5766 364.894 34.8812 365.501 36.2276C367.799 33.1467 370.678 30.6327 374.053 28.7231L374.899 28.2628L374.928 28.2478L374.958 28.2322C379.757 25.7605 385.213 24.7619 390.861 24.6945C397.949 24.6099 405.48 26.3841 410.547 32.5022L410.549 32.5009C410.572 32.5292 410.595 32.5586 410.619 32.587C410.635 32.6065 410.652 32.6253 410.668 32.6449L410.666 32.6462C415.466 38.429 416.251 45.5265 414.898 52.2636L414.9 52.2638L413.765 58.0326C413.273 60.5298 411.95 62.6869 410.119 64.2423C410.123 64.9904 410.053 65.7646 409.897 66.5605L408.934 71.4773C408.251 74.961 405.858 78.075 402.291 79.4988C399.82 80.485 397.197 81.1711 394.482 81.6175C391.576 82.1455 388.565 82.4154 385.467 82.4524C380.389 82.513 375.434 81.6825 370.936 79.5409L370.905 79.5257L370.872 79.5104C367.36 77.8065 364.461 75.3481 362.306 72.2386L362.097 73.2932C361.094 78.357 356.68 82.0252 351.518 82.0868L343.357 82.1852C339.512 82.2311 336.187 80.3069 334.215 77.4258C332.273 80.4173 328.926 82.3575 325.186 82.4021L317.025 82.4991C314.14 82.5335 311.547 81.458 309.599 79.7025C308.612 80.5478 307.456 81.2318 306.151 81.6919C302.642 82.9296 298.918 83.4852 295.106 83.5306C289.484 83.5977 282.914 82.1229 278.592 76.4567C274.585 71.2044 274.335 64.9437 275.436 59.5416L277.085 51.3415C274.525 48.8721 273.184 45.1838 273.949 41.343L275.111 35.5042L275.215 35.0339C276.08 31.502 278.623 28.7107 281.889 27.4501L281.919 27.3089L282.001 26.9382ZM379.457 36.9672C376.447 38.5432 374.085 40.7529 372.373 43.5969C370.662 46.4409 369.419 49.8186 368.644 53.7295C367.822 58.0002 367.993 61.5661 369.157 64.427C370.371 67.236 372.373 69.317 375.161 70.6699C378.001 72.0221 381.397 72.6749 385.349 72.6278C388.018 72.5959 390.532 72.3608 392.888 71.922C395.021 71.5714 396.941 71.0554 398.649 70.3737C398.942 70.2568 399.161 70.0133 399.258 69.7175L399.292 69.5876L400.255 64.6714C400.419 63.8311 399.591 63.1239 398.769 63.3624C397.683 63.6778 396.487 63.9552 395.183 64.194C393.083 64.5784 391.057 64.7821 389.107 64.8054C384.641 64.8586 381.58 64.3564 379.925 63.2982C378.525 62.3741 377.742 60.7385 377.576 58.3922C377.534 57.7983 378.02 57.3139 378.615 57.3067L403.066 57.015C403.583 57.0087 404.024 56.6414 404.123 56.1346L405.259 50.3666C406.229 45.5808 405.49 41.7395 403.043 38.8425C400.646 35.8935 396.624 34.4524 390.978 34.5198C386.359 34.5749 382.518 35.3907 379.457 36.9672ZM382.238 44.1721C383.864 42.7667 386.397 42.0439 389.836 42.0029C392.761 41.968 394.719 42.5606 395.709 43.7808C396.698 44.9498 396.975 46.5894 396.538 48.6995L396.337 49.8183C396.244 50.3333 395.799 50.7101 395.275 50.7164L380.206 50.8966C379.51 50.9048 378.982 50.2663 379.166 49.5951C379.829 47.1773 380.853 45.3693 382.238 44.1721ZM387.683 45.2834C387.367 45.8349 387.11 46.4259 386.918 47.0488C386.923 47.1442 386.932 47.2555 386.949 47.3813L388.625 47.3613C388.405 46.6195 388.083 45.9243 387.683 45.2834ZM326.835 20.6536C326.319 20.6597 325.878 21.0261 325.777 21.5317L315.824 71.3692C315.688 72.0498 316.213 72.6826 316.907 72.6745L325.069 72.5769C325.553 72.5711 325.971 72.2489 326.104 71.7916L326.127 71.6988L331.037 47.0116C331.085 46.7654 331.216 46.542 331.414 46.3866C332.665 45.3996 334.094 44.5648 335.7 43.881C337.437 43.1416 339.101 42.762 340.692 42.743C343.515 42.7094 345.292 43.2016 346.023 44.2195C346.805 45.237 346.954 46.981 346.47 49.451L342.156 71.0553C342.02 71.7359 342.546 72.3682 343.24 72.36L351.401 72.263C351.885 72.2572 352.303 71.9344 352.436 71.4769L352.459 71.3835L356.935 48.7872C357.856 44.2074 357.353 40.7735 355.426 38.4863C353.55 36.1471 350.354 35.0045 345.837 35.0583C343.321 35.0883 340.913 35.4766 338.612 36.2228C337.289 36.6611 336.055 37.1688 334.912 37.747C334.045 38.1854 332.964 37.4399 333.155 36.4871L336.08 21.8621C336.217 21.1814 335.691 20.5477 334.997 20.556L326.835 20.6536ZM292.311 28.4346C291.922 28.5483 291.629 28.8678 291.548 29.2645L290.254 35.6299C290.158 36.1025 289.765 36.452 289.292 36.4987L289.197 36.5035L285.805 36.544C285.289 36.5501 284.848 36.9176 284.747 37.4236L283.585 43.2623C283.449 43.9427 283.975 44.5752 284.668 44.567L287.131 44.5372C287.826 44.529 288.351 45.163 288.214 45.844L285.064 61.5032L284.932 62.2079C284.348 65.6832 284.839 68.4464 286.403 70.4973C288.072 72.6848 290.934 73.7546 294.99 73.7062C297.933 73.6711 300.564 73.2442 302.883 72.4262C303.189 72.3181 303.422 72.0724 303.525 71.7687L303.561 71.6346L304.529 66.8562C304.694 66.0409 303.92 65.3437 303.107 65.5213C302.211 65.7171 301.363 65.829 300.565 65.8579L300.286 65.8657C298.079 65.892 296.638 65.5491 295.962 64.8385C295.337 64.0759 295.217 62.6915 295.604 60.6847L298.701 45.2634C298.803 44.7585 299.243 44.393 299.757 44.3866L306.677 44.3041C307.163 44.2984 307.587 43.9715 307.716 43.5026L309.327 37.658C309.507 37.0013 309.052 36.3539 308.395 36.2828L308.261 36.2768L301.819 36.3537C301.126 36.3617 300.6 35.7292 300.735 35.049L302.302 27.1752C302.452 26.4215 301.801 25.7699 301.071 25.881L300.924 25.9142L292.311 28.4346ZM306.531 56.1737C307.268 56.3986 307.983 56.6966 308.661 57.0631L309.313 53.8015C308.548 53.9928 307.754 54.1031 306.942 54.1237L306.531 56.1737ZM18.1365 38.1014C19.278 33.4426 23.3373 30.0708 28.1264 29.8038L28.6076 29.7874L35.5935 29.7045C36.989 29.6879 38.3233 29.9359 39.5528 30.3968C42.6972 29.3043 45.9993 28.8097 49.3497 28.7697C56.3711 28.6859 63.4358 30.7695 68.2956 36.7924L68.2973 36.7911C68.3068 36.8027 68.3157 36.8147 68.3251 36.8263C68.3371 36.8412 68.3494 36.856 68.3614 36.871L68.3597 36.8723C69.6362 38.4532 70.5964 40.1554 71.2967 41.9347C74.126 37.9017 77.6619 34.5788 81.93 32.1743L81.9302 32.1728C81.9575 32.1571 81.9856 32.1423 82.0129 32.1267C82.0226 32.1212 82.0321 32.1156 82.0418 32.1102C86.4624 29.5918 91.2908 28.2689 96.3827 28.2081C99.0823 28.1759 101.838 28.4385 104.482 29.2057C105.169 29.0251 105.881 28.9085 106.61 28.8674L107.091 28.8517L115.373 28.752C118.292 28.7172 120.911 29.8212 122.867 31.6146C123.906 30.6181 125.138 29.8292 126.495 29.3051L126.526 29.1625C127.307 25.3173 130.089 22.1973 133.796 20.9717L134.158 20.8593L142.771 18.339C149.999 16.224 156.918 21.8475 156.757 29.0101C159.632 30.0998 161.885 32.363 163.012 35.1477C163.436 34.7792 163.872 34.4199 164.322 34.0723C170.554 29.2614 178.199 27.2322 186.399 27.1343C189.346 27.0992 192.197 27.2659 194.801 27.7644C197.06 28.1882 199.25 28.8652 201.349 29.8038C202.046 30.1158 202.689 30.4917 203.279 30.9161L205.274 20.9293L205.379 20.4599C206.561 15.6485 210.855 12.2118 215.849 12.152L224.011 12.0544C230.953 11.9715 236.209 18.3049 234.847 25.1126L234.556 26.5622C234.654 26.5602 234.753 26.5579 234.851 26.5567C240.753 26.4863 247.502 27.9345 252.07 33.4807L252.073 33.4788C252.107 33.5196 252.139 33.5624 252.173 33.6034C252.189 33.6231 252.207 33.6423 252.223 33.6622L252.221 33.6634C256.796 39.2436 256.861 46.2366 255.703 52.0189L255.705 52.0191L251.228 74.6154C250.225 79.6794 245.812 83.3488 240.65 83.4104L232.488 83.5074C228.643 83.5532 225.318 81.6294 223.346 78.748C221.404 81.7397 218.059 83.6804 214.318 83.7251L206.156 83.8219C202.778 83.862 199.801 82.3814 197.79 80.0679C196.831 80.9223 195.706 81.6199 194.442 82.1026C189.541 83.9745 184.246 84.8529 178.695 84.9192C173.604 84.9799 168.626 84.1012 164.123 81.8343L164.091 81.8175L164.056 81.8005C161.5 80.4889 159.284 78.776 157.459 76.704C156.446 79.7569 154.079 82.3749 150.758 83.5463C147.249 84.784 143.525 85.3395 139.713 85.385C134.091 85.4521 127.521 83.9772 123.198 78.3111C121.72 76.3737 120.754 74.2988 120.177 72.1808L119.382 76.1939C118.376 81.2555 113.964 84.9221 108.804 84.9839L101.874 85.0663C100.497 85.0827 99.1777 84.8419 97.9601 84.3918C94.7925 85.4837 91.4487 85.9612 88.0621 86.0016C83.7559 86.053 79.4907 85.3255 75.5536 83.4586L75.5137 83.4392L75.0443 83.2053C71.0505 81.1496 68.1081 77.9529 66.2604 74.0479C64.9686 75.9652 63.4636 77.7248 61.7138 79.2835C56.0495 84.3288 48.9274 86.4684 41.3381 86.559C40.5202 86.5688 39.701 86.5502 38.8839 86.5023L37.4369 93.8023C36.4328 98.8652 32.0204 102.534 26.8591 102.595L18.6972 102.693C11.759 102.776 6.50511 96.4486 7.86039 89.6436L18.032 38.5708L18.1365 38.1014ZM215.967 21.9766C215.452 21.9827 215.01 22.349 214.909 22.8547L204.955 72.692C204.819 73.3726 205.345 74.0057 206.039 73.9974L214.201 73.8999C214.684 73.894 215.102 73.5721 215.236 73.1152L215.259 73.0218L220.169 48.3346C220.218 48.0883 220.349 47.865 220.546 47.7096C221.797 46.7227 223.226 45.8869 224.832 45.2031C226.568 44.4638 228.232 44.0856 229.823 44.0666C232.647 44.033 234.424 44.5245 235.155 45.5425C235.937 46.56 236.086 48.3041 235.602 50.774L231.288 72.3775C231.152 73.0581 231.677 73.6917 232.371 73.6836L240.533 73.586C241.017 73.5801 241.435 73.2573 241.568 72.7999L241.591 72.7065L246.067 50.1102C246.988 45.5301 246.485 42.0956 244.558 39.8084C242.682 37.4694 239.485 36.3266 234.968 36.3805C232.453 36.4105 230.044 36.7987 227.743 37.5449C226.42 37.9832 225.188 38.4919 224.044 39.07C223.177 39.5084 222.096 38.7635 222.286 37.8108L225.213 23.1851C225.34 22.5469 224.886 21.9494 224.257 21.8842L224.129 21.879L215.967 21.9766ZM170.326 41.8493C166.206 45.0301 163.517 49.8372 162.259 56.2694L162.115 57.0432C161.457 60.871 161.649 64.1024 162.691 66.7369C163.854 69.5466 165.805 71.6539 168.542 73.0587C171.331 74.4628 174.676 75.142 178.577 75.0954C183.171 75.0406 187.291 74.3165 190.938 72.9237C191.281 72.7924 191.529 72.4905 191.6 72.1297L192.6 67.0681C192.761 66.2518 191.989 65.5729 191.202 65.7342L191.045 65.7775C190.214 66.0704 189.362 66.3185 188.493 66.5255L187.871 66.6674C186.079 67.0481 184.285 67.2497 182.488 67.2711C177.817 67.3269 174.829 66.4638 173.524 64.6825C172.271 62.9006 172.032 60.0543 172.807 56.1435C173.629 51.8726 175.236 48.927 177.63 47.307C180.023 45.6358 183.169 44.7768 187.07 44.7302C189.021 44.7069 190.795 44.8659 192.39 45.2063L193.16 45.3784C193.911 45.5615 194.603 45.7753 195.237 46.0189C195.917 46.2802 196.711 45.9032 196.856 45.1892L197.926 39.9509C198.013 39.5279 197.841 39.098 197.496 38.8621L197.337 38.7734C195.959 38.1573 194.511 37.7063 192.991 37.421C191.241 37.0826 189.082 36.929 186.516 36.9596C179.843 37.0392 174.446 38.6687 170.326 41.8493ZM183.253 55.4381C183.083 55.7496 182.817 56.3723 182.572 57.4416C183.643 57.4162 184.727 57.2912 185.83 57.0569C186.509 56.9125 187.159 56.7296 187.78 56.5108C191.221 55.2987 195.008 55.9797 197.874 57.9758L198.354 55.5716C196.137 56.1075 193.786 55.9869 191.711 55.189C191.45 55.0886 191.028 54.9575 190.405 54.829L190.372 54.8214L190.341 54.8146C189.58 54.6523 188.547 54.5386 187.188 54.5548C184.77 54.5836 183.706 55.0762 183.324 55.318C183.306 55.3479 183.281 55.387 183.253 55.4381ZM136.918 30.289C136.529 30.4027 136.234 30.7226 136.154 31.1196L134.861 37.4834C134.765 37.9559 134.372 38.3062 133.899 38.3531L133.804 38.3579L130.411 38.399C129.895 38.4053 129.454 38.7713 129.353 39.2771L128.191 45.1159C128.055 45.7963 128.581 46.4286 129.275 46.4205L131.738 46.3916C132.432 46.3836 132.957 47.0175 132.821 47.6984L129.67 63.3582L129.539 64.0622C128.955 67.5376 129.446 70.3008 131.01 72.3517C132.679 74.539 135.541 75.6082 139.596 75.5598C142.539 75.5246 145.17 75.0987 147.49 74.2806C147.84 74.157 148.093 73.853 148.167 73.4887L149.135 68.7105C149.29 67.9463 148.62 67.2856 147.866 67.3522L147.714 67.3756C146.818 67.5715 145.97 67.6833 145.172 67.7123L144.893 67.7192C142.686 67.7456 141.244 67.404 140.568 66.6935C139.943 65.9309 139.824 64.5458 140.21 62.5391L143.307 47.1175C143.408 46.6125 143.849 46.2472 144.364 46.2409L151.284 46.1585C151.71 46.1534 152.087 45.902 152.261 45.5249L152.323 45.357L153.933 39.5124C154.114 38.8558 153.658 38.2085 153.002 38.1372L152.868 38.1312L146.426 38.2081C145.732 38.2163 145.207 37.5837 145.342 36.9034L146.908 29.0288C147.058 28.275 146.407 27.6245 145.677 27.736L145.531 27.7686L136.918 30.289ZM151.137 58.0272C151.443 58.1204 151.744 58.2266 152.041 58.3448C152.114 57.5371 152.217 56.7316 152.344 55.93C152.081 55.9558 151.816 55.9713 151.549 55.9781L151.137 58.0272ZM86.8289 40.6902C83.8201 42.3689 81.2556 44.7603 79.1365 47.8657C77.0174 50.9713 75.5219 54.7123 74.6501 59.0865C73.8272 63.2544 73.8932 66.6159 74.8477 69.1713L75.0436 69.6323C76.0602 71.8973 77.6332 73.5467 79.7632 74.5802C82.0865 75.6818 84.8139 76.2137 87.945 76.1764C90.5115 76.1457 92.7921 75.785 94.7861 75.0938C96.179 74.5876 97.5345 73.9265 98.8523 73.1114C99.6214 72.6359 100.663 73.1725 100.653 74.0767L100.653 74.1383C100.646 74.7509 101.145 75.2492 101.757 75.2419L108.686 75.1593C109.17 75.1535 109.588 74.8306 109.721 74.3731L109.744 74.2797L116.574 39.8804C116.7 39.2427 116.246 38.6474 115.618 38.5825L115.491 38.5767L107.208 38.6755C106.763 38.6808 106.384 39.0011 106.304 39.4391C106.175 40.1545 105.302 40.4575 104.701 40.0481C103.786 39.4235 102.825 38.9621 101.821 38.6634C100.327 38.2192 98.553 38.0089 96.4998 38.0334C93.0607 38.0744 89.8372 38.9602 86.8289 40.6902ZM85.1983 58.9605C86.9928 50.1603 91.1502 45.7206 97.6692 45.6428C100.367 45.6107 102.511 46.5348 104.101 48.415C104.302 48.6523 104.372 48.9714 104.312 49.2763L101.287 64.7019C101.239 64.9484 101.107 65.1729 100.91 65.3293C98.2971 67.4067 95.4335 68.4636 92.3201 68.5007C89.0349 68.5399 86.8198 67.8988 85.6746 66.5777C84.6492 65.3385 84.445 63.0295 85.0634 59.6503L85.1983 58.9605ZM110.238 31.9316C110.143 31.8669 110.047 31.8044 109.951 31.7441C110.047 31.8069 110.143 31.8673 110.238 31.9316ZM28.7256 39.6121C28.2099 39.6182 27.7687 39.9844 27.6679 40.4901L17.4963 91.5629C17.3608 92.2434 17.8862 92.8758 18.58 92.8675L26.742 92.7699C27.2258 92.7642 27.6443 92.4421 27.7775 91.9846L27.7997 91.8919L30.999 75.7593C31.1547 74.9767 32.0783 74.6133 32.7834 74.9871C35.0557 76.1917 37.8678 76.7743 41.2201 76.7344C47.0203 76.6652 51.6734 75.0694 55.1784 71.9475C58.5739 68.9229 60.9391 64.2725 62.2723 57.9963L62.3978 57.3845C63.7053 50.7976 63.1343 46.004 60.6856 43.0042C58.2883 40.004 54.5492 38.5338 49.4677 38.5943C46.9013 38.6249 44.5954 39.0121 42.5508 39.7552C41.1885 40.2503 39.8731 40.8821 38.6052 41.6497C37.8264 42.1208 36.7813 41.5631 36.8116 40.6534C36.8324 40.0335 36.331 39.5211 35.7108 39.5283L28.7256 39.6121ZM36.5004 49.4442C39.1123 47.3658 41.9506 46.3086 45.0154 46.272C48.5573 46.2297 50.7754 47.1014 51.6695 48.8876L51.8364 49.2249C52.6214 50.9782 52.6511 53.6885 51.9248 57.3551L51.763 58.105C50.9226 61.7875 49.5741 64.5059 47.7182 66.2606C45.7383 68.1324 43.2084 69.087 40.1285 69.1238C38.3834 69.1446 36.9429 68.9044 35.8076 68.4046C34.9095 67.99 34.0805 67.4689 33.3208 66.8412C33.027 66.5984 32.9036 66.2094 32.9782 65.8356L36.1253 50.0664C36.1742 49.8215 36.305 49.5998 36.5004 49.4442Z"/>
</mask>
<path d="M436.695 33.1133C437.835 28.4515 441.896 25.0763 446.687 24.8092L447.169 24.7936L454.724 24.703C456.589 24.6807 458.342 25.1289 459.881 25.9288C462.142 25.1759 464.401 24.5798 466.654 24.1621C471.565 23.2519 475.812 25.6453 477.977 29.3216C478.893 28.6452 479.854 28.0187 480.861 27.4489L481.707 26.9877L481.736 26.9728L481.766 26.958C486.565 24.4863 492.021 23.4877 497.669 23.4203C504.757 23.3357 512.288 25.1097 517.355 31.228L517.357 31.2267C517.38 31.2547 517.403 31.2838 517.426 31.3119C517.442 31.3316 517.46 31.3509 517.476 31.3707L517.474 31.3719C518.8 32.9692 519.821 34.6656 520.573 36.4285C523.385 32.4609 526.888 29.1891 531.105 26.8136C531.116 26.8071 531.129 26.8006 531.14 26.7941C531.166 26.7797 531.191 26.7639 531.217 26.7495L531.217 26.751C535.637 24.2328 540.466 22.9097 545.558 22.8489C548.257 22.8167 551.013 23.0786 553.657 23.8456C554.344 23.665 555.056 23.5493 555.785 23.5082L556.266 23.491L564.548 23.3922C567.918 23.3521 570.887 24.8265 572.897 27.1302L575.024 16.5126L575.129 16.0431C576.274 11.389 580.332 8.02241 585.117 7.75605L585.599 7.73967L593.76 7.64271C599.308 7.57651 603.777 11.6082 604.654 16.7044C605.631 11.8085 609.798 8.21804 614.746 7.94171L615.229 7.92555L624.318 7.81677C630.17 7.74698 634.825 12.2382 635.323 17.734C636.535 16.4729 638.051 15.5004 639.765 14.9338L640.127 14.8221L648.74 12.3017C655.968 10.1866 662.887 15.8097 662.726 22.9722C664.099 23.4927 665.33 24.2808 666.365 25.2659C668.217 23.4235 670.716 22.2552 673.454 22.1027L673.936 22.0872L682.099 21.9898C685.943 21.944 689.268 23.8671 691.24 26.7475C693.099 23.8854 696.243 21.9864 699.788 21.7891L700.269 21.7727L708.432 21.6753C715.367 21.5928 720.62 27.9142 719.27 34.7171L716.021 51.0886C717.132 50.6285 718.332 50.346 719.581 50.2763L720.064 50.2601L726.304 50.1858C733.226 50.1034 738.476 56.4022 737.148 63.1964L736.051 68.804C735.059 73.8804 730.64 77.5632 725.468 77.6251L719.228 77.6994C715.802 77.7402 712.787 76.2177 710.775 73.8462C709.879 75.9012 708.754 77.8534 707.395 79.6854L707.396 79.6856C707.387 79.6983 707.377 79.7107 707.367 79.7234C707.357 79.7374 707.347 79.7522 707.337 79.7663L707.335 79.766C704.25 83.9473 700.038 86.8442 695.307 88.7457C690.287 90.8383 684.393 91.6686 678.117 91.7434C676.972 91.7571 675.682 91.7049 674.318 91.6145C672.936 91.5675 671.555 91.4688 670.177 91.3167C669.459 91.2598 668.759 91.1917 668.091 91.1043C661.453 90.2363 657.711 83.9501 658.871 78.1812L659.266 76.2172C658.499 76.7446 657.65 77.1834 656.726 77.5091C653.218 78.7467 649.494 79.3016 645.682 79.3472C640.06 79.4142 633.49 77.94 629.167 72.2739C627.647 70.2813 626.668 68.1432 626.098 65.9623L625.265 70.1576C624.26 75.2192 619.848 78.8859 614.688 78.9476L606.525 79.0443C603.344 79.0823 600.518 77.7709 598.52 75.6854C597.333 76.9474 595.824 77.9498 594.048 78.54C590.972 79.5622 587.763 80.0385 584.5 80.0775C579.801 80.1336 573.665 79.0368 569.57 73.8385C569.078 73.2148 568.65 72.5739 568.279 71.9222C566.898 76.4128 562.761 79.5667 557.979 79.6238L551.05 79.7064C549.672 79.7229 548.352 79.4821 547.135 79.0318C543.967 80.1234 540.624 80.6013 537.238 80.6417C532.932 80.6931 528.666 79.9648 524.729 78.0978L524.69 78.0793L524.65 78.06C520.741 76.1634 517.801 73.1996 515.868 69.5517L515.741 70.2022C515.059 73.6861 512.667 76.8007 509.099 78.2246C506.69 79.186 504.136 79.8589 501.494 80.3059C498.525 80.8588 495.445 81.1403 492.275 81.1781C487.197 81.2387 482.242 80.4082 477.745 78.2666L477.713 78.2507L477.68 78.2353C472.804 75.8695 469.108 72.0509 466.947 67.0517L466.903 66.9534L466.863 66.8541C464.942 62.1292 464.781 57.0398 465.547 52.0952C464.756 52.3036 463.973 52.525 463.198 52.7584L459.34 72.1418C458.333 77.2012 453.922 80.8657 448.763 80.9272L440.6 81.0246C433.665 81.1073 428.412 74.7859 429.762 67.9829L436.592 33.5836L436.695 33.1133ZM722.123 58.5893C720.302 59.3108 718.768 60.6282 717.783 62.3261C717.893 63.109 718.11 63.862 718.418 64.5699L718.027 66.574C717.894 67.2534 718.419 67.8838 719.111 67.8756L720.897 67.8545C721.639 68.4648 722.485 68.955 723.408 69.2957C725.229 68.5743 726.762 67.257 727.748 65.5589C727.637 64.7764 727.42 64.0242 727.113 63.3166L727.505 61.3112C727.638 60.6318 727.113 60.0019 726.42 60.0102L724.633 60.0321C723.891 59.4216 723.046 58.93 722.123 58.5893ZM674.052 31.9116C673.537 31.9178 673.096 32.284 672.995 32.7897L668.59 54.848L668.489 55.3841C668.025 58.0427 668.166 60.3782 668.912 62.3906L669.066 62.7879C669.875 64.7455 671.153 66.2908 672.899 67.4251C674.761 68.5837 676.975 69.1477 679.541 69.1171C682.416 69.0828 684.953 68.6678 687.151 67.8715C688.6 67.325 689.952 66.6939 691.207 65.979C691.954 65.5542 692.92 66.1906 692.762 67.0351C692.228 69.608 690.607 71.4242 687.899 72.4832C685.19 73.5423 681.859 74.095 677.907 74.1421C676.778 74.1556 675.416 74.0692 673.822 73.8828C672.772 73.7938 671.845 73.6697 671.039 73.5108C670.413 73.3876 669.78 73.7724 669.654 74.3974L668.503 80.1183C668.384 80.7091 668.768 81.2845 669.365 81.3626C669.884 81.4305 670.477 81.4897 671.142 81.5395C672.375 81.6788 673.609 81.7663 674.841 81.8029C676.126 81.8903 677.179 81.9288 678 81.919C683.595 81.8522 688.104 81.1048 691.527 79.6778C695.001 78.3016 697.648 76.3708 699.466 73.885C701.172 71.6026 702.355 69.0107 703.015 66.1091L703.14 65.5245L709.633 32.8037C709.768 32.1236 709.242 31.4915 708.549 31.4998L700.385 31.5971C699.87 31.6034 699.429 31.9702 699.328 32.4761L694.416 57.1744C694.368 57.4135 694.243 57.6318 694.054 57.7864C692.85 58.7732 691.469 59.6086 689.91 60.2922C688.224 61.031 686.482 61.4109 684.686 61.4324C681.863 61.466 680.086 60.9481 679.355 59.8789C678.674 58.7576 678.575 56.9621 679.059 54.4922L683.3 33.1182C683.427 32.4804 682.973 31.8853 682.344 31.8203L682.217 31.8136L674.052 31.9116ZM642.886 24.2517C642.498 24.3655 642.204 24.6848 642.123 25.0817L640.829 31.4462C640.727 31.9501 640.287 32.3145 639.773 32.3206L636.38 32.3611C635.865 32.3673 635.423 32.7335 635.323 33.2392L634.159 39.0786C634.024 39.7589 634.55 40.3911 635.243 40.3832L637.706 40.3544C638.401 40.3461 638.926 40.9796 638.79 41.6605L635.639 57.3203C634.863 61.1286 635.31 64.1268 636.979 66.3144C638.648 68.5017 641.509 69.5708 645.564 69.5225C648.507 69.4874 651.139 69.0613 653.458 68.2434C653.765 68.1351 653.998 67.8885 654.1 67.5844L654.136 67.4508L655.104 62.6733C655.259 61.9088 654.589 61.248 653.834 61.3149L653.683 61.3384C652.681 61.5571 651.741 61.6715 650.861 61.682C648.654 61.7083 647.213 61.3661 646.537 60.6556C645.912 59.8931 645.792 58.5084 646.179 56.5019L649.276 41.0796C649.378 40.5747 649.819 40.2092 650.334 40.203L657.252 40.1213C657.678 40.1162 658.055 39.8646 658.23 39.4876L658.292 39.3198L659.903 33.4745C660.083 32.8179 659.627 32.171 658.97 32.0999L658.837 32.0933L652.395 32.1702C651.702 32.1784 651.176 31.546 651.312 30.8656L652.876 22.9915C653.026 22.2377 652.376 21.587 651.646 21.6981L651.499 21.7314L642.886 24.2517ZM657.106 51.9893C657.755 52.187 658.385 52.4423 658.989 52.7501L659.6 49.6883C658.925 49.8377 658.228 49.9221 657.518 49.9402L657.106 51.9893ZM605.79 38.9929C605.565 39.7019 606.1 40.4233 606.844 40.4144L609.454 40.3834C610.148 40.3751 610.673 41.0076 610.538 41.688L605.324 67.9159C605.189 68.5963 605.714 69.2288 606.408 69.2206L614.571 69.1223C615.087 69.1161 615.527 68.7495 615.628 68.2434L622.457 33.8442C622.592 33.164 622.068 32.5322 621.374 32.5404L608.572 32.6928C608.101 32.6986 607.686 33.0059 607.544 33.4548L605.79 38.9929ZM585.715 17.5641C585.2 17.5704 584.759 17.9363 584.658 18.4415L576.328 60.0303C574.922 66.9261 577.606 70.3336 584.382 70.2529C586.766 70.2245 588.956 69.8787 590.949 69.2162C591.266 69.1107 591.506 68.8586 591.61 68.546L591.645 68.4087L592.556 63.6619C592.713 62.8432 591.922 62.139 591.099 62.2663C590.647 62.336 590.182 62.3824 589.702 62.4042L589.217 62.4178C588.088 62.4313 587.341 62.2087 586.976 61.7511C586.662 61.2416 586.625 60.3439 586.867 59.0579L594.96 18.7741C595.089 18.1357 594.635 17.538 594.006 17.4725L593.877 17.4665L585.715 17.5641ZM597.792 54.5587C597.842 54.5929 597.891 54.6277 597.94 54.6626L599.4 47.322C599.356 47.2814 599.313 47.2406 599.27 47.1993L597.792 54.5587ZM615.346 17.7493C614.829 17.7556 614.387 18.1243 614.288 18.6319L613.119 24.625C612.986 25.3043 613.511 25.9349 614.203 25.9267L623.292 25.8179C623.809 25.8118 624.251 25.4431 624.35 24.9354L625.52 18.9415C625.644 18.3048 625.19 17.712 624.563 17.6472L624.435 17.6414L619.232 17.7033C619.043 17.5689 618.847 17.4422 618.647 17.3228C618.449 17.4467 618.257 17.578 618.07 17.7169L615.346 17.7493ZM536.004 35.3295C532.995 37.0082 530.431 39.4009 528.312 42.5065C526.193 45.6119 524.697 49.3518 523.825 53.7257C523.002 57.8939 523.068 61.2566 524.023 63.8121L524.219 64.273C525.235 66.5379 526.809 68.1869 528.939 69.2203C531.262 70.3218 533.989 70.8544 537.12 70.8171C539.686 70.7865 541.967 70.4258 543.961 69.7346C545.354 69.2283 546.71 68.5673 548.027 67.7521C548.796 67.2764 549.838 67.8118 549.829 68.716L549.828 68.7791C549.822 69.3914 550.32 69.8889 550.932 69.8818L557.862 69.7994C558.378 69.7931 558.819 69.4265 558.919 68.9204L565.749 34.5212C565.884 33.8409 565.358 33.2083 564.665 33.2166L556.383 33.3162C555.938 33.3216 555.56 33.6413 555.48 34.0792C555.351 34.7949 554.477 35.0979 553.876 34.688C552.96 34.0635 552.001 33.6013 550.996 33.3027C549.502 32.8585 547.729 32.6491 545.676 32.6735C542.237 32.7145 539.012 33.5996 536.004 35.3295ZM534.374 53.5998C536.168 44.7998 540.325 40.3614 546.844 40.2836C549.542 40.2514 551.686 41.1754 553.276 43.0557C553.477 43.2931 553.547 43.6113 553.487 43.9162L550.462 59.3427C550.414 59.5891 550.282 59.8122 550.086 59.9685C547.472 62.0462 544.609 63.1043 541.495 63.1415C538.21 63.1807 535.995 62.5394 534.85 61.2184C533.824 59.9793 533.621 57.6698 534.239 54.2904L534.374 53.5998ZM559.414 26.5717C559.332 26.5163 559.25 26.4635 559.168 26.4112C559.249 26.4653 559.333 26.5166 559.414 26.5717ZM486.265 35.6921C483.254 37.2682 480.893 39.4787 479.182 42.3227C477.47 45.1667 476.227 48.5444 475.452 52.4553C474.63 56.726 474.802 60.2918 475.965 63.1528C477.179 65.9619 479.181 68.0428 481.969 69.3957C484.809 70.7478 488.205 71.4007 492.157 71.3535C494.826 71.3217 497.339 71.0857 499.696 70.6469C501.828 70.2963 503.748 69.7803 505.457 69.0986C505.75 68.9817 505.969 68.7389 506.066 68.4432L506.1 68.3133L507.063 63.3972C507.227 62.5566 506.398 61.849 505.575 62.088C504.49 62.4033 503.295 62.6801 501.99 62.9188C499.89 63.3033 497.865 63.5078 495.915 63.5311C491.449 63.5844 488.388 63.0815 486.732 62.0232C485.332 61.099 484.549 59.4635 484.384 57.1171C484.342 56.5233 484.828 56.0396 485.424 56.0325L509.874 55.7408C510.391 55.7344 510.832 55.367 510.932 54.8604L512.067 49.0924C513.037 44.3064 512.298 40.4645 509.85 37.5674C507.454 34.6185 503.432 33.1773 497.786 33.2447C493.166 33.2998 489.326 34.1156 486.265 35.6921ZM489.046 42.8978C490.672 41.4925 493.204 40.7688 496.643 40.7278C499.569 40.6929 501.527 41.2863 502.517 42.5066C503.506 43.6755 503.783 45.3147 503.346 47.4244L503.145 48.544C503.052 49.059 502.607 49.4357 502.083 49.4422L487.014 49.6223C486.318 49.6306 485.79 48.9921 485.974 48.3209C486.637 45.903 487.661 44.0951 489.046 42.8978ZM494.491 44.0083C494.175 44.5597 493.917 45.1509 493.725 45.7737C493.73 45.8694 493.74 45.9809 493.757 46.1071L495.434 46.0871C495.213 45.3449 494.891 44.6494 494.491 44.0083ZM447.286 34.6174C446.77 34.6236 446.329 34.9908 446.228 35.497L439.399 69.8962C439.264 70.5764 439.789 71.2076 440.483 71.1994L448.647 71.1028C449.13 71.0969 449.548 70.7743 449.681 70.3173L449.704 70.2239L454.514 46.0585C454.579 45.7323 454.789 45.4514 455.088 45.3069C456.112 44.8128 457.309 44.3366 458.679 43.8768C460.315 43.3439 461.978 42.8616 463.667 42.4307C465.107 42.0739 466.442 41.7887 467.672 41.5747C468.126 41.4959 468.487 41.1482 468.575 40.696L469.662 35.0774C469.796 34.3879 469.256 33.7678 468.581 33.8058L468.445 33.8224C466.502 34.1826 464.496 34.7211 462.428 35.438C460.639 36.034 459.014 36.6781 457.553 37.3707C456.771 37.7419 455.842 37.1461 455.902 36.2819L455.944 35.6947C455.985 35.0981 455.54 34.5881 454.959 34.5328L454.841 34.5268L447.286 34.6174ZM282.001 26.9382C282.91 23.141 285.786 20.107 289.551 19.0049L298.164 16.4846C305.392 14.3695 312.311 19.9932 312.15 27.1557C312.952 27.4597 313.706 27.8544 314.4 28.3271L316.143 19.6072L316.247 19.1369C317.39 14.4806 321.449 11.1112 326.237 10.8447L326.718 10.8283L334.88 10.7316C341.822 10.649 347.077 16.9816 345.715 23.7889L345.425 25.24C345.523 25.2381 345.621 25.2349 345.719 25.2337C351.621 25.1633 358.37 26.6109 362.939 32.157L362.941 32.1557C362.973 32.1942 363.003 32.2341 363.035 32.2727C363.053 32.295 363.072 32.3167 363.09 32.3392L363.089 32.3404C364.102 33.5766 364.894 34.8812 365.501 36.2276C367.799 33.1467 370.678 30.6327 374.053 28.7231L374.899 28.2628L374.928 28.2478L374.958 28.2322C379.757 25.7605 385.213 24.7619 390.861 24.6945C397.949 24.6099 405.48 26.3841 410.547 32.5022L410.549 32.5009C410.572 32.5292 410.595 32.5586 410.619 32.587C410.635 32.6065 410.652 32.6253 410.668 32.6449L410.666 32.6462C415.466 38.429 416.251 45.5265 414.898 52.2636L414.9 52.2638L413.765 58.0326C413.273 60.5298 411.95 62.6869 410.119 64.2423C410.123 64.9904 410.053 65.7646 409.897 66.5605L408.934 71.4773C408.251 74.961 405.858 78.075 402.291 79.4988C399.82 80.485 397.197 81.1711 394.482 81.6175C391.576 82.1455 388.565 82.4154 385.467 82.4524C380.389 82.513 375.434 81.6825 370.936 79.5409L370.905 79.5257L370.872 79.5104C367.36 77.8065 364.461 75.3481 362.306 72.2386L362.097 73.2932C361.094 78.357 356.68 82.0252 351.518 82.0868L343.357 82.1852C339.512 82.2311 336.187 80.3069 334.215 77.4258C332.273 80.4173 328.926 82.3575 325.186 82.4021L317.025 82.4991C314.14 82.5335 311.547 81.458 309.599 79.7025C308.612 80.5478 307.456 81.2318 306.151 81.6919C302.642 82.9296 298.918 83.4852 295.106 83.5306C289.484 83.5977 282.914 82.1229 278.592 76.4567C274.585 71.2044 274.335 64.9437 275.436 59.5416L277.085 51.3415C274.525 48.8721 273.184 45.1838 273.949 41.343L275.111 35.5042L275.215 35.0339C276.08 31.502 278.623 28.7107 281.889 27.4501L281.919 27.3089L282.001 26.9382ZM379.457 36.9672C376.447 38.5432 374.085 40.7529 372.373 43.5969C370.662 46.4409 369.419 49.8186 368.644 53.7295C367.822 58.0002 367.993 61.5661 369.157 64.427C370.371 67.236 372.373 69.317 375.161 70.6699C378.001 72.0221 381.397 72.6749 385.349 72.6278C388.018 72.5959 390.532 72.3608 392.888 71.922C395.021 71.5714 396.941 71.0554 398.649 70.3737C398.942 70.2568 399.161 70.0133 399.258 69.7175L399.292 69.5876L400.255 64.6714C400.419 63.8311 399.591 63.1239 398.769 63.3624C397.683 63.6778 396.487 63.9552 395.183 64.194C393.083 64.5784 391.057 64.7821 389.107 64.8054C384.641 64.8586 381.58 64.3564 379.925 63.2982C378.525 62.3741 377.742 60.7385 377.576 58.3922C377.534 57.7983 378.02 57.3139 378.615 57.3067L403.066 57.015C403.583 57.0087 404.024 56.6414 404.123 56.1346L405.259 50.3666C406.229 45.5808 405.49 41.7395 403.043 38.8425C400.646 35.8935 396.624 34.4524 390.978 34.5198C386.359 34.5749 382.518 35.3907 379.457 36.9672ZM382.238 44.1721C383.864 42.7667 386.397 42.0439 389.836 42.0029C392.761 41.968 394.719 42.5606 395.709 43.7808C396.698 44.9498 396.975 46.5894 396.538 48.6995L396.337 49.8183C396.244 50.3333 395.799 50.7101 395.275 50.7164L380.206 50.8966C379.51 50.9048 378.982 50.2663 379.166 49.5951C379.829 47.1773 380.853 45.3693 382.238 44.1721ZM387.683 45.2834C387.367 45.8349 387.11 46.4259 386.918 47.0488C386.923 47.1442 386.932 47.2555 386.949 47.3813L388.625 47.3613C388.405 46.6195 388.083 45.9243 387.683 45.2834ZM326.835 20.6536C326.319 20.6597 325.878 21.0261 325.777 21.5317L315.824 71.3692C315.688 72.0498 316.213 72.6826 316.907 72.6745L325.069 72.5769C325.553 72.5711 325.971 72.2489 326.104 71.7916L326.127 71.6988L331.037 47.0116C331.085 46.7654 331.216 46.542 331.414 46.3866C332.665 45.3996 334.094 44.5648 335.7 43.881C337.437 43.1416 339.101 42.762 340.692 42.743C343.515 42.7094 345.292 43.2016 346.023 44.2195C346.805 45.237 346.954 46.981 346.47 49.451L342.156 71.0553C342.02 71.7359 342.546 72.3682 343.24 72.36L351.401 72.263C351.885 72.2572 352.303 71.9344 352.436 71.4769L352.459 71.3835L356.935 48.7872C357.856 44.2074 357.353 40.7735 355.426 38.4863C353.55 36.1471 350.354 35.0045 345.837 35.0583C343.321 35.0883 340.913 35.4766 338.612 36.2228C337.289 36.6611 336.055 37.1688 334.912 37.747C334.045 38.1854 332.964 37.4399 333.155 36.4871L336.08 21.8621C336.217 21.1814 335.691 20.5477 334.997 20.556L326.835 20.6536ZM292.311 28.4346C291.922 28.5483 291.629 28.8678 291.548 29.2645L290.254 35.6299C290.158 36.1025 289.765 36.452 289.292 36.4987L289.197 36.5035L285.805 36.544C285.289 36.5501 284.848 36.9176 284.747 37.4236L283.585 43.2623C283.449 43.9427 283.975 44.5752 284.668 44.567L287.131 44.5372C287.826 44.529 288.351 45.163 288.214 45.844L285.064 61.5032L284.932 62.2079C284.348 65.6832 284.839 68.4464 286.403 70.4973C288.072 72.6848 290.934 73.7546 294.99 73.7062C297.933 73.6711 300.564 73.2442 302.883 72.4262C303.189 72.3181 303.422 72.0724 303.525 71.7687L303.561 71.6346L304.529 66.8562C304.694 66.0409 303.92 65.3437 303.107 65.5213C302.211 65.7171 301.363 65.829 300.565 65.8579L300.286 65.8657C298.079 65.892 296.638 65.5491 295.962 64.8385C295.337 64.0759 295.217 62.6915 295.604 60.6847L298.701 45.2634C298.803 44.7585 299.243 44.393 299.757 44.3866L306.677 44.3041C307.163 44.2984 307.587 43.9715 307.716 43.5026L309.327 37.658C309.507 37.0013 309.052 36.3539 308.395 36.2828L308.261 36.2768L301.819 36.3537C301.126 36.3617 300.6 35.7292 300.735 35.049L302.302 27.1752C302.452 26.4215 301.801 25.7699 301.071 25.881L300.924 25.9142L292.311 28.4346ZM306.531 56.1737C307.268 56.3986 307.983 56.6966 308.661 57.0631L309.313 53.8015C308.548 53.9928 307.754 54.1031 306.942 54.1237L306.531 56.1737ZM18.1365 38.1014C19.278 33.4426 23.3373 30.0708 28.1264 29.8038L28.6076 29.7874L35.5935 29.7045C36.989 29.6879 38.3233 29.9359 39.5528 30.3968C42.6972 29.3043 45.9993 28.8097 49.3497 28.7697C56.3711 28.6859 63.4358 30.7695 68.2956 36.7924L68.2973 36.7911C68.3068 36.8027 68.3157 36.8147 68.3251 36.8263C68.3371 36.8412 68.3494 36.856 68.3614 36.871L68.3597 36.8723C69.6362 38.4532 70.5964 40.1554 71.2967 41.9347C74.126 37.9017 77.6619 34.5788 81.93 32.1743L81.9302 32.1728C81.9575 32.1571 81.9856 32.1423 82.0129 32.1267C82.0226 32.1212 82.0321 32.1156 82.0418 32.1102C86.4624 29.5918 91.2908 28.2689 96.3827 28.2081C99.0823 28.1759 101.838 28.4385 104.482 29.2057C105.169 29.0251 105.881 28.9085 106.61 28.8674L107.091 28.8517L115.373 28.752C118.292 28.7172 120.911 29.8212 122.867 31.6146C123.906 30.6181 125.138 29.8292 126.495 29.3051L126.526 29.1625C127.307 25.3173 130.089 22.1973 133.796 20.9717L134.158 20.8593L142.771 18.339C149.999 16.224 156.918 21.8475 156.757 29.0101C159.632 30.0998 161.885 32.363 163.012 35.1477C163.436 34.7792 163.872 34.4199 164.322 34.0723C170.554 29.2614 178.199 27.2322 186.399 27.1343C189.346 27.0992 192.197 27.2659 194.801 27.7644C197.06 28.1882 199.25 28.8652 201.349 29.8038C202.046 30.1158 202.689 30.4917 203.279 30.9161L205.274 20.9293L205.379 20.4599C206.561 15.6485 210.855 12.2118 215.849 12.152L224.011 12.0544C230.953 11.9715 236.209 18.3049 234.847 25.1126L234.556 26.5622C234.654 26.5602 234.753 26.5579 234.851 26.5567C240.753 26.4863 247.502 27.9345 252.07 33.4807L252.073 33.4788C252.107 33.5196 252.139 33.5624 252.173 33.6034C252.189 33.6231 252.207 33.6423 252.223 33.6622L252.221 33.6634C256.796 39.2436 256.861 46.2366 255.703 52.0189L255.705 52.0191L251.228 74.6154C250.225 79.6794 245.812 83.3488 240.65 83.4104L232.488 83.5074C228.643 83.5532 225.318 81.6294 223.346 78.748C221.404 81.7397 218.059 83.6804 214.318 83.7251L206.156 83.8219C202.778 83.862 199.801 82.3814 197.79 80.0679C196.831 80.9223 195.706 81.6199 194.442 82.1026C189.541 83.9745 184.246 84.8529 178.695 84.9192C173.604 84.9799 168.626 84.1012 164.123 81.8343L164.091 81.8175L164.056 81.8005C161.5 80.4889 159.284 78.776 157.459 76.704C156.446 79.7569 154.079 82.3749 150.758 83.5463C147.249 84.784 143.525 85.3395 139.713 85.385C134.091 85.4521 127.521 83.9772 123.198 78.3111C121.72 76.3737 120.754 74.2988 120.177 72.1808L119.382 76.1939C118.376 81.2555 113.964 84.9221 108.804 84.9839L101.874 85.0663C100.497 85.0827 99.1777 84.8419 97.9601 84.3918C94.7925 85.4837 91.4487 85.9612 88.0621 86.0016C83.7559 86.053 79.4907 85.3255 75.5536 83.4586L75.5137 83.4392L75.0443 83.2053C71.0505 81.1496 68.1081 77.9529 66.2604 74.0479C64.9686 75.9652 63.4636 77.7248 61.7138 79.2835C56.0495 84.3288 48.9274 86.4684 41.3381 86.559C40.5202 86.5688 39.701 86.5502 38.8839 86.5023L37.4369 93.8023C36.4328 98.8652 32.0204 102.534 26.8591 102.595L18.6972 102.693C11.759 102.776 6.50511 96.4486 7.86039 89.6436L18.032 38.5708L18.1365 38.1014ZM215.967 21.9766C215.452 21.9827 215.01 22.349 214.909 22.8547L204.955 72.692C204.819 73.3726 205.345 74.0057 206.039 73.9974L214.201 73.8999C214.684 73.894 215.102 73.5721 215.236 73.1152L215.259 73.0218L220.169 48.3346C220.218 48.0883 220.349 47.865 220.546 47.7096C221.797 46.7227 223.226 45.8869 224.832 45.2031C226.568 44.4638 228.232 44.0856 229.823 44.0666C232.647 44.033 234.424 44.5245 235.155 45.5425C235.937 46.56 236.086 48.3041 235.602 50.774L231.288 72.3775C231.152 73.0581 231.677 73.6917 232.371 73.6836L240.533 73.586C241.017 73.5801 241.435 73.2573 241.568 72.7999L241.591 72.7065L246.067 50.1102C246.988 45.5301 246.485 42.0956 244.558 39.8084C242.682 37.4694 239.485 36.3266 234.968 36.3805C232.453 36.4105 230.044 36.7987 227.743 37.5449C226.42 37.9832 225.188 38.4919 224.044 39.07C223.177 39.5084 222.096 38.7635 222.286 37.8108L225.213 23.1851C225.34 22.5469 224.886 21.9494 224.257 21.8842L224.129 21.879L215.967 21.9766ZM170.326 41.8493C166.206 45.0301 163.517 49.8372 162.259 56.2694L162.115 57.0432C161.457 60.871 161.649 64.1024 162.691 66.7369C163.854 69.5466 165.805 71.6539 168.542 73.0587C171.331 74.4628 174.676 75.142 178.577 75.0954C183.171 75.0406 187.291 74.3165 190.938 72.9237C191.281 72.7924 191.529 72.4905 191.6 72.1297L192.6 67.0681C192.761 66.2518 191.989 65.5729 191.202 65.7342L191.045 65.7775C190.214 66.0704 189.362 66.3185 188.493 66.5255L187.871 66.6674C186.079 67.0481 184.285 67.2497 182.488 67.2711C177.817 67.3269 174.829 66.4638 173.524 64.6825C172.271 62.9006 172.032 60.0543 172.807 56.1435C173.629 51.8726 175.236 48.927 177.63 47.307C180.023 45.6358 183.169 44.7768 187.07 44.7302C189.021 44.7069 190.795 44.8659 192.39 45.2063L193.16 45.3784C193.911 45.5615 194.603 45.7753 195.237 46.0189C195.917 46.2802 196.711 45.9032 196.856 45.1892L197.926 39.9509C198.013 39.5279 197.841 39.098 197.496 38.8621L197.337 38.7734C195.959 38.1573 194.511 37.7063 192.991 37.421C191.241 37.0826 189.082 36.929 186.516 36.9596C179.843 37.0392 174.446 38.6687 170.326 41.8493ZM183.253 55.4381C183.083 55.7496 182.817 56.3723 182.572 57.4416C183.643 57.4162 184.727 57.2912 185.83 57.0569C186.509 56.9125 187.159 56.7296 187.78 56.5108C191.221 55.2987 195.008 55.9797 197.874 57.9758L198.354 55.5716C196.137 56.1075 193.786 55.9869 191.711 55.189C191.45 55.0886 191.028 54.9575 190.405 54.829L190.372 54.8214L190.341 54.8146C189.58 54.6523 188.547 54.5386 187.188 54.5548C184.77 54.5836 183.706 55.0762 183.324 55.318C183.306 55.3479 183.281 55.387 183.253 55.4381ZM136.918 30.289C136.529 30.4027 136.234 30.7226 136.154 31.1196L134.861 37.4834C134.765 37.9559 134.372 38.3062 133.899 38.3531L133.804 38.3579L130.411 38.399C129.895 38.4053 129.454 38.7713 129.353 39.2771L128.191 45.1159C128.055 45.7963 128.581 46.4286 129.275 46.4205L131.738 46.3916C132.432 46.3836 132.957 47.0175 132.821 47.6984L129.67 63.3582L129.539 64.0622C128.955 67.5376 129.446 70.3008 131.01 72.3517C132.679 74.539 135.541 75.6082 139.596 75.5598C142.539 75.5246 145.17 75.0987 147.49 74.2806C147.84 74.157 148.093 73.853 148.167 73.4887L149.135 68.7105C149.29 67.9463 148.62 67.2856 147.866 67.3522L147.714 67.3756C146.818 67.5715 145.97 67.6833 145.172 67.7123L144.893 67.7192C142.686 67.7456 141.244 67.404 140.568 66.6935C139.943 65.9309 139.824 64.5458 140.21 62.5391L143.307 47.1175C143.408 46.6125 143.849 46.2472 144.364 46.2409L151.284 46.1585C151.71 46.1534 152.087 45.902 152.261 45.5249L152.323 45.357L153.933 39.5124C154.114 38.8558 153.658 38.2085 153.002 38.1372L152.868 38.1312L146.426 38.2081C145.732 38.2163 145.207 37.5837 145.342 36.9034L146.908 29.0288C147.058 28.275 146.407 27.6245 145.677 27.736L145.531 27.7686L136.918 30.289ZM151.137 58.0272C151.443 58.1204 151.744 58.2266 152.041 58.3448C152.114 57.5371 152.217 56.7316 152.344 55.93C152.081 55.9558 151.816 55.9713 151.549 55.9781L151.137 58.0272ZM86.8289 40.6902C83.8201 42.3689 81.2556 44.7603 79.1365 47.8657C77.0174 50.9713 75.5219 54.7123 74.6501 59.0865C73.8272 63.2544 73.8932 66.6159 74.8477 69.1713L75.0436 69.6323C76.0602 71.8973 77.6332 73.5467 79.7632 74.5802C82.0865 75.6818 84.8139 76.2137 87.945 76.1764C90.5115 76.1457 92.7921 75.785 94.7861 75.0938C96.179 74.5876 97.5345 73.9265 98.8523 73.1114C99.6214 72.6359 100.663 73.1725 100.653 74.0767L100.653 74.1383C100.646 74.7509 101.145 75.2492 101.757 75.2419L108.686 75.1593C109.17 75.1535 109.588 74.8306 109.721 74.3731L109.744 74.2797L116.574 39.8804C116.7 39.2427 116.246 38.6474 115.618 38.5825L115.491 38.5767L107.208 38.6755C106.763 38.6808 106.384 39.0011 106.304 39.4391C106.175 40.1545 105.302 40.4575 104.701 40.0481C103.786 39.4235 102.825 38.9621 101.821 38.6634C100.327 38.2192 98.553 38.0089 96.4998 38.0334C93.0607 38.0744 89.8372 38.9602 86.8289 40.6902ZM85.1983 58.9605C86.9928 50.1603 91.1502 45.7206 97.6692 45.6428C100.367 45.6107 102.511 46.5348 104.101 48.415C104.302 48.6523 104.372 48.9714 104.312 49.2763L101.287 64.7019C101.239 64.9484 101.107 65.1729 100.91 65.3293C98.2971 67.4067 95.4335 68.4636 92.3201 68.5007C89.0349 68.5399 86.8198 67.8988 85.6746 66.5777C84.6492 65.3385 84.445 63.0295 85.0634 59.6503L85.1983 58.9605ZM110.238 31.9316C110.143 31.8669 110.047 31.8044 109.951 31.7441C110.047 31.8069 110.143 31.8673 110.238 31.9316ZM28.7256 39.6121C28.2099 39.6182 27.7687 39.9844 27.6679 40.4901L17.4963 91.5629C17.3608 92.2434 17.8862 92.8758 18.58 92.8675L26.742 92.7699C27.2258 92.7642 27.6443 92.4421 27.7775 91.9846L27.7997 91.8919L30.999 75.7593C31.1547 74.9767 32.0783 74.6133 32.7834 74.9871C35.0557 76.1917 37.8678 76.7743 41.2201 76.7344C47.0203 76.6652 51.6734 75.0694 55.1784 71.9475C58.5739 68.9229 60.9391 64.2725 62.2723 57.9963L62.3978 57.3845C63.7053 50.7976 63.1343 46.004 60.6856 43.0042C58.2883 40.004 54.5492 38.5338 49.4677 38.5943C46.9013 38.6249 44.5954 39.0121 42.5508 39.7552C41.1885 40.2503 39.8731 40.8821 38.6052 41.6497C37.8264 42.1208 36.7813 41.5631 36.8116 40.6534C36.8324 40.0335 36.331 39.5211 35.7108 39.5283L28.7256 39.6121ZM36.5004 49.4442C39.1123 47.3658 41.9506 46.3086 45.0154 46.272C48.5573 46.2297 50.7754 47.1014 51.6695 48.8876L51.8364 49.2249C52.6214 50.9782 52.6511 53.6885 51.9248 57.3551L51.763 58.105C50.9226 61.7875 49.5741 64.5059 47.7182 66.2606C45.7383 68.1324 43.2084 69.087 40.1285 69.1238C38.3834 69.1446 36.9429 68.9044 35.8076 68.4046C34.9095 67.99 34.0805 67.4689 33.3208 66.8412C33.027 66.5984 32.9036 66.2094 32.9782 65.8356L36.1253 50.0664C36.1742 49.8215 36.305 49.5998 36.5004 49.4442Z" fill="#7E00C6"/>
<path d="M436.695 33.1133C437.835 28.4515 441.896 25.0763 446.687 24.8092L447.169 24.7936L454.724 24.703C456.589 24.6807 458.342 25.1289 459.881 25.9288C462.142 25.1759 464.401 24.5798 466.654 24.1621C471.565 23.2519 475.812 25.6453 477.977 29.3216C478.893 28.6452 479.854 28.0187 480.861 27.4489L481.707 26.9877L481.736 26.9728L481.766 26.958C486.565 24.4863 492.021 23.4877 497.669 23.4203C504.757 23.3357 512.288 25.1097 517.355 31.228L517.357 31.2267C517.38 31.2547 517.403 31.2838 517.426 31.3119C517.442 31.3316 517.46 31.3509 517.476 31.3707L517.474 31.3719C518.8 32.9692 519.821 34.6656 520.573 36.4285C523.385 32.4609 526.888 29.1891 531.105 26.8136C531.116 26.8071 531.129 26.8006 531.14 26.7941C531.166 26.7797 531.191 26.7639 531.217 26.7495L531.217 26.751C535.637 24.2328 540.466 22.9097 545.558 22.8489C548.257 22.8167 551.013 23.0786 553.657 23.8456C554.344 23.665 555.056 23.5493 555.785 23.5082L556.266 23.491L564.548 23.3922C567.918 23.3521 570.887 24.8265 572.897 27.1302L575.024 16.5126L575.129 16.0431C576.274 11.389 580.332 8.02241 585.117 7.75605L585.599 7.73967L593.76 7.64271C599.308 7.57651 603.777 11.6082 604.654 16.7044C605.631 11.8085 609.798 8.21804 614.746 7.94171L615.229 7.92555L624.318 7.81677C630.17 7.74698 634.825 12.2382 635.323 17.734C636.535 16.4729 638.051 15.5004 639.765 14.9338L640.127 14.8221L648.74 12.3017C655.968 10.1866 662.887 15.8097 662.726 22.9722C664.099 23.4927 665.33 24.2808 666.365 25.2659C668.217 23.4235 670.716 22.2552 673.454 22.1027L673.936 22.0872L682.099 21.9898C685.943 21.944 689.268 23.8671 691.24 26.7475C693.099 23.8854 696.243 21.9864 699.788 21.7891L700.269 21.7727L708.432 21.6753C715.367 21.5928 720.62 27.9142 719.27 34.7171L716.021 51.0886C717.132 50.6285 718.332 50.346 719.581 50.2763L720.064 50.2601L726.304 50.1858C733.226 50.1034 738.476 56.4022 737.148 63.1964L736.051 68.804C735.059 73.8804 730.64 77.5632 725.468 77.6251L719.228 77.6994C715.802 77.7402 712.787 76.2177 710.775 73.8462C709.879 75.9012 708.754 77.8534 707.395 79.6854L707.396 79.6856C707.387 79.6983 707.377 79.7107 707.367 79.7234C707.357 79.7374 707.347 79.7522 707.337 79.7663L707.335 79.766C704.25 83.9473 700.038 86.8442 695.307 88.7457C690.287 90.8383 684.393 91.6686 678.117 91.7434C676.972 91.7571 675.682 91.7049 674.318 91.6145C672.936 91.5675 671.555 91.4688 670.177 91.3167C669.459 91.2598 668.759 91.1917 668.091 91.1043C661.453 90.2363 657.711 83.9501 658.871 78.1812L659.266 76.2172C658.499 76.7446 657.65 77.1834 656.726 77.5091C653.218 78.7467 649.494 79.3016 645.682 79.3472C640.06 79.4142 633.49 77.94 629.167 72.2739C627.647 70.2813 626.668 68.1432 626.098 65.9623L625.265 70.1576C624.26 75.2192 619.848 78.8859 614.688 78.9476L606.525 79.0443C603.344 79.0823 600.518 77.7709 598.52 75.6854C597.333 76.9474 595.824 77.9498 594.048 78.54C590.972 79.5622 587.763 80.0385 584.5 80.0775C579.801 80.1336 573.665 79.0368 569.57 73.8385C569.078 73.2148 568.65 72.5739 568.279 71.9222C566.898 76.4128 562.761 79.5667 557.979 79.6238L551.05 79.7064C549.672 79.7229 548.352 79.4821 547.135 79.0318C543.967 80.1234 540.624 80.6013 537.238 80.6417C532.932 80.6931 528.666 79.9648 524.729 78.0978L524.69 78.0793L524.65 78.06C520.741 76.1634 517.801 73.1996 515.868 69.5517L515.741 70.2022C515.059 73.6861 512.667 76.8007 509.099 78.2246C506.69 79.186 504.136 79.8589 501.494 80.3059C498.525 80.8588 495.445 81.1403 492.275 81.1781C487.197 81.2387 482.242 80.4082 477.745 78.2666L477.713 78.2507L477.68 78.2353C472.804 75.8695 469.108 72.0509 466.947 67.0517L466.903 66.9534L466.863 66.8541C464.942 62.1292 464.781 57.0398 465.547 52.0952C464.756 52.3036 463.973 52.525 463.198 52.7584L459.34 72.1418C458.333 77.2012 453.922 80.8657 448.763 80.9272L440.6 81.0246C433.665 81.1073 428.412 74.7859 429.762 67.9829L436.592 33.5836L436.695 33.1133ZM722.123 58.5893C720.302 59.3108 718.768 60.6282 717.783 62.3261C717.893 63.109 718.11 63.862 718.418 64.5699L718.027 66.574C717.894 67.2534 718.419 67.8838 719.111 67.8756L720.897 67.8545C721.639 68.4648 722.485 68.955 723.408 69.2957C725.229 68.5743 726.762 67.257 727.748 65.5589C727.637 64.7764 727.42 64.0242 727.113 63.3166L727.505 61.3112C727.638 60.6318 727.113 60.0019 726.42 60.0102L724.633 60.0321C723.891 59.4216 723.046 58.93 722.123 58.5893ZM674.052 31.9116C673.537 31.9178 673.096 32.284 672.995 32.7897L668.59 54.848L668.489 55.3841C668.025 58.0427 668.166 60.3782 668.912 62.3906L669.066 62.7879C669.875 64.7455 671.153 66.2908 672.899 67.4251C674.761 68.5837 676.975 69.1477 679.541 69.1171C682.416 69.0828 684.953 68.6678 687.151 67.8715C688.6 67.325 689.952 66.6939 691.207 65.979C691.954 65.5542 692.92 66.1906 692.762 67.0351C692.228 69.608 690.607 71.4242 687.899 72.4832C685.19 73.5423 681.859 74.095 677.907 74.1421C676.778 74.1556 675.416 74.0692 673.822 73.8828C672.772 73.7938 671.845 73.6697 671.039 73.5108C670.413 73.3876 669.78 73.7724 669.654 74.3974L668.503 80.1183C668.384 80.7091 668.768 81.2845 669.365 81.3626C669.884 81.4305 670.477 81.4897 671.142 81.5395C672.375 81.6788 673.609 81.7663 674.841 81.8029C676.126 81.8903 677.179 81.9288 678 81.919C683.595 81.8522 688.104 81.1048 691.527 79.6778C695.001 78.3016 697.648 76.3708 699.466 73.885C701.172 71.6026 702.355 69.0107 703.015 66.1091L703.14 65.5245L709.633 32.8037C709.768 32.1236 709.242 31.4915 708.549 31.4998L700.385 31.5971C699.87 31.6034 699.429 31.9702 699.328 32.4761L694.416 57.1744C694.368 57.4135 694.243 57.6318 694.054 57.7864C692.85 58.7732 691.469 59.6086 689.91 60.2922C688.224 61.031 686.482 61.4109 684.686 61.4324C681.863 61.466 680.086 60.9481 679.355 59.8789C678.674 58.7576 678.575 56.9621 679.059 54.4922L683.3 33.1182C683.427 32.4804 682.973 31.8853 682.344 31.8203L682.217 31.8136L674.052 31.9116ZM642.886 24.2517C642.498 24.3655 642.204 24.6848 642.123 25.0817L640.829 31.4462C640.727 31.9501 640.287 32.3145 639.773 32.3206L636.38 32.3611C635.865 32.3673 635.423 32.7335 635.323 33.2392L634.159 39.0786C634.024 39.7589 634.55 40.3911 635.243 40.3832L637.706 40.3544C638.401 40.3461 638.926 40.9796 638.79 41.6605L635.639 57.3203C634.863 61.1286 635.31 64.1268 636.979 66.3144C638.648 68.5017 641.509 69.5708 645.564 69.5225C648.507 69.4874 651.139 69.0613 653.458 68.2434C653.765 68.1351 653.998 67.8885 654.1 67.5844L654.136 67.4508L655.104 62.6733C655.259 61.9088 654.589 61.248 653.834 61.3149L653.683 61.3384C652.681 61.5571 651.741 61.6715 650.861 61.682C648.654 61.7083 647.213 61.3661 646.537 60.6556C645.912 59.8931 645.792 58.5084 646.179 56.5019L649.276 41.0796C649.378 40.5747 649.819 40.2092 650.334 40.203L657.252 40.1213C657.678 40.1162 658.055 39.8646 658.23 39.4876L658.292 39.3198L659.903 33.4745C660.083 32.8179 659.627 32.171 658.97 32.0999L658.837 32.0933L652.395 32.1702C651.702 32.1784 651.176 31.546 651.312 30.8656L652.876 22.9915C653.026 22.2377 652.376 21.587 651.646 21.6981L651.499 21.7314L642.886 24.2517ZM657.106 51.9893C657.755 52.187 658.385 52.4423 658.989 52.7501L659.6 49.6883C658.925 49.8377 658.228 49.9221 657.518 49.9402L657.106 51.9893ZM605.79 38.9929C605.565 39.7019 606.1 40.4233 606.844 40.4144L609.454 40.3834C610.148 40.3751 610.673 41.0076 610.538 41.688L605.324 67.9159C605.189 68.5963 605.714 69.2288 606.408 69.2206L614.571 69.1223C615.087 69.1161 615.527 68.7495 615.628 68.2434L622.457 33.8442C622.592 33.164 622.068 32.5322 621.374 32.5404L608.572 32.6928C608.101 32.6986 607.686 33.0059 607.544 33.4548L605.79 38.9929ZM585.715 17.5641C585.2 17.5704 584.759 17.9363 584.658 18.4415L576.328 60.0303C574.922 66.9261 577.606 70.3336 584.382 70.2529C586.766 70.2245 588.956 69.8787 590.949 69.2162C591.266 69.1107 591.506 68.8586 591.61 68.546L591.645 68.4087L592.556 63.6619C592.713 62.8432 591.922 62.139 591.099 62.2663C590.647 62.336 590.182 62.3824 589.702 62.4042L589.217 62.4178C588.088 62.4313 587.341 62.2087 586.976 61.7511C586.662 61.2416 586.625 60.3439 586.867 59.0579L594.96 18.7741C595.089 18.1357 594.635 17.538 594.006 17.4725L593.877 17.4665L585.715 17.5641ZM597.792 54.5587C597.842 54.5929 597.891 54.6277 597.94 54.6626L599.4 47.322C599.356 47.2814 599.313 47.2406 599.27 47.1993L597.792 54.5587ZM615.346 17.7493C614.829 17.7556 614.387 18.1243 614.288 18.6319L613.119 24.625C612.986 25.3043 613.511 25.9349 614.203 25.9267L623.292 25.8179C623.809 25.8118 624.251 25.4431 624.35 24.9354L625.52 18.9415C625.644 18.3048 625.19 17.712 624.563 17.6472L624.435 17.6414L619.232 17.7033C619.043 17.5689 618.847 17.4422 618.647 17.3228C618.449 17.4467 618.257 17.578 618.07 17.7169L615.346 17.7493ZM536.004 35.3295C532.995 37.0082 530.431 39.4009 528.312 42.5065C526.193 45.6119 524.697 49.3518 523.825 53.7257C523.002 57.8939 523.068 61.2566 524.023 63.8121L524.219 64.273C525.235 66.5379 526.809 68.1869 528.939 69.2203C531.262 70.3218 533.989 70.8544 537.12 70.8171C539.686 70.7865 541.967 70.4258 543.961 69.7346C545.354 69.2283 546.71 68.5673 548.027 67.7521C548.796 67.2764 549.838 67.8118 549.829 68.716L549.828 68.7791C549.822 69.3914 550.32 69.8889 550.932 69.8818L557.862 69.7994C558.378 69.7931 558.819 69.4265 558.919 68.9204L565.749 34.5212C565.884 33.8409 565.358 33.2083 564.665 33.2166L556.383 33.3162C555.938 33.3216 555.56 33.6413 555.48 34.0792C555.351 34.7949 554.477 35.0979 553.876 34.688C552.96 34.0635 552.001 33.6013 550.996 33.3027C549.502 32.8585 547.729 32.6491 545.676 32.6735C542.237 32.7145 539.012 33.5996 536.004 35.3295ZM534.374 53.5998C536.168 44.7998 540.325 40.3614 546.844 40.2836C549.542 40.2514 551.686 41.1754 553.276 43.0557C553.477 43.2931 553.547 43.6113 553.487 43.9162L550.462 59.3427C550.414 59.5891 550.282 59.8122 550.086 59.9685C547.472 62.0462 544.609 63.1043 541.495 63.1415C538.21 63.1807 535.995 62.5394 534.85 61.2184C533.824 59.9793 533.621 57.6698 534.239 54.2904L534.374 53.5998ZM559.414 26.5717C559.332 26.5163 559.25 26.4635 559.168 26.4112C559.249 26.4653 559.333 26.5166 559.414 26.5717ZM486.265 35.6921C483.254 37.2682 480.893 39.4787 479.182 42.3227C477.47 45.1667 476.227 48.5444 475.452 52.4553C474.63 56.726 474.802 60.2918 475.965 63.1528C477.179 65.9619 479.181 68.0428 481.969 69.3957C484.809 70.7478 488.205 71.4007 492.157 71.3535C494.826 71.3217 497.339 71.0857 499.696 70.6469C501.828 70.2963 503.748 69.7803 505.457 69.0986C505.75 68.9817 505.969 68.7389 506.066 68.4432L506.1 68.3133L507.063 63.3972C507.227 62.5566 506.398 61.849 505.575 62.088C504.49 62.4033 503.295 62.6801 501.99 62.9188C499.89 63.3033 497.865 63.5078 495.915 63.5311C491.449 63.5844 488.388 63.0815 486.732 62.0232C485.332 61.099 484.549 59.4635 484.384 57.1171C484.342 56.5233 484.828 56.0396 485.424 56.0325L509.874 55.7408C510.391 55.7344 510.832 55.367 510.932 54.8604L512.067 49.0924C513.037 44.3064 512.298 40.4645 509.85 37.5674C507.454 34.6185 503.432 33.1773 497.786 33.2447C493.166 33.2998 489.326 34.1156 486.265 35.6921ZM489.046 42.8978C490.672 41.4925 493.204 40.7688 496.643 40.7278C499.569 40.6929 501.527 41.2863 502.517 42.5066C503.506 43.6755 503.783 45.3147 503.346 47.4244L503.145 48.544C503.052 49.059 502.607 49.4357 502.083 49.4422L487.014 49.6223C486.318 49.6306 485.79 48.9921 485.974 48.3209C486.637 45.903 487.661 44.0951 489.046 42.8978ZM494.491 44.0083C494.175 44.5597 493.917 45.1509 493.725 45.7737C493.73 45.8694 493.74 45.9809 493.757 46.1071L495.434 46.0871C495.213 45.3449 494.891 44.6494 494.491 44.0083ZM447.286 34.6174C446.77 34.6236 446.329 34.9908 446.228 35.497L439.399 69.8962C439.264 70.5764 439.789 71.2076 440.483 71.1994L448.647 71.1028C449.13 71.0969 449.548 70.7743 449.681 70.3173L449.704 70.2239L454.514 46.0585C454.579 45.7323 454.789 45.4514 455.088 45.3069C456.112 44.8128 457.309 44.3366 458.679 43.8768C460.315 43.3439 461.978 42.8616 463.667 42.4307C465.107 42.0739 466.442 41.7887 467.672 41.5747C468.126 41.4959 468.487 41.1482 468.575 40.696L469.662 35.0774C469.796 34.3879 469.256 33.7678 468.581 33.8058L468.445 33.8224C466.502 34.1826 464.496 34.7211 462.428 35.438C460.639 36.034 459.014 36.6781 457.553 37.3707C456.771 37.7419 455.842 37.1461 455.902 36.2819L455.944 35.6947C455.985 35.0981 455.54 34.5881 454.959 34.5328L454.841 34.5268L447.286 34.6174ZM282.001 26.9382C282.91 23.141 285.786 20.107 289.551 19.0049L298.164 16.4846C305.392 14.3695 312.311 19.9932 312.15 27.1557C312.952 27.4597 313.706 27.8544 314.4 28.3271L316.143 19.6072L316.247 19.1369C317.39 14.4806 321.449 11.1112 326.237 10.8447L326.718 10.8283L334.88 10.7316C341.822 10.649 347.077 16.9816 345.715 23.7889L345.425 25.24C345.523 25.2381 345.621 25.2349 345.719 25.2337C351.621 25.1633 358.37 26.6109 362.939 32.157L362.941 32.1557C362.973 32.1942 363.003 32.2341 363.035 32.2727C363.053 32.295 363.072 32.3167 363.09 32.3392L363.089 32.3404C364.102 33.5766 364.894 34.8812 365.501 36.2276C367.799 33.1467 370.678 30.6327 374.053 28.7231L374.899 28.2628L374.928 28.2478L374.958 28.2322C379.757 25.7605 385.213 24.7619 390.861 24.6945C397.949 24.6099 405.48 26.3841 410.547 32.5022L410.549 32.5009C410.572 32.5292 410.595 32.5586 410.619 32.587C410.635 32.6065 410.652 32.6253 410.668 32.6449L410.666 32.6462C415.466 38.429 416.251 45.5265 414.898 52.2636L414.9 52.2638L413.765 58.0326C413.273 60.5298 411.95 62.6869 410.119 64.2423C410.123 64.9904 410.053 65.7646 409.897 66.5605L408.934 71.4773C408.251 74.961 405.858 78.075 402.291 79.4988C399.82 80.485 397.197 81.1711 394.482 81.6175C391.576 82.1455 388.565 82.4154 385.467 82.4524C380.389 82.513 375.434 81.6825 370.936 79.5409L370.905 79.5257L370.872 79.5104C367.36 77.8065 364.461 75.3481 362.306 72.2386L362.097 73.2932C361.094 78.357 356.68 82.0252 351.518 82.0868L343.357 82.1852C339.512 82.2311 336.187 80.3069 334.215 77.4258C332.273 80.4173 328.926 82.3575 325.186 82.4021L317.025 82.4991C314.14 82.5335 311.547 81.458 309.599 79.7025C308.612 80.5478 307.456 81.2318 306.151 81.6919C302.642 82.9296 298.918 83.4852 295.106 83.5306C289.484 83.5977 282.914 82.1229 278.592 76.4567C274.585 71.2044 274.335 64.9437 275.436 59.5416L277.085 51.3415C274.525 48.8721 273.184 45.1838 273.949 41.343L275.111 35.5042L275.215 35.0339C276.08 31.502 278.623 28.7107 281.889 27.4501L281.919 27.3089L282.001 26.9382ZM379.457 36.9672C376.447 38.5432 374.085 40.7529 372.373 43.5969C370.662 46.4409 369.419 49.8186 368.644 53.7295C367.822 58.0002 367.993 61.5661 369.157 64.427C370.371 67.236 372.373 69.317 375.161 70.6699C378.001 72.0221 381.397 72.6749 385.349 72.6278C388.018 72.5959 390.532 72.3608 392.888 71.922C395.021 71.5714 396.941 71.0554 398.649 70.3737C398.942 70.2568 399.161 70.0133 399.258 69.7175L399.292 69.5876L400.255 64.6714C400.419 63.8311 399.591 63.1239 398.769 63.3624C397.683 63.6778 396.487 63.9552 395.183 64.194C393.083 64.5784 391.057 64.7821 389.107 64.8054C384.641 64.8586 381.58 64.3564 379.925 63.2982C378.525 62.3741 377.742 60.7385 377.576 58.3922C377.534 57.7983 378.02 57.3139 378.615 57.3067L403.066 57.015C403.583 57.0087 404.024 56.6414 404.123 56.1346L405.259 50.3666C406.229 45.5808 405.49 41.7395 403.043 38.8425C400.646 35.8935 396.624 34.4524 390.978 34.5198C386.359 34.5749 382.518 35.3907 379.457 36.9672ZM382.238 44.1721C383.864 42.7667 386.397 42.0439 389.836 42.0029C392.761 41.968 394.719 42.5606 395.709 43.7808C396.698 44.9498 396.975 46.5894 396.538 48.6995L396.337 49.8183C396.244 50.3333 395.799 50.7101 395.275 50.7164L380.206 50.8966C379.51 50.9048 378.982 50.2663 379.166 49.5951C379.829 47.1773 380.853 45.3693 382.238 44.1721ZM387.683 45.2834C387.367 45.8349 387.11 46.4259 386.918 47.0488C386.923 47.1442 386.932 47.2555 386.949 47.3813L388.625 47.3613C388.405 46.6195 388.083 45.9243 387.683 45.2834ZM326.835 20.6536C326.319 20.6597 325.878 21.0261 325.777 21.5317L315.824 71.3692C315.688 72.0498 316.213 72.6826 316.907 72.6745L325.069 72.5769C325.553 72.5711 325.971 72.2489 326.104 71.7916L326.127 71.6988L331.037 47.0116C331.085 46.7654 331.216 46.542 331.414 46.3866C332.665 45.3996 334.094 44.5648 335.7 43.881C337.437 43.1416 339.101 42.762 340.692 42.743C343.515 42.7094 345.292 43.2016 346.023 44.2195C346.805 45.237 346.954 46.981 346.47 49.451L342.156 71.0553C342.02 71.7359 342.546 72.3682 343.24 72.36L351.401 72.263C351.885 72.2572 352.303 71.9344 352.436 71.4769L352.459 71.3835L356.935 48.7872C357.856 44.2074 357.353 40.7735 355.426 38.4863C353.55 36.1471 350.354 35.0045 345.837 35.0583C343.321 35.0883 340.913 35.4766 338.612 36.2228C337.289 36.6611 336.055 37.1688 334.912 37.747C334.045 38.1854 332.964 37.4399 333.155 36.4871L336.08 21.8621C336.217 21.1814 335.691 20.5477 334.997 20.556L326.835 20.6536ZM292.311 28.4346C291.922 28.5483 291.629 28.8678 291.548 29.2645L290.254 35.6299C290.158 36.1025 289.765 36.452 289.292 36.4987L289.197 36.5035L285.805 36.544C285.289 36.5501 284.848 36.9176 284.747 37.4236L283.585 43.2623C283.449 43.9427 283.975 44.5752 284.668 44.567L287.131 44.5372C287.826 44.529 288.351 45.163 288.214 45.844L285.064 61.5032L284.932 62.2079C284.348 65.6832 284.839 68.4464 286.403 70.4973C288.072 72.6848 290.934 73.7546 294.99 73.7062C297.933 73.6711 300.564 73.2442 302.883 72.4262C303.189 72.3181 303.422 72.0724 303.525 71.7687L303.561 71.6346L304.529 66.8562C304.694 66.0409 303.92 65.3437 303.107 65.5213C302.211 65.7171 301.363 65.829 300.565 65.8579L300.286 65.8657C298.079 65.892 296.638 65.5491 295.962 64.8385C295.337 64.0759 295.217 62.6915 295.604 60.6847L298.701 45.2634C298.803 44.7585 299.243 44.393 299.757 44.3866L306.677 44.3041C307.163 44.2984 307.587 43.9715 307.716 43.5026L309.327 37.658C309.507 37.0013 309.052 36.3539 308.395 36.2828L308.261 36.2768L301.819 36.3537C301.126 36.3617 300.6 35.7292 300.735 35.049L302.302 27.1752C302.452 26.4215 301.801 25.7699 301.071 25.881L300.924 25.9142L292.311 28.4346ZM306.531 56.1737C307.268 56.3986 307.983 56.6966 308.661 57.0631L309.313 53.8015C308.548 53.9928 307.754 54.1031 306.942 54.1237L306.531 56.1737ZM18.1365 38.1014C19.278 33.4426 23.3373 30.0708 28.1264 29.8038L28.6076 29.7874L35.5935 29.7045C36.989 29.6879 38.3233 29.9359 39.5528 30.3968C42.6972 29.3043 45.9993 28.8097 49.3497 28.7697C56.3711 28.6859 63.4358 30.7695 68.2956 36.7924L68.2973 36.7911C68.3068 36.8027 68.3157 36.8147 68.3251 36.8263C68.3371 36.8412 68.3494 36.856 68.3614 36.871L68.3597 36.8723C69.6362 38.4532 70.5964 40.1554 71.2967 41.9347C74.126 37.9017 77.6619 34.5788 81.93 32.1743L81.9302 32.1728C81.9575 32.1571 81.9856 32.1423 82.0129 32.1267C82.0226 32.1212 82.0321 32.1156 82.0418 32.1102C86.4624 29.5918 91.2908 28.2689 96.3827 28.2081C99.0823 28.1759 101.838 28.4385 104.482 29.2057C105.169 29.0251 105.881 28.9085 106.61 28.8674L107.091 28.8517L115.373 28.752C118.292 28.7172 120.911 29.8212 122.867 31.6146C123.906 30.6181 125.138 29.8292 126.495 29.3051L126.526 29.1625C127.307 25.3173 130.089 22.1973 133.796 20.9717L134.158 20.8593L142.771 18.339C149.999 16.224 156.918 21.8475 156.757 29.0101C159.632 30.0998 161.885 32.363 163.012 35.1477C163.436 34.7792 163.872 34.4199 164.322 34.0723C170.554 29.2614 178.199 27.2322 186.399 27.1343C189.346 27.0992 192.197 27.2659 194.801 27.7644C197.06 28.1882 199.25 28.8652 201.349 29.8038C202.046 30.1158 202.689 30.4917 203.279 30.9161L205.274 20.9293L205.379 20.4599C206.561 15.6485 210.855 12.2118 215.849 12.152L224.011 12.0544C230.953 11.9715 236.209 18.3049 234.847 25.1126L234.556 26.5622C234.654 26.5602 234.753 26.5579 234.851 26.5567C240.753 26.4863 247.502 27.9345 252.07 33.4807L252.073 33.4788C252.107 33.5196 252.139 33.5624 252.173 33.6034C252.189 33.6231 252.207 33.6423 252.223 33.6622L252.221 33.6634C256.796 39.2436 256.861 46.2366 255.703 52.0189L255.705 52.0191L251.228 74.6154C250.225 79.6794 245.812 83.3488 240.65 83.4104L232.488 83.5074C228.643 83.5532 225.318 81.6294 223.346 78.748C221.404 81.7397 218.059 83.6804 214.318 83.7251L206.156 83.8219C202.778 83.862 199.801 82.3814 197.79 80.0679C196.831 80.9223 195.706 81.6199 194.442 82.1026C189.541 83.9745 184.246 84.8529 178.695 84.9192C173.604 84.9799 168.626 84.1012 164.123 81.8343L164.091 81.8175L164.056 81.8005C161.5 80.4889 159.284 78.776 157.459 76.704C156.446 79.7569 154.079 82.3749 150.758 83.5463C147.249 84.784 143.525 85.3395 139.713 85.385C134.091 85.4521 127.521 83.9772 123.198 78.3111C121.72 76.3737 120.754 74.2988 120.177 72.1808L119.382 76.1939C118.376 81.2555 113.964 84.9221 108.804 84.9839L101.874 85.0663C100.497 85.0827 99.1777 84.8419 97.9601 84.3918C94.7925 85.4837 91.4487 85.9612 88.0621 86.0016C83.7559 86.053 79.4907 85.3255 75.5536 83.4586L75.5137 83.4392L75.0443 83.2053C71.0505 81.1496 68.1081 77.9529 66.2604 74.0479C64.9686 75.9652 63.4636 77.7248 61.7138 79.2835C56.0495 84.3288 48.9274 86.4684 41.3381 86.559C40.5202 86.5688 39.701 86.5502 38.8839 86.5023L37.4369 93.8023C36.4328 98.8652 32.0204 102.534 26.8591 102.595L18.6972 102.693C11.759 102.776 6.50511 96.4486 7.86039 89.6436L18.032 38.5708L18.1365 38.1014ZM215.967 21.9766C215.452 21.9827 215.01 22.349 214.909 22.8547L204.955 72.692C204.819 73.3726 205.345 74.0057 206.039 73.9974L214.201 73.8999C214.684 73.894 215.102 73.5721 215.236 73.1152L215.259 73.0218L220.169 48.3346C220.218 48.0883 220.349 47.865 220.546 47.7096C221.797 46.7227 223.226 45.8869 224.832 45.2031C226.568 44.4638 228.232 44.0856 229.823 44.0666C232.647 44.033 234.424 44.5245 235.155 45.5425C235.937 46.56 236.086 48.3041 235.602 50.774L231.288 72.3775C231.152 73.0581 231.677 73.6917 232.371 73.6836L240.533 73.586C241.017 73.5801 241.435 73.2573 241.568 72.7999L241.591 72.7065L246.067 50.1102C246.988 45.5301 246.485 42.0956 244.558 39.8084C242.682 37.4694 239.485 36.3266 234.968 36.3805C232.453 36.4105 230.044 36.7987 227.743 37.5449C226.42 37.9832 225.188 38.4919 224.044 39.07C223.177 39.5084 222.096 38.7635 222.286 37.8108L225.213 23.1851C225.34 22.5469 224.886 21.9494 224.257 21.8842L224.129 21.879L215.967 21.9766ZM170.326 41.8493C166.206 45.0301 163.517 49.8372 162.259 56.2694L162.115 57.0432C161.457 60.871 161.649 64.1024 162.691 66.7369C163.854 69.5466 165.805 71.6539 168.542 73.0587C171.331 74.4628 174.676 75.142 178.577 75.0954C183.171 75.0406 187.291 74.3165 190.938 72.9237C191.281 72.7924 191.529 72.4905 191.6 72.1297L192.6 67.0681C192.761 66.2518 191.989 65.5729 191.202 65.7342L191.045 65.7775C190.214 66.0704 189.362 66.3185 188.493 66.5255L187.871 66.6674C186.079 67.0481 184.285 67.2497 182.488 67.2711C177.817 67.3269 174.829 66.4638 173.524 64.6825C172.271 62.9006 172.032 60.0543 172.807 56.1435C173.629 51.8726 175.236 48.927 177.63 47.307C180.023 45.6358 183.169 44.7768 187.07 44.7302C189.021 44.7069 190.795 44.8659 192.39 45.2063L193.16 45.3784C193.911 45.5615 194.603 45.7753 195.237 46.0189C195.917 46.2802 196.711 45.9032 196.856 45.1892L197.926 39.9509C198.013 39.5279 197.841 39.098 197.496 38.8621L197.337 38.7734C195.959 38.1573 194.511 37.7063 192.991 37.421C191.241 37.0826 189.082 36.929 186.516 36.9596C179.843 37.0392 174.446 38.6687 170.326 41.8493ZM183.253 55.4381C183.083 55.7496 182.817 56.3723 182.572 57.4416C183.643 57.4162 184.727 57.2912 185.83 57.0569C186.509 56.9125 187.159 56.7296 187.78 56.5108C191.221 55.2987 195.008 55.9797 197.874 57.9758L198.354 55.5716C196.137 56.1075 193.786 55.9869 191.711 55.189C191.45 55.0886 191.028 54.9575 190.405 54.829L190.372 54.8214L190.341 54.8146C189.58 54.6523 188.547 54.5386 187.188 54.5548C184.77 54.5836 183.706 55.0762 183.324 55.318C183.306 55.3479 183.281 55.387 183.253 55.4381ZM136.918 30.289C136.529 30.4027 136.234 30.7226 136.154 31.1196L134.861 37.4834C134.765 37.9559 134.372 38.3062 133.899 38.3531L133.804 38.3579L130.411 38.399C129.895 38.4053 129.454 38.7713 129.353 39.2771L128.191 45.1159C128.055 45.7963 128.581 46.4286 129.275 46.4205L131.738 46.3916C132.432 46.3836 132.957 47.0175 132.821 47.6984L129.67 63.3582L129.539 64.0622C128.955 67.5376 129.446 70.3008 131.01 72.3517C132.679 74.539 135.541 75.6082 139.596 75.5598C142.539 75.5246 145.17 75.0987 147.49 74.2806C147.84 74.157 148.093 73.853 148.167 73.4887L149.135 68.7105C149.29 67.9463 148.62 67.2856 147.866 67.3522L147.714 67.3756C146.818 67.5715 145.97 67.6833 145.172 67.7123L144.893 67.7192C142.686 67.7456 141.244 67.404 140.568 66.6935C139.943 65.9309 139.824 64.5458 140.21 62.5391L143.307 47.1175C143.408 46.6125 143.849 46.2472 144.364 46.2409L151.284 46.1585C151.71 46.1534 152.087 45.902 152.261 45.5249L152.323 45.357L153.933 39.5124C154.114 38.8558 153.658 38.2085 153.002 38.1372L152.868 38.1312L146.426 38.2081C145.732 38.2163 145.207 37.5837 145.342 36.9034L146.908 29.0288C147.058 28.275 146.407 27.6245 145.677 27.736L145.531 27.7686L136.918 30.289ZM151.137 58.0272C151.443 58.1204 151.744 58.2266 152.041 58.3448C152.114 57.5371 152.217 56.7316 152.344 55.93C152.081 55.9558 151.816 55.9713 151.549 55.9781L151.137 58.0272ZM86.8289 40.6902C83.8201 42.3689 81.2556 44.7603 79.1365 47.8657C77.0174 50.9713 75.5219 54.7123 74.6501 59.0865C73.8272 63.2544 73.8932 66.6159 74.8477 69.1713L75.0436 69.6323C76.0602 71.8973 77.6332 73.5467 79.7632 74.5802C82.0865 75.6818 84.8139 76.2137 87.945 76.1764C90.5115 76.1457 92.7921 75.785 94.7861 75.0938C96.179 74.5876 97.5345 73.9265 98.8523 73.1114C99.6214 72.6359 100.663 73.1725 100.653 74.0767L100.653 74.1383C100.646 74.7509 101.145 75.2492 101.757 75.2419L108.686 75.1593C109.17 75.1535 109.588 74.8306 109.721 74.3731L109.744 74.2797L116.574 39.8804C116.7 39.2427 116.246 38.6474 115.618 38.5825L115.491 38.5767L107.208 38.6755C106.763 38.6808 106.384 39.0011 106.304 39.4391C106.175 40.1545 105.302 40.4575 104.701 40.0481C103.786 39.4235 102.825 38.9621 101.821 38.6634C100.327 38.2192 98.553 38.0089 96.4998 38.0334C93.0607 38.0744 89.8372 38.9602 86.8289 40.6902ZM85.1983 58.9605C86.9928 50.1603 91.1502 45.7206 97.6692 45.6428C100.367 45.6107 102.511 46.5348 104.101 48.415C104.302 48.6523 104.372 48.9714 104.312 49.2763L101.287 64.7019C101.239 64.9484 101.107 65.1729 100.91 65.3293C98.2971 67.4067 95.4335 68.4636 92.3201 68.5007C89.0349 68.5399 86.8198 67.8988 85.6746 66.5777C84.6492 65.3385 84.445 63.0295 85.0634 59.6503L85.1983 58.9605ZM110.238 31.9316C110.143 31.8669 110.047 31.8044 109.951 31.7441C110.047 31.8069 110.143 31.8673 110.238 31.9316ZM28.7256 39.6121C28.2099 39.6182 27.7687 39.9844 27.6679 40.4901L17.4963 91.5629C17.3608 92.2434 17.8862 92.8758 18.58 92.8675L26.742 92.7699C27.2258 92.7642 27.6443 92.4421 27.7775 91.9846L27.7997 91.8919L30.999 75.7593C31.1547 74.9767 32.0783 74.6133 32.7834 74.9871C35.0557 76.1917 37.8678 76.7743 41.2201 76.7344C47.0203 76.6652 51.6734 75.0694 55.1784 71.9475C58.5739 68.9229 60.9391 64.2725 62.2723 57.9963L62.3978 57.3845C63.7053 50.7976 63.1343 46.004 60.6856 43.0042C58.2883 40.004 54.5492 38.5338 49.4677 38.5943C46.9013 38.6249 44.5954 39.0121 42.5508 39.7552C41.1885 40.2503 39.8731 40.8821 38.6052 41.6497C37.8264 42.1208 36.7813 41.5631 36.8116 40.6534C36.8324 40.0335 36.331 39.5211 35.7108 39.5283L28.7256 39.6121ZM36.5004 49.4442C39.1123 47.3658 41.9506 46.3086 45.0154 46.272C48.5573 46.2297 50.7754 47.1014 51.6695 48.8876L51.8364 49.2249C52.6214 50.9782 52.6511 53.6885 51.9248 57.3551L51.763 58.105C50.9226 61.7875 49.5741 64.5059 47.7182 66.2606C45.7383 68.1324 43.2084 69.087 40.1285 69.1238C38.3834 69.1446 36.9429 68.9044 35.8076 68.4046C34.9095 67.99 34.0805 67.4689 33.3208 66.8412C33.027 66.5984 32.9036 66.2094 32.9782 65.8356L36.1253 50.0664C36.1742 49.8215 36.305 49.5998 36.5004 49.4442Z" stroke="white" stroke-width="15.2836" stroke-linejoin="round" mask="url(#path-1-outside-1_998_2102)"/>
</g>
<defs>
<filter id="filter0_d_998_2102" x="0" y="0" width="745" height="120.161" filterUnits="userSpaceOnUse" color-interpolation-filters="sRGB">
<feFlood flood-opacity="0" result="BackgroundImageFix"/>
<feColorMatrix in="SourceAlpha" type="matrix" values="0 0 0 0 0 0 0 0 0 0 0 0 0 0 0 0 0 0 127 0" result="hardAlpha"/>
<feOffset dy="9.82518"/>
<feComposite in2="hardAlpha" operator="out"/>
<feColorMatrix type="matrix" values="0 0 0 0 0 0 0 0 0 0 0 0 0 0 0 0 0 0 0.43 0"/>
<feBlend mode="normal" in2="BackgroundImageFix" result="effect1_dropShadow_998_2102"/>
<feBlend mode="normal" in="SourceGraphic" in2="effect1_dropShadow_998_2102" result="shape"/>
</filter>
</defs>
</svg>
