<svg width="49" height="53" viewBox="0 0 49 53" fill="none" xmlns="http://www.w3.org/2000/svg">
<g clip-path="url(#clip0_1178_2272)">
<g filter="url(#filter0_d_1178_2272)">
<path d="M12.25 19.875H9.4375C8.1943 19.875 7.00201 19.3811 6.12294 18.5021C5.24386 17.623 4.75 16.4307 4.75 15.1875C4.75 13.9443 5.24386 12.752 6.12294 11.8729C7.00201 10.9939 8.1943 10.5 9.4375 10.5H12.25" fill="white"/>
<path d="M34.75 19.875H37.5625C38.8057 19.875 39.998 19.3811 40.8771 18.5021C41.7561 17.623 42.25 16.4307 42.25 15.1875C42.25 13.9443 41.7561 12.752 40.8771 11.8729C39.998 10.9939 38.8057 10.5 37.5625 10.5H34.75" fill="white"/>
<path d="M8.5 44.25H38.5H8.5Z" fill="white"/>
<path d="M19.75 30.4875V34.875C19.75 35.9063 18.8687 36.7125 17.9312 37.1438C15.7188 38.1563 14.125 40.95 14.125 44.25" fill="white"/>
<path d="M27.25 30.4875V34.875C27.25 35.9063 28.1313 36.7125 29.0688 37.1438C31.2812 38.1563 32.875 40.95 32.875 44.25" fill="white"/>
<path d="M34.75 6.75H12.25V19.875C12.25 22.8587 13.4353 25.7202 15.545 27.83C17.6548 29.9397 20.5163 31.125 23.5 31.125C26.4837 31.125 29.3452 29.9397 31.455 27.83C33.5647 25.7202 34.75 22.8587 34.75 19.875V6.75Z" fill="white"/>
<path d="M12.25 19.875H9.4375C8.1943 19.875 7.00201 19.3811 6.12294 18.5021C5.24386 17.623 4.75 16.4307 4.75 15.1875C4.75 13.9443 5.24386 12.752 6.12294 11.8729C7.00201 10.9939 8.1943 10.5 9.4375 10.5H12.25M12.25 19.875V6.75H34.75V19.875M12.25 19.875C12.25 22.8587 13.4353 25.7202 15.545 27.83C17.6548 29.9397 20.5163 31.125 23.5 31.125C26.4837 31.125 29.3452 29.9397 31.455 27.83C33.5647 25.7202 34.75 22.8587 34.75 19.875M34.75 19.875H37.5625C38.8057 19.875 39.998 19.3811 40.8771 18.5021C41.7561 17.623 42.25 16.4307 42.25 15.1875C42.25 13.9443 41.7561 12.752 40.8771 11.8729C39.998 10.9939 38.8057 10.5 37.5625 10.5H34.75M8.5 44.25H38.5M19.75 30.4875V34.875C19.75 35.9063 18.8687 36.7125 17.9312 37.1438C15.7187 38.1563 14.125 40.95 14.125 44.25M27.25 30.4875V34.875C27.25 35.9063 28.1313 36.7125 29.0688 37.1438C31.2813 38.1563 32.875 40.95 32.875 44.25" stroke="white" stroke-width="8" stroke-linecap="round" stroke-linejoin="round"/>
</g>
<path d="M20 32H26.5V37L30.5 39.5L34.5 44H13.5L16.5 39.5L20.5 36.5L20 32Z" fill="white"/>
<path d="M12.25 19.875H9.4375C8.1943 19.875 7.00201 19.3811 6.12294 18.5021C5.24386 17.623 4.75 16.4307 4.75 15.1875C4.75 13.9443 5.24386 12.752 6.12294 11.8729C7.00201 10.9939 8.1943 10.5 9.4375 10.5H12.25" fill="white"/>
<path d="M12.25 19.875H9.4375C8.1943 19.875 7.00201 19.3811 6.12294 18.5021C5.24386 17.623 4.75 16.4307 4.75 15.1875C4.75 13.9443 5.24386 12.752 6.12294 11.8729C7.00201 10.9939 8.1943 10.5 9.4375 10.5H12.25" stroke="#62009B" stroke-width="3.25" stroke-linecap="round" stroke-linejoin="round"/>
<path d="M34.75 19.875H37.5625C38.8057 19.875 39.998 19.3811 40.8771 18.5021C41.7561 17.623 42.25 16.4307 42.25 15.1875C42.25 13.9443 41.7561 12.752 40.8771 11.8729C39.998 10.9939 38.8057 10.5 37.5625 10.5H34.75" fill="white"/>
<path d="M34.75 19.875H37.5625C38.8057 19.875 39.998 19.3811 40.8771 18.5021C41.7561 17.623 42.25 16.4307 42.25 15.1875C42.25 13.9443 41.7561 12.752 40.8771 11.8729C39.998 10.9939 38.8057 10.5 37.5625 10.5H34.75" stroke="#62009B" stroke-width="3.25" stroke-linecap="round" stroke-linejoin="round"/>
<path d="M8.5 44.25L38.5 44.25L8.5 44.25Z" fill="url(#paint0_linear_1178_2272)"/>
<path d="M8.5 44.25L38.5 44.25" stroke="#62009B" stroke-width="3.25" stroke-linecap="round" stroke-linejoin="round"/>
<path d="M19.75 30.4875V34.875C19.75 35.9063 18.8687 36.7125 17.9312 37.1438C15.7187 38.1563 14.125 40.95 14.125 44.25" fill="url(#paint1_linear_1178_2272)"/>
<path d="M19.75 30.4875V34.875C19.75 35.9063 18.8687 36.7125 17.9312 37.1438C15.7187 38.1563 14.125 40.95 14.125 44.25" stroke="#62009B" stroke-width="3.25" stroke-linecap="round" stroke-linejoin="round"/>
<path d="M27.25 30.4875V34.875C27.25 35.9063 28.1313 36.7125 29.0688 37.1438C31.2813 38.1563 32.875 40.95 32.875 44.25" fill="url(#paint2_linear_1178_2272)"/>
<path d="M27.25 30.4875V34.875C27.25 35.9063 28.1313 36.7125 29.0688 37.1438C31.2813 38.1563 32.875 40.95 32.875 44.25" stroke="#62009B" stroke-width="3.25" stroke-linecap="round" stroke-linejoin="round"/>
<path d="M34.75 6.75L12.25 6.75L12.25 19.875C12.25 22.8587 13.4353 25.7202 15.545 27.83C17.6548 29.9397 20.5163 31.125 23.5 31.125C26.4837 31.125 29.3452 29.9397 31.455 27.83C33.5647 25.7202 34.75 22.8587 34.75 19.875V6.75Z" fill="url(#paint3_linear_1178_2272)" stroke="#62009B" stroke-width="3.25" stroke-linecap="round" stroke-linejoin="round"/>
</g>
<defs>
<filter id="filter0_d_1178_2272" x="0.75" y="2.75" width="48.5" height="48.5" filterUnits="userSpaceOnUse" color-interpolation-filters="sRGB">
<feFlood flood-opacity="0" result="BackgroundImageFix"/>
<feColorMatrix in="SourceAlpha" type="matrix" values="0 0 0 0 0 0 0 0 0 0 0 0 0 0 0 0 0 0 127 0" result="hardAlpha"/>
<feOffset dx="3" dy="3"/>
<feComposite in2="hardAlpha" operator="out"/>
<feColorMatrix type="matrix" values="0 0 0 0 0 0 0 0 0 0 0 0 0 0 0 0 0 0 0.38 0"/>
<feBlend mode="normal" in2="BackgroundImageFix" result="effect1_dropShadow_1178_2272"/>
<feBlend mode="normal" in="SourceGraphic" in2="effect1_dropShadow_1178_2272" result="shape"/>
</filter>
<linearGradient id="paint0_linear_1178_2272" x1="-0.609834" y1="44.4115" x2="0.310032" y2="52.5817" gradientUnits="userSpaceOnUse">
<stop stop-color="#570089"/>
<stop offset="0.355421" stop-color="#A200FF"/>
<stop offset="1" stop-color="#210035"/>
</linearGradient>
<linearGradient id="paint1_linear_1178_2272" x1="12.4169" y1="32.7106" x2="25.9968" y2="34.3539" gradientUnits="userSpaceOnUse">
<stop stop-color="#570089"/>
<stop offset="0.355421" stop-color="#A200FF"/>
<stop offset="1" stop-color="#210035"/>
</linearGradient>
<linearGradient id="paint2_linear_1178_2272" x1="25.5419" y1="32.7106" x2="39.1218" y2="34.3539" gradientUnits="userSpaceOnUse">
<stop stop-color="#570089"/>
<stop offset="0.355421" stop-color="#A200FF"/>
<stop offset="1" stop-color="#210035"/>
</linearGradient>
<linearGradient id="paint3_linear_1178_2272" x1="10.5803" y1="18.3616" x2="46.595" y2="22.5829" gradientUnits="userSpaceOnUse">
<stop stop-color="#570089"/>
<stop offset="0.355421" stop-color="#A200FF"/>
<stop offset="1" stop-color="#210035"/>
</linearGradient>
<clipPath id="clip0_1178_2272">
<rect width="49" height="53" fill="white"/>
</clipPath>
</defs>
</svg>
