<svg width="267" height="352" viewBox="0 0 267 352" fill="none" xmlns="http://www.w3.org/2000/svg">
<g filter="url(#filter0_d_1296_2308)">
<mask id="path-1-outside-1_1296_2308" maskUnits="userSpaceOnUse" x="88.5649" y="254.899" width="128.01" height="99.3046" fill="black">
<rect fill="white" x="88.5649" y="254.899" width="128.01" height="99.3046"/>
<path d="M131.06 290.918L133.58 290.688C137.115 290.366 140.153 290.802 142.691 291.996C145.239 293.278 147.794 295.05 150.358 297.312C152.814 299.405 154.956 301.482 156.784 303.543C158.613 305.604 160.486 307.26 162.406 308.511C164.325 309.762 166.479 310.279 168.865 310.061C172.313 309.746 174.611 308.289 175.76 305.689C177.007 303.169 177.327 299.084 176.72 293.436C176.322 289.729 175.443 286.111 174.082 282.581C172.81 279.043 171.329 276.059 169.64 273.629L187.54 271.996C189.482 275.116 191.175 278.838 192.622 283.162C194.077 287.574 195.089 292.428 195.658 297.724C196.757 307.961 195.342 315.978 191.412 321.773C187.57 327.56 181.76 330.808 173.981 331.518C169.031 331.969 164.9 331.321 161.588 329.574C158.365 327.818 154.953 325.144 151.354 321.551C148.263 318.536 145.583 316.017 143.313 313.996C141.131 311.968 138.361 311.106 135.002 311.413L133.278 311.57L131.06 290.918ZM107.492 292.133L122.873 290.73L125.275 313.102L109.894 314.506L107.492 292.133Z"/>
</mask>
<path d="M131.06 290.918L133.58 290.688C137.115 290.366 140.153 290.802 142.691 291.996C145.239 293.278 147.794 295.05 150.358 297.312C152.814 299.405 154.956 301.482 156.784 303.543C158.613 305.604 160.486 307.26 162.406 308.511C164.325 309.762 166.479 310.279 168.865 310.061C172.313 309.746 174.611 308.289 175.76 305.689C177.007 303.169 177.327 299.084 176.72 293.436C176.322 289.729 175.443 286.111 174.082 282.581C172.81 279.043 171.329 276.059 169.64 273.629L187.54 271.996C189.482 275.116 191.175 278.838 192.622 283.162C194.077 287.574 195.089 292.428 195.658 297.724C196.757 307.961 195.342 315.978 191.412 321.773C187.57 327.56 181.76 330.808 173.981 331.518C169.031 331.969 164.9 331.321 161.588 329.574C158.365 327.818 154.953 325.144 151.354 321.551C148.263 318.536 145.583 316.017 143.313 313.996C141.131 311.968 138.361 311.106 135.002 311.413L133.278 311.57L131.06 290.918ZM107.492 292.133L122.873 290.73L125.275 313.102L109.894 314.506L107.492 292.133Z" fill="#8A00DA"/>
<path d="M131.06 290.918L129.445 275.875C121.123 276.634 115.101 283.985 115.993 292.293L131.06 290.918ZM142.691 291.996L149.352 278.533C149.23 278.471 149.107 278.411 148.983 278.353L142.691 291.996ZM150.358 297.312L140.416 308.556C140.482 308.614 140.549 308.672 140.616 308.73L150.358 297.312ZM156.784 303.543L168.068 293.637L168.068 293.637L156.784 303.543ZM162.406 308.511L170.557 295.905L170.557 295.905L162.406 308.511ZM175.76 305.689L162.149 298.837C162.054 299.029 161.963 299.223 161.876 299.419L175.76 305.689ZM174.082 282.581L159.826 287.482C159.866 287.591 159.906 287.699 159.948 287.807L174.082 282.581ZM169.64 273.629L168.024 258.585C162.693 259.072 158.061 262.334 155.843 267.165C153.625 271.995 154.152 277.675 157.227 282.1L169.64 273.629ZM187.54 271.996L200.382 264.178C197.304 259.231 191.691 256.426 185.924 256.952L187.54 271.996ZM192.622 283.162L207.01 278.646C207.003 278.627 206.997 278.607 206.99 278.587L192.622 283.162ZM191.412 321.773L178.816 313.178C178.789 313.218 178.762 313.259 178.735 313.299L191.412 321.773ZM161.588 329.574L154.483 342.804C154.543 342.837 154.603 342.869 154.663 342.901L161.588 329.574ZM151.354 321.551L161.993 310.961C161.951 310.919 161.909 310.877 161.866 310.836L151.354 321.551ZM143.313 313.996L133.068 324.967C133.151 325.043 133.234 325.119 133.318 325.194L143.313 313.996ZM133.278 311.57L118.21 312.945C119.102 321.253 126.572 327.373 134.893 326.614L133.278 311.57ZM107.492 292.133L105.876 277.089C97.5548 277.849 91.5321 285.199 92.4242 293.508L107.492 292.133ZM122.873 290.73L137.94 289.355C137.048 281.046 129.579 274.927 121.257 275.686L122.873 290.73ZM125.275 313.102L126.89 328.146C135.212 327.387 141.235 320.036 140.342 311.728L125.275 313.102ZM109.894 314.506L94.8265 315.881C95.7186 324.189 103.188 330.309 111.509 329.549L109.894 314.506ZM131.06 290.918L132.676 305.962L135.195 305.732L133.58 290.688L131.964 275.645L129.445 275.875L131.06 290.918ZM133.58 290.688L135.195 305.732C136.758 305.589 136.926 305.887 136.399 305.639L142.691 291.996L148.983 278.353C143.379 275.717 137.473 275.142 131.964 275.645L133.58 290.688ZM142.691 291.996L136.03 305.459C137.188 306.042 138.657 307.005 140.416 308.556L150.358 297.312L160.3 286.068C156.931 283.096 153.289 280.515 149.352 278.533L142.691 291.996ZM150.358 297.312L140.616 308.73C142.614 310.432 144.223 312.009 145.501 313.449L156.784 303.543L168.068 293.637C165.69 290.955 163.014 288.378 160.1 285.894L150.358 297.312ZM156.784 303.543L145.501 313.449C148.068 316.344 150.968 318.976 154.255 321.117L162.406 308.511L170.557 295.905C170.004 295.545 169.157 294.865 168.068 293.637L156.784 303.543ZM162.406 308.511L154.255 321.117C159.24 324.366 164.872 325.616 170.481 325.104L168.865 310.061L167.25 295.017C167.564 294.989 168.107 294.989 168.787 295.153C169.477 295.318 170.085 295.598 170.557 295.905L162.406 308.511ZM168.865 310.061L170.481 325.104C177.999 324.418 185.826 320.599 189.644 311.959L175.76 305.689L161.876 299.419C162.429 298.167 163.458 296.863 164.899 295.949C166.21 295.118 167.209 295.021 167.25 295.017L168.865 310.061ZM175.76 305.689L189.371 312.541C192.614 305.986 192.448 298.204 191.788 292.061L176.72 293.436L161.653 294.811C161.891 297.032 161.893 298.484 161.827 299.324C161.755 300.252 161.644 299.857 162.149 298.837L175.76 305.689ZM176.72 293.436L191.788 292.061C191.247 287.024 190.05 282.112 188.216 277.355L174.082 282.581L159.948 287.807C160.836 290.11 161.398 292.435 161.653 294.811L176.72 293.436ZM174.082 282.581L188.338 277.681C186.728 273.207 184.686 268.948 182.052 265.158L169.64 273.629L157.227 282.1C157.971 283.17 158.891 284.88 159.826 287.482L174.082 282.581ZM169.64 273.629L171.255 288.673L189.155 287.039L187.54 271.996L185.924 256.952L168.024 258.585L169.64 273.629ZM187.54 271.996L174.697 279.813C175.873 281.702 177.099 284.285 178.253 287.737L192.622 283.162L206.99 278.587C205.252 273.391 203.09 268.529 200.382 264.178L187.54 271.996ZM192.622 283.162L178.233 287.678C179.306 290.93 180.12 294.714 180.591 299.098L195.658 297.724L210.726 296.349C210.059 290.143 208.848 284.219 207.01 278.646L192.622 283.162ZM195.658 297.724L180.591 299.098C181.48 307.385 180.038 311.376 178.816 313.178L191.412 321.773L204.008 330.367C210.646 320.579 212.034 308.537 210.726 296.349L195.658 297.724ZM191.412 321.773L178.735 313.299C177.689 314.875 176.221 316.122 172.366 316.474L173.981 331.518L175.596 346.561C187.299 345.493 197.451 340.244 204.089 330.246L191.412 321.773ZM173.981 331.518L172.366 316.474C170.904 316.607 169.911 316.545 169.296 316.449C168.995 316.401 168.794 316.348 168.676 316.309C168.617 316.29 168.576 316.274 168.551 316.264C168.526 316.253 168.514 316.247 168.513 316.247L161.588 329.574L154.663 342.901C161.356 346.433 168.675 347.193 175.596 346.561L173.981 331.518ZM161.588 329.574L168.692 316.343C167.158 315.507 164.916 313.879 161.993 310.961L151.354 321.551L140.715 332.141C144.99 336.408 149.571 340.129 154.483 342.804L161.588 329.574ZM151.354 321.551L161.866 310.836C158.67 307.718 155.81 305.027 153.308 302.799L143.313 313.996L133.318 325.194C135.356 327.008 137.856 329.353 140.842 332.266L151.354 321.551ZM143.313 313.996L153.557 303.026C147.696 297.575 140.397 295.729 133.386 296.369L135.002 311.413L136.617 326.456C136.639 326.454 136.124 326.502 135.294 326.244C134.414 325.97 133.633 325.492 133.068 324.967L143.313 313.996ZM135.002 311.413L133.386 296.369L131.663 296.526L133.278 311.57L134.893 326.614L136.617 326.456L135.002 311.413ZM133.278 311.57L148.345 310.195L146.128 289.543L131.06 290.918L115.993 292.293L118.21 312.945L133.278 311.57ZM107.492 292.133L109.107 307.177L124.488 305.773L122.873 290.73L121.257 275.686L105.876 277.089L107.492 292.133ZM122.873 290.73L107.805 292.104L110.207 314.477L125.275 313.102L140.342 311.728L137.94 289.355L122.873 290.73ZM125.275 313.102L123.66 298.059L108.279 299.462L109.894 314.506L111.509 329.549L126.89 328.146L125.275 313.102ZM109.894 314.506L124.962 313.131L122.559 290.758L107.492 292.133L92.4242 293.508L94.8265 315.881L109.894 314.506Z" fill="white" mask="url(#path-1-outside-1_1296_2308)"/>
</g>
<g filter="url(#filter1_d_1296_2308)">
<mask id="path-3-outside-2_1296_2308" maskUnits="userSpaceOnUse" x="58.2315" y="140.346" width="172.883" height="158.029" fill="black">
<rect fill="white" x="58.2315" y="140.346" width="172.883" height="158.029"/>
<path d="M115.155 215.709L117.716 214.241C121.309 212.181 124.742 211.167 128.015 211.2C131.341 211.322 134.913 211.96 138.731 213.112C142.353 214.139 145.635 215.301 148.575 216.598C151.516 217.896 154.308 218.742 156.952 219.136C159.596 219.529 162.131 219.031 164.556 217.64C168.06 215.631 169.789 212.968 169.744 209.652C169.842 206.373 168.197 201.886 164.808 196.189C162.585 192.451 159.894 189.041 156.735 185.958C153.666 182.825 150.645 180.379 147.672 178.622L165.864 168.191C169.44 170.556 173.046 173.681 176.681 177.565C180.369 181.537 183.802 186.193 186.978 191.533C193.12 201.858 195.514 211.048 194.162 219.105C192.9 227.11 188.316 233.379 180.41 237.912C175.379 240.797 170.683 242.117 166.321 241.873C162.049 241.578 157.131 240.399 151.567 238.337C146.823 236.641 142.757 235.273 139.367 234.233C136.067 233.141 132.71 233.574 129.296 235.532L127.544 236.536L115.155 215.709ZM90.7478 228.452L106.379 219.488L119.801 242.051L104.169 251.014L90.7478 228.452Z"/>
</mask>
<path d="M115.155 215.709L117.716 214.241C121.309 212.181 124.742 211.167 128.015 211.2C131.341 211.322 134.913 211.96 138.731 213.112C142.353 214.139 145.635 215.301 148.575 216.598C151.516 217.896 154.308 218.742 156.952 219.136C159.596 219.529 162.131 219.031 164.556 217.64C168.06 215.631 169.789 212.968 169.744 209.652C169.842 206.373 168.197 201.886 164.808 196.189C162.585 192.451 159.894 189.041 156.735 185.958C153.666 182.825 150.645 180.379 147.672 178.622L165.864 168.191C169.44 170.556 173.046 173.681 176.681 177.565C180.369 181.537 183.802 186.193 186.978 191.533C193.12 201.858 195.514 211.048 194.162 219.105C192.9 227.11 188.316 233.379 180.41 237.912C175.379 240.797 170.683 242.117 166.321 241.873C162.049 241.578 157.131 240.399 151.567 238.337C146.823 236.641 142.757 235.273 139.367 234.233C136.067 233.141 132.71 233.574 129.296 235.532L127.544 236.536L115.155 215.709ZM90.7478 228.452L106.379 219.488L119.801 242.051L104.169 251.014L90.7478 228.452Z" fill="#8A00DA"/>
<path d="M115.155 215.709L106.131 200.538C97.6739 205.388 94.8583 216.112 99.8423 224.49L115.155 215.709ZM128.015 211.2L128.537 193.683C128.378 193.677 128.218 193.674 128.058 193.672L128.015 211.2ZM138.731 213.112L133.65 229.87C133.749 229.9 133.848 229.929 133.947 229.957L138.731 213.112ZM148.575 216.598L155.73 200.608L155.73 200.608L148.575 216.598ZM156.952 219.136L159.471 201.804L159.471 201.804L156.952 219.136ZM169.744 209.652L151.977 208.999C151.97 209.249 151.968 209.499 151.971 209.749L169.744 209.652ZM156.735 185.958L143.996 198.084C144.091 198.181 144.186 198.276 144.283 198.371L156.735 185.958ZM147.672 178.622L138.648 163.451C133.23 166.558 129.902 172.27 129.898 178.471C129.893 184.672 133.211 190.441 138.624 193.639L147.672 178.622ZM165.864 168.191L175.686 153.658C170.017 149.907 162.7 149.659 156.84 153.02L165.864 168.191ZM176.681 177.565L189.747 165.782C189.731 165.765 189.714 165.747 189.698 165.729L176.681 177.565ZM194.162 219.105L176.626 216.11C176.616 216.166 176.607 216.222 176.598 216.278L194.162 219.105ZM166.321 241.873L165.216 259.359C165.295 259.365 165.374 259.369 165.453 259.374L166.321 241.873ZM151.567 238.337L157.704 221.935C157.64 221.91 157.575 221.887 157.509 221.864L151.567 238.337ZM139.367 234.233L133.833 250.847C133.957 250.888 134.082 250.928 134.207 250.967L139.367 234.233ZM127.544 236.536L112.231 245.317C117.215 253.696 128.111 256.557 136.569 251.707L127.544 236.536ZM90.7478 228.452L81.7234 213.281C73.2662 218.131 70.4506 228.854 75.4346 237.233L90.7478 228.452ZM106.379 219.488L121.693 210.708C116.709 202.329 105.812 199.468 97.3551 204.318L106.379 219.488ZM119.801 242.051L128.825 257.222C137.282 252.372 140.098 241.648 135.114 233.27L119.801 242.051ZM104.169 251.014L88.8557 259.795C93.8397 268.174 104.736 271.035 113.193 266.185L104.169 251.014ZM115.155 215.709L124.18 230.88L126.74 229.412L117.716 214.241L108.691 199.07L106.131 200.538L115.155 215.709ZM117.716 214.241L126.74 229.412C128.329 228.501 128.651 228.735 127.972 228.728L128.015 211.2L128.058 193.672C120.834 193.599 114.29 195.86 108.691 199.07L117.716 214.241ZM128.015 211.2L127.493 228.717C129.005 228.772 131.031 229.079 133.65 229.87L138.731 213.112L143.812 196.355C138.794 194.84 133.677 193.872 128.537 193.683L128.015 211.2ZM138.731 213.112L133.947 229.957C136.894 230.792 139.367 231.682 141.421 232.589L148.575 216.598L155.73 200.608C151.903 198.919 147.813 197.485 143.514 196.268L138.731 213.112ZM148.575 216.598L141.421 232.589C145.551 234.411 149.907 235.794 154.433 236.468L156.952 219.136L159.471 201.804C158.71 201.69 157.481 201.381 155.73 200.608L148.575 216.598ZM156.952 219.136L154.433 236.468C161.299 237.49 167.881 236.079 173.581 232.811L164.556 217.64L155.532 202.469C155.851 202.286 156.427 202.023 157.228 201.866C158.041 201.706 158.821 201.707 159.471 201.804L156.952 219.136ZM164.556 217.64L173.581 232.811C181.222 228.429 187.667 220.575 187.517 209.555L169.744 209.652L151.971 209.749C151.95 208.152 152.407 206.269 153.492 204.6C154.478 203.081 155.49 202.493 155.532 202.469L164.556 217.64ZM169.744 209.652L187.511 210.304C187.765 201.776 183.807 193.603 180.122 187.408L164.808 196.189L149.495 204.97C150.828 207.21 151.535 208.75 151.874 209.673C152.247 210.692 151.938 210.327 151.977 208.999L169.744 209.652ZM164.808 196.189L180.122 187.408C177.1 182.329 173.443 177.7 169.186 173.546L156.735 185.958L144.283 198.371C146.344 200.382 148.07 202.574 149.495 204.97L164.808 196.189ZM156.735 185.958L169.473 173.833C165.592 169.869 161.357 166.345 156.72 163.605L147.672 178.622L138.624 193.639C139.933 194.413 141.739 195.78 143.996 198.084L156.735 185.958ZM147.672 178.622L156.696 193.793L174.888 183.361L165.864 168.191L156.84 153.02L138.648 163.451L147.672 178.622ZM165.864 168.191L156.042 182.723C158.207 184.156 160.762 186.299 163.665 189.4L176.681 177.565L189.698 165.729C185.329 161.063 180.673 156.957 175.686 153.658L165.864 168.191ZM176.681 177.565L163.615 189.347C166.333 192.274 169.035 195.893 171.665 200.314L186.978 191.533L202.292 182.753C198.568 176.494 194.406 170.8 189.747 165.782L176.681 177.565ZM186.978 191.533L171.665 200.314C176.636 208.671 177.046 213.605 176.626 216.11L194.162 219.105L211.699 222.099C213.983 208.491 209.603 195.044 202.292 182.753L186.978 191.533ZM194.162 219.105L176.598 216.278C176.255 218.458 175.304 220.494 171.386 222.741L180.41 237.912L189.435 253.083C201.328 246.263 209.545 235.761 211.726 221.931L194.162 219.105ZM180.41 237.912L171.386 222.741C169.9 223.593 168.816 224.009 168.118 224.206C167.775 224.302 167.537 224.342 167.393 224.36C167.32 224.368 167.269 224.371 167.237 224.372C167.206 224.373 167.19 224.372 167.189 224.372L166.321 241.873L165.453 259.374C174.268 259.867 182.4 257.117 189.435 253.083L180.41 237.912ZM166.321 241.873L167.426 224.387C165.392 224.247 162.224 223.609 157.704 221.935L151.567 238.337L145.43 254.74C152.038 257.189 158.705 258.909 165.216 259.359L166.321 241.873ZM151.567 238.337L157.509 221.864C152.605 220.11 148.262 218.646 144.526 217.499L139.367 234.233L134.207 250.967C137.251 251.901 141.042 253.173 145.625 254.811L151.567 238.337ZM139.367 234.233L144.901 217.619C136.035 214.685 127.397 216.275 120.272 220.361L129.296 235.532L138.32 250.703C138.343 250.69 137.819 250.99 136.815 251.12C135.748 251.258 134.686 251.13 133.833 250.847L139.367 234.233ZM129.296 235.532L120.272 220.361L118.52 221.365L127.544 236.536L136.569 251.707L138.32 250.703L129.296 235.532ZM127.544 236.536L142.857 227.755L130.469 206.928L115.155 215.709L99.8423 224.49L112.231 245.317L127.544 236.536ZM90.7478 228.452L99.7722 243.623L115.404 234.659L106.379 219.488L97.3551 204.318L81.7234 213.281L90.7478 228.452ZM106.379 219.488L91.0663 228.269L104.487 250.832L119.801 242.051L135.114 233.27L121.693 210.708L106.379 219.488ZM119.801 242.051L110.776 226.88L95.1445 235.843L104.169 251.014L113.193 266.185L128.825 257.222L119.801 242.051ZM104.169 251.014L119.482 242.233L106.061 219.671L90.7478 228.452L75.4346 237.233L88.8557 259.795L104.169 251.014Z" fill="white" mask="url(#path-3-outside-2_1296_2308)"/>
</g>
<g filter="url(#filter2_d_1296_2308)">
<mask id="path-5-outside-3_1296_2308" maskUnits="userSpaceOnUse" x="-8.70662" y="40.1767" width="191.509" height="201.685" fill="black">
<rect fill="white" x="-8.70662" y="40.1767" width="191.509" height="201.685"/>
<path d="M53.979 153.775L55.8229 150.806C58.4108 146.639 61.4198 143.653 64.8498 141.849C68.3849 140.108 72.4663 138.765 77.0939 137.822C81.4464 136.856 85.5199 136.223 89.3143 135.924C93.1087 135.625 96.4944 134.937 99.4715 133.862C102.449 132.787 104.811 130.843 106.557 128.031C109.081 123.968 109.387 120.221 107.477 116.789C105.737 113.317 101.5 109.563 94.7678 105.53C90.3497 102.883 85.6283 100.84 80.6037 99.4017C75.6437 97.8594 71.1209 97.0077 67.0351 96.8467L80.1366 75.7515C85.1933 76.2084 90.7074 77.4395 96.6788 79.445C102.755 81.5134 108.949 84.4384 115.261 88.22C127.464 95.5311 135.123 103.765 138.241 112.923C141.422 121.976 140.167 131.086 134.473 140.254C130.85 146.087 126.696 150.103 122.013 152.299C117.393 154.391 111.605 155.926 104.647 156.903C98.7494 157.8 93.7415 158.659 89.6236 159.48C85.5704 160.196 82.3145 162.533 79.8559 166.492L78.5943 168.523L53.979 153.775ZM35.6969 180.771L46.9545 162.645L73.6211 178.622L62.3635 196.749L35.6969 180.771Z"/>
</mask>
<path d="M53.979 153.775L55.8229 150.806C58.4108 146.639 61.4198 143.653 64.8498 141.849C68.3849 140.108 72.4663 138.765 77.0939 137.822C81.4464 136.856 85.5199 136.223 89.3143 135.924C93.1087 135.625 96.4944 134.937 99.4715 133.862C102.449 132.787 104.811 130.843 106.557 128.031C109.081 123.968 109.387 120.221 107.477 116.789C105.737 113.317 101.5 109.563 94.7678 105.53C90.3497 102.883 85.6283 100.84 80.6037 99.4017C75.6437 97.8594 71.1209 97.0077 67.0351 96.8467L80.1366 75.7515C85.1933 76.2084 90.7074 77.4395 96.6788 79.445C102.755 81.5134 108.949 84.4384 115.261 88.22C127.464 95.5311 135.123 103.765 138.241 112.923C141.422 121.976 140.167 131.086 134.473 140.254C130.85 146.087 126.696 150.103 122.013 152.299C117.393 154.391 111.605 155.926 104.647 156.903C98.7494 157.8 93.7415 158.659 89.6236 159.48C85.5704 160.196 82.3145 162.533 79.8559 166.492L78.5943 168.523L53.979 153.775ZM35.6969 180.771L46.9545 162.645L73.6211 178.622L62.3635 196.749L35.6969 180.771Z" fill="#8A00DA"/>
<path d="M53.979 153.775L36.0482 143.032C29.9575 152.839 33.0479 165.599 42.9508 171.532L53.979 153.775ZM64.8498 141.849L55.5521 123.297C55.3824 123.38 55.2137 123.466 55.0463 123.554L64.8498 141.849ZM77.0939 137.822L81.2135 158.144C81.3333 158.12 81.453 158.094 81.5724 158.068L77.0939 137.822ZM89.3143 135.924L87.787 115.236L87.787 115.236L89.3143 135.924ZM99.4715 133.862L92.3592 114.381L92.3592 114.381L99.4715 133.862ZM107.477 116.789L88.5908 126.092C88.7233 126.356 88.8617 126.618 89.0056 126.876L107.477 116.789ZM80.6037 99.4017L74.1383 119.199C74.2912 119.246 74.4446 119.292 74.5986 119.336L80.6037 99.4017ZM67.0351 96.8467L49.1043 86.1035C45.2026 92.3858 44.9434 100.209 48.4226 106.676C51.9018 113.143 58.6016 117.291 66.041 117.584L67.0351 96.8467ZM80.1366 75.7515L82.2094 55.0842C74.1927 54.3599 66.4262 58.213 62.2058 65.0084L80.1366 75.7515ZM96.6787 79.445L103.679 59.8222C103.651 59.8129 103.624 59.8037 103.597 59.7945L96.6787 79.445ZM138.241 112.923L118.279 119.655C118.3 119.719 118.322 119.782 118.345 119.845L138.241 112.923ZM122.013 152.299L130.685 171.147C130.771 171.108 130.856 171.069 130.941 171.029L122.013 152.299ZM104.647 156.903L101.828 136.357C101.747 136.368 101.666 136.38 101.585 136.393L104.647 156.903ZM89.6236 159.48L93.1901 179.907C93.343 179.88 93.4955 179.852 93.6477 179.821L89.6236 159.48ZM78.5943 168.523L67.5661 186.28C77.469 192.213 90.4343 189.073 96.5251 179.266L78.5943 168.523ZM35.6969 180.771L17.7662 170.028C11.6755 179.835 14.7659 192.595 24.6687 198.528L35.6969 180.771ZM46.9545 162.645L57.9827 144.888C48.0798 138.955 35.1145 142.095 29.0238 151.902L46.9545 162.645ZM73.6211 178.622L91.5519 189.365C97.6426 179.559 94.5522 166.799 84.6493 160.865L73.6211 178.622ZM62.3635 196.749L51.3353 214.505C61.2382 220.439 74.2036 217.299 80.2943 207.492L62.3635 196.749ZM53.979 153.775L71.9097 164.518L73.7536 161.549L55.8229 150.806L37.8921 140.063L36.0482 143.032L53.979 153.775ZM55.8229 150.806L73.7536 161.549C74.8976 159.707 75.365 159.77 74.6532 160.144L64.8498 141.849L55.0463 123.554C47.4746 127.537 41.9241 133.571 37.8921 140.063L55.8229 150.806ZM64.8498 141.849L74.1474 160.402C75.7547 159.61 78.0394 158.791 81.2135 158.144L77.0939 137.822L72.9743 117.499C66.8932 118.74 61.0152 120.606 55.5521 123.297L64.8498 141.849ZM77.0939 137.822L81.5724 158.068C85.1121 157.282 88.1904 156.821 90.8415 156.612L89.3143 135.924L87.787 115.236C82.8494 115.626 77.7807 116.43 72.6154 117.576L77.0939 137.822ZM89.3143 135.924L90.8415 156.612C96.1704 156.191 101.487 155.184 106.584 153.344L99.4715 133.862L92.3592 114.381C91.5019 114.69 90.047 115.058 87.787 115.236L89.3143 135.924ZM99.4715 133.862L106.584 153.344C114.315 150.552 120.383 145.383 124.488 138.774L106.557 128.031L88.6267 117.287C88.8564 116.918 89.3097 116.32 90.0556 115.706C90.8128 115.083 91.6268 114.645 92.3592 114.381L99.4715 133.862ZM106.557 128.031L124.488 138.774C129.991 129.913 132.296 118.105 125.948 106.702L107.477 116.789L89.0056 126.876C88.0859 125.224 87.5051 123.005 87.6972 120.655C87.872 118.518 88.5965 117.336 88.6267 117.287L106.557 128.031ZM107.477 116.789L126.363 107.487C121.836 98.4544 113.118 92.1597 105.796 87.7728L94.7678 105.53L83.7396 123.287C86.3869 124.873 87.9896 126.08 88.861 126.852C89.8229 127.704 89.2953 127.497 88.5908 126.092L107.477 116.789ZM94.7678 105.53L105.796 87.7728C99.7921 84.1755 93.3797 81.4055 86.6088 79.4675L80.6037 99.4017L74.5986 119.336C77.8769 120.274 80.9073 121.59 83.7396 123.287L94.7678 105.53ZM80.6037 99.4017L87.069 79.6049C80.7962 77.6543 74.4016 76.3605 68.0292 76.1094L67.0351 96.8467L66.041 117.584C67.8402 117.655 70.4913 118.064 74.1383 119.199L80.6037 99.4017ZM67.0351 96.8467L84.9658 107.59L98.0673 86.4947L80.1366 75.7515L62.2058 65.0084L49.1043 86.1035L67.0351 96.8467ZM80.1366 75.7515L78.0637 96.4189C81.1256 96.6955 84.9932 97.4943 89.7607 99.0954L96.6787 79.445L103.597 59.7945C96.4215 57.3848 89.2611 55.7213 82.2094 55.0842L80.1366 75.7515ZM96.6787 79.445L89.679 99.0677C94.1573 100.592 99.007 102.846 104.233 105.977L115.261 88.22L126.289 70.4632C118.892 66.031 111.353 62.4347 103.679 59.8222L96.6787 79.445ZM115.261 88.22L104.233 105.977C114.11 111.895 117.309 116.807 118.279 119.655L138.241 112.923L158.202 106.191C152.937 90.7234 140.817 79.1675 126.289 70.4632L115.261 88.22ZM138.241 112.923L118.345 119.845C119.211 122.31 119.364 124.967 116.542 129.511L134.473 140.254L152.404 150.997C160.969 137.206 163.634 121.642 158.136 106L138.241 112.923ZM134.473 140.254L116.542 129.511C115.472 131.233 114.577 132.276 113.959 132.874C113.656 133.166 113.43 133.343 113.289 133.441C113.219 133.491 113.167 133.523 113.135 133.542C113.102 133.561 113.086 133.569 113.084 133.569L122.013 152.299L130.941 171.029C140.407 166.59 147.338 159.154 152.404 150.997L134.473 140.254ZM122.013 152.299L113.34 133.451C111.141 134.447 107.48 135.563 101.828 136.357L104.647 156.903L107.466 177.449C115.73 176.289 123.646 174.335 130.685 171.147L122.013 152.299ZM104.647 156.903L101.585 136.393C95.487 137.32 90.1381 138.234 85.5994 139.138L89.6236 159.48L93.6477 179.821C97.3448 179.085 102.012 178.281 107.709 177.414L104.647 156.903ZM89.6236 159.48L86.0571 139.052C75.1677 140.976 67.0567 147.486 61.9252 155.749L79.8559 166.492L97.7867 177.235C97.803 177.209 97.4263 177.816 96.4516 178.516C95.4167 179.259 94.2387 179.722 93.1901 179.907L89.6236 159.48ZM79.8559 166.492L61.9252 155.749L60.6636 157.78L78.5943 168.523L96.5251 179.266L97.7867 177.235L79.8559 166.492ZM78.5943 168.523L89.6225 150.766L65.0072 136.018L53.979 153.775L42.9508 171.532L67.5661 186.28L78.5943 168.523ZM35.6969 180.771L53.6277 191.514L64.8853 173.388L46.9545 162.645L29.0238 151.902L17.7662 170.028L35.6969 180.771ZM46.9545 162.645L35.9263 180.402L62.5929 196.379L73.6211 178.622L84.6493 160.865L57.9827 144.888L46.9545 162.645ZM73.6211 178.622L55.6904 167.879L44.4328 186.005L62.3635 196.749L80.2943 207.492L91.5519 189.365L73.6211 178.622ZM62.3635 196.749L73.3917 178.992L46.7251 163.014L35.6969 180.771L24.6687 198.528L51.3353 214.505L62.3635 196.749Z" fill="white" mask="url(#path-5-outside-3_1296_2308)"/>
</g>
<defs>
<filter id="filter0_d_1296_2308" x="92.3359" y="256.889" width="118.836" height="94.8274" filterUnits="userSpaceOnUse" color-interpolation-filters="sRGB">
<feFlood flood-opacity="0" result="BackgroundImageFix"/>
<feColorMatrix in="SourceAlpha" type="matrix" values="0 0 0 0 0 0 0 0 0 0 0 0 0 0 0 0 0 0 127 0" result="hardAlpha"/>
<feOffset dy="4.95417"/>
<feComposite in2="hardAlpha" operator="out"/>
<feColorMatrix type="matrix" values="0 0 0 0 0 0 0 0 0 0 0 0 0 0 0 0 0 0 0.25 0"/>
<feBlend mode="normal" in2="BackgroundImageFix" result="effect1_dropShadow_1296_2308"/>
<feBlend mode="normal" in="SourceGraphic" in2="effect1_dropShadow_1296_2308" result="shape"/>
</filter>
<filter id="filter1_d_1296_2308" x="72.9688" y="150.662" width="139.336" height="123.664" filterUnits="userSpaceOnUse" color-interpolation-filters="sRGB">
<feFlood flood-opacity="0" result="BackgroundImageFix"/>
<feColorMatrix in="SourceAlpha" type="matrix" values="0 0 0 0 0 0 0 0 0 0 0 0 0 0 0 0 0 0 127 0" result="hardAlpha"/>
<feOffset dy="5.77998"/>
<feComposite in2="hardAlpha" operator="out"/>
<feColorMatrix type="matrix" values="0 0 0 0 0 0 0 0 0 0 0 0 0 0 0 0 0 0 0.25 0"/>
<feBlend mode="normal" in2="BackgroundImageFix" result="effect1_dropShadow_1296_2308"/>
<feBlend mode="normal" in="SourceGraphic" in2="effect1_dropShadow_1296_2308" result="shape"/>
</filter>
<filter id="filter2_d_1296_2308" x="14.6445" y="54.9974" width="146.363" height="169.352" filterUnits="userSpaceOnUse" color-interpolation-filters="sRGB">
<feFlood flood-opacity="0" result="BackgroundImageFix"/>
<feColorMatrix in="SourceAlpha" type="matrix" values="0 0 0 0 0 0 0 0 0 0 0 0 0 0 0 0 0 0 127 0" result="hardAlpha"/>
<feOffset dy="6.84437"/>
<feComposite in2="hardAlpha" operator="out"/>
<feColorMatrix type="matrix" values="0 0 0 0 0 0 0 0 0 0 0 0 0 0 0 0 0 0 0.25 0"/>
<feBlend mode="normal" in2="BackgroundImageFix" result="effect1_dropShadow_1296_2308"/>
<feBlend mode="normal" in="SourceGraphic" in2="effect1_dropShadow_1296_2308" result="shape"/>
</filter>
</defs>
</svg>
