<svg width="691" height="51" viewBox="0 0 691 51" fill="none" xmlns="http://www.w3.org/2000/svg">
<mask id="path-1-outside-1_1553_2603" maskUnits="userSpaceOnUse" x="-0.76049" y="-1.59383" width="692.121" height="52.8128" fill="black">
<rect fill="white" x="-0.76049" y="-1.59383" width="692.121" height="52.8128"/>
<path d="M4.99886 36.4211L5.0732 5.62116L13.6092 5.64352L13.5813 17.1715L24.5373 17.2002L24.5651 5.67222L33.1011 5.69459L33.0268 36.4945L24.4908 36.4721L24.519 24.7682L13.5631 24.7395L13.5348 36.4434L4.99886 36.4211ZM50.13 37.1113C42.518 37.0914 37.0315 31.489 37.0479 24.713L37.0481 24.625C37.0644 17.849 42.6221 12.1876 50.2781 12.2076C57.8901 12.2276 63.3766 17.8299 63.3602 24.6059L63.36 24.6939C63.3436 31.4699 57.786 37.1314 50.13 37.1113ZM50.2351 30.0276C53.2711 30.0355 55.2129 27.6206 55.2198 24.7606L55.22 24.6726C55.227 21.7686 53.121 19.2991 50.173 19.2914C47.137 19.2834 45.1952 21.6983 45.1883 24.5583L45.1881 24.6463C45.181 27.5503 47.2871 30.0198 50.2351 30.0276ZM71.2887 36.7707L64.0866 12.7718L72.2706 12.7932L75.3657 24.7694L79.0467 12.723L85.9547 12.7411L89.6214 24.8947L92.8625 12.8472L100.914 12.8683L93.5086 36.829L86.2926 36.8101L82.4505 24.4359L78.4607 36.7895L71.2887 36.7707ZM125.305 37.2203C120.289 37.2071 117.303 34.9993 117.316 29.3233L117.34 19.6433L114.524 19.636L114.54 12.904L117.356 12.9114L117.371 6.88337L125.73 6.90527L125.716 12.9333L131.26 12.9478L131.244 19.6798L125.7 19.6652L125.68 27.7172C125.676 29.3892 126.423 30.0952 127.963 30.0992C129.063 30.1021 130.119 29.7968 131.132 29.3155L131.117 35.8715C129.619 36.7036 127.637 37.2264 125.305 37.2203ZM146.294 37.3632C138.682 37.3433 133.195 31.7409 133.212 24.9649L133.212 24.8769C133.228 18.101 138.786 12.4395 146.442 12.4596C154.054 12.4795 159.54 18.0819 159.524 24.8579L159.524 24.9459C159.507 31.7218 153.95 37.3833 146.294 37.3632ZM146.399 30.2795C149.435 30.2875 151.377 27.8725 151.384 25.0125L151.384 24.9245C151.391 22.0205 149.285 19.551 146.337 19.5433C143.301 19.5353 141.359 21.9503 141.352 24.8103L141.352 24.8983C141.345 27.8023 143.451 30.2718 146.399 30.2795ZM175.229 36.8671L175.287 13.0631L183.647 13.085L183.635 17.881C185.007 14.6286 187.212 12.5224 191.171 12.7087L191.15 21.5087L190.446 21.5069C186.09 21.4955 183.62 23.997 183.607 29.497L183.589 36.889L175.229 36.8671ZM205.41 37.5181C197.93 37.4985 192.662 32.5127 192.68 25.1207L192.68 25.0327C192.697 18.0808 197.682 12.5938 204.722 12.6122C212.95 12.6338 216.72 18.6717 216.703 25.6677C216.702 26.1957 216.7 26.8117 216.655 27.3836L200.727 27.3418C201.381 29.9395 203.269 31.2645 205.865 31.2713C207.845 31.2765 209.431 30.5326 211.151 28.8651L215.762 32.7052C213.467 35.6032 210.162 37.5306 205.41 37.5181ZM200.605 23.0735L208.877 23.0952C208.575 20.4544 207.039 18.7783 204.751 18.7723C202.552 18.7666 201.051 20.4787 200.605 23.0735ZM227.079 37.5309C222.547 37.519 219.077 34.9139 219.089 30.1619L219.089 30.0739C219.101 25.146 222.847 22.6038 228.435 22.6184C230.635 22.6242 232.79 23.0698 234.153 23.5574L234.154 23.1614C234.16 20.6974 232.623 19.2854 229.411 19.2769C226.903 19.2704 224.966 19.7493 222.852 20.5798L221.15 14.6793C223.837 13.5863 226.698 12.8458 230.79 12.8565C235.058 12.8677 237.96 13.8873 239.847 15.7843C241.647 17.549 242.389 20.0149 242.381 23.3589L242.348 37.0429L234.076 37.0212L234.082 34.5572C232.45 36.357 230.203 37.5391 227.079 37.5309ZM230.084 32.3028C232.504 32.3091 234.223 30.7736 234.229 28.3976L234.232 27.2976C233.396 26.9434 232.209 26.6763 230.977 26.6731C228.557 26.6667 227.146 27.851 227.142 29.611L227.142 29.699C227.138 31.327 228.368 32.2983 230.084 32.3028ZM258.083 37.6561C250.911 37.6373 245.644 31.9915 245.66 25.2595L245.661 25.1715C245.677 18.4396 250.927 12.7773 258.451 12.797C263.335 12.8098 266.585 14.9303 268.602 18.1476L262.915 22.3567C261.775 20.7697 260.502 19.8424 258.478 19.8371C255.794 19.8301 253.808 22.2009 253.801 25.1049L253.801 25.1929C253.793 28.2729 255.724 30.6099 258.54 30.6173C260.52 30.6225 261.798 29.7018 263.121 28.1653L268.7 32.2279C266.492 35.4781 263.319 37.6698 258.083 37.6561ZM271.651 37.1197L271.728 4.99976L280.088 5.02167L280.06 16.5936C281.605 14.6177 283.809 12.8194 287.197 12.8283C292.257 12.8416 295.285 16.1935 295.272 21.6055L295.235 37.1815L286.875 37.1596L286.906 24.2676C286.912 21.6716 285.551 20.26 283.571 20.2548C281.547 20.2495 280.048 21.6536 280.042 24.2496L280.011 37.1416L271.651 37.1197ZM312.4 37.2264L312.475 6.42652L321.055 6.449L320.98 37.2489L312.4 37.2264ZM326.795 37.2641L326.869 6.46423L335.449 6.48671L335.375 37.2866L326.795 37.2641ZM341.189 37.3019L341.264 6.50194L349.844 6.52442L349.769 37.3243L341.189 37.3019ZM362.932 37.3588L362.988 14.0389L353.748 14.0147L353.766 6.5347L380.782 6.60548L380.764 14.0855L371.524 14.0612L371.468 37.3812L362.932 37.3588ZM384.455 37.4152L384.529 6.61529L396.409 6.64642C407.409 6.67524 413.774 13.0279 413.752 21.9159L413.752 22.0039C413.73 30.8919 407.247 37.4749 396.159 37.4459L384.455 37.4152ZM393.009 29.8696L396.485 29.8787C401.589 29.8921 404.984 27.085 404.996 22.113L404.996 22.025C405.008 17.097 401.627 14.2281 396.523 14.2147L393.047 14.2056L393.009 29.8696ZM418.099 37.5034L418.173 6.70344L427.193 6.72707L434.512 18.6703L441.889 6.76557L450.909 6.7892L450.835 37.5891L442.343 37.5669L442.386 19.8789L434.481 31.9142L434.305 31.9138L426.501 19.9253L426.459 37.5253L418.099 37.5034ZM476.772 38.1851C471.404 38.171 468.109 35.9184 465.96 32.9647L471.473 27.7872C472.965 29.5951 474.37 30.6548 476.262 30.6597C478.418 30.6654 479.786 29.2169 479.792 26.3569L479.839 6.865L488.331 6.88725L488.284 26.4232C488.275 30.2952 487.3 33.0206 485.227 35.0832C483.198 37.1019 480.292 38.1943 476.772 38.1851ZM499.672 38.2451C495.14 38.2332 491.67 35.6281 491.681 30.8761L491.682 30.7881C491.694 25.8601 495.44 23.3179 501.028 23.3326C503.228 23.3383 505.383 23.784 506.745 24.2715L506.746 23.8755C506.752 21.4116 505.216 19.9995 502.004 19.9911C499.496 19.9845 497.559 20.4635 495.445 21.2939L493.743 15.3935C496.43 14.3005 499.291 13.56 503.383 13.5707C507.651 13.5819 510.553 14.6015 512.44 16.4984C514.24 18.2632 514.982 20.7291 514.974 24.0731L514.941 37.7571L506.669 37.7354L506.675 35.2714C505.043 37.0711 502.796 38.2532 499.672 38.2451ZM502.676 33.0169C505.096 33.0233 506.816 31.4878 506.822 29.1118L506.824 28.0118C505.989 27.6576 504.802 27.3905 503.57 27.3872C501.15 27.3809 499.739 28.5652 499.735 30.3252L499.735 30.4132C499.731 32.0412 500.96 33.0124 502.676 33.0169ZM534.811 38.3371C531.203 38.3277 529.095 36.6941 527.56 34.8861L527.553 37.7901L519.193 37.7682L519.27 5.6483L527.63 5.6702L527.603 17.1542C529.235 15.1784 531.263 13.4677 534.827 13.4771C540.503 13.492 545.376 18.2127 545.358 25.8247L545.357 25.9127C545.339 33.6567 540.443 38.3519 534.811 38.3371ZM532.232 31.3343C534.96 31.3415 537.122 29.1471 537.129 25.9352L537.13 25.8472C537.137 22.7232 534.987 20.4735 532.259 20.4664C529.575 20.4593 527.413 22.6977 527.406 25.8217L527.405 25.9097C527.398 29.0777 529.548 31.3273 532.232 31.3343ZM555.746 38.392C551.214 38.3801 547.744 35.775 547.756 31.023L547.756 30.935C547.768 26.007 551.514 23.4648 557.102 23.4795C559.302 23.4852 561.457 23.9309 562.819 24.4185L562.82 24.0225C562.826 21.5585 561.29 20.1464 558.078 20.138C555.57 20.1314 553.633 20.6104 551.519 21.4408L549.817 15.5404C552.504 14.4474 555.365 13.7069 559.457 13.7176C563.725 13.7288 566.627 14.7484 568.514 16.6454C570.314 18.4101 571.056 20.876 571.048 24.22L571.015 37.904L562.743 37.8823L562.749 35.4183C561.117 37.218 558.87 38.4002 555.746 38.392ZM558.75 33.1638C561.17 33.1702 562.89 31.6347 562.896 29.2587L562.898 28.1587C562.063 27.8045 560.876 27.5374 559.644 27.5341C557.224 27.5278 555.813 28.7121 555.809 30.4721L555.809 30.5601C555.805 32.1881 557.034 33.1593 558.75 33.1638ZM575.443 37.9156L575.52 5.79567L583.88 5.81757L583.803 37.9375L575.443 37.9156ZM588.441 44.9897L588.516 14.1457L596.876 14.1676L596.868 17.3356C598.501 15.3599 600.529 13.6492 604.093 13.6586C609.769 13.6734 614.641 18.3942 614.623 26.0062L614.623 26.0942C614.604 33.8382 609.709 38.5334 604.077 38.5186C600.469 38.5091 598.361 36.8756 596.825 35.0676L596.801 45.0116L588.441 44.9897ZM601.498 31.5158C604.226 31.523 606.387 29.3286 606.395 26.1166L606.395 26.0286C606.403 22.9046 604.252 20.655 601.524 20.6478C598.84 20.6408 596.679 22.8792 596.671 26.0031L596.671 26.0911C596.663 29.2591 598.814 31.5088 601.498 31.5158ZM626.111 38.5763C621.051 38.5631 618.023 35.2111 618.036 29.7991L618.074 14.2232L626.434 14.2451L626.403 27.137C626.396 29.733 627.757 31.1446 629.781 31.1499C631.761 31.1551 633.26 29.751 633.267 27.155L633.298 14.2631L641.658 14.285L641.6 38.0889L633.24 38.067L633.248 34.811C631.703 36.787 629.499 38.5852 626.111 38.5763ZM646.079 38.1006L646.137 14.2967L654.496 14.3186L654.485 19.1146C655.857 15.8622 658.062 13.7559 662.021 13.9423L662 22.7423L661.296 22.7404C656.94 22.729 654.47 25.2306 654.457 30.7306L654.439 38.1225L646.079 38.1006ZM671.083 28.1341L670.001 20.7832L670.354 20.3882C675.459 19.9615 677.266 18.7783 677.271 16.8863L677.271 16.8423C677.274 15.3463 676.089 14.4192 673.977 14.4136C671.909 14.4082 669.618 15.4582 667.546 17.3008L663.16 11.4813C665.85 8.80433 669.507 6.87791 674.567 6.89116C681.035 6.90811 685.558 10.44 685.544 16.16L685.544 16.248C685.531 21.7919 681.829 24.1582 676.942 25.3334L676.407 28.1481L671.083 28.1341ZM669.255 38.1614L669.273 30.6814L677.941 30.7041L677.923 38.1841L669.255 38.1614Z"/>
</mask>
<path d="M4.99886 36.4211L5.0732 5.62116L13.6092 5.64352L13.5813 17.1715L24.5373 17.2002L24.5651 5.67222L33.1011 5.69459L33.0268 36.4945L24.4908 36.4721L24.519 24.7682L13.5631 24.7395L13.5348 36.4434L4.99886 36.4211ZM50.13 37.1113C42.518 37.0914 37.0315 31.489 37.0479 24.713L37.0481 24.625C37.0644 17.849 42.6221 12.1876 50.2781 12.2076C57.8901 12.2276 63.3766 17.8299 63.3602 24.6059L63.36 24.6939C63.3436 31.4699 57.786 37.1314 50.13 37.1113ZM50.2351 30.0276C53.2711 30.0355 55.2129 27.6206 55.2198 24.7606L55.22 24.6726C55.227 21.7686 53.121 19.2991 50.173 19.2914C47.137 19.2834 45.1952 21.6983 45.1883 24.5583L45.1881 24.6463C45.181 27.5503 47.2871 30.0198 50.2351 30.0276ZM71.2887 36.7707L64.0866 12.7718L72.2706 12.7932L75.3657 24.7694L79.0467 12.723L85.9547 12.7411L89.6214 24.8947L92.8625 12.8472L100.914 12.8683L93.5086 36.829L86.2926 36.8101L82.4505 24.4359L78.4607 36.7895L71.2887 36.7707ZM125.305 37.2203C120.289 37.2071 117.303 34.9993 117.316 29.3233L117.34 19.6433L114.524 19.636L114.54 12.904L117.356 12.9114L117.371 6.88337L125.73 6.90527L125.716 12.9333L131.26 12.9478L131.244 19.6798L125.7 19.6652L125.68 27.7172C125.676 29.3892 126.423 30.0952 127.963 30.0992C129.063 30.1021 130.119 29.7968 131.132 29.3155L131.117 35.8715C129.619 36.7036 127.637 37.2264 125.305 37.2203ZM146.294 37.3632C138.682 37.3433 133.195 31.7409 133.212 24.9649L133.212 24.8769C133.228 18.101 138.786 12.4395 146.442 12.4596C154.054 12.4795 159.54 18.0819 159.524 24.8579L159.524 24.9459C159.507 31.7218 153.95 37.3833 146.294 37.3632ZM146.399 30.2795C149.435 30.2875 151.377 27.8725 151.384 25.0125L151.384 24.9245C151.391 22.0205 149.285 19.551 146.337 19.5433C143.301 19.5353 141.359 21.9503 141.352 24.8103L141.352 24.8983C141.345 27.8023 143.451 30.2718 146.399 30.2795ZM175.229 36.8671L175.287 13.0631L183.647 13.085L183.635 17.881C185.007 14.6286 187.212 12.5224 191.171 12.7087L191.15 21.5087L190.446 21.5069C186.09 21.4955 183.62 23.997 183.607 29.497L183.589 36.889L175.229 36.8671ZM205.41 37.5181C197.93 37.4985 192.662 32.5127 192.68 25.1207L192.68 25.0327C192.697 18.0808 197.682 12.5938 204.722 12.6122C212.95 12.6338 216.72 18.6717 216.703 25.6677C216.702 26.1957 216.7 26.8117 216.655 27.3836L200.727 27.3418C201.381 29.9395 203.269 31.2645 205.865 31.2713C207.845 31.2765 209.431 30.5326 211.151 28.8651L215.762 32.7052C213.467 35.6032 210.162 37.5306 205.41 37.5181ZM200.605 23.0735L208.877 23.0952C208.575 20.4544 207.039 18.7783 204.751 18.7723C202.552 18.7666 201.051 20.4787 200.605 23.0735ZM227.079 37.5309C222.547 37.519 219.077 34.9139 219.089 30.1619L219.089 30.0739C219.101 25.146 222.847 22.6038 228.435 22.6184C230.635 22.6242 232.79 23.0698 234.153 23.5574L234.154 23.1614C234.16 20.6974 232.623 19.2854 229.411 19.2769C226.903 19.2704 224.966 19.7493 222.852 20.5798L221.15 14.6793C223.837 13.5863 226.698 12.8458 230.79 12.8565C235.058 12.8677 237.96 13.8873 239.847 15.7843C241.647 17.549 242.389 20.0149 242.381 23.3589L242.348 37.0429L234.076 37.0212L234.082 34.5572C232.45 36.357 230.203 37.5391 227.079 37.5309ZM230.084 32.3028C232.504 32.3091 234.223 30.7736 234.229 28.3976L234.232 27.2976C233.396 26.9434 232.209 26.6763 230.977 26.6731C228.557 26.6667 227.146 27.851 227.142 29.611L227.142 29.699C227.138 31.327 228.368 32.2983 230.084 32.3028ZM258.083 37.6561C250.911 37.6373 245.644 31.9915 245.66 25.2595L245.661 25.1715C245.677 18.4396 250.927 12.7773 258.451 12.797C263.335 12.8098 266.585 14.9303 268.602 18.1476L262.915 22.3567C261.775 20.7697 260.502 19.8424 258.478 19.8371C255.794 19.8301 253.808 22.2009 253.801 25.1049L253.801 25.1929C253.793 28.2729 255.724 30.6099 258.54 30.6173C260.52 30.6225 261.798 29.7018 263.121 28.1653L268.7 32.2279C266.492 35.4781 263.319 37.6698 258.083 37.6561ZM271.651 37.1197L271.728 4.99976L280.088 5.02167L280.06 16.5936C281.605 14.6177 283.809 12.8194 287.197 12.8283C292.257 12.8416 295.285 16.1935 295.272 21.6055L295.235 37.1815L286.875 37.1596L286.906 24.2676C286.912 21.6716 285.551 20.26 283.571 20.2548C281.547 20.2495 280.048 21.6536 280.042 24.2496L280.011 37.1416L271.651 37.1197ZM312.4 37.2264L312.475 6.42652L321.055 6.449L320.98 37.2489L312.4 37.2264ZM326.795 37.2641L326.869 6.46423L335.449 6.48671L335.375 37.2866L326.795 37.2641ZM341.189 37.3019L341.264 6.50194L349.844 6.52442L349.769 37.3243L341.189 37.3019ZM362.932 37.3588L362.988 14.0389L353.748 14.0147L353.766 6.5347L380.782 6.60548L380.764 14.0855L371.524 14.0612L371.468 37.3812L362.932 37.3588ZM384.455 37.4152L384.529 6.61529L396.409 6.64642C407.409 6.67524 413.774 13.0279 413.752 21.9159L413.752 22.0039C413.73 30.8919 407.247 37.4749 396.159 37.4459L384.455 37.4152ZM393.009 29.8696L396.485 29.8787C401.589 29.8921 404.984 27.085 404.996 22.113L404.996 22.025C405.008 17.097 401.627 14.2281 396.523 14.2147L393.047 14.2056L393.009 29.8696ZM418.099 37.5034L418.173 6.70344L427.193 6.72707L434.512 18.6703L441.889 6.76557L450.909 6.7892L450.835 37.5891L442.343 37.5669L442.386 19.8789L434.481 31.9142L434.305 31.9138L426.501 19.9253L426.459 37.5253L418.099 37.5034ZM476.772 38.1851C471.404 38.171 468.109 35.9184 465.96 32.9647L471.473 27.7872C472.965 29.5951 474.37 30.6548 476.262 30.6597C478.418 30.6654 479.786 29.2169 479.792 26.3569L479.839 6.865L488.331 6.88725L488.284 26.4232C488.275 30.2952 487.3 33.0206 485.227 35.0832C483.198 37.1019 480.292 38.1943 476.772 38.1851ZM499.672 38.2451C495.14 38.2332 491.67 35.6281 491.681 30.8761L491.682 30.7881C491.694 25.8601 495.44 23.3179 501.028 23.3326C503.228 23.3383 505.383 23.784 506.745 24.2715L506.746 23.8755C506.752 21.4116 505.216 19.9995 502.004 19.9911C499.496 19.9845 497.559 20.4635 495.445 21.2939L493.743 15.3935C496.43 14.3005 499.291 13.56 503.383 13.5707C507.651 13.5819 510.553 14.6015 512.44 16.4984C514.24 18.2632 514.982 20.7291 514.974 24.0731L514.941 37.7571L506.669 37.7354L506.675 35.2714C505.043 37.0711 502.796 38.2532 499.672 38.2451ZM502.676 33.0169C505.096 33.0233 506.816 31.4878 506.822 29.1118L506.824 28.0118C505.989 27.6576 504.802 27.3905 503.57 27.3872C501.15 27.3809 499.739 28.5652 499.735 30.3252L499.735 30.4132C499.731 32.0412 500.96 33.0124 502.676 33.0169ZM534.811 38.3371C531.203 38.3277 529.095 36.6941 527.56 34.8861L527.553 37.7901L519.193 37.7682L519.27 5.6483L527.63 5.6702L527.603 17.1542C529.235 15.1784 531.263 13.4677 534.827 13.4771C540.503 13.492 545.376 18.2127 545.358 25.8247L545.357 25.9127C545.339 33.6567 540.443 38.3519 534.811 38.3371ZM532.232 31.3343C534.96 31.3415 537.122 29.1471 537.129 25.9352L537.13 25.8472C537.137 22.7232 534.987 20.4735 532.259 20.4664C529.575 20.4593 527.413 22.6977 527.406 25.8217L527.405 25.9097C527.398 29.0777 529.548 31.3273 532.232 31.3343ZM555.746 38.392C551.214 38.3801 547.744 35.775 547.756 31.023L547.756 30.935C547.768 26.007 551.514 23.4648 557.102 23.4795C559.302 23.4852 561.457 23.9309 562.819 24.4185L562.82 24.0225C562.826 21.5585 561.29 20.1464 558.078 20.138C555.57 20.1314 553.633 20.6104 551.519 21.4408L549.817 15.5404C552.504 14.4474 555.365 13.7069 559.457 13.7176C563.725 13.7288 566.627 14.7484 568.514 16.6454C570.314 18.4101 571.056 20.876 571.048 24.22L571.015 37.904L562.743 37.8823L562.749 35.4183C561.117 37.218 558.87 38.4002 555.746 38.392ZM558.75 33.1638C561.17 33.1702 562.89 31.6347 562.896 29.2587L562.898 28.1587C562.063 27.8045 560.876 27.5374 559.644 27.5341C557.224 27.5278 555.813 28.7121 555.809 30.4721L555.809 30.5601C555.805 32.1881 557.034 33.1593 558.75 33.1638ZM575.443 37.9156L575.52 5.79567L583.88 5.81757L583.803 37.9375L575.443 37.9156ZM588.441 44.9897L588.516 14.1457L596.876 14.1676L596.868 17.3356C598.501 15.3599 600.529 13.6492 604.093 13.6586C609.769 13.6734 614.641 18.3942 614.623 26.0062L614.623 26.0942C614.604 33.8382 609.709 38.5334 604.077 38.5186C600.469 38.5091 598.361 36.8756 596.825 35.0676L596.801 45.0116L588.441 44.9897ZM601.498 31.5158C604.226 31.523 606.387 29.3286 606.395 26.1166L606.395 26.0286C606.403 22.9046 604.252 20.655 601.524 20.6478C598.84 20.6408 596.679 22.8792 596.671 26.0031L596.671 26.0911C596.663 29.2591 598.814 31.5088 601.498 31.5158ZM626.111 38.5763C621.051 38.5631 618.023 35.2111 618.036 29.7991L618.074 14.2232L626.434 14.2451L626.403 27.137C626.396 29.733 627.757 31.1446 629.781 31.1499C631.761 31.1551 633.26 29.751 633.267 27.155L633.298 14.2631L641.658 14.285L641.6 38.0889L633.24 38.067L633.248 34.811C631.703 36.787 629.499 38.5852 626.111 38.5763ZM646.079 38.1006L646.137 14.2967L654.496 14.3186L654.485 19.1146C655.857 15.8622 658.062 13.7559 662.021 13.9423L662 22.7423L661.296 22.7404C656.94 22.729 654.47 25.2306 654.457 30.7306L654.439 38.1225L646.079 38.1006ZM671.083 28.1341L670.001 20.7832L670.354 20.3882C675.459 19.9615 677.266 18.7783 677.271 16.8863L677.271 16.8423C677.274 15.3463 676.089 14.4192 673.977 14.4136C671.909 14.4082 669.618 15.4582 667.546 17.3008L663.16 11.4813C665.85 8.80433 669.507 6.87791 674.567 6.89116C681.035 6.90811 685.558 10.44 685.544 16.16L685.544 16.248C685.531 21.7919 681.829 24.1582 676.942 25.3334L676.407 28.1481L671.083 28.1341ZM669.255 38.1614L669.273 30.6814L677.941 30.7041L677.923 38.1841L669.255 38.1614Z" fill="white"/>
<path d="M4.99886 36.4211L-0.00111798 36.408C-0.0077825 39.1694 2.22538 41.4138 4.9868 41.4211L4.99886 36.4211ZM5.0732 5.62116L5.08527 0.621172C2.32385 0.613937 0.0798802 2.84664 0.0732157 5.60806L5.0732 5.62116ZM13.6092 5.64352L18.6092 5.65662C18.6158 2.8952 16.3827 0.65077 13.6212 0.643535L13.6092 5.64352ZM13.5813 17.1715L8.58136 17.1584C8.5747 19.9198 10.8079 22.1642 13.5693 22.1715L13.5813 17.1715ZM24.5373 17.2002L24.5252 22.2002C27.2867 22.2074 29.5306 19.9747 29.5373 17.2133L24.5373 17.2002ZM24.5651 5.67222L24.5772 0.672239C21.8158 0.665004 19.5718 2.89771 19.5651 5.65912L24.5651 5.67222ZM33.1011 5.69459L38.1011 5.70769C38.1078 2.94627 35.8746 0.701837 33.1132 0.694602L33.1011 5.69459ZM33.0268 36.4945L33.0147 41.4945C35.7761 41.5017 38.0201 39.269 38.0268 36.5076L33.0268 36.4945ZM24.4908 36.4721L19.4908 36.459C19.4841 39.2205 21.7173 41.4649 24.4787 41.4721L24.4908 36.4721ZM24.519 24.7682L29.519 24.7813C29.5257 22.0199 27.2925 19.7754 24.5311 19.7682L24.519 24.7682ZM13.5631 24.7395L13.5751 19.7395C10.8137 19.7322 8.56976 21.965 8.5631 24.7264L13.5631 24.7395ZM13.5348 36.4434L13.5228 41.4434C16.2842 41.4507 18.5282 39.2179 18.5348 36.4565L13.5348 36.4434ZM4.99886 36.4211L9.99885 36.4342L10.0732 5.63426L5.0732 5.62116L0.0732157 5.60806L-0.00111798 36.408L4.99886 36.4211ZM5.0732 5.62116L5.06113 10.6211L13.5971 10.6435L13.6092 5.64352L13.6212 0.643535L5.08527 0.621172L5.0732 5.62116ZM13.6092 5.64352L8.60919 5.63042L8.58136 17.1584L13.5813 17.1715L18.5813 17.1846L18.6092 5.65662L13.6092 5.64352ZM13.5813 17.1715L13.5693 22.1715L24.5252 22.2002L24.5373 17.2002L24.5494 12.2002L13.5934 12.1715L13.5813 17.1715ZM24.5373 17.2002L29.5373 17.2133L29.5651 5.68532L24.5651 5.67222L19.5651 5.65912L19.5373 17.1871L24.5373 17.2002ZM24.5651 5.67222L24.5531 10.6722L33.089 10.6946L33.1011 5.69459L33.1132 0.694602L24.5772 0.672239L24.5651 5.67222ZM33.1011 5.69459L28.1011 5.68149L28.0268 36.4814L33.0268 36.4945L38.0268 36.5076L38.1011 5.70769L33.1011 5.69459ZM33.0268 36.4945L33.0388 31.4945L24.5029 31.4722L24.4908 36.4721L24.4787 41.4721L33.0147 41.4945L33.0268 36.4945ZM24.4908 36.4721L29.4908 36.4852L29.519 24.7813L24.519 24.7682L19.5191 24.7551L19.4908 36.459L24.4908 36.4721ZM24.519 24.7682L24.5311 19.7682L13.5751 19.7395L13.5631 24.7395L13.551 29.7395L24.507 29.7682L24.519 24.7682ZM13.5631 24.7395L8.5631 24.7264L8.53485 36.4303L13.5348 36.4434L18.5348 36.4565L18.5631 24.7526L13.5631 24.7395ZM13.5348 36.4434L13.5469 31.4434L5.01093 31.4211L4.99886 36.4211L4.9868 41.4211L13.5228 41.4434L13.5348 36.4434ZM50.13 37.1113L50.1421 32.1113C45.1198 32.0982 42.0386 28.572 42.0479 24.7261L37.0479 24.713L32.0479 24.6999C32.0245 34.4059 39.9162 42.0846 50.1179 42.1113L50.13 37.1113ZM37.0479 24.713L42.0479 24.7261L42.0481 24.6381L37.0481 24.625L32.0481 24.6119L32.0479 24.6999L37.0479 24.713ZM37.0481 24.625L42.0481 24.6381C42.0574 20.7797 45.2127 17.1944 50.266 17.2076L50.2781 12.2076L50.2902 7.20763C40.0316 7.18075 32.0715 14.9183 32.0481 24.6119L37.0481 24.625ZM50.2781 12.2076L50.266 17.2076C55.2883 17.2208 58.3695 20.7469 58.3602 24.5928L63.3602 24.6059L68.3602 24.619C68.3836 14.913 60.4919 7.23435 50.2902 7.20763L50.2781 12.2076ZM63.3602 24.6059L58.3602 24.5928L58.36 24.6808L63.36 24.6939L68.36 24.707L68.3602 24.619L63.3602 24.6059ZM63.36 24.6939L58.36 24.6808C58.3507 28.5392 55.1954 32.1246 50.1421 32.1113L50.13 37.1113L50.1179 42.1113C60.3765 42.1382 68.3366 34.4006 68.36 24.707L63.36 24.6939ZM50.2351 30.0276L50.223 35.0275C56.517 35.044 60.2075 29.8709 60.2198 24.7737L55.2198 24.7606L50.2198 24.7475C50.2191 25.066 50.1127 25.1619 50.1497 25.1209C50.1708 25.0974 50.2125 25.0631 50.2669 25.039C50.2913 25.0282 50.3072 25.0244 50.31 25.0238C50.3126 25.0233 50.2933 25.0277 50.2471 25.0276L50.2351 30.0276ZM55.2198 24.7606L60.2198 24.7737L60.22 24.6857L55.22 24.6726L50.22 24.6595L50.2198 24.7475L55.2198 24.7606ZM55.22 24.6726L60.22 24.6857C60.2327 19.4437 56.2997 14.3074 50.1851 14.2914L50.173 19.2914L50.1609 24.2913C50.1904 24.2914 50.174 24.2952 50.139 24.2793C50.1089 24.2656 50.1003 24.2534 50.109 24.263C50.1321 24.2883 50.2206 24.4138 50.22 24.6595L55.22 24.6726ZM50.173 19.2914L50.1851 14.2914C43.8911 14.2749 40.2006 19.4481 40.1883 24.5452L45.1883 24.5583L50.1882 24.5714C50.189 24.253 50.2954 24.157 50.2584 24.198C50.2372 24.2215 50.1956 24.2558 50.1411 24.28C50.1168 24.2908 50.1008 24.2945 50.0981 24.2951C50.0954 24.2956 50.1148 24.2912 50.1609 24.2913L50.173 19.2914ZM45.1883 24.5583L40.1883 24.5452L40.1881 24.6332L45.1881 24.6463L50.188 24.6594L50.1882 24.5714L45.1883 24.5583ZM45.1881 24.6463L40.1881 24.6332C40.1754 29.8752 44.1084 35.0115 50.223 35.0275L50.2351 30.0276L50.2471 25.0276C50.2177 25.0275 50.234 25.0237 50.2691 25.0397C50.2992 25.0534 50.3078 25.0656 50.2991 25.056C50.276 25.0306 50.1874 24.9051 50.188 24.6594L45.1881 24.6463ZM71.2887 36.7707L66.4997 38.207C67.1331 40.3175 69.0732 41.765 71.2766 41.7707L71.2887 36.7707ZM64.0866 12.7718L64.0986 7.77181C62.5159 7.76766 61.0248 8.51315 60.0786 9.78169C59.1323 11.0502 58.8426 12.692 59.2976 14.2081L64.0866 12.7718ZM72.2705 12.7932L77.1115 11.5431C76.5422 9.34028 74.5577 7.79921 72.2826 7.79325L72.2705 12.7932ZM75.3657 24.7694L70.5247 26.0195C71.085 28.1874 73.0181 29.7189 75.2566 29.7682C77.4951 29.8175 79.4931 28.3726 80.1474 26.2315L75.3657 24.7694ZM79.0467 12.723L79.0588 7.723C76.8557 7.71723 74.9088 9.1541 74.265 11.2609L79.0467 12.723ZM85.9547 12.7411L90.7416 11.2978C90.1059 9.19081 88.1674 7.74686 85.9668 7.7411L85.9547 12.7411ZM89.6214 24.8947L84.8345 26.338C85.4796 28.4761 87.4641 29.9275 89.697 29.8942C91.9299 29.8609 93.8696 28.3509 94.4497 26.1946L89.6214 24.8947ZM92.8625 12.8472L92.8745 7.8472C90.6089 7.84126 88.6227 9.35954 88.0341 11.5473L92.8625 12.8472ZM100.914 12.8683L105.691 14.3457C106.16 12.8308 105.882 11.1834 104.942 9.90597C104.002 8.62853 102.512 7.87245 100.927 7.86829L100.914 12.8683ZM93.5086 36.829L93.4965 41.8289C95.6937 41.8347 97.6369 40.4054 98.2856 38.3064L93.5086 36.829ZM86.2926 36.8101L81.5175 38.2918C82.1657 40.3794 84.0948 41.8043 86.2806 41.81L86.2926 36.8101ZM82.4505 24.4359L87.2256 22.9542C86.5791 20.8723 84.6585 19.4488 82.4787 19.436C80.2989 19.4233 78.3624 20.8242 77.6924 22.8984L82.4505 24.4359ZM78.4607 36.7895L78.4486 41.7895C80.6225 41.7952 82.5506 40.3956 83.2187 38.3271L78.4607 36.7895ZM71.2887 36.7707L76.0777 35.3345L68.8756 11.3355L64.0866 12.7718L59.2976 14.2081L66.4997 38.207L71.2887 36.7707ZM64.0866 12.7718L64.0745 17.7718L72.2585 17.7932L72.2705 12.7932L72.2826 7.79325L64.0986 7.77181L64.0866 12.7718ZM72.2705 12.7932L67.4296 14.0434L70.5247 26.0195L75.3657 24.7694L80.2066 23.5192L77.1115 11.5431L72.2705 12.7932ZM75.3657 24.7694L80.1474 26.2315L83.8285 14.1851L79.0467 12.723L74.265 11.2609L70.5839 23.3073L75.3657 24.7694ZM79.0467 12.723L79.0347 17.723L85.9427 17.7411L85.9547 12.7411L85.9668 7.7411L79.0588 7.723L79.0467 12.723ZM85.9547 12.7411L81.1679 14.1844L84.8345 26.338L89.6214 24.8947L94.4083 23.4515L90.7416 11.2978L85.9547 12.7411ZM89.6214 24.8947L94.4497 26.1946L97.6908 14.1471L92.8625 12.8472L88.0341 11.5473L84.7931 23.5949L89.6214 24.8947ZM92.8625 12.8472L92.8504 17.8472L100.902 17.8683L100.914 12.8683L100.927 7.86829L92.8745 7.8472L92.8625 12.8472ZM100.914 12.8683L96.1374 11.3909L88.7316 35.3516L93.5086 36.829L98.2856 38.3064L105.691 14.3457L100.914 12.8683ZM93.5086 36.829L93.5207 31.829L86.3047 31.8101L86.2926 36.8101L86.2806 41.81L93.4965 41.8289L93.5086 36.829ZM86.2926 36.8101L91.0677 35.3283L87.2256 22.9542L82.4505 24.4359L77.6754 25.9177L81.5175 38.2918L86.2926 36.8101ZM82.4505 24.4359L77.6924 22.8984L73.7026 35.252L78.4607 36.7895L83.2187 38.3271L87.2085 25.9735L82.4505 24.4359ZM78.4607 36.7895L78.4727 31.7895L71.3007 31.7708L71.2887 36.7707L71.2766 41.7707L78.4486 41.7895L78.4607 36.7895ZM117.34 19.6433L122.34 19.6564C122.346 16.895 120.113 14.6506 117.352 14.6433L117.34 19.6433ZM114.524 19.636L109.524 19.6229C109.517 22.3843 111.75 24.6287 114.512 24.6359L114.524 19.636ZM114.54 12.904L114.552 7.90399C111.791 7.89675 109.547 10.1295 109.54 12.8909L114.54 12.904ZM117.356 12.9114L117.344 17.9113C120.105 17.9186 122.349 15.6859 122.356 12.9245L117.356 12.9114ZM117.371 6.88337L117.383 1.88338C114.621 1.87615 112.377 4.10885 112.371 6.87027L117.371 6.88337ZM125.73 6.90527L130.73 6.91837C130.737 4.15696 128.504 1.91252 125.743 1.90529L125.73 6.90527ZM125.716 12.9333L120.716 12.9202C120.709 15.6816 122.942 17.926 125.704 17.9332L125.716 12.9333ZM131.26 12.9478L136.26 12.9609C136.267 10.1995 134.033 7.95503 131.272 7.94779L131.26 12.9478ZM131.244 19.6798L131.232 24.6797C133.993 24.687 136.237 22.4543 136.244 19.6929L131.244 19.6798ZM125.7 19.6652L125.712 14.6652C122.95 14.658 120.706 16.8907 120.7 19.6521L125.7 19.6652ZM131.132 29.3155L136.132 29.3286C136.137 27.6113 135.259 26.0119 133.808 25.0925C132.358 24.173 130.537 24.0623 128.986 24.7992L131.132 29.3155ZM131.117 35.8715L133.545 40.2426C135.129 39.3631 136.112 37.6959 136.117 35.8846L131.117 35.8715ZM125.305 37.2203L125.317 32.2203C123.428 32.2153 122.885 31.7856 122.811 31.7172C122.776 31.6853 122.675 31.588 122.566 31.28C122.446 30.9402 122.314 30.332 122.316 29.3364L117.316 29.3233L112.316 29.3102C112.307 32.9881 113.283 36.5369 116.039 39.0735C118.708 41.5313 122.166 42.2121 125.293 42.2202L125.305 37.2203ZM117.316 29.3233L122.316 29.3364L122.34 19.6564L117.34 19.6433L112.34 19.6302L112.316 29.3102L117.316 29.3233ZM117.34 19.6433L117.352 14.6433L114.536 14.636L114.524 19.636L114.512 24.6359L117.328 24.6433L117.34 19.6433ZM114.524 19.636L119.524 19.6491L119.54 12.9171L114.54 12.904L109.54 12.8909L109.524 19.6229L114.524 19.636ZM114.54 12.904L114.528 17.904L117.344 17.9113L117.356 12.9114L117.368 7.91137L114.552 7.90399L114.54 12.904ZM117.356 12.9114L122.356 12.9245L122.37 6.89647L117.371 6.88337L112.371 6.87027L112.356 12.8983L117.356 12.9114ZM117.371 6.88337L117.358 11.8834L125.718 11.9053L125.73 6.90527L125.743 1.90529L117.383 1.88338L117.371 6.88337ZM125.73 6.90527L120.73 6.89217L120.716 12.9202L125.716 12.9333L130.716 12.9464L130.73 6.91837L125.73 6.90527ZM125.716 12.9333L125.704 17.9332L131.248 17.9478L131.26 12.9478L131.272 7.94779L125.728 7.93327L125.716 12.9333ZM131.26 12.9478L126.26 12.9347L126.244 19.6667L131.244 19.6798L136.244 19.6929L136.26 12.9609L131.26 12.9478ZM131.244 19.6798L131.256 14.6798L125.712 14.6652L125.7 19.6652L125.688 24.6652L131.232 24.6797L131.244 19.6798ZM125.7 19.6652L120.7 19.6521L120.68 27.7041L125.68 27.7172L130.68 27.7303L130.7 19.6783L125.7 19.6652ZM125.68 27.7172L120.68 27.7041C120.677 29.1703 120.987 31.3151 122.673 33.0344C124.376 34.7712 126.521 35.0954 127.95 35.0992L127.963 30.0992L127.975 25.0992C127.864 25.0989 128.865 25.0682 129.812 26.033C130.741 26.9803 130.68 27.9362 130.68 27.7303L125.68 27.7172ZM127.963 30.0992L127.95 35.0992C129.999 35.1045 131.801 34.534 133.279 33.8318L131.132 29.3155L128.986 24.7992C128.438 25.0597 128.126 25.0996 127.975 25.0992L127.963 30.0992ZM131.132 29.3155L126.132 29.3024L126.117 35.8584L131.117 35.8715L136.117 35.8846L136.132 29.3286L131.132 29.3155ZM131.117 35.8715L128.688 31.5004C128.033 31.8645 126.913 32.2245 125.317 32.2203L125.305 37.2203L125.293 42.2202C128.362 42.2283 131.205 41.5426 133.545 40.2426L131.117 35.8715ZM146.294 37.3632L146.306 32.3633C141.284 32.3501 138.202 28.824 138.212 24.978L133.212 24.9649L128.212 24.9518C128.188 34.6578 136.08 42.3365 146.282 42.3632L146.294 37.3632ZM133.212 24.9649L138.212 24.978L138.212 24.89L133.212 24.8769L128.212 24.8638L128.212 24.9518L133.212 24.9649ZM133.212 24.8769L138.212 24.89C138.221 21.0316 141.376 17.4463 146.43 17.4595L146.442 12.4596L146.454 7.45957C136.195 7.43269 128.235 15.1703 128.212 24.8638L133.212 24.8769ZM146.442 12.4596L146.43 17.4595C151.452 17.4727 154.533 20.9988 154.524 24.8448L159.524 24.8579L164.524 24.871C164.547 15.165 156.656 7.48629 146.454 7.45957L146.442 12.4596ZM159.524 24.8579L154.524 24.8448L154.524 24.9328L159.524 24.9459L164.524 24.959L164.524 24.871L159.524 24.8579ZM159.524 24.9459L154.524 24.9328C154.514 28.7912 151.359 32.3765 146.306 32.3633L146.294 37.3632L146.282 42.3632C156.54 42.3901 164.5 34.6525 164.524 24.959L159.524 24.9459ZM146.399 30.2795L146.387 35.2795C152.681 35.296 156.371 30.1228 156.384 25.0256L151.384 25.0125L146.384 24.9994C146.383 25.3179 146.276 25.4138 146.313 25.3728C146.335 25.3493 146.376 25.315 146.431 25.2909C146.455 25.2801 146.471 25.2763 146.474 25.2758C146.476 25.2752 146.457 25.2796 146.411 25.2795L146.399 30.2795ZM151.384 25.0125L156.384 25.0256L156.384 24.9376L151.384 24.9245L146.384 24.9114L146.384 24.9994L151.384 25.0125ZM151.384 24.9245L156.384 24.9376C156.396 19.6957 152.463 14.5593 146.349 14.5433L146.337 19.5433L146.325 24.5433C146.354 24.5434 146.338 24.5471 146.303 24.5312C146.273 24.5175 146.264 24.5053 146.273 24.5149C146.296 24.5403 146.384 24.6658 146.384 24.9114L151.384 24.9245ZM146.337 19.5433L146.349 14.5433C140.055 14.5268 136.364 19.7 136.352 24.7972L141.352 24.8103L146.352 24.8234C146.353 24.5049 146.459 24.409 146.422 24.45C146.401 24.4735 146.359 24.5078 146.305 24.5319C146.281 24.5427 146.265 24.5465 146.262 24.547C146.259 24.5476 146.278 24.5432 146.325 24.5433L146.337 19.5433ZM141.352 24.8103L136.352 24.7972L136.352 24.8852L141.352 24.8983L146.352 24.9114L146.352 24.8234L141.352 24.8103ZM141.352 24.8983L136.352 24.8852C136.339 30.1271 140.272 35.2635 146.387 35.2795L146.399 30.2795L146.411 25.2795C146.381 25.2794 146.398 25.2757 146.433 25.2916C146.463 25.3053 146.472 25.3175 146.463 25.3079C146.44 25.2825 146.351 25.157 146.352 24.9114L141.352 24.8983ZM175.229 36.8671L170.229 36.854C170.222 39.6154 172.456 41.8598 175.217 41.867L175.229 36.8671ZM175.287 13.0631L175.299 8.06314C172.537 8.0559 170.293 10.2886 170.287 13.05L175.287 13.0631ZM183.647 13.085L188.647 13.0981C188.653 10.3367 186.42 8.09228 183.659 8.08504L183.647 13.085ZM183.635 17.881L178.635 17.8679C178.629 20.2495 180.304 22.305 182.638 22.7804C184.972 23.2558 187.316 22.0192 188.242 19.825L183.635 17.881ZM191.171 12.7087L196.171 12.7218C196.178 10.0468 194.078 7.84004 191.406 7.71427L191.171 12.7087ZM191.15 21.5087L191.138 26.5087C193.9 26.5159 196.144 24.2832 196.15 21.5218L191.15 21.5087ZM183.589 36.889L183.577 41.8889C186.338 41.8962 188.582 39.6635 188.589 36.9021L183.589 36.889ZM175.229 36.8671L180.229 36.8802L180.287 13.0762L175.287 13.0631L170.287 13.05L170.229 36.854L175.229 36.8671ZM175.287 13.0631L175.275 18.0631L183.634 18.085L183.647 13.085L183.659 8.08504L175.299 8.06314L175.287 13.0631ZM183.647 13.085L178.647 13.0719L178.635 17.8679L183.635 17.881L188.635 17.8941L188.647 13.0981L183.647 13.085ZM183.635 17.881L188.242 19.825C188.723 18.6841 189.162 18.2081 189.426 18.011C189.596 17.8838 189.958 17.6571 190.937 17.7032L191.171 12.7087L191.406 7.71427C188.425 7.57399 185.705 8.30725 183.44 9.99964C181.268 11.6222 179.919 13.8255 179.028 15.937L183.635 17.881ZM191.171 12.7087L186.171 12.6956L186.15 21.4956L191.15 21.5087L196.15 21.5218L196.171 12.7218L191.171 12.7087ZM191.15 21.5087L191.162 16.5087L190.458 16.5069L190.446 21.5069L190.434 26.5069L191.138 26.5087L191.15 21.5087ZM190.446 21.5069L190.458 16.5069C187.315 16.4986 184.045 17.4255 181.658 20.1162C179.372 22.692 178.615 26.0883 178.607 29.4839L183.607 29.497L188.607 29.5101C188.612 27.4057 189.097 26.8012 189.138 26.7541C189.152 26.7392 189.178 26.7041 189.309 26.6547C189.468 26.5947 189.814 26.5052 190.434 26.5069L190.446 21.5069ZM183.607 29.497L178.607 29.4839L178.589 36.8759L183.589 36.889L188.589 36.9021L188.607 29.5101L183.607 29.497ZM183.589 36.889L183.601 31.889L175.241 31.8671L175.229 36.8671L175.217 41.867L183.577 41.8889L183.589 36.889ZM216.655 27.3836L216.643 32.3835C219.255 32.3904 221.432 30.3846 221.639 27.7801L216.655 27.3836ZM200.727 27.3418L200.739 22.3418C199.196 22.3378 197.737 23.0465 196.787 24.2623C195.837 25.478 195.501 27.0645 195.878 28.5611L200.727 27.3418ZM211.151 28.8651L214.351 25.0234C212.386 23.3876 209.505 23.4961 207.67 25.2749L211.151 28.8651ZM215.762 32.7052L219.682 35.8099C221.366 33.6829 221.047 30.6002 218.961 28.8635L215.762 32.7052ZM200.605 23.0735L195.677 22.225C195.428 23.6758 195.83 25.163 196.778 26.2901C197.725 27.4172 199.121 28.0696 200.593 28.0735L200.605 23.0735ZM208.877 23.0952L208.865 28.0951C210.292 28.0989 211.652 27.4927 212.604 26.4293C213.555 25.3659 214.007 23.9466 213.845 22.5288L208.877 23.0952ZM205.41 37.5181L205.422 32.5181C202.803 32.5113 200.911 31.6514 199.707 30.488C198.521 29.3425 197.674 27.5922 197.68 25.1338L192.68 25.1207L187.68 25.1076C187.668 30.0413 189.447 34.4798 192.76 37.6802C196.055 40.8625 200.537 42.5054 205.398 42.5181L205.41 37.5181ZM192.68 25.1207L197.68 25.1338L197.68 25.0458L192.68 25.0327L187.68 25.0196L187.68 25.1076L192.68 25.1207ZM192.68 25.0327L197.68 25.0458C197.691 20.5905 200.689 17.6017 204.71 17.6122L204.722 12.6122L204.734 7.61226C194.676 7.5859 187.703 15.571 187.68 25.0196L192.68 25.0327ZM204.722 12.6122L204.71 17.6122C207.484 17.6195 209.016 18.5767 209.948 19.7057C210.99 20.9691 211.709 22.9939 211.703 25.6546L216.703 25.6677L221.703 25.6808C221.713 21.3455 220.557 16.8533 217.661 13.3433C214.655 9.69908 210.189 7.62655 204.734 7.61226L204.722 12.6122ZM216.703 25.6677L211.703 25.6546C211.702 26.2179 211.698 26.6395 211.67 26.987L216.655 27.3836L221.639 27.7801C221.702 26.9838 221.702 26.1734 221.703 25.6808L216.703 25.6677ZM216.655 27.3836L216.667 22.3836L200.739 22.3418L200.727 27.3418L200.715 32.3418L216.643 32.3835L216.655 27.3836ZM200.727 27.3418L195.878 28.5611C196.443 30.8045 197.645 32.8401 199.574 34.2823C201.479 35.7064 203.707 36.2657 205.853 36.2713L205.865 31.2713L205.877 26.2713C205.65 26.2707 205.531 26.2414 205.495 26.2308C205.466 26.2219 205.5 26.2284 205.561 26.274C205.624 26.3212 205.659 26.3679 205.666 26.3794C205.67 26.3855 205.624 26.3159 205.576 26.1225L200.727 27.3418ZM205.865 31.2713L205.853 36.2713C209.45 36.2807 212.228 34.7857 214.632 32.4554L211.151 28.8651L207.67 25.2749C206.634 26.2796 206.24 26.2723 205.877 26.2713L205.865 31.2713ZM211.151 28.8651L207.952 32.7069L212.563 36.547L215.762 32.7052L218.961 28.8635L214.351 25.0234L211.151 28.8651ZM215.762 32.7052L211.842 29.6006C210.455 31.3524 208.574 32.5264 205.422 32.5181L205.41 37.5181L205.398 42.5181C211.751 42.5348 216.479 39.8541 219.682 35.8099L215.762 32.7052ZM200.605 23.0735L200.593 28.0735L208.865 28.0951L208.877 23.0952L208.889 18.0952L200.617 18.0735L200.605 23.0735ZM208.877 23.0952L213.845 22.5288C213.603 20.4091 212.814 18.2298 211.195 16.5143C209.507 14.7253 207.222 13.7788 204.764 13.7724L204.752 18.7723L204.739 23.7723C204.694 23.7722 204.555 23.7615 204.37 23.683C204.183 23.6037 204.029 23.4892 203.923 23.3771C203.72 23.1613 203.85 23.1405 203.909 23.6616L208.877 23.0952ZM204.752 18.7723L204.764 13.7724C202.236 13.7657 200 14.7949 198.375 16.5246C196.833 18.1668 196.02 20.2324 195.677 22.225L200.605 23.0735L205.533 23.9219C205.581 23.6388 205.646 23.4602 205.687 23.3685C205.728 23.2773 205.736 23.2963 205.666 23.3707C205.59 23.4515 205.451 23.5671 205.246 23.6568C205.038 23.7478 204.853 23.7726 204.739 23.7723L204.752 18.7723ZM234.153 23.5574L232.469 28.2651C233.999 28.8123 235.698 28.5825 237.027 27.6491C238.356 26.7156 239.149 25.1947 239.153 23.5705L234.153 23.5574ZM222.852 20.5798L218.048 21.9644C218.438 23.3168 219.38 24.4423 220.642 25.0646C221.905 25.6868 223.371 25.7482 224.681 25.2336L222.852 20.5798ZM221.15 14.6793L219.265 10.0478C216.897 11.0113 215.637 13.6068 216.346 16.064L221.15 14.6793ZM239.847 15.7843L236.303 19.3105C236.318 19.3251 236.332 19.3396 236.347 19.354L239.847 15.7843ZM242.348 37.0429L242.336 42.0429C245.097 42.0501 247.341 39.8174 247.348 37.056L242.348 37.0429ZM234.076 37.0212L229.076 37.0081C229.07 39.7695 231.303 42.014 234.064 42.0212L234.076 37.0212ZM234.082 34.5572L239.082 34.5703C239.087 32.5013 237.817 30.6427 235.888 29.8951C233.958 29.1474 231.768 29.6653 230.378 31.1977L234.082 34.5572ZM234.232 27.2976L239.232 27.3107C239.236 25.299 238.035 23.48 236.183 22.6945L234.232 27.2976ZM227.079 37.5309L227.091 32.5309C225.741 32.5274 224.993 32.1404 224.662 31.8527C224.422 31.6441 224.086 31.2358 224.089 30.175L219.089 30.1619L214.089 30.1488C214.08 33.8401 215.473 37.1103 218.098 39.3953C220.632 41.601 223.885 42.5225 227.067 42.5309L227.079 37.5309ZM219.089 30.1619L224.089 30.175L224.089 30.087L219.089 30.0739L214.089 30.0608L214.089 30.1488L219.089 30.1619ZM219.089 30.0739L224.089 30.087C224.091 29.0342 224.414 28.6899 224.706 28.4667C225.18 28.1044 226.304 27.6128 228.423 27.6184L228.435 22.6184L228.447 17.6184C224.978 17.6093 221.434 18.3815 218.636 20.5186C215.655 22.7949 214.098 26.1857 214.089 30.0608L219.089 30.0739ZM228.435 22.6184L228.423 27.6184C230.046 27.6226 231.636 27.9672 232.469 28.2651L234.153 23.5574L235.836 18.8496C233.943 18.1724 231.223 17.6257 228.447 17.6184L228.435 22.6184ZM234.153 23.5574L239.153 23.5705L239.154 23.1745L234.154 23.1614L229.154 23.1483L229.153 23.5443L234.153 23.5574ZM234.154 23.1614L239.154 23.1745C239.159 20.8529 238.394 18.3166 236.212 16.4766C234.184 14.7656 231.657 14.2828 229.423 14.277L229.411 19.2769L229.399 24.2769C229.851 24.2781 230.07 24.3297 230.121 24.3445C230.161 24.356 229.997 24.3148 229.766 24.12C229.519 23.9115 229.334 23.6432 229.23 23.3873C229.137 23.1565 229.154 23.0462 229.154 23.1483L234.154 23.1614ZM229.411 19.2769L229.423 14.277C226.151 14.2684 223.584 14.9197 221.023 15.9259L222.852 20.5798L224.681 25.2336C226.347 24.5789 227.655 24.2724 229.399 24.2769L229.411 19.2769ZM222.852 20.5798L227.656 19.1951L225.954 13.2946L221.15 14.6793L216.346 16.064L218.048 21.9644L222.852 20.5798ZM221.15 14.6793L223.035 19.3108C225.186 18.4356 227.405 17.8477 230.778 17.8565L230.79 12.8565L230.803 7.85655C225.992 7.84395 222.487 8.73701 219.265 10.0478L221.15 14.6793ZM230.79 12.8565L230.778 17.8565C234.323 17.8658 235.704 18.7085 236.303 19.3105L239.847 15.7843L243.391 12.258C240.216 9.06618 235.794 7.86963 230.803 7.85655L230.79 12.8565ZM239.847 15.7843L236.347 19.354C236.807 19.8045 237.388 20.7071 237.381 23.3458L242.381 23.3589L247.381 23.372C247.391 19.3228 246.488 15.2935 243.348 12.2145L239.847 15.7843ZM242.381 23.3589L237.381 23.3458L237.348 37.0298L242.348 37.0429L247.348 37.056L247.381 23.372L242.381 23.3589ZM242.348 37.0429L242.36 32.0429L234.088 32.0212L234.076 37.0212L234.064 42.0212L242.336 42.0429L242.348 37.0429ZM234.076 37.0212L239.076 37.0343L239.082 34.5703L234.082 34.5572L229.082 34.5441L229.076 37.0081L234.076 37.0212ZM234.082 34.5572L230.378 31.1977C229.664 31.9848 228.753 32.5353 227.091 32.5309L227.079 37.5309L227.067 42.5309C231.653 42.5429 235.235 40.7291 237.786 37.9168L234.082 34.5572ZM230.084 32.3028L230.071 37.3027C232.341 37.3087 234.661 36.5807 236.462 34.9096C238.299 33.2058 239.223 30.8623 239.229 28.4107L234.229 28.3976L229.229 28.3845C229.229 28.3719 229.233 28.2564 229.306 28.0815C229.38 27.9036 229.502 27.7252 229.661 27.5775C229.996 27.2666 230.246 27.3032 230.096 27.3028L230.084 32.3028ZM234.229 28.3976L239.229 28.4107L239.232 27.3107L234.232 27.2976L229.232 27.2845L229.229 28.3845L234.229 28.3976ZM234.232 27.2976L236.183 22.6945C234.711 22.0702 232.862 21.678 230.989 21.6731L230.977 26.6731L230.965 31.6731C231.232 31.6738 231.511 31.7039 231.77 31.7559C232.036 31.8093 232.212 31.8718 232.28 31.9007L234.232 27.2976ZM230.977 26.6731L230.989 21.6731C229.019 21.6679 226.853 22.1419 225.064 23.548C223.153 25.0499 222.148 27.2566 222.142 29.5979L227.142 29.611L232.142 29.6241C232.141 29.8605 232.091 30.1949 231.917 30.559C231.742 30.9267 231.494 31.2143 231.243 31.4114C230.766 31.7868 230.515 31.6719 230.965 31.6731L230.977 26.6731ZM227.142 29.611L222.142 29.5979L222.142 29.6859L227.142 29.699L232.142 29.7121L232.142 29.6241L227.142 29.611ZM227.142 29.699L222.142 29.6859C222.137 31.863 223.007 33.9423 224.714 35.4059C226.334 36.7941 228.31 37.2981 230.071 37.3027L230.084 32.3028L230.096 27.3028C230.141 27.3029 230.644 27.319 231.221 27.8135C231.886 28.3834 232.143 29.163 232.142 29.7121L227.142 29.699ZM268.602 18.1476L271.577 22.1666C273.676 20.6131 274.225 17.706 272.838 15.4931L268.602 18.1476ZM262.915 22.3567L258.855 25.2736C259.636 26.3607 260.82 27.0893 262.143 27.2965C263.465 27.5036 264.815 27.172 265.891 26.3757L262.915 22.3567ZM263.121 28.1653L266.065 24.1238C263.96 22.5911 261.032 22.9293 259.333 24.9014L263.121 28.1653ZM268.7 32.2279L272.836 35.0381C274.352 32.8067 273.824 29.7748 271.643 28.1864L268.7 32.2279ZM258.083 37.6561L258.095 32.6561C253.753 32.6448 250.651 29.3131 250.66 25.2726L245.66 25.2595L240.66 25.2464C240.638 34.6699 248.068 42.6299 258.07 42.6561L258.083 37.6561ZM245.66 25.2595L250.66 25.2726L250.661 25.1846L245.661 25.1715L240.661 25.1584L240.66 25.2464L245.66 25.2595ZM245.661 25.1715L250.661 25.1846C250.67 21.191 253.699 17.7846 258.438 17.797L258.451 12.797L258.463 7.79702C248.154 7.77001 240.684 15.6881 240.661 25.1584L245.661 25.1715ZM258.451 12.797L258.438 17.797C261.592 17.8052 263.254 19.029 264.365 20.8021L268.602 18.1476L272.838 15.4931C269.917 10.8316 265.077 7.81435 258.463 7.79702L258.451 12.797ZM268.602 18.1476L265.626 14.1286L259.94 18.3378L262.915 22.3567L265.891 26.3757L271.577 22.1666L268.602 18.1476ZM262.915 22.3567L266.976 19.4399C266.176 18.3266 265.106 17.1254 263.611 16.2231C262.05 15.2811 260.321 14.8419 258.49 14.8371L258.478 19.8371L258.465 24.8371C258.587 24.8374 258.614 24.8509 258.577 24.8411C258.536 24.83 258.485 24.8086 258.445 24.7845C258.378 24.7439 258.515 24.7999 258.855 25.2736L262.915 22.3567ZM258.478 19.8371L258.49 14.8371C252.402 14.8212 248.813 20.1154 248.801 25.0918L253.801 25.1049L258.801 25.118C258.802 24.7883 258.914 24.6541 258.904 24.6664C258.895 24.6765 258.849 24.7238 258.754 24.7688C258.653 24.8168 258.546 24.8373 258.465 24.8371L258.478 19.8371ZM253.801 25.1049L248.801 25.0918L248.801 25.1798L253.801 25.1929L258.801 25.206L258.801 25.118L253.801 25.1049ZM253.801 25.1929L248.801 25.1798C248.788 30.308 252.287 35.6009 258.527 35.6173L258.54 30.6173L258.552 25.6173C258.549 25.6173 258.618 25.6198 258.718 25.6661C258.814 25.7109 258.876 25.7673 258.903 25.7991C258.955 25.8598 258.799 25.7152 258.801 25.206L253.801 25.1929ZM258.54 30.6173L258.527 35.6173C262.584 35.6279 265.127 33.4983 266.91 31.4292L263.121 28.1653L259.333 24.9014C258.84 25.4738 258.618 25.6152 258.582 25.6358C258.579 25.6372 258.604 25.6242 258.638 25.6152C258.67 25.6068 258.652 25.6176 258.552 25.6173L258.54 30.6173ZM263.121 28.1653L260.178 32.2068L265.757 36.2694L268.7 32.2279L271.643 28.1864L266.065 24.1238L263.121 28.1653ZM268.7 32.2279L264.564 29.4178C263.797 30.5462 262.999 31.2973 262.108 31.7895C261.229 32.275 259.986 32.6611 258.095 32.6561L258.083 37.6561L258.07 42.6561C261.415 42.6649 264.376 41.962 266.946 40.5425C269.502 39.1297 271.395 37.1599 272.836 35.0381L268.7 32.2279ZM271.651 37.1197L266.651 37.1066C266.644 39.868 268.877 42.1124 271.639 42.1197L271.651 37.1197ZM271.728 4.99976L271.74 -0.000222225C268.979 -0.00745683 266.735 2.22525 266.728 4.98666L271.728 4.99976ZM280.088 5.02167L285.088 5.03476C285.095 2.27335 282.862 0.0289147 280.1 0.0216801L280.088 5.02167ZM280.06 16.5936L275.06 16.5805C275.055 18.7165 276.407 20.6202 278.426 21.3187C280.445 22.0172 282.684 21.3563 284 19.6737L280.06 16.5936ZM295.235 37.1815L295.223 42.1814C297.984 42.1887 300.228 39.956 300.235 37.1946L295.235 37.1815ZM286.875 37.1596L281.875 37.1465C281.868 39.9079 284.101 42.1523 286.863 42.1595L286.875 37.1596ZM280.011 37.1416L279.999 42.1416C282.76 42.1488 285.004 39.9161 285.011 37.1547L280.011 37.1416ZM271.651 37.1197L276.651 37.1328L276.728 5.01286L271.728 4.99976L266.728 4.98666L266.651 37.1066L271.651 37.1197ZM271.728 4.99976L271.716 9.99975L280.076 10.0217L280.088 5.02167L280.1 0.0216801L271.74 -0.000222225L271.728 4.99976ZM280.088 5.02167L275.088 5.00857L275.06 16.5805L280.06 16.5936L285.06 16.6067L285.088 5.03476L280.088 5.02167ZM280.06 16.5936L284 19.6737C284.527 18.9989 285.022 18.5455 285.497 18.2626C285.923 18.0088 286.437 17.8263 287.185 17.8283L287.197 12.8283L287.209 7.82833C281.704 7.81391 278.195 10.8606 276.121 13.5136L280.06 16.5936ZM287.197 12.8283L287.185 17.8283C288.569 17.8319 289.164 18.2558 289.449 18.568C289.783 18.9328 290.277 19.7958 290.272 21.5924L295.272 21.6055L300.272 21.6186C300.281 18.0032 299.267 14.4843 296.825 11.8168C294.335 9.09664 290.886 7.83796 287.209 7.82833L287.197 12.8283ZM295.272 21.6055L290.272 21.5924L290.235 37.1684L295.235 37.1815L300.235 37.1946L300.272 21.6186L295.272 21.6055ZM295.235 37.1815L295.247 32.1815L286.887 32.1596L286.875 37.1596L286.863 42.1595L295.223 42.1814L295.235 37.1815ZM286.875 37.1596L291.875 37.1727L291.906 24.2807L286.906 24.2676L281.906 24.2545L281.875 37.1465L286.875 37.1596ZM286.906 24.2676L291.906 24.2807C291.911 22.1458 291.352 19.8531 289.764 18.0179C288.11 16.1069 285.826 15.2607 283.583 15.2549L283.571 20.2548L283.559 25.2548C283.46 25.2546 283.242 25.2352 282.963 25.116C282.675 24.9927 282.409 24.799 282.203 24.5614C281.788 24.0823 281.907 23.7934 281.906 24.2545L286.906 24.2676ZM283.571 20.2548L283.583 15.2549C281.373 15.2491 279.093 16.0414 277.391 17.8683C275.715 19.668 275.047 21.9854 275.042 24.2365L280.042 24.2496L285.042 24.2627C285.043 23.9178 285.128 24.2352 284.709 24.6852C284.512 24.8962 284.275 25.0534 284.037 25.1491C283.807 25.2418 283.634 25.255 283.559 25.2548L283.571 20.2548ZM280.042 24.2496L275.042 24.2365L275.011 37.1285L280.011 37.1416L285.011 37.1547L285.042 24.2627L280.042 24.2496ZM280.011 37.1416L280.023 32.1416L271.663 32.1197L271.651 37.1197L271.639 42.1197L279.999 42.1416L280.011 37.1416ZM312.4 37.2264L307.4 37.2133C307.394 39.9747 309.627 42.2192 312.388 42.2264L312.4 37.2264ZM312.475 6.42652L312.487 1.42653C309.725 1.4193 307.481 3.652 307.475 6.41342L312.475 6.42652ZM321.055 6.449L326.055 6.4621C326.061 3.70068 323.828 1.45625 321.067 1.44901L321.055 6.449ZM320.98 37.2489L320.968 42.2489C323.73 42.2561 325.974 40.0234 325.98 37.262L320.98 37.2489ZM312.4 37.2264L317.4 37.2395L317.475 6.43962L312.475 6.42652L307.475 6.41342L307.4 37.2133L312.4 37.2264ZM312.475 6.42652L312.463 11.4265L321.043 11.449L321.055 6.449L321.067 1.44901L312.487 1.42653L312.475 6.42652ZM321.055 6.449L316.055 6.4359L315.98 37.2358L320.98 37.2489L325.98 37.262L326.055 6.4621L321.055 6.449ZM320.98 37.2489L320.992 32.2489L312.412 32.2264L312.4 37.2264L312.388 42.2264L320.968 42.2489L320.98 37.2489ZM326.795 37.2641L321.795 37.251C321.788 40.0125 324.021 42.2569 326.783 42.2641L326.795 37.2641ZM326.869 6.46423L326.881 1.46424C324.12 1.45701 321.876 3.68971 321.869 6.45113L326.869 6.46423ZM335.449 6.48671L340.449 6.49981C340.456 3.73839 338.223 1.49396 335.461 1.48672L335.449 6.48671ZM335.375 37.2866L335.363 42.2866C338.124 42.2938 340.368 40.0611 340.375 37.2997L335.375 37.2866ZM326.795 37.2641L331.795 37.2772L331.869 6.47733L326.869 6.46423L321.869 6.45113L321.795 37.251L326.795 37.2641ZM326.869 6.46423L326.857 11.4642L335.437 11.4867L335.449 6.48671L335.461 1.48672L326.881 1.46424L326.869 6.46423ZM335.449 6.48671L330.449 6.47361L330.375 37.2735L335.375 37.2866L340.375 37.2997L340.449 6.49981L335.449 6.48671ZM335.375 37.2866L335.387 32.2866L326.807 32.2642L326.795 37.2641L326.783 42.2641L335.363 42.2866L335.375 37.2866ZM341.189 37.3019L336.189 37.2888C336.183 40.0502 338.416 42.2946 341.177 42.3018L341.189 37.3019ZM341.264 6.50194L341.276 1.50196C338.514 1.49472 336.27 3.72743 336.264 6.48884L341.264 6.50194ZM349.844 6.52442L354.844 6.53752C354.85 3.7761 352.617 1.53167 349.856 1.52444L349.844 6.52442ZM349.769 37.3243L349.757 42.3243C352.519 42.3316 354.763 40.0988 354.769 37.3374L349.769 37.3243ZM341.189 37.3019L346.189 37.315L346.264 6.51504L341.264 6.50194L336.264 6.48884L336.189 37.2888L341.189 37.3019ZM341.264 6.50194L341.252 11.5019L349.832 11.5244L349.844 6.52442L349.856 1.52444L341.276 1.50196L341.264 6.50194ZM349.844 6.52442L344.844 6.51132L344.769 37.3112L349.769 37.3243L354.769 37.3374L354.844 6.53752L349.844 6.52442ZM349.769 37.3243L349.781 32.3243L341.201 32.3019L341.189 37.3019L341.177 42.3018L349.757 42.3243L349.769 37.3243ZM362.932 37.3588L357.932 37.3457C357.925 40.1071 360.158 42.3516 362.92 42.3588L362.932 37.3588ZM362.988 14.0389L367.988 14.052C367.995 11.2906 365.762 9.04613 363 9.0389L362.988 14.0389ZM353.748 14.0147L348.748 14.0016C348.741 16.763 350.975 19.0074 353.736 19.0147L353.748 14.0147ZM353.766 6.5347L353.778 1.53471C351.017 1.52748 348.773 3.76018 348.766 6.5216L353.766 6.5347ZM380.782 6.60548L385.782 6.61858C385.789 3.85716 383.556 1.61273 380.794 1.60549L380.782 6.60548ZM380.764 14.0855L380.752 19.0854C383.513 19.0927 385.757 16.86 385.764 14.0986L380.764 14.0855ZM371.524 14.0612L371.536 9.06126C368.775 9.05403 366.531 11.2867 366.524 14.0481L371.524 14.0612ZM371.468 37.3812L371.456 42.3812C374.217 42.3884 376.461 40.1557 376.468 37.3943L371.468 37.3812ZM362.932 37.3588L367.932 37.3719L367.988 14.052L362.988 14.0389L357.988 14.0258L357.932 37.3457L362.932 37.3588ZM362.988 14.0389L363 9.0389L353.76 9.01469L353.748 14.0147L353.736 19.0147L362.976 19.0389L362.988 14.0389ZM353.748 14.0147L358.748 14.0278L358.766 6.5478L353.766 6.5347L348.766 6.5216L348.748 14.0016L353.748 14.0147ZM353.766 6.5347L353.754 11.5347L380.77 11.6055L380.782 6.60548L380.794 1.60549L353.778 1.53471L353.766 6.5347ZM380.782 6.60548L375.782 6.59238L375.764 14.0724L380.764 14.0855L385.764 14.0986L385.782 6.61858L380.782 6.60548ZM380.764 14.0855L380.776 9.08547L371.536 9.06126L371.524 14.0612L371.512 19.0612L380.752 19.0854L380.764 14.0855ZM371.524 14.0612L366.524 14.0481L366.468 37.3681L371.468 37.3812L376.468 37.3943L376.524 14.0743L371.524 14.0612ZM371.468 37.3812L371.48 32.3812L362.944 32.3588L362.932 37.3588L362.92 42.3588L371.456 42.3812L371.468 37.3812ZM384.455 37.4152L379.455 37.4021C379.448 40.1635 381.681 42.408 384.443 42.4152L384.455 37.4152ZM384.529 6.61529L384.541 1.61531C381.78 1.60807 379.536 3.84078 379.529 6.60219L384.529 6.61529ZM393.009 29.8696L388.009 29.8565C388.002 32.6179 390.235 34.8623 392.997 34.8696L393.009 29.8696ZM393.047 14.2056L393.059 9.20565C390.297 9.19842 388.053 11.4311 388.047 14.1925L393.047 14.2056ZM384.455 37.4152L389.455 37.4283L389.529 6.62839L384.529 6.61529L379.529 6.60219L379.455 37.4021L384.455 37.4152ZM384.529 6.61529L384.517 11.6153L396.397 11.6464L396.409 6.64642L396.421 1.64643L384.541 1.61531L384.529 6.61529ZM396.409 6.64642L396.397 11.6464C400.949 11.6583 403.996 12.9666 405.845 14.653C407.654 16.3028 408.76 18.7096 408.752 21.9028L413.752 21.9159L418.752 21.929C418.766 16.2342 416.7 11.0207 412.582 7.26499C408.504 3.54582 402.869 1.66332 396.421 1.64643L396.409 6.64642ZM413.752 21.9159L408.752 21.9028L408.752 21.9908L413.752 22.0039L418.752 22.017L418.752 21.929L413.752 21.9159ZM413.752 22.0039L408.752 21.9908C408.744 25.1728 407.611 27.6588 405.73 29.3792C403.822 31.1241 400.724 32.4578 396.171 32.4459L396.159 37.4459L396.146 42.4459C402.681 42.463 408.369 40.5197 412.48 36.7584C416.619 32.9725 418.738 27.723 418.752 22.017L413.752 22.0039ZM396.159 37.4459L396.171 32.4459L384.467 32.4152L384.455 37.4152L384.443 42.4152L396.146 42.4459L396.159 37.4459ZM393.009 29.8696L392.997 34.8696L396.473 34.8787L396.485 29.8787L396.497 24.8787L393.021 24.8696L393.009 29.8696ZM396.485 29.8787L396.473 34.8787C399.908 34.8877 403.335 33.9443 405.97 31.6042C408.681 29.1973 409.987 25.8121 409.996 22.1261L404.996 22.113L399.996 22.0999C399.992 23.3858 399.595 23.8902 399.329 24.1265C398.988 24.4296 398.165 24.8831 396.497 24.8787L396.485 29.8787ZM404.996 22.113L409.996 22.1261L409.996 22.0381L404.996 22.025L399.996 22.0119L399.996 22.0999L404.996 22.113ZM404.996 22.025L409.996 22.0381C410.005 18.3637 408.708 14.9808 406.024 12.5623C403.409 10.2064 399.989 9.22381 396.535 9.21476L396.523 14.2147L396.511 19.2147C398.16 19.219 398.983 19.6775 399.331 19.9914C399.61 20.2427 399.999 20.7583 399.996 22.0119L404.996 22.025ZM396.523 14.2147L396.535 9.21476L393.059 9.20565L393.047 14.2056L393.035 19.2056L396.511 19.2147L396.523 14.2147ZM393.047 14.2056L388.047 14.1925L388.009 29.8565L393.009 29.8696L398.009 29.8827L398.047 14.2187L393.047 14.2056ZM418.099 37.5034L413.099 37.4903C413.092 40.2517 415.326 42.4961 418.087 42.5033L418.099 37.5034ZM418.173 6.70344L418.185 1.70345C415.424 1.69622 413.18 3.92892 413.173 6.69034L418.173 6.70344ZM427.193 6.72707L431.456 4.11511C430.55 2.63549 428.941 1.73163 427.205 1.72708L427.193 6.72707ZM434.513 18.6703L430.25 21.2822C431.156 22.7619 432.765 23.6657 434.5 23.6703C436.236 23.6748 437.849 22.7794 438.763 21.3045L434.513 18.6703ZM441.889 6.76557L441.901 1.76559C440.166 1.76104 438.553 2.65646 437.639 4.13131L441.889 6.76557ZM450.909 6.7892L455.909 6.8023C455.916 4.04089 453.683 1.79645 450.921 1.78922L450.909 6.7892ZM450.835 37.5891L450.823 42.5891C453.584 42.5963 455.828 40.3636 455.835 37.6022L450.835 37.5891ZM442.343 37.5669L437.343 37.5538C437.336 40.3152 439.569 42.5596 442.331 42.5669L442.343 37.5669ZM442.386 19.8789L447.386 19.892C447.391 17.6801 445.942 15.7272 443.824 15.0905C441.705 14.4538 439.421 15.2847 438.206 17.1334L442.386 19.8789ZM434.481 31.9142L434.468 36.9142C436.157 36.9187 437.733 36.0708 438.66 34.6598L434.481 31.9142ZM434.305 31.9138L430.114 34.6407C431.034 36.0546 432.606 36.9094 434.292 36.9138L434.305 31.9138ZM426.501 19.9253L430.692 17.1984C429.485 15.345 427.205 14.5038 425.085 15.13C422.964 15.7562 421.507 17.701 421.501 19.9122L426.501 19.9253ZM426.459 37.5253L426.447 42.5252C429.208 42.5325 431.452 40.2998 431.459 37.5384L426.459 37.5253ZM418.099 37.5034L423.099 37.5164L423.173 6.71654L418.173 6.70344L413.173 6.69034L413.099 37.4903L418.099 37.5034ZM418.173 6.70344L418.161 11.7034L427.181 11.7271L427.193 6.72707L427.205 1.72708L418.185 1.70345L418.173 6.70344ZM427.193 6.72707L422.93 9.33902L430.25 21.2822L434.513 18.6703L438.775 16.0583L431.456 4.11511L427.193 6.72707ZM434.513 18.6703L438.763 21.3045L446.14 9.39983L441.889 6.76557L437.639 4.13131L430.262 16.036L434.513 18.6703ZM441.889 6.76557L441.877 11.7656L450.897 11.7892L450.909 6.7892L450.921 1.78922L441.901 1.76559L441.889 6.76557ZM450.909 6.7892L445.909 6.7761L445.835 37.576L450.835 37.5891L455.835 37.6022L455.909 6.8023L450.909 6.7892ZM450.835 37.5891L450.847 32.5891L442.355 32.5669L442.343 37.5669L442.331 42.5669L450.823 42.5891L450.835 37.5891ZM442.343 37.5669L447.343 37.58L447.386 19.892L442.386 19.8789L437.386 19.8658L437.343 37.5538L442.343 37.5669ZM442.386 19.8789L438.206 17.1334L430.301 29.1687L434.481 31.9142L438.66 34.6598L446.565 22.6245L442.386 19.8789ZM434.481 31.9142L434.493 26.9143L434.317 26.9138L434.305 31.9138L434.292 36.9138L434.468 36.9142L434.481 31.9142ZM434.305 31.9138L438.495 29.1869L430.692 17.1984L426.501 19.9253L422.311 22.6522L430.114 34.6407L434.305 31.9138ZM426.501 19.9253L421.501 19.9122L421.459 37.5122L426.459 37.5253L431.459 37.5384L431.501 19.9384L426.501 19.9253ZM426.459 37.5253L426.471 32.5253L418.111 32.5034L418.099 37.5034L418.087 42.5033L426.447 42.5252L426.459 37.5253ZM465.96 32.9647L462.537 29.3199C460.7 31.045 460.435 33.8677 461.917 35.9057L465.96 32.9647ZM471.473 27.7872L475.329 24.6056C474.45 23.5396 473.169 22.885 471.789 22.7972C470.41 22.7095 469.057 23.1964 468.049 24.1423L471.473 27.7872ZM479.839 6.865L479.852 1.86501C477.09 1.85778 474.846 4.09048 474.839 6.8519L479.839 6.865ZM488.331 6.88724L493.331 6.90034C493.338 4.13893 491.105 1.89449 488.344 1.88726L488.331 6.88724ZM485.227 35.0832L488.754 38.628L485.227 35.0832ZM476.772 38.1851L476.784 33.1851C473.121 33.1755 471.28 31.7791 470.003 30.0237L465.96 32.9647L461.917 35.9057C464.938 40.0577 469.687 43.1665 476.76 43.1851L476.772 38.1851ZM465.96 32.9647L469.384 36.6096L474.896 31.432L471.473 27.7872L468.049 24.1423L462.537 29.3199L465.96 32.9647ZM471.473 27.7872L467.616 30.9687C469.4 33.1303 472.08 35.6488 476.25 35.6597L476.262 30.6597L476.274 25.6597C476.271 25.6597 476.283 25.6596 476.307 25.6631C476.33 25.6666 476.356 25.6723 476.381 25.6801C476.437 25.6971 476.446 25.7098 476.396 25.6784C476.258 25.5905 475.923 25.3252 475.329 24.6056L471.473 27.7872ZM476.262 30.6597L476.25 35.6597C478.517 35.6656 480.907 34.8603 482.64 32.8252C484.273 30.9081 484.787 28.524 484.792 26.37L479.792 26.3569L474.792 26.3438C474.791 27.0498 474.618 26.82 475.026 26.3406C475.237 26.093 475.512 25.8957 475.799 25.7761C476.07 25.6633 476.253 25.6597 476.274 25.6597L476.262 30.6597ZM479.792 26.3569L484.792 26.37L484.839 6.8781L479.839 6.865L474.839 6.8519L474.792 26.3438L479.792 26.3569ZM479.839 6.865L479.827 11.865L488.319 11.8872L488.331 6.88724L488.344 1.88726L479.852 1.86501L479.839 6.865ZM488.331 6.88724L483.331 6.87414L483.284 26.4101L488.284 26.4232L493.284 26.4363L493.331 6.90034L488.331 6.88724ZM488.284 26.4232L483.284 26.4101C483.277 29.3776 482.572 30.6715 481.7 31.5384L485.227 35.0832L488.754 38.628C492.029 35.3698 493.273 31.2128 493.284 26.4363L488.284 26.4232ZM485.227 35.0832L481.7 31.5384C480.79 32.4445 479.253 33.1916 476.784 33.1851L476.772 38.1851L476.76 43.1851C481.331 43.197 485.607 41.7593 488.754 38.628L485.227 35.0832ZM506.745 24.2715L505.062 28.9793C506.591 29.5264 508.291 29.2967 509.62 28.3632C510.949 27.4297 511.742 25.9088 511.745 24.2846L506.745 24.2715ZM495.445 21.2939L490.64 22.6786C491.031 24.031 491.972 25.1565 493.235 25.7787C494.498 26.401 495.964 26.4623 497.274 25.9478L495.445 21.2939ZM493.743 15.3935L491.858 10.762C489.489 11.7255 488.23 14.321 488.939 16.7781L493.743 15.3935ZM512.44 16.4984L508.896 20.0247C508.911 20.0393 508.925 20.0538 508.94 20.0682L512.44 16.4984ZM514.941 37.7571L514.929 42.7571C517.69 42.7643 519.934 40.5316 519.941 37.7702L514.941 37.7571ZM506.669 37.7354L501.669 37.7223C501.662 40.4837 503.896 42.7281 506.657 42.7354L506.669 37.7354ZM506.675 35.2714L511.675 35.2845C511.68 33.2155 510.41 31.3568 508.481 30.6092C506.551 29.8616 504.361 30.3795 502.971 31.9119L506.675 35.2714ZM506.824 28.0118L511.824 28.0249C511.829 26.0132 510.628 24.1942 508.776 23.4087L506.824 28.0118ZM499.672 38.2451L499.684 33.2451C498.334 33.2415 497.586 32.8546 497.255 32.5668C497.015 32.3582 496.679 31.95 496.681 30.8892L491.681 30.8761L486.682 30.863C486.673 34.5542 488.065 37.8245 490.691 40.1094C493.225 42.3152 496.478 43.2367 499.66 43.245L499.672 38.2451ZM491.681 30.8761L496.681 30.8892L496.682 30.8012L491.682 30.7881L486.682 30.775L486.682 30.863L491.681 30.8761ZM491.682 30.7881L496.682 30.8012C496.684 29.7483 497.007 29.404 497.299 29.1809C497.773 28.8186 498.897 28.327 501.016 28.3326L501.028 23.3326L501.04 18.3326C497.571 18.3235 494.027 19.0957 491.229 21.2328C488.248 23.5091 486.691 26.8999 486.682 30.775L491.682 30.7881ZM501.028 23.3326L501.016 28.3326C502.639 28.3368 504.229 28.6814 505.062 28.9793L506.745 24.2715L508.429 19.5638C506.536 18.8866 503.816 18.3399 501.04 18.3326L501.028 23.3326ZM506.745 24.2715L511.745 24.2846L511.746 23.8886L506.746 23.8755L501.746 23.8625L501.745 24.2584L506.745 24.2715ZM506.746 23.8755L511.746 23.8886C511.752 21.5671 510.986 19.0307 508.805 17.1908C506.777 15.4798 504.249 14.997 502.016 14.9911L502.004 19.9911L501.992 24.9911C502.444 24.9923 502.663 25.0439 502.714 25.0587C502.754 25.0702 502.59 25.029 502.359 24.8342C502.111 24.6257 501.927 24.3574 501.823 24.1015C501.73 23.8706 501.747 23.7604 501.746 23.8625L506.746 23.8755ZM502.004 19.9911L502.016 14.9911C498.744 14.9826 496.177 15.6339 493.616 16.6401L495.445 21.2939L497.274 25.9478C498.94 25.293 500.248 24.9865 501.992 24.9911L502.004 19.9911ZM495.445 21.2939L500.249 19.9093L498.547 14.0088L493.743 15.3935L488.939 16.7781L490.64 22.6786L495.445 21.2939ZM493.743 15.3935L495.628 20.0249C497.779 19.1498 499.998 18.5619 503.371 18.5707L503.383 13.5707L503.395 8.57072C498.585 8.55811 495.08 9.45118 491.858 10.762L493.743 15.3935ZM503.383 13.5707L503.371 18.5707C506.915 18.58 508.297 19.4226 508.896 20.0247L512.44 16.4984L515.984 12.9722C512.809 9.78035 508.387 8.58379 503.395 8.57072L503.383 13.5707ZM512.44 16.4984L508.94 20.0682C509.399 20.5186 509.98 21.4212 509.974 24.06L514.974 24.0731L519.974 24.0862C519.984 20.037 519.081 16.0077 515.94 12.9287L512.44 16.4984ZM514.974 24.0731L509.974 24.06L509.941 37.744L514.941 37.7571L519.941 37.7702L519.974 24.0862L514.974 24.0731ZM514.941 37.7571L514.953 32.7571L506.681 32.7354L506.669 37.7354L506.657 42.7354L514.929 42.7571L514.941 37.7571ZM506.669 37.7354L511.669 37.7485L511.675 35.2845L506.675 35.2714L501.675 35.2583L501.669 37.7223L506.669 37.7354ZM506.675 35.2714L502.971 31.9119C502.257 32.699 501.346 33.2494 499.684 33.2451L499.672 38.2451L499.66 43.245C504.246 43.2571 507.828 41.4433 510.379 38.6309L506.675 35.2714ZM502.676 33.0169L502.664 38.0169C504.934 38.0228 507.254 37.2948 509.055 35.6237C510.892 33.9199 511.816 31.5765 511.822 29.1249L506.822 29.1118L501.822 29.0987C501.822 29.0861 501.826 28.9706 501.899 28.7957C501.973 28.6178 502.094 28.4394 502.254 28.2917C502.589 27.9808 502.839 28.0173 502.688 28.0169L502.676 33.0169ZM506.822 29.1118L511.822 29.1249L511.824 28.0249L506.824 28.0118L501.824 27.9987L501.822 29.0987L506.822 29.1118ZM506.824 28.0118L508.776 23.4087C507.304 22.7844 505.455 22.3922 503.582 22.3873L503.57 27.3872L503.558 32.3872C503.825 32.3879 504.104 32.4181 504.363 32.4701C504.629 32.5235 504.805 32.586 504.873 32.6149L506.824 28.0118ZM503.57 27.3872L503.582 22.3873C501.612 22.3821 499.446 22.8561 497.657 24.2622C495.745 25.764 494.741 27.9708 494.735 30.3121L499.735 30.3252L504.735 30.3383C504.734 30.5747 504.683 30.9091 504.51 31.2732C504.335 31.6409 504.087 31.9285 503.836 32.1255C503.358 32.501 503.108 32.386 503.558 32.3872L503.57 27.3872ZM499.735 30.3252L494.735 30.3121L494.735 30.4001L499.735 30.4132L504.735 30.4263L504.735 30.3383L499.735 30.3252ZM499.735 30.4132L494.735 30.4001C494.729 32.5772 495.599 34.6565 497.307 36.1201C498.927 37.5083 500.903 38.0123 502.664 38.0169L502.676 33.0169L502.688 28.0169C502.734 28.0171 503.237 28.0332 503.814 28.5276C504.479 29.0975 504.736 29.8772 504.735 30.4263L499.735 30.4132ZM527.56 34.8861L531.37 31.6498C530.015 30.0534 527.808 29.471 525.841 30.1904C523.874 30.9099 522.565 32.7788 522.56 34.873L527.56 34.8861ZM527.553 37.7901L527.541 42.7901C530.302 42.7973 532.546 40.5646 532.553 37.8032L527.553 37.7901ZM519.193 37.7682L514.193 37.7551C514.186 40.5165 516.419 42.761 519.181 42.7682L519.193 37.7682ZM519.27 5.6483L519.282 0.648313C516.521 0.641079 514.277 2.87378 514.27 5.6352L519.27 5.6483ZM527.63 5.6702L532.63 5.6833C532.637 2.92188 530.404 0.67745 527.642 0.670216L527.63 5.6702ZM527.603 17.1542L522.603 17.1411C522.597 19.2522 523.919 21.1393 525.905 21.8567C527.89 22.574 530.112 21.967 531.457 20.3398L527.603 17.1542ZM534.811 38.3371L534.824 33.3371C533.817 33.3345 533.208 33.1175 532.795 32.8926C532.342 32.6469 531.893 32.2645 531.37 31.6498L527.56 34.8861L523.749 38.1225C525.912 40.6696 529.298 43.3227 534.799 43.3371L534.811 38.3371ZM527.56 34.8861L522.56 34.873L522.553 37.777L527.553 37.7901L532.553 37.8032L532.56 34.8992L527.56 34.8861ZM527.553 37.7901L527.565 32.7901L519.205 32.7682L519.193 37.7682L519.181 42.7682L527.541 42.7901L527.553 37.7901ZM519.193 37.7682L524.193 37.7813L524.27 5.6614L519.27 5.6483L514.27 5.6352L514.193 37.7551L519.193 37.7682ZM519.27 5.6483L519.258 10.6483L527.618 10.6702L527.63 5.6702L527.642 0.670216L519.282 0.648313L519.27 5.6483ZM527.63 5.6702L522.63 5.6571L522.603 17.1411L527.603 17.1542L532.603 17.1673L532.63 5.6833L527.63 5.6702ZM527.603 17.1542L531.457 20.3398C532.094 19.5691 532.572 19.1461 533.007 18.8922C533.377 18.6771 533.899 18.4747 534.815 18.4771L534.827 13.4771L534.84 8.4771C529.189 8.4623 525.879 11.3897 523.748 13.9685L527.603 17.1542ZM534.827 13.4771L534.815 18.4771C537.282 18.4835 540.371 20.4905 540.358 25.8116L545.358 25.8247L550.358 25.8378C550.382 15.935 543.725 8.50038 534.84 8.4771L534.827 13.4771ZM545.358 25.8247L540.358 25.8116L540.357 25.8996L545.357 25.9127L550.357 25.9258L550.358 25.8378L545.358 25.8247ZM545.357 25.9127L540.357 25.8996C540.344 31.4048 537.199 33.3434 534.824 33.3371L534.811 38.3371L534.799 43.3371C543.688 43.3604 550.333 35.9086 550.357 25.9258L545.357 25.9127ZM532.232 31.3343L532.22 36.3343C538.07 36.3497 542.116 31.5467 542.129 25.9483L537.129 25.9352L532.129 25.9221C532.129 26.1638 532.088 26.3101 532.063 26.3793C532.037 26.4486 532.019 26.4583 532.038 26.4374C532.058 26.416 532.098 26.3841 532.153 26.3599C532.21 26.3351 532.248 26.3344 532.244 26.3344L532.232 31.3343ZM537.129 25.9352L542.129 25.9483L542.13 25.8603L537.13 25.8472L532.13 25.8341L532.129 25.9221L537.129 25.9352ZM537.13 25.8472L542.13 25.8603C542.143 20.3498 538.121 15.4817 532.271 15.4664L532.259 20.4664L532.247 25.4664C532.235 25.4663 532.192 25.4623 532.137 25.4379C532.085 25.4145 532.053 25.3865 532.041 25.3732C532.029 25.3604 532.048 25.3753 532.072 25.4399C532.096 25.5036 532.13 25.6305 532.13 25.8341L537.13 25.8472ZM532.259 20.4664L532.271 15.4664C526.436 15.4511 522.419 20.3288 522.406 25.8086L527.406 25.8217L532.406 25.8348C532.406 25.6313 532.441 25.5028 532.466 25.4366C532.492 25.3691 532.512 25.3517 532.502 25.363C532.491 25.3745 532.458 25.4044 532.399 25.4306C532.338 25.4579 532.28 25.4664 532.247 25.4664L532.259 20.4664ZM527.406 25.8217L522.406 25.8086L522.405 25.8966L527.405 25.9097L532.405 25.9228L532.406 25.8348L527.406 25.8217ZM527.405 25.9097L522.405 25.8966C522.392 31.3922 526.36 36.319 532.22 36.3343L532.232 31.3343L532.244 26.3344C532.278 26.3345 532.337 26.3433 532.401 26.3723C532.463 26.4001 532.498 26.4319 532.509 26.4442C532.542 26.4811 532.404 26.3601 532.405 25.9228L527.405 25.9097ZM562.819 24.4185L561.136 29.1262C562.665 29.6734 564.365 29.4436 565.694 28.5101C567.023 27.5766 567.816 26.0557 567.819 24.4316L562.819 24.4185ZM551.519 21.4408L546.714 22.8255C547.105 24.1779 548.046 25.3034 549.309 25.9256C550.572 26.5479 552.038 26.6093 553.348 26.0947L551.519 21.4408ZM549.817 15.5404L547.932 10.9089C545.563 11.8724 544.304 14.4679 545.013 16.925L549.817 15.5404ZM568.514 16.6453L564.97 20.1716C564.985 20.1862 564.999 20.2007 565.014 20.2151L568.514 16.6453ZM571.015 37.904L571.003 42.904C573.764 42.9112 576.008 40.6785 576.015 37.9171L571.015 37.904ZM562.743 37.8823L557.743 37.8692C557.736 40.6306 559.97 42.8751 562.731 42.8823L562.743 37.8823ZM562.749 35.4183L567.749 35.4314C567.754 33.3624 566.484 31.5037 564.555 30.7561C562.625 30.0085 560.435 30.5264 559.045 32.0588L562.749 35.4183ZM562.898 28.1587L567.898 28.1718C567.903 26.1601 566.702 24.3411 564.85 23.5556L562.898 28.1587ZM555.746 38.392L555.758 33.392C554.408 33.3884 553.66 33.0015 553.329 32.7137C553.089 32.5051 552.753 32.0969 552.756 31.0361L547.756 31.023L542.756 31.0099C542.747 34.7012 544.139 37.9714 546.765 40.2563C549.299 42.4621 552.552 43.3836 555.734 43.392L555.746 38.392ZM547.756 31.023L552.756 31.0361L552.756 30.9481L547.756 30.935L542.756 30.9219L542.756 31.0099L547.756 31.023ZM547.756 30.935L552.756 30.9481C552.758 29.8952 553.081 29.551 553.373 29.3278C553.847 28.9655 554.971 28.4739 557.09 28.4795L557.102 23.4795L557.114 18.4795C553.645 18.4704 550.101 19.2426 547.303 21.3797C544.322 23.656 542.765 27.0468 542.756 30.9219L547.756 30.935ZM557.102 23.4795L557.09 28.4795C558.713 28.4837 560.303 28.8283 561.136 29.1262L562.819 24.4185L564.503 19.7107C562.61 19.0335 559.89 18.4868 557.114 18.4795L557.102 23.4795ZM562.819 24.4185L567.819 24.4316L567.82 24.0356L562.82 24.0225L557.82 24.0094L557.82 24.4054L562.819 24.4185ZM562.82 24.0225L567.82 24.0356C567.826 21.714 567.06 19.1776 564.879 17.3377C562.851 15.6267 560.323 15.1439 558.09 15.138L558.078 20.138L558.066 25.138C558.518 25.1392 558.737 25.1908 558.788 25.2056C558.828 25.2171 558.664 25.1759 558.433 24.9811C558.185 24.7726 558.001 24.5043 557.897 24.2484C557.804 24.0176 557.821 23.9073 557.82 24.0094L562.82 24.0225ZM558.078 20.138L558.09 15.138C554.818 15.1295 552.251 15.7808 549.69 16.787L551.519 21.4408L553.348 26.0947C555.014 25.44 556.322 25.1334 558.066 25.138L558.078 20.138ZM551.519 21.4408L556.323 20.0562L554.621 14.1557L549.817 15.5404L545.013 16.925L546.714 22.8255L551.519 21.4408ZM549.817 15.5404L551.702 20.1718C553.853 19.2967 556.072 18.7088 559.445 18.7176L559.457 13.7176L559.469 8.71763C554.659 8.70502 551.154 9.59809 547.932 10.9089L549.817 15.5404ZM559.457 13.7176L559.445 18.7176C562.989 18.7269 564.371 19.5695 564.97 20.1716L568.514 16.6453L572.058 13.1191C568.883 9.92726 564.461 8.7307 559.469 8.71763L559.457 13.7176ZM568.514 16.6453L565.014 20.2151C565.473 20.6656 566.054 21.5681 566.048 24.2069L571.048 24.22L576.048 24.2331C576.058 20.1839 575.155 16.1546 572.015 13.0756L568.514 16.6453ZM571.048 24.22L566.048 24.2069L566.015 37.8909L571.015 37.904L576.015 37.9171L576.048 24.2331L571.048 24.22ZM571.015 37.904L571.027 32.904L562.755 32.8823L562.743 37.8823L562.731 42.8823L571.003 42.904L571.015 37.904ZM562.743 37.8823L567.743 37.8954L567.749 35.4314L562.749 35.4183L557.749 35.4052L557.743 37.8692L562.743 37.8823ZM562.749 35.4183L559.045 32.0588C558.331 32.8459 557.42 33.3963 555.758 33.392L555.746 38.392L555.734 43.392C560.32 43.404 563.902 41.5902 566.453 38.7778L562.749 35.4183ZM558.75 33.1638L558.738 38.1638C561.008 38.1698 563.328 37.4417 565.129 35.7707C566.966 34.0668 567.89 31.7234 567.896 29.2718L562.896 29.2587L557.896 29.2456C557.896 29.233 557.9 29.1175 557.973 28.9426C558.047 28.7647 558.168 28.5863 558.328 28.4386C558.663 28.1277 558.913 28.1642 558.762 28.1638L558.75 33.1638ZM562.896 29.2587L567.896 29.2718L567.898 28.1718L562.898 28.1587L557.899 28.1456L557.896 29.2456L562.896 29.2587ZM562.898 28.1587L564.85 23.5556C563.378 22.9313 561.529 22.5391 559.656 22.5342L559.644 27.5341L559.632 32.5341C559.899 32.5348 560.178 32.565 560.437 32.617C560.703 32.6704 560.879 32.7329 560.947 32.7618L562.898 28.1587ZM559.644 27.5341L559.656 22.5342C557.686 22.529 555.52 23.003 553.731 24.4091C551.819 25.9109 550.815 28.1177 550.809 30.459L555.809 30.4721L560.809 30.4852C560.808 30.7216 560.757 31.056 560.584 31.4201C560.409 31.7878 560.161 32.0754 559.91 32.2724C559.432 32.6479 559.182 32.533 559.632 32.5341L559.644 27.5341ZM555.809 30.4721L550.809 30.459L550.809 30.547L555.809 30.5601L560.809 30.5732L560.809 30.4852L555.809 30.4721ZM555.809 30.5601L550.809 30.547C550.803 32.7241 551.673 34.8034 553.381 36.267C555.001 37.6552 556.977 38.1592 558.738 38.1638L558.75 33.1638L558.762 28.1638C558.808 28.164 559.311 28.1801 559.888 28.6745C560.553 29.2444 560.81 30.0241 560.809 30.5732L555.809 30.5601ZM575.443 37.9156L570.443 37.9025C570.436 40.6639 572.669 42.9083 575.431 42.9156L575.443 37.9156ZM575.52 5.79567L575.532 0.795683C572.771 0.788448 570.527 3.02115 570.52 5.78257L575.52 5.79567ZM583.88 5.81757L588.88 5.83067C588.887 3.06925 586.654 0.82482 583.892 0.817585L583.88 5.81757ZM583.803 37.9375L583.791 42.9375C586.552 42.9447 588.796 40.712 588.803 37.9506L583.803 37.9375ZM575.443 37.9156L580.443 37.9287L580.52 5.80877L575.52 5.79567L570.52 5.78257L570.443 37.9025L575.443 37.9156ZM575.52 5.79567L575.508 10.7957L583.868 10.8176L583.88 5.81757L583.892 0.817585L575.532 0.795683L575.52 5.79567ZM583.88 5.81757L578.88 5.80447L578.803 37.9244L583.803 37.9375L588.803 37.9506L588.88 5.83067L583.88 5.81757ZM583.803 37.9375L583.815 32.9375L575.455 32.9156L575.443 37.9156L575.431 42.9156L583.791 42.9375L583.803 37.9375ZM588.441 44.9897L583.441 44.9766C583.435 47.738 585.668 49.9824 588.429 49.9896L588.441 44.9897ZM588.516 14.1457L588.528 9.14576C585.766 9.13852 583.522 11.3712 583.516 14.1326L588.516 14.1457ZM596.876 14.1676L601.876 14.1807C601.882 11.4193 599.649 9.17489 596.888 9.16766L596.876 14.1676ZM596.868 17.3356L591.868 17.3225C591.863 19.4337 593.184 21.3208 595.17 22.0381C597.156 22.7555 599.378 22.1485 600.722 20.5213L596.868 17.3356ZM596.825 35.0676L600.636 31.8312C599.28 30.2349 597.073 29.6524 595.106 30.3719C593.14 31.0914 591.83 32.9603 591.825 35.0545L596.825 35.0676ZM596.801 45.0116L596.789 50.0115C599.55 50.0188 601.794 47.7861 601.801 45.0247L596.801 45.0116ZM588.441 44.9897L593.441 45.0028L593.516 14.1588L588.516 14.1457L583.516 14.1326L583.441 44.9766L588.441 44.9897ZM588.516 14.1457L588.504 19.1457L596.864 19.1676L596.876 14.1676L596.888 9.16766L588.528 9.14576L588.516 14.1457ZM596.876 14.1676L591.876 14.1545L591.868 17.3225L596.868 17.3356L601.868 17.3487L601.876 14.1807L596.876 14.1676ZM596.868 17.3356L600.722 20.5213C601.359 19.7506 601.837 19.3275 602.273 19.0737C602.642 18.8586 603.164 18.6561 604.081 18.6585L604.093 13.6586L604.105 8.65857C598.455 8.64376 595.145 11.5712 593.013 14.15L596.868 17.3356ZM604.093 13.6586L604.081 18.6585C606.547 18.665 609.636 20.672 609.623 25.9931L614.623 26.0062L619.623 26.0193C619.647 16.1164 612.99 8.68185 604.105 8.65857L604.093 13.6586ZM614.623 26.0062L609.623 25.9931L609.623 26.0811L614.623 26.0942L619.623 26.1073L619.623 26.0193L614.623 26.0062ZM614.623 26.0942L609.623 26.0811C609.61 31.5863 606.464 33.5248 604.089 33.5186L604.077 38.5186L604.065 43.5186C612.953 43.5419 619.599 36.09 619.623 26.1073L614.623 26.0942ZM604.077 38.5186L604.089 33.5186C603.083 33.516 602.474 33.2989 602.06 33.0741C601.608 32.8284 601.158 32.446 600.636 31.8312L596.825 35.0676L593.015 38.3039C595.178 40.8511 598.563 43.5042 604.065 43.5186L604.077 38.5186ZM596.825 35.0676L591.825 35.0545L591.801 44.9985L596.801 45.0116L601.801 45.0247L601.825 35.0807L596.825 35.0676ZM596.801 45.0116L596.813 40.0116L588.453 39.9897L588.441 44.9897L588.429 49.9896L596.789 50.0115L596.801 45.0116ZM601.498 31.5158L601.486 36.5158C607.336 36.5311 611.381 31.7282 611.395 26.1297L606.395 26.1166L601.395 26.1035C601.394 26.3452 601.354 26.4916 601.328 26.5608C601.302 26.6301 601.284 26.6397 601.304 26.6189C601.324 26.5975 601.363 26.5655 601.418 26.5414C601.475 26.5166 601.513 26.5158 601.51 26.5158L601.498 31.5158ZM606.395 26.1166L611.395 26.1297L611.395 26.0417L606.395 26.0286L601.395 26.0155L601.395 26.1035L606.395 26.1166ZM606.395 26.0286L611.395 26.0417C611.408 20.5313 607.386 15.6632 601.536 15.6479L601.524 20.6478L601.512 25.6478C601.501 25.6478 601.458 25.6438 601.403 25.6194C601.35 25.596 601.319 25.568 601.306 25.5547C601.295 25.5419 601.313 25.5567 601.337 25.6214C601.361 25.685 601.395 25.812 601.395 26.0155L606.395 26.0286ZM601.524 20.6478L601.536 15.6479C595.702 15.6326 591.684 20.5102 591.671 25.99L596.671 26.0031L601.671 26.0162C601.671 25.8127 601.706 25.6843 601.731 25.6181C601.757 25.5506 601.777 25.5332 601.767 25.5444C601.756 25.556 601.724 25.5859 601.665 25.612C601.603 25.6394 601.546 25.6479 601.512 25.6478L601.524 20.6478ZM596.671 26.0031L591.671 25.99L591.671 26.078L596.671 26.0911L601.671 26.1042L601.671 26.0162L596.671 26.0031ZM596.671 26.0911L591.671 26.078C591.658 31.5736 595.626 36.5004 601.486 36.5158L601.498 31.5158L601.51 26.5158C601.544 26.5159 601.603 26.5248 601.667 26.5538C601.728 26.5816 601.763 26.6134 601.774 26.6257C601.808 26.6626 601.67 26.5415 601.671 26.1042L596.671 26.0911ZM618.074 14.2232L618.086 9.2232C615.325 9.21596 613.081 11.4487 613.074 14.2101L618.074 14.2232ZM626.434 14.2451L631.434 14.2582C631.44 11.4968 629.207 9.25233 626.446 9.2451L626.434 14.2451ZM633.298 14.2631L633.31 9.26308C630.548 9.25585 628.305 11.4886 628.298 14.25L633.298 14.2631ZM641.658 14.285L646.658 14.2981C646.664 11.5367 644.431 9.29222 641.67 9.28498L641.658 14.285ZM641.6 38.0889L641.588 43.0889C644.35 43.0961 646.594 40.8634 646.6 38.102L641.6 38.0889ZM633.24 38.067L628.24 38.0539C628.234 40.8153 630.467 43.0597 633.228 43.067L633.24 38.067ZM633.248 34.811L638.248 34.8241C638.253 32.6881 636.901 30.7844 634.882 30.0859C632.864 29.3874 630.624 30.0483 629.309 31.731L633.248 34.811ZM626.111 38.5763L626.123 33.5763C624.739 33.5727 624.145 33.1488 623.859 32.8366C623.525 32.4718 623.032 31.6088 623.036 29.8122L618.036 29.7991L613.036 29.786C613.028 33.4014 614.042 36.9204 616.483 39.5879C618.973 42.308 622.423 43.5667 626.099 43.5763L626.111 38.5763ZM618.036 29.7991L623.036 29.8122L623.074 14.2363L618.074 14.2232L613.074 14.2101L613.036 29.786L618.036 29.7991ZM618.074 14.2232L618.062 19.2232L626.422 19.2451L626.434 14.2451L626.446 9.2451L618.086 9.2232L618.074 14.2232ZM626.434 14.2451L621.434 14.232L621.403 27.1239L626.403 27.137L631.403 27.1501L631.434 14.2582L626.434 14.2451ZM626.403 27.137L621.403 27.1239C621.398 29.2582 621.956 31.5624 623.565 33.4041C625.239 35.3201 627.537 36.144 629.769 36.1499L629.781 31.1499L629.793 26.1499C629.868 26.1501 630.07 26.1646 630.339 26.2781C630.619 26.3962 630.886 26.5858 631.096 26.8258C631.52 27.3115 631.402 27.6119 631.403 27.1501L626.403 27.137ZM629.781 31.1499L629.769 36.1499C631.987 36.1557 634.255 35.3428 635.938 33.5202C637.594 31.7263 638.261 29.4194 638.267 27.1681L633.267 27.155L628.267 27.1419C628.266 27.4867 628.18 27.1798 628.59 26.7356C628.783 26.5265 629.021 26.3656 629.266 26.2652C629.505 26.1676 629.694 26.1497 629.793 26.1499L629.781 31.1499ZM633.267 27.155L638.267 27.1681L638.298 14.2762L633.298 14.2631L628.298 14.25L628.267 27.1419L633.267 27.155ZM633.298 14.2631L633.286 19.2631L641.646 19.285L641.658 14.285L641.67 9.28498L633.31 9.26308L633.298 14.2631ZM641.658 14.285L636.658 14.2719L636.6 38.0758L641.6 38.0889L646.6 38.102L646.658 14.2981L641.658 14.285ZM641.6 38.0889L641.612 33.0889L633.252 33.067L633.24 38.067L633.228 43.067L641.588 43.0889L641.6 38.0889ZM633.24 38.067L638.24 38.0801L638.248 34.8241L633.248 34.811L628.248 34.7979L628.24 38.0539L633.24 38.067ZM633.248 34.811L629.309 31.731C628.781 32.4057 628.287 32.8592 627.812 33.142C627.386 33.3958 626.871 33.5783 626.123 33.5763L626.111 38.5763L626.099 43.5763C631.604 43.5907 635.114 40.544 637.188 37.891L633.248 34.811ZM646.079 38.1006L641.079 38.0875C641.072 40.849 643.306 43.0934 646.067 43.1006L646.079 38.1006ZM646.137 14.2967L646.149 9.29672C643.387 9.28948 641.143 11.5222 641.137 14.2836L646.137 14.2967ZM654.496 14.3186L659.496 14.3317C659.503 11.5703 657.27 9.32586 654.509 9.31862L654.496 14.3186ZM654.485 19.1146L649.485 19.1015C649.479 21.4831 651.154 23.5385 653.488 24.014C655.822 24.4894 658.166 23.2528 659.092 21.0586L654.485 19.1146ZM662.021 13.9423L667.021 13.9554C667.028 11.2803 664.928 9.07362 662.255 8.94785L662.021 13.9423ZM662 22.7423L661.988 27.7423C664.749 27.7495 666.993 25.5168 667 22.7554L662 22.7423ZM654.439 38.1225L654.427 43.1225C657.188 43.1298 659.432 40.8971 659.439 38.1356L654.439 38.1225ZM646.079 38.1006L651.079 38.1137L651.137 14.3098L646.137 14.2967L641.137 14.2836L641.079 38.0875L646.079 38.1006ZM646.137 14.2967L646.124 19.2967L654.484 19.3186L654.496 14.3186L654.509 9.31862L646.149 9.29672L646.137 14.2967ZM654.496 14.3186L649.496 14.3055L649.485 19.1015L654.485 19.1146L659.485 19.1277L659.496 14.3317L654.496 14.3186ZM654.485 19.1146L659.092 21.0586C659.573 19.9177 660.012 19.4416 660.276 19.2446C660.446 19.1174 660.808 18.8907 661.787 18.9368L662.021 13.9423L662.255 8.94785C659.275 8.80757 656.555 9.54083 654.29 11.2332C652.118 12.8558 650.769 15.0591 649.878 17.1706L654.485 19.1146ZM662.021 13.9423L657.021 13.9292L657 22.7292L662 22.7423L667 22.7554L667.021 13.9554L662.021 13.9423ZM662 22.7423L662.012 17.7423L661.308 17.7405L661.296 22.7404L661.284 27.7404L661.988 27.7423L662 22.7423ZM661.296 22.7404L661.308 17.7405C658.165 17.7322 654.895 18.6591 652.508 21.3498C650.222 23.9256 649.465 27.3219 649.457 30.7175L654.457 30.7306L659.457 30.7437C659.462 28.6393 659.946 28.0348 659.988 27.9877C660.002 27.9728 660.028 27.9377 660.159 27.8883C660.318 27.8283 660.664 27.7388 661.284 27.7404L661.296 22.7404ZM654.457 30.7306L649.457 30.7175L649.439 38.1094L654.439 38.1225L659.439 38.1356L659.457 30.7437L654.457 30.7306ZM654.439 38.1225L654.451 33.1226L646.091 33.1006L646.079 38.1006L646.067 43.1006L654.427 43.1225L654.439 38.1225ZM671.083 28.1341L666.137 28.8614C666.497 31.3106 668.596 33.1276 671.071 33.1341L671.083 28.1341ZM670.001 20.7832L666.272 17.4517C665.285 18.5571 664.839 20.0438 665.055 21.5105L670.001 20.7832ZM670.354 20.3882L669.937 15.4055C668.662 15.512 667.477 16.1029 666.625 17.0566L670.354 20.3882ZM667.546 17.3008L663.553 20.3096C664.393 21.4249 665.662 22.1379 667.051 22.2762C668.441 22.4145 669.825 21.9655 670.868 21.0378L667.546 17.3008ZM663.16 11.4813L659.633 7.93651C657.862 9.69783 657.664 12.4955 659.167 14.4901L663.16 11.4813ZM676.942 25.3335L675.772 20.472C673.861 20.9316 672.397 22.4682 672.03 24.3991L676.942 25.3335ZM676.408 28.1481L676.395 33.148C678.801 33.1543 680.871 31.4461 681.32 29.0824L676.408 28.1481ZM669.255 38.1614L664.255 38.1483C664.249 40.9097 666.482 43.1541 669.243 43.1613L669.255 38.1614ZM669.273 30.6814L669.285 25.6814C666.524 25.6742 664.28 27.9069 664.273 30.6683L669.273 30.6814ZM677.941 30.7041L682.941 30.7172C682.948 27.9558 680.715 25.7113 677.953 25.7041L677.941 30.7041ZM677.923 38.1841L677.911 43.184C680.673 43.1913 682.917 40.9586 682.923 38.1972L677.923 38.1841ZM671.083 28.1341L676.03 27.4068L674.948 20.056L670.001 20.7832L665.055 21.5105L666.137 28.8614L671.083 28.1341ZM670.001 20.7832L673.73 24.1148L674.083 23.7198L670.354 20.3882L666.625 17.0566L666.272 17.4517L670.001 20.7832ZM670.354 20.3882L670.772 25.3708C673.489 25.1437 676.066 24.6798 678.092 23.5917C679.179 23.0078 680.281 22.1531 681.096 20.9004C681.937 19.6096 682.267 18.2114 682.271 16.8994L677.271 16.8863L672.271 16.8732C672.272 16.5072 672.375 15.9664 672.716 15.4428C672.869 15.2066 673.031 15.0386 673.157 14.9297C673.218 14.8765 673.269 14.8395 673.304 14.816C673.338 14.7927 673.358 14.7821 673.359 14.7817C673.359 14.7814 673.343 14.7901 673.307 14.8058C673.27 14.8214 673.217 14.8429 673.143 14.8685C672.993 14.9204 672.779 14.9836 672.485 15.05C671.889 15.1848 671.06 15.3116 669.937 15.4055L670.354 20.3882ZM677.271 16.8863L682.271 16.8994L682.271 16.8554L677.271 16.8423L672.271 16.8292L672.271 16.8732L677.271 16.8863ZM677.271 16.8423L682.271 16.8554C682.276 14.6243 681.313 12.4901 679.414 11.0675C677.699 9.78306 675.686 9.4181 673.989 9.41366L673.977 14.4136L673.965 19.4136C674.379 19.4147 674.015 19.5161 673.42 19.0706C673.097 18.8285 672.777 18.471 672.552 18.0066C672.331 17.5487 672.27 17.1267 672.271 16.8292L677.271 16.8423ZM673.977 14.4136L673.989 9.41366C670.285 9.40396 666.857 11.2222 664.223 13.5638L667.546 17.3008L670.868 21.0378C672.379 19.6943 673.532 19.4125 673.965 19.4136L673.977 14.4136ZM667.546 17.3008L671.538 14.292L667.152 8.47246L663.16 11.4813L659.167 14.4901L663.553 20.3096L667.546 17.3008ZM663.16 11.4813L666.687 15.0261C668.532 13.1898 670.949 11.8817 674.555 11.8911L674.567 6.89116L674.579 1.89118C668.065 1.87411 663.168 4.41885 659.633 7.93651L663.16 11.4813ZM674.567 6.89116L674.555 11.8911C676.925 11.8974 678.461 12.5469 679.303 13.242C680.045 13.8549 680.548 14.7281 680.544 16.1469L685.544 16.16L690.544 16.1731C690.555 11.8719 688.803 8.11911 685.67 5.53181C682.636 3.0268 678.676 1.90191 674.579 1.89118L674.567 6.89116ZM685.544 16.16L680.544 16.1469L680.544 16.2349L685.544 16.248L690.544 16.2611L690.544 16.1731L685.544 16.16ZM685.544 16.248L680.544 16.2349C680.541 17.7468 680.102 18.3612 679.664 18.7687C679.036 19.3527 677.854 19.9714 675.772 20.472L676.942 25.3335L678.112 30.1949C680.917 29.5203 684.029 28.3682 686.478 26.0893C689.116 23.6339 690.534 20.2931 690.544 16.2611L685.544 16.248ZM676.942 25.3335L672.03 24.3991L671.495 27.2137L676.408 28.1481L681.32 29.0824L681.854 26.2678L676.942 25.3335ZM676.408 28.1481L676.42 23.1481L671.096 23.1341L671.083 28.1341L671.071 33.1341L676.395 33.148L676.408 28.1481ZM669.255 38.1614L674.255 38.1745L674.273 30.6945L669.273 30.6814L664.273 30.6683L664.255 38.1483L669.255 38.1614ZM669.273 30.6814L669.261 35.6814L677.929 35.7041L677.941 30.7041L677.953 25.7041L669.285 25.6814L669.273 30.6814ZM677.941 30.7041L672.941 30.691L672.923 38.171L677.923 38.1841L682.923 38.1972L682.941 30.7172L677.941 30.7041ZM677.923 38.1841L677.935 33.1841L669.267 33.1614L669.255 38.1614L669.243 43.1613L677.911 43.184L677.923 38.1841Z" fill="black" mask="url(#path-1-outside-1_1553_2603)"/>
</svg>
