<svg width="678" height="106" viewBox="0 0 678 106" fill="none" xmlns="http://www.w3.org/2000/svg">
<path d="M5.16591 106C2.31286 106 0 103.687 0 100.834L0 62.8092C0 59.9561 2.31285 57.6433 5.1659 57.6433L73.9948 57.6433C78.5085 57.6433 80.8515 63.0252 77.776 66.329L42.379 104.354C41.4018 105.404 40.0321 106 38.5978 106H5.16591Z" fill="#FF3044"/>
<path d="M279.097 57.6328C281.95 57.6328 284.263 59.9457 284.263 62.7987V100.824C284.263 103.677 281.95 105.99 279.097 105.99H210.268C205.755 105.99 203.412 100.608 206.487 97.3038L241.884 59.2789C242.861 58.2291 244.231 57.6328 245.665 57.6328H279.097Z" fill="#FF3044"/>
<path d="M398.626 0C395.773 0 393.46 2.31285 393.46 5.1659V43.1908C393.46 46.0439 395.773 48.3567 398.626 48.3567L467.455 48.3567C471.969 48.3567 474.312 42.9748 471.236 39.671L435.839 1.64606C434.862 0.596266 433.493 0 432.058 0L398.626 0Z" fill="#FF3044"/>
<path d="M61.0328 106C56.5223 106 54.1781 100.625 57.247 97.3192L91.1552 60.7972C92.0423 59.8418 92.5353 58.5862 92.5353 57.2824V32.7947C92.5353 29.9416 94.8482 27.6288 97.7012 27.6288H119.046C121.9 27.6288 124.212 29.9416 124.212 32.7947V100.834C124.212 103.687 121.9 106 119.046 106H61.0328Z" fill="#FF3044"/>
<rect x="92.5361" y="20.9531" width="20.8434" height="31.677" rx="5.1659" transform="rotate(-90 92.5361 20.9531)" fill="#FF3044"/>
<path d="M186.567 53.4707C189.421 53.4707 191.733 55.7836 191.733 58.6366V100.83C191.733 103.683 189.421 105.996 186.567 105.996H136.046C133.193 105.996 130.88 103.683 130.88 100.83V58.6366C130.88 55.7836 133.193 53.4707 136.046 53.4707H186.567ZM155.888 79.1544C155.888 82.0075 158.201 84.3203 161.054 84.3203H161.559C164.412 84.3203 166.725 82.0075 166.725 79.1544V58.6376C166.725 55.7845 164.412 53.4717 161.559 53.4717H161.054C158.201 53.4717 155.888 55.7845 155.888 58.6376V79.1544Z" fill="#FF3044"/>
<path d="M140.283 33.2839C137.393 37.4341 130.877 35.3892 130.877 30.3319V5.26769C130.877 2.41464 133.19 0.10178 136.043 0.10178H153.496C157.67 0.10178 160.12 4.79467 157.735 8.21965L140.283 33.2839Z" fill="#FF3044"/>
<path d="M167.203 4.49703C168.912 2.05994 172.336 1.565 174.375 3.73289C179.09 8.74461 183.001 15.1981 185.912 21.2271C188.871 27.3568 190.736 33.985 191.428 40.7856C191.717 43.6212 189.418 45.9708 186.568 46.0158L147.673 46.6309C143.455 46.6976 140.94 41.954 143.362 38.4999L167.203 4.49703Z" fill="#FF3044"/>
<path d="M207.354 89.709C204.157 93.1433 198.407 90.8811 198.407 86.1891V45.5443C198.407 45.5443 198.407 34.2889 191.738 19.49C190.439 16.6068 188.949 14.0282 187.423 11.7656C184.626 7.61784 187.615 0.105652 192.618 0.105652H238.256C241.109 0.105652 243.422 2.4185 243.422 5.27155V48.9313C243.422 50.2374 242.927 51.4951 242.037 52.4511L207.354 89.709Z" fill="#FF3044"/>
<path d="M80.6935 0.0986328C83.5465 0.0986328 85.8594 2.41149 85.8594 5.26454V45.7911C85.8594 48.6442 83.5465 50.957 80.6935 50.957H62.6825C59.8295 50.957 57.5166 48.6442 57.5166 45.7911V35.5303C57.5166 32.9981 59.5694 30.9453 62.1016 30.9453C64.6338 30.9453 66.6865 28.8926 66.6865 26.3604V24.6914C66.6865 22.1592 64.6338 20.1064 62.1016 20.1064C59.5694 20.1064 57.5166 18.0537 57.5166 15.5215V5.26454C57.5166 2.41149 59.8295 0.0986328 62.6825 0.0986328H80.6935Z" fill="#FF3044"/>
<path d="M672.558 48.3613C675.411 48.3613 677.724 46.0485 677.724 43.1954V5.17051C677.724 2.31746 675.411 0.00460434 672.558 0.00460434L603.729 0.00460434C599.215 0.00460434 596.872 5.38653 599.948 8.69036L635.345 46.7153C636.322 47.7651 637.692 48.3613 639.126 48.3613H672.558Z" fill="#FF3044"/>
<path d="M255.251 50.959C252.398 50.959 250.085 48.6461 250.085 45.7931V5.26696C250.085 2.41391 252.398 0.101051 255.251 0.101051L327.439 0.101051C331.949 0.101051 334.294 5.47514 331.226 8.78093L293.618 49.3071C292.64 50.3604 291.268 50.959 289.831 50.959H255.251Z" fill="#FF3044"/>
<path d="M25.8388 0.0986328C25.8405 0.0986328 25.8418 0.0999565 25.8418 0.101585C25.8418 0.103199 25.8431 0.104515 25.8447 0.104538C39.6929 0.328735 50.8496 11.6245 50.8496 25.5283C50.8495 39.432 39.6929 50.7269 25.8447 50.9511C25.8431 50.9512 25.8418 50.9525 25.8418 50.9541C25.8418 50.9557 25.8405 50.957 25.8388 50.957H5.16591C2.31286 50.957 0 48.6442 0 45.7911L0 5.26454C0 2.41149 2.31285 0.0986328 5.1659 0.0986328H25.8388Z" fill="#FF3044"/>
<path d="M454.501 0C449.991 0 447.646 5.37527 450.715 8.68077L484.623 45.2028C485.511 46.1582 486.004 47.4138 486.004 48.7176V73.2053C486.004 76.0584 488.316 78.3712 491.17 78.3712H512.515C515.368 78.3712 517.681 76.0584 517.681 73.2053V5.16589C517.681 2.31284 515.368 0 512.515 0L454.501 0Z" fill="#FF3044"/>
<rect width="20.8434" height="31.677" rx="5.1659" transform="matrix(0 1 1 0 485.993 85.0469)" fill="#FF3044"/>
<path d="M580.034 53.4609C582.887 53.4609 585.2 55.7738 585.2 58.6268V100.82C585.2 103.673 582.887 105.986 580.034 105.986H529.22C526.367 105.986 524.054 103.673 524.054 100.82V58.6268C524.054 55.7738 526.367 53.4609 529.22 53.4609H580.034ZM549.358 79.1446C549.358 81.9977 551.671 84.3105 554.524 84.3105H555.029C557.882 84.3105 560.195 81.9977 560.195 79.1446V58.6278C560.195 55.7748 557.882 53.4619 555.029 53.4619H554.524C551.671 53.4619 549.358 55.7748 549.358 58.6278V79.1446Z" fill="#FF3044"/>
<path d="M533.753 33.2917C530.864 37.4419 524.348 35.397 524.348 30.3397V5.2755C524.348 2.42245 526.661 0.109592 529.514 0.109592H546.967C551.14 0.109592 553.591 4.80249 551.206 8.22747L533.753 33.2917Z" fill="#FF3044"/>
<path d="M560.67 4.50484C562.379 2.06775 565.803 1.57281 567.842 3.7407C572.557 8.75242 576.468 15.2059 579.378 21.2349C582.338 27.3646 584.202 33.9928 584.895 40.7934C585.183 43.629 582.885 45.9786 580.035 46.0236L541.14 46.6387C536.922 46.7054 534.407 41.9618 536.828 38.5077L560.67 4.50484Z" fill="#FF3044"/>
<path d="M600.809 16.291C597.613 12.8567 591.862 15.1189 591.862 19.8109V60.4557L591.863 100.728C591.863 103.582 594.176 105.894 597.029 105.894H631.711C634.564 105.894 636.877 103.581 636.877 100.728V57.0687C636.877 55.7626 636.382 54.5049 635.492 53.5489L600.809 16.291Z" fill="#FF3044"/>
<path d="M474.158 105.886C477.011 105.886 479.324 103.573 479.324 100.72V60.1933C479.324 57.3402 477.011 55.0273 474.158 55.0273H456.147C453.294 55.0273 450.981 57.3402 450.981 60.1932V70.4541C450.981 72.9863 453.034 75.0391 455.566 75.0391C458.098 75.0391 460.151 77.0918 460.151 79.624V81.293C460.151 83.8252 458.098 85.8779 455.566 85.8779C453.034 85.8779 450.981 87.9307 450.981 90.4629V100.72C450.981 103.573 453.294 105.886 456.147 105.886H474.158Z" fill="#FF3044"/>
<ellipse cx="317.189" cy="79.7373" rx="26.2627" ry="26.2586" transform="rotate(-90 317.189 79.7373)" fill="#FF3044"/>
<path d="M419.303 105.886C419.305 105.886 419.306 105.884 419.306 105.883C419.306 105.881 419.307 105.88 419.309 105.88C433.157 105.656 444.314 94.3599 444.314 80.4561C444.314 66.5524 433.157 55.2574 419.309 55.0333C419.307 55.0332 419.306 55.0319 419.306 55.0303C419.306 55.0287 419.305 55.0273 419.303 55.0273H398.63C395.777 55.0273 393.464 57.3402 393.464 60.1932V100.72C393.464 103.573 395.777 105.886 398.63 105.886H419.303Z" fill="#FF3044"/>
<path fill-rule="evenodd" clip-rule="evenodd" d="M666.282 55.0263C652.432 55.2482 641.272 66.5466 641.272 80.4519C641.272 94.3572 652.432 105.656 666.282 105.878V105.881H666.697L677.731 105.881V55.0229H666.697H666.282V55.0263Z" fill="#FF3044"/>
<path d="M344.404 1.8009C345.382 0.725975 346.769 0.113281 348.222 0.113281H381.622C384.475 0.113281 386.787 2.42535 386.787 5.27743V12.2802C386.787 15.1323 384.475 17.4443 381.622 17.4443H367.163C364.311 17.4443 361.999 19.7564 361.999 22.6085V31.7323C361.999 34.5844 364.311 36.8965 367.163 36.8965H381.622C384.475 36.8965 386.787 39.2085 386.787 42.0606V100.834C386.787 103.686 384.475 105.998 381.622 105.998H351.813C347.283 105.998 344.598 100.205 346.409 96.052C348.254 91.8203 349.278 87.148 349.278 82.2363C349.278 63.1273 333.789 47.6358 314.683 47.6357C311.375 47.6357 307.847 41.9552 310.074 39.5086L344.404 1.8009Z" fill="#FF3044"/>
</svg>
