<svg width="505" height="311" viewBox="0 0 505 311" fill="none" xmlns="http://www.w3.org/2000/svg">
<g opacity="0.28">
<path d="M200.516 271.526L264.161 281.771L339.212 142.769L495.715 262.578L463.822 139.931L339.212 142.769L284.817 78.5886L134.942 60.8234L144.53 140.595L17.404 71.9558L14.7032 122.962L56.2948 149.44L100.604 217.58L200.516 271.526Z" fill="url(#paint0_linear_1553_2533)" fill-opacity="0.11"/>
<path d="M0.691398 163.635L100.604 217.58M264.161 281.771L200.516 271.526L100.604 217.58M264.161 281.771L144.53 140.595M264.161 281.771L56.2948 149.44M264.161 281.771L339.212 142.769M144.53 140.595L17.404 71.9558L14.7032 122.962L56.2948 149.44M144.53 140.595L56.2948 149.44M144.53 140.595L134.942 60.8234M100.604 217.58L56.2948 149.44M134.942 60.8234L284.817 78.5886M134.942 60.8234L99.8653 13.5385M284.817 78.5886L339.212 142.769M284.817 78.5886L292.891 0.148159M339.212 142.769L463.822 139.931M339.212 142.769L495.715 262.578M463.822 139.931L495.715 262.578M463.822 139.931L526.495 85.4994M495.715 262.578L581.876 309.099M495.715 262.578L577.893 252.991" stroke="url(#paint1_radial_1553_2533)" stroke-opacity="0.75" stroke-width="2.90345"/>
</g>
<defs>
<linearGradient id="paint0_linear_1553_2533" x1="-36.9759" y1="520.001" x2="181.415" y2="344.106" gradientUnits="userSpaceOnUse">
<stop stop-color="#787878"/>
<stop offset="1" stop-color="#FF00FF"/>
</linearGradient>
<radialGradient id="paint1_radial_1553_2533" cx="0" cy="0" r="1" gradientTransform="matrix(-277.719 286.181 304.334 295.657 279.137 309.005)" gradientUnits="userSpaceOnUse">
<stop stop-color="white"/>
<stop offset="1" stop-color="#999999" stop-opacity="0"/>
</radialGradient>
</defs>
</svg>
