<svg width="868" height="216" viewBox="0 0 868 216" fill="none" xmlns="http://www.w3.org/2000/svg">
<g filter="url(#filter0_d_1401_2506)">
<path d="M-58.3582 98.6066C-59.2649 88.2006 -51.5643 79.0298 -41.1583 78.123L833.336 1.92225C843.742 1.01551 852.913 8.71619 853.82 19.1222L860.57 96.5878C861.219 104.036 857.419 111.168 850.876 114.784L811.248 136.681C808.933 137.96 806.376 138.739 803.742 138.969L-29.5294 211.578C-39.9354 212.484 -49.1062 204.784 -50.013 194.378L-58.3582 98.6066Z" fill="url(#paint0_linear_1401_2506)"/>
<path d="M-40.8225 81.9766L833.672 5.7758C841.95 5.05463 849.244 11.1806 849.966 19.458L856.716 96.9232C857.232 102.848 854.21 108.521 849.005 111.397L809.377 133.295C807.536 134.312 805.501 134.932 803.406 135.115L-29.8653 207.724C-38.1428 208.445 -45.4382 202.319 -46.1594 194.042L-54.5046 98.2708C-55.2259 89.9933 -49.1 82.6979 -40.8225 81.9766Z" stroke="white" stroke-width="7.73719"/>
</g>
<path d="M860.343 101.634C861.899 101.498 862.583 103.52 861.301 104.377L811.197 137.839C810.295 138.441 809.07 137.916 808.886 136.846L805.778 118.824C805.773 118.793 805.764 118.761 805.751 118.725C804.997 116.642 805.102 113.508 807.721 110.714C810.322 107.938 815.348 105.555 824.314 104.773L860.343 101.634Z" fill="white" stroke="#C7C7C7"/>
<path d="M76.2782 111.274L73.8799 128.54L67.2809 129.115L64.4828 119.674L63.3598 129.456L56.7608 130.031L51.4124 113.441L57.1268 112.943L59.5862 123.473L60.9523 112.61L66.7384 112.105L69.9629 122.569L70.5639 111.772L76.2782 111.274ZM91.8742 120.057C91.9061 120.424 91.9128 120.777 91.8941 121.116L83.3585 121.859C83.5396 123.016 84.0764 123.556 84.969 123.478C85.5428 123.428 85.9344 123.129 86.1436 122.58L91.7623 122.091C91.6543 123.064 91.3229 123.96 90.7679 124.779C90.2275 125.581 89.5065 126.246 88.6049 126.775C87.7179 127.286 86.7166 127.59 85.6008 127.687C84.2619 127.803 83.0421 127.629 81.9415 127.163C80.8568 126.695 79.9744 125.969 79.2944 124.984C78.6289 123.982 78.235 122.78 78.1128 121.377C77.9906 119.974 78.1712 118.73 78.6548 117.644C79.1529 116.54 79.8956 115.665 80.8831 115.017C81.8865 114.367 83.0577 113.984 84.3966 113.867C85.7355 113.751 86.9473 113.926 88.032 114.394C89.1312 114.844 90.0122 115.554 90.6749 116.524C91.3536 117.493 91.7533 118.671 91.8742 120.057ZM86.3841 119.259C86.3453 118.813 86.1726 118.49 85.8663 118.292C85.5585 118.078 85.1895 117.99 84.7591 118.027C83.8187 118.109 83.3083 118.612 83.2281 119.534L86.3841 119.259ZM96.5176 118.015C96.3717 116.341 96.5766 114.821 97.1322 113.456C97.7037 112.089 98.5878 110.992 99.7845 110.165C100.98 109.322 102.43 108.827 104.136 108.678C105.602 108.55 106.934 108.715 108.13 109.173C109.341 109.614 110.349 110.305 111.153 111.247C111.974 112.187 112.562 113.316 112.918 114.634L107.323 115.122C107.02 114.586 106.615 114.188 106.111 113.926C105.621 113.648 105.073 113.535 104.467 113.588C103.575 113.666 102.895 114.062 102.427 114.777C101.975 115.491 101.799 116.414 101.897 117.546C101.996 118.678 102.329 119.556 102.898 120.181C103.482 120.805 104.221 121.078 105.113 121C105.719 120.947 106.24 120.749 106.675 120.406C107.126 120.045 107.454 119.575 107.661 118.995L113.256 118.508C113.133 119.867 112.749 121.081 112.103 122.149C111.474 123.216 110.601 124.079 109.486 124.738C108.386 125.38 107.102 125.765 105.636 125.893C103.93 126.041 102.417 125.812 101.095 125.204C99.7719 124.581 98.7106 123.646 97.9114 122.398C97.128 121.149 96.6634 119.688 96.5176 118.015ZM114.194 118.233C114.07 116.814 114.202 115.566 114.59 114.489C114.992 113.393 115.592 112.538 116.39 111.923C117.186 111.291 118.11 110.929 119.162 110.838C120.039 110.761 120.812 110.879 121.482 111.19C122.15 111.485 122.678 111.929 123.067 112.521L122.907 110.68L128.191 110.22L129.366 123.705L124.082 124.165L123.921 122.324C123.641 122.975 123.198 123.511 122.592 123.934C121.985 124.34 121.243 124.581 120.367 124.657C119.315 124.749 118.343 124.561 117.45 124.092C116.557 123.608 115.818 122.87 115.234 121.877C114.664 120.866 114.317 119.652 114.194 118.233ZM123.494 117.423C123.432 116.705 123.2 116.163 122.799 115.797C122.397 115.43 121.91 115.272 121.336 115.322C120.762 115.372 120.309 115.612 119.977 116.043C119.645 116.473 119.511 117.047 119.573 117.764C119.636 118.482 119.868 119.023 120.269 119.39C120.67 119.757 121.158 119.915 121.732 119.865C122.305 119.815 122.758 119.575 123.09 119.144C123.422 118.714 123.557 118.14 123.494 117.423ZM135.86 112.057C136.334 111.229 136.941 110.549 137.682 110.019C138.421 109.473 139.213 109.163 140.058 109.089L140.552 114.756L139.045 114.887C138.041 114.975 137.315 115.215 136.868 115.607C136.436 115.998 136.259 116.64 136.337 117.532L136.818 123.055L131.51 123.518L130.335 110.033L135.643 109.57L135.86 112.057ZM154.889 114.567C154.92 114.933 154.927 115.286 154.908 115.625L146.373 116.369C146.554 117.525 147.091 118.065 147.983 117.987C148.557 117.937 148.949 117.638 149.158 117.09L154.777 116.6C154.669 117.573 154.337 118.469 153.782 119.288C153.242 120.09 152.521 120.755 151.619 121.284C150.732 121.795 149.731 122.099 148.615 122.196C147.276 122.313 146.056 122.138 144.956 121.672C143.871 121.204 142.989 120.478 142.309 119.493C141.643 118.491 141.249 117.289 141.127 115.886C141.005 114.483 141.186 113.239 141.669 112.153C142.167 111.05 142.91 110.174 143.897 109.526C144.901 108.876 146.072 108.493 147.411 108.376C148.75 108.26 149.962 108.435 151.046 108.903C152.146 109.353 153.027 110.063 153.689 111.033C154.368 112.002 154.768 113.18 154.889 114.567ZM149.398 113.768C149.36 113.322 149.187 113 148.881 112.801C148.573 112.587 148.204 112.499 147.773 112.537C146.833 112.618 146.323 113.121 146.242 114.043L149.398 113.768ZM171.382 117.466L165.739 117.957L165.125 120.589L159.554 121.074L164.272 103.607L170.393 103.073L178.036 119.464L172.441 119.951L171.382 117.466ZM169.743 113.585L167.802 109.009L166.682 113.852L169.743 113.585ZM183.296 107.273C183.577 106.622 184.013 106.094 184.604 105.69C185.209 105.267 185.951 105.018 186.827 104.942C187.879 104.85 188.852 105.046 189.745 105.531C190.637 105.999 191.368 106.738 191.938 107.749C192.523 108.742 192.877 109.947 193 111.366C193.124 112.785 192.984 114.042 192.582 115.137C192.194 116.214 191.602 117.069 190.806 117.7C190.008 118.316 189.083 118.67 188.031 118.761C187.155 118.838 186.382 118.728 185.714 118.433C185.061 118.121 184.539 117.668 184.15 117.076L184.311 118.917L179.003 119.379L177.461 101.686L182.769 101.224L183.296 107.273ZM187.621 111.835C187.558 111.118 187.326 110.576 186.925 110.209C186.524 109.843 186.036 109.684 185.462 109.734C184.888 109.784 184.435 110.025 184.104 110.455C183.772 110.885 183.637 111.459 183.699 112.177C183.762 112.894 183.994 113.436 184.395 113.802C184.797 114.169 185.284 114.327 185.858 114.277C186.432 114.227 186.885 113.987 187.217 113.556C187.548 113.126 187.683 112.552 187.621 111.835ZM201.437 117.593C200.082 117.711 198.839 117.539 197.706 117.075C196.574 116.612 195.651 115.889 194.939 114.907C194.242 113.908 193.832 112.707 193.71 111.304C193.588 109.902 193.784 108.656 194.3 107.567C194.83 106.461 195.612 105.581 196.648 104.929C197.683 104.277 198.878 103.892 200.233 103.774C201.588 103.656 202.832 103.828 203.964 104.292C205.097 104.755 206.011 105.486 206.709 106.486C207.421 107.468 207.838 108.66 207.96 110.063C208.082 111.465 207.878 112.72 207.348 113.826C206.833 114.915 206.058 115.785 205.022 116.438C203.987 117.09 202.792 117.475 201.437 117.593ZM201.037 113.003C201.531 112.96 201.929 112.732 202.23 112.32C202.53 111.893 202.647 111.296 202.58 110.531C202.514 109.766 202.296 109.207 201.928 108.854C201.559 108.484 201.127 108.321 200.633 108.364C200.139 108.407 199.742 108.643 199.442 109.07C199.14 109.482 199.023 110.07 199.09 110.835C199.156 111.601 199.366 112.168 199.72 112.539C200.088 112.893 200.527 113.047 201.037 113.003ZM223.075 101.952L224.25 115.437L218.942 115.899L218.763 113.843C218.404 114.517 217.891 115.083 217.225 115.543C216.574 116.001 215.77 116.272 214.814 116.355C213.268 116.49 212.011 116.078 211.044 115.118C210.093 114.157 209.541 112.792 209.387 111.022L208.705 103.204L213.989 102.744L214.612 109.892C214.668 110.53 214.88 111.025 215.248 111.379C215.63 111.715 216.108 111.858 216.682 111.808C217.272 111.757 217.718 111.533 218.021 111.137C218.323 110.725 218.445 110.201 218.39 109.563L217.767 102.414L223.075 101.952ZM234.407 109.999L234.8 114.517L232.792 114.692C229.094 115.015 227.084 113.335 226.764 109.653L226.455 106.114L224.782 106.26L224.396 101.837L226.07 101.691L225.787 98.4392L231.094 97.9767L231.378 101.228L233.577 101.037L233.963 105.46L231.763 105.652L232.08 109.286C232.108 109.605 232.2 109.829 232.355 109.96C232.527 110.09 232.789 110.139 233.139 110.109L234.407 109.999ZM248.405 108.779L248.799 113.298L246.79 113.473C243.092 113.795 241.083 112.115 240.762 108.433L240.454 104.894L238.78 105.04L238.394 100.617L240.068 100.471L239.785 97.2194L245.093 96.7569L245.376 100.009L247.576 99.8169L247.961 104.24L245.761 104.432L246.078 108.066C246.106 108.385 246.198 108.61 246.354 108.741C246.526 108.87 246.787 108.92 247.138 108.889L248.405 108.779ZM258.842 98.7388C260.388 98.6041 261.636 99.0173 262.587 99.9784C263.554 100.938 264.115 102.303 264.269 104.072L264.95 111.89L259.666 112.351L259.044 105.202C258.988 104.564 258.769 104.077 258.386 103.741C258.018 103.388 257.547 103.236 256.973 103.286C256.384 103.338 255.938 103.569 255.637 103.981C255.334 104.377 255.21 104.893 255.266 105.531L255.889 112.68L250.581 113.142L249.039 95.4494L254.347 94.9869L254.893 101.251C255.252 100.577 255.757 100.011 256.407 99.5533C257.074 99.0937 257.885 98.8222 258.842 98.7388ZM279.47 103.711C279.502 104.078 279.508 104.43 279.49 104.769L270.954 105.513C271.135 106.67 271.672 107.209 272.564 107.131C273.138 107.081 273.53 106.782 273.739 106.234L279.358 105.744C279.25 106.717 278.918 107.614 278.363 108.433C277.823 109.235 277.102 109.9 276.2 110.428C275.313 110.939 274.312 111.243 273.196 111.34C271.857 111.457 270.637 111.282 269.537 110.816C268.452 110.348 267.57 109.622 266.89 108.638C266.224 107.636 265.83 106.433 265.708 105.031C265.586 103.628 265.767 102.383 266.25 101.297C266.748 100.194 267.491 99.3182 268.479 98.67C269.482 98.0205 270.653 97.6374 271.992 97.5207C273.331 97.404 274.543 97.5795 275.627 98.0471C276.727 98.4974 277.608 99.2076 278.27 100.178C278.949 101.146 279.349 102.324 279.47 103.711ZM273.98 102.913C273.941 102.466 273.768 102.144 273.462 101.946C273.154 101.732 272.785 101.643 272.355 101.681C271.414 101.763 270.904 102.265 270.824 103.188L273.98 102.913ZM299.516 91.8219L300.991 108.75L295.684 109.212L295.109 102.613L290.064 103.053L290.639 109.652L285.331 110.114L283.856 93.1865L289.164 92.724L289.695 98.8209L294.74 98.3813L294.208 92.2844L299.516 91.8219ZM301.836 101.882C301.712 100.464 301.844 99.2157 302.232 98.1379C302.635 97.0429 303.235 96.1876 304.032 95.572C304.828 94.9405 305.752 94.5789 306.804 94.4872C307.681 94.4109 308.454 94.5282 309.124 94.8392C309.792 95.1344 310.32 95.5782 310.709 96.1706L310.549 94.3296L315.833 93.8692L317.008 107.354L311.724 107.815L311.564 105.973C311.283 106.624 310.84 107.161 310.234 107.583C309.627 107.989 308.885 108.23 308.009 108.307C306.957 108.399 305.985 108.21 305.093 107.742C304.199 107.258 303.46 106.519 302.876 105.526C302.306 104.516 301.959 103.301 301.836 101.882ZM311.136 101.072C311.074 100.355 310.842 99.8129 310.441 99.4463C310.039 99.0798 309.552 98.9215 308.978 98.9715C308.404 99.0215 307.951 99.2617 307.619 99.6922C307.287 100.123 307.153 100.696 307.215 101.414C307.278 102.131 307.51 102.673 307.911 103.039C308.312 103.406 308.8 103.564 309.374 103.514C309.948 103.464 310.4 103.224 310.732 102.794C311.064 102.363 311.199 101.789 311.136 101.072ZM317.848 100.487C317.725 99.0846 317.906 97.8402 318.389 96.7541C318.888 95.6507 319.63 94.7749 320.618 94.1268C321.621 93.4772 322.792 93.0941 324.131 92.9774C325.885 92.8247 327.402 93.1903 328.684 94.0744C329.981 94.9571 330.866 96.2612 331.337 97.9868L325.719 98.4764C325.45 97.7931 325.013 97.4779 324.408 97.5306C323.977 97.5681 323.652 97.7973 323.432 98.218C323.227 98.6373 323.159 99.2375 323.227 100.019C323.295 100.8 323.466 101.379 323.74 101.757C324.03 102.133 324.39 102.302 324.82 102.265C325.426 102.212 325.802 101.826 325.948 101.106L331.567 100.617C331.401 102.398 330.755 103.835 329.63 104.929C328.52 106.022 327.089 106.644 325.336 106.797C323.997 106.914 322.777 106.739 321.676 106.273C320.591 105.805 319.709 105.079 319.029 104.094C318.364 103.092 317.97 101.89 317.848 100.487ZM342.114 105.166L338.322 100.076L338.791 105.456L333.483 105.918L331.941 88.2255L337.249 87.763L338.055 97.016L340.987 91.6773L347.156 91.1398L342.702 98.3697L348.45 104.614L342.114 105.166ZM361.858 96.5319C361.89 96.8985 361.897 97.2512 361.878 97.5901L353.342 98.3339C353.523 99.4906 354.06 100.03 354.953 99.9522C355.527 99.9022 355.918 99.6031 356.127 99.0549L361.746 98.5653C361.638 99.5383 361.307 100.434 360.752 101.254C360.211 102.056 359.49 102.721 358.589 103.249C357.702 103.76 356.7 104.064 355.585 104.161C354.246 104.278 353.026 104.103 351.925 103.637C350.841 103.169 349.958 102.443 349.278 101.459C348.613 100.456 348.219 99.2541 348.097 97.8515C347.974 96.4488 348.155 95.2044 348.639 94.1183C349.137 93.0149 349.879 92.1391 350.867 91.491C351.87 90.8414 353.042 90.4583 354.38 90.3416C355.719 90.225 356.931 90.4004 358.016 90.868C359.115 91.3183 359.996 92.0285 360.659 92.9986C361.337 93.9674 361.737 95.1451 361.858 96.5319ZM356.368 95.7334C356.329 95.2871 356.156 94.9649 355.85 94.7667C355.542 94.5527 355.173 94.4644 354.743 94.5019C353.803 94.5838 353.292 95.086 353.212 96.0085L356.368 95.7334ZM368.245 91.8076C368.719 90.9793 369.326 90.3 370.067 89.7697C370.806 89.2235 371.599 88.9136 372.443 88.84L372.937 94.5065L371.431 94.6377C370.427 94.7252 369.701 94.9652 369.253 95.3575C368.821 95.7484 368.644 96.3902 368.722 97.2828L369.203 102.806L363.896 103.268L362.721 89.7835L368.028 89.321L368.245 91.8076ZM382.843 88.8252L383.024 90.9053L388.284 90.4469L388.632 94.4398L383.372 94.8981L383.58 97.2891L389.557 96.7682L389.926 101L378.641 101.984L377.166 85.0557L388.451 84.0723L388.82 88.3043L382.843 88.8252ZM400.534 100.076L397.998 97.2373L396.565 100.422L390.731 100.93L394.631 93.4352L389.317 87.466L395.246 86.9493L397.785 89.8118L399.239 86.6014L405.073 86.093L401.015 93.433L406.463 99.5592L400.534 100.076ZM411.712 87.3695C411.993 86.7187 412.429 86.1909 413.02 85.7861C413.625 85.3639 414.367 85.1146 415.243 85.0382C416.295 84.9466 417.268 85.1429 418.161 85.6271C419.053 86.0955 419.784 86.8348 420.354 87.8451C420.939 88.8382 421.293 90.044 421.416 91.4626C421.54 92.8812 421.4 94.1381 420.998 95.2332C420.61 96.3109 420.018 97.1655 419.222 97.797C418.424 98.4126 417.5 98.7662 416.447 98.8579C415.571 98.9342 414.798 98.8249 414.13 98.5298C413.477 98.2173 412.955 97.7649 412.567 97.1724L413.289 105.469L407.982 105.931L406.244 85.991L411.552 85.5285L411.712 87.3695ZM416.037 91.9314C415.974 91.2141 415.742 90.6722 415.341 90.3056C414.94 89.9391 414.452 89.7808 413.878 89.8308C413.304 89.8808 412.851 90.121 412.52 90.5515C412.188 90.9819 412.053 91.5558 412.116 92.273C412.178 92.9903 412.41 93.5322 412.811 93.8988C413.213 94.2653 413.7 94.4236 414.274 94.3736C414.848 94.3236 415.301 94.0834 415.633 93.6529C415.964 93.2225 416.099 92.6487 416.037 91.9314ZM435.888 90.0812C435.919 90.4478 435.926 90.8005 435.907 91.1394L427.372 91.8832C427.553 93.0399 428.09 93.5793 428.982 93.5015C429.556 93.4515 429.948 93.1524 430.157 92.6042L435.776 92.1146C435.668 93.0876 435.336 93.9838 434.781 94.803C434.241 95.605 433.52 96.2701 432.618 96.7983C431.731 97.3093 430.73 97.6133 429.614 97.7106C428.275 97.8272 427.055 97.6525 425.955 97.1862C424.87 96.7186 423.988 95.9925 423.308 95.0078C422.642 94.0058 422.248 92.8034 422.126 91.4008C422.004 89.9981 422.185 88.7537 422.668 87.6676C423.166 86.5642 423.909 85.6884 424.896 85.0403C425.9 84.3907 427.071 84.0076 428.41 83.8909C429.749 83.7743 430.961 83.9497 432.045 84.4173C433.145 84.8676 434.026 85.5778 434.688 86.5479C435.367 87.5167 435.767 88.6944 435.888 90.0812ZM430.397 89.2827C430.359 88.8364 430.186 88.5142 429.88 88.316C429.572 88.102 429.203 88.0137 428.772 88.0512C427.832 88.1331 427.322 88.6353 427.241 89.5577L430.397 89.2827ZM442.275 85.3569C442.748 84.5286 443.356 83.8493 444.097 83.319C444.836 82.7728 445.628 82.4629 446.473 82.3892L446.967 88.0558L445.46 88.187C444.456 88.2745 443.73 88.5145 443.283 88.9068C442.851 89.2977 442.674 89.9395 442.752 90.8321L443.233 96.3552L437.925 96.8177L436.75 83.3328L442.058 82.8703L442.275 85.3569ZM450.256 81.0719C449.331 81.1524 448.569 80.97 447.968 80.5244C447.367 80.0789 447.034 79.4816 446.968 78.7324C446.902 77.9673 447.126 77.3134 447.641 76.7707C448.154 76.212 448.873 75.8924 449.797 75.8118C450.706 75.7326 451.461 75.9238 452.064 76.3852C452.665 76.8308 452.999 77.4361 453.065 78.2012C453.131 78.9503 452.906 79.5963 452.391 80.139C451.876 80.6818 451.164 80.9927 450.256 81.0719ZM452.98 81.9186L454.155 95.4035L448.847 95.866L447.672 82.3811L452.98 81.9186ZM468.769 87.2159C468.801 87.5826 468.808 87.9353 468.789 88.2742L460.254 89.018C460.435 90.1746 460.972 90.7141 461.864 90.6363C462.438 90.5863 462.83 90.2872 463.039 89.7389L468.658 89.2493C468.55 90.2224 468.218 91.1185 467.663 91.9378C467.123 92.7397 466.402 93.4048 465.5 93.9331C464.613 94.444 463.612 94.7481 462.496 94.8453C461.157 94.962 459.937 94.7872 458.837 94.321C457.752 93.8534 456.87 93.1273 456.19 92.1426C455.524 91.1406 455.13 89.9382 455.008 88.5355C454.886 87.1328 455.066 85.8885 455.55 84.8024C456.048 83.699 456.791 82.8232 457.778 82.175C458.782 81.5255 459.953 81.1424 461.292 81.0257C462.631 80.909 463.843 81.0845 464.927 81.5521C466.027 82.0024 466.908 82.7126 467.57 83.6827C468.249 84.6515 468.649 85.8292 468.769 87.2159ZM463.279 86.4175C463.241 85.9712 463.068 85.649 462.762 85.4508C462.454 85.2367 462.085 85.1484 461.654 85.1859C460.714 85.2679 460.204 85.7701 460.123 86.6925L463.279 86.4175ZM479.068 79.549C480.614 79.4143 481.863 79.8275 482.814 80.7885C483.781 81.7482 484.341 83.1127 484.495 84.882L485.177 92.7004L479.893 93.1608L479.27 86.0119C479.214 85.3743 478.995 84.8875 478.612 84.5514C478.244 84.1981 477.773 84.0464 477.2 84.0964C476.61 84.1478 476.164 84.3793 475.863 84.791C475.56 85.1868 475.436 85.7035 475.492 86.3411L476.115 93.49L470.807 93.9525L469.632 80.4676L474.94 80.0051L475.119 82.0613C475.478 81.3876 475.983 80.8216 476.633 80.3634C477.3 79.9038 478.111 79.6324 479.068 79.549ZM485.934 85.8407C485.812 84.438 485.993 83.1936 486.476 82.1076C486.974 81.0042 487.717 80.1284 488.705 79.4802C489.708 78.8307 490.879 78.4475 492.218 78.3309C493.971 78.1781 495.489 78.5437 496.771 79.4278C498.068 80.3105 498.953 81.6147 499.424 83.3402L493.805 83.8298C493.537 83.1465 493.1 82.8313 492.494 82.8841C492.064 82.9216 491.739 83.1507 491.518 83.5714C491.314 83.9907 491.246 84.5909 491.314 85.3719C491.382 86.153 491.553 86.7323 491.827 87.11C492.116 87.4863 492.477 87.6556 492.907 87.6181C493.513 87.5654 493.889 87.1793 494.035 86.4599L499.653 85.9703C499.487 87.7514 498.842 89.1889 497.716 90.2827C496.607 91.3751 495.176 91.9977 493.422 92.1505C492.083 92.2672 490.864 92.0924 489.763 91.6262C488.678 91.1586 487.796 90.4324 487.116 89.4478C486.45 88.4457 486.057 87.2434 485.934 85.8407ZM514.026 83.2724C514.058 83.639 514.065 83.9918 514.046 84.3307L505.511 85.0744C505.692 86.2311 506.229 86.7705 507.121 86.6927C507.695 86.6427 508.087 86.3436 508.296 85.7954L513.915 85.3058C513.807 86.2788 513.475 87.175 512.92 87.9942C512.38 88.7962 511.659 89.4613 510.757 89.9895C509.87 90.5005 508.869 90.8045 507.753 90.9018C506.414 91.0184 505.194 90.8437 504.094 90.3775C503.009 89.9098 502.127 89.1837 501.447 88.199C500.781 87.197 500.387 85.9947 500.265 84.592C500.143 83.1893 500.323 81.9449 500.807 80.8588C501.305 79.7554 502.048 78.8796 503.035 78.2315C504.039 77.5819 505.21 77.1988 506.549 77.0821C507.888 76.9655 509.1 77.1409 510.184 77.6085C511.283 78.0588 512.164 78.769 512.827 79.7392C513.506 80.7079 513.906 81.8856 514.026 83.2724ZM508.536 82.474C508.497 82.0276 508.325 81.7054 508.019 81.5073C507.711 81.2932 507.342 81.2049 506.911 81.2424C505.971 81.3243 505.461 81.8265 505.38 82.749L508.536 82.474ZM518.711 89.971C517.786 90.0516 517.023 89.8691 516.423 89.4236C515.822 88.9781 515.488 88.3808 515.423 87.6316C515.357 86.8665 515.581 86.2126 516.095 85.6698C516.609 85.1112 517.328 84.7915 518.252 84.711C519.161 84.6318 519.916 84.823 520.519 85.2844C521.12 85.7299 521.453 86.3352 521.52 87.1003C521.585 87.8495 521.361 88.4954 520.846 89.0382C520.331 89.5809 519.619 89.8919 518.711 89.971ZM540.158 76.7071C540.251 77.7751 540.089 78.7689 539.671 79.6887C539.252 80.5925 538.579 81.3418 537.651 81.9366C536.739 82.53 535.598 82.8864 534.227 83.0058L532.123 83.1892L532.592 88.5688L527.284 89.0313L525.809 72.1034L533.22 71.4576C535.293 71.277 536.924 71.6648 538.116 72.621C539.323 73.5758 540.004 74.9378 540.158 76.7071ZM533.264 78.8738C534.364 78.7779 534.869 78.212 534.779 77.1759C534.688 76.1398 534.093 75.6697 532.994 75.7655L531.487 75.8968L531.758 79.005L533.264 78.8738ZM555.028 79.6996C555.06 80.0662 555.067 80.419 555.048 80.7579L546.513 81.5017C546.694 82.6583 547.23 83.1977 548.123 83.12C548.697 83.07 549.088 82.7708 549.298 82.2226L554.916 81.733C554.808 82.7061 554.477 83.6022 553.922 84.4215C553.382 85.2234 552.661 85.8885 551.759 86.4168C550.872 86.9277 549.871 87.2318 548.755 87.329C547.416 87.4457 546.196 87.2709 545.096 86.8047C544.011 86.3371 543.128 85.6109 542.448 84.6262C541.783 83.6242 541.389 82.4219 541.267 81.0192C541.145 79.6165 541.325 78.3721 541.809 77.2861C542.307 76.1827 543.05 75.3069 544.037 74.6587C545.041 74.0091 546.212 73.626 547.551 73.5094C548.89 73.3927 550.101 73.5682 551.186 74.0358C552.285 74.486 553.166 75.1962 553.829 76.1664C554.508 77.1351 554.907 78.3129 555.028 79.6996ZM549.538 78.9012C549.499 78.4549 549.327 78.1326 549.02 77.9345C548.713 77.7204 548.344 77.6321 547.913 77.6696C546.973 77.7515 546.462 78.2537 546.382 79.1762L549.538 78.9012ZM561.415 74.9753C561.889 74.1471 562.497 73.4678 563.237 72.9375C563.977 72.3912 564.769 72.0813 565.614 72.0077L566.107 77.6742L564.601 77.8055C563.597 77.893 562.871 78.1329 562.423 78.5252C561.992 78.9162 561.815 79.558 561.892 80.4506L562.374 85.9737L557.066 86.4362L555.891 72.9513L561.199 72.4888L561.415 74.9753ZM569.397 70.6903C568.472 70.7709 567.709 70.5884 567.108 70.1429C566.508 69.6974 566.174 69.1 566.109 68.3509C566.042 67.5858 566.267 66.9318 566.781 66.3891C567.295 65.8304 568.014 65.5108 568.938 65.4302C569.847 65.3511 570.602 65.5422 571.205 66.0037C571.806 66.4492 572.139 67.0545 572.206 67.8196C572.271 68.5688 572.047 69.2147 571.532 69.7575C571.017 70.3002 570.305 70.6111 569.397 70.6903ZM572.12 71.5371L573.295 85.022L567.988 85.4845L566.813 71.9996L572.12 71.5371ZM581.876 84.4429C580.521 84.561 579.277 84.3883 578.145 83.9249C577.012 83.4614 576.09 82.7388 575.378 81.7568C574.681 80.7576 574.271 79.5567 574.149 78.154C574.027 76.7513 574.223 75.5055 574.739 74.4167C575.269 73.3105 576.051 72.4312 577.086 71.7789C578.122 71.1266 579.317 70.7414 580.672 70.6233C582.027 70.5052 583.27 70.6779 584.403 71.1414C585.535 71.6048 586.45 72.3361 587.148 73.3354C587.859 74.3173 588.277 75.5096 588.399 76.9123C588.521 78.315 588.317 79.5694 587.787 80.6756C587.272 81.7644 586.496 82.635 585.461 83.2873C584.426 83.9397 583.231 84.3249 581.876 84.4429ZM581.476 79.8523C581.97 79.8093 582.368 79.5819 582.669 79.1702C582.969 78.7425 583.086 78.1461 583.019 77.381C582.952 76.6159 582.735 76.0567 582.367 75.7033C581.998 75.334 581.566 75.1708 581.072 75.2139C580.578 75.257 580.18 75.4923 579.88 75.92C579.579 76.3317 579.462 76.9201 579.528 77.6852C579.595 78.4503 579.805 79.0182 580.159 79.3889C580.527 79.7423 580.966 79.8968 581.476 79.8523ZM589.11 76.8503C588.986 75.4317 589.118 74.1835 589.506 73.1058C589.909 72.0107 590.509 71.1554 591.306 70.5398C592.103 69.9083 593.027 69.5467 594.079 69.4551C594.955 69.3787 595.721 69.4967 596.374 69.8091C597.042 70.1042 597.571 70.548 597.96 71.1405L597.433 65.0914L602.74 64.6289L604.282 82.3219L598.974 82.7844L598.814 80.9434C598.533 81.5942 598.09 82.1307 597.485 82.5528C596.893 82.9577 596.16 83.1983 595.283 83.2747C594.231 83.3664 593.259 83.178 592.367 82.7097C591.473 82.2254 590.735 81.4868 590.15 80.4938C589.58 79.4834 589.234 78.2689 589.11 76.8503ZM598.411 76.0399C598.348 75.3226 598.116 74.7807 597.715 74.4141C597.314 74.0476 596.826 73.8893 596.252 73.9393C595.678 73.9893 595.225 74.2295 594.894 74.66C594.562 75.0904 594.427 75.6643 594.49 76.3815C594.552 77.0988 594.784 77.6407 595.185 78.0073C595.587 78.3738 596.074 78.5321 596.648 78.4821C597.222 78.4321 597.675 78.1919 598.007 77.7614C598.338 77.331 598.473 76.7571 598.411 76.0399ZM609.073 82.0971C608.149 82.1777 607.386 81.9952 606.785 81.5497C606.184 81.1042 605.851 80.5068 605.786 79.7577C605.719 78.9926 605.943 78.3387 606.458 77.7959C606.971 77.2372 607.69 76.9176 608.615 76.8371C609.523 76.7579 610.279 76.949 610.881 77.4105C611.482 77.856 611.816 78.4613 611.883 79.2264C611.948 79.9756 611.723 80.6215 611.208 81.1643C610.693 81.707 609.982 82.018 609.073 82.0971ZM70.5671 162.957L67.8415 163.195L58.5593 151.5L59.6405 163.909L56.9149 164.147L55.4648 147.506L58.1905 147.268L67.4706 158.939L66.3914 146.554L69.1171 146.316L70.5671 162.957ZM85.3795 154.704C85.4226 155.198 85.4296 155.647 85.4005 156.051L75.3347 156.928C75.5061 157.973 75.9702 158.784 76.7271 159.361C77.484 159.937 78.3725 160.181 79.3926 160.092C80.8591 159.964 81.8417 159.26 82.3404 157.98L85.2813 157.724C84.9884 158.97 84.3499 160.029 83.366 160.902C82.3966 161.758 81.1388 162.253 79.5926 162.387C78.3334 162.497 77.1774 162.317 76.1246 161.846C75.0863 161.359 74.2358 160.63 73.5731 159.66C72.925 158.672 72.5418 157.501 72.4238 156.146C72.3057 154.791 72.4732 153.58 72.9263 152.513C73.3939 151.428 74.0975 150.564 75.0372 149.92C75.9927 149.274 77.1161 148.895 78.4072 148.783C79.6505 148.675 80.7819 148.849 81.8014 149.306C82.821 149.763 83.6448 150.463 84.2728 151.404C84.8995 152.329 85.2684 153.429 85.3795 154.704ZM82.4593 154.091C82.3558 153.088 81.9271 152.315 81.1729 151.77C80.4188 151.226 79.5237 150.998 78.4877 151.089C77.5472 151.171 76.7687 151.544 76.152 152.208C75.5339 152.856 75.2055 153.695 75.1669 154.727L82.4593 154.091ZM99.897 153.439C99.9401 153.933 99.9471 154.382 99.918 154.786L89.8522 155.663C90.0235 156.708 90.4877 157.519 91.2446 158.096C92.0015 158.672 92.89 158.916 93.9101 158.827C95.3766 158.699 96.3592 157.995 96.8579 156.715L99.7988 156.459C99.5059 157.705 98.8674 158.764 97.8835 159.637C96.914 160.493 95.6563 160.988 94.1101 161.122C92.8509 161.232 91.6949 161.052 90.6421 160.581C89.6038 160.094 88.7533 159.365 88.0906 158.395C87.4425 157.407 87.0593 156.236 86.9413 154.881C86.8232 153.526 86.9907 152.315 87.4438 151.248C87.9114 150.163 88.615 149.299 89.5546 148.655C90.5102 148.009 91.6336 147.63 92.9247 147.518C94.168 147.41 95.2994 147.584 96.3189 148.041C97.3385 148.498 98.1623 149.198 98.7903 150.139C99.417 151.064 99.7859 152.164 99.897 153.439ZM96.9768 152.826C96.8733 151.823 96.4446 151.05 95.6904 150.505C94.9363 149.961 94.0412 149.733 93.0051 149.824C92.0647 149.906 91.2861 150.279 90.6695 150.943C90.0514 151.591 89.723 152.43 89.6844 153.462L96.9768 152.826ZM101.455 153.568C101.339 152.245 101.508 151.05 101.961 149.983C102.43 148.914 103.111 148.06 104.002 147.42C104.909 146.763 105.944 146.383 107.107 146.282C107.968 146.207 108.83 146.325 109.692 146.635C110.569 146.928 111.281 147.364 111.829 147.942L111.275 141.583L114.025 141.343L115.567 159.036L112.817 159.275L112.644 157.291C112.253 157.967 111.677 158.548 110.917 159.032C110.172 159.514 109.289 159.8 108.269 159.889C107.121 159.989 106.044 159.793 105.038 159.303C104.046 158.795 103.226 158.047 102.578 157.06C101.944 156.055 101.57 154.891 101.455 153.568ZM112.242 152.676C112.163 151.768 111.903 150.996 111.462 150.359C111.037 149.722 110.506 149.254 109.87 148.956C109.234 148.658 108.565 148.54 107.864 148.601C107.162 148.662 106.524 148.895 105.949 149.298C105.372 149.686 104.922 150.231 104.598 150.933C104.288 151.619 104.173 152.416 104.252 153.325C104.331 154.233 104.584 155.014 105.01 155.668C105.453 156.32 105.992 156.803 106.63 157.116C107.282 157.413 107.951 157.531 108.637 157.472C109.338 157.41 109.976 157.178 110.551 156.775C111.126 156.371 111.568 155.819 111.876 155.117C112.199 154.399 112.321 153.585 112.242 152.676ZM130.527 144.241C131.531 144.154 132.442 144.291 133.261 144.654C134.095 145.015 134.772 145.598 135.292 146.404C135.828 147.208 136.148 148.208 136.252 149.404L136.93 157.174L134.228 157.41L133.586 150.046C133.483 148.866 133.11 147.991 132.466 147.421C131.821 146.835 130.988 146.586 129.968 146.675C128.948 146.764 128.163 147.154 127.612 147.844C127.077 148.517 126.86 149.443 126.963 150.623L127.605 157.987L124.879 158.224L123.338 140.531L126.063 140.294L126.59 146.343C127.004 145.745 127.548 145.264 128.223 144.9C128.914 144.534 129.682 144.315 130.527 144.241ZM151.639 148.93C151.682 149.424 151.689 149.874 151.66 150.278L141.595 151.155C141.766 152.2 142.23 153.011 142.987 153.587C143.744 154.163 144.632 154.407 145.652 154.318C147.119 154.191 148.102 153.487 148.6 152.207L151.541 151.95C151.248 153.196 150.61 154.256 149.626 155.129C148.656 155.984 147.399 156.479 145.853 156.614C144.593 156.723 143.437 156.543 142.384 156.073C141.346 155.585 140.496 154.856 139.833 153.886C139.185 152.898 138.802 151.727 138.684 150.372C138.566 149.018 138.733 147.806 139.186 146.739C139.654 145.654 140.357 144.79 141.297 144.146C142.253 143.501 143.376 143.122 144.667 143.009C145.91 142.901 147.042 143.075 148.061 143.533C149.081 143.99 149.905 144.689 150.533 145.63C151.159 146.555 151.528 147.655 151.639 148.93ZM148.719 148.318C148.616 147.315 148.187 146.541 147.433 145.996C146.679 145.452 145.784 145.225 144.748 145.315C143.807 145.397 143.029 145.77 142.412 146.434C141.794 147.082 141.465 147.922 141.427 148.953L148.719 148.318ZM155.869 137.697L157.41 155.39L154.685 155.627L153.143 137.934L155.869 137.697ZM162.496 143.624C162.906 142.978 163.491 142.413 164.252 141.929C165.013 141.445 165.895 141.159 166.899 141.072C168.047 140.972 169.116 141.168 170.107 141.66C171.112 142.134 171.929 142.858 172.56 143.831C173.191 144.804 173.564 145.952 173.679 147.275C173.795 148.598 173.627 149.809 173.177 150.908C172.725 151.991 172.047 152.87 171.142 153.543C170.252 154.199 169.233 154.576 168.085 154.676C167.081 154.764 166.171 154.642 165.355 154.312C164.538 153.966 163.856 153.511 163.309 152.949L164.021 161.126L161.296 161.363L159.602 141.925L162.328 141.687L162.496 143.624ZM170.906 147.517C170.827 146.608 170.567 145.844 170.128 145.223C169.703 144.586 169.165 144.127 168.514 143.846C167.878 143.548 167.209 143.43 166.508 143.491C165.823 143.551 165.184 143.783 164.593 144.188C164.018 144.591 163.568 145.145 163.244 145.847C162.936 146.549 162.821 147.354 162.901 148.262C162.98 149.171 163.232 149.952 163.659 150.605C164.1 151.241 164.638 151.708 165.274 152.006C165.927 152.303 166.595 152.421 167.281 152.361C167.982 152.3 168.62 152.068 169.196 151.665C169.785 151.244 170.234 150.675 170.541 149.957C170.863 149.239 170.985 148.425 170.906 147.517ZM188.42 152.905C187.177 153.013 186.028 152.832 184.976 152.361C183.921 151.875 183.063 151.147 182.4 150.177C181.736 149.191 181.345 148.02 181.227 146.665C181.11 145.326 181.302 144.113 181.801 143.026C182.301 141.938 183.036 141.071 184.008 140.424C184.979 139.778 186.095 139.399 187.354 139.29C188.613 139.18 189.777 139.36 190.846 139.829C191.915 140.298 192.789 141.024 193.469 142.009C194.149 142.994 194.547 144.156 194.664 145.494C194.781 146.833 194.581 148.047 194.066 149.136C193.551 150.225 192.792 151.102 191.79 151.768C190.802 152.416 189.679 152.795 188.42 152.905ZM188.214 150.537C188.915 150.476 189.554 150.252 190.13 149.865C190.723 149.476 191.181 148.93 191.505 148.227C191.83 147.524 191.95 146.695 191.867 145.738C191.783 144.782 191.53 143.993 191.106 143.371C190.681 142.734 190.152 142.274 189.517 141.992C188.882 141.71 188.214 141.6 187.512 141.661C186.811 141.722 186.172 141.946 185.596 142.334C185.035 142.72 184.608 143.263 184.316 143.963C184.022 144.647 183.917 145.467 184.001 146.424C184.124 147.842 184.579 148.911 185.364 149.629C186.164 150.331 187.114 150.633 188.214 150.537ZM199.439 140.381C199.779 139.676 200.26 139.113 200.882 138.689C201.518 138.248 202.29 137.988 203.199 137.909L203.444 140.73L202.751 140.791C201.683 140.884 200.894 141.226 200.383 141.816C199.888 142.405 199.699 143.369 199.816 144.708L200.42 151.642L197.695 151.88L196.547 138.705L199.272 138.468L199.439 140.381ZM229.148 135.865L226.208 149.395L223.339 149.645L219.837 140.145L218.031 150.107L215.162 150.357L209.901 137.542L212.675 137.3L216.347 147.652L218.222 136.817L221.067 136.569L224.664 146.88L226.471 136.098L229.148 135.865ZM230.606 142.314C230.491 140.991 230.66 139.796 231.113 138.729C231.582 137.66 232.263 136.806 233.154 136.166C234.061 135.509 235.088 135.13 236.235 135.03C237.271 134.94 238.19 135.069 238.991 135.416C239.807 135.747 240.472 136.195 240.988 136.76L240.821 134.848L243.57 134.608L244.718 147.782L241.969 148.022L241.798 146.061C241.39 146.723 240.805 147.296 240.045 147.78C239.284 148.264 238.393 148.55 237.373 148.639C236.241 148.737 235.18 148.541 234.19 148.049C233.198 147.541 232.378 146.794 231.73 145.806C231.096 144.801 230.722 143.637 230.606 142.314ZM241.394 141.423C241.315 140.514 241.055 139.742 240.614 139.106C240.189 138.468 239.658 138 239.022 137.702C238.386 137.405 237.717 137.286 237.015 137.347C236.314 137.408 235.676 137.641 235.101 138.044C234.524 138.432 234.074 138.977 233.75 139.68C233.44 140.365 233.325 141.162 233.404 142.071C233.483 142.979 233.736 143.76 234.162 144.414C234.604 145.066 235.144 145.549 235.782 145.863C236.434 146.159 237.103 146.277 237.788 146.218C238.49 146.157 239.128 145.924 239.703 145.521C240.278 145.117 240.72 144.565 241.028 143.864C241.351 143.145 241.473 142.331 241.394 141.423ZM253.539 133.522C254.576 133.432 255.519 133.567 256.369 133.926C257.236 134.284 257.937 134.866 258.473 135.67C259.008 136.475 259.328 137.475 259.433 138.67L260.11 146.441L257.408 146.676L256.766 139.312C256.663 138.133 256.29 137.258 255.646 136.688C255.001 136.101 254.168 135.853 253.148 135.942C252.128 136.03 251.343 136.42 250.793 137.11C250.257 137.783 250.041 138.71 250.143 139.889L250.785 147.253L248.059 147.491L246.911 134.317L249.637 134.079L249.768 135.586C250.167 135.005 250.696 134.533 251.355 134.17C252.03 133.807 252.758 133.59 253.539 133.522ZM265.573 134.931L266.209 142.224C266.252 142.718 266.394 143.067 266.637 143.27C266.894 143.457 267.302 143.526 267.86 143.477L269.533 143.331L269.731 145.602L267.579 145.79C266.352 145.897 265.387 145.692 264.683 145.175C263.979 144.658 263.571 143.754 263.459 142.463L262.824 135.171L261.269 135.306L261.076 133.083L262.63 132.947L262.344 129.672L265.094 129.432L265.379 132.708L268.583 132.428L268.777 134.652L265.573 134.931ZM280.202 133.656L280.837 140.949C280.88 141.443 281.023 141.792 281.266 141.996C281.523 142.182 281.93 142.251 282.488 142.202L284.162 142.056L284.36 144.328L282.208 144.515C280.981 144.622 280.015 144.417 279.312 143.9C278.608 143.383 278.2 142.48 278.088 141.188L277.452 133.896L275.898 134.031L275.704 131.808L277.258 131.672L276.973 128.397L279.723 128.157L280.008 131.433L283.212 131.154L283.406 133.377L280.202 133.656ZM292.366 143.847C291.123 143.955 289.975 143.774 288.922 143.304C287.868 142.818 287.009 142.089 286.346 141.119C285.682 140.133 285.291 138.963 285.173 137.608C285.057 136.269 285.248 135.056 285.747 133.968C286.247 132.881 286.982 132.014 287.954 131.367C288.925 130.72 290.041 130.342 291.3 130.232C292.559 130.122 293.723 130.302 294.792 130.771C295.861 131.24 296.735 131.967 297.415 132.952C298.095 133.936 298.494 135.098 298.61 136.437C298.727 137.776 298.528 138.99 298.012 140.079C297.497 141.167 296.738 142.045 295.736 142.71C294.749 143.358 293.625 143.737 292.366 143.847ZM292.16 141.48C292.861 141.419 293.5 141.195 294.077 140.807C294.669 140.418 295.127 139.872 295.452 139.169C295.776 138.467 295.896 137.637 295.813 136.681C295.73 135.724 295.476 134.935 295.053 134.314C294.628 133.676 294.098 133.216 293.463 132.935C292.828 132.653 292.16 132.542 291.458 132.603C290.757 132.664 290.118 132.889 289.542 133.276C288.981 133.662 288.555 134.205 288.262 134.905C287.969 135.59 287.863 136.41 287.947 137.366C288.07 138.785 288.525 139.853 289.31 140.572C290.11 141.273 291.06 141.576 292.16 141.48ZM306.129 135.782C306.011 134.427 306.178 133.216 306.631 132.148C307.099 131.064 307.795 130.2 308.718 129.557C309.642 128.915 310.733 128.539 311.993 128.429C313.587 128.29 314.935 128.558 316.038 129.233C317.155 129.89 317.958 130.904 318.447 132.275L315.506 132.531C315.21 131.899 314.783 131.422 314.225 131.101C313.667 130.781 312.99 130.655 312.193 130.724C311.077 130.822 310.219 131.298 309.619 132.153C309.034 132.991 308.803 134.119 308.926 135.538C309.05 136.957 309.473 138.036 310.196 138.776C310.935 139.515 311.862 139.835 312.978 139.738C314.556 139.601 315.54 138.816 315.929 137.385L318.87 137.129C318.604 138.501 317.98 139.632 316.997 140.52C316.013 141.393 314.74 141.897 313.178 142.033C311.919 142.143 310.779 141.961 309.758 141.488C308.736 140.999 307.901 140.269 307.254 139.297C306.622 138.309 306.247 137.137 306.129 135.782ZM327.443 140.79C326.199 140.899 325.051 140.718 323.999 140.247C322.944 139.761 322.086 139.033 321.423 138.063C320.759 137.077 320.368 135.906 320.25 134.551C320.133 133.212 320.325 131.999 320.824 130.912C321.324 129.824 322.059 128.957 323.031 128.31C324.002 127.664 325.118 127.285 326.377 127.176C327.636 127.066 328.8 127.246 329.869 127.715C330.938 128.184 331.812 128.91 332.492 129.895C333.172 130.88 333.57 132.042 333.687 133.38C333.804 134.719 333.604 135.933 333.089 137.022C332.573 138.111 331.815 138.988 330.813 139.654C329.825 140.302 328.702 140.681 327.443 140.79ZM327.236 138.423C327.938 138.362 328.577 138.138 329.153 137.751C329.746 137.362 330.204 136.816 330.528 136.113C330.853 135.41 330.973 134.581 330.89 133.624C330.806 132.668 330.553 131.879 330.129 131.257C329.704 130.62 329.174 130.16 328.54 129.878C327.905 129.596 327.237 129.486 326.535 129.547C325.834 129.608 325.195 129.832 324.618 130.22C324.058 130.606 323.631 131.149 323.339 131.849C323.045 132.533 322.94 133.353 323.023 134.31C323.147 135.728 323.602 136.797 324.387 137.515C325.187 138.217 326.137 138.519 327.236 138.423ZM342.198 125.797C343.234 125.707 344.177 125.841 345.027 126.201C345.894 126.559 346.595 127.14 347.131 127.945C347.667 128.749 347.987 129.749 348.091 130.945L348.768 138.715L346.066 138.951L345.424 131.587C345.322 130.407 344.948 129.532 344.304 128.962C343.659 128.376 342.826 128.127 341.806 128.216C340.786 128.305 340.001 128.695 339.451 129.385C338.915 130.058 338.699 130.984 338.801 132.164L339.443 139.528L336.717 139.765L335.57 126.591L338.295 126.354L338.426 127.86C338.826 127.279 339.355 126.808 340.014 126.445C340.689 126.081 341.417 125.865 342.198 125.797ZM357.486 124.465C358.522 124.375 359.465 124.509 360.315 124.869C361.182 125.227 361.883 125.808 362.419 126.613C362.954 127.417 363.275 128.417 363.379 129.613L364.056 137.383L361.354 137.619L360.712 130.255C360.61 129.075 360.236 128.2 359.592 127.63C358.947 127.044 358.114 126.795 357.094 126.884C356.074 126.973 355.289 127.363 354.739 128.053C354.203 128.726 353.987 129.652 354.089 130.832L354.731 138.196L352.005 138.433L350.857 125.259L353.583 125.022L353.714 126.528C354.114 125.947 354.643 125.475 355.302 125.113C355.977 124.749 356.705 124.533 357.486 124.465ZM378.766 129.139C378.809 129.633 378.816 130.082 378.787 130.487L368.721 131.364C368.892 132.409 369.356 133.219 370.113 133.796C370.87 134.372 371.759 134.616 372.779 134.527C374.245 134.4 375.228 133.696 375.727 132.415L378.667 132.159C378.374 133.405 377.736 134.465 376.752 135.337C375.783 136.193 374.525 136.688 372.979 136.823C371.72 136.932 370.563 136.752 369.511 136.282C368.472 135.794 367.622 135.065 366.959 134.095C366.311 133.107 365.928 131.936 365.81 130.581C365.692 129.226 365.859 128.015 366.312 126.948C366.78 125.863 367.484 124.999 368.423 124.355C369.379 123.71 370.502 123.331 371.793 123.218C373.037 123.11 374.168 123.284 375.188 123.741C376.207 124.199 377.031 124.898 377.659 125.839C378.286 126.764 378.654 127.864 378.766 129.139ZM375.845 128.526C375.742 127.524 375.313 126.75 374.559 126.205C373.805 125.661 372.91 125.434 371.874 125.524C370.933 125.606 370.155 125.979 369.538 126.643C368.92 127.291 368.592 128.131 368.553 129.162L375.845 128.526ZM380.327 129.316C380.209 127.961 380.377 126.75 380.83 125.683C381.297 124.598 381.993 123.735 382.917 123.092C383.841 122.449 384.932 122.073 386.191 121.964C387.785 121.825 389.134 122.093 390.236 122.767C391.354 123.425 392.157 124.439 392.645 125.81L389.705 126.066C389.409 125.433 388.982 124.957 388.424 124.636C387.866 124.315 387.188 124.189 386.391 124.259C385.275 124.356 384.418 124.832 383.818 125.688C383.232 126.526 383.001 127.654 383.125 129.073C383.248 130.491 383.672 131.571 384.395 132.311C385.134 133.049 386.061 133.37 387.177 133.273C388.755 133.135 389.738 132.351 390.128 130.92L393.068 130.663C392.803 132.036 392.178 133.166 391.196 134.055C390.212 134.927 388.939 135.432 387.377 135.568C386.117 135.678 384.977 135.496 383.956 135.023C382.934 134.534 382.1 133.803 381.453 132.832C380.821 131.843 380.445 130.671 380.327 129.316ZM398.134 123.38L398.769 130.673C398.812 131.167 398.955 131.516 399.198 131.719C399.455 131.906 399.862 131.975 400.42 131.926L402.094 131.78L402.292 134.052L400.14 134.239C398.913 134.346 397.947 134.141 397.244 133.624C396.54 133.107 396.132 132.203 396.02 130.912L395.384 123.62L393.83 123.755L393.636 121.532L395.191 121.396L394.905 118.121L397.655 117.881L397.94 121.157L401.144 120.877L401.338 123.101L398.134 123.38ZM407.567 116.608C409.193 116.466 410.531 116.799 411.581 117.607C412.647 118.414 413.248 119.59 413.382 121.136C413.523 122.746 413.118 124.002 412.169 124.904C411.22 125.805 409.9 126.33 408.21 126.477L408.279 128.374L405.912 128.581L405.466 124.837L406.255 124.768C407.801 124.634 408.962 124.324 409.739 123.838C410.532 123.352 410.878 122.527 410.776 121.363C410.703 120.518 410.398 119.878 409.862 119.443C409.342 119.007 408.652 118.826 407.791 118.901C406.93 118.976 406.273 119.266 405.819 119.771C405.365 120.277 405.175 120.944 405.247 121.773L402.689 121.996C402.605 121.039 402.746 120.168 403.111 119.381C403.476 118.594 404.039 117.959 404.8 117.475C405.577 116.99 406.499 116.701 407.567 116.608ZM407.52 133.765C407.026 133.808 406.597 133.676 406.233 133.371C405.87 133.065 405.666 132.665 405.623 132.171C405.58 131.677 405.711 131.248 406.017 130.884C406.322 130.52 406.722 130.317 407.216 130.274C407.694 130.232 408.116 130.364 408.479 130.67C408.843 130.975 409.047 131.375 409.09 131.869C409.133 132.363 409.002 132.792 408.696 133.156C408.391 133.52 407.999 133.723 407.52 133.765ZM427.142 115.143C428.912 114.989 430.488 115.197 431.87 115.767C433.268 116.32 434.381 117.202 435.209 118.415C436.052 119.61 436.547 121.053 436.694 122.742C436.841 124.432 436.603 125.93 435.978 127.238C435.369 128.543 434.424 129.589 433.143 130.375C431.877 131.144 430.36 131.606 428.59 131.76L423.163 132.233L421.715 115.616L427.142 115.143ZM428.397 129.536C430.341 129.367 431.786 128.711 432.73 127.569C433.675 126.426 434.064 124.899 433.897 122.986C433.729 121.058 433.079 119.596 431.949 118.603C430.818 117.609 429.281 117.197 427.336 117.366L424.634 117.602L425.695 129.772L428.397 129.536ZM445.608 130.494C444.365 130.602 443.217 130.421 442.164 129.951C441.11 129.464 440.252 128.736 439.589 127.766C438.925 126.78 438.534 125.61 438.416 124.255C438.299 122.916 438.49 121.703 438.99 120.615C439.489 119.528 440.225 118.661 441.196 118.014C442.168 117.367 443.283 116.989 444.543 116.879C445.802 116.769 446.966 116.949 448.034 117.418C449.103 117.887 449.978 118.614 450.658 119.598C451.338 120.583 451.736 121.745 451.853 123.084C451.969 124.423 451.77 125.637 451.255 126.726C450.739 127.814 449.98 128.692 448.978 129.357C447.991 130.005 446.868 130.384 445.608 130.494ZM445.402 128.127C446.103 128.066 446.742 127.841 447.319 127.454C447.911 127.065 448.37 126.519 448.694 125.816C449.018 125.114 449.139 124.284 449.055 123.328C448.972 122.371 448.719 121.582 448.295 120.961C447.87 120.323 447.34 119.863 446.705 119.581C446.07 119.3 445.402 119.189 444.701 119.25C444 119.311 443.361 119.536 442.784 119.923C442.224 120.309 441.797 120.852 441.505 121.552C441.211 122.236 441.106 123.057 441.189 124.013C441.313 125.432 441.767 126.5 442.553 127.219C443.352 127.92 444.302 128.223 445.402 128.127ZM460.363 115.5C461.399 115.41 462.343 115.545 463.193 115.904C464.059 116.262 464.76 116.844 465.296 117.648C465.832 118.453 466.152 119.453 466.256 120.648L466.933 128.419L464.232 128.654L463.59 121.29C463.487 120.111 463.114 119.236 462.47 118.666C461.825 118.079 460.992 117.831 459.972 117.92C458.952 118.008 458.166 118.398 457.616 119.088C457.081 119.761 456.864 120.688 456.967 121.867L457.609 129.231L454.883 129.469L453.735 116.295L456.461 116.057L456.592 117.564C456.991 116.983 457.52 116.511 458.179 116.148C458.854 115.785 459.582 115.568 460.363 115.5ZM469.154 111.482L472.118 111.224L470.104 117.133L468.191 117.3L469.154 111.482ZM477.948 116.425L478.584 123.718C478.627 124.212 478.77 124.561 479.012 124.765C479.269 124.951 479.677 125.02 480.235 124.971L481.908 124.825L482.106 127.097L479.955 127.284C478.727 127.391 477.762 127.186 477.058 126.669C476.355 126.152 475.947 125.248 475.834 123.957L475.199 116.665L473.645 116.8L473.451 114.577L475.005 114.441L474.72 111.166L477.469 110.926L477.755 114.202L480.958 113.923L481.152 116.146L477.948 116.425ZM495.999 112.395C497.003 112.308 497.914 112.445 498.733 112.807C499.567 113.168 500.244 113.752 500.764 114.558C501.3 115.362 501.62 116.362 501.724 117.558L502.402 125.328L499.7 125.564L499.058 118.2C498.955 117.02 498.582 116.145 497.938 115.575C497.293 114.989 496.46 114.74 495.44 114.829C494.42 114.918 493.635 115.307 493.084 115.998C492.549 116.671 492.332 117.597 492.435 118.777L493.077 126.141L490.351 126.378L488.81 108.685L491.535 108.448L492.062 114.497C492.476 113.899 493.02 113.418 493.695 113.054C494.386 112.688 495.154 112.469 495.999 112.395ZM517.111 117.084C517.154 117.578 517.161 118.027 517.132 118.431L507.067 119.309C507.238 120.354 507.702 121.164 508.459 121.741C509.216 122.317 510.104 122.561 511.125 122.472C512.591 122.344 513.574 121.641 514.072 120.36L517.013 120.104C516.72 121.35 516.082 122.41 515.098 123.282C514.128 124.138 512.871 124.633 511.325 124.768C510.065 124.877 508.909 124.697 507.856 124.227C506.818 123.739 505.968 123.01 505.305 122.04C504.657 121.052 504.274 119.881 504.156 118.526C504.038 117.171 504.205 115.96 504.658 114.893C505.126 113.808 505.829 112.944 506.769 112.3C507.725 111.655 508.848 111.276 510.139 111.163C511.382 111.055 512.514 111.229 513.533 111.686C514.553 112.144 515.377 112.843 516.005 113.784C516.631 114.709 517 115.809 517.111 117.084ZM514.191 116.471C514.088 115.469 513.659 114.695 512.905 114.15C512.151 113.606 511.256 113.379 510.22 113.469C509.279 113.551 508.501 113.924 507.884 114.588C507.266 115.236 506.937 116.076 506.899 117.107L514.191 116.471ZM524.957 123.58C523.921 123.67 522.973 123.568 522.112 123.273C521.266 122.962 520.576 122.508 520.042 121.912C519.507 121.3 519.189 120.597 519.087 119.803L521.909 119.557C522.005 120.111 522.309 120.558 522.821 120.899C523.347 121.223 523.976 121.352 524.71 121.289C525.475 121.222 526.052 121.027 526.441 120.704C526.845 120.364 527.027 119.962 526.987 119.5C526.944 119.006 526.673 118.66 526.174 118.463C525.691 118.264 524.927 118.066 523.881 117.867C522.87 117.683 522.042 117.49 521.398 117.289C520.754 117.088 520.178 116.745 519.67 116.259C519.178 115.772 518.894 115.098 518.819 114.237C518.758 113.536 518.91 112.88 519.274 112.27C519.637 111.644 520.187 111.131 520.923 110.729C521.674 110.327 522.553 110.081 523.557 109.994C525.055 109.863 526.292 110.141 527.267 110.827C528.257 111.496 528.841 112.481 529.018 113.782L526.293 114.02C526.193 113.434 525.913 112.985 525.452 112.672C524.991 112.358 524.394 112.234 523.661 112.298C522.944 112.36 522.406 112.543 522.047 112.848C521.688 113.152 521.528 113.527 521.567 113.974C521.597 114.324 521.75 114.608 522.026 114.825C522.302 115.042 522.63 115.206 523.009 115.318C523.387 115.413 523.943 115.533 524.678 115.678C525.657 115.85 526.461 116.045 527.09 116.263C527.734 116.464 528.301 116.8 528.792 117.271C529.283 117.742 529.573 118.399 529.663 119.243C529.728 119.992 529.579 120.68 529.216 121.305C528.853 121.931 528.303 122.445 527.568 122.846C526.848 123.246 525.977 123.491 524.957 123.58ZM532.776 107.649C532.282 107.692 531.853 107.561 531.489 107.255C531.125 106.949 530.922 106.55 530.879 106.055C530.836 105.561 530.967 105.132 531.273 104.768C531.578 104.405 531.978 104.201 532.472 104.158C532.95 104.116 533.371 104.248 533.735 104.554C534.099 104.859 534.303 105.259 534.346 105.753C534.389 106.248 534.257 106.677 533.952 107.04C533.646 107.404 533.254 107.607 532.776 107.649ZM534.267 109.277L535.415 122.452L532.69 122.689L531.542 109.515L534.267 109.277ZM540.98 110.933L541.616 118.225C541.659 118.719 541.802 119.068 542.044 119.272C542.302 119.458 542.709 119.527 543.267 119.479L544.941 119.333L545.138 121.604L542.987 121.792C541.759 121.899 540.794 121.694 540.09 121.177C539.387 120.66 538.979 119.756 538.866 118.465L538.231 111.173L536.677 111.308L536.483 109.084L538.037 108.949L537.752 105.673L540.501 105.434L540.787 108.709L543.991 108.43L544.184 110.654L540.98 110.933ZM545.924 114.839C545.809 113.516 545.977 112.32 546.431 111.253C546.899 110.184 547.58 109.33 548.472 108.69C549.378 108.033 550.405 107.654 551.553 107.554C552.589 107.464 553.507 107.593 554.309 107.941C555.124 108.271 555.79 108.719 556.305 109.284L556.138 107.372L558.888 107.132L560.036 120.306L557.286 120.546L557.115 118.585C556.707 119.247 556.123 119.82 555.362 120.304C554.601 120.788 553.711 121.074 552.69 121.163C551.559 121.262 550.498 121.065 549.507 120.573C548.515 120.065 547.695 119.318 547.047 118.33C546.414 117.325 546.039 116.162 545.924 114.839ZM556.711 113.947C556.632 113.038 556.372 112.266 555.931 111.63C555.506 110.992 554.976 110.525 554.339 110.227C553.703 109.929 553.034 109.81 552.333 109.871C551.632 109.933 550.993 110.165 550.418 110.568C549.842 110.956 549.391 111.501 549.067 112.204C548.757 112.889 548.642 113.686 548.721 114.595C548.8 115.503 549.053 116.284 549.479 116.938C549.922 117.59 550.462 118.073 551.099 118.387C551.752 118.683 552.42 118.802 553.106 118.742C553.807 118.681 554.445 118.448 555.021 118.045C555.596 117.642 556.037 117.089 556.346 116.388C556.668 115.669 556.79 114.855 556.711 113.947ZM565.602 108.787L566.238 116.08C566.281 116.574 566.424 116.923 566.666 117.127C566.924 117.313 567.331 117.382 567.889 117.333L569.563 117.187L569.761 119.459L567.609 119.646C566.381 119.753 565.416 119.548 564.712 119.031C564.009 118.515 563.601 117.611 563.488 116.319L562.853 109.027L561.299 109.163L561.105 106.939L562.659 106.804L562.374 103.528L565.123 103.288L565.409 106.564L568.613 106.285L568.806 108.508L565.602 108.787ZM583.506 111.299C583.549 111.793 583.556 112.242 583.527 112.646L573.461 113.523C573.632 114.568 574.096 115.379 574.853 115.956C575.61 116.532 576.499 116.776 577.519 116.687C578.985 116.559 579.968 115.855 580.467 114.575L583.408 114.319C583.115 115.565 582.476 116.624 581.492 117.497C580.523 118.352 579.265 118.847 577.719 118.982C576.46 119.092 575.304 118.912 574.251 118.441C573.213 117.953 572.362 117.225 571.699 116.254C571.051 115.267 570.668 114.096 570.55 112.741C570.432 111.386 570.599 110.175 571.053 109.108C571.52 108.023 572.224 107.159 573.163 106.515C574.119 105.869 575.242 105.49 576.533 105.378C577.777 105.269 578.908 105.444 579.928 105.901C580.947 106.358 581.771 107.057 582.399 107.998C583.026 108.924 583.395 110.024 583.506 111.299ZM580.586 110.686C580.482 109.683 580.053 108.91 579.299 108.365C578.545 107.82 577.65 107.593 576.614 107.683C575.673 107.765 574.895 108.138 574.278 108.802C573.66 109.451 573.332 110.29 573.293 111.321L580.586 110.686ZM603.916 106.605L604.116 108.901L586.184 110.463L585.984 108.168L603.916 106.605ZM610.147 104.617C610.556 103.971 611.141 103.406 611.902 102.922C612.663 102.438 613.546 102.153 614.55 102.065C615.697 101.965 616.766 102.161 617.757 102.653C618.762 103.127 619.58 103.851 620.211 104.824C620.841 105.797 621.215 106.945 621.33 108.268C621.445 109.591 621.278 110.802 620.827 111.901C620.376 112.985 619.697 113.863 618.792 114.536C617.902 115.192 616.883 115.57 615.735 115.67C614.731 115.757 613.821 115.636 613.005 115.305C612.188 114.959 611.506 114.504 610.959 113.942L611.672 122.119L608.946 122.356L607.252 102.918L609.978 102.68L610.147 104.617ZM618.556 108.51C618.477 107.601 618.218 106.837 617.778 106.217C617.353 105.579 616.815 105.12 616.165 104.839C615.528 104.541 614.86 104.423 614.158 104.484C613.473 104.544 612.835 104.776 612.244 105.181C611.668 105.585 611.219 106.138 610.894 106.84C610.586 107.542 610.472 108.347 610.551 109.255C610.63 110.164 610.883 110.945 611.309 111.598C611.75 112.235 612.289 112.702 612.925 112.999C613.577 113.296 614.246 113.414 614.931 113.355C615.633 113.293 616.271 113.061 616.846 112.658C617.436 112.237 617.884 111.668 618.191 110.951C618.514 110.232 618.635 109.418 618.556 108.51ZM624.452 99.6604C623.958 99.7035 623.529 99.5722 623.165 99.2667C622.801 98.9611 622.598 98.5613 622.555 98.0671C622.511 97.573 622.643 97.144 622.948 96.7801C623.254 96.4162 623.654 96.2127 624.148 96.1697C624.626 96.128 625.047 96.2599 625.411 96.5655C625.775 96.8711 625.978 97.2709 626.021 97.765C626.064 98.2592 625.933 98.6882 625.628 99.0521C625.322 99.416 624.93 99.6188 624.452 99.6604ZM625.943 101.289L627.091 114.463L624.365 114.701L623.217 101.527L625.943 101.289ZM635.911 100.204C636.947 100.114 637.89 100.248 638.74 100.608C639.607 100.966 640.308 101.547 640.844 102.352C641.379 103.156 641.699 104.156 641.804 105.352L642.481 113.122L639.779 113.358L639.137 105.994C639.035 104.814 638.661 103.939 638.017 103.369C637.372 102.783 636.539 102.534 635.519 102.623C634.499 102.712 633.714 103.101 633.164 103.792C632.628 104.465 632.412 105.391 632.514 106.571L633.156 113.935L630.43 114.172L629.282 100.998L632.008 100.761L632.139 102.267C632.538 101.686 633.068 101.214 633.727 100.852C634.401 100.488 635.129 100.272 635.911 100.204ZM649.86 98.9883C650.88 98.8994 651.798 99.0282 652.616 99.3745C653.447 99.7036 654.113 100.152 654.612 100.718L654.445 98.8056L657.195 98.566L658.361 111.955C658.467 113.167 658.306 114.265 657.877 115.25C657.451 116.251 656.775 117.064 655.85 117.691C654.941 118.316 653.817 118.687 652.478 118.804C650.692 118.959 649.173 118.666 647.92 117.924C646.668 117.198 645.9 116.125 645.616 114.704L648.318 114.469C648.585 115.136 649.071 115.648 649.776 116.004C650.499 116.374 651.331 116.519 652.271 116.437C653.371 116.341 654.227 115.929 654.838 115.201C655.465 114.472 655.723 113.47 655.612 112.195L655.42 109.995C655.012 110.657 654.428 111.238 653.669 111.738C652.924 112.22 652.049 112.505 651.045 112.593C649.897 112.693 648.82 112.498 647.814 112.007C646.822 111.499 646.002 110.752 645.354 109.764C644.72 108.759 644.346 107.595 644.231 106.272C644.115 104.949 644.284 103.754 644.737 102.687C645.206 101.618 645.887 100.764 646.779 100.124C647.685 99.4669 648.712 99.0883 649.86 98.9883ZM655.018 105.381C654.939 104.472 654.679 103.7 654.238 103.064C653.813 102.426 653.282 101.958 652.646 101.661C652.01 101.363 651.341 101.244 650.64 101.305C649.938 101.366 649.3 101.599 648.725 102.002C648.148 102.39 647.698 102.935 647.374 103.638C647.064 104.323 646.949 105.12 647.028 106.029C647.107 106.937 647.36 107.718 647.786 108.372C648.229 109.024 648.769 109.507 649.406 109.821C650.058 110.117 650.727 110.235 651.413 110.176C652.114 110.115 652.752 109.882 653.327 109.479C653.903 109.075 654.344 108.523 654.653 107.822C654.975 107.103 655.097 106.289 655.018 105.381ZM678.438 96.7149L679.586 109.889L676.86 110.126L676.725 108.572C676.342 109.152 675.814 109.631 675.14 110.011C674.481 110.374 673.761 110.589 672.98 110.657C671.944 110.748 670.993 110.614 670.126 110.256C669.276 109.896 668.575 109.315 668.023 108.512C667.487 107.707 667.167 106.707 667.063 105.512L666.388 97.7649L669.09 97.5295L669.729 104.87C669.832 106.049 670.206 106.932 670.851 107.518C671.495 108.089 672.327 108.329 673.347 108.24C674.368 108.151 675.145 107.77 675.681 107.097C676.231 106.407 676.455 105.472 676.352 104.293L675.712 96.9524L678.438 96.7149ZM687.744 109.395C686.708 109.485 685.759 109.383 684.899 109.089C684.052 108.777 683.362 108.323 682.829 107.727C682.294 107.115 681.975 106.412 681.874 105.618L684.695 105.372C684.792 105.926 685.096 106.373 685.607 106.714C686.133 107.038 686.763 107.168 687.496 107.104C688.261 107.037 688.839 106.842 689.228 106.519C689.632 106.179 689.814 105.778 689.773 105.315C689.73 104.821 689.459 104.475 688.96 104.278C688.477 104.079 687.713 103.881 686.668 103.683C685.656 103.498 684.828 103.305 684.184 103.104C683.541 102.903 682.965 102.56 682.457 102.074C681.964 101.587 681.681 100.913 681.606 100.053C681.545 99.3512 681.696 98.6955 682.061 98.0856C682.424 97.4597 682.973 96.9461 683.709 96.5447C684.461 96.1419 685.339 95.8967 686.343 95.8092C687.842 95.6787 689.078 95.9564 690.054 96.6423C691.043 97.3109 691.627 98.2959 691.805 99.5974L689.079 99.8349C688.98 99.2493 688.7 98.8 688.239 98.4868C687.778 98.1736 687.181 98.049 686.448 98.1129C685.73 98.1754 685.192 98.3588 684.833 98.6631C684.474 98.9674 684.314 99.3427 684.353 99.789C684.384 100.14 684.537 100.423 684.813 100.64C685.089 100.857 685.416 101.021 685.795 101.133C686.173 101.228 686.73 101.349 687.465 101.493C688.444 101.665 689.248 101.86 689.877 102.078C690.521 102.279 691.088 102.615 691.579 103.086C692.07 103.557 692.36 104.215 692.449 105.058C692.515 105.807 692.366 106.495 692.003 107.121C691.64 107.747 691.09 108.26 690.354 108.662C689.634 109.062 688.764 109.306 687.744 109.395ZM699.96 101.416C699.845 100.093 700.014 98.8982 700.467 97.8308C700.936 96.7621 701.616 95.9078 702.508 95.268C703.414 94.6108 704.441 94.2322 705.589 94.1322C706.625 94.0419 707.544 94.1707 708.345 94.5184C709.161 94.8489 709.826 95.2968 710.341 95.8622L710.175 93.9495L712.924 93.7099L714.072 106.884L711.323 107.124L711.152 105.163C710.744 105.825 710.159 106.398 709.398 106.882C708.637 107.366 707.747 107.652 706.727 107.741C705.595 107.839 704.534 107.643 703.544 107.151C702.552 106.643 701.732 105.895 701.084 104.908C700.45 103.903 700.075 102.739 699.96 101.416ZM710.747 100.525C710.668 99.616 710.408 98.8437 709.967 98.2075C709.542 97.57 709.012 97.1023 708.376 96.8044C707.739 96.5065 707.071 96.3881 706.369 96.4492C705.668 96.5104 705.03 96.7426 704.454 97.1461C703.878 97.5336 703.428 98.0788 703.103 98.7815C702.794 99.467 702.678 100.264 702.758 101.173C702.837 102.081 703.09 102.862 703.516 103.516C703.958 104.168 704.498 104.651 705.136 104.964C705.788 105.261 706.457 105.379 707.142 105.32C707.843 105.259 708.482 105.026 709.057 104.623C709.632 104.219 710.074 103.667 710.382 102.965C710.705 102.247 710.827 101.433 710.747 100.525ZM722.893 92.6244C723.929 92.5341 724.872 92.6687 725.723 93.0283C726.589 93.3864 727.29 93.9678 727.826 94.7723C728.362 95.5768 728.682 96.5768 728.786 97.7723L729.463 105.543L726.762 105.778L726.12 98.4141C726.017 97.2346 725.644 96.3597 725 95.7895C724.355 95.2033 723.522 94.9546 722.502 95.0435C721.482 95.1324 720.696 95.522 720.146 96.2124C719.611 96.8854 719.394 97.8117 719.497 98.9912L720.139 106.355L717.413 106.593L716.265 93.4188L718.991 93.1813L719.122 94.6875C719.521 94.1067 720.05 93.635 720.709 93.2724C721.384 92.9085 722.112 92.6925 722.893 92.6244ZM743.412 91.0532L737.018 111.124L734.197 111.37L736.316 104.729L729.999 92.222L733.035 91.9574L737.616 101.676L740.591 91.2991L743.412 91.0532ZM748.604 92.8413L749.239 100.134C749.282 100.628 749.425 100.977 749.668 101.18C749.925 101.367 750.332 101.436 750.89 101.387L752.564 101.241L752.762 103.513L750.61 103.7C749.383 103.807 748.417 103.602 747.714 103.085C747.01 102.568 746.602 101.664 746.49 100.373L745.854 93.0809L744.3 93.2163L744.106 90.9928L745.66 90.8573L745.375 87.5818L748.125 87.3422L748.41 90.6178L751.614 90.3386L751.808 92.5622L748.604 92.8413ZM755.122 88.2743C754.627 88.3173 754.198 88.1861 753.835 87.8805C753.471 87.575 753.267 87.1751 753.224 86.681C753.181 86.1869 753.312 85.7578 753.618 85.3939C753.923 85.03 754.323 84.8266 754.817 84.7835C755.296 84.7418 755.717 84.8738 756.081 85.1794C756.444 85.4849 756.648 85.8848 756.691 86.3789C756.734 86.873 756.603 87.302 756.297 87.6659C755.992 88.0298 755.6 88.2326 755.122 88.2743ZM756.613 89.903L757.761 103.077L755.035 103.315L753.887 90.1405L756.613 89.903ZM775.881 88.0072C776.917 87.9169 777.86 88.0515 778.711 88.4111C779.577 88.7692 780.278 89.3506 780.814 90.1551C781.366 90.9582 781.694 91.9575 781.798 93.153L782.475 100.924L779.773 101.159L779.132 93.7949C779.029 92.6153 778.655 91.7404 778.011 91.1702C777.366 90.584 776.533 90.3353 775.513 90.4242C774.493 90.5131 773.708 90.9028 773.158 91.5931C772.622 92.2662 772.406 93.1924 772.509 94.372L773.15 101.736L770.449 101.971L769.807 94.6074C769.704 93.4279 769.331 92.553 768.687 91.9827C768.041 91.3965 767.209 91.1479 766.189 91.2368C765.169 91.3256 764.383 91.7153 763.833 92.4056C763.298 93.0787 763.081 94.005 763.184 95.1845L763.826 102.549L761.1 102.786L759.952 89.612L762.678 89.3745L762.809 90.8808C763.208 90.3 763.737 89.8283 764.396 89.4657C765.055 89.1031 765.775 88.8878 766.556 88.8197C767.608 88.7281 768.568 88.8693 769.436 89.2433C770.304 89.6174 770.997 90.2074 771.517 91.0133C771.846 90.1816 772.413 89.4979 773.218 88.962C774.021 88.4102 774.909 88.0919 775.881 88.0072ZM797.176 92.6802C797.219 93.1743 797.226 93.6234 797.197 94.0275L787.132 94.9046C787.303 95.9497 787.767 96.7604 788.524 97.3369C789.281 97.9134 790.169 98.1572 791.19 98.0683C792.656 97.9405 793.639 97.2365 794.137 95.9564L797.078 95.7001C796.785 96.9463 796.147 98.0057 795.163 98.8784C794.193 99.7338 792.936 100.229 791.39 100.364C790.13 100.473 788.974 100.293 787.922 99.8226C786.883 99.3349 786.033 98.6059 785.37 97.6358C784.722 96.6484 784.339 95.4772 784.221 94.1223C784.103 92.7675 784.27 91.5563 784.723 90.489C785.191 89.4043 785.894 88.54 786.834 87.896C787.79 87.2506 788.913 86.8716 790.204 86.7591C791.447 86.6508 792.579 86.8252 793.598 87.2824C794.618 87.7397 795.442 88.4388 796.07 89.3798C796.696 90.3049 797.065 91.4051 797.176 92.6802ZM794.256 92.0674C794.153 91.0646 793.724 90.2909 792.97 89.7463C792.216 89.2017 791.321 88.9746 790.285 89.0648C789.344 89.1468 788.566 89.5198 787.949 90.1838C787.331 90.8319 787.002 91.6716 786.964 92.7028L794.256 92.0674ZM801.336 99.4487C800.842 99.4917 800.413 99.3605 800.049 99.0549C799.685 98.7493 799.482 98.3495 799.439 97.8554C799.396 97.3612 799.527 96.9322 799.832 96.5683C800.138 96.2044 800.538 96.001 801.032 95.9579C801.51 95.9162 801.931 96.0482 802.295 96.3537C802.659 96.6593 802.862 97.0592 802.906 97.5533C802.949 98.0474 802.817 98.4764 802.512 98.8403C802.206 99.2042 801.814 99.407 801.336 99.4487Z" fill="white"/>
<defs>
<filter id="filter0_d_1401_2506" x="-58.4297" y="1.84973" width="924.07" height="213.8" filterUnits="userSpaceOnUse" color-interpolation-filters="sRGB">
<feFlood flood-opacity="0" result="BackgroundImageFix"/>
<feColorMatrix in="SourceAlpha" type="matrix" values="0 0 0 0 0 0 0 0 0 0 0 0 0 0 0 0 0 0 127 0" result="hardAlpha"/>
<feOffset dx="5" dy="4"/>
<feComposite in2="hardAlpha" operator="out"/>
<feColorMatrix type="matrix" values="0 0 0 0 0 0 0 0 0 0 0 0 0 0 0 0 0 0 0.25 0"/>
<feBlend mode="normal" in2="BackgroundImageFix" result="effect1_dropShadow_1401_2506"/>
<feBlend mode="normal" in="SourceGraphic" in2="effect1_dropShadow_1401_2506" result="shape"/>
</filter>
<linearGradient id="paint0_linear_1401_2506" x1="580.384" y1="30.8117" x2="582.817" y2="175.574" gradientUnits="userSpaceOnUse">
<stop stop-color="#4E0088"/>
<stop offset="1" stop-color="#180029"/>
</linearGradient>
</defs>
</svg>
