<svg width="413" height="34" viewBox="0 0 413 34" fill="none" xmlns="http://www.w3.org/2000/svg">
<g clip-path="url(#clip0_998_2103)">
<path d="M110.17 8.09093C110.17 8.44637 110.086 8.78169 109.918 9.09689C109.751 9.41209 109.482 9.67028 109.114 9.87148C108.745 10.066 108.272 10.1632 107.695 10.1632H106.428V13H105.281V6.0086H107.695C108.232 6.0086 108.684 6.10249 109.053 6.29027C109.429 6.47134 109.707 6.71948 109.888 7.03468C110.076 7.34988 110.17 7.70196 110.17 8.09093ZM107.695 9.22766C108.131 9.22766 108.456 9.13042 108.671 8.93594C108.886 8.73475 108.993 8.45308 108.993 8.09093C108.993 7.32641 108.56 6.94414 107.695 6.94414H106.428V9.22766H107.695ZM112.41 8.26195C112.578 7.98028 112.799 7.76232 113.074 7.60807C113.356 7.44712 113.688 7.36665 114.07 7.36665V8.55367H113.779C113.329 8.55367 112.987 8.66768 112.752 8.8957C112.524 9.12372 112.41 9.51939 112.41 10.0827V13H111.264V7.45718H112.41V8.26195ZM120.204 10.0928C120.204 10.3007 120.191 10.4885 120.164 10.6561H115.929C115.963 11.0987 116.127 11.4542 116.422 11.7224C116.717 11.9907 117.079 12.1248 117.508 12.1248C118.125 12.1248 118.561 11.8666 118.816 11.3502H120.054C119.886 11.8599 119.581 12.2791 119.138 12.6077C118.702 12.9296 118.159 13.0905 117.508 13.0905C116.979 13.0905 116.503 12.9732 116.08 12.7385C115.664 12.497 115.336 12.1617 115.094 11.7325C114.859 11.2966 114.742 10.7936 114.742 10.2236C114.742 9.65352 114.856 9.15389 115.084 8.72469C115.319 8.28877 115.644 7.95345 116.06 7.71873C116.482 7.48401 116.965 7.36665 117.508 7.36665C118.032 7.36665 118.498 7.48065 118.907 7.70867C119.316 7.93669 119.634 8.25859 119.862 8.67439C120.09 9.08348 120.204 9.55628 120.204 10.0928ZM119.007 9.73064C119.001 9.30814 118.85 8.96947 118.555 8.71463C118.26 8.45978 117.894 8.33236 117.458 8.33236C117.063 8.33236 116.724 8.45978 116.442 8.71463C116.16 8.96276 115.993 9.30143 115.939 9.73064H119.007ZM122.48 8.27201C122.674 8.01716 122.939 7.80256 123.274 7.62819C123.61 7.45383 123.989 7.36665 124.411 7.36665C124.894 7.36665 125.333 7.48736 125.729 7.72879C126.131 7.96351 126.447 8.29548 126.675 8.72469C126.903 9.15389 127.017 9.64681 127.017 10.2034C127.017 10.7601 126.903 11.2597 126.675 11.7023C126.447 12.1382 126.131 12.4803 125.729 12.7284C125.333 12.9698 124.894 13.0905 124.411 13.0905C123.989 13.0905 123.613 13.0067 123.285 12.839C122.956 12.6647 122.688 12.4501 122.48 12.1952V15.6356H121.333V7.45718H122.48V8.27201ZM125.85 10.2034C125.85 9.82118 125.769 9.49257 125.608 9.2176C125.454 8.93594 125.246 8.72469 124.985 8.58385C124.73 8.43631 124.455 8.36254 124.16 8.36254C123.871 8.36254 123.596 8.43631 123.335 8.58385C123.08 8.73139 122.872 8.946 122.711 9.22766C122.557 9.50933 122.48 9.8413 122.48 10.2236C122.48 10.6058 122.557 10.9411 122.711 11.2295C122.872 11.5112 123.08 11.7258 123.335 11.8733C123.596 12.0209 123.871 12.0946 124.16 12.0946C124.455 12.0946 124.73 12.0209 124.985 11.8733C125.246 11.7191 125.454 11.4978 125.608 11.2094C125.769 10.921 125.85 10.5857 125.85 10.2034ZM127.768 10.2034C127.768 9.64681 127.882 9.15389 128.11 8.72469C128.345 8.29548 128.66 7.96351 129.056 7.72879C129.458 7.48736 129.901 7.36665 130.384 7.36665C130.82 7.36665 131.199 7.45383 131.521 7.62819C131.849 7.79585 132.111 8.0071 132.305 8.26195V7.45718H133.462V13H132.305V12.1751C132.111 12.4367 131.846 12.6546 131.511 12.829C131.175 13.0034 130.793 13.0905 130.364 13.0905C129.888 13.0905 129.452 12.9698 129.056 12.7284C128.66 12.4803 128.345 12.1382 128.11 11.7023C127.882 11.2597 127.768 10.7601 127.768 10.2034ZM132.305 10.2236C132.305 9.8413 132.225 9.50933 132.064 9.22766C131.91 8.946 131.705 8.73139 131.45 8.58385C131.195 8.43631 130.92 8.36254 130.625 8.36254C130.33 8.36254 130.055 8.43631 129.8 8.58385C129.546 8.72469 129.338 8.93594 129.177 9.2176C129.023 9.49257 128.945 9.82118 128.945 10.2034C128.945 10.5857 129.023 10.921 129.177 11.2094C129.338 11.4978 129.546 11.7191 129.8 11.8733C130.062 12.0209 130.337 12.0946 130.625 12.0946C130.92 12.0946 131.195 12.0209 131.45 11.8733C131.705 11.7258 131.91 11.5112 132.064 11.2295C132.225 10.9411 132.305 10.6058 132.305 10.2236ZM136.115 8.26195C136.283 7.98028 136.504 7.76232 136.779 7.60807C137.061 7.44712 137.393 7.36665 137.775 7.36665V8.55367H137.483C137.034 8.55367 136.692 8.66768 136.457 8.8957C136.229 9.12372 136.115 9.51939 136.115 10.0827V13H134.968V7.45718H136.115V8.26195ZM143.909 10.0928C143.909 10.3007 143.896 10.4885 143.869 10.6561H139.634C139.667 11.0987 139.832 11.4542 140.127 11.7224C140.422 11.9907 140.784 12.1248 141.213 12.1248C141.83 12.1248 142.266 11.8666 142.521 11.3502H143.758C143.591 11.8599 143.286 12.2791 142.843 12.6077C142.407 12.9296 141.864 13.0905 141.213 13.0905C140.683 13.0905 140.207 12.9732 139.785 12.7385C139.369 12.497 139.04 12.1617 138.799 11.7325C138.564 11.2966 138.447 10.7936 138.447 10.2236C138.447 9.65352 138.561 9.15389 138.789 8.72469C139.024 8.28877 139.349 7.95345 139.765 7.71873C140.187 7.48401 140.67 7.36665 141.213 7.36665C141.736 7.36665 142.202 7.48065 142.612 7.70867C143.021 7.93669 143.339 8.25859 143.567 8.67439C143.795 9.08348 143.909 9.55628 143.909 10.0928ZM142.712 9.73064C142.705 9.30814 142.555 8.96947 142.259 8.71463C141.964 8.45978 141.599 8.33236 141.163 8.33236C140.767 8.33236 140.429 8.45978 140.147 8.71463C139.865 8.96276 139.698 9.30143 139.644 9.73064H142.712ZM144.656 10.2034C144.656 9.64681 144.77 9.15389 144.998 8.72469C145.232 8.29548 145.547 7.96351 145.943 7.72879C146.346 7.48736 146.792 7.36665 147.281 7.36665C147.643 7.36665 147.999 7.44712 148.347 7.60807C148.703 7.76232 148.985 7.97022 149.192 8.23177V5.55592H150.349V13H149.192V12.1651C149.005 12.4333 148.743 12.6546 148.408 12.829C148.079 13.0034 147.7 13.0905 147.271 13.0905C146.788 13.0905 146.346 12.9698 145.943 12.7284C145.547 12.4803 145.232 12.1382 144.998 11.7023C144.77 11.2597 144.656 10.7601 144.656 10.2034ZM149.192 10.2236C149.192 9.8413 149.112 9.50933 148.951 9.22766C148.797 8.946 148.592 8.73139 148.337 8.58385C148.083 8.43631 147.808 8.36254 147.512 8.36254C147.217 8.36254 146.942 8.43631 146.688 8.58385C146.433 8.72469 146.225 8.93594 146.064 9.2176C145.91 9.49257 145.833 9.82118 145.833 10.2034C145.833 10.5857 145.91 10.921 146.064 11.2094C146.225 11.4978 146.433 11.7191 146.688 11.8733C146.949 12.0209 147.224 12.0946 147.512 12.0946C147.808 12.0946 148.083 12.0209 148.337 11.8733C148.592 11.7258 148.797 11.5112 148.951 11.2295C149.112 10.9411 149.192 10.6058 149.192 10.2236ZM155.615 8.28207C155.81 8.01381 156.075 7.79585 156.41 7.62819C156.752 7.45383 157.131 7.36665 157.547 7.36665C158.036 7.36665 158.479 7.48401 158.875 7.71873C159.27 7.95345 159.582 8.28877 159.81 8.72469C160.038 9.15389 160.152 9.64681 160.152 10.2034C160.152 10.7601 160.038 11.2597 159.81 11.7023C159.582 12.1382 159.267 12.4803 158.865 12.7284C158.469 12.9698 158.03 13.0905 157.547 13.0905C157.118 13.0905 156.735 13.0067 156.4 12.839C156.071 12.6714 155.81 12.4568 155.615 12.1952V13H154.469V5.55592H155.615V8.28207ZM158.985 10.2034C158.985 9.82118 158.905 9.49257 158.744 9.2176C158.59 8.93594 158.382 8.72469 158.12 8.58385C157.865 8.43631 157.59 8.36254 157.295 8.36254C157.007 8.36254 156.732 8.43631 156.47 8.58385C156.216 8.73139 156.008 8.946 155.847 9.22766C155.693 9.50933 155.615 9.8413 155.615 10.2236C155.615 10.6058 155.693 10.9411 155.847 11.2295C156.008 11.5112 156.216 11.7258 156.47 11.8733C156.732 12.0209 157.007 12.0946 157.295 12.0946C157.59 12.0946 157.865 12.0209 158.12 11.8733C158.382 11.7191 158.59 11.4978 158.744 11.2094C158.905 10.921 158.985 10.5857 158.985 10.2034ZM166.276 7.45718L162.876 15.6054H161.689L162.815 12.9095L160.632 7.45718H161.91L163.469 11.6822L165.089 7.45718H166.276ZM5.88161 21.0086V21.9441H4.02059V28H2.8738V21.9441H1.00272V21.0086H5.88161ZM9.90999 22.3666C10.3325 22.3666 10.708 22.4572 11.0367 22.6383C11.372 22.8193 11.6335 23.0876 11.8213 23.443C12.0158 23.7985 12.113 24.2277 12.113 24.7306V28H10.9763V24.9017C10.9763 24.4054 10.8522 24.0265 10.6041 23.7649C10.356 23.4967 10.0173 23.3625 9.58808 23.3625C9.15888 23.3625 8.81685 23.4967 8.56201 23.7649C8.31387 24.0265 8.18981 24.4054 8.18981 24.9017V28H7.04302V20.5559H8.18981V23.101C8.38429 22.8663 8.62907 22.6852 8.92415 22.5578C9.22594 22.4304 9.55455 22.3666 9.90999 22.3666ZM18.6559 25.0928C18.6559 25.3007 18.6425 25.4885 18.6157 25.6561H14.3806C14.4141 26.0987 14.5784 26.4542 14.8735 26.7224C15.1686 26.9907 15.5307 27.1248 15.96 27.1248C16.5769 27.1248 17.0129 26.8666 17.2677 26.3502H18.505C18.3374 26.8599 18.0322 27.2791 17.5896 27.6077C17.1537 27.9296 16.6105 28.0905 15.96 28.0905C15.4301 28.0905 14.954 27.9732 14.5315 27.7385C14.1157 27.497 13.7871 27.1617 13.5457 26.7325C13.3109 26.2966 13.1936 25.7936 13.1936 25.2236C13.1936 24.6535 13.3076 24.1539 13.5356 23.7247C13.7703 23.2888 14.0956 22.9535 14.5114 22.7187C14.9339 22.484 15.4167 22.3666 15.96 22.3666C16.483 22.3666 16.9491 22.4807 17.3582 22.7087C17.7673 22.9367 18.0859 23.2586 18.3139 23.6744C18.5419 24.0835 18.6559 24.5563 18.6559 25.0928ZM17.4588 24.7306C17.4521 24.3081 17.3012 23.9695 17.0061 23.7146C16.7111 23.4598 16.3456 23.3324 15.9097 23.3324C15.514 23.3324 15.1753 23.4598 14.8936 23.7146C14.612 23.9628 14.4443 24.3014 14.3907 24.7306H17.4588ZM27.2865 23.0909C27.2865 23.4464 27.2027 23.7817 27.0351 24.0969C26.8674 24.4121 26.5991 24.6703 26.2303 24.8715C25.8614 25.066 25.3886 25.1632 24.8119 25.1632H23.5444V28H22.3976V21.0086H24.8119C25.3484 21.0086 25.8011 21.1025 26.1699 21.2903C26.5455 21.4713 26.8238 21.7195 27.0049 22.0347C27.1927 22.3499 27.2865 22.702 27.2865 23.0909ZM24.8119 24.2277C25.2478 24.2277 25.5731 24.1304 25.7877 23.9359C26.0023 23.7347 26.1096 23.4531 26.1096 23.0909C26.1096 22.3264 25.677 21.9441 24.8119 21.9441H23.5444V24.2277H24.8119ZM29.5271 23.2619C29.6947 22.9803 29.916 22.7623 30.191 22.6081C30.4727 22.4471 30.8046 22.3666 31.1869 22.3666V23.5537H30.8952C30.4459 23.5537 30.1038 23.6677 29.8691 23.8957C29.6411 24.1237 29.5271 24.5194 29.5271 25.0827V28H28.3803V22.4572H29.5271V23.2619ZM34.6453 28.0905C34.1222 28.0905 33.6494 27.9732 33.2269 27.7385C32.8044 27.497 32.4724 27.1617 32.231 26.7325C31.9896 26.2966 31.8688 25.7936 31.8688 25.2236C31.8688 24.6602 31.9929 24.1606 32.241 23.7247C32.4892 23.2888 32.8278 22.9535 33.2571 22.7187C33.6863 22.484 34.1658 22.3666 34.6956 22.3666C35.2254 22.3666 35.7049 22.484 36.1341 22.7187C36.5633 22.9535 36.902 23.2888 37.1501 23.7247C37.3982 24.1606 37.5223 24.6602 37.5223 25.2236C37.5223 25.7869 37.3949 26.2865 37.14 26.7224C36.8852 27.1583 36.5365 27.497 36.0939 27.7385C35.6579 27.9732 35.1751 28.0905 34.6453 28.0905ZM34.6453 27.0946C34.9404 27.0946 35.2153 27.0242 35.4702 26.8834C35.7317 26.7426 35.943 26.5313 36.1039 26.2496C36.2649 25.968 36.3453 25.6259 36.3453 25.2236C36.3453 24.8212 36.2682 24.4825 36.114 24.2075C35.9597 23.9259 35.7552 23.7146 35.5003 23.5738C35.2455 23.433 34.9705 23.3625 34.6755 23.3625C34.3804 23.3625 34.1054 23.433 33.8506 23.5738C33.6024 23.7146 33.4046 23.9259 33.2571 24.2075C33.1095 24.4825 33.0357 24.8212 33.0357 25.2236C33.0357 25.8204 33.1866 26.2832 33.4884 26.6118C33.7969 26.9337 34.1825 27.0946 34.6453 27.0946ZM40.8892 22.3666C41.3184 22.3666 41.6973 22.4538 42.0259 22.6282C42.3612 22.7959 42.6228 23.0071 42.8106 23.2619V22.4572H43.9674V28.0905C43.9674 28.6002 43.8601 29.0529 43.6455 29.4486C43.4309 29.851 43.1191 30.1662 42.71 30.3942C42.3076 30.6222 41.8247 30.7362 41.2614 30.7362C40.5103 30.7362 39.8866 30.5585 39.3903 30.203C38.8941 29.8543 38.6124 29.3782 38.5453 28.7746H39.6821C39.7692 29.063 39.9537 29.2943 40.2353 29.4687C40.5237 29.6498 40.8657 29.7403 41.2614 29.7403C41.7241 29.7403 42.0963 29.5995 42.378 29.3178C42.6664 29.0361 42.8106 28.627 42.8106 28.0905V27.1651C42.6161 27.4266 42.3512 27.6479 42.0159 27.829C41.6873 28.0034 41.3117 28.0905 40.8892 28.0905C40.4063 28.0905 39.9637 27.9698 39.5613 27.7284C39.1657 27.4803 38.8505 27.1382 38.6157 26.7023C38.3877 26.2597 38.2737 25.7601 38.2737 25.2034C38.2737 24.6468 38.3877 24.1539 38.6157 23.7247C38.8505 23.2955 39.1657 22.9635 39.5613 22.7288C39.9637 22.4874 40.4063 22.3666 40.8892 22.3666ZM42.8106 25.2236C42.8106 24.8413 42.7301 24.5093 42.5691 24.2277C42.4149 23.946 42.2104 23.7314 41.9555 23.5839C41.7007 23.4363 41.4257 23.3625 41.1306 23.3625C40.8355 23.3625 40.5606 23.4363 40.3057 23.5839C40.0509 23.7247 39.843 23.9359 39.6821 24.2176C39.5278 24.4926 39.4507 24.8212 39.4507 25.2034C39.4507 25.5857 39.5278 25.921 39.6821 26.2094C39.843 26.4978 40.0509 26.7191 40.3057 26.8733C40.5673 27.0209 40.8423 27.0946 41.1306 27.0946C41.4257 27.0946 41.7007 27.0209 41.9555 26.8733C42.2104 26.7258 42.4149 26.5112 42.5691 26.2295C42.7301 25.9411 42.8106 25.6058 42.8106 25.2236ZM46.6205 23.2619C46.7881 22.9803 47.0094 22.7623 47.2844 22.6081C47.5661 22.4471 47.898 22.3666 48.2803 22.3666V23.5537H47.9886C47.5392 23.5537 47.1972 23.6677 46.9625 23.8957C46.7345 24.1237 46.6205 24.5194 46.6205 25.0827V28H45.4737V22.4572H46.6205V23.2619ZM48.9522 25.2034C48.9522 24.6468 49.0662 24.1539 49.2942 23.7247C49.5289 23.2955 49.8441 22.9635 50.2398 22.7288C50.6422 22.4874 51.0848 22.3666 51.5677 22.3666C52.0036 22.3666 52.3825 22.4538 52.7044 22.6282C53.033 22.7959 53.2945 23.0071 53.489 23.2619V22.4572H54.6459V28H53.489V27.1751C53.2945 27.4367 53.0296 27.6546 52.6943 27.829C52.359 28.0034 51.9767 28.0905 51.5475 28.0905C51.0714 28.0905 50.6355 27.9698 50.2398 27.7284C49.8441 27.4803 49.5289 27.1382 49.2942 26.7023C49.0662 26.2597 48.9522 25.7601 48.9522 25.2034ZM53.489 25.2236C53.489 24.8413 53.4086 24.5093 53.2476 24.2277C53.0934 23.946 52.8888 23.7314 52.634 23.5839C52.3791 23.4363 52.1042 23.3625 51.8091 23.3625C51.514 23.3625 51.239 23.4363 50.9842 23.5839C50.7294 23.7247 50.5215 23.9359 50.3605 24.2176C50.2063 24.4926 50.1291 24.8212 50.1291 25.2034C50.1291 25.5857 50.2063 25.921 50.3605 26.2094C50.5215 26.4978 50.7294 26.7191 50.9842 26.8733C51.2458 27.0209 51.5207 27.0946 51.8091 27.0946C52.1042 27.0946 52.3791 27.0209 52.634 26.8733C52.8888 26.7258 53.0934 26.5112 53.2476 26.2295C53.4086 25.9411 53.489 25.6058 53.489 25.2236ZM62.8619 22.3666C63.2978 22.3666 63.6868 22.4572 64.0288 22.6383C64.3775 22.8193 64.6491 23.0876 64.8436 23.443C65.0448 23.7985 65.1454 24.2277 65.1454 24.7306V28H64.0087V24.9017C64.0087 24.4054 63.8846 24.0265 63.6365 23.7649C63.3883 23.4967 63.0497 23.3625 62.6204 23.3625C62.1912 23.3625 61.8492 23.4967 61.5944 23.7649C61.3462 24.0265 61.2222 24.4054 61.2222 24.9017V28H60.0854V24.9017C60.0854 24.4054 59.9614 24.0265 59.7132 23.7649C59.4651 23.4967 59.1264 23.3625 58.6972 23.3625C58.268 23.3625 57.926 23.4967 57.6711 23.7649C57.423 24.0265 57.2989 24.4054 57.2989 24.9017V28H56.1521V22.4572H57.2989V23.0909C57.4867 22.8629 57.7248 22.6852 58.0132 22.5578C58.3015 22.4304 58.61 22.3666 58.9386 22.3666C59.3813 22.3666 59.7769 22.4605 60.1257 22.6483C60.4744 22.8361 60.7427 23.1077 60.9304 23.4631C61.0981 23.1278 61.3596 22.8629 61.7151 22.6684C62.0705 22.4672 62.4528 22.3666 62.8619 22.3666ZM73.3144 22.3666C73.7503 22.3666 74.1393 22.4572 74.4813 22.6383C74.83 22.8193 75.1016 23.0876 75.2961 23.443C75.4973 23.7985 75.5979 24.2277 75.5979 24.7306V28H74.4612V24.9017C74.4612 24.4054 74.3371 24.0265 74.089 23.7649C73.8408 23.4967 73.5022 23.3625 73.073 23.3625C72.6437 23.3625 72.3017 23.4967 72.0469 23.7649C71.7987 24.0265 71.6747 24.4054 71.6747 24.9017V28H70.5379V24.9017C70.5379 24.4054 70.4139 24.0265 70.1657 23.7649C69.9176 23.4967 69.5789 23.3625 69.1497 23.3625C68.7205 23.3625 68.3785 23.4967 68.1237 23.7649C67.8755 24.0265 67.7514 24.4054 67.7514 24.9017V28H66.6047V22.4572H67.7514V23.0909C67.9392 22.8629 68.1773 22.6852 68.4657 22.5578C68.754 22.4304 69.0625 22.3666 69.3912 22.3666C69.8338 22.3666 70.2295 22.4605 70.5782 22.6483C70.9269 22.8361 71.1952 23.1077 71.3829 23.4631C71.5506 23.1278 71.8122 22.8629 72.1676 22.6684C72.523 22.4672 72.9053 22.3666 73.3144 22.3666ZM77.6406 21.7228C77.4327 21.7228 77.2584 21.6524 77.1175 21.5116C76.9767 21.3707 76.9063 21.1964 76.9063 20.9885C76.9063 20.7806 76.9767 20.6062 77.1175 20.4654C77.2584 20.3246 77.4327 20.2541 77.6406 20.2541C77.8418 20.2541 78.0128 20.3246 78.1537 20.4654C78.2945 20.6062 78.3649 20.7806 78.3649 20.9885C78.3649 21.1964 78.2945 21.3707 78.1537 21.5116C78.0128 21.6524 77.8418 21.7228 77.6406 21.7228ZM78.204 22.4572V28H77.0572V22.4572H78.204ZM82.5062 22.3666C82.9421 22.3666 83.331 22.4572 83.6731 22.6383C84.0218 22.8193 84.2934 23.0876 84.4879 23.443C84.6824 23.7985 84.7796 24.2277 84.7796 24.7306V28H83.6429V24.9017C83.6429 24.4054 83.5188 24.0265 83.2707 23.7649C83.0225 23.4967 82.6839 23.3625 82.2547 23.3625C81.8255 23.3625 81.4834 23.4967 81.2286 23.7649C80.9805 24.0265 80.8564 24.4054 80.8564 24.9017V28H79.7096V22.4572H80.8564V23.0909C81.0442 22.8629 81.2822 22.6852 81.5706 22.5578C81.8657 22.4304 82.1775 22.3666 82.5062 22.3666ZM88.4756 22.3666C88.9049 22.3666 89.2838 22.4538 89.6124 22.6282C89.9477 22.7959 90.2092 23.0071 90.397 23.2619V22.4572H91.5539V28.0905C91.5539 28.6002 91.4466 29.0529 91.232 29.4486C91.0174 29.851 90.7055 30.1662 90.2964 30.3942C89.894 30.6222 89.4112 30.7362 88.8478 30.7362C88.0967 30.7362 87.473 30.5585 86.9768 30.203C86.4805 29.8543 86.1988 29.3782 86.1318 28.7746H87.2685C87.3557 29.063 87.5401 29.2943 87.8218 29.4687C88.1101 29.6498 88.4522 29.7403 88.8478 29.7403C89.3106 29.7403 89.6828 29.5995 89.9645 29.3178C90.2528 29.0361 90.397 28.627 90.397 28.0905V27.1651C90.2025 27.4266 89.9376 27.6479 89.6023 27.829C89.2737 28.0034 88.8981 28.0905 88.4756 28.0905C87.9928 28.0905 87.5502 27.9698 87.1478 27.7284C86.7521 27.4803 86.4369 27.1382 86.2022 26.7023C85.9742 26.2597 85.8602 25.7601 85.8602 25.2034C85.8602 24.6468 85.9742 24.1539 86.2022 23.7247C86.4369 23.2955 86.7521 22.9635 87.1478 22.7288C87.5502 22.4874 87.9928 22.3666 88.4756 22.3666ZM90.397 25.2236C90.397 24.8413 90.3165 24.5093 90.1556 24.2277C90.0013 23.946 89.7968 23.7314 89.542 23.5839C89.2871 23.4363 89.0122 23.3625 88.7171 23.3625C88.422 23.3625 88.147 23.4363 87.8922 23.5839C87.6373 23.7247 87.4294 23.9359 87.2685 24.2176C87.1142 24.4926 87.0371 24.8212 87.0371 25.2034C87.0371 25.5857 87.1142 25.921 87.2685 26.2094C87.4294 26.4978 87.6373 26.7191 87.8922 26.8733C88.1537 27.0209 88.4287 27.0946 88.7171 27.0946C89.0122 27.0946 89.2871 27.0209 89.542 26.8733C89.7968 26.7258 90.0013 26.5112 90.1556 26.2295C90.3165 25.9411 90.397 25.6058 90.397 25.2236ZM95.291 24.4892C95.291 23.8052 95.4486 23.1915 95.7638 22.6483C96.0857 22.1051 96.5183 21.6826 97.0615 21.3808C97.6114 21.0723 98.2116 20.9181 98.8621 20.9181C99.6065 20.9181 100.267 21.1025 100.844 21.4713C101.427 21.8335 101.85 22.3499 102.111 23.0205H100.733C100.552 22.6517 100.301 22.3767 99.9788 22.1956C99.6568 22.0146 99.2846 21.924 98.8621 21.924C98.3994 21.924 97.987 22.028 97.6248 22.2359C97.2627 22.4438 96.9776 22.7422 96.7698 23.1312C96.5686 23.5201 96.468 23.9728 96.468 24.4892C96.468 25.0056 96.5686 25.4583 96.7698 25.8473C96.9776 26.2362 97.2627 26.538 97.6248 26.7526C97.987 26.9605 98.3994 27.0645 98.8621 27.0645C99.2846 27.0645 99.6568 26.9739 99.9788 26.7929C100.301 26.6118 100.552 26.3368 100.733 25.968H102.111C101.85 26.6386 101.427 27.155 100.844 27.5171C100.267 27.8793 99.6065 28.0604 98.8621 28.0604C98.2049 28.0604 97.6047 27.9095 97.0615 27.6077C96.5183 27.2992 96.0857 26.8733 95.7638 26.3301C95.4486 25.7869 95.291 25.1733 95.291 24.4892ZM104.6 20.5559V28H103.454V20.5559H104.6ZM111.126 22.4572V28H109.979V27.3461C109.798 27.5741 109.56 27.7552 109.265 27.8893C108.976 28.0168 108.668 28.0805 108.339 28.0805C107.903 28.0805 107.511 27.9899 107.162 27.8089C106.82 27.6278 106.549 27.3595 106.348 27.0041C106.153 26.6487 106.056 26.2195 106.056 25.7165V22.4572H107.193V25.5455C107.193 26.0417 107.317 26.424 107.565 26.6923C107.813 26.9538 108.152 27.0846 108.581 27.0846C109.01 27.0846 109.349 26.9538 109.597 26.6923C109.852 26.424 109.979 26.0417 109.979 25.5455V22.4572H111.126ZM113.786 23.2821C113.98 23.0138 114.245 22.7959 114.58 22.6282C114.922 22.4538 115.301 22.3666 115.717 22.3666C116.207 22.3666 116.649 22.484 117.045 22.7187C117.441 22.9535 117.753 23.2888 117.981 23.7247C118.209 24.1539 118.323 24.6468 118.323 25.2034C118.323 25.7601 118.209 26.2597 117.981 26.7023C117.753 27.1382 117.437 27.4803 117.035 27.7284C116.639 27.9698 116.2 28.0905 115.717 28.0905C115.288 28.0905 114.906 28.0067 114.57 27.839C114.242 27.6714 113.98 27.4568 113.786 27.1952V28H112.639V20.5559H113.786V23.2821ZM117.156 25.2034C117.156 24.8212 117.075 24.4926 116.914 24.2176C116.76 23.9359 116.552 23.7247 116.291 23.5839C116.036 23.4363 115.761 23.3625 115.466 23.3625C115.177 23.3625 114.902 23.4363 114.641 23.5839C114.386 23.7314 114.178 23.946 114.017 24.2277C113.863 24.5093 113.786 24.8413 113.786 25.2236C113.786 25.6058 113.863 25.9411 114.017 26.2295C114.178 26.5112 114.386 26.7258 114.641 26.8733C114.902 27.0209 115.177 27.0946 115.466 27.0946C115.761 27.0946 116.036 27.0209 116.291 26.8733C116.552 26.7191 116.76 26.4978 116.914 26.2094C117.075 25.921 117.156 25.5857 117.156 25.2034ZM124.474 28.0905C123.951 28.0905 123.478 27.9732 123.056 27.7385C122.633 27.497 122.301 27.1617 122.06 26.7325C121.818 26.2966 121.698 25.7936 121.698 25.2236C121.698 24.6602 121.822 24.1606 122.07 23.7247C122.318 23.2888 122.657 22.9535 123.086 22.7187C123.515 22.484 123.995 22.3666 124.524 22.3666C125.054 22.3666 125.534 22.484 125.963 22.7187C126.392 22.9535 126.731 23.2888 126.979 23.7247C127.227 24.1606 127.351 24.6602 127.351 25.2236C127.351 25.7869 127.224 26.2865 126.969 26.7224C126.714 27.1583 126.365 27.497 125.923 27.7385C125.487 27.9732 125.004 28.0905 124.474 28.0905ZM124.474 27.0946C124.769 27.0946 125.044 27.0242 125.299 26.8834C125.56 26.7426 125.772 26.5313 125.933 26.2496C126.094 25.968 126.174 25.6259 126.174 25.2236C126.174 24.8212 126.097 24.4825 125.943 24.2075C125.788 23.9259 125.584 23.7146 125.329 23.5738C125.074 23.433 124.799 23.3625 124.504 23.3625C124.209 23.3625 123.934 23.433 123.679 23.5738C123.431 23.7146 123.233 23.9259 123.086 24.2075C122.938 24.4825 122.864 24.8212 122.864 25.2236C122.864 25.8204 123.015 26.2832 123.317 26.6118C123.626 26.9337 124.011 27.0946 124.474 27.0946ZM130.808 23.3927H129.782V28H128.626V23.3927H127.972V22.4572H128.626V22.0649C128.626 21.4278 128.793 20.965 129.129 20.6766C129.471 20.3816 130.004 20.234 130.728 20.234V21.1897C130.379 21.1897 130.134 21.2567 129.994 21.3909C129.853 21.5183 129.782 21.743 129.782 22.0649V22.4572H130.808V23.3927ZM135.585 21.0086V28H134.438V21.0086H135.585ZM138.237 21.0086V28H137.09V21.0086H138.237ZM140.89 21.0086V28H139.743V21.0086H140.89ZM146.912 21.0086V21.9441H145.051V28H143.904V21.9441H142.033V21.0086H146.912ZM150.357 21.0086C151.101 21.0086 151.752 21.1528 152.308 21.4412C152.872 21.7228 153.304 22.1319 153.606 22.6684C153.915 23.1982 154.069 23.8186 154.069 24.5295C154.069 25.2403 153.915 25.8573 153.606 26.3804C153.304 26.9035 152.872 27.3059 152.308 27.5876C151.752 27.8625 151.101 28 150.357 28H148.073V21.0086H150.357ZM150.357 27.0645C151.175 27.0645 151.802 26.8432 152.238 26.4005C152.674 25.9579 152.892 25.3342 152.892 24.5295C152.892 23.718 152.674 23.0842 152.238 22.6282C151.802 22.1722 151.175 21.9441 150.357 21.9441H149.22V27.0645H150.357ZM162.569 21.0086V28H161.422V23.2116L159.29 28H158.495L156.352 23.2116V28H155.205V21.0086H156.443L158.897 26.4911L161.342 21.0086H162.569ZM167.889 21.0086V26.0484C167.889 26.6721 167.698 27.1651 167.315 27.5272C166.94 27.8893 166.444 28.0704 165.827 28.0704C165.21 28.0704 164.71 27.8893 164.328 27.5272C163.952 27.1651 163.764 26.6721 163.764 26.0484H164.921C164.928 26.3569 165.005 26.6017 165.153 26.7828C165.307 26.9639 165.532 27.0544 165.827 27.0544C166.122 27.0544 166.346 26.9639 166.501 26.7828C166.655 26.595 166.732 26.3502 166.732 26.0484V21.0086H167.889Z" fill="white"/>
<path d="M207.034 20.3461V30.4628H201.57V13.7475H209.808V9.83361L182.414 9.83361L187 3.38L234.669 3.38L230.089 9.86405H223.963C223.963 12.1167 223.98 14.2578 223.963 16.3988C223.936 19.0168 222.934 20.1678 220.672 20.2069C219.024 20.2301 217.375 20.2069 215.613 20.2069V24.1122H234.401L229.799 30.6107C224.085 30.6107 218.439 30.6411 212.792 30.5919C211.018 30.5774 209.997 29.2872 209.954 27.1447C209.907 24.921 209.944 22.6959 209.944 20.3461H207.034ZM218.315 13.6026V9.96553L215.615 9.96553V13.6098L218.315 13.6026Z" fill="white"/>
<path d="M194.223 11.6354H199.529V30.4381H194.223V11.6354Z" fill="white"/>
<path d="M314.028 7.09192V8.01613H316.898V7.09192H314.028Z" fill="white"/>
<path d="M324.268 9.49924C324.268 10.7001 323.296 11.6736 322.096 11.6736C320.896 11.6736 319.924 10.7001 319.924 9.49924C319.924 8.29838 320.896 7.32489 322.096 7.32489C323.296 7.32489 324.268 8.29838 324.268 9.49924Z" fill="white"/>
<path d="M326.862 1.42308H321.165V0.801833H326.862C327.72 0.801833 329.004 1.02842 330.084 1.72057C331.181 2.42343 332.06 3.60418 332.06 5.46116V28.0618L332.06 28.0646C332.046 28.8181 331.785 29.936 331.045 30.8726C330.293 31.8228 329.064 32.5629 327.173 32.5629H324.07V31.9417H327.173C328.88 31.9417 329.928 31.2839 330.558 30.4869C331.198 29.6775 331.427 28.7003 331.439 28.0559V5.46116C331.439 3.83918 330.689 2.84557 329.75 2.24382C328.794 1.63136 327.634 1.42308 326.862 1.42308Z" fill="white"/>
<path d="M309.684 0.801833V1.42308H304.21C302.265 1.42308 301.064 2.23973 300.336 3.24574C299.598 4.26639 299.335 5.50015 299.323 6.31841C299.297 12.0937 299.261 24.4548 299.323 27.7424C299.351 29.264 300.139 30.2854 301.139 30.9578C302.001 31.5382 303.012 31.8488 303.788 31.9731V32.6015C302.928 32.4765 301.781 32.138 300.792 31.4734C299.668 30.7169 298.736 29.5252 298.702 27.7541C298.64 24.4569 298.676 12.0841 298.702 6.31398L298.702 6.31235L298.702 6.31073C298.716 5.39468 299.004 4.02792 299.834 2.88136C300.674 1.71948 302.059 0.801833 304.21 0.801833H309.684Z" fill="white"/>
<path d="M314.028 7.09192H316.898V6.31537C316.898 5.95298 316.964 5.22819 317.708 5.22819H326.862C327.147 5.22819 327.716 5.41457 327.716 6.16006V27.4376C327.716 27.7224 327.53 28.2919 326.785 28.2919H324.07V30.9321H326.785C327.948 30.9321 330.26 30.2332 330.198 27.4376C330.136 24.6421 330.172 12.0878 330.198 6.16006C330.121 4.96934 329.345 2.58791 326.862 2.58791H321.165H317.708C317.165 2.58791 315.971 2.74322 315.536 3.36446C315.485 3.10561 314.947 2.58791 313.209 2.58791H309.684H304.21C303.072 2.61379 300.766 3.34893 300.642 6.0824C300.518 8.81587 300.59 21.6135 300.642 27.6706C300.745 28.7319 301.526 30.8545 303.822 30.8545H313.873C314.738 30.6193 315.045 30.3961 315.531 29.8872L316.234 30.5915V26.9717H314.14C314.14 27.4118 313.907 28.2919 312.976 28.2919H304.133C303.848 28.2919 303.279 28.121 303.279 27.4376V6.0824C303.279 5.79767 303.465 5.22819 304.21 5.22819H313.209C313.519 5.22819 314.028 5.44563 314.028 6.31537V7.09192Z" fill="white"/>
<path d="M303.943 31.631V33.883H316.234V30.5915L315.531 29.8872C315.045 30.3961 314.738 30.6193 313.873 30.8545V31.631H303.943Z" fill="white"/>
<path d="M307.049 20.0093C310.203 23.4615 316.625 14.9158 319.384 10.9767C313.8 12.2999 303.517 15.959 307.049 20.0093Z" fill="white"/>
<path d="M311.131 24.4769C315.075 27.1784 319.046 16.9104 320.773 12.2489C315.632 14.9713 306.67 21.2652 311.131 24.4769Z" fill="white"/>
<path d="M308.074 23.5611C312.009 26.6783 317.411 16.593 319.686 11.9779C313.967 14.3033 303.638 19.8756 308.074 23.5611Z" fill="white"/>
<path d="M315.536 3.36446C315.971 2.74322 317.165 2.58791 317.708 2.58791H321.165V1.42308V0.801833V0.491211H309.684V0.801833V1.42308V2.58791H313.209C314.947 2.58791 315.485 3.10561 315.536 3.36446Z" fill="white"/>
<path d="M344.083 24.9084V6.43536H345.558V24.9084H344.083ZM349.927 24.9084V6.43536H351.402V24.9084H349.927ZM355.771 24.9084V6.43536H357.246V24.9084H355.771ZM366.438 24.9084V7.87216H359.819V6.43536H374.533V7.87216H367.914V24.9084H366.438ZM376.849 24.9084V6.43536H382.352C382.566 6.43536 382.912 6.43964 383.391 6.44819C383.879 6.45674 384.341 6.49523 384.777 6.56365C386.162 6.7518 387.313 7.27349 388.228 8.12873C389.143 8.97541 389.827 10.053 390.28 11.3615C390.733 12.6615 390.96 14.0983 390.96 15.6719C390.96 17.2541 390.733 18.6994 390.28 20.0079C389.827 21.3079 389.143 22.3812 388.228 23.2279C387.313 24.0746 386.162 24.592 384.777 24.7802C384.341 24.84 383.874 24.8785 383.378 24.8956C382.891 24.9042 382.549 24.9084 382.352 24.9084H376.849ZM378.401 23.4588H382.352C382.737 23.4588 383.135 23.4503 383.545 23.4332C383.956 23.4075 384.306 23.369 384.597 23.3177C385.743 23.1125 386.667 22.6592 387.368 21.9579C388.069 21.248 388.578 20.3543 388.895 19.2767C389.22 18.1906 389.382 16.989 389.382 15.6719C389.382 14.3463 389.22 13.1447 388.895 12.0671C388.57 10.9809 388.057 10.0872 387.355 9.38593C386.654 8.67608 385.735 8.2228 384.597 8.0261C384.306 7.97479 383.947 7.94058 383.52 7.92347C383.1 7.89782 382.711 7.88499 382.352 7.88499H378.401V23.4588ZM394.068 24.9084V6.43536H395.441L403.009 22.7789L410.501 6.43536H411.925V24.8828H410.476V9.83492L403.6 24.9084H402.394L395.505 9.83492V24.9084H394.068Z" fill="white"/>
<path d="M344.679 33.8224C344.347 33.8224 344.07 33.7358 343.849 33.5628C343.629 33.3897 343.475 33.1563 343.387 32.8625L344.105 32.6904C344.127 32.8132 344.192 32.9188 344.298 33.0074C344.405 33.0959 344.523 33.1402 344.651 33.1402C344.736 33.1402 344.826 33.1181 344.92 33.0738C345.015 33.0275 345.085 32.9541 345.131 32.8534C345.16 32.789 345.176 32.7126 345.18 32.624C345.186 32.5335 345.189 32.4288 345.189 32.3101V29.3852H345.925V32.3101C345.925 32.4449 345.924 32.5637 345.922 32.6663C345.922 32.7669 345.912 32.8625 345.892 32.953C345.874 33.0416 345.837 33.1331 345.78 33.2277C345.662 33.433 345.507 33.5839 345.316 33.6805C345.124 33.7751 344.912 33.8224 344.679 33.8224ZM352.089 33.7318L353.459 29.3852H354.525L355.895 33.7318H355.146L353.903 29.8319H354.066L352.837 33.7318H352.089ZM352.852 32.79V32.1109H355.134V32.79H352.852ZM362.115 33.7318V29.3852H363.839C364.133 29.3852 364.373 29.4446 364.56 29.5633C364.75 29.68 364.889 29.8299 364.98 30.013C365.073 30.1962 365.119 30.3853 365.119 30.5805C365.119 30.82 365.061 31.0232 364.947 31.1903C364.834 31.3573 364.68 31.47 364.485 31.5283V31.3774C364.759 31.4398 364.966 31.5696 365.107 31.7668C365.25 31.964 365.321 32.1884 365.321 32.4399C365.321 32.6975 365.272 32.9229 365.173 33.116C365.075 33.3092 364.928 33.4601 364.732 33.5688C364.539 33.6775 364.3 33.7318 364.014 33.7318H362.115ZM362.852 33.0466H363.923C364.05 33.0466 364.164 33.0215 364.265 32.9712C364.365 32.9188 364.444 32.8464 364.5 32.7538C364.558 32.6592 364.588 32.5476 364.588 32.4188C364.588 32.3021 364.562 32.1974 364.512 32.1049C364.462 32.0123 364.388 31.9388 364.292 31.8845C364.195 31.8282 364.079 31.8 363.945 31.8H362.852V33.0466ZM362.852 31.1208H363.83C363.935 31.1208 364.028 31.1007 364.111 31.0605C364.193 31.0202 364.259 30.9608 364.307 30.8824C364.355 30.8039 364.379 30.7073 364.379 30.5926C364.379 30.4417 364.331 30.3159 364.234 30.2153C364.138 30.1147 364.003 30.0644 363.83 30.0644H362.852V31.1208ZM371.297 33.7318L372.667 29.3852H373.733L375.103 33.7318H374.355L373.111 29.8319H373.274L372.045 33.7318H371.297ZM372.06 32.79V32.1109H374.342V32.79H372.06ZM381.384 33.7318V29.3852H382.111V33.0496H384.031V33.7318H381.384ZM390.217 33.7318V29.3852H392.013C392.055 29.3852 392.11 29.3872 392.176 29.3912C392.243 29.3933 392.304 29.3993 392.36 29.4094C392.612 29.4476 392.819 29.5311 392.982 29.6599C393.147 29.7887 393.269 29.9517 393.347 30.1489C393.428 30.3441 393.468 30.5614 393.468 30.8009C393.468 31.0383 393.428 31.2557 393.347 31.4529C393.267 31.6481 393.144 31.81 392.979 31.9388C392.816 32.0676 392.61 32.1511 392.36 32.1894C392.304 32.1974 392.242 32.2035 392.173 32.2075C392.107 32.2115 392.053 32.2135 392.013 32.2135H390.945V33.7318H390.217ZM390.945 31.5344H391.983C392.023 31.5344 392.069 31.5323 392.119 31.5283C392.169 31.5243 392.215 31.5162 392.258 31.5042C392.378 31.474 392.473 31.4207 392.541 31.3442C392.612 31.2677 392.661 31.1812 392.689 31.0846C392.72 30.988 392.735 30.8934 392.735 30.8009C392.735 30.7083 392.72 30.6137 392.689 30.5171C392.661 30.4185 392.612 30.331 392.541 30.2545C392.473 30.1781 392.378 30.1247 392.258 30.0945C392.215 30.0825 392.169 30.0754 392.119 30.0734C392.069 30.0694 392.023 30.0674 391.983 30.0674H390.945V31.5344ZM401.498 33.8224C401.152 33.8224 400.847 33.7519 400.584 33.6111C400.322 33.4702 400.117 33.272 399.968 33.0164C399.821 32.7609 399.748 32.461 399.748 32.1169V29.3912L400.484 29.3852V32.0988C400.484 32.2618 400.511 32.4077 400.566 32.5365C400.622 32.6653 400.697 32.775 400.792 32.8655C400.887 32.9541 400.995 33.0215 401.118 33.0677C401.241 33.114 401.368 33.1372 401.498 33.1372C401.633 33.1372 401.761 33.114 401.882 33.0677C402.004 33.0195 402.113 32.951 402.208 32.8625C402.302 32.7719 402.377 32.6623 402.431 32.5335C402.485 32.4047 402.513 32.2598 402.513 32.0988V29.3852H403.249V32.1169C403.249 32.461 403.175 32.7609 403.026 33.0164C402.879 33.272 402.674 33.4702 402.41 33.6111C402.148 33.7519 401.844 33.8224 401.498 33.8224ZM409.767 33.7318V29.3852H411.563C411.606 29.3852 411.66 29.3872 411.726 29.3912C411.793 29.3933 411.854 29.3993 411.91 29.4094C412.162 29.4476 412.369 29.5311 412.532 29.6599C412.697 29.7887 412.819 29.9517 412.897 30.1489C412.978 30.3441 413.018 30.5614 413.018 30.8009C413.018 31.155 412.929 31.4599 412.75 31.7155C412.57 31.969 412.296 32.126 411.925 32.1864L411.615 32.2135H410.495V33.7318H409.767ZM412.264 33.7318L411.406 31.963L412.146 31.8L413.088 33.7318H412.264ZM410.495 31.5344H411.533C411.573 31.5344 411.619 31.5323 411.669 31.5283C411.719 31.5243 411.766 31.5162 411.808 31.5042C411.929 31.474 412.023 31.4207 412.092 31.3442C412.162 31.2677 412.211 31.1812 412.239 31.0846C412.27 30.988 412.285 30.8934 412.285 30.8009C412.285 30.7083 412.27 30.6137 412.239 30.5171C412.211 30.4185 412.162 30.331 412.092 30.2545C412.023 30.1781 411.929 30.1247 411.808 30.0945C411.766 30.0825 411.719 30.0754 411.669 30.0734C411.619 30.0694 411.573 30.0674 411.533 30.0674H410.495V31.5344Z" fill="white"/>
<path d="M343.186 4.11694V0.313661H344.758C344.795 0.313661 344.842 0.315422 344.9 0.318944C344.958 0.320705 345.012 0.325987 345.061 0.334791C345.281 0.368246 345.463 0.441318 345.605 0.554008C345.75 0.666697 345.856 0.809321 345.925 0.981877C345.995 1.15267 346.031 1.34284 346.031 1.55237C346.031 1.76014 345.995 1.95031 345.925 2.12286C345.855 2.29366 345.747 2.4354 345.603 2.54809C345.46 2.66078 345.28 2.73385 345.061 2.76731C345.012 2.77435 344.958 2.77963 344.898 2.78315C344.84 2.78668 344.793 2.78844 344.758 2.78844H343.823V4.11694H343.186ZM343.823 2.19417H344.731C344.766 2.19417 344.806 2.19241 344.85 2.18889C344.894 2.18537 344.935 2.17833 344.972 2.16776C345.077 2.14135 345.16 2.09469 345.22 2.02778C345.281 1.96087 345.325 1.88516 345.349 1.80064C345.376 1.71612 345.389 1.63336 345.389 1.55237C345.389 1.47137 345.376 1.38862 345.349 1.3041C345.325 1.21782 345.281 1.14123 345.22 1.07432C345.16 1.00741 345.077 0.960748 344.972 0.934336C344.935 0.923771 344.894 0.917609 344.85 0.915848C344.806 0.912326 344.766 0.910565 344.731 0.910565H343.823V2.19417ZM346.613 4.11694V0.313661H347.825C347.857 0.313661 347.919 0.314542 348.012 0.316303C348.108 0.318063 348.199 0.324226 348.287 0.334791C348.588 0.373528 348.843 0.480935 349.05 0.657013C349.26 0.83133 349.418 1.05407 349.526 1.32523C349.633 1.59639 349.687 1.89308 349.687 2.2153C349.687 2.53752 349.633 2.83422 349.526 3.10538C349.418 3.37654 349.26 3.60015 349.05 3.77623C348.843 3.95055 348.588 4.05708 348.287 4.09581C348.201 4.10638 348.11 4.11254 348.015 4.1143C347.92 4.11606 347.857 4.11694 347.825 4.11694H346.613ZM347.26 3.5174H347.825C347.878 3.5174 347.945 3.51564 348.026 3.51212C348.108 3.50859 348.182 3.50067 348.245 3.48835C348.425 3.45489 348.571 3.37478 348.683 3.248C348.796 3.12122 348.879 2.96715 348.932 2.78579C348.986 2.60443 349.013 2.41427 349.013 2.2153C349.013 2.00929 348.986 1.81561 348.932 1.63425C348.877 1.45289 348.793 1.30058 348.678 1.17732C348.565 1.05407 348.421 0.975714 348.245 0.94226C348.182 0.928173 348.108 0.92025 348.026 0.918489C347.945 0.914967 347.878 0.913207 347.825 0.913207H347.26V3.5174ZM350.364 4.11694V0.313661H351.936C351.973 0.313661 352.02 0.315422 352.078 0.318944C352.136 0.320705 352.19 0.325987 352.239 0.334791C352.459 0.368246 352.641 0.441318 352.783 0.554008C352.928 0.666697 353.034 0.809321 353.103 0.981877C353.173 1.15267 353.209 1.34284 353.209 1.55237C353.209 1.76014 353.173 1.95031 353.103 2.12286C353.033 2.29366 352.925 2.4354 352.781 2.54809C352.638 2.66078 352.458 2.73385 352.239 2.76731C352.19 2.77435 352.136 2.77963 352.076 2.78315C352.018 2.78668 351.971 2.78844 351.936 2.78844H351.001V4.11694H350.364ZM351.001 2.19417H351.909C351.944 2.19417 351.984 2.19241 352.028 2.18889C352.072 2.18537 352.113 2.17833 352.15 2.16776C352.255 2.14135 352.338 2.09469 352.398 2.02778C352.459 1.96087 352.503 1.88516 352.527 1.80064C352.554 1.71612 352.567 1.63336 352.567 1.55237C352.567 1.47137 352.554 1.38862 352.527 1.3041C352.503 1.21782 352.459 1.14123 352.398 1.07432C352.338 1.00741 352.255 0.960748 352.15 0.934336C352.113 0.923771 352.072 0.917609 352.028 0.915848C351.984 0.912326 351.944 0.910565 351.909 0.910565H351.001V2.19417ZM353.791 4.11694V0.313661H354.364L355.679 3.00765L356.994 0.313661H357.568V4.11694H356.973V1.67915L355.806 4.11694H355.552L354.388 1.67915V4.11694H353.791Z" fill="white"/>
</g>
<defs>
<clipPath id="clip0_998_2103">
<rect width="413" height="34" fill="white"/>
</clipPath>
</defs>
</svg>
