<svg width="325" height="114" viewBox="0 0 325 114" fill="none" xmlns="http://www.w3.org/2000/svg">
<mask id="path-1-inside-1_1474_3209" fill="white">
<path d="M303 0C314.046 9.98599e-07 323 8.95431 323 20V84.0586C322.55 84.009 322.075 84.1113 321.651 84.4043L284.039 110.446C283.465 110.843 283.197 111.421 283.177 112H20C8.95431 112 2.5772e-07 103.046 0 92V20C0 8.95431 8.95431 0 20 0H303Z"/>
</mask>
<path d="M303 0C314.046 9.98599e-07 323 8.95431 323 20V84.0586C322.55 84.009 322.075 84.1113 321.651 84.4043L284.039 110.446C283.465 110.843 283.197 111.421 283.177 112H20C8.95431 112 2.5772e-07 103.046 0 92V20C0 8.95431 8.95431 0 20 0H303Z" fill="#5100B8"/>
<path d="M303 0V-7V0ZM323 20H330H323ZM323 84.0586L322.234 91.0166L330 91.8713V84.0586H323ZM321.651 84.4043L317.667 78.6491L317.667 78.6491L321.651 84.4043ZM284.039 110.446L280.054 104.691L284.039 110.446ZM283.177 112V119H289.933L290.172 112.248L283.177 112ZM20 112V119V112ZM0 92H-7H0ZM303 0V7C310.18 7 316 12.8203 316 20H323H330C330 5.08831 317.912 -7 303 -7V0ZM323 20H316V84.0586H323H330V20H323ZM323 84.0586L323.766 77.1006C321.71 76.8744 319.535 77.3558 317.667 78.6491L321.651 84.4043L325.636 90.1595C324.614 90.8668 323.389 91.1437 322.234 91.0166L323 84.0586ZM321.651 84.4043L317.667 78.6491L280.054 104.691L284.039 110.446L288.024 116.201L325.636 90.1594L321.651 84.4043ZM284.039 110.446L280.054 104.691C277.557 106.42 276.275 109.099 276.181 111.752L283.177 112L290.172 112.248C290.119 113.743 289.374 115.267 288.024 116.201L284.039 110.446ZM283.177 112V105H20V112V119H283.177V112ZM20 112V105C12.8203 105 7 99.1797 7 92H0H-7C-7 106.912 5.08831 119 20 119V112ZM0 92H7V20H0H-7V92H0ZM0 20H7C7 12.8203 12.8203 7 20 7V0V-7C5.08831 -7 -7 5.08831 -7 20H0ZM20 0V7H303V0V-7H20V0Z" fill="white" mask="url(#path-1-inside-1_1474_3209)"/>
<path d="M321.361 82.2015C322.813 82.2461 323.352 84.1155 322.163 84.9354L282.806 112.076C281.829 112.75 280.493 112.075 280.455 110.889L279.889 93.1474C279.888 93.1233 279.885 93.0992 279.881 93.072C279.529 90.9994 279.874 87.9597 282.054 85.4867C284.245 83.0031 288.205 81.1824 294.897 81.3881L321.361 82.2015Z" fill="white" stroke="#C7C7C7"/>
</svg>
