<svg width="2634" height="555" viewBox="0 0 2634 555" fill="none" xmlns="http://www.w3.org/2000/svg">
<path d="M1381.5 469.923L1294 403.923V331.923H2592V446.923L2535 384.423L2409 438.923L2358.5 384.423L2288.5 423.923L2274.5 469.923L2125.5 414.923L2039 446.923V403.923L1948 384.423L1895.5 431.423L1777 371.423L1747.5 414.923L1740 464.423L1628.5 438.923L1597.5 384.423L1553 403.923L1520 438.923L1451.5 403.923L1381.5 469.923Z" fill="url(#paint0_linear_616_2)"/>
<mask id="mask0_616_2" style="mask-type:alpha" maskUnits="userSpaceOnUse" x="1286" y="288" width="1306" height="182">
<path d="M1381.5 469.923L1294 403.923L1286.5 288.423H2584.5L2592 446.923L2535 384.423L2409 438.923L2358.5 384.423L2288.5 423.923L2274.5 469.923L2125.5 414.923L2039 446.923V403.923L1948 384.423L1895.5 431.423L1777 371.423L1747.5 414.923L1740 464.423L1628.5 438.923L1597.5 384.423L1553 403.923L1520 438.923L1451.5 403.923L1381.5 469.923Z" fill="url(#paint1_linear_616_2)"/>
</mask>
<g mask="url(#mask0_616_2)">
<g style="mix-blend-mode:multiply">
<path d="M1288.95 -668.76L1558.43 -279.252L2679.5 34.4233L2605.55 470.923L1299.5 470.923L999.662 163.016L1288.95 -668.76Z" fill="url(#paint2_linear_616_2)"/>
</g>
</g>
<path opacity="0.72" d="M2592 331.923V446.923L2535 384.423L2409 438.923L2358.5 384.423L2288.5 423.923L2274.5 469.923L2125.5 414.923L2039 446.923V403.923L1948 384.423L1895.5 431.423L1777 371.423L1747.5 414.923L1740 464.423L1628.5 438.923L1597.5 384.423L1553 403.923L1520 438.923L1451.5 403.923L1381.5 469.923L1294 403.923V331.923" stroke="url(#paint3_radial_616_2)" stroke-width="3.42"/>
<g opacity="0.41">
<path d="M1467.31 264.247L1376.7 267.671L1376.7 347.406L1304.54 320.746C1328.6 363.141 1376.7 451.355 1376.7 465.052L1376.7 347.406L1454 404.423L1518.5 435.923L1553.78 404.423L1763 312.423L1782.46 276.476L1631 312.423L1470.83 189.893L1467.31 264.247Z" fill="url(#paint4_linear_616_2)" fill-opacity="0.11"/>
<path d="M1518.5 435.923L1454 404.423M1518.5 435.923L1553.78 404.423M1518.5 435.923L1497.5 369.923M1484.8 87.4116L1470.83 189.893M1467.31 264.247L1376.7 267.671M1467.31 264.247L1454 404.423M1467.31 264.247L1631 312.423M1467.31 264.247L1470.83 189.893M1376.7 267.671L1304.54 87.4117M1376.7 267.671L1376.7 347.406M1376.7 465.052L1211.6 332.242L1058 267.671M1376.7 465.052L1124.28 208.971M1376.7 465.052C1376.7 451.355 1328.6 363.141 1304.54 320.746L1376.7 347.406M1376.7 465.052L1376.7 347.406M1376.7 347.406L1454 404.423M1454 404.423L1497.5 369.923M1553.78 404.423L1497.5 369.923M1553.78 404.423L1763 312.423M1497.5 369.923L1631 312.423M1631 312.423L1470.83 189.893M1631 312.423L1596 163.423M1631 312.423L1782.46 276.476L1763 312.423M1627.5 435.923L1763 312.423M1763 312.423L1748 412.423M1763 312.423L1778.5 372.923" stroke="url(#paint5_radial_616_2)" stroke-width="3.4242"/>
</g>
<g opacity="0.41">
<path d="M2127.5 413.923L2275.5 470.923L2303.33 346.423L2360.5 384.923L2325.05 243.849L2235.5 309.423L2159.87 290.058L2060.76 243.849L2018.91 249.794L2060.76 285.747L2099 368.247L2127.5 413.923Z" fill="url(#paint6_linear_616_2)" fill-opacity="0.11"/>
<path d="M1996.93 292.572L2099 368.247M2275.5 470.923L2127.5 413.923L2099 368.247M2275.5 470.923L2159.87 290.058M2275.5 470.923L2060.76 285.747M2275.5 470.923L2303.33 346.423M2159.87 290.058L2060.76 243.849L2018.91 249.794L2060.76 285.747M2159.87 290.058L2060.76 285.747M2159.87 290.058L2235.5 309.423L2325.05 243.849M2099 368.247L2060.76 285.747M2325.05 243.849L2304 343.423L2303.33 346.423M2325.05 243.849L2360.5 384.923L2303.33 346.423" stroke="url(#paint7_radial_616_2)" stroke-width="3.4242"/>
</g>
<g opacity="0.41">
<path d="M1823 368.423L1898.25 425.923L1926.75 298.423L1947.8 384.923L2002 291.923L1926.75 298.423L1782.61 245.058L1800 309.923L1764 315.923L1823 368.423Z" fill="url(#paint8_linear_616_2)" fill-opacity="0.11"/>
<path d="M1898.25 425.923L1823 368.423L1764 315.923L1800 309.923M1898.25 425.923L1782.61 245.058M1898.25 425.923L1800 309.923M1898.25 425.923L1926.75 298.423M1782.61 245.058L1800 309.923M1782.61 245.058L1926.75 298.423M1926.75 298.423L2002 291.923L1947.8 384.923L1926.75 298.423ZM1926.75 298.423L1919.5 175.923" stroke="url(#paint9_radial_616_2)" stroke-width="3.4242"/>
</g>
<g opacity="0.41">
<path d="M2325.5 242.423L2417.26 357.291L2537.5 383.423L2582 317.609L2558 189.923L2500.87 161.923L2459.06 259.607L2336.5 161.923L2325.5 242.423Z" fill="url(#paint10_linear_616_2)" fill-opacity="0.48"/>
<path d="M2417.26 357.291L2325.5 242.423L2336.5 161.923M2417.26 357.291L2537.5 383.423M2417.26 357.291L2526.62 317.609M2417.26 357.291L2410.5 440.423L2363 386.423M2417.26 357.291L2459.06 259.607M2537.5 383.423L2500.87 161.923M2537.5 383.423L2582 317.609L2558 189.923M2500.87 161.923L2459.06 259.607M2500.87 161.923L2558 189.923M2558 189.923L2582 171.923M2558 189.923L2526.62 64.4232M2459.06 259.607L2336.5 161.923M2336.5 161.923L2305.5 40.4233" stroke="url(#paint11_radial_616_2)" stroke-width="3.4242"/>
</g>
<g clip-path="url(#clip0_616_2)">
<path d="M123.5 469.923L36 403.923V331.923H1334V446.923L1277 384.423L1151 438.923L1100.5 384.423L1030.5 423.923L1016.5 469.923L867.5 414.923L781 446.923V403.923L690 384.423L637.5 431.423L519 371.423L489.5 414.923L482 464.423L370.5 438.923L339.5 384.423L295 403.923L262 438.923L193.5 403.923L123.5 469.923Z" fill="url(#paint12_linear_616_2)"/>
<mask id="mask1_616_2" style="mask-type:alpha" maskUnits="userSpaceOnUse" x="28" y="288" width="1306" height="182">
<path d="M123.5 469.923L36 403.923L28.5 288.423H1326.5L1334 446.923L1277 384.423L1151 438.923L1100.5 384.423L1030.5 423.923L1016.5 469.923L867.5 414.923L781 446.923V403.923L690 384.423L637.5 431.423L519 371.423L489.5 414.923L482 464.423L370.5 438.923L339.5 384.423L295 403.923L262 438.923L193.5 403.923L123.5 469.923Z" fill="url(#paint13_linear_616_2)"/>
</mask>
<g mask="url(#mask1_616_2)">
<g style="mix-blend-mode:multiply">
<path d="M30.9461 -668.76L300.425 -279.252L1421.5 34.4233L1347.55 470.923L41.5 470.923L-258.338 163.016L30.9461 -668.76Z" fill="url(#paint14_linear_616_2)"/>
</g>
</g>
<path opacity="0.72" d="M1334 331.923V446.923L1277 384.423L1151 438.923L1100.5 384.423L1030.5 423.923L1016.5 469.923L867.5 414.923L781 446.923V403.923L690 384.423L637.5 431.423L519 371.423L489.5 414.923L482 464.423L370.5 438.923L339.5 384.423L295 403.923L262 438.923L193.5 403.923L123.5 469.923L36 403.923V331.923" stroke="url(#paint15_radial_616_2)" stroke-width="3.42"/>
<g opacity="0.41">
<path d="M209.307 264.247L118.697 267.671L118.697 347.406L46.5442 320.746C70.5951 363.141 118.697 451.355 118.697 465.052L118.697 347.406L196.003 404.423L260.503 435.923L295.779 404.423L505.004 312.423L524.465 276.476L373.003 312.423L212.829 189.893L209.307 264.247Z" fill="url(#paint16_linear_616_2)" fill-opacity="0.11"/>
<path d="M260.503 435.923L196.003 404.423M260.503 435.923L295.779 404.423M260.503 435.923L239.503 369.923M226.804 87.4116L212.829 189.893M209.307 264.247L118.697 267.671M209.307 264.247L196.003 404.423M209.307 264.247L373.003 312.423M209.307 264.247L212.829 189.893M118.697 267.671L46.5442 87.4117M118.697 267.671L118.697 347.406M118.697 465.052L-46.3984 332.242L-199.998 267.671M118.697 465.052L-133.716 208.971M118.697 465.052C118.697 451.355 70.5951 363.141 46.5442 320.746L118.697 347.406M118.697 465.052L118.697 347.406M118.697 347.406L196.003 404.423M196.003 404.423L239.503 369.923M295.779 404.423L239.503 369.923M295.779 404.423L505.004 312.423M239.503 369.923L373.003 312.423M373.003 312.423L212.829 189.893M373.003 312.423L338.004 163.423M373.003 312.423L524.465 276.476L505.004 312.423M369.504 435.923L505.004 312.423M505.004 312.423L490 412.423M505.004 312.423L520.5 372.923" stroke="url(#paint17_radial_616_2)" stroke-width="3.4242"/>
</g>
<g opacity="0.41">
<path d="M869.5 413.923L1017.5 470.923L1045.33 346.423L1102.5 384.923L1067.05 243.849L977.5 309.423L901.866 290.058L802.757 243.849L760.907 249.794L802.758 285.747L841.003 368.247L869.5 413.923Z" fill="url(#paint18_linear_616_2)" fill-opacity="0.11"/>
<path d="M738.934 292.572L841.003 368.247M1017.5 470.923L869.5 413.923L841.003 368.247M1017.5 470.923L901.866 290.058M1017.5 470.923L802.758 285.747M1017.5 470.923L1045.33 346.423M901.866 290.058L802.757 243.849L760.907 249.794L802.758 285.747M901.866 290.058L802.758 285.747M901.866 290.058L977.5 309.423L1067.05 243.849M841.003 368.247L802.758 285.747M1067.05 243.849L1046 343.423L1045.33 346.423M1067.05 243.849L1102.5 384.923L1045.33 346.423" stroke="url(#paint19_radial_616_2)" stroke-width="3.4242"/>
</g>
<g opacity="0.41">
<path d="M565.001 368.423L640.245 425.923L668.745 298.423L689.797 384.923L744.001 291.923L668.745 298.423L524.612 245.058L542.001 309.923L506.001 315.923L565.001 368.423Z" fill="url(#paint20_linear_616_2)" fill-opacity="0.11"/>
<path d="M640.245 425.923L565.001 368.423L506.001 315.923L542.001 309.923M640.245 425.923L524.612 245.058M640.245 425.923L542.001 309.923M640.245 425.923L668.745 298.423M524.612 245.058L542.001 309.923M524.612 245.058L668.745 298.423M668.745 298.423L744.001 291.923L689.797 384.923L668.745 298.423ZM668.745 298.423L661.5 175.923" stroke="url(#paint21_radial_616_2)" stroke-width="3.4242"/>
</g>
<g opacity="0.41">
<path d="M1067.5 242.423L1159.26 357.291L1279.5 383.423L1324 317.609L1300 189.923L1242.87 161.923L1201.06 259.607L1078.5 161.923L1067.5 242.423Z" fill="url(#paint22_linear_616_2)" fill-opacity="0.48"/>
<path d="M1159.26 357.291L1067.5 242.423L1078.5 161.923M1159.26 357.291L1279.5 383.423M1159.26 357.291L1268.62 317.609M1159.26 357.291L1152.5 440.423L1105 386.423M1159.26 357.291L1201.06 259.607M1279.5 383.423L1242.87 161.923M1279.5 383.423L1324 317.609L1300 189.923M1242.87 161.923L1201.06 259.607M1242.87 161.923L1300 189.923M1300 189.923L1324 171.923M1300 189.923L1268.62 64.4232M1201.06 259.607L1078.5 161.923M1078.5 161.923L1047.5 40.4233" stroke="url(#paint23_radial_616_2)" stroke-width="3.4242"/>
</g>
</g>
<rect x="1301" y="102.923" width="122.182" height="30" rx="3" fill="#444444"/>
<rect x="1301.5" y="103.423" width="121.182" height="29" rx="2.5" stroke="white" stroke-opacity="0.0980392"/>
<path d="M1312.34 114.923C1312.3 114.528 1312.11 114.22 1311.77 114.001C1311.44 113.783 1311.03 113.673 1310.55 113.673C1310.19 113.673 1309.88 113.731 1309.62 113.845C1309.35 113.96 1309.15 114.117 1309 114.318C1308.85 114.518 1308.78 114.746 1308.78 115.001C1308.78 115.215 1308.83 115.399 1308.93 115.552C1309.04 115.703 1309.17 115.83 1309.33 115.931C1309.49 116.03 1309.66 116.112 1309.84 116.177C1310.02 116.24 1310.18 116.291 1310.33 116.33L1311.14 116.548C1311.35 116.603 1311.58 116.679 1311.84 116.775C1312.09 116.871 1312.34 117.003 1312.57 117.169C1312.81 117.333 1313.01 117.544 1313.16 117.802C1313.31 118.06 1313.39 118.376 1313.39 118.751C1313.39 119.184 1313.28 119.574 1313.05 119.923C1312.83 120.272 1312.5 120.55 1312.07 120.755C1311.64 120.961 1311.11 121.064 1310.5 121.064C1309.93 121.064 1309.43 120.972 1309.01 120.787C1308.6 120.602 1308.27 120.344 1308.03 120.013C1307.79 119.682 1307.66 119.298 1307.63 118.861H1308.63C1308.65 119.163 1308.75 119.413 1308.93 119.611C1309.11 119.806 1309.34 119.952 1309.61 120.048C1309.89 120.142 1310.18 120.189 1310.5 120.189C1310.87 120.189 1311.2 120.129 1311.5 120.009C1311.79 119.887 1312.02 119.718 1312.2 119.501C1312.37 119.283 1312.45 119.028 1312.45 118.736C1312.45 118.47 1312.38 118.254 1312.23 118.087C1312.08 117.921 1311.89 117.785 1311.64 117.681C1311.4 117.577 1311.14 117.486 1310.86 117.408L1309.88 117.126C1309.25 116.947 1308.76 116.69 1308.39 116.357C1308.03 116.024 1307.84 115.587 1307.84 115.048C1307.84 114.6 1307.96 114.21 1308.21 113.876C1308.45 113.541 1308.78 113.28 1309.19 113.095C1309.61 112.908 1310.07 112.814 1310.58 112.814C1311.09 112.814 1311.55 112.906 1311.95 113.091C1312.35 113.274 1312.67 113.524 1312.91 113.841C1313.14 114.159 1313.27 114.52 1313.28 114.923H1312.34ZM1317.37 121.048C1316.8 121.048 1316.3 120.921 1315.88 120.666C1315.46 120.408 1315.14 120.048 1314.91 119.587C1314.69 119.124 1314.58 118.585 1314.58 117.97C1314.58 117.356 1314.69 116.814 1314.91 116.345C1315.14 115.874 1315.45 115.507 1315.86 115.244C1316.26 114.978 1316.74 114.845 1317.28 114.845C1317.59 114.845 1317.9 114.897 1318.21 115.001C1318.51 115.106 1318.79 115.275 1319.04 115.509C1319.29 115.741 1319.49 116.048 1319.64 116.431C1319.78 116.814 1319.86 117.285 1319.86 117.845V118.236H1315.23V117.439H1318.92C1318.92 117.1 1318.85 116.798 1318.72 116.533C1318.58 116.267 1318.39 116.057 1318.15 115.904C1317.9 115.75 1317.61 115.673 1317.28 115.673C1316.91 115.673 1316.6 115.764 1316.33 115.947C1316.06 116.126 1315.86 116.361 1315.71 116.65C1315.57 116.939 1315.5 117.249 1315.5 117.58V118.111C1315.5 118.564 1315.58 118.948 1315.73 119.263C1315.89 119.576 1316.11 119.814 1316.39 119.978C1316.67 120.139 1317 120.22 1317.37 120.22C1317.62 120.22 1317.83 120.186 1318.03 120.119C1318.23 120.048 1318.4 119.944 1318.54 119.806C1318.69 119.666 1318.8 119.491 1318.87 119.283L1319.76 119.533C1319.67 119.835 1319.51 120.1 1319.29 120.33C1319.07 120.556 1318.8 120.733 1318.47 120.861C1318.15 120.986 1317.78 121.048 1317.37 121.048ZM1323.7 121.048C1323.14 121.048 1322.65 120.916 1322.25 120.65C1321.84 120.384 1321.53 120.018 1321.31 119.552C1321.09 119.086 1320.98 118.554 1320.98 117.955C1320.98 117.345 1321.09 116.807 1321.32 116.341C1321.54 115.873 1321.86 115.507 1322.26 115.244C1322.67 114.978 1323.14 114.845 1323.68 114.845C1324.1 114.845 1324.48 114.923 1324.82 115.08C1325.16 115.236 1325.44 115.455 1325.66 115.736C1325.87 116.017 1326.01 116.345 1326.06 116.72H1325.14C1325.07 116.447 1324.91 116.205 1324.67 115.994C1324.43 115.78 1324.1 115.673 1323.7 115.673C1323.34 115.673 1323.02 115.767 1322.75 115.955C1322.48 116.139 1322.28 116.401 1322.12 116.74C1321.98 117.076 1321.9 117.47 1321.9 117.923C1321.9 118.387 1321.97 118.791 1322.12 119.134C1322.27 119.478 1322.48 119.745 1322.75 119.935C1323.02 120.125 1323.33 120.22 1323.7 120.22C1323.94 120.22 1324.16 120.179 1324.35 120.095C1324.55 120.012 1324.71 119.892 1324.85 119.736C1324.98 119.58 1325.08 119.392 1325.14 119.173H1326.06C1326.01 119.528 1325.88 119.847 1325.67 120.13C1325.47 120.412 1325.2 120.636 1324.86 120.802C1324.53 120.966 1324.14 121.048 1323.7 121.048ZM1330.01 114.923V115.705H1326.91V114.923H1330.01ZM1327.81 113.486H1328.73V119.205C1328.73 119.465 1328.77 119.66 1328.85 119.791C1328.92 119.918 1329.02 120.004 1329.14 120.048C1329.27 120.09 1329.39 120.111 1329.53 120.111C1329.63 120.111 1329.72 120.106 1329.78 120.095C1329.85 120.082 1329.9 120.072 1329.94 120.064L1330.12 120.892C1330.06 120.916 1329.97 120.939 1329.86 120.962C1329.75 120.988 1329.61 121.001 1329.44 121.001C1329.18 121.001 1328.92 120.945 1328.67 120.833C1328.42 120.722 1328.22 120.551 1328.05 120.322C1327.89 120.093 1327.81 119.804 1327.81 119.455V113.486ZM1331.4 120.923V114.923H1332.32V120.923H1331.4ZM1331.87 113.923C1331.69 113.923 1331.54 113.862 1331.41 113.74C1331.28 113.617 1331.21 113.47 1331.21 113.298C1331.21 113.126 1331.28 112.979 1331.41 112.857C1331.54 112.735 1331.69 112.673 1331.87 112.673C1332.05 112.673 1332.2 112.735 1332.33 112.857C1332.46 112.979 1332.53 113.126 1332.53 113.298C1332.53 113.47 1332.46 113.617 1332.33 113.74C1332.2 113.862 1332.05 113.923 1331.87 113.923ZM1336.45 121.048C1335.91 121.048 1335.43 120.919 1335.02 120.662C1334.62 120.404 1334.3 120.043 1334.07 119.58C1333.84 119.116 1333.73 118.574 1333.73 117.955C1333.73 117.33 1333.84 116.784 1334.07 116.318C1334.3 115.852 1334.62 115.49 1335.02 115.232C1335.43 114.974 1335.91 114.845 1336.45 114.845C1336.99 114.845 1337.46 114.974 1337.87 115.232C1338.28 115.49 1338.6 115.852 1338.82 116.318C1339.05 116.784 1339.17 117.33 1339.17 117.955C1339.17 118.574 1339.05 119.116 1338.82 119.58C1338.6 120.043 1338.28 120.404 1337.87 120.662C1337.46 120.919 1336.99 121.048 1336.45 121.048ZM1336.45 120.22C1336.86 120.22 1337.2 120.115 1337.46 119.904C1337.73 119.693 1337.93 119.416 1338.05 119.072C1338.18 118.728 1338.25 118.356 1338.25 117.955C1338.25 117.554 1338.18 117.18 1338.05 116.833C1337.93 116.487 1337.73 116.207 1337.46 115.994C1337.2 115.78 1336.86 115.673 1336.45 115.673C1336.04 115.673 1335.7 115.78 1335.43 115.994C1335.17 116.207 1334.97 116.487 1334.84 116.833C1334.72 117.18 1334.65 117.554 1334.65 117.955C1334.65 118.356 1334.72 118.728 1334.84 119.072C1334.97 119.416 1335.17 119.693 1335.43 119.904C1335.7 120.115 1336.04 120.22 1336.45 120.22ZM1341.5 117.314V120.923H1340.58V114.923H1341.47V115.861H1341.54C1341.68 115.556 1341.9 115.311 1342.18 115.126C1342.47 114.939 1342.84 114.845 1343.29 114.845C1343.7 114.845 1344.06 114.929 1344.36 115.095C1344.67 115.259 1344.9 115.509 1345.07 115.845C1345.24 116.179 1345.33 116.6 1345.33 117.111V120.923H1344.4V117.173C1344.4 116.702 1344.28 116.335 1344.04 116.072C1343.79 115.806 1343.46 115.673 1343.03 115.673C1342.73 115.673 1342.47 115.737 1342.24 115.865C1342.01 115.992 1341.83 116.179 1341.7 116.423C1341.56 116.668 1341.5 116.965 1341.5 117.314ZM1352.9 112.923V120.923H1351.93V113.939H1351.88L1349.93 115.236V114.251L1351.93 112.923H1352.9ZM1357.81 121.033C1357.22 121.033 1356.72 120.873 1356.31 120.552C1355.89 120.229 1355.58 119.762 1355.36 119.15C1355.14 118.535 1355.03 117.793 1355.03 116.923C1355.03 116.059 1355.14 115.32 1355.36 114.708C1355.58 114.094 1355.9 113.625 1356.31 113.302C1356.73 112.977 1357.23 112.814 1357.81 112.814C1358.39 112.814 1358.89 112.977 1359.31 113.302C1359.72 113.625 1360.04 114.094 1360.26 114.708C1360.48 115.32 1360.59 116.059 1360.59 116.923C1360.59 117.793 1360.48 118.535 1360.26 119.15C1360.04 119.762 1359.73 120.229 1359.31 120.552C1358.9 120.873 1358.4 121.033 1357.81 121.033ZM1357.81 120.173C1358.39 120.173 1358.85 119.892 1359.17 119.33C1359.49 118.767 1359.65 117.965 1359.65 116.923C1359.65 116.231 1359.58 115.641 1359.43 115.154C1359.29 114.667 1359.07 114.296 1358.8 114.041C1358.53 113.785 1358.2 113.658 1357.81 113.658C1357.23 113.658 1356.78 113.943 1356.46 114.513C1356.13 115.081 1355.97 115.884 1355.97 116.923C1355.97 117.616 1356.04 118.205 1356.19 118.689C1356.33 119.173 1356.54 119.542 1356.81 119.794C1357.09 120.047 1357.42 120.173 1357.81 120.173ZM1364.69 121.033C1364.1 121.033 1363.6 120.873 1363.18 120.552C1362.77 120.229 1362.45 119.762 1362.23 119.15C1362.01 118.535 1361.9 117.793 1361.9 116.923C1361.9 116.059 1362.01 115.32 1362.23 114.708C1362.45 114.094 1362.77 113.625 1363.19 113.302C1363.6 112.977 1364.1 112.814 1364.69 112.814C1365.27 112.814 1365.77 112.977 1366.18 113.302C1366.6 113.625 1366.92 114.094 1367.13 114.708C1367.36 115.32 1367.47 116.059 1367.47 116.923C1367.47 117.793 1367.36 118.535 1367.14 119.15C1366.92 119.762 1366.6 120.229 1366.19 120.552C1365.78 120.873 1365.27 121.033 1364.69 121.033ZM1364.69 120.173C1365.27 120.173 1365.72 119.892 1366.04 119.33C1366.37 118.767 1366.53 117.965 1366.53 116.923C1366.53 116.231 1366.46 115.641 1366.31 115.154C1366.16 114.667 1365.95 114.296 1365.67 114.041C1365.4 113.785 1365.07 113.658 1364.69 113.658C1364.11 113.658 1363.66 113.943 1363.33 114.513C1363 115.081 1362.84 115.884 1362.84 116.923C1362.84 117.616 1362.91 118.205 1363.06 118.689C1363.21 119.173 1363.42 119.542 1363.69 119.794C1363.97 120.047 1364.3 120.173 1364.69 120.173ZM1371.56 121.033C1370.97 121.033 1370.47 120.873 1370.06 120.552C1369.64 120.229 1369.33 119.762 1369.11 119.15C1368.89 118.535 1368.78 117.793 1368.78 116.923C1368.78 116.059 1368.89 115.32 1369.11 114.708C1369.33 114.094 1369.65 113.625 1370.06 113.302C1370.48 112.977 1370.98 112.814 1371.56 112.814C1372.14 112.814 1372.64 112.977 1373.06 113.302C1373.47 113.625 1373.79 114.094 1374.01 114.708C1374.23 115.32 1374.34 116.059 1374.34 116.923C1374.34 117.793 1374.23 118.535 1374.01 119.15C1373.79 119.762 1373.48 120.229 1373.06 120.552C1372.65 120.873 1372.15 121.033 1371.56 121.033ZM1371.56 120.173C1372.14 120.173 1372.6 119.892 1372.92 119.33C1373.24 118.767 1373.4 117.965 1373.4 116.923C1373.4 116.231 1373.33 115.641 1373.18 115.154C1373.04 114.667 1372.82 114.296 1372.55 114.041C1372.28 113.785 1371.95 113.658 1371.56 113.658C1370.98 113.658 1370.53 113.943 1370.21 114.513C1369.88 115.081 1369.72 115.884 1369.72 116.923C1369.72 117.616 1369.79 118.205 1369.94 118.689C1370.08 119.173 1370.29 119.542 1370.56 119.794C1370.84 120.047 1371.17 120.173 1371.56 120.173ZM1378.44 121.033C1377.85 121.033 1377.35 120.873 1376.93 120.552C1376.52 120.229 1376.2 119.762 1375.98 119.15C1375.76 118.535 1375.65 117.793 1375.65 116.923C1375.65 116.059 1375.76 115.32 1375.98 114.708C1376.2 114.094 1376.52 113.625 1376.94 113.302C1377.35 112.977 1377.85 112.814 1378.44 112.814C1379.02 112.814 1379.52 112.977 1379.93 113.302C1380.35 113.625 1380.67 114.094 1380.88 114.708C1381.11 115.32 1381.22 116.059 1381.22 116.923C1381.22 117.793 1381.11 118.535 1380.89 119.15C1380.67 119.762 1380.35 120.229 1379.94 120.552C1379.53 120.873 1379.02 121.033 1378.44 121.033ZM1378.44 120.173C1379.02 120.173 1379.47 119.892 1379.79 119.33C1380.12 118.767 1380.28 117.965 1380.28 116.923C1380.28 116.231 1380.21 115.641 1380.06 115.154C1379.91 114.667 1379.7 114.296 1379.42 114.041C1379.15 113.785 1378.82 113.658 1378.44 113.658C1377.86 113.658 1377.41 113.943 1377.08 114.513C1376.75 115.081 1376.59 115.884 1376.59 116.923C1376.59 117.616 1376.66 118.205 1376.81 118.689C1376.96 119.173 1377.17 119.542 1377.44 119.794C1377.72 120.047 1378.05 120.173 1378.44 120.173ZM1385.31 121.033C1384.72 121.033 1384.22 120.873 1383.81 120.552C1383.39 120.229 1383.08 119.762 1382.86 119.15C1382.64 118.535 1382.53 117.793 1382.53 116.923C1382.53 116.059 1382.64 115.32 1382.86 114.708C1383.08 114.094 1383.4 113.625 1383.81 113.302C1384.23 112.977 1384.73 112.814 1385.31 112.814C1385.89 112.814 1386.39 112.977 1386.81 113.302C1387.22 113.625 1387.54 114.094 1387.76 114.708C1387.98 115.32 1388.09 116.059 1388.09 116.923C1388.09 117.793 1387.98 118.535 1387.76 119.15C1387.54 119.762 1387.23 120.229 1386.81 120.552C1386.4 120.873 1385.9 121.033 1385.31 121.033ZM1385.31 120.173C1385.89 120.173 1386.35 119.892 1386.67 119.33C1386.99 118.767 1387.15 117.965 1387.15 116.923C1387.15 116.231 1387.08 115.641 1386.93 115.154C1386.79 114.667 1386.57 114.296 1386.3 114.041C1386.03 113.785 1385.7 113.658 1385.31 113.658C1384.73 113.658 1384.28 113.943 1383.96 114.513C1383.63 115.081 1383.47 115.884 1383.47 116.923C1383.47 117.616 1383.54 118.205 1383.69 118.689C1383.83 119.173 1384.04 119.542 1384.31 119.794C1384.59 120.047 1384.92 120.173 1385.31 120.173ZM1389.39 119.283V118.486L1392.9 112.923H1393.48V114.158H1393.09L1390.44 118.361V118.423H1395.17V119.283H1389.39ZM1393.15 120.923V119.041V118.669V112.923H1394.08V120.923H1393.15ZM1399.34 121.033C1398.82 121.033 1398.36 120.944 1397.96 120.767C1397.56 120.59 1397.24 120.344 1397 120.029C1396.77 119.711 1396.64 119.343 1396.62 118.923H1397.6C1397.62 119.181 1397.71 119.404 1397.87 119.591C1398.02 119.776 1398.23 119.919 1398.48 120.021C1398.73 120.123 1399.01 120.173 1399.32 120.173C1399.67 120.173 1399.97 120.113 1400.24 119.994C1400.5 119.874 1400.71 119.707 1400.86 119.494C1401.01 119.28 1401.09 119.033 1401.09 118.751C1401.09 118.457 1401.01 118.198 1400.87 117.974C1400.72 117.748 1400.51 117.57 1400.23 117.443C1399.95 117.315 1399.6 117.251 1399.2 117.251H1398.56V116.392H1399.2C1399.51 116.392 1399.79 116.335 1400.03 116.22C1400.27 116.106 1400.46 115.944 1400.6 115.736C1400.74 115.528 1400.81 115.283 1400.81 115.001C1400.81 114.731 1400.75 114.495 1400.63 114.294C1400.51 114.094 1400.34 113.938 1400.12 113.826C1399.9 113.714 1399.65 113.658 1399.35 113.658C1399.08 113.658 1398.82 113.708 1398.57 113.81C1398.33 113.909 1398.13 114.054 1397.98 114.244C1397.82 114.431 1397.74 114.658 1397.73 114.923H1396.79C1396.81 114.504 1396.93 114.137 1397.17 113.822C1397.41 113.504 1397.72 113.257 1398.1 113.08C1398.48 112.903 1398.91 112.814 1399.37 112.814C1399.86 112.814 1400.29 112.914 1400.64 113.115C1401 113.313 1401.27 113.574 1401.46 113.9C1401.65 114.225 1401.74 114.577 1401.74 114.955C1401.74 115.405 1401.62 115.789 1401.39 116.107C1401.15 116.425 1400.83 116.645 1400.43 116.767V116.83C1400.94 116.913 1401.33 117.128 1401.61 117.474C1401.9 117.818 1402.04 118.244 1402.04 118.751C1402.04 119.186 1401.92 119.577 1401.68 119.923C1401.45 120.267 1401.13 120.538 1400.72 120.736C1400.32 120.934 1399.86 121.033 1399.34 121.033ZM1406.34 121.033C1405.83 121.033 1405.37 120.944 1404.96 120.767C1404.56 120.59 1404.24 120.344 1404 120.029C1403.77 119.711 1403.64 119.343 1403.62 118.923H1404.61C1404.63 119.181 1404.72 119.404 1404.87 119.591C1405.03 119.776 1405.23 119.919 1405.49 120.021C1405.74 120.123 1406.02 120.173 1406.33 120.173C1406.67 120.173 1406.97 120.113 1407.24 119.994C1407.5 119.874 1407.71 119.707 1407.86 119.494C1408.02 119.28 1408.09 119.033 1408.09 118.751C1408.09 118.457 1408.02 118.198 1407.87 117.974C1407.73 117.748 1407.51 117.57 1407.23 117.443C1406.95 117.315 1406.61 117.251 1406.2 117.251H1405.56V116.392H1406.2C1406.52 116.392 1406.8 116.335 1407.04 116.22C1407.28 116.106 1407.47 115.944 1407.6 115.736C1407.74 115.528 1407.81 115.283 1407.81 115.001C1407.81 114.731 1407.75 114.495 1407.63 114.294C1407.51 114.094 1407.34 113.938 1407.12 113.826C1406.91 113.714 1406.65 113.658 1406.36 113.658C1406.08 113.658 1405.82 113.708 1405.58 113.81C1405.33 113.909 1405.14 114.054 1404.98 114.244C1404.83 114.431 1404.74 114.658 1404.73 114.923H1403.79C1403.81 114.504 1403.94 114.137 1404.17 113.822C1404.41 113.504 1404.72 113.257 1405.1 113.08C1405.49 112.903 1405.91 112.814 1406.37 112.814C1406.87 112.814 1407.29 112.914 1407.65 113.115C1408 113.313 1408.27 113.574 1408.46 113.9C1408.65 114.225 1408.75 114.577 1408.75 114.955C1408.75 115.405 1408.63 115.789 1408.39 116.107C1408.16 116.425 1407.84 116.645 1407.43 116.767V116.83C1407.94 116.913 1408.33 117.128 1408.62 117.474C1408.9 117.818 1409.04 118.244 1409.04 118.751C1409.04 119.186 1408.93 119.577 1408.69 119.923C1408.45 120.267 1408.13 120.538 1407.73 120.736C1407.32 120.934 1406.86 121.033 1406.34 121.033ZM1413.34 121.033C1412.83 121.033 1412.37 120.944 1411.97 120.767C1411.56 120.59 1411.25 120.344 1411.01 120.029C1410.77 119.711 1410.65 119.343 1410.63 118.923H1411.61C1411.63 119.181 1411.72 119.404 1411.88 119.591C1412.03 119.776 1412.24 119.919 1412.49 120.021C1412.74 120.123 1413.02 120.173 1413.33 120.173C1413.67 120.173 1413.98 120.113 1414.24 119.994C1414.51 119.874 1414.72 119.707 1414.87 119.494C1415.02 119.28 1415.09 119.033 1415.09 118.751C1415.09 118.457 1415.02 118.198 1414.88 117.974C1414.73 117.748 1414.52 117.57 1414.24 117.443C1413.95 117.315 1413.61 117.251 1413.2 117.251H1412.56V116.392H1413.2C1413.52 116.392 1413.8 116.335 1414.04 116.22C1414.28 116.106 1414.47 115.944 1414.61 115.736C1414.74 115.528 1414.81 115.283 1414.81 115.001C1414.81 114.731 1414.75 114.495 1414.63 114.294C1414.51 114.094 1414.34 113.938 1414.13 113.826C1413.91 113.714 1413.65 113.658 1413.36 113.658C1413.08 113.658 1412.82 113.708 1412.58 113.81C1412.34 113.909 1412.14 114.054 1411.99 114.244C1411.83 114.431 1411.75 114.658 1411.74 114.923H1410.8C1410.81 114.504 1410.94 114.137 1411.18 113.822C1411.41 113.504 1411.72 113.257 1412.11 113.08C1412.49 112.903 1412.92 112.814 1413.38 112.814C1413.87 112.814 1414.3 112.914 1414.65 113.115C1415 113.313 1415.28 113.574 1415.47 113.9C1415.66 114.225 1415.75 114.577 1415.75 114.955C1415.75 115.405 1415.63 115.789 1415.4 116.107C1415.16 116.425 1414.84 116.645 1414.44 116.767V116.83C1414.94 116.913 1415.34 117.128 1415.62 117.474C1415.91 117.818 1416.05 118.244 1416.05 118.751C1416.05 119.186 1415.93 119.577 1415.69 119.923C1415.46 120.267 1415.14 120.538 1414.73 120.736C1414.33 120.934 1413.86 121.033 1413.34 121.033Z" fill="white"/>
<defs>
<linearGradient id="paint0_linear_616_2" x1="1294" y1="400.923" x2="2592" y2="400.923" gradientUnits="userSpaceOnUse">
<stop stop-color="#35005C"/>
<stop offset="1" stop-color="#490080"/>
</linearGradient>
<linearGradient id="paint1_linear_616_2" x1="1294" y1="400.923" x2="2592" y2="400.923" gradientUnits="userSpaceOnUse">
<stop stop-color="#35005C"/>
<stop offset="1" stop-color="#490080"/>
</linearGradient>
<linearGradient id="paint2_linear_616_2" x1="1971" y1="275.423" x2="2087.5" y2="-40.5767" gradientUnits="userSpaceOnUse">
<stop stop-color="#090017"/>
<stop offset="1" stop-color="#21023C" stop-opacity="0.5"/>
</linearGradient>
<radialGradient id="paint3_radial_616_2" cx="0" cy="0" r="1" gradientUnits="userSpaceOnUse" gradientTransform="translate(1743.5 469.923) scale(817 410.014)">
<stop stop-color="#825096"/>
<stop offset="1" stop-color="#969696" stop-opacity="0"/>
</radialGradient>
<linearGradient id="paint4_linear_616_2" x1="1630.08" y1="138.53" x2="1508.77" y2="427.63" gradientUnits="userSpaceOnUse">
<stop stop-color="#787878"/>
<stop offset="1" stop-color="#FF00FF"/>
</linearGradient>
<radialGradient id="paint5_radial_616_2" cx="0" cy="0" r="1" gradientUnits="userSpaceOnUse" gradientTransform="translate(1498 512.423) rotate(-82.7597) scale(430.893 458.873)">
<stop stop-color="white"/>
<stop offset="1" stop-color="#999999" stop-opacity="0"/>
</radialGradient>
<linearGradient id="paint6_linear_616_2" x1="1898.65" y1="680.984" x2="2168.28" y2="521.002" gradientUnits="userSpaceOnUse">
<stop stop-color="#787878"/>
<stop offset="1" stop-color="#FF00FF"/>
</linearGradient>
<radialGradient id="paint7_radial_616_2" cx="0" cy="0" r="1" gradientUnits="userSpaceOnUse" gradientTransform="translate(2282.18 497.969) rotate(142.344) scale(445.826 474.776)">
<stop stop-color="white"/>
<stop offset="1" stop-color="#999999" stop-opacity="0"/>
</radialGradient>
<linearGradient id="paint8_linear_616_2" x1="1521.4" y1="635.983" x2="1791.03" y2="476.001" gradientUnits="userSpaceOnUse">
<stop stop-color="#787878"/>
<stop offset="1" stop-color="#FF00FF"/>
</linearGradient>
<radialGradient id="paint9_radial_616_2" cx="0" cy="0" r="1" gradientUnits="userSpaceOnUse" gradientTransform="translate(1869 448.423) rotate(-113.692) scale(236.426 251.778)">
<stop stop-color="white"/>
<stop offset="1" stop-color="#999999" stop-opacity="0"/>
</radialGradient>
<linearGradient id="paint10_linear_616_2" x1="2464.91" y1="53.9821" x2="2510" y2="431.423" gradientUnits="userSpaceOnUse">
<stop stop-color="#737373" stop-opacity="0"/>
<stop offset="1" stop-color="#670450"/>
</linearGradient>
<radialGradient id="paint11_radial_616_2" cx="0" cy="0" r="1" gradientUnits="userSpaceOnUse" gradientTransform="translate(2204.52 484.274) rotate(115.393) scale(445.826 474.776)">
<stop stop-color="white"/>
<stop offset="1" stop-color="#999999" stop-opacity="0"/>
</radialGradient>
<linearGradient id="paint12_linear_616_2" x1="36" y1="400.923" x2="1334" y2="400.923" gradientUnits="userSpaceOnUse">
<stop stop-color="#35005C"/>
<stop offset="1" stop-color="#490080"/>
</linearGradient>
<linearGradient id="paint13_linear_616_2" x1="36" y1="400.923" x2="1334" y2="400.923" gradientUnits="userSpaceOnUse">
<stop stop-color="#35005C"/>
<stop offset="1" stop-color="#490080"/>
</linearGradient>
<linearGradient id="paint14_linear_616_2" x1="713" y1="275.423" x2="829.5" y2="-40.5767" gradientUnits="userSpaceOnUse">
<stop stop-color="#090017"/>
<stop offset="1" stop-color="#21023C" stop-opacity="0.5"/>
</linearGradient>
<radialGradient id="paint15_radial_616_2" cx="0" cy="0" r="1" gradientUnits="userSpaceOnUse" gradientTransform="translate(485.5 469.923) scale(817 410.014)">
<stop stop-color="#825096"/>
<stop offset="1" stop-color="#969696" stop-opacity="0"/>
</radialGradient>
<linearGradient id="paint16_linear_616_2" x1="372.084" y1="138.53" x2="250.77" y2="427.63" gradientUnits="userSpaceOnUse">
<stop stop-color="#787878"/>
<stop offset="1" stop-color="#FF00FF"/>
</linearGradient>
<radialGradient id="paint17_radial_616_2" cx="0" cy="0" r="1" gradientUnits="userSpaceOnUse" gradientTransform="translate(240 512.423) rotate(-82.7597) scale(430.893 458.873)">
<stop stop-color="white"/>
<stop offset="1" stop-color="#999999" stop-opacity="0"/>
</radialGradient>
<linearGradient id="paint18_linear_616_2" x1="640.65" y1="680.984" x2="910.283" y2="521.002" gradientUnits="userSpaceOnUse">
<stop stop-color="#787878"/>
<stop offset="1" stop-color="#FF00FF"/>
</linearGradient>
<radialGradient id="paint19_radial_616_2" cx="0" cy="0" r="1" gradientUnits="userSpaceOnUse" gradientTransform="translate(1024.18 497.969) rotate(142.344) scale(445.826 474.776)">
<stop stop-color="white"/>
<stop offset="1" stop-color="#999999" stop-opacity="0"/>
</radialGradient>
<linearGradient id="paint20_linear_616_2" x1="263.396" y1="635.983" x2="533.029" y2="476.001" gradientUnits="userSpaceOnUse">
<stop stop-color="#787878"/>
<stop offset="1" stop-color="#FF00FF"/>
</linearGradient>
<radialGradient id="paint21_radial_616_2" cx="0" cy="0" r="1" gradientUnits="userSpaceOnUse" gradientTransform="translate(611 448.423) rotate(-113.692) scale(236.426 251.778)">
<stop stop-color="white"/>
<stop offset="1" stop-color="#999999" stop-opacity="0"/>
</radialGradient>
<linearGradient id="paint22_linear_616_2" x1="1206.91" y1="53.9821" x2="1252" y2="431.423" gradientUnits="userSpaceOnUse">
<stop stop-color="#737373" stop-opacity="0"/>
<stop offset="1" stop-color="#670450"/>
</linearGradient>
<radialGradient id="paint23_radial_616_2" cx="0" cy="0" r="1" gradientUnits="userSpaceOnUse" gradientTransform="translate(946.517 484.274) rotate(115.393) scale(445.826 474.776)">
<stop stop-color="white"/>
<stop offset="1" stop-color="#999999" stop-opacity="0"/>
</radialGradient>
<clipPath id="clip0_616_2">
<rect width="1278" height="415" fill="white" transform="translate(40 99.9233)"/>
</clipPath>
</defs>
</svg>
