<svg width="355" height="96" viewBox="0 0 355 96" fill="none" xmlns="http://www.w3.org/2000/svg">
<g filter="url(#filter0_d_30_1130)">
<path d="M0 18.9131C0 8.46771 8.4677 0 18.9131 0H331.087C341.532 0 350 8.4677 350 18.9131V65.0412C350 70.8233 347.355 76.2877 342.82 79.8748L333.644 87.1334C330.303 89.7755 326.169 91.2129 321.91 91.2129H18.9131C8.4677 91.2129 0 82.7452 0 72.2998V18.9131Z" fill="#8A00DA"/>
<path d="M18.9131 3.86816H331.087C339.396 3.8682 346.132 10.6043 346.132 18.9131V65.041C346.132 69.6404 344.027 73.9875 340.42 76.8408L331.244 84.0996C328.587 86.2013 325.298 87.3447 321.91 87.3447H18.9131C10.6043 87.3447 3.86819 80.6086 3.86816 72.2998V18.9131C3.8682 10.6043 10.6043 3.86819 18.9131 3.86816Z" stroke="white" stroke-width="7.73719"/>
</g>
<path d="M33.4652 28.0403V30.3003H29.7452V42.0003H26.9452V30.3003H23.2252V28.0403H33.4652ZM34.7882 36.4203C34.7882 35.3003 35.0082 34.307 35.4482 33.4403C35.9015 32.5737 36.5082 31.907 37.2682 31.4403C38.0415 30.9737 38.9015 30.7403 39.8482 30.7403C40.6748 30.7403 41.3948 30.907 42.0082 31.2403C42.6348 31.5737 43.1348 31.9937 43.5082 32.5003V30.9203H46.3282V42.0003H43.5082V40.3803C43.1482 40.9003 42.6482 41.3337 42.0082 41.6803C41.3815 42.0137 40.6548 42.1803 39.8282 42.1803C38.8948 42.1803 38.0415 41.9403 37.2682 41.4603C36.5082 40.9803 35.9015 40.307 35.4482 39.4403C35.0082 38.5603 34.7882 37.5537 34.7882 36.4203ZM43.5082 36.4603C43.5082 35.7803 43.3748 35.2003 43.1082 34.7203C42.8415 34.227 42.4815 33.8537 42.0282 33.6003C41.5748 33.3337 41.0882 33.2003 40.5682 33.2003C40.0482 33.2003 39.5682 33.327 39.1282 33.5803C38.6882 33.8337 38.3282 34.207 38.0482 34.7003C37.7815 35.1803 37.6482 35.7537 37.6482 36.4203C37.6482 37.087 37.7815 37.6737 38.0482 38.1803C38.3282 38.6737 38.6882 39.0537 39.1282 39.3203C39.5815 39.587 40.0615 39.7203 40.5682 39.7203C41.0882 39.7203 41.5748 39.5937 42.0282 39.3403C42.4815 39.0737 42.8415 38.7003 43.1082 38.2203C43.3748 37.727 43.5082 37.1403 43.5082 36.4603ZM55.6229 42.0003L51.8629 37.2803V42.0003H49.0629V27.2003H51.8629V35.6203L55.5829 30.9203H59.2229L54.3429 36.4803L59.2629 42.0003H55.6229ZM71.0425 36.2203C71.0425 36.6203 71.0159 36.9803 70.9625 37.3003H62.8625C62.9292 38.1003 63.2092 38.727 63.7025 39.1803C64.1959 39.6337 64.8025 39.8603 65.5225 39.8603C66.5625 39.8603 67.3025 39.4137 67.7425 38.5203H70.7625C70.4425 39.587 69.8292 40.467 68.9225 41.1603C68.0159 41.8403 66.9025 42.1803 65.5825 42.1803C64.5159 42.1803 63.5559 41.947 62.7025 41.4803C61.8625 41.0003 61.2025 40.327 60.7225 39.4603C60.2559 38.5937 60.0225 37.5937 60.0225 36.4603C60.0225 35.3137 60.2559 34.307 60.7225 33.4403C61.1892 32.5737 61.8425 31.907 62.6825 31.4403C63.5225 30.9737 64.4892 30.7403 65.5825 30.7403C66.6359 30.7403 67.5759 30.967 68.4025 31.4203C69.2425 31.8737 69.8892 32.5203 70.3425 33.3603C70.8092 34.187 71.0425 35.1403 71.0425 36.2203ZM68.1425 35.4203C68.1292 34.7003 67.8692 34.127 67.3625 33.7003C66.8559 33.2603 66.2359 33.0403 65.5025 33.0403C64.8092 33.0403 64.2225 33.2537 63.7425 33.6803C63.2759 34.0937 62.9892 34.6737 62.8825 35.4203H68.1425ZM77.1319 36.4203C77.1319 35.3003 77.3519 34.307 77.7919 33.4403C78.2453 32.5737 78.8519 31.907 79.6119 31.4403C80.3853 30.9737 81.2453 30.7403 82.1919 30.7403C83.0186 30.7403 83.7386 30.907 84.3519 31.2403C84.9786 31.5737 85.4786 31.9937 85.8519 32.5003V30.9203H88.6719V42.0003H85.8519V40.3803C85.4919 40.9003 84.9919 41.3337 84.3519 41.6803C83.7253 42.0137 82.9986 42.1803 82.1719 42.1803C81.2386 42.1803 80.3853 41.9403 79.6119 41.4603C78.8519 40.9803 78.2453 40.307 77.7919 39.4403C77.3519 38.5603 77.1319 37.5537 77.1319 36.4203ZM85.8519 36.4603C85.8519 35.7803 85.7186 35.2003 85.4519 34.7203C85.1853 34.227 84.8253 33.8537 84.3719 33.6003C83.9186 33.3337 83.4319 33.2003 82.9119 33.2003C82.3919 33.2003 81.9119 33.327 81.4719 33.5803C81.0319 33.8337 80.6719 34.207 80.3919 34.7003C80.1253 35.1803 79.9919 35.7537 79.9919 36.4203C79.9919 37.087 80.1253 37.6737 80.3919 38.1803C80.6719 38.6737 81.0319 39.0537 81.4719 39.3203C81.9253 39.587 82.4053 39.7203 82.9119 39.7203C83.4319 39.7203 83.9186 39.5937 84.3719 39.3403C84.8253 39.0737 85.1853 38.7003 85.4519 38.2203C85.7186 37.727 85.8519 37.1403 85.8519 36.4603ZM98.9722 27.2003V42.0003H96.1722V27.2003H98.9722ZM106.659 42.1803C105.592 42.1803 104.632 41.947 103.779 41.4803C102.925 41.0003 102.252 40.327 101.759 39.4603C101.279 38.5937 101.039 37.5937 101.039 36.4603C101.039 35.327 101.285 34.327 101.779 33.4603C102.285 32.5937 102.972 31.927 103.839 31.4603C104.705 30.9803 105.672 30.7403 106.739 30.7403C107.805 30.7403 108.772 30.9803 109.639 31.4603C110.505 31.927 111.185 32.5937 111.679 33.4603C112.185 34.327 112.439 35.327 112.439 36.4603C112.439 37.5937 112.179 38.5937 111.659 39.4603C111.152 40.327 110.459 41.0003 109.579 41.4803C108.712 41.947 107.739 42.1803 106.659 42.1803ZM106.659 39.7403C107.165 39.7403 107.639 39.6203 108.079 39.3803C108.532 39.127 108.892 38.7537 109.159 38.2603C109.425 37.767 109.559 37.167 109.559 36.4603C109.559 35.407 109.279 34.6003 108.719 34.0403C108.172 33.467 107.499 33.1803 106.699 33.1803C105.899 33.1803 105.225 33.467 104.679 34.0403C104.145 34.6003 103.879 35.407 103.879 36.4603C103.879 37.5137 104.139 38.327 104.659 38.9003C105.192 39.4603 105.859 39.7403 106.659 39.7403ZM119.413 42.1803C118.346 42.1803 117.386 41.947 116.533 41.4803C115.679 41.0003 115.006 40.327 114.513 39.4603C114.033 38.5937 113.793 37.5937 113.793 36.4603C113.793 35.327 114.039 34.327 114.533 33.4603C115.039 32.5937 115.726 31.927 116.593 31.4603C117.459 30.9803 118.426 30.7403 119.493 30.7403C120.559 30.7403 121.526 30.9803 122.393 31.4603C123.259 31.927 123.939 32.5937 124.433 33.4603C124.939 34.327 125.193 35.327 125.193 36.4603C125.193 37.5937 124.933 38.5937 124.413 39.4603C123.906 40.327 123.213 41.0003 122.333 41.4803C121.466 41.947 120.493 42.1803 119.413 42.1803ZM119.413 39.7403C119.919 39.7403 120.393 39.6203 120.833 39.3803C121.286 39.127 121.646 38.7537 121.913 38.2603C122.179 37.767 122.313 37.167 122.313 36.4603C122.313 35.407 122.033 34.6003 121.473 34.0403C120.926 33.467 120.253 33.1803 119.453 33.1803C118.653 33.1803 117.979 33.467 117.433 34.0403C116.899 34.6003 116.633 35.407 116.633 36.4603C116.633 37.5137 116.893 38.327 117.413 38.9003C117.946 39.4603 118.613 39.7403 119.413 39.7403ZM133.806 42.0003L130.046 37.2803V42.0003H127.246V27.2003H130.046V35.6203L133.766 30.9203H137.406L132.526 36.4803L137.446 42.0003H133.806ZM142.972 36.4203C142.972 35.3003 143.192 34.307 143.632 33.4403C144.085 32.5737 144.692 31.907 145.452 31.4403C146.225 30.9737 147.085 30.7403 148.032 30.7403C148.858 30.7403 149.578 30.907 150.192 31.2403C150.818 31.5737 151.318 31.9937 151.692 32.5003V30.9203H154.512V42.0003H151.692V40.3803C151.332 40.9003 150.832 41.3337 150.192 41.6803C149.565 42.0137 148.838 42.1803 148.012 42.1803C147.078 42.1803 146.225 41.9403 145.452 41.4603C144.692 40.9803 144.085 40.307 143.632 39.4403C143.192 38.5603 142.972 37.5537 142.972 36.4203ZM151.692 36.4603C151.692 35.7803 151.558 35.2003 151.292 34.7203C151.025 34.227 150.665 33.8537 150.212 33.6003C149.758 33.3337 149.272 33.2003 148.752 33.2003C148.232 33.2003 147.752 33.327 147.312 33.5803C146.872 33.8337 146.512 34.207 146.232 34.7003C145.965 35.1803 145.832 35.7537 145.832 36.4203C145.832 37.087 145.965 37.6737 146.232 38.1803C146.512 38.6737 146.872 39.0537 147.312 39.3203C147.765 39.587 148.245 39.7203 148.752 39.7203C149.272 39.7203 149.758 39.5937 150.212 39.3403C150.665 39.0737 151.025 38.7003 151.292 38.2203C151.558 37.727 151.692 37.1403 151.692 36.4603ZM160.506 33.2203V38.5803C160.506 38.9537 160.593 39.227 160.766 39.4003C160.953 39.5603 161.26 39.6403 161.686 39.6403H162.986V42.0003H161.226C158.866 42.0003 157.686 40.8537 157.686 38.5603V33.2203H156.366V30.9203H157.686V28.1803H160.506V30.9203H162.986V33.2203H160.506ZM173.026 33.2203V38.5803C173.026 38.9537 173.113 39.227 173.286 39.4003C173.473 39.5603 173.779 39.6403 174.206 39.6403H175.506V42.0003H173.746C171.386 42.0003 170.206 40.8537 170.206 38.5603V33.2203H168.886V30.9203H170.206V28.1803H173.026V30.9203H175.506V33.2203H173.026ZM183.76 30.7603C184.6 30.7603 185.347 30.947 186 31.3203C186.653 31.6803 187.16 32.2203 187.52 32.9403C187.893 33.647 188.08 34.5003 188.08 35.5003V42.0003H185.28V35.8803C185.28 35.0003 185.06 34.327 184.62 33.8603C184.18 33.3803 183.58 33.1403 182.82 33.1403C182.047 33.1403 181.433 33.3803 180.98 33.8603C180.54 34.327 180.32 35.0003 180.32 35.8803V42.0003H177.52V27.2003H180.32V32.3003C180.68 31.8203 181.16 31.447 181.76 31.1803C182.36 30.9003 183.027 30.7603 183.76 30.7603ZM201.043 36.2203C201.043 36.6203 201.016 36.9803 200.963 37.3003H192.863C192.929 38.1003 193.209 38.727 193.703 39.1803C194.196 39.6337 194.803 39.8603 195.523 39.8603C196.563 39.8603 197.303 39.4137 197.743 38.5203H200.763C200.443 39.587 199.829 40.467 198.923 41.1603C198.016 41.8403 196.903 42.1803 195.583 42.1803C194.516 42.1803 193.556 41.947 192.703 41.4803C191.863 41.0003 191.203 40.327 190.723 39.4603C190.256 38.5937 190.023 37.5937 190.023 36.4603C190.023 35.3137 190.256 34.307 190.723 33.4403C191.189 32.5737 191.843 31.907 192.683 31.4403C193.523 30.9737 194.489 30.7403 195.583 30.7403C196.636 30.7403 197.576 30.967 198.403 31.4203C199.243 31.8737 199.889 32.5203 200.343 33.3603C200.809 34.187 201.043 35.1403 201.043 36.2203ZM198.143 35.4203C198.129 34.7003 197.869 34.127 197.363 33.7003C196.856 33.2603 196.236 33.0403 195.503 33.0403C194.809 33.0403 194.223 33.2537 193.743 33.6803C193.276 34.0937 192.989 34.6737 192.883 35.4203H198.143ZM221.612 30.7603C222.972 30.7603 224.065 31.1803 224.892 32.0203C225.732 32.847 226.152 34.007 226.152 35.5003V42.0003H223.352V35.8803C223.352 35.0137 223.132 34.3537 222.692 33.9003C222.252 33.4337 221.652 33.2003 220.892 33.2003C220.132 33.2003 219.525 33.4337 219.072 33.9003C218.632 34.3537 218.412 35.0137 218.412 35.8803V42.0003H215.612V35.8803C215.612 35.0137 215.392 34.3537 214.952 33.9003C214.512 33.4337 213.912 33.2003 213.152 33.2003C212.379 33.2003 211.765 33.4337 211.312 33.9003C210.872 34.3537 210.652 35.0137 210.652 35.8803V42.0003H207.852V30.9203H210.652V32.2603C211.012 31.7937 211.472 31.427 212.032 31.1603C212.605 30.8937 213.232 30.7603 213.912 30.7603C214.779 30.7603 215.552 30.947 216.232 31.3203C216.912 31.6803 217.439 32.2003 217.812 32.8803C218.172 32.2403 218.692 31.727 219.372 31.3403C220.065 30.9537 220.812 30.7603 221.612 30.7603ZM239.109 36.2203C239.109 36.6203 239.082 36.9803 239.029 37.3003H230.929C230.996 38.1003 231.276 38.727 231.769 39.1803C232.262 39.6337 232.869 39.8603 233.589 39.8603C234.629 39.8603 235.369 39.4137 235.809 38.5203H238.829C238.509 39.587 237.896 40.467 236.989 41.1603C236.082 41.8403 234.969 42.1803 233.649 42.1803C232.582 42.1803 231.622 41.947 230.769 41.4803C229.929 41.0003 229.269 40.327 228.789 39.4603C228.322 38.5937 228.089 37.5937 228.089 36.4603C228.089 35.3137 228.322 34.307 228.789 33.4403C229.256 32.5737 229.909 31.907 230.749 31.4403C231.589 30.9737 232.556 30.7403 233.649 30.7403C234.702 30.7403 235.642 30.967 236.469 31.4203C237.309 31.8737 237.956 32.5203 238.409 33.3603C238.876 34.187 239.109 35.1403 239.109 36.2203ZM236.209 35.4203C236.196 34.7003 235.936 34.127 235.429 33.7003C234.922 33.2603 234.302 33.0403 233.569 33.0403C232.876 33.0403 232.289 33.2537 231.809 33.6803C231.342 34.0937 231.056 34.6737 230.949 35.4203H236.209ZM254.913 30.7603C256.273 30.7603 257.366 31.1803 258.193 32.0203C259.033 32.847 259.453 34.007 259.453 35.5003V42.0003H256.653V35.8803C256.653 35.0137 256.433 34.3537 255.993 33.9003C255.553 33.4337 254.953 33.2003 254.193 33.2003C253.433 33.2003 252.826 33.4337 252.373 33.9003C251.933 34.3537 251.713 35.0137 251.713 35.8803V42.0003H248.913V35.8803C248.913 35.0137 248.693 34.3537 248.253 33.9003C247.813 33.4337 247.213 33.2003 246.453 33.2003C245.679 33.2003 245.066 33.4337 244.613 33.9003C244.173 34.3537 243.953 35.0137 243.953 35.8803V42.0003H241.153V30.9203H243.953V32.2603C244.313 31.7937 244.773 31.427 245.333 31.1603C245.906 30.8937 246.533 30.7603 247.213 30.7603C248.079 30.7603 248.853 30.947 249.533 31.3203C250.213 31.6803 250.739 32.2003 251.113 32.8803C251.473 32.2403 251.993 31.727 252.673 31.3403C253.366 30.9537 254.113 30.7603 254.913 30.7603ZM267.03 42.1803C265.963 42.1803 265.003 41.947 264.15 41.4803C263.296 41.0003 262.623 40.327 262.13 39.4603C261.65 38.5937 261.41 37.5937 261.41 36.4603C261.41 35.327 261.656 34.327 262.15 33.4603C262.656 32.5937 263.343 31.927 264.21 31.4603C265.076 30.9803 266.043 30.7403 267.11 30.7403C268.176 30.7403 269.143 30.9803 270.01 31.4603C270.876 31.927 271.556 32.5937 272.05 33.4603C272.556 34.327 272.81 35.327 272.81 36.4603C272.81 37.5937 272.55 38.5937 272.03 39.4603C271.523 40.327 270.83 41.0003 269.95 41.4803C269.083 41.947 268.11 42.1803 267.03 42.1803ZM267.03 39.7403C267.536 39.7403 268.01 39.6203 268.45 39.3803C268.903 39.127 269.263 38.7537 269.53 38.2603C269.796 37.767 269.93 37.167 269.93 36.4603C269.93 35.407 269.65 34.6003 269.09 34.0403C268.543 33.467 267.87 33.1803 267.07 33.1803C266.27 33.1803 265.596 33.467 265.05 34.0403C264.516 34.6003 264.25 35.407 264.25 36.4603C264.25 37.5137 264.51 38.327 265.03 38.9003C265.563 39.4603 266.23 39.7403 267.03 39.7403ZM277.664 32.6403C278.024 32.0537 278.49 31.5937 279.064 31.2603C279.65 30.927 280.317 30.7603 281.064 30.7603V33.7003H280.324C279.444 33.7003 278.777 33.907 278.324 34.3203C277.884 34.7337 277.664 35.4537 277.664 36.4803V42.0003H274.864V30.9203H277.664V32.6403ZM282.23 36.4203C282.23 35.3003 282.45 34.307 282.89 33.4403C283.343 32.5737 283.95 31.907 284.71 31.4403C285.483 30.9737 286.343 30.7403 287.29 30.7403C288.116 30.7403 288.836 30.907 289.45 31.2403C290.076 31.5737 290.576 31.9937 290.95 32.5003V30.9203H293.77V42.0003H290.95V40.3803C290.59 40.9003 290.09 41.3337 289.45 41.6803C288.823 42.0137 288.096 42.1803 287.27 42.1803C286.336 42.1803 285.483 41.9403 284.71 41.4603C283.95 40.9803 283.343 40.307 282.89 39.4403C282.45 38.5603 282.23 37.5537 282.23 36.4203ZM290.95 36.4603C290.95 35.7803 290.816 35.2003 290.55 34.7203C290.283 34.227 289.923 33.8537 289.47 33.6003C289.016 33.3337 288.53 33.2003 288.01 33.2003C287.49 33.2003 287.01 33.327 286.57 33.5803C286.13 33.8337 285.77 34.207 285.49 34.7003C285.223 35.1803 285.09 35.7537 285.09 36.4203C285.09 37.087 285.223 37.6737 285.49 38.1803C285.77 38.6737 286.13 39.0537 286.57 39.3203C287.023 39.587 287.503 39.7203 288.01 39.7203C288.53 39.7203 289.016 39.5937 289.47 39.3403C289.923 39.0737 290.283 38.7003 290.55 38.2203C290.816 37.727 290.95 37.1403 290.95 36.4603ZM299.304 32.5403C299.664 32.007 300.158 31.5737 300.784 31.2403C301.424 30.907 302.151 30.7403 302.964 30.7403C303.911 30.7403 304.764 30.9737 305.524 31.4403C306.298 31.907 306.904 32.5737 307.344 33.4403C307.798 34.2937 308.024 35.287 308.024 36.4203C308.024 37.5537 307.798 38.5603 307.344 39.4403C306.904 40.307 306.298 40.9803 305.524 41.4603C304.764 41.9403 303.911 42.1803 302.964 42.1803C302.138 42.1803 301.411 42.0203 300.784 41.7003C300.171 41.367 299.678 40.9403 299.304 40.4203V42.0003H296.504V27.2003H299.304V32.5403ZM305.164 36.4203C305.164 35.7537 305.024 35.1803 304.744 34.7003C304.478 34.207 304.118 33.8337 303.664 33.5803C303.224 33.327 302.744 33.2003 302.224 33.2003C301.718 33.2003 301.238 33.3337 300.784 33.6003C300.344 33.8537 299.984 34.227 299.704 34.7203C299.438 35.2137 299.304 35.7937 299.304 36.4603C299.304 37.127 299.438 37.707 299.704 38.2003C299.984 38.6937 300.344 39.0737 300.784 39.3403C301.238 39.5937 301.718 39.7203 302.224 39.7203C302.744 39.7203 303.224 39.587 303.664 39.3203C304.118 39.0537 304.478 38.6737 304.744 38.1803C305.024 37.687 305.164 37.1003 305.164 36.4203ZM312.859 27.2003V42.0003H310.059V27.2003H312.859ZM325.925 36.2203C325.925 36.6203 325.899 36.9803 325.845 37.3003H317.745C317.812 38.1003 318.092 38.727 318.585 39.1803C319.079 39.6337 319.685 39.8603 320.405 39.8603C321.445 39.8603 322.185 39.4137 322.625 38.5203H325.645C325.325 39.587 324.712 40.467 323.805 41.1603C322.899 41.8403 321.785 42.1803 320.465 42.1803C319.399 42.1803 318.439 41.947 317.585 41.4803C316.745 41.0003 316.085 40.327 315.605 39.4603C315.139 38.5937 314.905 37.5937 314.905 36.4603C314.905 35.3137 315.139 34.307 315.605 33.4403C316.072 32.5737 316.725 31.907 317.565 31.4403C318.405 30.9737 319.372 30.7403 320.465 30.7403C321.519 30.7403 322.459 30.967 323.285 31.4203C324.125 31.8737 324.772 32.5203 325.225 33.3603C325.692 34.187 325.925 35.1403 325.925 36.2203ZM323.025 35.4203C323.012 34.7003 322.752 34.127 322.245 33.7003C321.739 33.2603 321.119 33.0403 320.385 33.0403C319.692 33.0403 319.105 33.2537 318.625 33.6803C318.159 34.0937 317.872 34.6737 317.765 35.4203H323.025ZM41.8756 52.7603C43.2356 52.7603 44.3289 53.1803 45.1556 54.0203C45.9956 54.847 46.4156 56.007 46.4156 57.5003V64.0003H43.6156V57.8803C43.6156 57.0137 43.3956 56.3537 42.9556 55.9003C42.5156 55.4337 41.9156 55.2003 41.1556 55.2003C40.3956 55.2003 39.7889 55.4337 39.3356 55.9003C38.8956 56.3537 38.6756 57.0137 38.6756 57.8803V64.0003H35.8756V57.8803C35.8756 57.0137 35.6556 56.3537 35.2156 55.9003C34.7756 55.4337 34.1756 55.2003 33.4156 55.2003C32.6423 55.2003 32.0289 55.4337 31.5756 55.9003C31.1356 56.3537 30.9156 57.0137 30.9156 57.8803V64.0003H28.1156V52.9203H30.9156V54.2603C31.2756 53.7937 31.7356 53.427 32.2956 53.1603C32.8689 52.8937 33.4956 52.7603 34.1756 52.7603C35.0423 52.7603 35.8156 52.947 36.4956 53.3203C37.1756 53.6803 37.7023 54.2003 38.0756 54.8803C38.4356 54.2403 38.9556 53.727 39.6356 53.3403C40.3289 52.9537 41.0756 52.7603 41.8756 52.7603ZM53.9926 64.1803C52.926 64.1803 51.966 63.947 51.1126 63.4803C50.2593 63.0003 49.586 62.327 49.0926 61.4603C48.6126 60.5937 48.3726 59.5937 48.3726 58.4603C48.3726 57.327 48.6193 56.327 49.1126 55.4603C49.6193 54.5937 50.306 53.927 51.1726 53.4603C52.0393 52.9803 53.006 52.7403 54.0726 52.7403C55.1393 52.7403 56.106 52.9803 56.9726 53.4603C57.8393 53.927 58.5193 54.5937 59.0126 55.4603C59.5193 56.327 59.7726 57.327 59.7726 58.4603C59.7726 59.5937 59.5126 60.5937 58.9926 61.4603C58.486 62.327 57.7926 63.0003 56.9126 63.4803C56.046 63.947 55.0726 64.1803 53.9926 64.1803ZM53.9926 61.7403C54.4993 61.7403 54.9726 61.6203 55.4126 61.3803C55.866 61.127 56.226 60.7537 56.4926 60.2603C56.7593 59.767 56.8926 59.167 56.8926 58.4603C56.8926 57.407 56.6126 56.6003 56.0526 56.0403C55.506 55.467 54.8326 55.1803 54.0326 55.1803C53.2326 55.1803 52.5593 55.467 52.0126 56.0403C51.4793 56.6003 51.2126 57.407 51.2126 58.4603C51.2126 59.5137 51.4726 60.327 51.9926 60.9003C52.526 61.4603 53.1926 61.7403 53.9926 61.7403ZM75.5865 52.7603C76.9465 52.7603 78.0399 53.1803 78.8665 54.0203C79.7065 54.847 80.1265 56.007 80.1265 57.5003V64.0003H77.3265V57.8803C77.3265 57.0137 77.1065 56.3537 76.6665 55.9003C76.2265 55.4337 75.6265 55.2003 74.8665 55.2003C74.1065 55.2003 73.4999 55.4337 73.0465 55.9003C72.6065 56.3537 72.3865 57.0137 72.3865 57.8803V64.0003H69.5865V57.8803C69.5865 57.0137 69.3665 56.3537 68.9265 55.9003C68.4865 55.4337 67.8865 55.2003 67.1265 55.2003C66.3532 55.2003 65.7399 55.4337 65.2865 55.9003C64.8465 56.3537 64.6265 57.0137 64.6265 57.8803V64.0003H61.8265V52.9203H64.6265V54.2603C64.9865 53.7937 65.4465 53.427 66.0065 53.1603C66.5799 52.8937 67.2065 52.7603 67.8865 52.7603C68.7532 52.7603 69.5265 52.947 70.2065 53.3203C70.8865 53.6803 71.4132 54.2003 71.7865 54.8803C72.1465 54.2403 72.6665 53.727 73.3465 53.3403C74.0399 52.9537 74.7865 52.7603 75.5865 52.7603ZM93.0836 58.2203C93.0836 58.6203 93.0569 58.9803 93.0036 59.3003H84.9036C84.9702 60.1003 85.2502 60.727 85.7436 61.1803C86.2369 61.6337 86.8436 61.8603 87.5636 61.8603C88.6036 61.8603 89.3436 61.4137 89.7836 60.5203H92.8036C92.4836 61.587 91.8702 62.467 90.9636 63.1603C90.0569 63.8403 88.9436 64.1803 87.6236 64.1803C86.5569 64.1803 85.5969 63.947 84.7436 63.4803C83.9036 63.0003 83.2436 62.327 82.7636 61.4603C82.2969 60.5937 82.0636 59.5937 82.0636 58.4603C82.0636 57.3137 82.2969 56.307 82.7636 55.4403C83.2302 54.5737 83.8836 53.907 84.7236 53.4403C85.5636 52.9737 86.5302 52.7403 87.6236 52.7403C88.6769 52.7403 89.6169 52.967 90.4436 53.4203C91.2836 53.8737 91.9302 54.5203 92.3836 55.3603C92.8502 56.187 93.0836 57.1403 93.0836 58.2203ZM90.1836 57.4203C90.1702 56.7003 89.9102 56.127 89.4036 55.7003C88.8969 55.2603 88.2769 55.0403 87.5436 55.0403C86.8502 55.0403 86.2636 55.2537 85.7836 55.6803C85.3169 56.0937 85.0302 56.6737 84.9236 57.4203H90.1836ZM101.267 52.7603C102.587 52.7603 103.654 53.1803 104.467 54.0203C105.281 54.847 105.687 56.007 105.687 57.5003V64.0003H102.887V57.8803C102.887 57.0003 102.667 56.327 102.227 55.8603C101.787 55.3803 101.187 55.1403 100.427 55.1403C99.654 55.1403 99.0406 55.3803 98.5873 55.8603C98.1473 56.327 97.9273 57.0003 97.9273 57.8803V64.0003H95.1273V52.9203H97.9273V54.3003C98.3006 53.8203 98.774 53.447 99.3473 53.1803C99.934 52.9003 100.574 52.7603 101.267 52.7603ZM111.61 55.2203V60.5803C111.61 60.9537 111.697 61.227 111.87 61.4003C112.057 61.5603 112.363 61.6403 112.79 61.6403H114.09V64.0003H112.33C109.97 64.0003 108.79 62.8537 108.79 60.5603V55.2203H107.47V52.9203H108.79V50.1803H111.61V52.9203H114.09V55.2203H111.61ZM120.344 64.1803C119.437 64.1803 118.624 64.0203 117.904 63.7003C117.184 63.367 116.611 62.9203 116.184 62.3603C115.771 61.8003 115.544 61.1803 115.504 60.5003H118.324C118.377 60.927 118.584 61.2803 118.944 61.5603C119.317 61.8403 119.777 61.9803 120.324 61.9803C120.857 61.9803 121.271 61.8737 121.564 61.6603C121.871 61.447 122.024 61.1737 122.024 60.8403C122.024 60.4803 121.837 60.2137 121.464 60.0403C121.104 59.8537 120.524 59.6537 119.724 59.4403C118.897 59.2403 118.217 59.0337 117.684 58.8203C117.164 58.607 116.711 58.2803 116.324 57.8403C115.951 57.4003 115.764 56.807 115.764 56.0603C115.764 55.447 115.937 54.887 116.284 54.3803C116.644 53.8737 117.151 53.4737 117.804 53.1803C118.471 52.887 119.251 52.7403 120.144 52.7403C121.464 52.7403 122.517 53.0737 123.304 53.7403C124.091 54.3937 124.524 55.2803 124.604 56.4003H121.924C121.884 55.9603 121.697 55.6137 121.364 55.3603C121.044 55.0937 120.611 54.9603 120.064 54.9603C119.557 54.9603 119.164 55.0537 118.884 55.2403C118.617 55.427 118.484 55.687 118.484 56.0203C118.484 56.3937 118.671 56.6803 119.044 56.8803C119.417 57.067 119.997 57.2603 120.784 57.4603C121.584 57.6603 122.244 57.867 122.764 58.0803C123.284 58.2937 123.731 58.627 124.104 59.0803C124.491 59.5203 124.691 60.107 124.704 60.8403C124.704 61.4803 124.524 62.0537 124.164 62.5603C123.817 63.067 123.311 63.467 122.644 63.7603C121.991 64.0403 121.224 64.1803 120.344 64.1803ZM136.848 55.2203H134.908V64.0003H132.068V55.2203H130.808V52.9203H132.068V52.3603C132.068 51.0003 132.455 50.0003 133.228 49.3603C134.001 48.7203 135.168 48.4203 136.728 48.4603V50.8203C136.048 50.807 135.575 50.9203 135.308 51.1603C135.041 51.4003 134.908 51.8337 134.908 52.4603V52.9203H136.848V55.2203ZM141.462 54.6403C141.822 54.0537 142.289 53.5937 142.862 53.2603C143.449 52.927 144.116 52.7603 144.862 52.7603V55.7003H144.122C143.242 55.7003 142.576 55.907 142.122 56.3203C141.682 56.7337 141.462 57.4537 141.462 58.4803V64.0003H138.662V52.9203H141.462V54.6403ZM151.668 64.1803C150.602 64.1803 149.642 63.947 148.788 63.4803C147.935 63.0003 147.262 62.327 146.768 61.4603C146.288 60.5937 146.048 59.5937 146.048 58.4603C146.048 57.327 146.295 56.327 146.788 55.4603C147.295 54.5937 147.982 53.927 148.848 53.4603C149.715 52.9803 150.682 52.7403 151.748 52.7403C152.815 52.7403 153.782 52.9803 154.648 53.4603C155.515 53.927 156.195 54.5937 156.688 55.4603C157.195 56.327 157.448 57.327 157.448 58.4603C157.448 59.5937 157.188 60.5937 156.668 61.4603C156.162 62.327 155.468 63.0003 154.588 63.4803C153.722 63.947 152.748 64.1803 151.668 64.1803ZM151.668 61.7403C152.175 61.7403 152.648 61.6203 153.088 61.3803C153.542 61.127 153.902 60.7537 154.168 60.2603C154.435 59.767 154.568 59.167 154.568 58.4603C154.568 57.407 154.288 56.6003 153.728 56.0403C153.182 55.467 152.508 55.1803 151.708 55.1803C150.908 55.1803 150.235 55.467 149.688 56.0403C149.155 56.6003 148.888 57.407 148.888 58.4603C148.888 59.5137 149.148 60.327 149.668 60.9003C150.202 61.4603 150.868 61.7403 151.668 61.7403ZM173.262 52.7603C174.622 52.7603 175.716 53.1803 176.542 54.0203C177.382 54.847 177.802 56.007 177.802 57.5003V64.0003H175.002V57.8803C175.002 57.0137 174.782 56.3537 174.342 55.9003C173.902 55.4337 173.302 55.2003 172.542 55.2003C171.782 55.2003 171.176 55.4337 170.722 55.9003C170.282 56.3537 170.062 57.0137 170.062 57.8803V64.0003H167.262V57.8803C167.262 57.0137 167.042 56.3537 166.602 55.9003C166.162 55.4337 165.562 55.2003 164.802 55.2003C164.029 55.2003 163.416 55.4337 162.962 55.9003C162.522 56.3537 162.302 57.0137 162.302 57.8803V64.0003H159.502V52.9203H162.302V54.2603C162.662 53.7937 163.122 53.427 163.682 53.1603C164.256 52.8937 164.882 52.7603 165.562 52.7603C166.429 52.7603 167.202 52.947 167.882 53.3203C168.562 53.6803 169.089 54.2003 169.462 54.8803C169.822 54.2403 170.342 53.727 171.022 53.3403C171.716 52.9537 172.462 52.7603 173.262 52.7603ZM196.805 50.0403V64.0003H194.005V58.0603H188.025V64.0003H185.225V50.0403H188.025V55.7803H194.005V50.0403H196.805ZM198.841 58.4203C198.841 57.3003 199.061 56.307 199.501 55.4403C199.954 54.5737 200.561 53.907 201.321 53.4403C202.094 52.9737 202.954 52.7403 203.901 52.7403C204.728 52.7403 205.448 52.907 206.061 53.2403C206.688 53.5737 207.188 53.9937 207.561 54.5003V52.9203H210.381V64.0003H207.561V62.3803C207.201 62.9003 206.701 63.3337 206.061 63.6803C205.434 64.0137 204.708 64.1803 203.881 64.1803C202.948 64.1803 202.094 63.9403 201.321 63.4603C200.561 62.9803 199.954 62.307 199.501 61.4403C199.061 60.5603 198.841 59.5537 198.841 58.4203ZM207.561 58.4603C207.561 57.7803 207.428 57.2003 207.161 56.7203C206.894 56.227 206.534 55.8537 206.081 55.6003C205.628 55.3337 205.141 55.2003 204.621 55.2003C204.101 55.2003 203.621 55.327 203.181 55.5803C202.741 55.8337 202.381 56.207 202.101 56.7003C201.834 57.1803 201.701 57.7537 201.701 58.4203C201.701 59.087 201.834 59.6737 202.101 60.1803C202.381 60.6737 202.741 61.0537 203.181 61.3203C203.634 61.587 204.114 61.7203 204.621 61.7203C205.141 61.7203 205.628 61.5937 206.081 61.3403C206.534 61.0737 206.894 60.7003 207.161 60.2203C207.428 59.727 207.561 59.1403 207.561 58.4603ZM212.396 58.4603C212.396 57.3137 212.629 56.3137 213.096 55.4603C213.562 54.5937 214.209 53.927 215.036 53.4603C215.862 52.9803 216.809 52.7403 217.876 52.7403C219.249 52.7403 220.382 53.087 221.276 53.7803C222.182 54.4603 222.789 55.4203 223.096 56.6603H220.076C219.916 56.1803 219.642 55.807 219.256 55.5403C218.882 55.2603 218.416 55.1203 217.856 55.1203C217.056 55.1203 216.422 55.4137 215.956 56.0003C215.489 56.5737 215.256 57.3937 215.256 58.4603C215.256 59.5137 215.489 60.3337 215.956 60.9203C216.422 61.4937 217.056 61.7803 217.856 61.7803C218.989 61.7803 219.729 61.2737 220.076 60.2603H223.096C222.789 61.4603 222.182 62.4137 221.276 63.1203C220.369 63.827 219.236 64.1803 217.876 64.1803C216.809 64.1803 215.862 63.947 215.036 63.4803C214.209 63.0003 213.562 62.3337 213.096 61.4803C212.629 60.6137 212.396 59.607 212.396 58.4603ZM231.707 64.0003L227.947 59.2803V64.0003H225.147V49.2003H227.947V57.6203L231.667 52.9203H235.307L230.427 58.4803L235.347 64.0003H231.707ZM244.747 56.8403C245.533 56.987 246.18 57.3803 246.687 58.0203C247.193 58.6603 247.447 59.3937 247.447 60.2203C247.447 60.967 247.26 61.627 246.887 62.2003C246.527 62.7603 246 63.2003 245.307 63.5203C244.613 63.8403 243.793 64.0003 242.847 64.0003H236.827V50.0403H242.587C243.533 50.0403 244.347 50.1937 245.027 50.5003C245.72 50.807 246.24 51.2337 246.587 51.7803C246.947 52.327 247.127 52.947 247.127 53.6403C247.127 54.4537 246.907 55.1337 246.467 55.6803C246.04 56.227 245.467 56.6137 244.747 56.8403ZM239.627 55.8003H242.187C242.853 55.8003 243.367 55.6537 243.727 55.3603C244.087 55.0537 244.267 54.6203 244.267 54.0603C244.267 53.5003 244.087 53.067 243.727 52.7603C243.367 52.4537 242.853 52.3003 242.187 52.3003H239.627V55.8003ZM242.447 61.7203C243.127 61.7203 243.653 61.5603 244.027 61.2403C244.413 60.9203 244.607 60.467 244.607 59.8803C244.607 59.2803 244.407 58.8137 244.007 58.4803C243.607 58.1337 243.067 57.9603 242.387 57.9603H239.627V61.7203H242.447ZM260.278 52.9203L253.418 69.2403H250.438L252.838 63.7203L248.398 52.9203H251.538L254.398 60.6603L257.298 52.9203H260.278ZM265.047 55.2203V60.5803C265.047 60.9537 265.134 61.227 265.307 61.4003C265.494 61.5603 265.801 61.6403 266.227 61.6403H267.527V64.0003H265.767C263.407 64.0003 262.227 62.8537 262.227 60.5603V55.2203H260.907V52.9203H262.227V50.1803H265.047V52.9203H267.527V55.2203H265.047ZM279.841 58.2203C279.841 58.6203 279.815 58.9803 279.761 59.3003H271.661C271.728 60.1003 272.008 60.727 272.501 61.1803C272.995 61.6337 273.601 61.8603 274.321 61.8603C275.361 61.8603 276.101 61.4137 276.541 60.5203H279.561C279.241 61.587 278.628 62.467 277.721 63.1603C276.815 63.8403 275.701 64.1803 274.381 64.1803C273.315 64.1803 272.355 63.947 271.501 63.4803C270.661 63.0003 270.001 62.327 269.521 61.4603C269.055 60.5937 268.821 59.5937 268.821 58.4603C268.821 57.3137 269.055 56.307 269.521 55.4403C269.988 54.5737 270.641 53.907 271.481 53.4403C272.321 52.9737 273.288 52.7403 274.381 52.7403C275.435 52.7403 276.375 52.967 277.201 53.4203C278.041 53.8737 278.688 54.5203 279.141 55.3603C279.608 56.187 279.841 57.1403 279.841 58.2203ZM276.941 57.4203C276.928 56.7003 276.668 56.127 276.161 55.7003C275.655 55.2603 275.035 55.0403 274.301 55.0403C273.608 55.0403 273.021 55.2537 272.541 55.6803C272.075 56.0937 271.788 56.6737 271.681 57.4203H276.941ZM286.371 53.2603C286.437 51.927 286.904 50.9003 287.771 50.1803C288.651 49.447 289.804 49.0803 291.231 49.0803C292.204 49.0803 293.037 49.2537 293.731 49.6003C294.424 49.9337 294.944 50.3937 295.291 50.9803C295.651 51.5537 295.831 52.207 295.831 52.9403C295.831 53.7803 295.611 54.4937 295.171 55.0803C294.744 55.6537 294.231 56.0403 293.631 56.2403V56.3203C294.404 56.5603 295.004 56.987 295.431 57.6003C295.871 58.2137 296.091 59.0003 296.091 59.9603C296.091 60.7603 295.904 61.4737 295.531 62.1003C295.171 62.727 294.631 63.2203 293.911 63.5803C293.204 63.927 292.351 64.1003 291.351 64.1003C289.844 64.1003 288.617 63.7203 287.671 62.9603C286.724 62.2003 286.224 61.0803 286.171 59.6003H288.891C288.917 60.2537 289.137 60.7803 289.551 61.1803C289.977 61.567 290.557 61.7603 291.291 61.7603C291.971 61.7603 292.491 61.5737 292.851 61.2003C293.224 60.8137 293.411 60.3203 293.411 59.7203C293.411 58.9203 293.157 58.347 292.651 58.0003C292.144 57.6537 291.357 57.4803 290.291 57.4803H289.711V55.1803H290.291C292.184 55.1803 293.131 54.547 293.131 53.2803C293.131 52.707 292.957 52.2603 292.611 51.9403C292.277 51.6203 291.791 51.4603 291.151 51.4603C290.524 51.4603 290.037 51.6337 289.691 51.9803C289.357 52.3137 289.164 52.7403 289.111 53.2603H286.371ZM299.863 64.1403C299.357 64.1403 298.937 63.987 298.603 63.6803C298.283 63.3603 298.123 62.967 298.123 62.5003C298.123 62.0337 298.283 61.647 298.603 61.3403C298.937 61.0203 299.357 60.8603 299.863 60.8603C300.357 60.8603 300.763 61.0203 301.083 61.3403C301.403 61.647 301.563 62.0337 301.563 62.5003C301.563 62.967 301.403 63.3603 301.083 63.6803C300.763 63.987 300.357 64.1403 299.863 64.1403ZM303.499 56.5203C303.499 54.2137 303.912 52.407 304.739 51.1003C305.579 49.7937 306.965 49.1403 308.899 49.1403C310.832 49.1403 312.212 49.7937 313.039 51.1003C313.879 52.407 314.299 54.2137 314.299 56.5203C314.299 58.8403 313.879 60.6603 313.039 61.9803C312.212 63.3003 310.832 63.9603 308.899 63.9603C306.965 63.9603 305.579 63.3003 304.739 61.9803C303.912 60.6603 303.499 58.8403 303.499 56.5203ZM311.539 56.5203C311.539 55.5337 311.472 54.707 311.339 54.0403C311.219 53.3603 310.965 52.807 310.579 52.3803C310.205 51.9537 309.645 51.7403 308.899 51.7403C308.152 51.7403 307.585 51.9537 307.199 52.3803C306.825 52.807 306.572 53.3603 306.439 54.0403C306.319 54.707 306.259 55.5337 306.259 56.5203C306.259 57.5337 306.319 58.387 306.439 59.0803C306.559 59.7603 306.812 60.3137 307.199 60.7403C307.585 61.1537 308.152 61.3603 308.899 61.3603C309.645 61.3603 310.212 61.1537 310.599 60.7403C310.985 60.3137 311.239 59.7603 311.359 59.0803C311.479 58.387 311.539 57.5337 311.539 56.5203ZM320.368 49.8003L320.048 59.4603H317.688L317.348 49.8003H320.368ZM318.928 64.1403C318.422 64.1403 318.002 63.987 317.668 63.6803C317.348 63.3603 317.188 62.967 317.188 62.5003C317.188 62.0337 317.348 61.647 317.668 61.3403C318.002 61.0203 318.422 60.8603 318.928 60.8603C319.422 60.8603 319.828 61.0203 320.148 61.3403C320.468 61.647 320.628 62.0337 320.628 62.5003C320.628 62.967 320.468 63.3603 320.148 63.6803C319.828 63.987 319.422 64.1403 318.928 64.1403Z" fill="#F6F6F6"/>
<path d="M347.144 73.4691C348.564 73.4693 349.185 75.2568 348.079 76.1409L329.664 90.8509C328.712 91.6107 327.3 90.9803 327.23 89.765L326.701 80.6019C326.478 79.402 326.606 77.6283 327.73 76.136C328.883 74.6055 331.007 73.4691 334.583 73.4691H347.144Z" fill="white" stroke="#C7C7C7"/>
<defs>
<filter id="filter0_d_30_1130" x="0" y="0" width="355" height="95.2129" filterUnits="userSpaceOnUse" color-interpolation-filters="sRGB">
<feFlood flood-opacity="0" result="BackgroundImageFix"/>
<feColorMatrix in="SourceAlpha" type="matrix" values="0 0 0 0 0 0 0 0 0 0 0 0 0 0 0 0 0 0 127 0" result="hardAlpha"/>
<feOffset dx="5" dy="4"/>
<feComposite in2="hardAlpha" operator="out"/>
<feColorMatrix type="matrix" values="0 0 0 0 0 0 0 0 0 0 0 0 0 0 0 0 0 0 0.25 0"/>
<feBlend mode="normal" in2="BackgroundImageFix" result="effect1_dropShadow_30_1130"/>
<feBlend mode="normal" in="SourceGraphic" in2="effect1_dropShadow_30_1130" result="shape"/>
</filter>
</defs>
</svg>
