<svg width="248" height="1561" viewBox="0 0 248 1561" fill="none" xmlns="http://www.w3.org/2000/svg">
<g opacity="0.41">
<path d="M19.7703 1140.17L29.1628 1230.36L108.724 1225.1L86.8809 1298.85C127.597 1272.06 212.447 1218.24 226.114 1217.34L108.724 1225.1L160.519 1144.2L187.696 1077.76L153.939 1044.64L48.3404 841.941L11.1883 824.893L57.0458 973.654L-54.6541 1141.56L19.7703 1140.17Z" fill="url(#paint0_linear_1096_6411)" fill-opacity="0.11"/>
<path d="M187.696 1077.76L160.519 1144.2M187.696 1077.76L153.939 1044.64M187.696 1077.76L123.225 1103.07M-157.834 1134.37L-54.6541 1141.56M19.7703 1140.17L29.1628 1230.36M19.7703 1140.17L160.519 1144.2M19.7703 1140.17L57.0458 973.654M19.7703 1140.17L-54.6541 1141.56M29.1628 1230.36L-145.946 1314.24M29.1628 1230.36L108.724 1225.1M226.114 1217.34L104.481 1390.84L50.1808 1548.36M226.114 1217.34L-12.7633 1486.09M226.114 1217.34C212.447 1218.24 127.597 1272.06 86.8809 1298.85L108.724 1225.1M226.114 1217.34L108.724 1225.1M108.724 1225.1L160.519 1144.2M160.519 1144.2L123.225 1103.07M153.939 1044.64L123.225 1103.07M153.939 1044.64L48.3404 841.941M123.225 1103.07L57.0458 973.654M57.0458 973.654L-54.6541 1141.56M57.0458 973.654L-89.3215 1018.4M57.0458 973.654L11.1883 824.893L48.3404 841.941M180.508 969.001L48.3404 841.941M48.3404 841.941L149.112 850.317M48.3404 841.941L107.687 822.488" stroke="url(#paint1_radial_1096_6411)" stroke-width="3.4242"/>
</g>
<g opacity="0.41">
<path d="M125.582 471.544L172.697 320.108L46.6327 300.55L81.2784 240.963L-57.1512 285.639L14.1866 370.671L-0.148425 447.418L-39.721 549.358L-31.0287 590.725L2.08607 546.594L81.884 502.991L125.582 471.544Z" fill="url(#paint2_linear_1096_6411)" fill-opacity="0.11"/>
<path d="M13.105 609.829L81.884 502.991M172.697 320.108L125.582 471.544L81.884 502.991M172.697 320.108L-0.148425 447.418M172.697 320.108L2.08607 546.594M172.697 320.108L46.6327 300.55M-0.148425 447.418L-39.721 549.358L-31.0287 590.725L2.08607 546.594M-0.148425 447.418L2.08607 546.594M-0.148425 447.418L14.1866 370.671L-57.1512 285.639M81.884 502.991L2.08607 546.594M-57.1512 285.639L43.5951 300.078L46.6327 300.55M-57.1512 285.639L81.2784 240.963L46.6327 300.55" stroke="url(#paint3_radial_1096_6411)" stroke-width="3.4242"/>
</g>
<g opacity="0.41">
<path d="M100.263 778.378L152.675 699.505L23.573 679.476L108.496 652.765L12.1241 604.813L23.573 679.476L-20.1704 826.815L43.4067 805.186L51.7678 840.712L100.263 778.378Z" fill="url(#paint4_linear_1096_6411)" fill-opacity="0.11"/>
<path d="M152.675 699.505L100.263 778.378L51.7678 840.712L43.4067 805.186M152.675 699.505L-20.1704 826.815M152.675 699.505L43.4067 805.186M152.675 699.505L23.573 679.476M-20.1704 826.815L43.4067 805.186M-20.1704 826.815L23.573 679.476M23.573 679.476L12.1241 604.813L108.496 652.765L23.573 679.476ZM23.573 679.476L-98.1824 694.785" stroke="url(#paint5_radial_1096_6411)" stroke-width="3.4242"/>
</g>
<g opacity="0.41">
<path d="M-58.6038 285.287L49.9628 186.152L68.1077 64.4469L-0.49846 24.3843L-126.323 56.7528L-150.494 115.606L-50.2658 150.879L-139.654 279.619L-58.6038 285.287Z" fill="url(#paint6_linear_1096_6411)" fill-opacity="0.48"/>
<path d="M49.9628 186.152L-58.6038 285.287L-139.654 279.619M49.9628 186.152L68.1077 64.4469M49.9628 186.152L3.15413 79.6478M49.9628 186.152L133.359 187.413L82.6096 238.37M49.9628 186.152L-50.2658 150.879M68.1077 64.4469L-150.494 115.606M68.1077 64.4469L-0.49846 24.3843L-126.323 56.7528M-150.494 115.606L-50.2658 150.879M-150.494 115.606L-126.323 56.7528M-126.323 56.7528L-145.867 33.9922M-126.323 56.7528L-249.48 96.3453M-50.2658 150.879L-139.654 279.619M-139.654 279.619L-258.845 318.563" stroke="url(#paint7_radial_1096_6411)" stroke-width="3.4242"/>
</g>
<defs>
<linearGradient id="paint0_linear_1096_6411" x1="-116.408" y1="986.039" x2="180.063" y2="1088.02" gradientUnits="userSpaceOnUse">
<stop stop-color="#787878"/>
<stop offset="1" stop-color="#FF00FF"/>
</linearGradient>
<radialGradient id="paint1_radial_1096_6411" cx="0" cy="0" r="1" gradientUnits="userSpaceOnUse" gradientTransform="translate(265.382 1093.18) rotate(-176.541) scale(430.893 458.873)">
<stop stop-color="white"/>
<stop offset="1" stop-color="#999999" stop-opacity="0"/>
</radialGradient>
<linearGradient id="paint2_linear_1096_6411" x1="407.153" y1="682.284" x2="229.737" y2="423.789" gradientUnits="userSpaceOnUse">
<stop stop-color="#787878"/>
<stop offset="1" stop-color="#FF00FF"/>
</linearGradient>
<radialGradient id="paint3_radial_1096_6411" cx="0" cy="0" r="1" gradientUnits="userSpaceOnUse" gradientTransform="translate(199.243 311.655) rotate(48.5623) scale(445.826 474.776)">
<stop stop-color="white"/>
<stop offset="1" stop-color="#999999" stop-opacity="0"/>
</radialGradient>
<linearGradient id="paint4_linear_1096_6411" x1="387.131" y1="1061.68" x2="209.715" y2="803.186" gradientUnits="userSpaceOnUse">
<stop stop-color="#787878"/>
<stop offset="1" stop-color="#FF00FF"/>
</linearGradient>
<radialGradient id="paint5_radial_1096_6411" cx="0" cy="0" r="1" gradientUnits="userSpaceOnUse" gradientTransform="translate(177.055 727.203) rotate(152.527) scale(236.426 251.778)">
<stop stop-color="white"/>
<stop offset="1" stop-color="#999999" stop-opacity="0"/>
</radialGradient>
<linearGradient id="paint6_linear_1096_6411" x1="-255.828" y1="158.611" x2="117.817" y2="88.7225" gradientUnits="userSpaceOnUse">
<stop stop-color="#737373" stop-opacity="0"/>
<stop offset="1" stop-color="#670450"/>
</linearGradient>
<radialGradient id="paint7_radial_1096_6411" cx="0" cy="0" r="1" gradientUnits="userSpaceOnUse" gradientTransform="translate(190.699 390.055) rotate(21.6116) scale(445.826 474.776)">
<stop stop-color="white"/>
<stop offset="1" stop-color="#999999" stop-opacity="0"/>
</radialGradient>
</defs>
</svg>
