<svg width="528" height="2080" viewBox="0 0 528 2080" fill="none" xmlns="http://www.w3.org/2000/svg">
<g opacity="0.41">
<path d="M500.363 1659.17L490.97 1749.36L411.409 1744.1L433.252 1817.85C392.536 1791.06 307.686 1737.24 294.019 1736.34L411.409 1744.1L359.614 1663.2L332.436 1596.76L366.194 1563.64L471.792 1360.94L508.945 1343.89L463.087 1492.65L574.787 1660.56L500.363 1659.17Z" fill="url(#paint0_linear_1296_2303)" fill-opacity="0.11"/>
<path d="M332.436 1596.76L359.614 1663.2M332.436 1596.76L366.194 1563.64M332.436 1596.76L396.908 1622.07M677.967 1653.37L574.787 1660.56M500.363 1659.17L490.97 1749.36M500.363 1659.17L359.614 1663.2M500.363 1659.17L463.087 1492.65M500.363 1659.17L574.787 1660.56M490.97 1749.36L666.079 1833.24M490.97 1749.36L411.409 1744.1M294.019 1736.34L415.652 1909.84L469.952 2067.36M294.019 1736.34L532.896 2005.09M294.019 1736.34C307.686 1737.24 392.536 1791.06 433.252 1817.85L411.409 1744.1M294.019 1736.34L411.409 1744.1M411.409 1744.1L359.614 1663.2M359.614 1663.2L396.908 1622.07M366.194 1563.64L396.908 1622.07M366.194 1563.64L471.792 1360.94M396.908 1622.07L463.087 1492.65M463.087 1492.65L574.787 1660.56M463.087 1492.65L609.454 1537.4M463.087 1492.65L508.945 1343.89L471.792 1360.94M339.625 1488L471.792 1360.94M471.792 1360.94L371.021 1369.32M471.792 1360.94L412.446 1341.49" stroke="url(#paint1_radial_1296_2303)" stroke-width="3.4242"/>
</g>
<g opacity="0.41">
<path d="M394.551 990.544L347.436 839.108L473.5 819.55L438.854 759.963L577.284 804.639L505.946 889.671L520.281 966.418L559.854 1068.36L551.161 1109.73L518.047 1065.59L438.249 1021.99L394.551 990.544Z" fill="url(#paint2_linear_1296_2303)" fill-opacity="0.11"/>
<path d="M507.028 1128.83L438.249 1021.99M347.436 839.108L394.551 990.544L438.249 1021.99M347.436 839.108L520.281 966.418M347.436 839.108L518.047 1065.59M347.436 839.108L473.5 819.55M520.281 966.418L559.854 1068.36L551.161 1109.73L518.047 1065.59M520.281 966.418L518.047 1065.59M520.281 966.418L505.946 889.671L577.284 804.639M438.249 1021.99L518.047 1065.59M577.284 804.639L476.538 819.078L473.5 819.55M577.284 804.639L438.854 759.963L473.5 819.55" stroke="url(#paint3_radial_1296_2303)" stroke-width="3.4242"/>
</g>
<g opacity="0.41">
<path d="M419.87 1297.38L367.458 1218.51L496.56 1198.48L411.636 1171.77L508.009 1123.81L496.56 1198.48L540.303 1345.82L476.726 1324.19L468.365 1359.71L419.87 1297.38Z" fill="url(#paint4_linear_1296_2303)" fill-opacity="0.11"/>
<path d="M367.458 1218.51L419.87 1297.38L468.365 1359.71L476.726 1324.19M367.458 1218.51L540.303 1345.82M367.458 1218.51L476.726 1324.19M367.458 1218.51L496.56 1198.48M540.303 1345.82L476.726 1324.19M540.303 1345.82L496.56 1198.48M496.56 1198.48L508.009 1123.81L411.636 1171.77L496.56 1198.48ZM496.56 1198.48L618.315 1213.78" stroke="url(#paint5_radial_1296_2303)" stroke-width="3.4242"/>
</g>
<g opacity="0.41">
<path d="M578.737 804.286L470.17 705.152L452.025 583.447L520.631 543.384L646.456 575.753L670.627 634.606L570.399 669.879L659.787 798.619L578.737 804.286Z" fill="url(#paint6_linear_1296_2303)" fill-opacity="0.48"/>
<path d="M470.17 705.152L578.737 804.286L659.787 798.619M470.17 705.152L452.025 583.447M470.17 705.152L516.979 598.648M470.17 705.152L386.773 706.412L437.523 757.37M470.17 705.152L570.399 669.879M452.025 583.447L670.627 634.606M452.025 583.447L520.631 543.384L646.456 575.753M670.627 634.606L570.399 669.879M670.627 634.606L646.456 575.753M646.456 575.753L665.999 552.992M646.456 575.753L769.613 615.345M570.399 669.879L659.787 798.619M659.787 798.619L778.978 837.563" stroke="url(#paint7_radial_1296_2303)" stroke-width="3.4242"/>
</g>
<g opacity="0.28">
<path d="M228.084 20.5374L217.73 -59.8271L288.077 -71.609L253.906 -131.261C294.859 -116.328 379.787 -86.969 391.871 -88.9929L288.077 -71.609L331.197 -11.5098L385.467 -34.5121L422.126 91.6498L349.128 292.91L285.395 296.493L278.981 284.484L204.613 416.839L99.9699 284.777L196.196 129.49L163.005 34.6286L228.084 20.5374Z" fill="url(#paint8_linear_1296_2303)" fill-opacity="0.11"/>
<path d="M453.097 38.1515L463.974 -25.3888L619.773 -51.4827L556.981 -238.31L662.736 -168.486L619.773 -51.4827L662.926 20.7372L631.295 168.309L558.904 133.452L582.769 275.94L533.627 262.009L522.014 214.092L471.853 150.137L453.097 38.1515Z" fill="url(#paint9_linear_1296_2303)" fill-opacity="0.11"/>
<path d="M385.467 -34.5121L331.197 -11.5098M385.467 -34.5121L383.716 98.0829M385.467 -34.5121L348.177 16.2773M385.467 -34.5121L422.126 91.6498L349.128 292.91M74.6525 62.0882L163.005 34.6286M228.084 20.5374L217.73 -59.8271M228.084 20.5374L331.197 -11.5098M228.084 20.5374L196.196 129.49M228.084 20.5374L163.005 34.6286M217.73 -59.8271L48.0442 -96.7825M217.73 -59.8271L288.077 -71.609M391.871 -88.9929L250.329 -214.874L170.688 -340.707M391.871 -88.9929L128.682 -273.615M391.871 -88.9929C379.787 -86.969 294.859 -116.328 253.906 -131.261L288.077 -71.609M391.871 -88.9929L288.077 -71.609M288.077 -71.609L331.197 -11.5098M331.197 -11.5098L348.177 16.2773M383.716 98.0829L348.177 16.2773M383.716 98.0829L204.613 416.839L99.9699 284.777L196.196 129.49M383.716 98.0829L349.128 292.91M348.177 16.2773L196.196 129.49M196.196 129.49L163.005 34.6286M196.196 129.49L285.395 296.493L349.128 292.91M490.609 262.123L471.853 150.137M463.974 -25.3888L453.097 38.1515L471.853 150.137M463.974 -25.3888L558.904 133.452M463.974 -25.3888L522.014 214.092M463.974 -25.3888L619.773 -51.4827M558.904 133.452L582.769 275.94L533.627 262.009L522.014 214.092M558.904 133.452L522.014 214.092M558.904 133.452L631.295 168.309M471.853 150.137L522.014 214.092M631.295 168.309L662.926 20.7372M631.295 168.309L664.704 216.787M662.926 20.7372L619.773 -51.4827M662.926 20.7372L739.766 38.4501M619.773 -51.4827L662.736 -168.486M619.773 -51.4827L556.981 -238.31M662.736 -168.486L556.981 -238.31M662.736 -168.486L734.503 -210.202M556.981 -238.31L540.806 -334.883M556.981 -238.31L592.615 -312.978" stroke="url(#paint10_radial_1296_2303)" stroke-opacity="0.75" stroke-width="2.90345"/>
</g>
<g opacity="0.41">
<path d="M476.363 1198.17L466.97 1288.36L387.409 1283.1L409.252 1356.85C368.536 1330.06 283.686 1276.24 270.019 1275.34L387.409 1283.1L335.614 1202.2L308.436 1135.76L342.194 1102.64L447.792 899.941L484.945 882.892L439.087 1031.65L550.787 1199.56L476.363 1198.17Z" fill="url(#paint11_linear_1296_2303)" fill-opacity="0.11"/>
<path d="M308.436 1135.76L335.614 1202.2M308.436 1135.76L342.194 1102.64M308.436 1135.76L372.908 1161.07M653.967 1192.37L550.787 1199.56M476.363 1198.17L466.97 1288.36M476.363 1198.17L335.614 1202.2M476.363 1198.17L439.087 1031.65M476.363 1198.17L550.787 1199.56M466.97 1288.36L642.079 1372.24M466.97 1288.36L387.409 1283.1M270.019 1275.34L391.652 1448.84L445.952 1606.36M270.019 1275.34L508.896 1544.09M270.019 1275.34C283.686 1276.24 368.536 1330.06 409.252 1356.85L387.409 1283.1M270.019 1275.34L387.409 1283.1M387.409 1283.1L335.614 1202.2M335.614 1202.2L372.908 1161.07M342.194 1102.64L372.908 1161.07M342.194 1102.64L447.792 899.941M372.908 1161.07L439.087 1031.65M439.087 1031.65L550.787 1199.56M439.087 1031.65L585.454 1076.4M439.087 1031.65L484.945 882.892L447.792 899.941M315.625 1027L447.792 899.941M447.792 899.941L347.021 908.316M447.792 899.941L388.446 880.488" stroke="url(#paint12_radial_1296_2303)" stroke-width="3.4242"/>
</g>
<g opacity="0.41">
<path d="M370.551 529.544L323.436 378.108L449.5 358.55L414.854 298.963L553.284 343.639L481.946 428.671L496.281 505.418L535.854 607.358L527.161 648.725L494.047 604.594L414.249 560.991L370.551 529.544Z" fill="url(#paint13_linear_1296_2303)" fill-opacity="0.11"/>
<path d="M483.028 667.829L414.249 560.991M323.436 378.108L370.551 529.544L414.249 560.991M323.436 378.108L496.281 505.418M323.436 378.108L494.047 604.594M323.436 378.108L449.5 358.55M496.281 505.418L535.854 607.358L527.161 648.725L494.047 604.594M496.281 505.418L494.047 604.594M496.281 505.418L481.946 428.671L553.284 343.639M414.249 560.991L494.047 604.594M553.284 343.639L452.538 358.078L449.5 358.55M553.284 343.639L414.854 298.963L449.5 358.55" stroke="url(#paint14_radial_1296_2303)" stroke-width="3.4242"/>
</g>
<g opacity="0.41">
<path d="M395.87 836.378L343.458 757.505L472.56 737.476L387.636 710.765L484.009 662.813L472.56 737.476L516.303 884.815L452.726 863.186L444.365 898.712L395.87 836.378Z" fill="url(#paint15_linear_1296_2303)" fill-opacity="0.11"/>
<path d="M343.458 757.505L395.87 836.378L444.365 898.712L452.726 863.186M343.458 757.505L516.303 884.815M343.458 757.505L452.726 863.186M343.458 757.505L472.56 737.476M516.303 884.815L452.726 863.186M516.303 884.815L472.56 737.476M472.56 737.476L484.009 662.813L387.636 710.765L472.56 737.476ZM472.56 737.476L594.315 752.784" stroke="url(#paint16_radial_1296_2303)" stroke-width="3.4242"/>
</g>
<g opacity="0.41">
<path d="M554.737 343.286L446.17 244.152L428.025 122.447L496.631 82.384L622.456 114.753L646.627 173.605L546.399 208.879L635.787 337.618L554.737 343.286Z" fill="url(#paint17_linear_1296_2303)" fill-opacity="0.48"/>
<path d="M446.17 244.152L554.737 343.286L635.787 337.618M446.17 244.152L428.025 122.447M446.17 244.152L492.979 137.648M446.17 244.152L362.773 245.412L413.523 296.37M446.17 244.152L546.399 208.879M428.025 122.447L646.627 173.605M428.025 122.447L496.631 82.384L622.456 114.753M646.627 173.605L546.399 208.879M646.627 173.605L622.456 114.753M622.456 114.753L641.999 91.992M622.456 114.753L745.613 154.345M546.399 208.879L635.787 337.618M635.787 337.618L754.978 376.563" stroke="url(#paint18_radial_1296_2303)" stroke-width="3.4242"/>
</g>
<defs>
<linearGradient id="paint0_linear_1296_2303" x1="636.541" y1="1505.04" x2="340.069" y2="1607.02" gradientUnits="userSpaceOnUse">
<stop stop-color="#787878"/>
<stop offset="1" stop-color="#FF00FF"/>
</linearGradient>
<radialGradient id="paint1_radial_1296_2303" cx="0" cy="0" r="1" gradientUnits="userSpaceOnUse" gradientTransform="translate(254.751 1612.18) rotate(-3.45891) scale(430.893 458.873)">
<stop stop-color="white"/>
<stop offset="1" stop-color="#999999" stop-opacity="0"/>
</radialGradient>
<linearGradient id="paint2_linear_1296_2303" x1="112.979" y1="1201.28" x2="290.396" y2="942.788" gradientUnits="userSpaceOnUse">
<stop stop-color="#787878"/>
<stop offset="1" stop-color="#FF00FF"/>
</linearGradient>
<radialGradient id="paint3_radial_1296_2303" cx="0" cy="0" r="1" gradientUnits="userSpaceOnUse" gradientTransform="translate(320.89 830.655) rotate(131.438) scale(445.826 474.776)">
<stop stop-color="white"/>
<stop offset="1" stop-color="#999999" stop-opacity="0"/>
</radialGradient>
<linearGradient id="paint4_linear_1296_2303" x1="133.002" y1="1580.68" x2="310.418" y2="1322.19" gradientUnits="userSpaceOnUse">
<stop stop-color="#787878"/>
<stop offset="1" stop-color="#FF00FF"/>
</linearGradient>
<radialGradient id="paint5_radial_1296_2303" cx="0" cy="0" r="1" gradientUnits="userSpaceOnUse" gradientTransform="translate(343.078 1246.2) rotate(27.4732) scale(236.426 251.778)">
<stop stop-color="white"/>
<stop offset="1" stop-color="#999999" stop-opacity="0"/>
</radialGradient>
<linearGradient id="paint6_linear_1296_2303" x1="775.961" y1="677.611" x2="402.316" y2="607.722" gradientUnits="userSpaceOnUse">
<stop stop-color="#737373" stop-opacity="0"/>
<stop offset="1" stop-color="#670450"/>
</linearGradient>
<radialGradient id="paint7_radial_1296_2303" cx="0" cy="0" r="1" gradientUnits="userSpaceOnUse" gradientTransform="translate(329.434 909.055) rotate(158.388) scale(445.826 474.776)">
<stop stop-color="white"/>
<stop offset="1" stop-color="#999999" stop-opacity="0"/>
</radialGradient>
<linearGradient id="paint8_linear_1296_2303" x1="141.198" y1="182.58" x2="378.241" y2="32.7656" gradientUnits="userSpaceOnUse">
<stop stop-color="#787878"/>
<stop offset="1" stop-color="#FF00FF"/>
</linearGradient>
<linearGradient id="paint9_linear_1296_2303" x1="141.198" y1="182.58" x2="378.241" y2="32.7656" gradientUnits="userSpaceOnUse">
<stop stop-color="#787878"/>
<stop offset="1" stop-color="#FF00FF"/>
</linearGradient>
<radialGradient id="paint10_radial_1296_2303" cx="0" cy="0" r="1" gradientTransform="matrix(-360.585 170.311 -181.419 -383.561 443.044 -48.3659)" gradientUnits="userSpaceOnUse">
<stop stop-color="white"/>
<stop offset="1" stop-color="#999999" stop-opacity="0"/>
</radialGradient>
<linearGradient id="paint11_linear_1296_2303" x1="612.541" y1="1044.04" x2="316.069" y2="1146.02" gradientUnits="userSpaceOnUse">
<stop stop-color="#787878"/>
<stop offset="1" stop-color="#FF00FF"/>
</linearGradient>
<radialGradient id="paint12_radial_1296_2303" cx="0" cy="0" r="1" gradientUnits="userSpaceOnUse" gradientTransform="translate(230.751 1151.18) rotate(-3.45891) scale(430.893 458.873)">
<stop stop-color="white"/>
<stop offset="1" stop-color="#999999" stop-opacity="0"/>
</radialGradient>
<linearGradient id="paint13_linear_1296_2303" x1="88.9795" y1="740.283" x2="266.396" y2="481.788" gradientUnits="userSpaceOnUse">
<stop stop-color="#787878"/>
<stop offset="1" stop-color="#FF00FF"/>
</linearGradient>
<radialGradient id="paint14_radial_1296_2303" cx="0" cy="0" r="1" gradientUnits="userSpaceOnUse" gradientTransform="translate(296.89 369.655) rotate(131.438) scale(445.826 474.776)">
<stop stop-color="white"/>
<stop offset="1" stop-color="#999999" stop-opacity="0"/>
</radialGradient>
<linearGradient id="paint15_linear_1296_2303" x1="109.002" y1="1119.68" x2="286.418" y2="861.186" gradientUnits="userSpaceOnUse">
<stop stop-color="#787878"/>
<stop offset="1" stop-color="#FF00FF"/>
</linearGradient>
<radialGradient id="paint16_radial_1296_2303" cx="0" cy="0" r="1" gradientUnits="userSpaceOnUse" gradientTransform="translate(319.078 785.203) rotate(27.4732) scale(236.426 251.778)">
<stop stop-color="white"/>
<stop offset="1" stop-color="#999999" stop-opacity="0"/>
</radialGradient>
<linearGradient id="paint17_linear_1296_2303" x1="751.961" y1="216.611" x2="378.316" y2="146.722" gradientUnits="userSpaceOnUse">
<stop stop-color="#737373" stop-opacity="0"/>
<stop offset="1" stop-color="#670450"/>
</linearGradient>
<radialGradient id="paint18_radial_1296_2303" cx="0" cy="0" r="1" gradientUnits="userSpaceOnUse" gradientTransform="translate(305.434 448.054) rotate(158.388) scale(445.826 474.776)">
<stop stop-color="white"/>
<stop offset="1" stop-color="#999999" stop-opacity="0"/>
</radialGradient>
</defs>
</svg>
