<svg width="981" height="382" viewBox="0 0 981 382" fill="none" xmlns="http://www.w3.org/2000/svg">
<g opacity="0.1">
<path d="M409.968 204.379L319.359 200.955L319.359 121.22L247.206 147.88C271.257 105.485 319.359 17.2714 319.359 3.57461L319.359 121.22L396.665 64.2032L461.165 32.7033L496.441 64.2033L705.665 156.203L725.126 192.15L573.665 156.203L413.491 278.733L409.968 204.379Z" fill="url(#paint0_linear_36_1168)" fill-opacity="0.11"/>
<path d="M461.165 32.7033L396.665 64.2032M461.165 32.7033L496.441 64.2033M461.165 32.7033L440.165 98.7033M427.465 381.215L413.491 278.733M409.968 204.379L319.359 200.955M409.968 204.379L396.665 64.2032M409.968 204.379L573.665 156.203M409.968 204.379L413.491 278.733M319.359 200.955L247.206 381.215M319.359 200.955L319.359 121.22M319.359 3.57461L154.263 136.385L0.663407 200.955M319.359 3.57461L66.9461 259.656M319.359 3.57461C319.359 17.2714 271.257 105.485 247.206 147.88L319.359 121.22M319.359 3.57461L319.359 121.22M319.359 121.22L396.665 64.2032M396.665 64.2032L440.165 98.7033M496.441 64.2033L440.165 98.7033M496.441 64.2033L705.665 156.203M440.165 98.7033L573.665 156.203M573.665 156.203L413.491 278.733M573.665 156.203L538.665 305.203M573.665 156.203L725.126 192.15L705.665 156.203M570.165 32.7033L705.665 156.203M705.665 156.203L690.662 56.2032M705.665 156.203L721.162 95.7032" stroke="url(#paint1_radial_36_1168)" stroke-width="3.4242"/>
</g>
<g opacity="0.1">
<path d="M765.663 100.203L840.907 42.7029L869.407 170.203L890.459 83.7029L944.663 176.703L869.407 170.203L725.273 223.568L742.663 158.703L706.663 152.703L765.663 100.203Z" fill="url(#paint2_linear_36_1168)" fill-opacity="0.11"/>
<path d="M840.907 42.7029L765.663 100.203L706.663 152.703L742.663 158.703M840.907 42.7029L725.273 223.568M840.907 42.7029L742.663 158.703M840.907 42.7029L869.407 170.203M725.273 223.568L742.663 158.703M725.273 223.568L869.407 170.203M869.407 170.203L944.663 176.703L890.459 83.7029L869.407 170.203ZM869.407 170.203L862.162 292.703" stroke="url(#paint3_radial_36_1168)" stroke-width="3.4242"/>
</g>
<defs>
<linearGradient id="paint0_linear_36_1168" x1="572.746" y1="330.097" x2="451.431" y2="40.9962" gradientUnits="userSpaceOnUse">
<stop stop-color="#787878"/>
<stop offset="1" stop-color="#FF00FF"/>
</linearGradient>
<radialGradient id="paint1_radial_36_1168" cx="0" cy="0" r="1" gradientUnits="userSpaceOnUse" gradientTransform="translate(440.662 -43.7968) rotate(82.7597) scale(430.893 458.873)">
<stop stop-color="white"/>
<stop offset="1" stop-color="#999999" stop-opacity="0"/>
</radialGradient>
<linearGradient id="paint2_linear_36_1168" x1="464.057" y1="-167.357" x2="733.69" y2="-7.37522" gradientUnits="userSpaceOnUse">
<stop stop-color="#787878"/>
<stop offset="1" stop-color="#FF00FF"/>
</linearGradient>
<radialGradient id="paint3_radial_36_1168" cx="0" cy="0" r="1" gradientUnits="userSpaceOnUse" gradientTransform="translate(811.662 20.2029) rotate(113.692) scale(236.426 251.778)">
<stop stop-color="white"/>
<stop offset="1" stop-color="#999999" stop-opacity="0"/>
</radialGradient>
</defs>
</svg>
