<svg width="131" height="108" viewBox="0 0 131 108" fill="none" xmlns="http://www.w3.org/2000/svg">
<path d="M109.101 0.104861C111.766 -0.413121 114.496 0.615268 116.158 2.76237C116.177 2.78796 118.164 5.50517 117.063 10.3512L111.986 20.6807L121.277 29.6254C122.863 31.1524 123.643 33.3005 123.452 35.4438C123.496 35.6073 123.534 35.7735 123.567 35.9418L124.959 43.1061C125.26 44.6536 125.04 46.1813 124.421 47.5088C124.441 47.5945 124.46 47.6815 124.477 47.7686L125.836 54.7606C125.854 54.7785 126.89 55.8517 127.506 56.8372C128.127 57.831 128.406 59.4567 128.406 59.4567L129.799 66.6209C130.163 68.4927 130.354 70.3849 129.287 71.9656C129.27 71.984 128.05 73.2538 127.279 73.5L104.589 78.1213C105.892 88.3655 100.842 100.624 87.4468 103.228C84.7691 103.748 82.1669 103.774 79.7057 103.362C78.504 104.178 77.1197 104.77 75.6011 105.065L69.2642 106.297C68.0665 106.53 66.8766 106.559 65.7305 106.41C63.6844 107.524 61.4903 108.273 59.289 108.701C51.9403 110.129 45.4104 108.456 40.2328 104.582C36.2791 101.624 34.8495 96.508 36.4167 92.0485C35.9497 92.17 35.478 92.2794 35.0013 92.3721L20.845 95.1235C16.9471 95.881 13.173 93.3355 12.4154 89.4377L6.44262 58.7081C6.36135 58.29 6.31759 57.8719 6.31043 57.4583C6.16214 57.0721 6.04539 56.6685 5.9641 56.2503L0.575107 28.5247C-0.182385 24.627 2.3632 20.8529 6.26089 20.0951L14.0491 18.581C15.7492 18.2505 17.426 18.5485 18.839 19.3129C19.8627 18.0751 21.3055 17.1709 23.0055 16.8404L30.7937 15.3264C32.6654 14.9627 34.605 15.3576 36.1857 16.4238C36.4673 16.6137 36.7337 16.8218 36.9829 17.0467C37.9548 15.0482 39.8216 13.5715 42.0775 13.133L50.0205 11.5889C52.9592 11.0176 55.9446 12.3275 57.5145 14.8766L57.8291 15.3868C61.1344 11.053 66.0969 7.97912 71.868 6.85725C74.6996 6.30684 77.4868 6.23702 80.1465 6.6268C81.0434 5.88269 82.1348 5.34692 83.3607 5.10856L91.1489 3.59447C92.7598 3.28134 94.3496 3.53267 95.7141 4.21021C96.7486 3.04671 98.148 2.23385 99.7159 1.92908L109.101 0.104861Z" fill="#161616"/>
<path d="M93.6343 50.0174L84.3986 51.8126L87.0835 65.1252C92.6433 66.5561 96.528 71.5624 97.6465 77.3167L97.6594 77.38C99.1512 85.0549 95.5611 93.4147 86.7769 95.1224C83.3445 95.7896 80.2786 95.2254 77.7286 93.8338C77.6061 95.3466 76.494 96.6554 74.9312 96.9593L68.5933 98.1912C67.4091 98.4213 66.2485 98.0197 65.4597 97.2213C63.6388 98.9534 61.2442 100.085 58.6191 100.595C53.3491 101.62 49.0047 100.424 45.5673 97.8518C44.0856 96.7429 43.734 94.666 44.769 93.1316L47.9156 88.4686C48.0634 88.2495 48.2338 88.0492 48.4238 87.8717L47.7103 86.4396C47.3702 85.7575 47.2698 84.9975 47.4 84.2748L47.1518 84.3231C46.2481 84.4987 45.3115 84.308 44.5484 83.7932C43.7854 83.2785 43.2585 82.4817 43.0827 81.5782L42.4797 78.4809C41.6811 82.1553 38.4651 85.0164 33.6002 85.9622L19.4439 88.7145L13.4702 57.985L28.1443 55.1328C33.7549 54.0422 38.1298 56.7301 39.0526 61.4775C39.5811 64.1966 38.792 66.5897 36.7215 68.3806C39.709 69.2904 41.6752 71.411 42.3952 74.3626C42.8576 73.4207 43.7407 72.6993 44.8501 72.4835L49.2391 71.6294L48.9546 70.2123L34.6691 53.8644L44.5949 51.935L51.5848 60.4745L54.8673 49.9381L64.578 48.0505L57.5192 68.1895L57.884 69.949L61.0456 69.3351C62.9273 68.9694 64.7498 70.1983 65.1156 72.08L65.9795 76.5294C66.1729 77.5245 65.9222 78.5543 65.2923 79.3485L64.1015 80.849C64.2324 80.9253 64.363 81.0049 64.4915 81.0883C65.8911 81.9973 66.9945 83.2486 67.7317 84.8097L70.469 84.2775C70.3314 83.7918 70.2139 83.2985 70.117 82.8L70.1041 82.7367C68.78 75.9244 71.4842 68.58 78.2115 65.8182L75.7664 53.4899L66.5736 55.2766L65.1475 47.94L92.2082 42.6798L93.6343 50.0174ZM45.5131 75.8904L46.4896 80.9152L55.0673 79.2486L50.8165 84.891L52.3408 87.9489L54.9651 87.4391C57.3014 86.985 58.7818 87.5939 59.062 89.0339L59.0748 89.0981C59.3423 90.4744 58.3959 91.588 56.6356 91.9302C55.2161 92.2061 53.879 92.0035 52.5537 91.4135C52.0424 91.1858 51.5328 90.9008 51.021 90.5631C50.9451 90.513 50.8687 90.4613 50.7927 90.4089L47.6471 95.0729C47.9862 95.3266 48.3368 95.5641 48.6997 95.7832C49.3295 96.1634 49.9962 96.4887 50.7022 96.7503C52.7591 97.5124 55.1523 97.7322 57.956 97.1872C60.7138 96.6512 62.889 95.3066 64.1348 93.4441C65.0146 92.1287 65.4315 90.5552 65.2624 88.826C65.2374 88.5709 65.1991 88.3121 65.1483 88.0506L65.1364 87.9863C64.9842 87.2031 64.7387 86.5263 64.4161 85.9449C63.8151 84.8619 62.9455 84.109 61.9092 83.6123C60.7961 83.0788 59.4901 82.841 58.1172 82.8072L62.5726 77.1915L61.7077 72.7421L45.5131 75.8904ZM66.7186 88.5428L67.9312 94.7843L74.2691 93.5524L73.0555 87.3109L66.7186 88.5428ZM94.2396 77.9788C93.0078 71.6416 88.018 67.1641 81.6487 68.4022C75.2798 69.6404 72.2804 75.7366 73.512 82.0736L73.5239 82.1379C73.6464 82.7684 73.8062 83.3807 74.0003 83.9707C74.3428 85.012 74.7932 85.9844 75.3391 86.8667C75.7938 87.6015 76.3147 88.2742 76.8949 88.8721C79.1898 91.237 82.4101 92.4344 86.1138 91.7145C92.5151 90.4702 95.4833 84.3794 94.2515 78.0421L94.2396 77.9788ZM82.6553 73.9196C85.1197 73.4407 87.3204 75.703 88.0109 79.2557L88.0228 79.3199C88.7133 82.8725 87.6046 85.7117 85.1082 86.1971C82.6117 86.6823 80.4494 84.4457 79.7525 80.861L79.7407 80.7967C79.0439 77.2121 80.1908 74.3987 82.6553 73.9196ZM33.8602 76.0137C33.4575 73.9421 31.7903 72.9667 29.5892 73.3945L25.4026 74.2089L26.6946 80.8554L30.8812 80.0409C33.0821 79.6131 34.2626 78.0851 33.8602 76.0137ZM117.872 45.1268L103.285 47.9619L104.14 52.3646L117.39 49.7883L118.748 56.7803L105.499 59.3557L106.473 64.3619L121.319 61.4764L122.712 68.6406L99.2332 73.2044L93.2595 42.4759L116.479 37.9625L117.872 45.1268ZM30.683 64.0449C30.3055 62.1029 28.7914 61.4563 26.9356 61.817L23.1373 62.5553L24.2448 68.2526L28.043 67.5144C29.8557 67.162 31.0606 65.987 30.683 64.0449ZM37.5245 50.7584L29.7372 52.2715L27.6179 41.3684L18.6615 43.1099L20.7809 54.0131L12.9926 55.5262L7.60363 27.8015L15.3919 26.2875L17.405 36.6455L26.3613 34.905L24.3472 24.5469L32.1355 23.0328L37.5245 50.7584ZM67.1881 44.9918L59.0884 46.566L56.662 42.1888L46.8491 44.0966L46.1995 49.0716L38.2565 50.6158L43.4192 20.8395L51.3632 19.2953L67.1881 44.9918ZM73.2107 14.5637C77.533 13.7235 81.4343 14.4606 84.5439 16.3213L80.3794 22.5453C78.8684 21.4247 76.9177 20.9558 74.5424 21.4175C70.3762 22.2275 68.0084 25.6374 68.9015 30.2321C69.8022 34.866 73.2828 37.1799 77.4494 36.37C79.7857 35.9159 81.4725 34.8201 82.5629 33.1533L88.7945 37.3567C86.4915 40.2695 83.4928 42.308 78.859 43.2088C70.3703 44.8585 62.5621 40.0314 60.9575 31.7763C59.3529 23.5211 64.7219 16.2138 73.2107 14.5637ZM103.235 22.9121L116.261 35.4533L106.915 37.27L95.2613 25.5526L97.8806 39.0256L90.0924 40.5396L84.7034 12.815L92.4917 11.3009L94.8911 23.6447L101.058 9.63556L110.442 7.81134L103.235 22.9121ZM47.7323 37.6203L53.4559 36.5075L48.9796 28.4467L47.7323 37.6203Z" fill="white"/>
<path fill-rule="evenodd" clip-rule="evenodd" d="M86.1252 91.7047C79.7239 92.949 74.7668 88.4652 73.535 82.128L73.5225 82.064C72.2907 75.7267 75.2908 69.6298 81.66 68.3917C88.0293 67.1537 93.0184 71.6312 94.2502 77.9685L94.2627 78.0325C95.4945 84.3697 92.5264 90.4605 86.1252 91.7047ZM85.1191 86.1872C87.6156 85.7019 88.7244 82.8624 88.0339 79.3097L88.0214 79.2457C87.3309 75.693 85.1306 73.4302 82.6661 73.9092C80.2016 74.3883 79.0545 77.2021 79.7513 80.7868L79.7638 80.8508C80.4606 84.4355 82.6226 86.6725 85.1191 86.1872ZM67.9424 94.7738L66.7292 88.5326L73.0665 87.3007L74.2796 93.542L67.9424 94.7738ZM47.658 95.0628C50.301 97.0402 53.6465 98.0175 57.9674 97.1776C62.9604 96.2071 66.0429 92.5852 65.1595 88.0403L65.1471 87.9763C64.4067 84.1676 61.4658 82.8792 58.1283 82.7972L62.5837 77.1813L61.7189 72.7324L45.5237 75.8805L46.5005 80.9055L55.0782 79.2381L50.8272 84.8807L52.3518 87.9391L54.9763 87.4289C57.3128 86.9748 58.793 87.5839 59.073 89.0242L59.0854 89.0882C59.3529 90.4644 58.4069 91.5784 56.6466 91.9205C54.5981 92.3187 52.7214 91.7203 50.8038 90.399L47.658 95.0628Z" fill="#FF3044"/>
</svg>
