<svg width="320" height="298" viewBox="0 0 320 298" fill="none" xmlns="http://www.w3.org/2000/svg">
<path d="M284.475 92.9892C289.643 94.4434 293.598 98.6202 294.699 103.786C294.71 103.845 295.897 110.28 289.783 117.667L271.917 131.008L280.695 154.611C282.193 158.641 281.731 163.031 279.552 166.558C279.489 166.879 279.414 167.199 279.328 167.519L275.642 181.097C274.846 184.03 273.143 186.471 270.907 188.215C270.869 188.38 270.827 188.546 270.783 188.711L267.185 201.963C267.185 201.963 268.112 204.754 268.359 207.014C268.605 209.266 267.712 212.3 267.706 212.323L264.019 225.903C263.056 229.45 261.77 232.882 258.523 234.668C258.523 234.668 255.235 235.8 253.646 235.544L209.474 223.532C202.983 242.342 183.504 259.029 157.532 251.721C152.34 250.26 147.706 248.013 143.699 245.136C140.869 245.484 137.909 245.285 134.964 244.456L122.676 241C120.354 240.346 118.22 239.349 116.317 238.084C111.735 238.202 107.204 237.56 102.936 236.359C88.6873 232.35 78.5535 223.714 72.7061 212.476C68.2415 203.895 70.0997 193.814 76.7054 187.505C75.7738 187.303 74.8445 187.074 73.9205 186.814L46.4729 179.091C38.915 176.964 34.4134 169.251 36.4189 161.863L52.2299 103.621C52.4451 102.828 52.7273 102.069 53.07 101.349C53.1389 100.553 53.2798 99.7542 53.495 98.9615L67.7599 46.4123C69.7655 39.0244 77.5175 34.7592 85.0753 36.8856L100.176 41.1339C103.472 42.0614 106.187 44.0521 108.034 46.6143C110.911 45.3813 114.245 45.0925 117.541 46.0198L132.642 50.2691C136.271 51.2902 139.369 53.6787 141.255 56.9094C141.591 57.4848 141.883 58.0791 142.132 58.6864C145.571 56.0963 150.147 55.1939 154.521 56.4246L169.923 60.7589C175.621 62.3622 179.786 67.2487 180.379 73.0264L180.498 74.1829C190.077 69.6218 201.511 68.693 212.701 71.8415C218.191 73.3863 223.189 75.7206 227.567 78.735C229.796 78.2417 232.191 78.2784 234.569 78.9474L249.668 83.1962C252.792 84.075 255.393 85.908 257.229 88.2778C260.061 87.1829 263.239 87.0138 266.279 87.8691L284.475 92.9892Z" fill="#161616"/>
<path d="M214.184 165.426L196.276 160.387L189.6 185.708C198.222 193.072 200.805 205.123 197.844 216.029L197.811 216.15C193.862 230.697 180.321 241.948 163.289 237.156C156.634 235.283 151.686 231.612 148.363 226.968C146.847 229.468 143.751 230.744 140.721 229.892L128.433 226.434C126.137 225.788 124.425 224.074 123.713 222.002C118.998 223.385 113.783 223.225 108.693 221.793C98.4748 218.918 91.8046 213.032 87.9226 205.571C86.2488 202.354 87.4107 198.463 90.563 196.729L100.143 191.459C100.593 191.211 101.068 191.017 101.557 190.879L101.521 187.779C101.505 186.303 101.981 184.906 102.833 183.774L102.351 183.639C100.599 183.146 99.1024 181.993 98.1923 180.433C97.2821 178.873 97.0324 177.035 97.4974 175.322L99.0878 169.463C94.5149 175.089 86.3574 177.183 76.929 174.53L49.4815 166.807L65.2916 108.564L93.7436 116.57C104.622 119.631 110.065 128.118 107.622 137.116C106.223 142.27 102.77 145.7 97.5626 146.964C102.076 151.165 103.738 156.554 102.478 162.278C104.106 161.061 106.291 160.594 108.442 161.199L116.952 163.593L117.665 160.897L106.394 120.129L125.641 125.545L130.692 146.424L145.558 131.148L164.386 136.446L134.579 164.952L133.714 168.309L139.844 170.034C143.492 171.061 145.665 174.784 144.697 178.35L142.409 186.783C141.897 188.669 140.566 190.224 138.767 191.038L135.37 192.577C135.536 192.824 135.698 193.076 135.854 193.333C137.553 196.133 138.435 199.262 138.4 202.603L143.707 204.096C143.88 203.137 144.095 202.184 144.352 201.239L144.385 201.118C147.89 188.206 158.99 177.926 173.284 179.089L179.54 155.678L161.716 150.663L165.491 136.757L217.96 151.52L214.184 165.426ZM106.689 167.656L104.104 177.18L120.736 181.86L108.356 187.845L108.431 194.461L113.52 195.894C118.05 197.168 120.149 199.522 119.408 202.252L119.376 202.372C118.668 204.981 116.035 206.068 112.622 205.108C109.869 204.334 107.673 202.807 105.832 200.623C105.121 199.78 104.463 198.839 103.846 197.805C103.755 197.652 103.664 197.497 103.574 197.34L93.9946 202.61C94.3776 203.346 94.7954 204.064 95.2502 204.762C96.0397 205.972 96.9413 207.121 97.9678 208.194C100.958 211.319 105.01 213.806 110.446 215.336C115.793 216.84 120.803 216.437 124.61 214.323C127.299 212.83 129.388 210.483 130.574 207.352C130.749 206.89 130.904 206.411 131.039 205.916L131.072 205.794C131.475 204.31 131.621 202.927 131.549 201.641C131.414 199.244 130.52 197.18 129.111 195.411C127.597 193.511 125.487 191.95 123.083 190.683L135.802 184.924L138.091 176.492L106.689 167.656ZM133.398 208.147L130.186 219.977L142.474 223.433L145.685 211.604L133.398 208.147ZM191.238 214.17C194.499 202.159 189.504 190.044 177.154 186.57C164.805 183.095 154.252 190.965 150.991 202.976L150.958 203.098C150.634 204.293 150.391 205.489 150.228 206.677C149.94 208.774 149.903 210.848 150.112 212.85C150.287 214.517 150.633 216.136 151.148 217.678C153.183 223.776 157.86 228.678 165.042 230.698C177.454 234.19 187.945 226.302 191.206 214.291L191.238 214.17ZM174.198 196.969C178.976 198.313 180.932 204.153 179.104 210.887L179.071 211.008C177.243 217.741 172.839 221.66 167.999 220.298C163.158 218.937 161.248 213.176 163.093 206.382L163.126 206.26C164.97 199.466 169.419 195.624 174.198 196.969ZM85.9369 157.605C87.0027 153.679 84.885 150.53 80.6173 149.329L72.5003 147.045L69.0805 159.642L77.1984 161.926C81.4661 163.127 84.8711 161.532 85.9369 157.605ZM261.335 178.34L233.05 170.381L230.785 178.725L256.475 185.954L252.878 199.205L227.187 191.977L224.612 201.466L253.399 209.565L249.712 223.145L204.189 210.336L219.999 152.094L265.02 164.761L261.335 178.34ZM90.5868 134.172C91.586 130.491 89.4584 128.043 85.8601 127.031L78.4959 124.959L75.5649 135.756L82.9292 137.828C86.4438 138.817 89.5876 137.853 90.5868 134.172ZM114.123 117.288L99.0226 113.039L104.633 92.3737L87.2675 87.4878L81.6572 108.154L66.5567 103.905L80.8216 51.3554L95.9221 55.6047L90.5931 75.2366L107.958 80.1225L113.288 60.4897L128.388 64.7389L114.123 117.288ZM171.639 133.471L155.934 129.053L155.394 119.368L136.367 114.014L130.944 122.021L115.541 117.687L150.267 70.8954L165.669 75.2288L171.639 133.471ZM208.448 86.3114C216.828 88.6694 223.109 93.376 227.021 99.3226L214.294 106.387C212.579 103.124 209.527 100.597 204.921 99.3007C196.842 97.0278 189.717 100.822 187.353 109.531C184.969 118.314 189.149 125.369 197.228 127.642C201.758 128.916 205.687 128.513 209.051 126.6L216.484 139.336C209.901 142.33 202.837 143.202 193.853 140.674C177.393 136.043 167.703 120.844 171.95 105.198C176.198 89.5512 191.988 81.6803 208.448 86.3114ZM254.478 127.147L266.787 160.242L248.666 155.144L238.082 124.679L231.15 150.215L216.05 145.966L230.315 93.4172L245.415 97.6661L239.064 121.062L262.025 102.34L280.221 107.459L254.478 127.147ZM143.495 103.626L154.594 106.749L153.586 88.909L143.495 103.626Z" fill="white"/>
<path fill-rule="evenodd" clip-rule="evenodd" d="M165.082 230.692C152.671 227.2 147.738 215.103 150.999 203.092L151.032 202.971C154.292 190.959 164.845 183.089 177.195 186.564C189.545 190.039 194.539 202.153 191.279 214.164L191.246 214.285C187.985 226.297 177.494 234.184 165.082 230.692ZM168.039 220.293C172.88 221.655 177.283 217.736 179.111 211.002L179.144 210.881C180.972 204.147 179.017 198.308 174.238 196.963C169.46 195.619 165.01 199.46 163.166 206.254L163.133 206.376C161.289 213.17 163.198 218.931 168.039 220.293ZM130.227 219.97L133.438 208.141L145.725 211.598L142.514 223.427L130.227 219.97ZM94.0347 202.604C97.0197 208.341 102.108 212.973 110.486 215.33C120.167 218.054 128.741 214.524 131.079 205.91L131.112 205.788C133.072 198.569 128.967 193.758 123.124 190.677L135.842 184.918L138.131 176.486L106.729 167.651L104.144 177.175L120.776 181.855L108.397 187.84L108.471 194.455L113.56 195.887C118.09 197.162 120.19 199.516 119.449 202.246L119.416 202.367C118.708 204.975 116.075 206.063 112.661 205.103C108.69 203.985 105.878 201.3 103.615 197.333L94.0347 202.604Z" fill="#FF3044"/>
</svg>
