<svg width="102" height="94" viewBox="0 0 102 94" fill="none" xmlns="http://www.w3.org/2000/svg">
<path d="M40.0772 81.2067L39.039 75.9438L25.8817 78.5394L23.6362 73.4744L34.3856 53.9858L41.9316 52.4971L45.1685 68.905L48.6126 68.2256L49.7196 73.8367L46.2755 74.5162L47.3137 79.7791L40.0772 81.2067ZM31.4384 71.6538L37.9397 70.3713L36.3976 62.5543L31.4384 71.6538Z" fill="#FF3044"/>
<path d="M52.7489 78.7068L51.2603 71.1608L58.8837 69.6568L60.3724 77.2029L52.7489 78.7068Z" fill="#FF3044"/>
<path d="M74.7074 74.9378C67.0065 76.457 60.956 71.0572 59.4444 63.3951L59.4292 63.3177C57.9176 55.6555 61.5262 48.2698 69.2271 46.7506C76.928 45.2314 82.9785 50.6312 84.4901 58.2933L84.5053 58.3707C86.0169 66.0329 82.4469 73.411 74.7074 74.9378ZM73.4717 68.2665C76.4901 67.6711 77.8219 64.2322 76.9745 59.9368L76.9593 59.8594C76.1042 55.5252 73.4349 52.7953 70.4551 53.3832C67.4754 53.971 66.1049 57.4175 66.96 61.7516L66.9752 61.829C67.8379 66.2018 70.492 68.8544 73.4717 68.2665Z" fill="#FF3044"/>
<path d="M73.4717 68.2665C76.4901 67.6711 77.8219 64.2322 76.9745 59.9368L76.9593 59.8594C76.1042 55.5252 73.4349 52.7953 70.4551 53.3832C67.4754 53.971 66.1049 57.4175 66.96 61.7516L66.9752 61.829C67.8379 66.2018 70.492 68.8544 73.4717 68.2665Z" fill="white"/>
<path d="M68.0073 40.57C80.0267 38.1989 88.68 46.9796 90.6714 57.0739L90.6704 57.0739L90.686 57.1511C92.6763 67.24 87.989 78.7392 75.9263 81.1189C72.194 81.8551 68.7866 81.5151 65.8022 80.3952C65.7395 80.502 65.6743 80.6082 65.605 80.7116C64.6745 82.0993 63.2304 83.0601 61.5913 83.3835L53.9683 84.8874C53.0178 85.0749 52.0472 85.0373 51.1284 84.7927C50.387 85.3577 49.5089 85.7671 48.5327 85.9597L41.2964 87.3874C39.6572 87.7108 37.9566 87.3696 36.5688 86.4392C35.4427 85.6841 34.5975 84.5911 34.146 83.3298L27.1011 84.7204C24.2131 85.2901 21.3156 83.7836 20.1226 81.0925L17.8765 76.028C17.0781 74.2273 17.1683 72.1562 18.1196 70.4314L28.8687 50.9431L29.0454 50.6433C29.9654 49.1733 31.4551 48.143 33.1665 47.8054L40.7124 46.3161L41.02 46.2634C42.5627 46.0377 44.1388 46.392 45.4399 47.2644C46.8278 48.1948 47.7894 49.6388 48.1128 51.278L50.2554 62.1433C51.346 62.4387 52.3358 63.0232 53.1206 63.8259C51.4821 53.9017 56.2762 42.8846 68.0073 40.57Z" stroke="black" stroke-width="12.6" stroke-linejoin="round"/>
<path d="M19.623 12.3393C23.082 11.7294 26.3809 14.0386 26.991 17.4976L28.5749 26.4801L30.5368 26.1342L28.9529 17.1517C28.3432 13.6926 30.6533 10.3944 34.1124 9.78444L45.4011 7.79394C45.9252 7.70156 46.4476 7.67729 46.9587 7.71365C47.4269 7.50441 47.9271 7.34854 48.4517 7.25604L69.3414 3.57264C75.2586 2.52932 80.8321 3.0336 85.4133 6.03401L85.8536 6.3322L86.1603 6.55281C89.3 8.86314 91.4871 12.2428 92.2468 16.5511L92.2673 16.6675C92.8058 19.7213 92.539 22.6193 91.5299 25.2462C91.6227 25.3168 91.7161 25.3877 91.8078 25.461C94.8754 27.9109 96.7116 31.322 97.4266 35.3771L97.4471 35.4935C98.4017 40.9075 96.9139 46.0306 93.1624 49.9473C89.6148 53.651 84.5099 55.8123 78.8487 56.8106L57.8426 60.5145C57.318 60.607 56.7946 60.6307 56.283 60.5942C55.8151 60.8032 55.3162 60.96 54.792 61.0524L43.5033 63.0429C40.0442 63.6529 36.7451 61.3428 36.1351 57.8837L34.5104 48.6694L32.5485 49.0153L34.1732 58.2296C34.7831 61.6887 32.4731 64.9878 29.0139 65.5978L17.7252 67.5883C14.2662 68.198 10.9679 65.8879 10.358 62.4288L3.17578 21.6969C2.56606 18.2379 4.8754 14.9399 8.33425 14.3298L19.623 12.3393ZM59.2342 50.686L77.2099 47.5165C81.6796 46.7283 84.6519 45.1891 86.3472 43.4193C87.9436 41.7525 88.6044 39.6927 88.153 37.1323L88.1325 37.0159C87.8564 35.4503 87.3435 34.3944 86.7358 33.6447C86.1286 32.8957 85.301 32.2971 84.1615 31.8338C83.2594 31.467 82.1724 31.1904 80.8796 31.0034C79.6164 30.8205 78.5969 29.8763 78.3174 28.631C78.0381 27.3858 78.5568 26.0976 79.6205 25.3926C80.5712 24.7626 81.3288 24.0767 81.8865 23.346C82.846 22.0886 83.3626 20.5147 82.9732 18.3063L82.9526 18.1899C82.6232 16.3219 81.798 15.0957 80.67 14.2312L80.4409 14.0624L80.071 13.8202C78.1612 12.6472 75.3314 12.0996 70.9802 12.8668L53.1209 16.0158L59.2342 50.686ZM19.1177 57.7596L24.3447 56.838L22.1499 44.3904C21.8548 42.7167 22.9723 41.1208 24.6459 40.8256L39.1353 38.2708C40.8089 37.9758 42.4048 39.0932 42.7 40.7668L44.8949 53.2145L50.1219 52.2928L44.0086 17.6226L38.7816 18.5442L40.9352 30.7581C41.2303 32.4319 40.113 34.0286 38.4393 34.3238L23.95 36.8787C22.2763 37.1737 20.6802 36.0554 20.3851 34.3817L18.2314 22.1678L13.0044 23.0894L19.1177 57.7596ZM72.8892 31.1787C75.0973 30.7894 77.2645 30.8332 79.0898 31.6898C81.0868 32.6272 82.2731 34.3517 82.6284 36.3661L82.6489 36.4825C83.0302 38.6448 82.3984 40.6945 80.8397 42.2217C79.4146 43.618 77.4404 44.366 75.398 44.7262L66.6694 46.2653C64.9957 46.5604 63.3999 45.4428 63.1046 43.7692L61.7811 36.263C61.4859 34.5892 62.6032 32.9924 64.277 32.6973L72.8892 31.1787ZM68.9509 16.3343C70.9476 15.9822 73 15.9978 74.7639 16.8126C76.7101 17.7118 77.8958 19.3964 78.2524 21.4184L78.2729 21.5348C78.6529 23.6896 78.0365 25.7319 76.4203 27.2361C74.9869 28.5702 73.02 29.2457 71.0489 29.5933L63.9503 30.845C62.2766 31.1401 60.6807 30.0227 60.3856 28.3489L59.1236 21.1917C58.8285 19.518 59.9459 17.9221 61.6197 17.627L68.9509 16.3343Z" fill="#161616" stroke="#161616" stroke-width="6.15481" stroke-linejoin="round"/>
<path fill-rule="evenodd" clip-rule="evenodd" d="M9.44141 20.5931L16.6236 61.325L27.9122 59.3345L25.1829 43.8564L39.6719 41.3016L42.4011 56.7797L53.6897 54.7892L46.5076 14.0573L35.219 16.0478L37.9071 31.2932L23.4182 33.848L20.73 18.6026L9.44141 20.5931ZM49.5581 13.5194L56.7403 54.2513L77.7464 50.5474C87.4639 48.834 92.4174 43.5807 91.1862 36.5981L91.1656 36.4817C90.1909 30.9538 86.5562 28.7148 81.3229 27.9577C84.6536 25.7504 86.8378 22.4854 86.0067 17.7722L85.9862 17.6558C85.4937 14.8627 84.1249 12.8842 82.2083 11.5422C79.4019 9.57715 75.5685 8.93313 70.4479 9.83603L49.5581 13.5194ZM70.5174 26.5631L63.4184 27.8148L62.1564 20.6577L69.4882 19.3649C72.8631 18.7698 74.8345 19.7421 75.2244 21.9533L75.2449 22.0697C75.6656 24.4554 73.9505 25.9577 70.5174 26.5631ZM74.8657 41.6957L66.1374 43.2348L64.8138 35.7285L73.4257 34.21C77.208 33.543 79.2101 34.6899 79.6 36.9011L79.6205 37.0175C80.0412 39.4032 78.2988 41.0904 74.8657 41.6957Z" fill="white"/>
<path d="M40.0772 81.207L39.039 75.9441L25.8817 78.5397L23.6362 73.4748L34.3856 53.9861L41.9316 52.4975L45.1685 68.9053L48.6126 68.2259L49.7196 73.8371L46.2755 74.5165L47.3137 79.7794L40.0772 81.207ZM31.4384 71.6541L37.9397 70.3716L36.3976 62.5547L31.4384 71.6541Z" fill="#FF3044"/>
<path d="M52.7489 78.7072L51.2603 71.1611L58.8837 69.6572L60.3724 77.2032L52.7489 78.7072Z" fill="#FF3044"/>
<path d="M74.7074 74.9381C67.0065 76.4573 60.956 71.0575 59.4444 63.3954L59.4292 63.318C57.9176 55.6558 61.5262 48.2701 69.2271 46.7509C76.928 45.2317 82.9785 50.6315 84.4901 58.2937L84.5053 58.371C86.0169 66.0332 82.4469 73.4113 74.7074 74.9381ZM73.4717 68.2669C76.4901 67.6714 77.8219 64.2326 76.9745 59.9371L76.9593 59.8597C76.1042 55.5256 73.4349 52.7956 70.4552 53.3835C67.4754 53.9713 66.1049 57.4178 66.96 61.7519L66.9752 61.8293C67.8379 66.2022 70.492 68.8547 73.4717 68.2669Z" fill="#FF3044"/>
<path d="M73.4717 68.2669C76.4901 67.6714 77.8219 64.2326 76.9745 59.9371L76.9593 59.8597C76.1042 55.5256 73.4349 52.7956 70.4552 53.3835C67.4754 53.9713 66.1049 57.4178 66.96 61.7519L66.9752 61.8293C67.8379 66.2022 70.492 68.8547 73.4717 68.2669Z" fill="white"/>
<path d="M68.8276 44.7256C77.9435 42.9273 84.8462 49.4347 86.5151 57.8936L86.5308 57.9717C88.1991 66.4291 84.2632 75.1576 75.1069 76.9639C69.5108 78.0679 64.7493 76.0408 61.52 72.3545L62.3979 76.8037C62.5039 77.3408 62.3921 77.8979 62.0874 78.3526C61.7825 78.8074 61.3092 79.1226 60.772 79.2286L53.1489 80.7325C52.6117 80.8384 52.0539 80.7268 51.5991 80.4219C51.1444 80.117 50.8291 79.6436 50.7231 79.1065L50.0845 75.8692L48.7007 76.1416L49.3394 79.3799C49.56 80.4985 48.8319 81.584 47.7134 81.8047L40.4771 83.2325C39.9398 83.3384 39.382 83.2268 38.9272 82.9219C38.4725 82.617 38.1572 82.1436 38.0513 81.6065L37.4126 78.3692L26.2817 80.5655C25.3353 80.7522 24.3856 80.2579 23.9946 79.376L21.7485 74.3116C21.4869 73.7215 21.5169 73.0428 21.8286 72.4776L32.5776 52.9893L32.6987 52.7959C33.0028 52.3649 33.4627 52.0642 33.9858 51.961L41.5317 50.4717C42.6504 50.251 43.7368 50.9791 43.9575 52.0977L46.7935 66.4795L48.2134 66.2002L48.4224 66.17C49.4641 66.0723 50.4313 66.7776 50.6382 67.8262L50.895 69.1289L58.4839 67.6319L58.5825 67.6172C58.1235 66.5282 57.76 65.3798 57.5005 64.1905L57.4185 63.795L57.4038 63.7178C55.7345 55.2559 59.7139 46.5236 68.8276 44.7256ZM35.3579 68.7764L35.5142 68.7452L35.4771 68.5567L35.3579 68.7764Z" stroke="white" stroke-width="4.12911" stroke-linejoin="round"/>
</svg>
