<svg width="455" height="136" viewBox="0 0 455 136" fill="none" xmlns="http://www.w3.org/2000/svg">
<g filter="url(#filter0_d_33_1166)">
<mask id="path-1-outside-1_33_1166" maskUnits="userSpaceOnUse" x="23.7574" y="14.0221" width="405.805" height="113.444" fill="black">
<rect fill="white" x="23.7574" y="14.0221" width="405.805" height="113.444"/>
<path d="M37.0041 89.8645L37.8187 40.0563L54.4494 40.0626L54.1648 57.4646L68.9391 57.4702L69.2236 40.0683L85.8543 40.0746L85.0398 89.8827L68.4091 89.8764L68.6937 72.4745L53.9194 72.4689L53.6348 89.8708L37.0041 89.8645Z"/>
<path d="M92.6486 49.2809L92.8396 37.6023L110.708 37.6091L110.517 49.2877L92.6486 49.2809ZM93.2222 89.8858L93.6244 65.2911L88.4418 65.2891L90.0315 53.2243L110.452 53.2321L109.853 89.8921L93.2222 89.8858Z"/>
<path d="M132.426 103.513C130.621 103.512 128.611 103.434 126.397 103.279C124.232 103.175 122.173 102.968 120.218 102.658C118.263 102.399 116.67 102.063 115.439 101.65L115.602 91.6732C116.987 92.1378 118.605 92.4993 120.458 92.7578C122.361 93.0679 124.291 93.3007 126.248 93.4561C128.205 93.6115 129.983 93.6895 131.581 93.6901C133.953 93.691 135.889 93.5629 137.389 93.3056C138.939 93.1 139.72 92.6878 139.73 92.0691C139.738 91.5534 139.46 91.2182 138.895 91.0633C138.33 90.9599 137.454 90.9081 136.268 90.9076L127.063 90.9041C123.041 90.9026 119.982 90.3342 117.886 89.1991C115.791 88.0124 114.764 86.1816 114.804 83.7066C114.862 80.2005 116.86 77.8036 120.801 76.5161C118.704 75.4325 117.179 74.0913 116.225 72.4925C115.323 70.8938 114.893 68.8311 114.934 66.3046C115.012 61.561 116.745 58.0813 120.133 55.8654C123.573 53.598 128.388 52.4655 134.576 52.4678C135.917 52.4683 137.436 52.572 139.135 52.7789C140.834 52.9343 142.043 53.0894 142.763 53.2444L157.46 53.2499L156.987 63.2269L152.501 63.2252C153.103 64.2051 153.395 65.3138 153.374 66.5513C153.313 70.3152 152.207 73.2796 150.058 75.4444C147.959 77.6092 144.538 78.6907 139.794 78.6889C139.175 78.6886 138.479 78.6626 137.707 78.6107C136.934 78.5589 136.239 78.507 135.621 78.4552C134.692 78.5065 133.864 78.6608 133.138 78.9184C132.463 79.1759 132.121 79.6141 132.111 80.2328C132.098 81.0062 132.865 81.3932 134.412 81.3938L141.838 81.3966C145.654 81.3981 148.657 82.25 150.847 83.9523C153.088 85.6547 154.18 88.259 154.122 91.7651C154.063 95.3744 152.289 98.2354 148.799 100.348C145.361 102.461 139.904 103.516 132.426 103.513ZM134.45 69.6378C136.306 69.6385 137.575 69.3296 138.255 68.7111C138.987 68.0927 139.365 67.0616 139.389 65.6179C139.413 64.1226 139.07 63.0654 138.358 62.4464C137.647 61.7759 136.389 61.4402 134.584 61.4395C132.831 61.4389 131.562 61.7735 130.777 62.4436C129.994 63.062 129.59 64.1188 129.565 65.6141C129.542 67.0063 129.886 68.0376 130.597 68.7082C131.361 69.3272 132.645 69.6371 134.45 69.6378Z"/>
<path d="M160.888 89.9115L161.741 37.7831L178.372 37.7894L178.088 55.114C179.286 54.3926 180.792 53.7744 182.605 53.2595C184.418 52.7446 186.356 52.4875 188.419 52.4883C193.524 52.4902 197.243 53.7033 199.576 56.1276C201.961 58.5003 203.113 62.1616 203.032 67.1115L202.659 89.9274L185.95 89.921L186.302 68.42C186.324 67.0794 186.056 66.1512 185.497 65.6354C184.99 65.068 184.067 64.7841 182.726 64.7835C181.901 64.7832 181.021 64.9891 180.086 65.4013C179.202 65.8134 178.473 66.303 177.896 66.87L177.519 89.9178L160.888 89.9115Z"/>
<path d="M222.002 90.7081C217.052 90.7062 213.561 89.6995 211.531 87.6878C209.553 85.6761 208.6 82.5048 208.67 78.1736L209.331 37.8012L225.961 37.8075L225.335 76.0917C225.318 77.1229 225.512 77.8706 225.917 78.3348C226.323 78.7475 227.042 78.954 228.073 78.9544C228.743 78.9547 229.389 78.9033 230.009 78.8005C230.681 78.6976 231.303 78.5431 231.873 78.3371L231.7 88.9329C230.246 89.5511 228.821 89.9889 227.424 90.2461C226.078 90.555 224.271 90.709 222.002 90.7081Z"/>
<path d="M235.644 49.3352L235.835 37.6566L253.704 37.6633L253.513 49.342L235.644 49.3352ZM236.218 89.9401L236.62 65.3454L231.438 65.3434L233.027 53.2786L253.448 53.2864L252.849 89.9464L236.218 89.9401Z"/>
<path d="M275.422 103.567C273.617 103.567 271.607 103.488 269.392 103.333C267.228 103.229 265.169 103.022 263.214 102.712C261.259 102.453 259.666 102.118 258.435 101.705L258.598 91.7275C259.983 92.192 261.601 92.5536 263.453 92.8121C265.356 93.1222 267.286 93.355 269.243 93.5104C271.201 93.6658 272.978 93.7438 274.577 93.7444C276.949 93.7453 278.885 93.6172 280.385 93.3599C281.935 93.1543 282.715 92.7421 282.725 92.1233C282.734 91.6077 282.456 91.2725 281.891 91.1176C281.325 91.0142 280.45 90.9623 279.264 90.9619L270.059 90.9584C266.036 90.9569 262.977 90.3885 260.882 89.2534C258.787 88.0667 257.76 86.2358 257.8 83.7609C257.857 80.2547 259.856 77.8579 263.796 76.5704C261.7 75.4868 260.175 74.1456 259.221 72.5468C258.319 70.9481 257.889 68.8854 257.93 66.3589C258.007 61.6153 259.74 58.1356 263.129 55.9197C266.569 53.6523 271.384 52.5198 277.572 52.5221C278.912 52.5226 280.432 52.6263 282.13 52.8332C283.83 52.9886 285.039 53.1437 285.758 53.2987L300.455 53.3042L299.983 63.2812L295.496 63.2795C296.099 64.2594 296.39 65.3681 296.37 66.6056C296.309 70.3695 295.203 73.3339 293.053 75.4987C290.955 77.6635 287.534 78.745 282.79 78.7431C282.171 78.7429 281.475 78.7169 280.702 78.665C279.93 78.6132 279.234 78.5613 278.616 78.5095C277.687 78.5607 276.86 78.7151 276.134 78.9726C275.459 79.2302 275.117 79.6683 275.106 80.2871C275.094 81.0605 275.861 81.4475 277.408 81.4481L284.834 81.4509C288.65 81.4524 291.653 82.3043 293.842 84.0066C296.083 85.709 297.175 88.3133 297.118 91.8194C297.059 95.4287 295.285 98.2897 291.795 100.402C288.357 102.515 282.899 103.57 275.422 103.567ZM277.446 69.6921C279.302 69.6928 280.571 69.3839 281.251 68.7654C281.983 68.1469 282.361 67.1159 282.385 65.6721C282.409 64.1769 282.065 63.1197 281.353 62.5007C280.642 61.8302 279.385 61.4945 277.58 61.4938C275.826 61.4932 274.557 61.8278 273.773 62.4978C272.989 63.1163 272.585 64.1731 272.561 65.6684C272.538 67.0606 272.882 68.0919 273.593 68.7625C274.357 69.3815 275.641 69.6914 277.446 69.6921Z"/>
<path d="M303.884 89.9658L304.737 37.8374L321.367 37.8437L321.084 55.1683C322.282 54.4469 323.787 53.8287 325.601 53.3138C327.414 52.7989 329.352 52.5418 331.415 52.5426C336.52 52.5445 340.239 53.7576 342.571 56.1819C344.956 58.5546 346.108 62.2159 346.027 67.1658L345.654 89.9817L328.946 89.9753L329.298 68.4743C329.32 67.1337 329.051 66.2055 328.492 65.6897C327.986 65.1223 327.062 64.8383 325.722 64.8378C324.897 64.8375 324.017 65.0434 323.082 65.4556C322.198 65.8677 321.468 66.3573 320.892 66.9242L320.515 89.9721L303.884 89.9658Z"/>
<path d="M367.937 90.7635C362.677 90.7615 358.908 89.4711 356.63 86.8921C354.352 84.2616 353.249 80.7292 353.322 76.295L353.499 65.4671L348.935 65.4654L349.134 53.3227L353.698 53.3245L353.818 45.977L370.508 42.3482L370.328 53.3308L378.296 53.3338L377.633 65.4763L370.13 65.4734L369.969 75.2958C369.929 77.7708 371.301 79.0088 374.085 79.0098C375.633 79.0104 377.184 78.7532 378.739 78.2382L378.565 88.9114C377.059 89.5295 375.453 89.993 373.746 90.3017C372.039 90.6104 370.103 90.7644 367.937 90.7635Z"/>
<path d="M396.759 90.7745C393.458 90.7732 390.343 90.5142 387.412 89.9975C384.48 89.5323 382.22 88.9643 380.633 88.2934L380.815 77.1562C382.042 77.7754 383.426 78.3173 384.965 78.7819C386.557 79.195 388.151 79.505 389.746 79.7119C391.341 79.9187 392.706 80.0224 393.84 80.0228C395.336 80.0234 396.522 79.998 397.4 79.9468C398.278 79.844 398.722 79.4832 398.733 78.8645C398.741 78.3489 398.335 77.9363 397.515 77.6266C396.747 77.3169 395.72 77.0072 394.436 76.6973C393.153 76.3359 391.742 75.8971 390.203 75.3809C386.872 74.1421 384.419 72.749 382.846 71.2016C381.325 69.6026 380.589 67.3078 380.638 64.3173C380.7 60.5018 382.269 57.5891 385.345 55.5794C388.472 53.5697 393.258 52.5661 399.704 52.5685C401.303 52.5691 403.003 52.6729 404.804 52.8798C406.607 53.0352 408.305 53.2421 409.899 53.5005C411.545 53.7589 412.855 54.0688 413.829 54.4301L413.65 65.4126C412.063 64.6902 410.344 64.1739 408.492 63.8638C406.642 63.5022 404.969 63.3211 403.473 63.3205C402.132 63.32 400.817 63.3711 399.526 63.4737C398.235 63.5763 397.584 63.937 397.574 64.5557C397.563 65.226 398.303 65.7162 399.793 66.0261C401.335 66.336 403.209 66.8524 405.415 67.5751C408.135 68.3495 410.235 69.2269 411.715 70.2071C413.246 71.1874 414.309 72.3737 414.905 73.7661C415.501 75.1584 415.783 76.8601 415.75 78.871C415.689 82.5834 414.043 85.496 410.811 87.6088C407.631 89.7216 402.947 90.7768 396.759 90.7745Z"/>
<path d="M134.45 69.6378C136.306 69.6385 137.575 69.3296 138.255 68.7111C138.987 68.0927 139.365 67.0616 139.389 65.6179C139.413 64.1226 139.07 63.0654 138.358 62.4464C137.647 61.7759 136.389 61.4402 134.584 61.4395C132.831 61.4389 131.562 61.7735 130.777 62.4436C129.994 63.062 129.59 64.1188 129.565 65.6141C129.542 67.0063 129.886 68.0376 130.597 68.7082C131.361 69.3272 132.645 69.6371 134.45 69.6378Z"/>
<path d="M277.446 69.6921C279.302 69.6928 280.571 69.3839 281.251 68.7654C281.983 68.1469 282.361 67.1159 282.385 65.6721C282.409 64.1769 282.065 63.1197 281.353 62.5007C280.642 61.8302 279.385 61.4945 277.58 61.4938C275.826 61.4932 274.557 61.8278 273.773 62.4978C272.989 63.1163 272.585 64.1731 272.561 65.6684C272.538 67.0606 272.882 68.0919 273.593 68.7625C274.357 69.3815 275.641 69.6914 277.446 69.6921Z"/>
</mask>
<path d="M37.0041 89.8645L37.8187 40.0563L54.4494 40.0626L54.1648 57.4646L68.9391 57.4702L69.2236 40.0683L85.8543 40.0746L85.0398 89.8827L68.4091 89.8764L68.6937 72.4745L53.9194 72.4689L53.6348 89.8708L37.0041 89.8645Z" fill="#8A00DA"/>
<path d="M92.6486 49.2809L92.8396 37.6023L110.708 37.6091L110.517 49.2877L92.6486 49.2809ZM93.2222 89.8858L93.6244 65.2911L88.4418 65.2891L90.0315 53.2243L110.452 53.2321L109.853 89.8921L93.2222 89.8858Z" fill="#8A00DA"/>
<path d="M132.426 103.513C130.621 103.512 128.611 103.434 126.397 103.279C124.232 103.175 122.173 102.968 120.218 102.658C118.263 102.399 116.67 102.063 115.439 101.65L115.602 91.6732C116.987 92.1378 118.605 92.4993 120.458 92.7578C122.361 93.0679 124.291 93.3007 126.248 93.4561C128.205 93.6115 129.983 93.6895 131.581 93.6901C133.953 93.691 135.889 93.5629 137.389 93.3056C138.939 93.1 139.72 92.6878 139.73 92.0691C139.738 91.5534 139.46 91.2182 138.895 91.0633C138.33 90.9599 137.454 90.9081 136.268 90.9076L127.063 90.9041C123.041 90.9026 119.982 90.3342 117.886 89.1991C115.791 88.0124 114.764 86.1816 114.804 83.7066C114.862 80.2005 116.86 77.8036 120.801 76.5161C118.704 75.4325 117.179 74.0913 116.225 72.4925C115.323 70.8938 114.893 68.8311 114.934 66.3046C115.012 61.561 116.745 58.0813 120.133 55.8654C123.573 53.598 128.388 52.4655 134.576 52.4678C135.917 52.4683 137.436 52.572 139.135 52.7789C140.834 52.9343 142.043 53.0894 142.763 53.2444L157.46 53.2499L156.987 63.2269L152.501 63.2252C153.103 64.2051 153.395 65.3138 153.374 66.5513C153.313 70.3152 152.207 73.2796 150.058 75.4444C147.959 77.6092 144.538 78.6907 139.794 78.6889C139.175 78.6886 138.479 78.6626 137.707 78.6107C136.934 78.5589 136.239 78.507 135.621 78.4552C134.692 78.5065 133.864 78.6608 133.138 78.9184C132.463 79.1759 132.121 79.6141 132.111 80.2328C132.098 81.0062 132.865 81.3932 134.412 81.3938L141.838 81.3966C145.654 81.3981 148.657 82.25 150.847 83.9523C153.088 85.6547 154.18 88.259 154.122 91.7651C154.063 95.3744 152.289 98.2354 148.799 100.348C145.361 102.461 139.904 103.516 132.426 103.513ZM134.45 69.6378C136.306 69.6385 137.575 69.3296 138.255 68.7111C138.987 68.0927 139.365 67.0616 139.389 65.6179C139.413 64.1226 139.07 63.0654 138.358 62.4464C137.647 61.7759 136.389 61.4402 134.584 61.4395C132.831 61.4389 131.562 61.7735 130.777 62.4436C129.994 63.062 129.59 64.1188 129.565 65.6141C129.542 67.0063 129.886 68.0376 130.597 68.7082C131.361 69.3272 132.645 69.6371 134.45 69.6378Z" fill="#8A00DA"/>
<path d="M160.888 89.9115L161.741 37.7831L178.372 37.7894L178.088 55.114C179.286 54.3926 180.792 53.7744 182.605 53.2595C184.418 52.7446 186.356 52.4875 188.419 52.4883C193.524 52.4902 197.243 53.7033 199.576 56.1276C201.961 58.5003 203.113 62.1616 203.032 67.1115L202.659 89.9274L185.95 89.921L186.302 68.42C186.324 67.0794 186.056 66.1512 185.497 65.6354C184.99 65.068 184.067 64.7841 182.726 64.7835C181.901 64.7832 181.021 64.9891 180.086 65.4013C179.202 65.8134 178.473 66.303 177.896 66.87L177.519 89.9178L160.888 89.9115Z" fill="#8A00DA"/>
<path d="M222.002 90.7081C217.052 90.7062 213.561 89.6995 211.531 87.6878C209.553 85.6761 208.6 82.5048 208.67 78.1736L209.331 37.8012L225.961 37.8075L225.335 76.0917C225.318 77.1229 225.512 77.8706 225.917 78.3348C226.323 78.7475 227.042 78.954 228.073 78.9544C228.743 78.9547 229.389 78.9033 230.009 78.8005C230.681 78.6976 231.303 78.5431 231.873 78.3371L231.7 88.9329C230.246 89.5511 228.821 89.9889 227.424 90.2461C226.078 90.555 224.271 90.709 222.002 90.7081Z" fill="#8A00DA"/>
<path d="M235.644 49.3352L235.835 37.6566L253.704 37.6633L253.513 49.342L235.644 49.3352ZM236.218 89.9401L236.62 65.3454L231.438 65.3434L233.027 53.2786L253.448 53.2864L252.849 89.9464L236.218 89.9401Z" fill="#8A00DA"/>
<path d="M275.422 103.567C273.617 103.567 271.607 103.488 269.392 103.333C267.228 103.229 265.169 103.022 263.214 102.712C261.259 102.453 259.666 102.118 258.435 101.705L258.598 91.7275C259.983 92.192 261.601 92.5536 263.453 92.8121C265.356 93.1222 267.286 93.355 269.243 93.5104C271.201 93.6658 272.978 93.7438 274.577 93.7444C276.949 93.7453 278.885 93.6172 280.385 93.3599C281.935 93.1543 282.715 92.7421 282.725 92.1233C282.734 91.6077 282.456 91.2725 281.891 91.1176C281.325 91.0142 280.45 90.9623 279.264 90.9619L270.059 90.9584C266.036 90.9569 262.977 90.3885 260.882 89.2534C258.787 88.0667 257.76 86.2358 257.8 83.7609C257.857 80.2547 259.856 77.8579 263.796 76.5704C261.7 75.4868 260.175 74.1456 259.221 72.5468C258.319 70.9481 257.889 68.8854 257.93 66.3589C258.007 61.6153 259.74 58.1356 263.129 55.9197C266.569 53.6523 271.384 52.5198 277.572 52.5221C278.912 52.5226 280.432 52.6263 282.13 52.8332C283.83 52.9886 285.039 53.1437 285.758 53.2987L300.455 53.3042L299.983 63.2812L295.496 63.2795C296.099 64.2594 296.39 65.3681 296.37 66.6056C296.309 70.3695 295.203 73.3339 293.053 75.4987C290.955 77.6635 287.534 78.745 282.79 78.7431C282.171 78.7429 281.475 78.7169 280.702 78.665C279.93 78.6132 279.234 78.5613 278.616 78.5095C277.687 78.5607 276.86 78.7151 276.134 78.9726C275.459 79.2302 275.117 79.6683 275.106 80.2871C275.094 81.0605 275.861 81.4475 277.408 81.4481L284.834 81.4509C288.65 81.4524 291.653 82.3043 293.842 84.0066C296.083 85.709 297.175 88.3133 297.118 91.8194C297.059 95.4287 295.285 98.2897 291.795 100.402C288.357 102.515 282.899 103.57 275.422 103.567ZM277.446 69.6921C279.302 69.6928 280.571 69.3839 281.251 68.7654C281.983 68.1469 282.361 67.1159 282.385 65.6721C282.409 64.1769 282.065 63.1197 281.353 62.5007C280.642 61.8302 279.385 61.4945 277.58 61.4938C275.826 61.4932 274.557 61.8278 273.773 62.4978C272.989 63.1163 272.585 64.1731 272.561 65.6684C272.538 67.0606 272.882 68.0919 273.593 68.7625C274.357 69.3815 275.641 69.6914 277.446 69.6921Z" fill="#8A00DA"/>
<path d="M303.884 89.9658L304.737 37.8374L321.367 37.8437L321.084 55.1683C322.282 54.4469 323.787 53.8287 325.601 53.3138C327.414 52.7989 329.352 52.5418 331.415 52.5426C336.52 52.5445 340.239 53.7576 342.571 56.1819C344.956 58.5546 346.108 62.2159 346.027 67.1658L345.654 89.9817L328.946 89.9753L329.298 68.4743C329.32 67.1337 329.051 66.2055 328.492 65.6897C327.986 65.1223 327.062 64.8383 325.722 64.8378C324.897 64.8375 324.017 65.0434 323.082 65.4556C322.198 65.8677 321.468 66.3573 320.892 66.9242L320.515 89.9721L303.884 89.9658Z" fill="#8A00DA"/>
<path d="M367.937 90.7635C362.677 90.7615 358.908 89.4711 356.63 86.8921C354.352 84.2616 353.249 80.7292 353.322 76.295L353.499 65.4671L348.935 65.4654L349.134 53.3227L353.698 53.3245L353.818 45.977L370.508 42.3482L370.328 53.3308L378.296 53.3338L377.633 65.4763L370.13 65.4734L369.969 75.2958C369.929 77.7708 371.301 79.0088 374.085 79.0098C375.633 79.0104 377.184 78.7532 378.739 78.2382L378.565 88.9114C377.059 89.5295 375.453 89.993 373.746 90.3017C372.039 90.6104 370.103 90.7644 367.937 90.7635Z" fill="#8A00DA"/>
<path d="M396.759 90.7745C393.458 90.7732 390.343 90.5142 387.412 89.9975C384.48 89.5323 382.22 88.9643 380.633 88.2934L380.815 77.1562C382.042 77.7754 383.426 78.3173 384.965 78.7819C386.557 79.195 388.151 79.505 389.746 79.7119C391.341 79.9187 392.706 80.0224 393.84 80.0228C395.336 80.0234 396.522 79.998 397.4 79.9468C398.278 79.844 398.722 79.4832 398.733 78.8645C398.741 78.3489 398.335 77.9363 397.515 77.6266C396.747 77.3169 395.72 77.0072 394.436 76.6973C393.153 76.3359 391.742 75.8971 390.203 75.3809C386.872 74.1421 384.419 72.749 382.846 71.2016C381.325 69.6026 380.589 67.3078 380.638 64.3173C380.7 60.5018 382.269 57.5891 385.345 55.5794C388.472 53.5697 393.258 52.5661 399.704 52.5685C401.303 52.5691 403.003 52.6729 404.804 52.8798C406.607 53.0352 408.305 53.2421 409.899 53.5005C411.545 53.7589 412.855 54.0688 413.829 54.4301L413.65 65.4126C412.063 64.6902 410.344 64.1739 408.492 63.8638C406.642 63.5022 404.969 63.3211 403.473 63.3205C402.132 63.32 400.817 63.3711 399.526 63.4737C398.235 63.5763 397.584 63.937 397.574 64.5557C397.563 65.226 398.303 65.7162 399.793 66.0261C401.335 66.336 403.209 66.8524 405.415 67.5751C408.135 68.3495 410.235 69.2269 411.715 70.2071C413.246 71.1874 414.309 72.3737 414.905 73.7661C415.501 75.1584 415.783 76.8601 415.75 78.871C415.689 82.5834 414.043 85.496 410.811 87.6088C407.631 89.7216 402.947 90.7768 396.759 90.7745Z" fill="#8A00DA"/>
<path d="M134.45 69.6378C136.306 69.6385 137.575 69.3296 138.255 68.7111C138.987 68.0927 139.365 67.0616 139.389 65.6179C139.413 64.1226 139.07 63.0654 138.358 62.4464C137.647 61.7759 136.389 61.4402 134.584 61.4395C132.831 61.4389 131.562 61.7735 130.777 62.4436C129.994 63.062 129.59 64.1188 129.565 65.6141C129.542 67.0063 129.886 68.0376 130.597 68.7082C131.361 69.3272 132.645 69.6371 134.45 69.6378Z" fill="white"/>
<path d="M277.446 69.6921C279.302 69.6928 280.571 69.3839 281.251 68.7654C281.983 68.1469 282.361 67.1159 282.385 65.6721C282.409 64.1769 282.065 63.1197 281.353 62.5007C280.642 61.8302 279.385 61.4945 277.58 61.4938C275.826 61.4932 274.557 61.8278 273.773 62.4978C272.989 63.1163 272.585 64.1731 272.561 65.6684C272.538 67.0606 272.882 68.0919 273.593 68.7625C274.357 69.3815 275.641 69.6914 277.446 69.6921Z" fill="white"/>
<path d="M37.0041 89.8645L37.8187 40.0563L54.4494 40.0626L54.1648 57.4646L68.9391 57.4702L69.2236 40.0683L85.8543 40.0746L85.0398 89.8827L68.4091 89.8764L68.6937 72.4745L53.9194 72.4689L53.6348 89.8708L37.0041 89.8645Z" stroke="white" stroke-width="22" stroke-linejoin="round" mask="url(#path-1-outside-1_33_1166)"/>
<path d="M92.6486 49.2809L92.8396 37.6023L110.708 37.6091L110.517 49.2877L92.6486 49.2809ZM93.2222 89.8858L93.6244 65.2911L88.4418 65.2891L90.0315 53.2243L110.452 53.2321L109.853 89.8921L93.2222 89.8858Z" stroke="white" stroke-width="22" stroke-linejoin="round" mask="url(#path-1-outside-1_33_1166)"/>
<path d="M132.426 103.513C130.621 103.512 128.611 103.434 126.397 103.279C124.232 103.175 122.173 102.968 120.218 102.658C118.263 102.399 116.67 102.063 115.439 101.65L115.602 91.6732C116.987 92.1378 118.605 92.4993 120.458 92.7578C122.361 93.0679 124.291 93.3007 126.248 93.4561C128.205 93.6115 129.983 93.6895 131.581 93.6901C133.953 93.691 135.889 93.5629 137.389 93.3056C138.939 93.1 139.72 92.6878 139.73 92.0691C139.738 91.5534 139.46 91.2182 138.895 91.0633C138.33 90.9599 137.454 90.9081 136.268 90.9076L127.063 90.9041C123.041 90.9026 119.982 90.3342 117.886 89.1991C115.791 88.0124 114.764 86.1816 114.804 83.7066C114.862 80.2005 116.86 77.8036 120.801 76.5161C118.704 75.4325 117.179 74.0913 116.225 72.4925C115.323 70.8938 114.893 68.8311 114.934 66.3046C115.012 61.561 116.745 58.0813 120.133 55.8654C123.573 53.598 128.388 52.4655 134.576 52.4678C135.917 52.4683 137.436 52.572 139.135 52.7789C140.834 52.9343 142.043 53.0894 142.763 53.2444L157.46 53.2499L156.987 63.2269L152.501 63.2252C153.103 64.2051 153.395 65.3138 153.374 66.5513C153.313 70.3152 152.207 73.2796 150.058 75.4444C147.959 77.6092 144.538 78.6907 139.794 78.6889C139.175 78.6886 138.479 78.6626 137.707 78.6107C136.934 78.5589 136.239 78.507 135.621 78.4552C134.692 78.5065 133.864 78.6608 133.138 78.9184C132.463 79.1759 132.121 79.6141 132.111 80.2328C132.098 81.0062 132.865 81.3932 134.412 81.3938L141.838 81.3966C145.654 81.3981 148.657 82.25 150.847 83.9523C153.088 85.6547 154.18 88.259 154.122 91.7651C154.063 95.3744 152.289 98.2354 148.799 100.348C145.361 102.461 139.904 103.516 132.426 103.513ZM134.45 69.6378C136.306 69.6385 137.575 69.3296 138.255 68.7111C138.987 68.0927 139.365 67.0616 139.389 65.6179C139.413 64.1226 139.07 63.0654 138.358 62.4464C137.647 61.7759 136.389 61.4402 134.584 61.4395C132.831 61.4389 131.562 61.7735 130.777 62.4436C129.994 63.062 129.59 64.1188 129.565 65.6141C129.542 67.0063 129.886 68.0376 130.597 68.7082C131.361 69.3272 132.645 69.6371 134.45 69.6378Z" stroke="white" stroke-width="22" stroke-linejoin="round" mask="url(#path-1-outside-1_33_1166)"/>
<path d="M160.888 89.9115L161.741 37.7831L178.372 37.7894L178.088 55.114C179.286 54.3926 180.792 53.7744 182.605 53.2595C184.418 52.7446 186.356 52.4875 188.419 52.4883C193.524 52.4902 197.243 53.7033 199.576 56.1276C201.961 58.5003 203.113 62.1616 203.032 67.1115L202.659 89.9274L185.95 89.921L186.302 68.42C186.324 67.0794 186.056 66.1512 185.497 65.6354C184.99 65.068 184.067 64.7841 182.726 64.7835C181.901 64.7832 181.021 64.9891 180.086 65.4013C179.202 65.8134 178.473 66.303 177.896 66.87L177.519 89.9178L160.888 89.9115Z" stroke="white" stroke-width="22" stroke-linejoin="round" mask="url(#path-1-outside-1_33_1166)"/>
<path d="M222.002 90.7081C217.052 90.7062 213.561 89.6995 211.531 87.6878C209.553 85.6761 208.6 82.5048 208.67 78.1736L209.331 37.8012L225.961 37.8075L225.335 76.0917C225.318 77.1229 225.512 77.8706 225.917 78.3348C226.323 78.7475 227.042 78.954 228.073 78.9544C228.743 78.9547 229.389 78.9033 230.009 78.8005C230.681 78.6976 231.303 78.5431 231.873 78.3371L231.7 88.9329C230.246 89.5511 228.821 89.9889 227.424 90.2461C226.078 90.555 224.271 90.709 222.002 90.7081Z" stroke="white" stroke-width="22" stroke-linejoin="round" mask="url(#path-1-outside-1_33_1166)"/>
<path d="M235.644 49.3352L235.835 37.6566L253.704 37.6633L253.513 49.342L235.644 49.3352ZM236.218 89.9401L236.62 65.3454L231.438 65.3434L233.027 53.2786L253.448 53.2864L252.849 89.9464L236.218 89.9401Z" stroke="white" stroke-width="22" stroke-linejoin="round" mask="url(#path-1-outside-1_33_1166)"/>
<path d="M275.422 103.567C273.617 103.567 271.607 103.488 269.392 103.333C267.228 103.229 265.169 103.022 263.214 102.712C261.259 102.453 259.666 102.118 258.435 101.705L258.598 91.7275C259.983 92.192 261.601 92.5536 263.453 92.8121C265.356 93.1222 267.286 93.355 269.243 93.5104C271.201 93.6658 272.978 93.7438 274.577 93.7444C276.949 93.7453 278.885 93.6172 280.385 93.3599C281.935 93.1543 282.715 92.7421 282.725 92.1233C282.734 91.6077 282.456 91.2725 281.891 91.1176C281.325 91.0142 280.45 90.9623 279.264 90.9619L270.059 90.9584C266.036 90.9569 262.977 90.3885 260.882 89.2534C258.787 88.0667 257.76 86.2358 257.8 83.7609C257.857 80.2547 259.856 77.8579 263.796 76.5704C261.7 75.4868 260.175 74.1456 259.221 72.5468C258.319 70.9481 257.889 68.8854 257.93 66.3589C258.007 61.6153 259.74 58.1356 263.129 55.9197C266.569 53.6523 271.384 52.5198 277.572 52.5221C278.912 52.5226 280.432 52.6263 282.13 52.8332C283.83 52.9886 285.039 53.1437 285.758 53.2987L300.455 53.3042L299.983 63.2812L295.496 63.2795C296.099 64.2594 296.39 65.3681 296.37 66.6056C296.309 70.3695 295.203 73.3339 293.053 75.4987C290.955 77.6635 287.534 78.745 282.79 78.7431C282.171 78.7429 281.475 78.7169 280.702 78.665C279.93 78.6132 279.234 78.5613 278.616 78.5095C277.687 78.5607 276.86 78.7151 276.134 78.9726C275.459 79.2302 275.117 79.6683 275.106 80.2871C275.094 81.0605 275.861 81.4475 277.408 81.4481L284.834 81.4509C288.65 81.4524 291.653 82.3043 293.842 84.0066C296.083 85.709 297.175 88.3133 297.118 91.8194C297.059 95.4287 295.285 98.2897 291.795 100.402C288.357 102.515 282.899 103.57 275.422 103.567ZM277.446 69.6921C279.302 69.6928 280.571 69.3839 281.251 68.7654C281.983 68.1469 282.361 67.1159 282.385 65.6721C282.409 64.1769 282.065 63.1197 281.353 62.5007C280.642 61.8302 279.385 61.4945 277.58 61.4938C275.826 61.4932 274.557 61.8278 273.773 62.4978C272.989 63.1163 272.585 64.1731 272.561 65.6684C272.538 67.0606 272.882 68.0919 273.593 68.7625C274.357 69.3815 275.641 69.6914 277.446 69.6921Z" stroke="white" stroke-width="22" stroke-linejoin="round" mask="url(#path-1-outside-1_33_1166)"/>
<path d="M303.884 89.9658L304.737 37.8374L321.367 37.8437L321.084 55.1683C322.282 54.4469 323.787 53.8287 325.601 53.3138C327.414 52.7989 329.352 52.5418 331.415 52.5426C336.52 52.5445 340.239 53.7576 342.571 56.1819C344.956 58.5546 346.108 62.2159 346.027 67.1658L345.654 89.9817L328.946 89.9753L329.298 68.4743C329.32 67.1337 329.051 66.2055 328.492 65.6897C327.986 65.1223 327.062 64.8383 325.722 64.8378C324.897 64.8375 324.017 65.0434 323.082 65.4556C322.198 65.8677 321.468 66.3573 320.892 66.9242L320.515 89.9721L303.884 89.9658Z" stroke="white" stroke-width="22" stroke-linejoin="round" mask="url(#path-1-outside-1_33_1166)"/>
<path d="M367.937 90.7635C362.677 90.7615 358.908 89.4711 356.63 86.8921C354.352 84.2616 353.249 80.7292 353.322 76.295L353.499 65.4671L348.935 65.4654L349.134 53.3227L353.698 53.3245L353.818 45.977L370.508 42.3482L370.328 53.3308L378.296 53.3338L377.633 65.4763L370.13 65.4734L369.969 75.2958C369.929 77.7708 371.301 79.0088 374.085 79.0098C375.633 79.0104 377.184 78.7532 378.739 78.2382L378.565 88.9114C377.059 89.5295 375.453 89.993 373.746 90.3017C372.039 90.6104 370.103 90.7644 367.937 90.7635Z" stroke="white" stroke-width="22" stroke-linejoin="round" mask="url(#path-1-outside-1_33_1166)"/>
<path d="M396.759 90.7745C393.458 90.7732 390.343 90.5142 387.412 89.9975C384.48 89.5323 382.22 88.9643 380.633 88.2934L380.815 77.1562C382.042 77.7754 383.426 78.3173 384.965 78.7819C386.557 79.195 388.151 79.505 389.746 79.7119C391.341 79.9187 392.706 80.0224 393.84 80.0228C395.336 80.0234 396.522 79.998 397.4 79.9468C398.278 79.844 398.722 79.4832 398.733 78.8645C398.741 78.3489 398.335 77.9363 397.515 77.6266C396.747 77.3169 395.72 77.0072 394.436 76.6973C393.153 76.3359 391.742 75.8971 390.203 75.3809C386.872 74.1421 384.419 72.749 382.846 71.2016C381.325 69.6026 380.589 67.3078 380.638 64.3173C380.7 60.5018 382.269 57.5891 385.345 55.5794C388.472 53.5697 393.258 52.5661 399.704 52.5685C401.303 52.5691 403.003 52.6729 404.804 52.8798C406.607 53.0352 408.305 53.2421 409.899 53.5005C411.545 53.7589 412.855 54.0688 413.829 54.4301L413.65 65.4126C412.063 64.6902 410.344 64.1739 408.492 63.8638C406.642 63.5022 404.969 63.3211 403.473 63.3205C402.132 63.32 400.817 63.3711 399.526 63.4737C398.235 63.5763 397.584 63.937 397.574 64.5557C397.563 65.226 398.303 65.7162 399.793 66.0261C401.335 66.336 403.209 66.8524 405.415 67.5751C408.135 68.3495 410.235 69.2269 411.715 70.2071C413.246 71.1874 414.309 72.3737 414.905 73.7661C415.501 75.1584 415.783 76.8601 415.75 78.871C415.689 82.5834 414.043 85.496 410.811 87.6088C407.631 89.7216 402.947 90.7768 396.759 90.7745Z" stroke="white" stroke-width="22" stroke-linejoin="round" mask="url(#path-1-outside-1_33_1166)"/>
<path d="M134.45 69.6378C136.306 69.6385 137.575 69.3296 138.255 68.7111C138.987 68.0927 139.365 67.0616 139.389 65.6179C139.413 64.1226 139.07 63.0654 138.358 62.4464C137.647 61.7759 136.389 61.4402 134.584 61.4395C132.831 61.4389 131.562 61.7735 130.777 62.4436C129.994 63.062 129.59 64.1188 129.565 65.6141C129.542 67.0063 129.886 68.0376 130.597 68.7082C131.361 69.3272 132.645 69.6371 134.45 69.6378Z" stroke="white" stroke-width="22" stroke-linejoin="round" mask="url(#path-1-outside-1_33_1166)"/>
<path d="M277.446 69.6921C279.302 69.6928 280.571 69.3839 281.251 68.7654C281.983 68.1469 282.361 67.1159 282.385 65.6721C282.409 64.1769 282.065 63.1197 281.353 62.5007C280.642 61.8302 279.385 61.4945 277.58 61.4938C275.826 61.4932 274.557 61.8278 273.773 62.4978C272.989 63.1163 272.585 64.1731 272.561 65.6684C272.538 67.0606 272.882 68.0919 273.593 68.7625C274.357 69.3815 275.641 69.6914 277.446 69.6921Z" stroke="white" stroke-width="22" stroke-linejoin="round" mask="url(#path-1-outside-1_33_1166)"/>
</g>
<path d="M436.008 76.0985L419.691 48.9137C416.063 43.5764 411.218 43.218 399.409 44.9339C385.919 48.2973 384.415 47.4518 384.415 47.4518L399.2 42.814C401.862 41.4489 416.031 37.6856 410.624 25.9913C407.111 18.393 400.329 1.48975 399.885 0.046676L413.168 25.3986C415.297 29.6532 421.361 36.5677 430.122 34.8624C435.351 34.3333 446.462 32.9361 449.714 32.2331L450.121 32.1382C450.004 32.1682 449.868 32.1998 449.714 32.2331L436.556 35.2997C432.811 36.1724 419.783 38.7618 425.809 49.2758C430.521 60.5433 435.852 75.5135 436.008 76.0985Z" fill="white"/>
<path d="M20.9195 73.6927L26.414 97.4015C27.2588 102.283 24.7758 105.065 17.342 110.417C8.10224 115.757 7.72312 117.025 7.72312 117.025L18.3578 111.698C20.555 111.032 30.3834 105.551 33.6369 114.89C35.7509 120.958 41.0241 133.905 41.5486 134.939L35.357 113.86C34.2628 110.376 33.9217 103.325 39.6669 99.5929C42.8352 97.0959 49.7131 91.9403 51.8831 90.5936L52.1583 90.4289C52.0777 90.4748 51.9857 90.5299 51.8831 90.5936L42.9846 95.9198C40.4523 97.4355 31.8801 102.956 29.5977 93.9382C26.188 85.2058 21.1454 74.0989 20.9195 73.6927Z" fill="white"/>
<defs>
<filter id="filter0_d_33_1166" x="26.0039" y="26.6023" width="400.749" height="90.8432" filterUnits="userSpaceOnUse" color-interpolation-filters="sRGB">
<feFlood flood-opacity="0" result="BackgroundImageFix"/>
<feColorMatrix in="SourceAlpha" type="matrix" values="0 0 0 0 0 0 0 0 0 0 0 0 0 0 0 0 0 0 127 0" result="hardAlpha"/>
<feOffset dy="2.87819"/>
<feComposite in2="hardAlpha" operator="out"/>
<feColorMatrix type="matrix" values="0 0 0 0 0 0 0 0 0 0 0 0 0 0 0 0 0 0 0.25 0"/>
<feBlend mode="normal" in2="BackgroundImageFix" result="effect1_dropShadow_33_1166"/>
<feBlend mode="normal" in="SourceGraphic" in2="effect1_dropShadow_33_1166" result="shape"/>
</filter>
</defs>
</svg>
