<svg width="874" height="217" viewBox="0 0 874 217" fill="none" xmlns="http://www.w3.org/2000/svg">
<g filter="url(#filter0_d_38_1169)">
<mask id="path-1-outside-1_38_1169" maskUnits="userSpaceOnUse" x="120.521" y="88.49" width="755.549" height="107.477" fill="black">
<rect fill="white" x="120.521" y="88.49" width="755.549" height="107.477"/>
<path d="M159.768 183.224C154.329 183.466 149.684 182.841 145.833 181.347C141.982 179.854 138.967 177.314 136.789 173.728C134.661 170.139 133.463 165.348 133.196 159.356C132.924 153.262 133.688 148.334 135.488 144.57C137.339 140.804 140.115 138.006 143.818 136.175C147.521 134.345 152.092 133.308 157.531 133.066C162.969 132.823 167.614 133.449 171.465 134.942C175.317 136.436 178.306 138.977 180.434 142.565C182.612 146.152 183.837 150.992 184.109 157.085C184.376 163.078 183.585 167.957 181.734 171.723C179.934 175.487 177.183 178.284 173.48 180.114C169.777 181.945 165.207 182.981 159.768 183.224ZM159.155 169.476C162.277 169.336 164.479 168.355 165.76 166.532C167.091 164.706 167.668 161.805 167.491 157.826C167.304 153.646 166.469 150.757 164.985 149.158C163.549 147.506 161.269 146.75 158.147 146.89C154.975 147.031 152.721 147.989 151.388 149.764C150.102 151.487 149.553 154.438 149.739 158.618C149.916 162.596 150.724 165.436 152.163 167.138C153.651 168.838 155.982 169.617 159.155 169.476Z"/>
<path d="M202.588 181.314C198.459 181.498 195.158 180.459 192.685 178.198C190.263 175.935 188.951 172.537 188.749 168.004L187.738 145.343L203.979 144.618L204.919 165.694C205.025 168.061 206.286 169.19 208.703 169.082C209.559 169.044 210.406 168.804 211.245 168.363C212.133 167.92 212.817 167.41 213.296 166.834L212.288 144.248L228.529 143.523L230.126 179.329L214.867 180.009L214.385 177.684C213.066 178.652 211.387 179.483 209.35 180.18C207.36 180.824 205.106 181.202 202.588 181.314Z"/>
<path d="M236.187 179.058L234.59 143.253L250.378 142.549L250.866 145.025C252.19 144.159 253.945 143.349 256.132 142.595C258.319 141.842 260.569 141.388 262.883 141.234L263.419 153.245C262.162 153.351 260.758 153.54 259.206 153.811C257.704 154.08 256.255 154.397 254.858 154.762C253.51 155.075 252.366 155.454 251.427 155.899L252.428 178.334L236.187 179.058Z"/>
<path d="M310.391 176.506C301.175 176.917 294.08 175.089 289.105 171.022C284.18 166.952 281.538 160.889 281.179 152.831C280.81 144.572 282.872 138.198 287.365 133.709C291.857 129.219 298.737 126.768 308.003 126.355C311.125 126.216 313.88 126.32 316.267 126.667C318.654 127.015 320.974 127.568 323.228 128.325L323.858 142.451C321.497 141.547 319.172 140.894 316.883 140.491C314.645 140.086 312.267 139.94 309.749 140.052C305.67 140.234 302.587 141.255 300.5 143.114C298.461 144.921 297.535 147.914 297.722 152.094C297.904 156.173 299.141 159.019 301.433 160.632C303.773 162.193 306.932 162.885 310.911 162.707C313.378 162.597 315.735 162.265 317.981 161.711C320.225 161.106 322.482 160.248 324.754 159.138L325.387 173.339C323.208 174.244 320.918 174.951 318.519 175.462C316.172 176.021 313.463 176.369 310.391 176.506Z"/>
<path d="M350.223 174.729C342.87 175.057 337.337 173.74 333.622 170.777C329.955 167.762 327.985 163.182 327.711 157.038C327.437 150.894 329.018 146.182 332.454 142.9C335.888 139.568 341.256 137.739 348.558 137.413C355.911 137.085 361.446 138.428 365.163 141.441C368.928 144.402 370.947 148.954 371.221 155.098C371.495 161.241 369.915 165.979 366.481 169.312C363.045 172.593 357.626 174.399 350.223 174.729ZM349.701 163.021C351.513 162.94 352.824 162.352 353.633 161.256C354.442 160.16 354.791 158.353 354.678 155.835C354.566 153.317 354.058 151.549 353.155 150.529C352.252 149.51 350.894 149.041 349.081 149.122C347.318 149.2 346.032 149.787 345.223 150.883C344.465 151.977 344.142 153.782 344.254 156.3C344.366 158.818 344.849 160.588 345.702 161.61C346.605 162.629 347.938 163.099 349.701 163.021Z"/>
<path d="M376.568 172.797L374.971 136.992L390.003 136.322L390.496 138.873C391.913 137.851 393.54 136.996 395.377 136.309C397.261 135.569 399.362 135.147 401.678 135.044C403.894 134.945 405.646 135.195 406.934 135.794C408.22 136.342 409.292 137.177 410.149 138.299C411.711 137.12 413.485 136.157 415.47 135.413C417.455 134.668 419.782 134.237 422.451 134.118C426.681 133.929 429.804 134.925 431.819 137.106C433.881 139.234 435.013 142.539 435.213 147.021L436.244 170.136L420.305 170.847L419.358 149.62C419.307 148.462 419.018 147.642 418.492 147.161C418.014 146.628 417.196 146.387 416.037 146.438C414.627 146.501 413.492 147.056 412.63 148.104C412.712 148.807 412.767 149.485 412.796 150.14C412.826 150.795 412.857 151.5 412.891 152.255L413.733 171.14L398.701 171.81L397.741 150.282C397.694 149.224 397.458 148.478 397.035 148.043C396.66 147.555 395.969 147.333 394.962 147.378C394.257 147.41 393.586 147.641 392.949 148.073C392.311 148.455 391.726 148.935 391.197 149.514L392.205 172.1L376.568 172.797Z"/>
<path d="M441.927 169.882L440.33 134.077L455.362 133.407L455.854 135.958C457.272 134.936 458.899 134.081 460.735 133.394C462.62 132.654 464.72 132.232 467.037 132.129C469.253 132.03 471.005 132.28 472.293 132.879C473.579 133.427 474.65 134.262 475.508 135.384C477.07 134.205 478.844 133.242 480.829 132.498C482.814 131.753 485.141 131.322 487.81 131.203C492.04 131.014 495.163 132.01 497.177 134.191C499.24 136.319 500.372 139.624 500.571 144.106L501.602 167.221L485.664 167.932L484.717 146.705C484.665 145.547 484.376 144.727 483.85 144.246C483.373 143.713 482.554 143.472 481.396 143.523C479.986 143.586 478.85 144.141 477.989 145.189C478.071 145.892 478.126 146.57 478.155 147.225C478.184 147.88 478.216 148.585 478.25 149.34L479.092 168.225L464.06 168.895L463.099 147.367C463.052 146.309 462.817 145.563 462.394 145.128C462.019 144.64 461.328 144.418 460.321 144.463C459.616 144.495 458.945 144.726 458.308 145.158C457.669 145.54 457.085 146.02 456.556 146.599L457.563 169.185L441.927 169.882Z"/>
<path d="M508.161 127.192L507.652 115.785L525.101 115.007L525.61 126.413L508.161 127.192ZM511.138 166.796L510.067 142.774L505.005 143L505.84 131.155L525.782 130.266L527.379 166.071L511.138 166.796Z"/>
<path d="M549.523 165.841C544.386 166.07 540.629 164.976 538.25 162.559C535.87 160.092 534.583 156.693 534.389 152.362L533.918 141.786L529.461 141.985L528.932 130.125L533.389 129.927L533.069 122.75L549.151 118.476L549.63 129.202L557.41 128.855L557.486 140.735L550.159 141.062L550.587 150.655C550.694 153.073 552.108 154.221 554.827 154.099C556.338 154.032 557.838 153.713 559.326 153.142L559.791 163.566C558.357 164.236 556.816 164.758 555.168 165.135C553.52 165.511 551.638 165.746 549.523 165.841Z"/>
<path d="M579.104 164.521C573.967 164.75 570.21 163.656 567.831 161.24C565.451 158.772 564.164 155.373 563.971 151.042L563.499 140.467L559.042 140.666L558.513 128.806L562.97 128.607L562.65 121.431L578.732 117.156L579.211 127.883L586.991 127.536L587.067 139.416L579.74 139.743L580.168 149.336C580.275 151.753 581.689 152.901 584.408 152.78C585.919 152.713 587.419 152.393 588.907 151.822L589.372 162.247C587.938 162.916 586.398 163.439 584.749 163.815C583.101 164.192 581.219 164.427 579.104 164.521Z"/>
<path d="M612.84 163.017C608.66 163.203 604.878 162.691 601.494 161.479C598.157 160.215 595.496 158.24 593.509 155.553C591.522 152.866 590.439 149.509 590.259 145.48C590.005 139.789 591.439 135.159 594.559 131.588C597.73 128.016 602.614 126.082 609.211 125.788C615.204 125.521 620.005 126.82 623.615 129.687C627.222 132.503 629.146 136.606 629.386 141.994L629.663 148.188L605.339 149.273C606.772 151.984 610.51 153.205 616.553 152.936C618.769 152.837 620.901 152.565 622.95 152.121C624.997 151.626 626.639 151.098 627.875 150.539L628.286 159.754C624.787 161.626 619.638 162.713 612.84 163.017ZM604.962 140.813L615.386 140.348L615.342 139.366C615.295 138.308 614.877 137.419 614.088 136.697C613.349 135.973 612.048 135.653 610.185 135.736C608.171 135.825 606.78 136.316 606.012 137.208C605.244 138.1 604.894 139.302 604.962 140.813Z"/>
<path d="M655.035 161.135C650.855 161.321 647.073 160.809 643.689 159.597C640.353 158.333 637.691 156.358 635.704 153.671C633.718 150.984 632.634 147.627 632.455 143.598C632.201 137.907 633.634 133.277 636.755 129.706C639.926 126.134 644.81 124.2 651.407 123.906C657.4 123.639 662.201 124.939 665.81 127.805C669.418 130.621 671.341 134.724 671.582 140.112L671.858 146.306L647.535 147.391C648.967 150.102 652.705 151.323 658.749 151.054C660.964 150.955 663.097 150.683 665.146 150.239C667.192 149.744 668.834 149.216 670.071 148.657L670.482 157.872C666.983 159.744 661.834 160.832 655.035 161.135ZM647.157 138.931L657.582 138.466L657.538 137.484C657.491 136.426 657.072 135.537 656.283 134.815C655.545 134.091 654.244 133.771 652.38 133.854C650.366 133.944 648.975 134.434 648.208 135.327C647.44 136.219 647.09 137.42 647.157 138.931Z"/>
<path d="M719.067 158.279C709.852 158.69 702.756 156.862 697.781 152.795C692.856 148.725 690.214 142.662 689.855 134.604C689.487 126.345 691.549 119.971 696.041 115.482C700.534 110.992 707.413 108.541 716.679 108.128C719.801 107.989 722.556 108.093 724.943 108.441C727.33 108.788 729.651 109.341 731.905 110.098L732.535 124.224C730.173 123.32 727.848 122.667 725.56 122.264C723.322 121.859 720.943 121.713 718.425 121.825C714.346 122.007 711.263 123.028 709.177 124.887C707.138 126.694 706.212 129.687 706.398 133.867C706.58 137.946 707.817 140.792 710.109 142.405C712.449 143.966 715.609 144.658 719.587 144.48C722.055 144.37 724.412 144.038 726.658 143.484C728.901 142.879 731.159 142.022 733.43 140.911L734.064 155.112C731.884 156.017 729.594 156.724 727.195 157.235C724.848 157.794 722.139 158.142 719.067 158.279Z"/>
<path d="M738.697 156.647L737.1 120.841L752.887 120.137L753.376 122.613C754.7 121.747 756.455 120.937 758.642 120.183C760.828 119.43 763.079 118.976 765.393 118.822L765.929 130.833C764.672 130.94 763.268 131.128 761.715 131.399C760.214 131.668 758.764 131.985 757.368 132.35C756.019 132.663 754.876 133.042 753.937 133.487L754.938 155.922L738.697 156.647Z"/>
<path d="M789.589 155.134C785.409 155.32 781.627 154.808 778.242 153.596C774.906 152.332 772.245 150.357 770.258 147.67C768.271 144.983 767.188 141.626 767.008 137.597C766.754 131.906 768.188 127.276 771.308 123.705C774.479 120.133 779.363 118.199 785.96 117.905C791.953 117.638 796.754 118.937 800.364 121.804C803.971 124.62 805.895 128.723 806.135 134.111L806.411 140.305L782.088 141.39C783.521 144.101 787.259 145.322 793.302 145.053C795.518 144.954 797.65 144.682 799.699 144.238C801.746 143.743 803.388 143.215 804.624 142.656L805.035 151.871C801.536 153.743 796.387 154.83 789.589 155.134ZM781.711 132.93L792.135 132.465L792.091 131.483C792.044 130.425 791.626 129.536 790.837 128.814C790.098 128.09 788.797 127.77 786.934 127.853C784.919 127.942 783.528 128.433 782.761 129.325C781.993 130.217 781.643 131.419 781.711 132.93Z"/>
<path d="M816.044 153.197L805.005 117.813L820.566 117.119L824.862 131.989L827.604 122.179L827.364 116.815L839.149 116.29L843.898 131.14L846.702 115.953L862.263 115.259L854.418 151.485L839.99 152.129L834.687 138.439L830.623 152.547L816.044 153.197Z"/>
<path d="M349.701 163.021C351.513 162.94 352.824 162.352 353.633 161.256C354.442 160.16 354.791 158.353 354.678 155.835C354.566 153.317 354.058 151.549 353.155 150.529C352.252 149.51 350.894 149.041 349.081 149.122C347.318 149.2 346.032 149.787 345.223 150.883C344.465 151.977 344.142 153.782 344.254 156.3C344.366 158.818 344.849 160.588 345.702 161.61C346.605 162.629 347.938 163.099 349.701 163.021Z"/>
</mask>
<path d="M159.768 183.224C154.329 183.466 149.684 182.841 145.833 181.347C141.982 179.854 138.967 177.314 136.789 173.728C134.661 170.139 133.463 165.348 133.196 159.356C132.924 153.262 133.688 148.334 135.488 144.57C137.339 140.804 140.115 138.006 143.818 136.175C147.521 134.345 152.092 133.308 157.531 133.066C162.969 132.823 167.614 133.449 171.465 134.942C175.317 136.436 178.306 138.977 180.434 142.565C182.612 146.152 183.837 150.992 184.109 157.085C184.376 163.078 183.585 167.957 181.734 171.723C179.934 175.487 177.183 178.284 173.48 180.114C169.777 181.945 165.207 182.981 159.768 183.224ZM159.155 169.476C162.277 169.336 164.479 168.355 165.76 166.532C167.091 164.706 167.668 161.805 167.491 157.826C167.304 153.646 166.469 150.757 164.985 149.158C163.549 147.506 161.269 146.75 158.147 146.89C154.975 147.031 152.721 147.989 151.388 149.764C150.102 151.487 149.553 154.438 149.739 158.618C149.916 162.596 150.724 165.436 152.163 167.138C153.651 168.838 155.982 169.617 159.155 169.476Z" fill="white"/>
<path d="M202.588 181.314C198.459 181.498 195.158 180.459 192.685 178.198C190.263 175.935 188.951 172.537 188.749 168.004L187.738 145.343L203.979 144.618L204.919 165.694C205.025 168.061 206.286 169.19 208.703 169.082C209.559 169.044 210.406 168.804 211.245 168.363C212.133 167.92 212.817 167.41 213.296 166.834L212.288 144.248L228.529 143.523L230.126 179.329L214.867 180.009L214.385 177.684C213.066 178.652 211.387 179.483 209.35 180.18C207.36 180.824 205.106 181.202 202.588 181.314Z" fill="white"/>
<path d="M236.187 179.058L234.59 143.253L250.378 142.549L250.866 145.025C252.19 144.159 253.945 143.349 256.132 142.595C258.319 141.842 260.569 141.388 262.883 141.234L263.419 153.245C262.162 153.351 260.758 153.54 259.206 153.811C257.704 154.08 256.255 154.397 254.858 154.762C253.51 155.075 252.366 155.454 251.427 155.899L252.428 178.334L236.187 179.058Z" fill="white"/>
<path d="M310.391 176.506C301.175 176.917 294.08 175.089 289.105 171.022C284.18 166.952 281.538 160.889 281.179 152.831C280.81 144.572 282.872 138.198 287.365 133.709C291.857 129.219 298.737 126.768 308.003 126.355C311.125 126.216 313.88 126.32 316.267 126.667C318.654 127.015 320.974 127.568 323.228 128.325L323.858 142.451C321.497 141.547 319.172 140.894 316.883 140.491C314.645 140.086 312.267 139.94 309.749 140.052C305.67 140.234 302.587 141.255 300.5 143.114C298.461 144.921 297.535 147.914 297.722 152.094C297.904 156.173 299.141 159.019 301.433 160.632C303.773 162.193 306.932 162.885 310.911 162.707C313.378 162.597 315.735 162.265 317.981 161.711C320.225 161.106 322.482 160.248 324.754 159.138L325.387 173.339C323.208 174.244 320.918 174.951 318.519 175.462C316.172 176.021 313.463 176.369 310.391 176.506Z" fill="white"/>
<path d="M350.223 174.729C342.87 175.057 337.337 173.74 333.622 170.777C329.955 167.762 327.985 163.182 327.711 157.038C327.437 150.894 329.018 146.182 332.454 142.9C335.888 139.568 341.256 137.739 348.558 137.413C355.911 137.085 361.446 138.428 365.163 141.441C368.928 144.402 370.947 148.954 371.221 155.098C371.495 161.241 369.915 165.979 366.481 169.312C363.045 172.593 357.626 174.399 350.223 174.729ZM349.701 163.021C351.513 162.94 352.824 162.352 353.633 161.256C354.442 160.16 354.791 158.353 354.678 155.835C354.566 153.317 354.058 151.549 353.155 150.529C352.252 149.51 350.894 149.041 349.081 149.122C347.318 149.2 346.032 149.787 345.223 150.883C344.465 151.977 344.142 153.782 344.254 156.3C344.366 158.818 344.849 160.588 345.702 161.61C346.605 162.629 347.938 163.099 349.701 163.021Z" fill="white"/>
<path d="M376.568 172.797L374.971 136.992L390.003 136.322L390.496 138.873C391.913 137.851 393.54 136.996 395.377 136.309C397.261 135.569 399.362 135.147 401.678 135.044C403.894 134.945 405.646 135.195 406.934 135.794C408.22 136.342 409.292 137.177 410.149 138.299C411.711 137.12 413.485 136.157 415.47 135.413C417.455 134.668 419.782 134.237 422.451 134.118C426.681 133.929 429.804 134.925 431.819 137.106C433.881 139.234 435.013 142.539 435.213 147.021L436.244 170.136L420.305 170.847L419.358 149.62C419.307 148.462 419.018 147.642 418.492 147.161C418.014 146.628 417.196 146.387 416.037 146.438C414.627 146.501 413.492 147.056 412.63 148.104C412.712 148.807 412.767 149.485 412.796 150.14C412.826 150.795 412.857 151.5 412.891 152.255L413.733 171.14L398.701 171.81L397.741 150.282C397.694 149.224 397.458 148.478 397.035 148.043C396.66 147.555 395.969 147.333 394.962 147.378C394.257 147.41 393.586 147.641 392.949 148.073C392.311 148.455 391.726 148.935 391.197 149.514L392.205 172.1L376.568 172.797Z" fill="white"/>
<path d="M441.927 169.882L440.33 134.077L455.362 133.407L455.854 135.958C457.272 134.936 458.899 134.081 460.735 133.394C462.62 132.654 464.72 132.232 467.037 132.129C469.253 132.03 471.005 132.28 472.293 132.879C473.579 133.427 474.65 134.262 475.508 135.384C477.07 134.205 478.844 133.242 480.829 132.498C482.814 131.753 485.141 131.322 487.81 131.203C492.04 131.014 495.163 132.01 497.177 134.191C499.24 136.319 500.372 139.624 500.571 144.106L501.602 167.221L485.664 167.932L484.717 146.705C484.665 145.547 484.376 144.727 483.85 144.246C483.373 143.713 482.554 143.472 481.396 143.523C479.986 143.586 478.85 144.141 477.989 145.189C478.071 145.892 478.126 146.57 478.155 147.225C478.184 147.88 478.216 148.585 478.25 149.34L479.092 168.225L464.06 168.895L463.099 147.367C463.052 146.309 462.817 145.563 462.394 145.128C462.019 144.64 461.328 144.418 460.321 144.463C459.616 144.495 458.945 144.726 458.308 145.158C457.669 145.54 457.085 146.02 456.556 146.599L457.563 169.185L441.927 169.882Z" fill="white"/>
<path d="M508.161 127.192L507.652 115.785L525.101 115.007L525.61 126.413L508.161 127.192ZM511.138 166.796L510.067 142.774L505.005 143L505.84 131.155L525.782 130.266L527.379 166.071L511.138 166.796Z" fill="white"/>
<path d="M549.523 165.841C544.386 166.07 540.629 164.976 538.25 162.559C535.87 160.092 534.583 156.693 534.389 152.362L533.918 141.786L529.461 141.985L528.932 130.125L533.389 129.927L533.069 122.75L549.151 118.476L549.63 129.202L557.41 128.855L557.486 140.735L550.159 141.062L550.587 150.655C550.694 153.073 552.108 154.221 554.827 154.099C556.338 154.032 557.838 153.713 559.326 153.142L559.791 163.566C558.357 164.236 556.816 164.758 555.168 165.135C553.52 165.511 551.638 165.746 549.523 165.841Z" fill="white"/>
<path d="M579.104 164.521C573.967 164.75 570.21 163.656 567.831 161.24C565.451 158.772 564.164 155.373 563.971 151.042L563.499 140.467L559.042 140.666L558.513 128.806L562.97 128.607L562.65 121.431L578.732 117.156L579.211 127.883L586.991 127.536L587.067 139.416L579.74 139.743L580.168 149.336C580.275 151.753 581.689 152.901 584.408 152.78C585.919 152.713 587.419 152.393 588.907 151.822L589.372 162.247C587.938 162.916 586.398 163.439 584.749 163.815C583.101 164.192 581.219 164.427 579.104 164.521Z" fill="white"/>
<path d="M612.84 163.017C608.66 163.203 604.878 162.691 601.494 161.479C598.157 160.215 595.496 158.24 593.509 155.553C591.522 152.866 590.439 149.509 590.259 145.48C590.005 139.789 591.439 135.159 594.559 131.588C597.73 128.016 602.614 126.082 609.211 125.788C615.204 125.521 620.005 126.82 623.615 129.687C627.222 132.503 629.146 136.606 629.386 141.994L629.663 148.188L605.339 149.273C606.772 151.984 610.51 153.205 616.553 152.936C618.769 152.837 620.901 152.565 622.95 152.121C624.997 151.626 626.639 151.098 627.875 150.539L628.286 159.754C624.787 161.626 619.638 162.713 612.84 163.017ZM604.962 140.813L615.386 140.348L615.342 139.366C615.295 138.308 614.877 137.419 614.088 136.697C613.349 135.973 612.048 135.653 610.185 135.736C608.171 135.825 606.78 136.316 606.012 137.208C605.244 138.1 604.894 139.302 604.962 140.813Z" fill="white"/>
<path d="M655.035 161.135C650.855 161.321 647.073 160.809 643.689 159.597C640.353 158.333 637.691 156.358 635.704 153.671C633.718 150.984 632.634 147.627 632.455 143.598C632.201 137.907 633.634 133.277 636.755 129.706C639.926 126.134 644.81 124.2 651.407 123.906C657.4 123.639 662.201 124.939 665.81 127.805C669.418 130.621 671.341 134.724 671.582 140.112L671.858 146.306L647.535 147.391C648.967 150.102 652.705 151.323 658.749 151.054C660.964 150.955 663.097 150.683 665.146 150.239C667.192 149.744 668.834 149.216 670.071 148.657L670.482 157.872C666.983 159.744 661.834 160.832 655.035 161.135ZM647.157 138.931L657.582 138.466L657.538 137.484C657.491 136.426 657.072 135.537 656.283 134.815C655.545 134.091 654.244 133.771 652.38 133.854C650.366 133.944 648.975 134.434 648.208 135.327C647.44 136.219 647.09 137.42 647.157 138.931Z" fill="white"/>
<path d="M719.067 158.279C709.852 158.69 702.756 156.862 697.781 152.795C692.856 148.725 690.214 142.662 689.855 134.604C689.487 126.345 691.549 119.971 696.041 115.482C700.534 110.992 707.413 108.541 716.679 108.128C719.801 107.989 722.556 108.093 724.943 108.441C727.33 108.788 729.651 109.341 731.905 110.098L732.535 124.224C730.173 123.32 727.848 122.667 725.56 122.264C723.322 121.859 720.943 121.713 718.425 121.825C714.346 122.007 711.263 123.028 709.177 124.887C707.138 126.694 706.212 129.687 706.398 133.867C706.58 137.946 707.817 140.792 710.109 142.405C712.449 143.966 715.609 144.658 719.587 144.48C722.055 144.37 724.412 144.038 726.658 143.484C728.901 142.879 731.159 142.022 733.43 140.911L734.064 155.112C731.884 156.017 729.594 156.724 727.195 157.235C724.848 157.794 722.139 158.142 719.067 158.279Z" fill="white"/>
<path d="M738.697 156.647L737.1 120.841L752.887 120.137L753.376 122.613C754.7 121.747 756.455 120.937 758.642 120.183C760.828 119.43 763.079 118.976 765.393 118.822L765.929 130.833C764.672 130.94 763.268 131.128 761.715 131.399C760.214 131.668 758.764 131.985 757.368 132.35C756.019 132.663 754.876 133.042 753.937 133.487L754.938 155.922L738.697 156.647Z" fill="white"/>
<path d="M789.589 155.134C785.409 155.32 781.627 154.808 778.242 153.596C774.906 152.332 772.245 150.357 770.258 147.67C768.271 144.983 767.188 141.626 767.008 137.597C766.754 131.906 768.188 127.276 771.308 123.705C774.479 120.133 779.363 118.199 785.96 117.905C791.953 117.638 796.754 118.937 800.364 121.804C803.971 124.62 805.895 128.723 806.135 134.111L806.411 140.305L782.088 141.39C783.521 144.101 787.259 145.322 793.302 145.053C795.518 144.954 797.65 144.682 799.699 144.238C801.746 143.743 803.388 143.215 804.624 142.656L805.035 151.871C801.536 153.743 796.387 154.83 789.589 155.134ZM781.711 132.93L792.135 132.465L792.091 131.483C792.044 130.425 791.626 129.536 790.837 128.814C790.098 128.09 788.797 127.77 786.934 127.853C784.919 127.942 783.528 128.433 782.761 129.325C781.993 130.217 781.643 131.419 781.711 132.93Z" fill="white"/>
<path d="M816.044 153.197L805.005 117.813L820.566 117.119L824.862 131.989L827.604 122.179L827.364 116.815L839.149 116.29L843.898 131.14L846.702 115.953L862.263 115.259L854.418 151.485L839.99 152.129L834.687 138.439L830.623 152.547L816.044 153.197Z" fill="white"/>
<path d="M349.701 163.021C351.513 162.94 352.824 162.352 353.633 161.256C354.442 160.16 354.791 158.353 354.678 155.835C354.566 153.317 354.058 151.549 353.155 150.529C352.252 149.51 350.894 149.041 349.081 149.122C347.318 149.2 346.032 149.787 345.223 150.883C344.465 151.977 344.142 153.782 344.254 156.3C344.366 158.818 344.849 160.588 345.702 161.61C346.605 162.629 347.938 163.099 349.701 163.021Z" fill="#8A00DA"/>
<path d="M159.768 183.224C154.329 183.466 149.684 182.841 145.833 181.347C141.982 179.854 138.967 177.314 136.789 173.728C134.661 170.139 133.463 165.348 133.196 159.356C132.924 153.262 133.688 148.334 135.488 144.57C137.339 140.804 140.115 138.006 143.818 136.175C147.521 134.345 152.092 133.308 157.531 133.066C162.969 132.823 167.614 133.449 171.465 134.942C175.317 136.436 178.306 138.977 180.434 142.565C182.612 146.152 183.837 150.992 184.109 157.085C184.376 163.078 183.585 167.957 181.734 171.723C179.934 175.487 177.183 178.284 173.48 180.114C169.777 181.945 165.207 182.981 159.768 183.224ZM159.155 169.476C162.277 169.336 164.479 168.355 165.76 166.532C167.091 164.706 167.668 161.805 167.491 157.826C167.304 153.646 166.469 150.757 164.985 149.158C163.549 147.506 161.269 146.75 158.147 146.89C154.975 147.031 152.721 147.989 151.388 149.764C150.102 151.487 149.553 154.438 149.739 158.618C149.916 162.596 150.724 165.436 152.163 167.138C153.651 168.838 155.982 169.617 159.155 169.476Z" stroke="#8A00DA" stroke-width="21.9968" stroke-linejoin="round" mask="url(#path-1-outside-1_38_1169)"/>
<path d="M202.588 181.314C198.459 181.498 195.158 180.459 192.685 178.198C190.263 175.935 188.951 172.537 188.749 168.004L187.738 145.343L203.979 144.618L204.919 165.694C205.025 168.061 206.286 169.19 208.703 169.082C209.559 169.044 210.406 168.804 211.245 168.363C212.133 167.92 212.817 167.41 213.296 166.834L212.288 144.248L228.529 143.523L230.126 179.329L214.867 180.009L214.385 177.684C213.066 178.652 211.387 179.483 209.35 180.18C207.36 180.824 205.106 181.202 202.588 181.314Z" stroke="#8A00DA" stroke-width="21.9968" stroke-linejoin="round" mask="url(#path-1-outside-1_38_1169)"/>
<path d="M236.187 179.058L234.59 143.253L250.378 142.549L250.866 145.025C252.19 144.159 253.945 143.349 256.132 142.595C258.319 141.842 260.569 141.388 262.883 141.234L263.419 153.245C262.162 153.351 260.758 153.54 259.206 153.811C257.704 154.08 256.255 154.397 254.858 154.762C253.51 155.075 252.366 155.454 251.427 155.899L252.428 178.334L236.187 179.058Z" stroke="#8A00DA" stroke-width="21.9968" stroke-linejoin="round" mask="url(#path-1-outside-1_38_1169)"/>
<path d="M310.391 176.506C301.175 176.917 294.08 175.089 289.105 171.022C284.18 166.952 281.538 160.889 281.179 152.831C280.81 144.572 282.872 138.198 287.365 133.709C291.857 129.219 298.737 126.768 308.003 126.355C311.125 126.216 313.88 126.32 316.267 126.667C318.654 127.015 320.974 127.568 323.228 128.325L323.858 142.451C321.497 141.547 319.172 140.894 316.883 140.491C314.645 140.086 312.267 139.94 309.749 140.052C305.67 140.234 302.587 141.255 300.5 143.114C298.461 144.921 297.535 147.914 297.722 152.094C297.904 156.173 299.141 159.019 301.433 160.632C303.773 162.193 306.932 162.885 310.911 162.707C313.378 162.597 315.735 162.265 317.981 161.711C320.225 161.106 322.482 160.248 324.754 159.138L325.387 173.339C323.208 174.244 320.918 174.951 318.519 175.462C316.172 176.021 313.463 176.369 310.391 176.506Z" stroke="#8A00DA" stroke-width="21.9968" stroke-linejoin="round" mask="url(#path-1-outside-1_38_1169)"/>
<path d="M350.223 174.729C342.87 175.057 337.337 173.74 333.622 170.777C329.955 167.762 327.985 163.182 327.711 157.038C327.437 150.894 329.018 146.182 332.454 142.9C335.888 139.568 341.256 137.739 348.558 137.413C355.911 137.085 361.446 138.428 365.163 141.441C368.928 144.402 370.947 148.954 371.221 155.098C371.495 161.241 369.915 165.979 366.481 169.312C363.045 172.593 357.626 174.399 350.223 174.729ZM349.701 163.021C351.513 162.94 352.824 162.352 353.633 161.256C354.442 160.16 354.791 158.353 354.678 155.835C354.566 153.317 354.058 151.549 353.155 150.529C352.252 149.51 350.894 149.041 349.081 149.122C347.318 149.2 346.032 149.787 345.223 150.883C344.465 151.977 344.142 153.782 344.254 156.3C344.366 158.818 344.849 160.588 345.702 161.61C346.605 162.629 347.938 163.099 349.701 163.021Z" stroke="#8A00DA" stroke-width="21.9968" stroke-linejoin="round" mask="url(#path-1-outside-1_38_1169)"/>
<path d="M376.568 172.797L374.971 136.992L390.003 136.322L390.496 138.873C391.913 137.851 393.54 136.996 395.377 136.309C397.261 135.569 399.362 135.147 401.678 135.044C403.894 134.945 405.646 135.195 406.934 135.794C408.22 136.342 409.292 137.177 410.149 138.299C411.711 137.12 413.485 136.157 415.47 135.413C417.455 134.668 419.782 134.237 422.451 134.118C426.681 133.929 429.804 134.925 431.819 137.106C433.881 139.234 435.013 142.539 435.213 147.021L436.244 170.136L420.305 170.847L419.358 149.62C419.307 148.462 419.018 147.642 418.492 147.161C418.014 146.628 417.196 146.387 416.037 146.438C414.627 146.501 413.492 147.056 412.63 148.104C412.712 148.807 412.767 149.485 412.796 150.14C412.826 150.795 412.857 151.5 412.891 152.255L413.733 171.14L398.701 171.81L397.741 150.282C397.694 149.224 397.458 148.478 397.035 148.043C396.66 147.555 395.969 147.333 394.962 147.378C394.257 147.41 393.586 147.641 392.949 148.073C392.311 148.455 391.726 148.935 391.197 149.514L392.205 172.1L376.568 172.797Z" stroke="#8A00DA" stroke-width="21.9968" stroke-linejoin="round" mask="url(#path-1-outside-1_38_1169)"/>
<path d="M441.927 169.882L440.33 134.077L455.362 133.407L455.854 135.958C457.272 134.936 458.899 134.081 460.735 133.394C462.62 132.654 464.72 132.232 467.037 132.129C469.253 132.03 471.005 132.28 472.293 132.879C473.579 133.427 474.65 134.262 475.508 135.384C477.07 134.205 478.844 133.242 480.829 132.498C482.814 131.753 485.141 131.322 487.81 131.203C492.04 131.014 495.163 132.01 497.177 134.191C499.24 136.319 500.372 139.624 500.571 144.106L501.602 167.221L485.664 167.932L484.717 146.705C484.665 145.547 484.376 144.727 483.85 144.246C483.373 143.713 482.554 143.472 481.396 143.523C479.986 143.586 478.85 144.141 477.989 145.189C478.071 145.892 478.126 146.57 478.155 147.225C478.184 147.88 478.216 148.585 478.25 149.34L479.092 168.225L464.06 168.895L463.099 147.367C463.052 146.309 462.817 145.563 462.394 145.128C462.019 144.64 461.328 144.418 460.321 144.463C459.616 144.495 458.945 144.726 458.308 145.158C457.669 145.54 457.085 146.02 456.556 146.599L457.563 169.185L441.927 169.882Z" stroke="#8A00DA" stroke-width="21.9968" stroke-linejoin="round" mask="url(#path-1-outside-1_38_1169)"/>
<path d="M508.161 127.192L507.652 115.785L525.101 115.007L525.61 126.413L508.161 127.192ZM511.138 166.796L510.067 142.774L505.005 143L505.84 131.155L525.782 130.266L527.379 166.071L511.138 166.796Z" stroke="#8A00DA" stroke-width="21.9968" stroke-linejoin="round" mask="url(#path-1-outside-1_38_1169)"/>
<path d="M549.523 165.841C544.386 166.07 540.629 164.976 538.25 162.559C535.87 160.092 534.583 156.693 534.389 152.362L533.918 141.786L529.461 141.985L528.932 130.125L533.389 129.927L533.069 122.75L549.151 118.476L549.63 129.202L557.41 128.855L557.486 140.735L550.159 141.062L550.587 150.655C550.694 153.073 552.108 154.221 554.827 154.099C556.338 154.032 557.838 153.713 559.326 153.142L559.791 163.566C558.357 164.236 556.816 164.758 555.168 165.135C553.52 165.511 551.638 165.746 549.523 165.841Z" stroke="#8A00DA" stroke-width="21.9968" stroke-linejoin="round" mask="url(#path-1-outside-1_38_1169)"/>
<path d="M579.104 164.521C573.967 164.75 570.21 163.656 567.831 161.24C565.451 158.772 564.164 155.373 563.971 151.042L563.499 140.467L559.042 140.666L558.513 128.806L562.97 128.607L562.65 121.431L578.732 117.156L579.211 127.883L586.991 127.536L587.067 139.416L579.74 139.743L580.168 149.336C580.275 151.753 581.689 152.901 584.408 152.78C585.919 152.713 587.419 152.393 588.907 151.822L589.372 162.247C587.938 162.916 586.398 163.439 584.749 163.815C583.101 164.192 581.219 164.427 579.104 164.521Z" stroke="#8A00DA" stroke-width="21.9968" stroke-linejoin="round" mask="url(#path-1-outside-1_38_1169)"/>
<path d="M612.84 163.017C608.66 163.203 604.878 162.691 601.494 161.479C598.157 160.215 595.496 158.24 593.509 155.553C591.522 152.866 590.439 149.509 590.259 145.48C590.005 139.789 591.439 135.159 594.559 131.588C597.73 128.016 602.614 126.082 609.211 125.788C615.204 125.521 620.005 126.82 623.615 129.687C627.222 132.503 629.146 136.606 629.386 141.994L629.663 148.188L605.339 149.273C606.772 151.984 610.51 153.205 616.553 152.936C618.769 152.837 620.901 152.565 622.95 152.121C624.997 151.626 626.639 151.098 627.875 150.539L628.286 159.754C624.787 161.626 619.638 162.713 612.84 163.017ZM604.962 140.813L615.386 140.348L615.342 139.366C615.295 138.308 614.877 137.419 614.088 136.697C613.349 135.973 612.048 135.653 610.185 135.736C608.171 135.825 606.78 136.316 606.012 137.208C605.244 138.1 604.894 139.302 604.962 140.813Z" stroke="#8A00DA" stroke-width="21.9968" stroke-linejoin="round" mask="url(#path-1-outside-1_38_1169)"/>
<path d="M655.035 161.135C650.855 161.321 647.073 160.809 643.689 159.597C640.353 158.333 637.691 156.358 635.704 153.671C633.718 150.984 632.634 147.627 632.455 143.598C632.201 137.907 633.634 133.277 636.755 129.706C639.926 126.134 644.81 124.2 651.407 123.906C657.4 123.639 662.201 124.939 665.81 127.805C669.418 130.621 671.341 134.724 671.582 140.112L671.858 146.306L647.535 147.391C648.967 150.102 652.705 151.323 658.749 151.054C660.964 150.955 663.097 150.683 665.146 150.239C667.192 149.744 668.834 149.216 670.071 148.657L670.482 157.872C666.983 159.744 661.834 160.832 655.035 161.135ZM647.157 138.931L657.582 138.466L657.538 137.484C657.491 136.426 657.072 135.537 656.283 134.815C655.545 134.091 654.244 133.771 652.38 133.854C650.366 133.944 648.975 134.434 648.208 135.327C647.44 136.219 647.09 137.42 647.157 138.931Z" stroke="#8A00DA" stroke-width="21.9968" stroke-linejoin="round" mask="url(#path-1-outside-1_38_1169)"/>
<path d="M719.067 158.279C709.852 158.69 702.756 156.862 697.781 152.795C692.856 148.725 690.214 142.662 689.855 134.604C689.487 126.345 691.549 119.971 696.041 115.482C700.534 110.992 707.413 108.541 716.679 108.128C719.801 107.989 722.556 108.093 724.943 108.441C727.33 108.788 729.651 109.341 731.905 110.098L732.535 124.224C730.173 123.32 727.848 122.667 725.56 122.264C723.322 121.859 720.943 121.713 718.425 121.825C714.346 122.007 711.263 123.028 709.177 124.887C707.138 126.694 706.212 129.687 706.398 133.867C706.58 137.946 707.817 140.792 710.109 142.405C712.449 143.966 715.609 144.658 719.587 144.48C722.055 144.37 724.412 144.038 726.658 143.484C728.901 142.879 731.159 142.022 733.43 140.911L734.064 155.112C731.884 156.017 729.594 156.724 727.195 157.235C724.848 157.794 722.139 158.142 719.067 158.279Z" stroke="#8A00DA" stroke-width="21.9968" stroke-linejoin="round" mask="url(#path-1-outside-1_38_1169)"/>
<path d="M738.697 156.647L737.1 120.841L752.887 120.137L753.376 122.613C754.7 121.747 756.455 120.937 758.642 120.183C760.828 119.43 763.079 118.976 765.393 118.822L765.929 130.833C764.672 130.94 763.268 131.128 761.715 131.399C760.214 131.668 758.764 131.985 757.368 132.35C756.019 132.663 754.876 133.042 753.937 133.487L754.938 155.922L738.697 156.647Z" stroke="#8A00DA" stroke-width="21.9968" stroke-linejoin="round" mask="url(#path-1-outside-1_38_1169)"/>
<path d="M789.589 155.134C785.409 155.32 781.627 154.808 778.242 153.596C774.906 152.332 772.245 150.357 770.258 147.67C768.271 144.983 767.188 141.626 767.008 137.597C766.754 131.906 768.188 127.276 771.308 123.705C774.479 120.133 779.363 118.199 785.96 117.905C791.953 117.638 796.754 118.937 800.364 121.804C803.971 124.62 805.895 128.723 806.135 134.111L806.411 140.305L782.088 141.39C783.521 144.101 787.259 145.322 793.302 145.053C795.518 144.954 797.65 144.682 799.699 144.238C801.746 143.743 803.388 143.215 804.624 142.656L805.035 151.871C801.536 153.743 796.387 154.83 789.589 155.134ZM781.711 132.93L792.135 132.465L792.091 131.483C792.044 130.425 791.626 129.536 790.837 128.814C790.098 128.09 788.797 127.77 786.934 127.853C784.919 127.942 783.528 128.433 782.761 129.325C781.993 130.217 781.643 131.419 781.711 132.93Z" stroke="#8A00DA" stroke-width="21.9968" stroke-linejoin="round" mask="url(#path-1-outside-1_38_1169)"/>
<path d="M816.044 153.197L805.005 117.813L820.566 117.119L824.862 131.989L827.604 122.179L827.364 116.815L839.149 116.29L843.898 131.14L846.702 115.953L862.263 115.259L854.418 151.485L839.99 152.129L834.687 138.439L830.623 152.547L816.044 153.197Z" stroke="#8A00DA" stroke-width="21.9968" stroke-linejoin="round" mask="url(#path-1-outside-1_38_1169)"/>
<path d="M349.701 163.021C351.513 162.94 352.824 162.352 353.633 161.256C354.442 160.16 354.791 158.353 354.678 155.835C354.566 153.317 354.058 151.549 353.155 150.529C352.252 149.51 350.894 149.041 349.081 149.122C347.318 149.2 346.032 149.787 345.223 150.883C344.465 151.977 344.142 153.782 344.254 156.3C344.366 158.818 344.849 160.588 345.702 161.61C346.605 162.629 347.938 163.099 349.701 163.021Z" stroke="#8A00DA" stroke-width="21.9968" stroke-linejoin="round" mask="url(#path-1-outside-1_38_1169)"/>
</g>
<g filter="url(#filter1_d_38_1169)">
<mask id="path-2-outside-2_38_1169" maskUnits="userSpaceOnUse" x="50.0556" y="43.0641" width="87.6098" height="95.8849" fill="black">
<rect fill="white" x="50.0556" y="43.0641" width="87.6098" height="95.8849"/>
<path d="M108.87 98.6543L90.8721 74.0885L80.4217 60.4089L67.2322 70.1551L77.6826 83.8348L96.6632 107.674L108.87 98.6543ZM120.572 112.295L113.399 102.906L99.5541 113.136L106.727 122.526L120.572 112.295Z"/>
</mask>
<path d="M108.87 98.6543L90.8721 74.0885L80.4217 60.4089L67.2322 70.1551L77.6826 83.8348L96.6632 107.674L108.87 98.6543ZM120.572 112.295L113.399 102.906L99.5541 113.136L106.727 122.526L120.572 112.295Z" fill="#8A00DA"/>
<path d="M108.87 98.6543L118.318 91.9612C122.041 97.0434 120.965 104.107 115.896 107.853L108.87 98.6543ZM90.8721 74.0885L100.181 67.2095C100.228 67.271 100.275 67.333 100.321 67.3954L90.8721 74.0885ZM80.4217 60.4089L73.3949 51.2106C78.5363 47.4114 85.8502 48.4497 89.7311 53.5298L80.4217 60.4089ZM67.2322 70.1551L57.9229 77.0341C54.0421 71.9541 55.064 64.756 60.2054 60.9568L67.2322 70.1551ZM77.6826 83.8348L68.5161 90.897C68.4679 90.8364 68.4202 90.7753 68.3732 90.7138L77.6826 83.8348ZM96.6632 107.674L103.69 116.872C98.6214 120.618 91.4235 119.668 87.4967 114.736L96.6632 107.674ZM120.572 112.295L129.881 105.416C133.762 110.496 132.74 117.694 127.599 121.494L120.572 112.295ZM113.399 102.906L106.372 93.7073C111.514 89.9081 118.828 90.9465 122.708 96.0266L113.399 102.906ZM99.5541 113.136L90.2448 120.015C86.364 114.935 87.3859 107.737 92.5273 103.938L99.5541 113.136ZM106.727 122.526L113.754 131.724C108.613 135.523 101.299 134.485 97.4178 129.405L106.727 122.526ZM108.87 98.6543L99.4211 105.347L81.4236 80.7817L90.8721 74.0885L100.321 67.3954L118.318 91.9612L108.87 98.6543ZM90.8721 74.0885L81.5627 80.9676L71.1124 67.2879L80.4217 60.4089L89.7311 53.5298L100.181 67.2095L90.8721 74.0885ZM80.4217 60.4089L87.4486 69.6071L74.2591 79.3534L67.2322 70.1551L60.2054 60.9568L73.3949 51.2106L80.4217 60.4089ZM67.2322 70.1551L76.5416 63.276L86.9919 76.9557L77.6826 83.8348L68.3732 90.7138L57.9229 77.0341L67.2322 70.1551ZM77.6826 83.8348L86.8491 76.7726L105.83 100.612L96.6632 107.674L87.4967 114.736L68.5161 90.897L77.6826 83.8348ZM96.6632 107.674L89.6363 98.4758L101.843 89.456L108.87 98.6543L115.896 107.853L103.69 116.872L96.6632 107.674ZM120.572 112.295L111.263 119.174L104.09 109.785L113.399 102.906L122.708 96.0266L129.881 105.416L120.572 112.295ZM113.399 102.906L120.426 112.104L106.581 122.334L99.5541 113.136L92.5273 103.938L106.372 93.7073L113.399 102.906ZM99.5541 113.136L108.863 106.257L116.036 115.647L106.727 122.526L97.4178 129.405L90.2448 120.015L99.5541 113.136ZM106.727 122.526L99.7003 113.327L113.545 103.097L120.572 112.295L127.599 121.494L113.754 131.724L106.727 122.526Z" fill="white" mask="url(#path-2-outside-2_38_1169)"/>
</g>
<g filter="url(#filter2_d_38_1169)">
<mask id="path-4-outside-3_38_1169" maskUnits="userSpaceOnUse" x="27.3434" y="115.413" width="79.9737" height="52.2175" fill="black">
<rect fill="white" x="27.3434" y="115.413" width="79.9737" height="52.2175"/>
<path d="M80.5183 138.935L56.7871 131.798L43.294 128.033L39.5026 140.829L52.9958 144.593L77.0095 150.777L80.5183 138.935ZM94.8058 142.061L85.5443 139.477L81.5645 152.909L90.8261 155.493L94.8058 142.061Z"/>
</mask>
<path d="M80.5183 138.935L56.7871 131.798L43.294 128.033L39.5026 140.829L52.9958 144.593L77.0095 150.777L80.5183 138.935ZM94.8058 142.061L85.5443 139.477L81.5645 152.909L90.8261 155.493L94.8058 142.061Z" fill="#8A00DA"/>
<path d="M80.5183 138.935L83.3758 129.957C88.2854 131.433 91.0482 136.55 89.5912 141.467L80.5183 138.935ZM56.7871 131.798L59.4631 122.767C59.5238 122.784 59.5843 122.801 59.6446 122.819L56.7871 131.798ZM43.294 128.033L34.2211 125.502C35.6991 120.514 40.9592 117.604 45.97 119.002L43.294 128.033ZM39.5026 140.829L36.8266 149.86C31.8158 148.462 28.9519 143.285 30.4298 138.297L39.5026 140.829ZM52.9958 144.593L50.5023 153.674C50.4413 153.658 50.3804 153.642 50.3198 153.625L52.9958 144.593ZM77.0095 150.777L86.0824 153.309C84.6254 158.226 79.4842 161.137 74.5161 159.857L77.0095 150.777ZM94.8058 142.061L97.4818 133.03C102.493 134.428 105.357 139.605 103.879 144.593L94.8058 142.061ZM85.5443 139.477L76.4714 136.946C77.9493 131.958 83.2095 129.048 88.2203 130.446L85.5443 139.477ZM81.5645 152.909L78.8885 161.94C73.8777 160.542 71.0137 155.365 72.4917 150.377L81.5645 152.909ZM90.8261 155.493L99.8989 158.024C98.421 163.012 93.1609 165.922 88.1501 164.524L90.8261 155.493ZM80.5183 138.935L77.6608 147.914L53.9296 140.777L56.7871 131.798L59.6446 122.819L83.3758 129.957L80.5183 138.935ZM56.7871 131.798L54.1111 140.829L40.618 137.064L43.294 128.033L45.97 119.002L59.4631 122.767L56.7871 131.798ZM43.294 128.033L52.3668 130.565L48.5755 143.36L39.5026 140.829L30.4298 138.297L34.2211 125.502L43.294 128.033ZM39.5026 140.829L42.1786 131.797L55.6718 135.562L52.9958 144.593L50.3198 153.625L36.8266 149.86L39.5026 140.829ZM52.9958 144.593L55.4892 135.513L79.503 141.697L77.0095 150.777L74.5161 159.857L50.5023 153.674L52.9958 144.593ZM77.0095 150.777L67.9367 148.246L71.4455 136.404L80.5183 138.935L89.5912 141.467L86.0824 153.309L77.0095 150.777ZM94.8058 142.061L92.1298 151.093L82.8683 148.508L85.5443 139.477L88.2203 130.446L97.4818 133.03L94.8058 142.061ZM85.5443 139.477L94.6171 142.009L90.6374 155.44L81.5645 152.909L72.4917 150.377L76.4714 136.946L85.5443 139.477ZM81.5645 152.909L84.2405 143.877L93.5021 146.461L90.8261 155.493L88.1501 164.524L78.8885 161.94L81.5645 152.909ZM90.8261 155.493L81.7532 152.961L85.733 139.53L94.8058 142.061L103.879 144.593L99.8989 158.024L90.8261 155.493Z" fill="white" mask="url(#path-4-outside-3_38_1169)"/>
</g>
<g filter="url(#filter3_d_38_1169)">
<mask id="path-6-outside-4_38_1169" maskUnits="userSpaceOnUse" x="31.8486" y="166.629" width="76.6696" height="44.4444" fill="black">
<rect fill="white" x="31.8486" y="166.629" width="76.6696" height="44.4444"/>
<path d="M81.1726 181.115L56.5927 184.268L42.7366 186.328L44.4887 199.558L58.3448 197.498L82.7941 193.359L81.1726 181.115ZM95.4938 178.147L85.9831 179.561L87.8223 193.449L97.333 192.034L95.4938 178.147Z"/>
</mask>
<path d="M81.1726 181.115L56.5927 184.268L42.7366 186.328L44.4887 199.558L58.3448 197.498L82.7941 193.359L81.1726 181.115ZM95.4938 178.147L85.9831 179.561L87.8223 193.449L97.333 192.034L95.4938 178.147Z" fill="#8A00DA"/>
<path d="M81.1726 181.115L80.1231 171.751C85.2083 171.099 89.8162 174.645 90.4895 179.729L81.1726 181.115ZM56.5927 184.268L55.356 174.93C55.4183 174.921 55.4807 174.912 55.5432 174.904L56.5927 184.268ZM42.7366 186.328L33.4197 187.714C32.7367 182.557 36.3543 177.756 41.4999 176.991L42.7366 186.328ZM44.4887 199.558L45.7253 208.896C40.5798 209.661 35.8548 206.101 35.1718 200.944L44.4887 199.558ZM58.3448 197.498L59.7681 206.806C59.706 206.816 59.6437 206.826 59.5814 206.835L58.3448 197.498ZM82.7941 193.359L92.111 191.973C92.7843 197.057 89.2756 201.81 84.2174 202.667L82.7941 193.359ZM95.4938 178.147L94.2571 168.809C99.4027 168.044 104.128 171.604 104.811 176.761L95.4938 178.147ZM85.9831 179.561L76.6662 180.947C75.9832 175.79 79.6009 170.989 84.7465 170.224L85.9831 179.561ZM87.8223 193.449L89.0589 202.787C83.9133 203.552 79.1884 199.992 78.5054 194.834L87.8223 193.449ZM97.333 192.034L106.65 190.649C107.333 195.806 103.715 200.607 98.5696 201.372L97.333 192.034ZM81.1726 181.115L82.2221 190.479L57.6422 193.631L56.5927 184.268L55.5432 174.904L80.1231 171.751L81.1726 181.115ZM56.5927 184.268L57.8293 193.606L43.9732 195.666L42.7366 186.328L41.4999 176.991L55.356 174.93L56.5927 184.268ZM42.7366 186.328L52.0535 184.943L53.8056 198.173L44.4887 199.558L35.1718 200.944L33.4197 187.714L42.7366 186.328ZM44.4887 199.558L43.252 190.22L57.1081 188.16L58.3448 197.498L59.5814 206.835L45.7253 208.896L44.4887 199.558ZM58.3448 197.498L56.9214 188.189L81.3708 184.05L82.7941 193.359L84.2174 202.667L59.7681 206.806L58.3448 197.498ZM82.7941 193.359L73.4772 194.744L71.8557 182.5L81.1726 181.115L90.4895 179.729L92.111 191.973L82.7941 193.359ZM95.4938 178.147L96.7305 187.485L87.2198 188.899L85.9831 179.561L84.7465 170.224L94.2571 168.809L95.4938 178.147ZM85.9831 179.561L95.3 178.176L97.1392 192.063L87.8223 193.449L78.5054 194.834L76.6662 180.947L85.9831 179.561ZM87.8223 193.449L86.5856 184.111L96.0963 182.696L97.333 192.034L98.5696 201.372L89.0589 202.787L87.8223 193.449ZM97.333 192.034L88.0161 193.42L86.1769 179.533L95.4938 178.147L104.811 176.761L106.65 190.649L97.333 192.034Z" fill="white" mask="url(#path-6-outside-4_38_1169)"/>
</g>
<defs>
<filter id="filter0_d_38_1169" x="122.144" y="97.0697" width="751.118" height="102.158" filterUnits="userSpaceOnUse" color-interpolation-filters="sRGB">
<feFlood flood-opacity="0" result="BackgroundImageFix"/>
<feColorMatrix in="SourceAlpha" type="matrix" values="0 0 0 0 0 0 0 0 0 0 0 0 0 0 0 0 0 0 127 0" result="hardAlpha"/>
<feOffset dy="4.95531"/>
<feComposite in2="hardAlpha" operator="out"/>
<feColorMatrix type="matrix" values="0 0 0 0 0 0 0 0 0 0 0 0 0 0 0 0 0 0 0.42 0"/>
<feBlend mode="normal" in2="BackgroundImageFix" result="effect1_dropShadow_38_1169"/>
<feBlend mode="normal" in="SourceGraphic" in2="effect1_dropShadow_38_1169" result="shape"/>
</filter>
<filter id="filter1_d_38_1169" x="55.5679" y="48.9221" width="76.6685" height="88.8805" filterUnits="userSpaceOnUse" color-interpolation-filters="sRGB">
<feFlood flood-opacity="0" result="BackgroundImageFix"/>
<feColorMatrix in="SourceAlpha" type="matrix" values="0 0 0 0 0 0 0 0 0 0 0 0 0 0 0 0 0 0 127 0" result="hardAlpha"/>
<feOffset dy="3.79016"/>
<feComposite in2="hardAlpha" operator="out"/>
<feColorMatrix type="matrix" values="0 0 0 0 0 0 0 0 0 0 0 0 0 0 0 0 0 0 0.25 0"/>
<feBlend mode="normal" in2="BackgroundImageFix" result="effect1_dropShadow_38_1169"/>
<feBlend mode="normal" in="SourceGraphic" in2="effect1_dropShadow_38_1169" result="shape"/>
</filter>
<filter id="filter2_d_38_1169" x="30.041" y="118.651" width="74.2266" height="49.3072" filterUnits="userSpaceOnUse" color-interpolation-filters="sRGB">
<feFlood flood-opacity="0" result="BackgroundImageFix"/>
<feColorMatrix in="SourceAlpha" type="matrix" values="0 0 0 0 0 0 0 0 0 0 0 0 0 0 0 0 0 0 127 0" result="hardAlpha"/>
<feOffset dy="3.08426"/>
<feComposite in2="hardAlpha" operator="out"/>
<feColorMatrix type="matrix" values="0 0 0 0 0 0 0 0 0 0 0 0 0 0 0 0 0 0 0.25 0"/>
<feBlend mode="normal" in2="BackgroundImageFix" result="effect1_dropShadow_38_1169"/>
<feBlend mode="normal" in="SourceGraphic" in2="effect1_dropShadow_38_1169" result="shape"/>
</filter>
<filter id="filter3_d_38_1169" x="33.3369" y="168.706" width="73.3955" height="43.3782" filterUnits="userSpaceOnUse" color-interpolation-filters="sRGB">
<feFlood flood-opacity="0" result="BackgroundImageFix"/>
<feColorMatrix in="SourceAlpha" type="matrix" values="0 0 0 0 0 0 0 0 0 0 0 0 0 0 0 0 0 0 127 0" result="hardAlpha"/>
<feOffset dy="3.08426"/>
<feComposite in2="hardAlpha" operator="out"/>
<feColorMatrix type="matrix" values="0 0 0 0 0 0 0 0 0 0 0 0 0 0 0 0 0 0 0.25 0"/>
<feBlend mode="normal" in2="BackgroundImageFix" result="effect1_dropShadow_38_1169"/>
<feBlend mode="normal" in="SourceGraphic" in2="effect1_dropShadow_38_1169" result="shape"/>
</filter>
</defs>
</svg>
